<?xml version="1.0" encoding="iso-8859-1"?>
<!-- Generator: Adobe Illustrator 16.0.0, SVG Export Plug-In . SVG Version: 6.00 Build 0)  -->
<!DOCTYPE svg PUBLIC "-//W3C//DTD SVG 1.1//EN" "http://www.w3.org/Graphics/SVG/1.1/DTD/svg11.dtd">
<svg version="1.1" id="Capa_1" xmlns="http://www.w3.org/2000/svg" xmlns:xlink="http://www.w3.org/1999/xlink" x="0px" y="0px"
	 width="45.731px" height="45.731px" viewBox="0 0 45.731 45.731" style="enable-background:new 0 0 45.731 45.731;"
	 xml:space="preserve">
<g>
	<path d="M20.366,31.793c0-0.553,1.119-1,2.5-1s2.5,0.447,2.5,1s-1.119,1-2.5,1S20.366,32.346,20.366,31.793z M44.366,29.168
		c0,2.941-1.85,5.438-4.389,6.268c-3.258,6.257-9.812,10.296-17.082,10.296c-7.263,0-13.807-4.029-17.068-10.271
		c-2.577-0.808-4.462-3.323-4.462-6.292c0-1.549,0.518-2.969,1.375-4.094v-9.738c0-3.21,1.094-5.302,2.912-6.664
		C5.778,1.987,18.323,0,23.244,0c4.404,0,8.058,1.318,8.808,6.383c6.258,0.392,10.939,2.273,10.939,8.953v9.734
		C43.848,26.193,44.366,27.619,44.366,29.168z M40.366,29.168c0-1.414-0.998-2.562-2.242-2.562c-0.002,0-0.004,0.002-0.007,0.002
		c-0.004-0.574-0.045-1.25-0.114-1.961c-1.537-0.4-3.271-2.1-4.392-4.5c-1.038-2.225-1.276-4.471-0.765-5.93
		c-0.414-0.354-0.864-0.699-1.354-1.031c-1.357,4.396-4.542,7.479-8.25,7.479c-3.825,0-7.083-3.282-8.367-7.899
		c-0.74,0.451-1.406,0.938-1.995,1.445c0.515,1.459,0.277,3.709-0.762,5.937c-1.103,2.365-2.806,4.051-4.326,4.479
		c-0.071,0.723-0.113,1.404-0.117,1.986c-0.024,0-0.046-0.008-0.069-0.008c-1.244,0-2.242,1.146-2.242,2.562
		s0.998,2.563,2.242,2.563c0.311,0,0.605-0.072,0.874-0.201c2.032,5.928,7.712,10.201,14.415,10.201
		c6.697,0,12.371-4.265,14.41-10.183c0.254,0.114,0.526,0.183,0.816,0.183C39.368,31.73,40.366,30.584,40.366,29.168z
		 M18.324,25.662c0-1.24-1.009-2.25-2.25-2.25s-2.25,1.01-2.25,2.25s1.009,2.25,2.25,2.25S18.324,26.902,18.324,25.662z
		 M29.658,23.412c-1.241,0-2.25,1.01-2.25,2.25s1.009,2.25,2.25,2.25s2.25-1.01,2.25-2.25S30.899,23.412,29.658,23.412z
		 M29.791,35.449l-6.767-2.268c-0.103-0.035-0.215-0.035-0.317,0l-6.767,2.268c-0.172,0.057-0.3,0.203-0.333,0.383
		c-0.033,0.18,0.034,0.361,0.174,0.477c1.261,1.035,3.239,1.375,4.894,0.818c0.923-0.309,1.685-0.854,2.19-1.549
		c0.506,0.695,1.267,1.24,2.19,1.551c0.543,0.182,1.112,0.273,1.693,0.273l0,0c1.188,0,2.354-0.398,3.199-1.094
		c0.143-0.115,0.208-0.297,0.174-0.479C30.092,35.652,29.963,35.506,29.791,35.449z"/>
</g>
<g>
</g>
<g>
</g>
<g>
</g>
<g>
</g>
<g>
</g>
<g>
</g>
<g>
</g>
<g>
</g>
<g>
</g>
<g>
</g>
<g>
</g>
<g>
</g>
<g>
</g>
<g>
</g>
<g>
</g>
</svg>
