<?xml version="1.0" encoding="iso-8859-1"?>
<!-- Generator: Adobe Illustrator 16.0.0, SVG Export Plug-In . SVG Version: 6.00 Build 0)  -->
<!DOCTYPE svg PUBLIC "-//W3C//DTD SVG 1.1//EN" "http://www.w3.org/Graphics/SVG/1.1/DTD/svg11.dtd">
<svg version="1.1" id="Capa_1" xmlns="http://www.w3.org/2000/svg" xmlns:xlink="http://www.w3.org/1999/xlink" x="0px" y="0px"
	 width="47.461px" height="47.461px" viewBox="0 0 47.461 47.461" style="enable-background:new 0 0 47.461 47.461;"
	 xml:space="preserve">
<g>
	<path d="M26.23,33.521c0,0.553-1.119,1-2.5,1s-2.5-0.447-2.5-1s1.119-1,2.5-1S26.23,32.969,26.23,33.521z M45.23,30.896
		c0,2.94-1.85,5.438-4.389,6.27c-3.26,6.254-9.813,10.295-17.081,10.295c-7.264,0-13.807-4.029-17.068-10.271
		c-2.576-0.808-4.463-3.322-4.463-6.291c0-1.549,0.518-2.971,1.375-4.094V18.23c0-7.732,6.268-14,14-14h0.564l5.252-4.123
		c0.164-0.129,0.395-0.143,0.572-0.032c0.178,0.111,0.269,0.321,0.226,0.527L23.462,4.23h6.393c7.732,0,14,6.268,14,14v8.568
		C44.713,27.921,45.23,29.348,45.23,30.896z M41.23,30.896c0-1.412-0.996-2.56-2.238-2.562c-0.342,0.586-0.734,1.149-1.18,1.687
		c0.271-0.931,0.453-1.877,0.553-2.83c-1.197-1.15-2.246-3.073-2.798-5.375c-0.354-1.472-0.446-2.89-0.33-4.136
		c-1.696,2.862-8.126,6.506-11.507,6.506c-3.268,0-9.752-3.629-11.488-6.489c-0.006,0.006-0.011,0.012-0.016,0.019
		c0.111,1.237,0.018,2.643-0.333,4.101c-0.552,2.301-1.601,4.225-2.798,5.375c0.1,0.951,0.281,1.899,0.553,2.83
		c-0.445-0.535-0.838-1.102-1.18-1.688c-1.242,0.001-2.238,1.148-2.238,2.562s0.998,2.562,2.242,2.562
		c0.311,0,0.605-0.07,0.874-0.199c2.032,5.928,7.712,10.199,14.415,10.199c6.696,0,12.37-4.264,14.409-10.182
		c0.254,0.113,0.526,0.182,0.816,0.182C40.232,33.459,41.23,32.312,41.23,30.896z M16.938,25.141c-1.24,0-2.25,1.008-2.25,2.25
		c0,1.239,1.01,2.25,2.25,2.25s2.25-1.011,2.25-2.25C19.188,26.148,18.179,25.141,16.938,25.141z M30.522,25.141
		c-1.24,0-2.25,1.008-2.25,2.25c0,1.239,1.01,2.25,2.25,2.25s2.25-1.011,2.25-2.25C32.772,26.148,31.763,25.141,30.522,25.141z"/>
</g>
<g>
</g>
<g>
</g>
<g>
</g>
<g>
</g>
<g>
</g>
<g>
</g>
<g>
</g>
<g>
</g>
<g>
</g>
<g>
</g>
<g>
</g>
<g>
</g>
<g>
</g>
<g>
</g>
<g>
</g>
</svg>
