<?xml version="1.0" encoding="iso-8859-1"?>
<!-- Generator: Adobe Illustrator 16.0.0, SVG Export Plug-In . SVG Version: 6.00 Build 0)  -->
<!DOCTYPE svg PUBLIC "-//W3C//DTD SVG 1.1//EN" "http://www.w3.org/Graphics/SVG/1.1/DTD/svg11.dtd">
<svg version="1.1" id="Capa_1" xmlns="http://www.w3.org/2000/svg" xmlns:xlink="http://www.w3.org/1999/xlink" x="0px" y="0px"
	 width="43.001px" height="43.001px" viewBox="0 0 43.001 43.001" style="enable-background:new 0 0 43.001 43.001;"
	 xml:space="preserve">
<g>
	<g>
		<path d="M26.531,29.928H16.468c-0.69,0-1.25,0.562-1.25,1.25v1.216c0,0.688,0.56,1.25,1.25,1.25c0.678,0,1.23-0.541,1.25-1.216
			h7.563c0.019,0.675,0.57,1.216,1.25,1.216c0.689,0,1.25-0.562,1.25-1.25v-1.216C27.781,30.488,27.223,29.928,26.531,29.928z"/>
		<ellipse cx="21.5" cy="27.138" rx="2.5" ry="1"/>
		<circle cx="14.708" cy="21.005" r="2.25"/>
		<circle cx="28.292" cy="21.005" r="2.25"/>
		<path d="M40.62,19.362c0.612-4.043-0.29-10.717-4.815-14.595c-3.328-2.854-4.572-2.313-5.5-1.25
			c-0.082,0.094-0.166,0.209-0.25,0.335c-2.332-1.143-5.162-1.925-8.555-1.925c-3.407,0-6.236,0.777-8.561,1.915
			c-0.083-0.123-0.164-0.232-0.244-0.324c-0.927-1.063-2.171-1.604-5.5,1.25c-4.63,3.969-5.402,10.395-4.703,14.396
			c-0.004,0.038-0.01,0.078-0.014,0.116C0.974,20.479,0,22.378,0,24.511c0,2.971,1.885,5.484,4.463,6.291
			c3.261,6.242,9.805,10.271,17.068,10.271c7.269,0,13.821-4.041,17.081-10.295c2.539-0.832,4.39-3.327,4.39-6.269
			C43,22.425,42.068,20.565,40.62,19.362z M36.758,27.075c-0.29,0-0.564-0.067-0.818-0.183C33.9,32.81,28.229,37.075,21.533,37.075
			c-6.703,0-12.383-4.273-14.415-10.201c-0.269,0.129-0.563,0.201-0.874,0.201c-1.244,0-2.242-1.147-2.242-2.563
			c0-1.412,0.996-2.559,2.238-2.562c0.342,0.586,0.735,1.149,1.18,1.687c-0.416-1.428-0.644-2.896-0.644-4.354
			c0-1.152,0.147-2.229,0.414-3.234c0.988-3.231,2.686-3.596,6.507-5.28c0.729-0.321,0.882-1.395,0.731-2.634
			c2.1-0.879,4.503-1.352,7.074-1.352c2.564,0,4.977,0.461,7.076,1.336c-0.155,1.246-0.003,2.326,0.729,2.649
			c3.912,1.725,5.596,2.073,6.574,5.524c0.225,0.936,0.346,1.933,0.346,2.99c0,1.458-0.228,2.927-0.644,4.354
			c0.444-0.536,0.838-1.101,1.181-1.687c1.241,0.003,2.237,1.148,2.237,2.562C39,25.927,38.002,27.075,36.758,27.075z"/>
	</g>
</g>
<g>
</g>
<g>
</g>
<g>
</g>
<g>
</g>
<g>
</g>
<g>
</g>
<g>
</g>
<g>
</g>
<g>
</g>
<g>
</g>
<g>
</g>
<g>
</g>
<g>
</g>
<g>
</g>
<g>
</g>
</svg>
