<svg xmlns="http://www.w3.org/2000/svg" viewBox="0 0 191.23 474.47"><title>man2</title><g id="Layer_2" data-name="Layer 2"><g id="Layer_1-2" data-name="Layer 1"><g id="Layer_1-2-2" data-name="Layer 1-2"><path d="M146.65,90.54H45.29A44.69,44.69,0,0,0,.7,134.91L0,273.34a18.84,18.84,0,0,0,18.74,18.94h.11a18.85,18.85,0,0,0,18.84-18.75l.69-138.43h0a3.74,3.74,0,0,1,7.48,0V451.86a22.62,22.62,0,0,0,45.23,0V271.12h9.76V451.86a22.61,22.61,0,0,0,45.22,0c0-298.9-.4-128-.41-316.48a4,4,0,0,1,7.89-.32h0l-.13,138.35a18.84,18.84,0,0,0,18.82,18.86h0a18.84,18.84,0,0,0,18.85-18.82L191.23,135a.24.24,0,0,0,0-.12A44.7,44.7,0,0,0,146.65,90.54Z" style="fill:#fff"/><circle cx="95.97" cy="39.05" r="39.05" style="fill:#fff"/></g></g></g></svg>