<?xml version="1.0" encoding="iso-8859-1"?>
<!-- Generator: Adobe Illustrator 16.0.0, SVG Export Plug-In . SVG Version: 6.00 Build 0)  -->
<!DOCTYPE svg PUBLIC "-//W3C//DTD SVG 1.1//EN" "http://www.w3.org/Graphics/SVG/1.1/DTD/svg11.dtd">
<svg version="1.1" id="Capa_1" xmlns="http://www.w3.org/2000/svg" xmlns:xlink="http://www.w3.org/1999/xlink" x="0px" y="0px"
	 width="45.77px" height="45.771px" viewBox="0 0 45.77 45.771" style="enable-background:new 0 0 45.77 45.771;"
	 xml:space="preserve">
<g>
	<path d="M25.385,31.833c0,0.553-1.119,1-2.5,1s-2.5-0.447-2.5-1c0-0.554,1.119-1,2.5-1S25.385,31.281,25.385,31.833z
		 M44.385,29.208c0,2.94-1.85,5.436-4.389,6.268c-3.26,6.257-9.813,10.295-17.081,10.295c-7.264,0-13.807-4.028-17.068-10.27
		c-2.576-0.808-4.463-3.322-4.463-6.291c0-1.55,0.518-2.972,1.375-4.095v-8.573c0-1.274,0.186-2.359,0.504-3.307
		C2.306,12.463,1.76,11.15,1.76,9c0-5.109,5.991-9,14.875-9c8.771,0,13.598,1.293,15.992,3.778c0.732-0.484,1.673-0.732,2.869-0.67
		c3.766,0.196,6.473,3.358,6.473,7.076c0,0.637-0.012,1.209-0.029,1.746c0.688,1.201,1.07,2.71,1.07,4.613v8.568
		C43.868,26.234,44.385,27.658,44.385,29.208z M40.385,29.208c0-1.412-0.996-2.56-2.238-2.563c-0.342,0.588-0.734,1.152-1.18,1.688
		c0.271-0.931,0.453-1.878,0.553-2.83c-1.197-1.15-2.246-3.074-2.798-5.375c-0.333-1.387-0.437-2.727-0.351-3.92
		c-1.172,2.257-3.078,4.29-5.402,4.29c-3.999,0-11.98-2.575-16.332-5.789c-0.475,0.444-0.891,0.888-1.256,1.318
		c0.111,1.237,0.018,2.643-0.333,4.101c-0.552,2.301-1.601,4.224-2.798,5.375c0.1,0.95,0.281,1.899,0.553,2.83
		c-0.445-0.535-0.838-1.101-1.18-1.688c-1.242,0.004-2.238,1.149-2.238,2.563c0,1.415,0.998,2.562,2.242,2.562
		c0.311,0,0.605-0.071,0.874-0.2c2.032,5.93,7.712,10.2,14.415,10.2c6.696,0,12.37-4.264,14.409-10.182
		c0.254,0.114,0.526,0.182,0.816,0.182C39.387,31.771,40.385,30.623,40.385,29.208z M16.093,23.451c-1.24,0-2.25,1.009-2.25,2.25
		c0,1.24,1.01,2.25,2.25,2.25s2.25-1.01,2.25-2.25C18.343,24.46,17.333,23.451,16.093,23.451z M29.677,23.451
		c-1.24,0-2.25,1.009-2.25,2.25c0,1.24,1.01,2.25,2.25,2.25s2.25-1.01,2.25-2.25C31.927,24.46,30.917,23.451,29.677,23.451z"/>
</g>
<g>
</g>
<g>
</g>
<g>
</g>
<g>
</g>
<g>
</g>
<g>
</g>
<g>
</g>
<g>
</g>
<g>
</g>
<g>
</g>
<g>
</g>
<g>
</g>
<g>
</g>
<g>
</g>
<g>
</g>
</svg>
