<svg xmlns="http://www.w3.org/2000/svg" viewBox="0 0 1106.55 942.52"><title>mapa_final</title><g id="Layer_2" data-name="Layer 2"><g id="Layer_1-2" data-name="Layer 1"><path id="CO5" d="M1049.72,550.89l-3.35-2.16-2-2.37-1.56-3.91-.32-3.58,2.56-3.71-2.45-6.64-7.13-8.56-3.85-2.83-7.83-3.7-3.54-4.69-.56-8,1.75-3.49-.71-2.75-4.25-4.62-2.24-3.75-.45-5.49-2-3.73-4.49-3.51-7.12-2.61-2.45-3-.69-2.91,1.72-5.74,2.17-1.57,7.52-2,4.86-10.3-.46-7.08-5.37-4.13-1-2.69-4.16-1.61,1.57-4.21-.46-11.93-5.78-8.25-3.61.42L989.42,394l-.57-5.55-1.11-2.8-3-2.69-2.66-.28-2.27-2.18-.43-2.11,1.09-2.31,3.77-4.91,3.12-4.83-2.82-5.69,2.47-2-1.15-2.47-3.36-.75-3,.54-2.08-2.58-.65-2.74-1.87-1.83-1.45.13-1-1.31,1-1.22-.35-1.4-1.83-.13-4.89,3.05-3.64,4.05-3.89-2.76-6.79-6.31-6.52-3.25-4.57.2-4.55-1.37-7.3-3.16-6.46-3.49-5.24-5-1.69.33-5.7,6.34-5,2.28-7.32,5-5.32,6.29-3,10.08-3.9,9.42.42,6.21-1.56,4.1-3.12,6.28-4.83,3.67-5.7-.33,1.12-4.9v-9.2l-3.43-5.8-3.13-6.73L852.9,351l-4.82-.44-6.33-5.09-9.39-10.52h-2.88L826,337.5l-2.26.26L818.15,345l.5,7.15-2.46,2.6-2.84,5.42,3.63,1.63,1.95,2.9-2.28,3.65,1.38,5-2.73,2.88,2.14,2.43.64,2.43-2.79,3.69,3.09,1.77.53,13.45-2.75,3.85-2.87,4.91-.77,7-4.85-.18-3.69,5,.69,2.86-1.11,5.09,3,.35,4.59-1.38,3.41.85v2.09l1.81,2.22L817,436l1.64,2.36-1.91,3.07.61,2.15,4.63,2.12.41.76-6.28,3.87-2.15,5.73,2.68,4.35,2.18,2.62,6,3.84-8.21,7.64.34,2.17,2.61,2.49.62,3,2.07,2.37h-5L814,483.46l-2.29,1.89-2.74.14L806.13,487l-1.11,3.3-.28,4.82,1.11,4.45-2.3,6.66-3.9,1-4-.8-1.84,1-5.14,1.24v4l1.89,2.09.54,5.13,2.71,2.09-.33,2.56,1.76,1.27,4,1.1,6,.48,2.69,2,2.14-.9h3.81L811,531.14l-4.12,2.41-1.79-.2-1.88,1.27-.31,2.74,1.53,2.19.82,4,3.5,3,.83,4,.24,3.33,7.72,6.38-.55,1-5,.26-2.52,1.5-.7,3.32-7.15,6.35-1.28,3.83.74,2.27-3.75,4.66,3.41,4.22,1,2.7,9.37,7.14,1,2.89-.5,3.09,1.28,2,1.43-.18.51,2.47,2.06,1.5,2.6,3.33,4.09-.8,4.18.4,3.68-4,3.86-2.06,2.9-2.56,11.13.17.22,2.57,5.78,8.06.48,3.28,4.66,4.5,2.91.32.29,1.46,2.93,1.52-.63,4.62,1,5-4.85,3.84-2.11,1.86-4.12,1.93,4.12,4.08,7.15,3.14-7,.65-4.87-.69-2.18,1.32,1.18,2.9.56,2.76-.44,2.26-1.08.37-1.13-1.83-2.63-.41-1.4,2.19-1.42-.3-1.23-1.66-1.78-1-2.4,2-1.31,1.69-3.94,1-1.6-1.65-.33-3-2.3.7-1.57-1-1.73.35-3.25-2H821.7l-4.93,3.24-3.3-.7-3.13,2.1h-2.8L803,655.32,801.7,659l-2.67,3-.67,2.67.66,1.91,2.43,2.31-.33,1.95-2.29.15-2.8-2-3.26,1.62h-3.42l-1.83-1.4h-4.39l-5.48-1.78H767l-1.42-1.88h-4.68V658l.81-6.92-3.56-1.84-5.32,1.14-2.84,5.45L748,664l-2.9-3.65h-2.35L741,659.2l-8.1,1.91-3-3.89-1.62,7.9-6.53-.52h-5.24l-1.89,1.89L714.3,673l-.53,4.27-1.59,2.05-2.6-.52-1.71,1.74.84,2.81,7.4,6,6.08,5.71,3.11,1.28,4.09,1,7.07,6.79,3.26,1.85,4.52,4.5,5.6,4.95-.26,4.57,6.59.74,6-.56,6.34-3.47-.72,7.22-.66,2.94-2.17,2.9L767.3,732l-.76,2.48.72,3.52-1.71,2.1-1.44,5.8-1.29,3.22-.3,5.17v4.29l-.85,2.27-2.3,2.1-3.8.64L753,765l-.46,3.14,1.13,2,.19,1.48-1.49,1.47-2.32,1-1.22,3.93-1.27,1.61.76,2v2.22l-1.63,2.88-.29,3.61-1.48,3,1.08,3-3.24,2.56L741,800.35l-.45,4.59-1.81,2.77-1,3.28-.54,2.83-1.7,2.12,1.54,2.49,1.07,2.32-1.45,2.56.93,2.27.94,3,.4,2.93,1.84,2.24L739.7,836l-2.41,2-1.46,1.88L732,842.14l-3.5,4.05-2.48-1.3-.64,8.76,2.91,1.69,3,.81-.42,4.24,1,3-.73,2.66-6.3-.48-2.3-.72L720.26,863l-3.22.75-1.62,1.78L716,869l1,2.78-1.12,2v2.8l.58,3.37-.51,2.6-2.45,1.17-1.75,1.7-1.52,2.68,1.17,3.08,1.53,1.42,2.17.45,5.58-.7,5.23.7h6.88l5.48-1.17,7.55-.27,8.16-1,7.59,1.55,6.69,2.67,2.05.69,2.89-.92,3.41-1.55,2-.18,4.24,2.83,3.89,4.11,5.85,4.69,2.38.64,9.64,9.6,1.56.41,1.46-1.37.93-4.6,2.1-1,1.88.16,2.24-.53,1-1.24.8-1.7,2.88-4.55,7.5-7.49,8.58-4.5,2-2.57-.31-4.64.65-6.65-.65-7.3,5.86-21.29,1.73-3.52,1.78-1.68,4.08-1.54,2.07-1.37.59-1.87-.67-3.81-1.19-4.63.36-4.17,5.76-8.21,5.34-5,3-5.52,4.38-2.77,3.11-.91,5.92.66L883,801l2-1.38,13.43.47L911,804.2l11.18,4.61h10.91l3.1,1.92,3.54,1.07,2.6,1.23,2.93,5.21L949,823l5.79,2.28,4.06-.19,4.63,1.82,9.66.22,5.16.74,5.2-.88,2.49-1,2.71-.3-.62-3.57,1-2.83,2.26-1.31,1.55-.27,15.47,4.45,5.46,3.77h3.73l12.16-3.5,7.11,2.82,6.45,1.16,3.37,2.66h2.95l-3.68-8-.78-3.42.62-3,5.64-5.83.78-3.22.35-5.39,3.5-4.92.43-5-6.82-8.84-4.33-4.15-1-4-.36-11.09.37-5.82,1.73-2.83,3.29-4.07.55-6-2-6.88-2.47-5.64-7.12-6.59-5.18-1.85-4.32-4.42-2.85-4.83-3.92-3.52-1.19-1.4-.46-2.32,1.9-3.38,1.76-3.58-2-4.91-1.48-5.53.59-3.8,3.46-6.42-.63-5.15.36-6.68-1.31-4.47-4.94-7.73,2.64-2.37,3,1.5,3.9-.24,5.34-4.63,5.43-2.2,2.8-2.16,3.11.24,2.57-1.76,2.17,1.33,2.82,3,3.06,1.4,5.06-.33,4.09-2,6.08-5.46,3.46-1.38,1.69-2.77.22-6.83,1.68-3.27,10.62-4.25,8.83-2,3-2.17.88-4.46-.92-3.69-1.09-2.21-.23-2.28,3.36-2.85,3.25-2.76,1.09-2.11.56-4.82-1.83-4.66-.68-5.25-1-1.65-4.45-3.88-.4-2.53-.29-6.75-1.9-3.72-3.65-2-3.65,2.13-1.86-.66-4-6.81-5.76-3.81-1.5-2.41-1.82-.83-.53-4.9-3.79-3.84-2.57-.32-10.68,6.47-2.81,3Z" style="fill:#009952;fill-rule:evenodd"/><path id="CO4" d="M456.51,399.68,460,398l2.71-2.71.59-1.21-.3-2.38.21-1.22.94-1.07,4.53-1.9,3.9-3.74,3.26-4.22,4.89-3.8,1.29-2.1.39-3.37.67-.45,1.82.88.53-2.41.87-.47,1.36.81h.77l5.35-5.6,1.74.31,2.61-1.25,1.13.7,2.91-1.05,1,1.56v2.35l5.07,5.57.94,2.69,2.41,2.18,1.54.88,6.1.82,2-.63,2.68-2.65h3.57l1.41-1.16h1.26l1.12,1.05,2.28-.91.8-2.66h6.77l2.29-1.57,1.65-2.54.66-1.78V362.4l1.78-1h3.21l.39-3.67,4.14-.61,2.95.74,1.89-.23.94-1.12,3.17.32,1.06-3,3,2.12,1.8-.32,2.85-2.67h2.23l1.94,3.72,3.4,3.92,1.76,1.27,2.29-1.28,1.47-2.88,2.65-1.93,2.69-1.08.52-3.21L594,349l-.3-1.73-1.87-1.45.71-5.75,2.36-2.36.32-2.66-1.33-1.62V327l1.1-2,1.51-1.12,2.67-.45,2.92.68,1.74-.3,1.06-2.62.68-3-.79-3.82L599.91,312l-3.66-2.3.52-3.41-.84-1.29-4.41-3.68.32-1.29L594,297.3v-3.18l-1.56-3.65-3-.67L582,294.5,579.18,296l-5.7.59-3.31,1.31L564,297l-5.54,3h-5l-5.22,2.69H544L534.34,301l-4.51-4.4-2.67-.73-9.6.38-3.77-1.54-3.37-3.78L503,285.67l-5.4-4.83-14.49-5.22L474.14,273l-4.34-.41L465.47,274l-4.34.9-5.57-1.5L448.61,272l-7.28-.67-7.93.17-9.75,1.84-3.94.44L417,273l-6.95-5.83L403.81,266l-6.36-4-8-3.12-4.22-.89-6.56-1-2.9-1.39L372.9,252l-2.56-4.77-5.69-6.1-3.48-2.41-3.33-1-5.31-.44-4.19-1.37-6.5-9.43-5.35-7.25L323.16,206l-8.83-8.75L308.06,193l-8.74-6.61-2.69-.23h-1.14l-2,.18-1.86.85-3.14,2.75-1.74,2-.62.72-.39.69-.12.7v1.11l-.21,5.74-.43,3.07-.76,2.65-.75,1.68-2.15,1.88-2.38,1.52-2.67,1.49-2.79.9-1.8.92-2,1.91-3,3.12-4,4.78-4.95,4-1.22.8-2.37.63-3,1.09-1.81.85-1.12.54-.62.19-1,.14-4.64-.71-2.55-.38-1.39-.07h-1l-16.61,11.28-1.59,1.56-.35,3.44.07,2.31.76,4.19,7.55,22.72.34,1.23.21,1,.09.87-.09.78-.4.86-.47.71-4.43,6.7L216,296,214,298.34l-1.4,2.33-.73,1.46-.31,1.82,2.13,42.17-.65,18.23-.41,3.07-.8,2.35-2.34,5.59-1.89,4.53-2.08,3.61-3.07,4.37-7.06,6-7.71,5.85-10.4,10.7-6.15,5.24L166,418,157,422.55l-5.49,2.14,9.2,4.17,2.88,2.74,6.49,13.31,4.85,13.47.49,5.81,1.32,1.57L181.3,467l5.78,1.88,4.84,4,4.11,5.54,7.79,17.34.93,3.32.71,5.19,4,4.94,7.23,7.8,2.65,3.74,4,8.52,8.08,8.15,6,5.31,5.39,4.39,4.46-9.66,4.89-9.6,4.26-3.21,2.66-1.32,3.3-.71,2.86-.34,8.22-8,2.42-2.16,2-.92,2.62-.67,3.25.1,6.65,1.84,2.49.27,11.39-1.4,3,.21,8.4,5.68,1.77,2.59,3.16,6.27,2.87,3.07,2.75,4.7,3.73,3.42,6.49,2.88,4.38,1.93,3.89.55,6.18-1.07h9.79l4.55,1.66,3.51.34,3.89-1.12,5.08-.89h13.59l-.31-1.95.28-3,1.48-1.93,2.92-.42,1.87-.17,3.64,2.38,1.36,1,1.31.16.79-1.18-1.71-4.54-2-2.14-3.37-1.27-2.74-1.72-.58-2.31-5.16-2.84v-1l5.32-3.94,4.46-4.3.19-1.38-.58-1.89,1.07-2.75,2.16-3.16L402,502l-.44-1.14-1.14-.75-2.81-1.7-1.44-1,.47-1.1,1.36-.21,1.29.34,2.93,1,1.38.18,1.49-.67,1.21-.09.75.54-1,1.21,1.18,3,.34,1.91.86,1.86,1.41,1.33,1.49,1.23.32,2.52,2.66,3.95L417.4,518l1.19.62,1.86.25,6.85,4.68.83-.22.2-1.05.59-2.61,1.66-2.65v-1l-2-2.69-.44-.78.47-1.41.39-3.26-.45-1.4-2.8-3.26-.3-.79.52-.19,2.06.16.9-.1.34-.5-.32-1.12.72-.62,4.32,2.44,2.14-.67,1-1.69,1-1.4,3.87-.22,1.49-.72,1.69-.92,1.4,1.55.86,1.17,1.8,1,1.64-.28,1.28-.4.72.75.27,1.56,2,.47.13,1.75.49.7.94.38,1.16-.5.95-.24L459.9,506l2.91,5.09,1.11,2.71.81.79,1.33-.2,1-1.21,1.06-4.42,1.1-2.35-.42-.87-.63-.59v-.76l.78-.65v-2.16l-.72-1.63-.34-2.12-.68-.84v-5l-1-2.44-2.81-2.93-1.57-4.19L458.91,477l-1.63-4.19v-2.1l2.26-.73-1-2.07-1.77-1.32-1.64.3-1.74.64-2.68.43-2.66.58-1.88.15-.66-.34v-.61l.57-1.1,1.23-3.26,1-5.77-.61-2h-1.86l-1.37-.61-3.75-2.69-3.44-3.55-3.11-2.44-2.3-.67-3.31.42-2.44-.48-1.53-.59-2.5.34h-2.16L418.4,444l-1.18-1.86-1.8-1.26-3-1.58-2-1.05-1.39-.59h-1.36l-1,.71-1.2,2L404,441.68l-1.6.8-2-1.51-1.34-1h-1.54l-1.26,1.68-1,.53-2.4-.65-3,.44-3,.69-2.84-1.79-.92-1.42L382,438.24H381l-1.33.95-1.84,1.64-1,.32-1.78-.46L373,442l-2.9,1.1-2.71-.33-2.44.32-2.49.58-1.74.2-1.07-.56-.13-1.09,1.12-1.21.75-1.7-2.51-.67-2-1.84-.8-2.51-2.33-1.83-1.1-1.83v-1.75l.85-1.73.88-1.1v-1.12l1.06-1.44h.86l1.24,1.4,1.32.76,2.34-.12,2-.5,2,1.42-1.5-6.3v-1.08l.89-.37,3.72.53,1.21,1.38.6,1.73.69,1.38H377l1.87,1.73,2.21.4h1.63l2.23-.9,2-1,2.5-1,2.06-.14,1.68.37,1.59,2.51.43,1.5.78,2.69.94.84h1.53l2.38-.3h3.62l2.74-1.66,4.27,1.75,2.22-.39,2.46-1.73,1.38-1,2.24-.76h3.62l.82-.87,1.12-2.88-2.2-5-.84-3.6v-4.61l3.47-.9,3.06-1.42,2.51-1.88,1.45-1.83L434,402.3l1.86-.81,3.87-.23,9.8.42,3.92-.86Z" style="fill:#f93;fill-rule:evenodd"/><path id="CO3" d="M226.81,277.37l-7.55-22.72-.76-4.19-.07-2.31.35-3.44,1.59-1.56L237,231.87h1l1.39.07,2.55.38,4.64.71,1-.14.62-.19,1.12-.54,1.81-.85,3-1.09,2.37-.63,1.22-.8,4.95-4,4-4.78,3-3.12,2-1.91,1.8-.92,2.79-.9,2.67-1.49,2.38-1.52,2.15-1.88.75-1.68.76-2.65.43-3.07.21-5.74V194l.12-.7.39-.69.62-.72,1.74-2,3.14-2.75,1.86-.85,2-.18h1.14l2.69.23.68-3.56v-2l-.91-1.78-4-4.14-1.12-5.4,1.18-3.77,3.13-4-.24-.83-3-4.1L290.9,151l-2.1-5.55,1.52-3.85-1.2-3.76v-6.06l1.05-6.63v-7.39l-1-5.33-6.38-18.84-3.32-6.25-6.61-4.73L263,71.33l-5-5.61-4-6.58-6.46-6.83-4.22-6.12-2.9-5.08L239.85,39l.92-3,.38-3.39-.37-1.85-1.94-4.48-.67-11L234.63,2.3,233.2,0,221.62,5.19l-13,4.46L173,20.89l-11.36.66-6.82.89-1.9.79-3.16,1.31-.86.1-1-.21-.67-.49-.51-.8-2.62-5.49-1.17-1.19-1-.45h-1.18l-1.91.24-3.73.6-4.65,1-6.32.8-9.92,2.77-4.46.74-1.81.15-1.47-.16-1.54-.77-3.85-3.29L93.3,12.82l-6-2.92H85.18l-2.79.62-3.63,1.25-4.82,1.66H68.62L62.88,9.49,53,9.05l-10.7,3L28.94,16.56l-7.1,7.15-2.51,5.51-3.7,6.13L9,45.52l-.42,2.15L9,54.55l.6,6.5.56,3.87,1.63-.31,1.33.78.58,1.15L13,69.73v2.93l1.63,3.76.18,3.5v2.16l.61,1.1.9,1.63V86.1L15.22,88l-.42,1.63L16.07,91l1.67,1.34,1.71,1.78,1.08,4.07.39,1.81.25,1.21-.73.68-1.39.31-1,.58-.26,1.28.33,1.54,1.08,4.09L19,110.83l-.56,1.67-.56,3,.64,2.31,1.13,1.41,3.77,2.89.8,1,.13,1.13-.53,1-.88.79-2.18,1.27-3.18,1.14-4.44,1.08-4,1.82-2.56,1.94-1.65,3-2.21,6.62.33,2.3-.51,1.15-1.7,1.6L0,149.45l.49,5.91.44,2,.74,1.7,2.57,3.11,1.14,1.57-.44,1.72.38.77,1.16,1.36.71,2.52-.79,2.4.71,2.56,1.6,1.35,2.61.73,1.81,1,.78,2.32,1.3,2.38-.5,2.22-1.34,2.09-2,1.25L2.5,196.41l-.4,1.43L3,200.65v2.94l-.95,1.46-.34.94.37,1.17L3.46,210,4,212.73l.5,5.11.29,5.26v7.39l.43,2.66,1,2.45L7.67,238l2.63,2.31,2.51,1.25,2.58,1.87,1.77.58,1.3.82.77,1.21,1.41,1.24,2.33.66,1.26,1.63,1.07,2.3v2.05l1,1.83,1.6.71,1.79.42,1.46,1.69.47,1.27-.44.92-.91,1.72v1.25l.87,1.29,2.14.82,2.23.85,1.75,1.71.68,1.11.27,2.26.7,1.55.62,1.73.08,1.72-.69,3.58.21,4.85-.3,5.93,1.7,2.23,1.74,2.8,1.34,5.38,1.09,2.73.75,3.9,1,1.3,2.63,2.63.71,1.66.16,1.61v3l.89,1.29.81,1.43.46,1.73-.25.79-1.2,1.61-.79,1.28-.22,1.46V329l-.56.5-1.4.31-.93.35-.39.65.23.92.9,1.05.42,1.22-1.22,3.79v3.26l.45,1.67,2.07,2.08,1.16,2,1,3.23.41,3.51.91,1.94.12,1.2L52.19,358l-1.69,2.21-.18,1.25.5,1.39.24.89-.18.48-.63.71-.92,1-2.8,3.12v.46l1.15,1.15.38.51v.56l-.31,1.09.46.88,1.61,1.56.44,1.56-.33,1.31-1.2,2.08v1.72l1.22,3,.21,2.11-.41,8,3.8,4.55,2,2.72,1,4.12.38,5.28-6.07,4.12-.74,4.32-.88,3.18-1.35,6.54v2.95l.38,4.63-.35,3.64-.22,6.28-.93,3.49-2.8,9.73-.34,8.12-1,2.52-2.77,7.88-.46,6-.52,7.7v4.74l.62,3.86,1.24,4.74,1.18,4.62-.21,5.35.38,2,3.44,5,2.23,2.3h2.16L65.22,507l2.51-8.33,3.6-3.62,1.72-.46,2-.14,2-.33,2.1-.73,2.24-1.13,1.17-1.11.81-1.39,5.32-10.89,1.74-2.41L93,473.48l2.31-2.67,1.37-2,5.92-9.63,4.67-6.54,2.1-2.43,2-1,1.8-.62,5.53-1.89,4.87-1.72,5-1.27,2.16-1.08,2.23-1.18,2-1.42,4.46-5.16,5.7-6.61,6.42-3.58,5.49-2.14L166,418l5.12-2.28,6.15-5.24,10.4-10.7,7.71-5.85,7.06-6,3.07-4.37,2.08-3.61,1.89-4.53,2.34-5.59.8-2.35.41-3.07.65-18.23L211.59,304l.31-1.82.73-1.46,1.4-2.33L216,296l6.08-6.42,4.43-6.7.47-.71.4-.86.09-.78-.09-.87-.21-1-.34-1.23ZM118.09,130l-.86-1.08-.42-4.43,2.09,4.81,2.86,2.32,4.35,1.14,2.25,2.91,2.45,2.37,2.65-.35,3-2.28,3.23.39,3-1.88,1,.35-1.76,3.87-1.53,3.68.83.76-.7,1.67-1.44-.52-1.84.43L135.38,146l-1.95,1.55-3.74-2.5-4.11-1.79-3.24-1.36.33-2.86-2-2.6-.41-3L118.09,130Z" style="fill:#693;fill-rule:evenodd"/><path id="CO2" d="M276.26,649.74l-1.95-7.23L268.36,636l-4-11.34-1.89-6-.71-3.18.71-2.41,4.22-4.82L263.34,603l-9.16-8.63-5-2L244.27,590,241,585.53l1.44-5,.3-4.1-.35-5.14-1.07-5.86-.88-6,.67-4.89,1.64-7.32-5.39-4.39-6-5.31-8.08-8.15-4-8.52L216.68,517l-7.23-7.8-4-4.94-.71-5.19-.93-3.32L196,478.42l-4.11-5.54-4.84-4L181.3,467l-4.59-1.22-1.32-1.57-.49-5.81-4.85-13.47-6.49-13.31-2.88-2.74-9.2-4.17-6.42,3.58-5.7,6.6L134.9,440l-2,1.42-2.23,1.18-2.16,1.08-5,1.27-4.87,1.72-5.53,1.89-1.8.62-2,1-2.1,2.44-4.67,6.53-5.92,9.63-1.37,2L93,473.48l-2.54,2.93-1.74,2.42-5.32,10.89-.81,1.39-1.17,1.11-2.24,1.13-2.1.73-2,.33-2,.14-1.72.46-3.6,3.62L65.22,507l-15.35,18.4H47.71l-8,11.6-1.43,4.51-.46,3.4.85,3.8,4.32,9,.66,2.63-.86,3.16-3.6,8.82-3.19,8.27-.37,5,1.59,6.08,4.22,4.33,22.56,13.92,3.72,2.68,2.91,2.8,1.68,2.62,1.78,4,.8,3.15.72,8.42.35,5.09-1.23,5.8-3.17,7.25-1,4.29.71,3.51,2.43,1.94,1.61,4,.59,6.4,7.82,11,1.72,3.33.36,2.83-2.83,5.63-2.29,2.85-.24,2.82L82.11,703l2.51,2.46,1.23,3.43.43,11,1.39,5.89,5,10-9.75,12.49-6.07,6.67-1.9,2.65-.4,2.78,1.62,3.49,5.55,7.58,1.84,1.74,6.9,3.63,4.6,8.27,8,16,2.28,2.9,10.73,4.3,7.83,1.72,5.13,2,4.67,4.09,15.82,20.43,2.78,3.6,1.13,5.55,2.59,12.79L160.61,869l5.52,10.91,2,4.27,1.31,4.55.31,6-2.19,6.57-1.19,7.47.31,13.33,1,8.27,6.15,11,1.47,1.19,2.11-.57,7.53-5.29,6.08-1.89,10-2.26,4.58-.81,6.2,3.06,9.3,7.13,2.09.49,2.76-.59,11.93-7.42L249.06,925l8-5.34,9.71-1.19,9.38-.81,5.94.37-.52,2.89,2.9,3.73,3.84,2.44,9,.5,6.19-.89,4.25-.9,4.42,2.24,3.28.77,2.83,3.56,2,2.44,2.67,1,6.16-.37-.76-5.34-1.14-3.34.3-3.15L325.64,922l1.12-3.46-.52-1.91-2.95-.54-2.71-4-2.71-4.65-1.45-.52-2.22.36-.78.45-1.29.75-2.3-.48-2.71.4-2.69-.29-1.77,1L300,911.23l-1.53.5-2.14-1.18-4.78-3.25-4.31-.95-5.08.47-5.28,1.81-3.38.4,3.82-2.37,1.32-1.37-.46-3.16L276.94,900l-1.8-1.63.69-5.09-.61-2.36v-2.68L272.83,887l-2.37-.31-1-1.59.28-2.2-1.29-2.59,2.29-2.51-1.32-2.51.26-2.47.61-1.37-.85-.67-2.51.12L263,869.5l-3.37,1-2.49,2.23-4,.72-1.76-.29-1.39-1.75,2-2,.73-1.85V865.2l-2.27-2-.27-1.41,1.08-.5,2.92.95,2.1.67,1-1v-2l.29-1.49,1.09-.91,2-.62,1-1.29v-1.55l1.35-2,.31-2.44-1-1.57-1.05-.67L262,846l-3.18-2.32-1.94-2.45-2.59-2.61-1.3-1.12-.28-1.25,1.66-1.77,2.18.54,1.87.91,1.82-.72,2.33-1.68,1.5-.69,1.73.24,2.41,2.8,2.29,1.63,1.95,2.32,1.34-2.58,1.47-2.13,2-1.24,2.67,1.26,1.79-2.08.57-2,1.94-.66,1.92,1.17,2.43.89,1.67.23,1.09,1,.79,1.23.71-.7,1.24-.76,2.57-.12,1.79.3,1.18,1.52.9.51,2-.8,1.68.66,1.49.22,1.14.5,1.68-.42,1.55-3,2.82-4.15,4.61,1.08,3,.44,2.29-.33,2.15-1.9,1.67-1,2.3-.23,1.9.42,2.27,2,2.26,3.08,1.39,2.78,1.64,1.32,3,.89,2.37-.29,1.23-.38.59,1,.79.92,1.28.32,1.24-.75,1.24-.2,1.05-.7.71-.86.95-.34,1.92,1.36-.15,1,.14.66,1-.25,1,.13.8.55.32,1.17-1.86,2.2,1,1.92.52,2.92,1,2.74.31,2-1,1.38-.35,1.61,1,1.13,4.06,2.42.53,1.86,1.06,2.2,1.83,1.67.65,3.58,1.06,1.64,1-2.05,5.6-5.62,5-6,6.45-3.78,5.11-6.56,3.19-1.28,5.7-1,1.49-1.72,1.35-4.13,3.51-4.53,5.09-10.19.81-4.19-1.74-3.66-5.46-5.74L401,799.6l-1.84-3.42-1.35-3.53-.4-4.36-1.3-2.46-3.73-4.67L388,778.3l-8.33-3.25-5.91-5.14-4.95-8-2-4.76-2.14-3.52L362.87,752l-3-1.8-6.08-2.66-8.26-1.95-14,.54-9.55-.43-7.35-1.6-4.48,1.06-4.82.67-3.28-1.4-4.75-4.59-2.44-4.62.33-9.37L291.41,717l1.1-3.75,2.09-1.42,1.15-1.88-.39-3.95-1.7-5.47-.32-5.5-1.75-6.78-1.47-6.83.33-4.75-4.34-6-3.2-4.44-3.49-10.77Z" style="fill:#0083db;fill-rule:evenodd"/><path id="CO1" d="M461.78,654.63l1.89-1.7,1.65-1.13-1-1.56-1.93-1.19-2-.81-.69-1.09.77-.9,2-1.06,4.15-.37,1.77-.49,1.83-.28.72-.73-1.62-.28-2.89-.31-1.83-.49-2.38-1.45.16-1.67-.82-1.08-.19-.95,1.86-2.07.4-2,2.19-2.35.57-2.4-1.9-1-3,.28-2.75-1.15-1.62-1.19-2,.23-4.46-3-1.89-.62-3.08.25-2.86.38-2.66-.27-2.2-.76-2.78-.64-2,.43-.63-1.19,1.06-1.46,3-.39,2.12-1.33,3.69.43,2.33-.59,1.55-1.57.85-2.89.9-2.64.74-1.82V606l-1.15-1.68-1.61-1-3-.89-2.85-.26.19-1,.95-.83h2l3,.22,1.62.81h1.36l3.63,2,.51,2.85,2.38,2.83,2.64,2h3.82l3.24,1.26h2.76l1.67,1.34,1.37-.71,1.66.23,1.14.8.71.32.77-.15.51-.44.13-.71-.24-.91-1.71-1.86-1.34-1-1.79-1.13-2.08-.5v-1.24l1.23-2,.35-2.69-1.58-.95-1.46-.48-1.47.92-.94.18-1.38-.38-1.92-2-1.2-.49-2.52.58-1.44-.73-5-1.08-3.83-.57-2.78-1-1.11-.63-1.55.19-.42,1.89-1.27,1.41-.69.65-1.21.24-1.56-.19-1.93-1.68v-1.25L436,595l-1.49-1.45-2.85,1.77h-1.33l-.25-2.09-1.4-2.08,3.49-1.82v-.9l-1.72-1.1,2-2.85-1.46-1.91-2.66-1.43-1-1.36.88-1.55-.27-1.07h-3.07l-3.93-.67-4.08-1-3.49-.58-1,.55-.22,1.83-1.05,1.39-1.9.8-2.34-.24-1.58-1-.8-1-.45-1.9h-3.13L398.3,575l-1.93-1.16-1.4-2.72-2.4-3.76L391.3,564l4.24,2.37h3.64l-5.34-3.39-3.84-6,4.05,1.59,2.8-1,1.79-2.17L401,555l.23-2.15-.7-3.07-3.37-.89h-2.75L392,546.6l-.77-2.25,0-2.82H377.59l-5.08.89-3.89,1.13-3.51-.35-4.55-1.66h-9.79l-6.18,1.08-3.89-.56-4.38-1.93-6.48-2.88-3.73-3.42-2.76-4.7-2.87-3.07-3.16-6.27-1.77-2.59-8.4-5.68-3-.21-11.39,1.4-2.49-.27-6.65-1.84-3.25-.09-2.62.66-2,.92-2.42,2.16-8.22,8-2.86.34-3.3.71-2.66,1.32-4.26,3.21-4.89,9.6-4.46,9.66-1.64,7.32-.67,4.89.88,6,1.07,5.86.35,5.14-.3,4.1-1.44,5,3.29,4.47,4.93,2.35,5,2,9.16,8.63,3.36,5.29-4.21,4.83-.72,2.4.71,3.18,1.9,6,4,11.33,5.95,6.49,1.95,7.23,3.16,5.66,3.5,10.76,3.19,4.44,4.35,6-.34,4.74,1.47,6.83,1.75,6.78.32,5.5,1.7,5.47.39,3.95-1.15,1.88-2.09,1.43-1.1,3.74,3.74,8.87-.34,9.37,2.44,4.62,4.75,4.59,3.28,1.4,4.82-.67,4.48-1.06,7.35,1.6,9.55.43,14-.54,8.26,1.95,6.08,2.67,3,1.79,1.84,1.66,2.14,3.52,2,4.76,4.94,8,5.91,5.14,8.33,3.25,4.36,2.85,3.74,4.67,1.29,2.46.4,4.36,1.35,3.53L401,799.6l5.35-2.08,7-.84,5.69,1.26,13.74-.32,9,.4,4.42,1.1,4.13-.48,4.25-2.31,3.55,2.36,2.17,2.7,1.83,5.68,2,11.51,2.74,6.21.48,3.76,1.48,4.81,3.8,6.44,5.73,6.21,7.86,7.42,6.14,4.37,1.41,1,1.35-.43.64-1.77.34-2.14.87-2.41,2.55-2.75,3.95-1,6,.91,4,2.65,6.14.17,4.46-.92,5.51-.23,2.44-2,1.48-2.57,3.11-1.83,3-.62,3.92-1,3.05-.53,2.83-1.47,5-2.52,3.21-2.71,3-2.6,1.29-1.42,2.37-4.6L569,813.81l-5.4-1.39-3.32-.72-3.2-.51-2.61-.75-.63-1.31,1-1.53,2.14-2.45.24-2.1-1-.93-2.49-1-.76-1.64.91-3.61-.25-2.06-.56-1.75-2.56-1.91-2.17-1.36-.43-1-.83-.82-2.54-.89-2.71-.83-2-1.44-1.49-1.58-2.5-1.26-3.88.3-2.85-.19-1.82-.64-1.67,1-1.76.37-.27-1.31-.89-1h-1.39l-1.82.83-1.34-1-.27-1.52.21-2-.56-1.22L514.25,770l.16-2-1.31-1-2.25-.58-2.43.47-2,3.2-1.2.65-1-.61-2.42-4.94-2.18-1.6-2.31-.89-2.57-2.92-2.57-1.52-4.27-.41-2.38-1.32,1.86-.29,4.6-1.48,3.33.22,2.66-.52,1.79.31,2,1.29,2.68-2.17,1.47-1.59-.33-1.22-1.34-.81-6-3.58-.94-1.19.24-1,.66-.51,5.07-2.86L504.9,740l-1.58-.9-.84-1.16v-2.21l-6.77-6.37-2.56-1.25-.9-.87.21-1.34,1.58-1.62.92-1.55,1-1.42V716.6l-1.77-1.7,1.11-2.1-.26-2.81-2.84-.87-2.11-2,.83-2.84-1.4-1.5L489,701.3l-3.23-3.14-5.82.25-1.63-1.66-.34-2.49L476.58,693l-2.24.17-2.68,1.14-2.36.54-2-1.72-4.54.22-2.32-1.32L458.7,689l-2.49-.39-1.87-1.92-1.13-1.59-1.84-2.1-.38-2.26,4.61-.86,3.26,1.33,2.38.57L473,680l2.21,2.38,2.2-.44.57-3.33,3.27,2.79,1.88-4.33-2.83-2.43.76-1.36h2.23v-1.12l-2-1.11,1.66-3.19,2.77,1.46h3.46l1.44-2.06-2.18-2.4.89-1.73,2.68.78,1-1.74L492,660.18H489.2l.3-3.25-.16-2.73-.58-2.14-.61-.81-1-.94-1.93.57-1.2,4.49-2.95.34-2.05,1.41-.87,1.64L478,660,476,661.08l-1.37-.86-4,1.22-2.33-.38-.23-1.65-1.68-1.33-3.2.29-.76-.85-.69-2.89Zm-86.87-92.3.21-1.76.19-1.54.77-1.57,2-.31.81.73,1.54.43,1.64,1.24,1.06.35.37-1.81,2.67.16,1.51.11L389,559l1.51.75,1.19.91.46.76-.17,1.16-.62.4h-.51l-.43-.35-.54.32-.75.62-.7.27-.54-.32-.52-.78-2-.73-1.78-.32-1.8-.08-1.08.37-1.57,1.08-.88.81-1.7.91-1.05,0-.54-1v-1.5ZM404.49,633l-1.25-1.7,1.16.7,1.24-.47,1.24-1.7.46-1.13.9-.38,1-.11.24-1,.16-.43.65-.23,1.47.48,1,.48.87,0,1.13-.57,1.2-.59.92-.2L418,627.5l1.48,2.61-2.24,2-2.12-.09-.64.42h-1.06l-.49.6-.74.57h-.91l-.72-.25-.4-.14h-1.26l-.82.69-.92.19-1.19-.19-1.45-.91Zm-5.08,46.56-1.21-.19-.82-.44-.05-1.4.87-.82h2l1.11,0,1.74-.1,2,.53,1.16-.19-.44-.87.87-1.79,1-1.21.63.82,2.38,2.08.35-.8.22-1.07.35-1.46.46.15,1.49.81,1.87-.16,1.69.35,2.64,1.3.57,1.11v1.45H419l-1.11-.19-1.95-.42-1.53.11-2.1.15-.57,1.19-1.31,2.79-1,1.14-1.07.12-1.22.38-.39-.57-.42-1.34-.49-1.45-1.07.23-.87,0-1.41.24-3-.58Zm69,75.55-.22-2v-2.57l1.19.1,1.32.1,1.08.09,1.08,0,1.21.43v.9l-.61.61-.29,1.27-.83.32-2,.78Z" style="fill:#eac102;fill-rule:evenodd"/><path id="CA1" d="M434.11,446.29l2.69-10.67-2.72.24-1.82-.51-2.9-2.51-.52-2.74-2.71-1.69-2.72-1.79h-3.62l-2.24.76-1.38,1-2.46,1.73-2.22.39-4.27-1.75-2.74,1.66h-3.62l-2.38.3H397l-.94-.84-.78-2.69-.43-1.5-1.59-2.51-1.68-.37-2.06.14-2.5,1-2,1-2.23.9h-1.63l-2.21-.4L377,423.7h-6.3l-.69-1.38-.6-1.73-1.21-1.38-3.72-.53-.89.37v1.08l1.5,6.3-2-1.42-2,.5-2.34.12-1.32-.76-1.24-1.4h-.86l-1.06,1.44V426l-.88,1.1-.85,1.73v1.75l1.1,1.83,2.33,1.83.8,2.51,2,1.84,2.51.67-.75,1.7-1.12,1.21.13,1.09,1.07.56,1.74-.2,2.49-.58,2.44-.32,2.71.33L373,442l2-1.29,1.78.46,1-.32,1.84-1.64,1.33-.95H382l1.22,1.17.92,1.42,2.84,1.79,3-.69,3-.44,2.4.65,1-.53,1.26-1.68h1.54l1.34,1,2,1.51,1.6-.8,1.41-1.31,1.2-2,1-.71H409l1.39.59,2,1.05,3,1.58,1.8,1.26L418.4,444l1.47,1.29H422l2.5-.34,1.53.59,2.44.48,3.31-.42Z" style="fill:#b2b2b2;fill-rule:evenodd"/><path id="C8" d="M805.73,638.13l2.5-2.1,3,.7,7.7,3.8,3.4-2.2,4.8.6,2.5,4.8,5,1.7,3.8,2.9,3.5-1.3h4.7l6-2.3,5,1.6,2.3,2.6,8.1.8-7.2-3.1-4.1-4.1,4.1-2,2.1-1.8,4.9-3.9-1-4.9.7-4.7-3-1.5-.3-1.5-2.9-.3-4.6-4.5-.5-3.3-5.8-8-.2-2.6-11.2-.2-2.9,2.6-3.9,2-3.6,4-4.2-.4-4.1.8-2.6-3.3-2.1-1.5-.5-2.5-1.4.2-1.3-2,.5-3.1-1-2.9-9.4-7.2-1.1-2.7-3.4-4.2,3.8-4.7-.8-2.3,1.3-3.8,7.2-6.4.7-3.3,2.5-1.5,5-.3.5-.9-7.7-6.4-.2-3.3-.9-4-3.5-3-.8-4-1.5-2.2.3-2.7,1.8-1.3,1.9.2,4.1-2.4,2.8-2.7h-3.8l-2.1.9-2.7-2-6-.4-4-1.2-1.7-1.2.3-2.6-2.7-2.1-.6-5.1-1.9-2.1v-4l-9.7-1.2-4.8-2.8-4.7.7-1.1,4.1h-5.2l-3.2-2.3-5.8-3.2-4.7-.5-6.3,4.3-8.4,3.8-1.6.2-2.3-.5-2-1.5-4.9-2.3-.9,2.2L708,532.63l26.7,18.7-1.1,3.3.9,1.8v1.5l.4.9V560l3.9.9-1.9,5.6-5.2,8.5-2.3,1.5,8,9,2.1,4.1,6.2,1.4,4.7.5h7.9l5.1,3.1,2.5.5,4,6.6,7.2,1.4L779,606l-.8,2.7,4.5,7.1,5.9,1.8,3.1,2.1,4.2,6.7,2.8.1,4.9,6.8Z" style="fill:#ffac65;stroke:#666;stroke-width:0.4000000059604645px;fill-rule:evenodd"/><path id="C9" d="M732.33,699.53l-2.3-2.2-4.1-1-3.2-1.3-6-5.7-7.5-6-.8-2.8,1.7-1.7,2.6.5,1.6-2.1.5-4.3.3-6.5,1.9-1.9h5.2l6.6.5,1.6-7.9,3,3.9,8.2-1.9,1.7,1.2h2.4l2.9,3.6,1.9-8.2,2.9-5.5,5.3-1.1,3.6,1.8-.8,7v7.6h4.7l1.4,1.9h10.7l5.5,1.8h4.4l1.8,1.4h3.4l3.3-1.6,2.8,2,2.3-.2.3-1.9-2.4-2.3-.7-1.9.7-2.7,2.8-3.3,1.2-3.5,4.5,3.9H811l3.2-2.2,3.3.8,4.9-3.3h3.7l3.2,2,1.8-.4,1.5,1,2.3-.7.4,3,1.6,1.7,3.9-1,1.3-1.7,2.4-2,1.8,1,1.2,1.6,1.5.3,1.4-2.2,2.6.5,1.1,1.8,1.1-.4.4-2.2-.5-2.8-1.2-2.9,2.2-1.3,4.9.7,7-.7-8.1-.8-2.3-2.6-5-1.6-6,2.3h-4.7l-3.5,1.3-3.8-2.9-5-1.7-2.5-4.8-4.8-.6-3.4,2.2-7.7-3.8-3-.7-2.5,2.1-2.1-4.8-4.9-6.8-2.8-.1-4.2-6.7-3.1-2.1-5.9-1.8-4.5-7.1.8-2.7-1.9-2.9-7.2-1.4-4-6.6-2.5-.5-5.1-3.1h-7.9l-4.7-.5-6.2-1.4-2.1-4.1-8-9-1.4,4.2-1.3-1.2-4.5,4.5-1.1-.5-1.9,4-5,3.1-5.2,4.5-2.5-1.9-4.2-.4-4.9,3.4-4.2,4.8,5.2,8.2-.3,8-3.9,5.3-.7,3.7-3.9,4.3-3.9-2-6.7,4.2,7.6,9.8-4.3,6.1-.4,7.3,3.1,2.5,2.6,3,2.5,4.3-2.7,4.5.9,2.4.5,3.7-2.4,12.2-3.7,3.5,1.7,5-.3,2.6,2.6,1.7h3.4l1.4,1.6.2,3.9,5.6,5.5,23.5,5.1,1.9-1.4v-2.7l-2.2-3.7,10.2-7.2Z" style="fill:#f93;stroke:#666;stroke-width:0.4000000059604645px;fill-rule:evenodd"/><path id="C10" d="M698.13,617.23l.3-8-5.2-8.2,4.2-4.8,4.9-3.4,4.2.4,2.5,1.9,5.2-4.5,5-3.1,1.9-4,1.1.5,4.5-4.5,1.3,1.2,1.4-4.2,2.3-1.5,5.2-8.5,1.9-5.6-3.9-.9v-1.2l-.4-.9v-1.5l-.9-1.8,1.1-3.3L708,532.63l15.7-23.3.9-2.2,4.9,2.3-5.9-5.3-4.6-.4,3-3.7-23.2-3.8-6.1.5-34.6-5.6-1.7,8.1-5.2,13-28.9,52.6-.7,3,.8,3.4,19.6,55,.7,3.1.5,4.7.3,8.3,6.8,2.8,11.4,8.5,7.6,5.5,1.1,5.1h2.9l.9,3H677l4.1,1.2v2.3l2.6,1.9h4.6l-.9-2.4,2.7-4.5-2.5-4.3-2.6-3-3.1-2.5.4-7.3,4.3-6.1-7.6-9.8,6.7-4.2,3.9,2,3.9-4.3.7-3.7Z" style="fill:#ed8e2f;stroke:#666;stroke-width:0.4000000059604645px;fill-rule:evenodd"/><path id="C4" d="M681.23,403.83l-3.6,2.9-1.4,1.1-.7,1.5L675,411l-.3,8.6-.3,2.1-.5,1.6-15.8,67.8,34.6,5.6,6.1-.5L722,500l-3,3.7,4.6.4,5.9,5.3,1.7-5.1.2-4.6,1.2-12.1,3.1-21,6.7-37,1.6-8,.2-4.7-1.1-2.7.7-14.7,1.1-2.1-2.4-3.1-4.5-.5-7.9-8.5-.8-.9-7.4-.6-3.3.9-6.3-1.6-2.9-6.7-3.8-1.7-2.7.6-5.4-2.5-.3,1-.9,2.1-1.9,2.3-2.9,2.3-2.4,2.5-1.3,2.5-.3,2.5-1.1,7.3-1,3.7-.8,1.6-1.6,1.6Z" style="fill:#693;stroke:#666;stroke-width:0.4000000059604645px;fill-rule:evenodd"/><path id="C2" d="M705.63,374.73l3.8,1.7,2.9,6.7,6.3,1.6,3.3-.9,7.4.6.8.9,3.8-2.4,7.2-1.8,4.2-6.9,11.6-2,.9-2.5-2.5-.8-1.2-4.2,2.6-4.4,1.8.1,2.4-2-1.7-2-4.9-1.5-2-4.3,9.3-17.8.9-6.2-1.2-2.9,2.4-4.3-.3-3.2h1.9l.2,1.1,3.8,2.4,2.9-3.8,9.5,2.1,1-2.8-3-.2-4.1-4.1-1-1.7-1.5,1-3.6-.1-4.2-2.2-3.8-.4-3-3.4-2.5,1.1-7.1-2.2-7.9-2.1-6.2-2.4-6.8-6.6-1.6-1.8-.5-1-.7.8-1.2,2-.2,2,1.2,4-.3,9.3,1.1,8.1v4.9l-1.3,4.7-3.9,8.9-1,4.5-4.2,7.9-1.4,3.1-.8,4-.9,2.2-2.3,2-2.8,2.1-3.7,1.9-1.8,1-1.4,1.3-1,1.7-.6,2.3-1.2,5,5.4,2.5Z" style="fill:#72ab39;stroke:#666;stroke-width:0.4000000059604645px;fill-rule:evenodd"/><path id="C3" d="M744.93,397.43l-1.1,2.1-.7,14.7,1.1,2.7-.2,4.7-1.6,8-6.7,37-3.1,21-1.2,12.1-.2,4.6-1.7,5.1,2,1.5,2.3.5,1.6-.2,8.4-3.8,6.3-4.3,4.7.5,5.8,3.2,3.2,2.3H769l1.1-4.1,4.7-.7,4.8,2.8,9.7,1.2,5.2-1.3,1.8-1,4,.8,3.9-1,2.3-6.7-1.1-4.4.3-4.9,1.1-3.3,2.9-1.4,2.7-.2,2.3-1.9,3.2,1.1h5l-2.1-2.4-.6-3-2.6-2.5-.3-2.1,8.2-7.7-6-3.8-2.2-2.7-2.7-4.3,2.2-5.8,6.3-3.8-.5-.8-4.6-2.1-.6-2.2,1.9-3-1.6-2.4-.7-3.4-1.8-2.2v-2.1l-3.4-.9-4.6,1.4-3-.4,1.1-5.1-.6-2.8,3.7-5,4.8.2.8-7,2.9-4.9-4.4-3-1.4-2.5-9.4.4-4.3-1.8h-8.3l-5,3.2-3.6-.9-10.7,4.5-4.7-2-9.5,1.4Z" style="fill:#7bb83d;stroke:#666;stroke-width:0.4000000059604645px;fill-rule:evenodd"/><path id="C1" d="M812.53,400.33l4.4,3,2.7-3.9-.5-13.5-3.1-1.8,2.8-3.7-.7-2.4-2.1-2.4,2.7-2.9-1.4-5,2.3-3.7-1.9-2.9-3.7-1.6,2.9-5.5,2.4-2.6-.4-7.1-3.7-3.8-5.2-9.9-2.5.7-3.8-5.3-3.8-3-5.8-1.9-2.2-2.1-1.5-2.5-3.8,1.1-3.9-2.4-1,2.8-9.5-2.1-2.9,3.8-3.8-2.4-.2-1.1h-1.9l.3,3.2-2.4,4.3,1.2,2.9-.9,6.2-9.3,17.8,2,4.3,4.9,1.5,1.7,2-2.4,2-1.8-.1-2.6,4.4,1.2,4.2,2.5.8-.9,2.5-11.6,2-4.2,6.9-7.2,1.8-3.8,2.4,7.9,8.5,4.5.5,2.4,3.1,10.7,5.2,9.5-1.4,4.7,2,10.7-4.5,3.6.9,5-3.2h8.3l4.3,1.8,9.4-.4Z" style="fill:#86c944;stroke:#666;stroke-width:0.4000000059604645px;fill-rule:evenodd"/><path id="C14" d="M691.73,706.83l-.2-3.9-1.4-1.6h-3.4l-2.6-1.7.3-2.6-1.7-5,3.7-3.5,2.4-12.2-.5-3.7h-4.6l-2.6-1.9v-2.3l-4.1-1.2h-2.8l-.9-3h-2.9l-1.1-5.1-7.6-5.5-11.4-8.5-6.8-2.8-19.3,140.6-9.1,28.1-4.8,18-1.5,4.2,2.3,2.1h2.1l7.1,5.5,2,7.8.4,4.1,2.9,2.9,10.6,6.7h4.2l2.7,3.4,11.8,7.6,5.7,1.7,5.5-.7,3,2,2.5-.2,4.4,3.7,2.5,3.8,4.6,1.9,2.2,2,4.2-1,5.2,2.8,5.2-2.1h5.3l5.6,1.2,1.5-2.7,1.8-1.7,2.4-1.1.5-2.7-.6-3.3v-2.8l1.2-2-1.1-2.8-.5-3.5,1.6-1.8,3.2-.8,2.3,1.9,2.3.7,6.3.5.7-2.7-1-2.9.4-4.3-3-.8-2.9-1.7.6-8.7,2.5,1.2,3.5-4,3.9-2.3,1.5-1.9,2.4-2,1.1-2.3-1.9-2.2-.4-2.9-.9-3-.9-2.3,1.4-2.5-1.1-2.4-1.5-2.5,1.7-2.1.5-2.8,1-3.3,1.8-2.8.5-4.6,4.9-4-1-3,1.5-3,.2-3.6,1.7-2.9v-2.2l-.8-2,1.3-1.6,1.2-4,2.3-1,1.5-1.4-.2-1.5-1.1-2.1.5-3.1,2.6-1.4,3.8-.6,2.3-2.1.8-2.3v-4.3l.3-5.2,1.3-3.2,1.5-5.8,1.7-2.1-.7-3.6.7-2.4-2.3-2.3,2.2-2.9.7-3,.7-7.2-6.4,3.5-6,.5-6.6-.7.2-4.6-5.6-4.9-4.5-4.6-3.3-1.8-4.7-4.6-1.6,2.9-10.2,7.2,2.2,3.7V716l-1.9,1.4-23.5-5.1Z" style="fill:#eac102;stroke:#666;stroke-width:0.4000000059604645px;fill-rule:evenodd"/><path id="C11" d="M607.13,511.33l-6.3-3.6-1.7-4.6-4.4-3.6-1.2-4.8-2.1-2.5-3.6-2.8-5.8-3.2-6.4-4.4-7.4-7.7-4.3-4.7-2.2-4.7-2.9-3.1-3.8,3.2-15.7,69.8-2,4.6,5.1-1.8,1.4.3,4.8-1.1-1.9,21.6-12.7.3-5.1-2.1-6.6-.2-2.2,32.9-18.2-4.3-2.7,2.9-1.8,7.3-15-2.6-7.8-.3-4,4h-6.5l-4.5,1.1h-7.7l5,1.1,1.4.7,2.6-.6,1.2.5,1.9,2,1.4.4.9-.2,1.5-.9,1.5.5,1.5.9,6.9,4.9,2.9,7.5,12.8.5,6.6-.1,18.6-.3,14.5-.7-1.9-4.9,100.3-3.4-12.1-33.9-.6-3.4.5-3,27.1-49.3-10.3,2.8-4.3.6-7.3-.3-5.7-1.3-5.4-1.4Z" style="fill:#0083db;stroke:#666;stroke-width:0.4000000059604645px;fill-rule:evenodd"/><path id="C12" d="M523.63,511.73l-7.6,3.4-3.2.5-11.2,4.9-3.7-.2-5.2,1.3-6.9.7-2.9-.4-6.8,10.2-2.8-1.3-2.4,1.7,1.8,1.4-2.8,1.7-7.4,5.8-8.4,1.5-4,5.2-.2,1.6,1.6,1,2-.4,3.4-4.6,3.8-.5,1.8,1.7,1.7,2.9,4.9,3-.1,2.9-8.2,7.2-.8,5.2,2.7,2.9-5.8,6.7,3.4,2.7,2,5.6,1.2,6.2h-4.4l-3.7,4-3.5,1h7.7l4.5-1.1h6.5l4-4,7.8.3,15,2.6,1.8-7.3,2.7-2.9,18.2,4.3,2.2-32.9,6.6.2,5.1,2.1,12.7-.3,1.9-21.6-4.8,1.1-1.4-.3-5.1,1.8,2-4.6,15.7-69.8-1.9-4.9-3.5.5-.1,1.4-2.6-.3-3.5,1.1-1.8,6.6-2.3-1.6-1.3,4.2-1.2.9-.7-3.1-1.4-2-3.5-1.8-1,3.1,2.5.9-1.3.7.2,4-3.4-1.2-5.4-.5-5.7,3.2-3.8.5,1.5,1.9-3.2,3.7V485l-4.9-3.6,2.7,6.6,2.3,3.2-1.4,4.5,1.3,2-.6,5,12.2-.2,2.6-4.8,2.3,1.5,2.4,18.5Z" style="fill:#008ae6;stroke:#666;stroke-width:0.4000000059604645px;fill-rule:evenodd"/><path id="C13" d="M428.23,523l-.8.2-6.8-4.7-1.9-.3-1.2-.6-3.1-3.6-2.7-3.9-.3-2.6-1.5-1.2-1.4-1.3-.9-1.9-.3-1.9-1.2-3,1-1.2-.8-.6-1.2.1-1.5.7-1.4-.2-2.9-1-1.3-.4-1.3.3-.5,1.1,1.4,1,4,2.4.4,1.2-.4,1.2-2.2,3.2-1,2.7.6,1.9-.2,1.4-4.5,4.3-5.3,4v1l5.1,2.8.6,2.3,2.8,1.7,3.3,1.3,2.1,2.1,1.7,4.6-.8,1.2-1.3-.2-1.4-.9-3.6-2.4-1.9.1-2.9.5-1.5,1.9-.3,3,.3,1.9.1,2.8.7,2.3,2.5,2.3h2.7l3.4.9.7,3-.2,2.2-2.4.4-1.8,2.2-2.8.9-4-1.6,3.8,6.1,5.4,3.4h-3.7l-4.2-2.4,1.2,3.4,2.4,3.7,1.4,2.8,2,1.1,2.6.4h3.1l.4,1.9.8,1,1.6,1,2.4.3,1.9-.8,1-1.4.2-1.9,1.1-.5,3.5.6,4.1.9,3.9.7h3.1l.2,1.1-.8,1.5,1,1.4,2.7,1.4,1.4,1.9-2,2.9,1.7,1.1v.9l-3.5,1.8,1.4,2.1.3,2.1h1.3l2.9-1.8,1.5,1.5-.7,1.5v1.2l1.9,1.7,1.6.2,1.2-.2,1.9-2.1.5-1.9,1.5-.2,1.1.6,2.8,1,3.9.6,3.5-1,3.7-4h4.4l-1.2-6.2-2-5.6-3.4-2.7,5.8-6.7-2.7-2.9.8-5.2,8.2-7.2.1-2.9-4.9-3-1.7-2.9-1.8-1.7-3.8.5-3.4,4.6-2,.4-1.6-1,.2-1.6,4-5.2,8.4-1.5,7.4-5.8,2.8-1.7-1.8-1.4,2.4-1.7,2.8,1.3,6.8-10.2,2.9.4,6.9-.7,5.2-1.3,3.7.2,11.2-4.9,3.2-.5,7.6-3.4,6.9,6-2.4-18.5-2.3-1.5-2.6,4.8-12.2.2.6-5-1.3-2,1.4-4.5-2.3-3.2-2.7-6.6,4.9,3.6v-2.9l3.2-3.7-1.5-1.9,3.8-.5,5.7-3.2,5.4.5,3.4,1.2-.2-4,1.3-.7-2.5-.9,1-3.1,3.5,1.8,1.4,2,.7,3.1,1.2-.9,1.3-4.2,2.3,1.6,1.8-6.6,3.5-1.1,2.6.3.1-1.4,3.5-.5,1.9,4.9,3.8-3.2-5.3-4.6h-6.1l-3.6-3.5-5.8-1.1-2.5-3.6-6.4-.4-10.3-5.3-1.9,3.2h-2l-9.8-6.2-3.7,1-3.9-1.3-.5,11.4-3.5,7.8-9.2-1.2-11.9,7.3-9.5-1-2,1.7-4,.3,1.8,1.4,1,2-2.3.8v2.1l1.7,4.2,2.9,5.2,1.6,4.2,2.8,3,1,2.4v5l.7.8.3,2.2.7,1.6v2.1l-.7.7v.8l.6.6.4.8-1.1,2.4-1.1,4.4-1,1.2-1.3.2-.8-.8-1.1-2.7-2.9-5.1-1.1-1.2-1,.2-1.1.5-1-.3-.4-.7-.2-1.8-2-.5-.3-1.5-.7-.8-1.3.4-1.6.3-1.8-1-.9-1.2-1.4-1.6-1.7,1-1.5.7-3.9.2-1,1.4-1,1.7-2.1.7-4.3-2.5-.8.7.4,1.1-.4.5-.9.1-2.1-.2-.5.2.3.8,2.8,3.3.5,1.4-.4,3.2-.5,1.4.5.8,2,2.7v1l-1.7,2.7Z" style="fill:#fbb03b;stroke:#666;stroke-width:0.4000000059604645px;fill-rule:evenodd"/><path id="C15" d="M620.73,633.93l-10.8-.6-.1,6.1-5.8,1-11.5-.2-2.6.6h-11.8l-2.4,1.6-1.6,7.3-3.4,2.5.6,3v9.7l-2.1,12.5-11.6,57.3-.2,3.2-3.1-5.1-2.2,2.2-5.9,1.7-3-1.3-1.3,1.7.5,3.3L542,754l2.7,4.3-2.8,3-4.8.6,3.8,5.7-4.4.9,1.2,1.8L534,773l6.8,9.1-.6,1.8,2,1.4,2.7.9,2.5.8.8.9.5,1,2.1,1.4,2.6,1.9.6,1.7.2,2.1-.9,3.6.8,1.6,2.5,1.1,1,.9-.3,2.1-2.1,2.5-1.1,1.5.7,1.3,2.6.8,3.2.5,3.3.7,5.4,1.4,2.7-3.7,4.8-1.5,10.9-5.1,2.7-.6,6.1,5,15.8,2.6,8.9-27.8,19.3-140.6v-.7l-3.8-1.2.2-2.6Z" style="fill:#993;stroke:#666;stroke-width:0.4000000059604645px;fill-rule:evenodd"/><path id="C16" d="M489.63,663l-.9,1.7,2.2,2.4-1.5,2.1H486l-2.8-1.5-1.7,3.2,2,1.1v1.2h-2.2l-.8,1.3,2.8,2.5-1.8,4.3-3.3-2.8-.6,3.3-2.2.5-2.2-2.4-11.8,1.8-2.4-.5-3.3-1.4-4.6.9.4,2.3,1.9,2.1,1.1,1.6,1.9,1.9,2.5.4,1.7,3,2.3,1.4,4.6-.3,2,1.8,2.3-.6,2.7-1.1,2.3-.2,1.4,1.2.3,2.5,1.7,1.7,5.8-.3,3.2,3.2.5,1.5,1.4,1.5-.8,2.9,2.1,1.9,2.9.9.2,2.8-1.1,2.1,1.8,1.7v4.7l-1,1.4-1,1.6-1.5,1.6-.2,1.4.9.8,2.5,1.3,6.8,6.4V738l.8,1.2,1.6.9-1.7,1.1-5.1,2.8-.6.6-.3.9,1,1.2,6,3.6,1.3.8.3,1.2-1.4,1.6-2.7,2.2-2-1.3-1.8-.3-2.6.5-3.4-.2-4.6,1.5-1.8.3,2.4,1.3,4.2.4,2.6,1.5,2.6,3,2.3.9,2.2,1.6,2.4,4.9,1,.6,1.2-.6,2.1-3.2,2.4-.5,2.2.6,1.4.9-.2,2.1,3.3,4.5.6,1.2-.2,1.9.2,1.5,1.4,1.1,1.8-.8H523l.9,1,.3,1.3,1.7-.3,1.7-1,1.8.6,2.9.2,3.9-.3,2.5,1.3,1.5,1.6.6-1.8L534,773l3.7-2.7-1.2-1.8,4.4-.9-3.8-5.7,4.8-.6,2.8-3L542,754l.4-13.6-.5-3.3,1.3-1.7,3,1.3,5.9-1.7,2.2-2.2,3.1,5.1.2-3.2,11.6-57.3,2.1-12.5v-9.7l-.6-3,3.4-2.5,1.6-7.3,2.4-1.6h11.8l2.6-.6,11.5.2,5.8-1,.1-6.1,10.8.6,16.2,3.9-.2,2.6,3.8,1.2-.3-7.6-.4-4.7-.8-3.1-7.5-21.1-100.3,3.4,1.9,4.9-14.5.7-18.6.3-6.6.1-12.8-.5-2.9-7.5-6.9-4.9-.3,2.7-1.2,2v1.2l2,.5,1.8,1.1,1.4,1,1.7,1.9.2.9-.1.7-.5.5-.8.1-.7-.3-1.1-.8-1.7-.2-1.4.7-1.6-1.4h-2.8l-3.3-1.2h-3.8l-2.6-2.1-2.4-2.8-.5-2.9-3.7-2h-1.3l-1.6-.8-3.1-.2h-2l-1,.8-.1,1,2.8.3,3,.9,1.7.9,1.1,1.7v1.8l-.7,1.8-.9,2.7-.9,2.9-1.5,1.5-2.4.6-3.7-.4-2.1,1.3-3,.4-1,1.5.6,1.2,2-.5,2.8.7,2.2.7,2.6.3,2.9-.4,3.1-.2,1.9.6,4.5,3,1.9-.2,1.7,1.1,2.7,1.2,3.1-.3,1.8,1-.5,2.4-2.2,2.3-.4,2.1-1.9,2,.2,1,.8,1.1-.1,1.7,2.4,1.4,1.8.5,2.9.3,1.6.3-.7.7-1.8.3-1.8.5-4.2.4-1.9,1-.8.9.7,1.1,2,.8,1.9,1.2,1,1.6-1.7,1.1-1.9,1.7.7,2.9.8.9,3.2-.3,1.7,1.3.2,1.7,2.3.4,4.1-1.3,1.3.9,2-1.1.2-1.2.8-1.7,2.1-1.4,2.9-.3,1.2-4.5,2-.6,1,.9.6.8.5,2.2.2,2.7-.3,3.3h2.8l1.1,1.9-1,1.8Z" style="fill:#b0b03b;stroke:#666;stroke-width:0.4000000059604645px;fill-rule:evenodd"/><path id="C7" d="M426.23,427.93l2.8,1.7.5,2.7,2.9,2.5,1.8.5,2.7-.2-2.7,10.7,3.1,2.4,3.5,3.6,3.7,2.7,1.4.6h1.9l.6,2-1,5.8-1.2,3.3-.6,1.1v.6l.7.3,1.9-.1,2.6-.6,2.7-.4,1.8-.7,1.6-.3,4-.3,2-1.7,9.5,1,11.9-7.3,9.2,1.2,3.5-7.8.5-11.4,3.9,1.3,3.7-1,9.8,6.2h2l1.9-3.2,10.3,5.3,6.4.4,2.5,3.6,5.8,1.1,3.6,3.5h6.1l5.3,4.6,2.9,3.1,2.2,4.7,4.3,4.7,7.4,7.7,6.4,4.4,5.8,3.2,3.6,2.8,2.1,2.5,1.2,4.8,4.4,3.6,1.7,4.6,6.3,3.6,6.3,4.6,11.1,2.7,7.3.3,4.3-.6,10.3-2.8,1.8-3.3,5.3-13,1.7-8.6-10.7-1.4-9.5-5.1.8-5.3,3.6-7.6-16.9-12.8-.2-4.4,4.9-5.8.6-3.1-.5-2.3,3-2.9-2.6-2.8,7.1-7,4.1,4.1,4.3,2.8,5.1-4.9L643,427l4.3-2.8.3-2.9,5.9,1.5H656l-.1-1.8-3.2-1.2-1.9.6-5.7-4.6-3.2.3-5.3-5.6-2.3.4-2-2.3-3.9-.6-8.2-4.9-8.1-1.3-7.7-4.2-1.3-2.4v-3.3h-2.3l-1.9-2.9-3.7-1.9-3.7-3.9,1.4-3.1.5-5.5,4.4-2.4,2.2-2.4-4.8-3.8-3.5-.5-2.5-2.1.1-2.4-1.9-2.4h-1.9l-.7,1.3-2.3,1.3-1.7-1.3-3.4-3.9-2-3.7h-2.2l-2.9,2.6-1.8.4-2.9-2.1-1.1,3-3.2-.3-.9,1.1-1.9.2-3-.7-4.1.6-.4,3.7h-3.2l-1.8.9v2.6l-.7,1.8-1.6,2.5-2.3,1.6h-6.8l-.8,2.7-2.3.9-1.1-1.1h-1.3l-1.4,1.2h-3.5l-2.7,2.6-2,.7-6.1-.9-1.5-.8-2.4-2.2-1-2.7-5.1-5.6v-2.4l-1-1.5-2.9,1-1.2-.7-2.6,1.3-1.7-.3-5.4,5.6h-.7l-1.4-.8-.9.4-.5,2.5-1.8-.9-.7.4-.4,3.4-1.3,2.1-4.9,3.8-3.2,4.2-4,3.8-4.5,1.9-.9,1.1-.2,1.2.3,2.4-.6,1.2-2.7,2.7-3.5,1.7-3.1,1.1-4,.9-9.8-.4-3.9.2-1.8.8-1.2,1.4-1.4,1.8-2.5,1.9-3.1,1.4-3.5.9v4.6l.9,3.6,2.2,5-1.2,2.9-.8.9Z" style="fill:#c93;stroke:#666;stroke-width:0.4000000059604645px;fill-rule:evenodd"/><path id="C5" d="M722.23,289.93l5-6.3-4.8-3-1.9-.6-28,1.4-6.4-3.3-3.3-.9-3.5.9-2.4,2.2-3.6-.3-5.5,6.2-7.4,1-2.4,10.5-.4,12,2.1.4.1,3.6,10.9-.1v.1l1.6,7.9-5.9,12.3-2-.7-2.2,5.4-5.6-.7-3,3.4,1.4,3.8-2.4,3.1-12.5,39.2-10.6-3-4.1,10.7-5.2,8,8.2,4.9,3.9.6,2,2.3,2.3-.4,5.3,5.6,3.2-.3,5.7,4.6,1.9-.6,3.2,1.2.1,1.8h-2.5l-5.9-1.5-.3,2.9L643,427l5.3,5.1-5.1,4.9-4.3-2.8-4.1-4.1-7.1,7,2.6,2.8-3,2.9.5,2.3-.6,3.1-4.9,5.8.2,4.4,16.9,12.8-3.6,7.6-.8,5.3,9.5,5.1,10.7,1.4,17-71,.2-1.9.4-6.4.4-1.9.7-1.7,1.1-1.3,5.1-4.2,2.1-2,1.4-2.3.9-3.4.6-6.4.4-2.4,1.1-2.6,2-2.6,2.8-2.3,2.2-2.2,1.6-2.7,1.8-7.6,1-2,1.3-1.5,1.9-1.5,3.1-1.7,2.9-1.8,2.3-1.9,1.5-1.9,1.2-4.6,1-2.6,4.2-8,1.3-5.1,3.4-8.2,1.3-5.2-.3-4.9-.9-7.7.3-8.8-1.2-4.3.1-2.3Z" style="fill:#ba8c2f;stroke:#666;stroke-width:0.4000000059604645px;fill-rule:evenodd"/><path id="C6" d="M600,369.83l-2.2,2.4-4.4,2.4-.5,5.5-1.4,3.1,3.7,3.9,3.7,1.9,1.9,2.9h2.3v3.3l1.3,2.4,7.7,4.2,8.1,1.3,5.2-8,4.1-10.7,10.6,3,12.5-39.2,2.4-3.1-1.4-3.8,3-3.4,5.6.7,2.2-5.4,2,.7,5.9-12.3-1.6-7.9h-10.9l-.1-3.6-2.1-.4.4-12,2.4-10.5-17.3-1.2-4.4-1.4-2.9,2.4-7.8,1-11.7,5.7-7.2-1.4-7.6.6-3.1-1.7-4,2.1v3.2l-2.2,2.7-.3,1.3,4.4,3.7.8,1.3-.5,3.4,3.7,2.3,4.9,2.3.8,3.8-.7,3.1-1,2.6-1.8.3-2.9-.7-2.7.5-1.5,1.1-1.1,2v6.5l1.3,1.6-.3,2.7-2.4,2.4-.7,5.7,1.9,1.5.3,1.7-2.2,2.5-.6,3.2-2.7,1.1-2.6,1.9-.8,1.6h1.9l1.9,2.4-.1,2.4,2.5,2.1,3.5.5Z" style="fill:#dba538;stroke:#666;stroke-width:0.4000000059604645px;fill-rule:evenodd"/></g></g></svg>