<svg xmlns="http://www.w3.org/2000/svg" viewBox="0 0 1111.66 948.44"><title>medellin_mergueado</title><g id="Layer_2" data-name="Layer 2"><g id="Layer_1-2" data-name="Layer 1"><path d="M1052.28,554.07l-3.36-2.17-2-2.36-1.57-3.92L1045,542l2.56-3.71-2.45-6.63-7.13-8.57-3.84-2.82-7.84-3.71-3.54-4.69-.56-8,1.75-3.48-.71-2.76-4.25-4.61-2.23-3.76-.46-5.49-2.05-3.73-4.48-3.51-7.13-2.61-2.45-3-.68-2.91,1.71-5.74,2.18-1.57,7.51-2,4.86-10.3-.46-7.08-5.37-4.14-1-2.69-4.16-1.61,1.56-4.2-.46-11.94-5.78-8.24-3.61.42L992,397.13l-.57-5.56-1.11-2.79-3-2.69-2.66-.29-2.26-2.18-.44-2.11,1.09-2.3,3.77-4.91,3.12-4.83-2.82-5.69,2.48-2-1.16-2.47-3.35-.75-3,.55L980,356.51l-.65-2.74-1.87-1.83-1.44.13-1-1.31,1-1.22-.36-1.39-1.83-.14L969,351.07l-3.64,4-3.89-2.75-6.79-6.31-6.51-3.26-4.57.2L939,341.63l-7.3-3.16-6.46-3.5L920,330l-1.69.33-5.69,6.34-5,2.28-7.32,5L895,350.26l-3,10.08-3.9,9.42.43,6.21-1.57,4.09-3.12,6.28L878.94,390l-5.7-.32,1.13-4.91v-9.19l-3.44-5.8-3.12-6.74-12.36-8.92-4.82-.43-6.33-5.09-9.39-10.53H832l-3.44,2.6-2.27.26-5.63,7.21.5,7.15-2.46,2.6-2.84,5.42,3.64,1.63,1.94,2.89-2.28,3.66,1.38,5-2.72,2.87,2.13,2.43.64,2.43-2.79,3.69,3.09,1.78.53,13.45L818.72,407l-2.87,4.91-.78,7-4.84-.17-3.7,5,.69,2.86-1.11,5.09,3,.35,4.6-1.37,3.41.85v2.08l1.8,2.22.64,3.4,1.64,2.36-1.91,3.08.61,2.14,4.63,2.13.41.75-6.28,3.87-2.14,5.74,2.67,4.35,2.18,2.61,6,3.84-8.21,7.65.34,2.16,2.61,2.49.62,3,2.07,2.37h-5l-3.16-1.05-2.28,1.88-2.75.14-2.85,1.48-1.11,3.3-.27,4.81,1.11,4.45-2.3,6.66-3.91,1-4-.8-1.85,1-5.14,1.24v4l1.9,2.09.53,5.12,2.71,2.1L796,527.7,797.8,529l4,1.11,6,.48,2.69,2,2.15-.91h3.81l-2.85,2.67-4.13,2.4-1.79-.2-1.88,1.27-.31,2.74,1.53,2.2.82,3.95,3.5,3,.83,4,.24,3.33,7.72,6.37-.55,1-5,.25L812,566.07l-.69,3.31-7.16,6.35-1.28,3.83.75,2.27-3.76,4.67,3.41,4.22,1,2.69,9.37,7.15,1,2.89-.5,3.09,1.28,2,1.44-.17.5,2.46,2.06,1.5,2.6,3.33,4.09-.8,4.18.4,3.68-4,3.86-2.06,2.91-2.56,11.12.18.22,2.57L858,617.5l.48,3.27,4.66,4.5,2.91.32.29,1.46,2.94,1.52-.63,4.63,1,4.94L864.73,642l-2.11,1.86-4.13,1.93,4.13,4.08,7.14,3.14-7,.64-4.87-.68-2.18,1.31,1.19,2.91.55,2.76-.43,2.25-1.09.37-1.13-1.83-2.63-.4-1.4,2.19-1.42-.31-1.23-1.66-1.78-1-2.39,2-1.32,1.68-3.94,1-1.6-1.65-.33-3-2.3.7-1.57-1-1.73.35-3.25-1.94h-3.65l-4.93,3.23-3.3-.7-3.13,2.11h-2.8l-4.54-3.83-1.29,3.72-2.68,3-.67,2.68.67,1.9,2.42,2.32-.33,1.94-2.29.16-2.79-2-3.26,1.63H791.9l-1.83-1.4h-4.39l-5.48-1.79H769.5l-1.42-1.87H763.4v-7.65l.82-6.93-3.57-1.83-5.32,1.14L752.49,659l-2,8.19-2.9-3.66h-2.35l-1.75-1.15-8.09,1.92-3-3.9-1.63,7.9-6.53-.52H719l-1.89,1.9-.25,6.53-.52,4.27-1.59,2-2.61-.52-1.71,1.73.84,2.81,7.41,6,6.07,5.71,3.12,1.27,4.08,1,7.07,6.79,3.27,1.86,4.51,4.5,5.6,4.94-.26,4.57,6.6.74,6-.55,6.35-3.48-.73,7.22-.65,2.94-2.18,2.9,2.32,2.28-.76,2.48.71,3.52-1.71,2.09-1.44,5.8-1.29,3.23-.3,5.17v4.28l-.85,2.28-2.3,2.09-3.8.64-2.6,1.39-.47,3.14,1.13,2,.2,1.49-1.49,1.46-2.32,1-1.22,3.93-1.28,1.62.76,2V787l-1.63,2.88-.28,3.62-1.49,3,1.08,3-3.24,2.55-1.72,1.47-.45,4.59-1.8,2.76-1,3.28-.54,2.83-1.7,2.12,1.54,2.5,1.08,2.31-1.46,2.56.93,2.27.94,3,.4,2.92,1.84,2.24-1.1,2.29-2.4,2L738.38,843l-3.88,2.32-3.5,4-2.48-1.29-.64,8.75,2.91,1.69,3,.82-.42,4.23,1,3-.73,2.66-6.29-.47-2.31-.72-2.26-1.86-3.22.75L718,868.66l.58,3.51,1,2.78-1.12,2v2.8l.59,3.37-.52,2.61-2.45,1.16-1.75,1.7-1.52,2.69,1.17,3.07,1.53,1.42,2.18.45,5.57-.69,5.23.69h6.88l5.48-1.16,7.55-.28,8.16-1,7.59,1.55,6.7,2.66,2,.69,2.89-.91,3.41-1.55,2-.18,4.25,2.83,3.89,4.1,5.84,4.69,2.39.64,9.63,9.6,1.56.41,1.46-1.37.93-4.59,2.1-1,1.88.17,2.25-.53,1-1.25.81-1.7,2.87-4.54,7.5-7.49,8.58-4.51,2-2.56-.31-4.64.65-6.66-.65-7.3L845.7,849l1.73-3.53,1.78-1.68,4.08-1.53,2.07-1.37L856,839l-.67-3.8-1.19-4.64.37-4.17,5.75-8.21,5.35-5,3-5.51L873,804.9l3.11-.91,5.92.67,3.49-.47,2-1.38,13.43.48,12.6,4.08L924.73,812h10.9l3.1,1.92,3.54,1.07,2.6,1.23,2.93,5.21,3.75,4.72,5.79,2.28,4.06-.19,4.63,1.83,9.66.21,5.16.74,5.2-.87,2.49-1,2.71-.31-.62-3.56,1-2.84,2.25-1.3,1.56-.28,15.46,4.46,5.47,3.76h3.72l12.16-3.5,7.12,2.83,6.44,1.15,3.37,2.66h3l-3.68-8-.79-3.41.62-3L1054,812l.79-3.23.34-5.39,3.5-4.92.43-5-6.82-8.85-4.32-4.15-1.05-4-.36-11.09.37-5.82,1.73-2.82,3.29-4.08.56-6-2-6.88L1048,734l-7.12-6.58-5.19-1.85-4.32-4.43-2.84-4.83-3.92-3.52-1.2-1.39-.46-2.33,1.91-3.37,1.75-3.59-2-4.9-1.48-5.54.6-3.8,3.45-6.41-.63-5.16.37-6.67-1.32-4.47-4.94-7.74,2.64-2.37,3,1.5,3.9-.24,5.35-4.63,5.42-2.19,2.8-2.16,3.11.23,2.57-1.76,2.17,1.33,2.82,3,3.06,1.4,5.06-.33,4.09-2,6.08-5.46,3.46-1.39,1.7-2.77.22-6.82,1.67-3.28,10.62-4.24,8.83-2,3-2.17.89-4.45-.93-3.7-1.09-2.2-.23-2.29,3.36-2.85,3.26-2.76,1.08-2.11.56-4.81-1.83-4.67-.68-5.24-.95-1.66-4.46-3.88-.4-2.53-.28-6.74-1.91-3.72-3.65-2-3.65,2.13-1.86-.66-4-6.8-5.76-3.82-1.5-2.41-1.82-.83-.53-4.9-3.78-3.84-2.57-.31-10.69,6.46-2.81,3ZM459.06,402.86l3.49-1.69,2.71-2.71.59-1.2-.31-2.38.22-1.23.93-1.07,4.53-1.89,3.9-3.75,3.27-4.22,4.88-3.79,1.29-2.11.4-3.36.66-.46,1.82.88.53-2.41.87-.47,1.37.82H491l5.36-5.6,1.74.3,2.6-1.25,1.13.7,2.91-1,1.06,1.55v2.36l5.06,5.56.94,2.7,2.41,2.17,1.54.88,6.11.83,1.95-.63,2.68-2.66H530l1.4-1.15h1.26l1.12,1,2.28-.91.81-2.66h6.76l2.29-1.58,1.65-2.53.67-1.79v-2.55l1.77-1h3.21l.39-3.67,4.14-.61,3,.74,1.89-.22.94-1.13,3.17.32,1.06-3,3,2.11,1.8-.32,2.85-2.66h2.23l1.94,3.72,3.4,3.91,1.76,1.28,2.29-1.29,1.47-2.88,2.65-1.92,2.69-1.09.52-3.21,2.25-2.48-.31-1.74L594.43,349l.71-5.76,2.36-2.35.31-2.67-1.33-1.62v-6.44l1.1-2,1.51-1.12,2.68-.46,2.92.68,1.74-.3,1.05-2.61.68-3.05-.79-3.82-4.91-2.32-3.66-2.29.53-3.42-.85-1.29-4.41-3.67.32-1.29,2.18-2.7v-3.18L595,293.65l-3-.68-7.49,4.71-2.79,1.46-5.7.6-3.3,1.31-6.22-.91-5.53,3h-5l-5.22,2.69h-4.21l-9.63-1.73-4.52-4.4-2.67-.72-9.59.37-3.78-1.54L513,294.06l-7.48-5.22L500.1,284l-14.49-5.23-8.92-2.58-4.33-.41L468,277.13l-4.34.9-5.57-1.5-6.95-1.38-7.28-.67-7.93.17-9.74,1.85-3.94.43-2.69-.78-7-5.83-6.26-1.12-6.35-4-8-3.13-4.22-.88-6.56-1.06-2.89-1.38-2.89-3.61-2.56-4.77-5.68-6.1-3.49-2.42-3.33-1-5.3-.44L350.9,239l-6.51-9.42L339,222.36l-13.33-13.2-8.82-8.74-6.28-4.27-8.73-6.6-2.7-.23H298l-2,.17-1.86.86L291,193.09l-1.74,2-.62.72-.39.68-.12.71v1.11L288,204l-.43,3.07-.76,2.66-.75,1.68-2.15,1.87-2.38,1.52-2.67,1.49-2.78.91-1.8.92-2,1.9-3,3.13-4,4.77-4.94,4-1.23.79-2.36.63-3,1.1-1.8.85-1.13.53-.61.2-1,.13-4.65-.7-2.55-.39-1.39-.06h-1l-16.62,11.27-1.59,1.56-.35,3.44.08,2.31.75,4.19,7.55,22.73.34,1.22.22,1,.09.87-.1.79-.4.86-.46.7-4.44,6.7-6.08,6.42-1.95,2.37-1.4,2.34-.73,1.45-.31,1.82,2.13,42.17-.65,18.23-.41,3.07-.8,2.35-2.34,5.6-1.89,4.53-2.08,3.6L205,391.05l-7.06,6-7.71,5.84-10.4,10.71-6.15,5.24-5.12,2.28-9.07,4.58L154,427.87l9.2,4.16,2.88,2.74,6.49,13.31,4.85,13.48.49,5.8,1.33,1.58,4.58,1.22,5.79,1.87,4.83,4,4.11,5.55,7.8,17.34.92,3.32.72,5.18,4,4.95,7.22,7.8,2.65,3.73,4,8.53,8.07,8.14,6,5.31,5.39,4.39,4.46-9.66,4.9-9.59,4.25-3.22,2.66-1.32,3.3-.71,2.86-.34,8.22-8,2.42-2.17,2-.92,2.62-.66,3.25.09,6.65,1.85,2.49.26,11.39-1.4,3,.21,8.4,5.68,1.77,2.59,3.16,6.27,2.87,3.08,2.76,4.69,3.73,3.43,6.48,2.87,4.38,1.93,3.89.56,6.18-1.07h9.79l4.55,1.66,3.51.34,3.89-1.13,5.08-.88h13.59l-.3-2,.27-3,1.48-1.93,2.92-.42,1.87-.17,3.64,2.38,1.36,1,1.31.17.79-1.19-1.71-4.54-2-2.13L400,531.66l-2.73-1.73-.59-2.31-5.16-2.83v-1l5.32-3.93,4.46-4.31.19-1.38-.57-1.89,1.06-2.75,2.16-3.16.41-1.24-.43-1.14-1.15-.74-2.8-1.71-1.45-1,.47-1.1,1.36-.2,1.29.33,2.93,1,1.39.18,1.48-.66,1.22-.09.74.54-1,1.21,1.17,3,.34,1.91.86,1.86,1.42,1.33,1.48,1.23.32,2.52,2.66,4,3.13,3.59,1.18.63L423,522l6.86,4.67.82-.22.21-1,.58-2.62,1.66-2.64v-1l-2-2.7-.45-.77.47-1.41.39-3.26-.44-1.41-2.81-3.25-.3-.8.52-.19,2.06.17.91-.11.33-.49-.31-1.13.71-.62,4.32,2.44,2.14-.67,1-1.68,1-1.4,3.87-.22,1.49-.73,1.69-.91,1.41,1.54.85,1.18,1.81,1,1.63-.29,1.28-.4.72.76.27,1.55,2,.47.13,1.76.49.69,1,.38,1.15-.49.95-.25,1.07,1.22,2.9,5.08,1.12,2.72.8.79,1.33-.21,1-1.21,1.06-4.42,1.1-2.35-.42-.86-.63-.59v-.76l.79-.66v-2.16l-.73-1.62-.34-2.12-.67-.85V495l-1-2.44-2.8-2.92-1.58-4.19-2.94-5.28L459.83,476V473.9l2.27-.73-1-2.07-1.77-1.32-1.63.3-1.74.63-2.69.43-2.65.59-1.89.15-.66-.34v-.62l.58-1.09,1.23-3.26.95-5.78-.6-2h-1.87l-1.37-.61-3.75-2.69-3.43-3.54-3.12-2.44-2.3-.68-3.31.42-2.44-.47-1.52-.59-2.51.34h-2.15l-1.48-1.3-1.18-1.85-1.8-1.26-3-1.59-2-1.05-1.4-.59h-1.36l-1,.72-1.19,2-1.42,1.31-1.6.79-2-1.51-1.34-1h-1.54l-1.26,1.67-1,.54-2.39-.66-3,.44-2.95.69L386.73,444l-.91-1.41-1.23-1.17h-1.07l-1.33.94L380.35,444l-1,.33-1.78-.47-2,1.29-2.9,1.11-2.71-.33-2.44.31-2.49.58-1.74.2-1.07-.56-.13-1.08,1.12-1.22.75-1.69-2.51-.68-2-1.83-.8-2.51-2.33-1.83-1.1-1.83V432l.85-1.73.88-1.1v-1.11l1.06-1.44h.87l1.24,1.39,1.31.76,2.34-.12,2-.5,2,1.42-1.51-6.3v-1.07l.9-.38,3.71.53,1.22,1.38.59,1.73.69,1.38h6.31l1.86,1.73,2.21.4h1.63l2.24-.9,2-1,2.5-1,2.06-.14,1.68.38,1.59,2.51.43,1.49.79,2.69.94.85H401l2.39-.31H407l2.74-1.66,4.27,1.76,2.22-.4,2.46-1.73,1.39-1,2.23-.76H426l.81-.87,1.13-2.89-2.2-5-.85-3.6v-4.62l3.47-.9,3.06-1.42,2.52-1.88,1.44-1.83,1.17-1.34,1.85-.8,3.87-.23,9.8.41L456,404ZM229.36,280.55l-7.55-22.73-.75-4.19-.08-2.31.35-3.44,1.59-1.56,16.62-11.27h1l1.39.06,2.55.39,4.65.7,1-.13.61-.2,1.13-.53,1.8-.85,3-1.1,2.36-.63,1.23-.79,4.94-4,4-4.77,3-3.13,2-1.9,1.8-.92,2.78-.91,2.67-1.49,2.38-1.52,2.15-1.87.75-1.68.76-2.66L288,204l.21-5.73v-1.11l.12-.71.39-.68.62-.72,1.74-2,3.15-2.74,1.86-.86,2-.17h1.14l2.7.23.67-3.57v-2l-.91-1.78-4-4.15-1.12-5.39,1.18-3.78,3.13-4-.24-.84-3-4.1-4.19-5.77-2.11-5.55,1.52-3.85-1.2-3.76V135l1.06-6.63V121l-1-5.34-6.39-18.84-3.31-6.24-6.61-4.73L265.59,74.5l-5-5.61-4-6.57-6.46-6.84-4.22-6.11L243,44.29l-.56-2.13.92-3,.38-3.38-.36-1.86-2-4.48-.66-11L237.19,5.47l-1.43-2.3L224.18,8.36l-13,4.46L175.5,24.06l-11.36.66-6.82.89-1.9.8-3.16,1.3-.86.1-1-.21-.68-.49-.51-.8-2.62-5.49-1.17-1.19-1-.45h-1.18l-1.91.25-3.72.6L133,21l-6.32.81-9.92,2.76-4.46.75-1.81.14L109,25.33l-1.53-.76-3.85-3.3L95.86,16l-6-2.92H87.73l-2.79.62-3.63,1.25-4.82,1.67H71.17l-5.74-3.95-9.85-.44-10.7,3L31.49,19.73,24.4,26.88l-2.51,5.51-3.7,6.13L11.51,48.7l-.42,2.15.45,6.87.6,6.5.57,3.87,1.63-.31,1.32.78.58,1.16-.69,3.18v2.93l1.63,3.76.19,3.5v2.16l.6,1.1L18.88,88v1.29l-1.11,1.92-.42,1.64,1.27,1.36,1.67,1.34L22,97.32l1.08,4.06.39,1.82.26,1.2-.74.68-1.38.32-1.05.57-.26,1.28.33,1.55,1.09,4.09L21.54,114,21,115.68l-.56,3,.65,2.32,1.12,1.4L26,125.25l.79,1,.13,1.14-.53.95-.88.79-2.18,1.27-3.18,1.14-4.44,1.08-4,1.82-2.56,1.94-1.65,3L5.28,146l.32,2.3-.51,1.15-1.7,1.61-.84,1.57L3,158.54l.44,2.05.74,1.69,2.58,3.11L7.93,167l-.44,1.73.38.77L9,170.82l.72,2.52L9,175.73l.71,2.57,1.6,1.34,2.61.73,1.81,1,.78,2.32,1.31,2.38-.51,2.23-1.34,2.08-2,1.25-8.83,7.94L4.65,201l.91,2.8v3l-.95,1.45-.34.95.37,1.17L6,213.13l.48,2.77L7,221l.3,5.26v7.39l.43,2.66,1,2.44,1.52,2.36,2.64,2.31,2.5,1.25L18,246.55l1.76.59L21,248l.77,1.22,1.4,1.23,2.33.67,1.27,1.63L27.85,255v2.06l1,1.83,1.6.7,1.78.42,1.46,1.7.47,1.27-.43.91-.91,1.72v1.26l.86,1.28,2.14.82,2.23.85,1.75,1.72.69,1.1.27,2.26.69,1.56.62,1.73.08,1.72-.69,3.58.21,4.84-.3,5.93,1.7,2.23,1.75,2.81,1.33,5.37,1.09,2.74.75,3.89,1,1.31,2.63,2.62.71,1.66.16,1.61v3l.89,1.28.82,1.43.46,1.73-.26.79-1.19,1.61-.8,1.28-.22,1.46v1.14l-.56.51-1.4.31-.92.34-.39.65.23.92.89,1.05.43,1.23L49.25,341v3.27l.45,1.66L51.77,348l1.16,2,1,3.23.41,3.52.91,1.93.13,1.21-.66,1.25-1.68,2.21-.18,1.25.5,1.39.23.9-.18.48-.63.7-.92,1-2.8,3.12v.46l1.16,1.15.37.51v.57L50.3,376l.46.88,1.61,1.56.44,1.57-.33,1.31-1.2,2.08v1.72l1.22,3,.21,2.12-.41,8,3.8,4.55,2,2.71,1,4.13.38,5.27L53.35,419l-.75,4.33-.88,3.17L50.37,433v3l.38,4.64-.34,3.64-.23,6.27-.93,3.5-2.79,9.72-.35,8.12-1,2.53-2.77,7.87-.46,6-.52,7.7v4.74l.62,3.86,1.24,4.75,1.19,4.61-.22,5.36.38,2,3.44,5,2.23,2.3h2.17l15.34-18.4,2.51-8.33,3.61-3.62,1.71-.46,2-.13,2-.33,2.09-.74,2.24-1.13,1.17-1.1.81-1.4L91.24,482,93,479.59l2.54-2.93L97.82,474l1.37-2,5.92-9.63,4.67-6.53,2.11-2.44,2-1,1.8-.61,5.53-1.89,4.87-1.73,5-1.26,2.17-1.09,2.22-1.18,2-1.42,4.46-5.16,5.7-6.61,6.42-3.57,5.49-2.15,9.07-4.58,5.12-2.28,6.15-5.24,10.4-10.71,7.71-5.84,7.06-6,3.07-4.38,2.08-3.6,1.89-4.53,2.34-5.6.8-2.35.41-3.07.65-18.23-2.13-42.17.31-1.82.73-1.45,1.4-2.34,1.95-2.37,6.08-6.42,4.44-6.7.46-.7.4-.86.1-.79-.09-.87-.22-1-.34-1.22ZM120.64,133.21l-.86-1.09-.42-4.43,2.09,4.82,2.86,2.32,4.35,1.13,2.25,2.91,2.46,2.37,2.64-.35,3-2.28,3.23.39,3-1.88,1.05.36-1.77,3.86L143,145l.83.77-.69,1.67-1.45-.52-1.84.42-1.87,1.85L136,150.76l-3.75-2.51-4.11-1.79-3.24-1.36.34-2.85-2-2.61-.41-3-2.21-3.46Zm158.17,519.7-1.95-7.23-5.95-6.48-4-11.34-1.9-6-.71-3.18.72-2.4,4.21-4.83-3.36-5.29-9.16-8.62-5-2-4.93-2.35-3.28-4.47,1.43-5.05.3-4.1-.35-5.14-1.07-5.86-.88-6,.67-4.89,1.64-7.32-5.39-4.39-6-5.31-8.07-8.14-4-8.53-2.65-3.73-7.22-7.8-4-4.95-.72-5.18-.92-3.32-7.8-17.34-4.11-5.55-4.83-4-5.79-1.87-4.58-1.22-1.33-1.58-.49-5.8-4.85-13.48-6.49-13.31L163.23,432l-9.2-4.16-6.42,3.57-5.7,6.61-4.46,5.16-2,1.43-2.22,1.17-2.17,1.09-5,1.26-4.87,1.72-5.53,1.9-1.8.61-2,1-2.11,2.44-4.67,6.53L99.19,472l-1.37,2-2.31,2.67L93,479.59,91.24,482l-5.33,10.89-.81,1.4-1.17,1.11-2.24,1.12-2.09.73-2,.34-2,.13-1.71.47-3.61,3.61-2.51,8.33-15.34,18.4H50.26l-7.95,11.6-1.43,4.51-.45,3.4.85,3.8,4.31,9,.67,2.62-.87,3.16-3.59,8.83-3.2,8.26-.37,5,1.59,6.09L44,599.07,66.61,613l3.71,2.68,2.91,2.8,1.68,2.63,1.79,4,.8,3.16.71,8.42.35,5.09-1.23,5.8-3.16,7.24-1,4.29.71,3.51,2.43,1.94,1.61,4,.59,6.39,7.82,11,1.73,3.34.35,2.83-2.82,5.62-2.3,2.86-.24,2.81,1.58,2.78,2.51,2.45,1.23,3.44.43,11,1.4,5.89,5,10-9.74,12.49-6.08,6.67-1.9,2.64-.39,2.79L78.69,767l5.55,7.58,1.85,1.74L93,780l4.59,8.27,8,16,2.28,2.9,10.73,4.3,7.83,1.72,5.13,2,4.68,4.09L152,839.71l2.78,3.6,1.13,5.55,2.59,12.79,4.67,10.54,5.53,10.91,2,4.27,1.31,4.55.32,6-2.2,6.58-1.19,7.46.31,13.33,1,8.28,6.15,11,1.47,1.19,2.11-.57,7.53-5.28,6.08-1.89,10-2.26,4.58-.82,6.21,3.06,9.3,7.13,2.08.49,2.77-.59,11.92-7.41,11.18-9.37,8-5.34,9.71-1.2,9.38-.8,5.94.37-.52,2.89,2.9,3.72,3.84,2.44,9.05.5,6.18-.89,4.25-.9,4.42,2.24,3.28.77,2.83,3.57,2,2.44,2.66,1,6.16-.37-.76-5.34L329.82,930l.3-3.16-1.93-1.62,1.12-3.46-.52-1.91-3-.55-2.71-4-2.71-4.66-1.45-.52-2.22.36-.77.45-1.3.75-2.29-.48-2.72.4-2.68-.29-1.77,1-2.68,2.11-1.53.5-2.14-1.17-4.77-3.26-4.32-1-5.07.47-5.29,1.82-3.38.39,3.82-2.37,1.32-1.36-.46-3.16-1.23-2.13-1.8-1.64.69-5.09-.61-2.35v-2.69l-2.39-1.28-2.36-.31-1-1.58.28-2.2-1.29-2.6,2.29-2.51-1.32-2.51.27-2.47.6-1.37-.84-.67-2.51.12-3.92-1.36-3.37,1.05L259.68,876l-4,.72-1.76-.3-1.39-1.75,2-2,.73-1.85v-2.36l-2.27-2-.27-1.41,1.08-.49,2.93.94,2.09.68,1-1v-2l.29-1.49,1.09-.91,2-.61,1-1.3v-1.55l1.36-2,.3-2.43-1-1.57-1.06-.68.81-1.43-3.18-2.33-1.94-2.45-2.59-2.6-1.29-1.12-.29-1.25,1.66-1.77,2.19.53,1.86.91,1.82-.72,2.33-1.67,1.51-.7,1.72.24,2.41,2.8,2.29,1.63,2,2.33,1.34-2.58,1.47-2.14,2-1.23,2.66,1.25,1.79-2.08.57-2,1.95-.67,1.92,1.17,2.42.89,1.68.24,1.08,1,.79,1.24.71-.71,1.24-.76,2.57-.11,1.79.3,1.18,1.52.9.5,2-.8,1.68.66,1.5.23,1.13.49,1.68-.42,1.55-3,2.83-4.15,4.6,1.09,3,.43,2.29-.33,2.14-1.9,1.67-1.05,2.3-.23,1.9.43,2.27,1.94,2.26,3.08,1.39,2.78,1.64,1.32,3,.9,2.38-.3,1.22-.38.6,1,.79.93,1.27.31,1.24-.75,1.25-.19,1-.71.71-.86.95-.34,1.92,1.36-.15,1,.14.66,1-.25,1,.12.79.55.32,1.17-1.86,2.2,1,1.92.51,2.92,1,2.74.3,2-1,1.38-.35,1.6.95,1.13,4.07,2.43.53,1.86,1.05,2.19,1.83,1.68.66,3.57,1.05,1.65,1-2.06,5.61-5.61,5-6,6.45-3.77,5.12-6.56,3.19-1.28,5.69-1,1.49-1.72,1.36-4.13,3.5-4.52,5.1-10.2.8-4.19-1.74-3.66-5.46-5.74-3.81-9.73-1.85-3.42-1.35-3.52-.4-4.36L398.65,789l-3.74-4.67-4.36-2.85-8.33-3.25-5.91-5.14-4.94-8-2-4.75-2.15-3.52-1.84-1.67-3-1.79-6.07-2.67-8.27-2-14,.54-9.55-.43-7.35-1.6-4.48,1.06-4.82.68-3.28-1.4L299.8,743l-2.44-4.62.34-9.38L294,720.13l1.09-3.74,2.09-1.43,1.15-1.88-.38-4-1.71-5.47-.32-5.5-1.75-6.78-1.47-6.83.34-4.74-4.35-6-3.19-4.45L282,658.57Zm185.52,4.89,1.89-1.69,1.66-1.14-1-1.56L465,652.23l-2-.81-.69-1.1.78-.9,1.95-1,4.16-.38,1.76-.49,1.83-.28.72-.72-1.62-.29-2.89-.3-1.83-.5L464.77,644l.16-1.67-.83-1.08-.19-1,1.87-2.06.39-2,2.19-2.34.57-2.41-1.89-1-3.05.28-2.74-1.15-1.63-1.19-2,.24-4.46-3L451.3,625l-3.08.25-2.85.37-2.67-.27-2.2-.75-2.78-.65-2,.43-.63-1.19,1.06-1.45,3-.4,2.11-1.32,3.7.42,2.33-.58,1.54-1.58.85-2.88.91-2.64.73-1.83v-1.75l-1.15-1.69-1.61-1-3-.9-2.84-.26.18-1,.95-.82h2l3,.21,1.62.81h1.36l3.63,2,.51,2.85,2.39,2.83,2.64,2h3.82l3.24,1.27h2.75l1.67,1.34,1.37-.72,1.67.23,1.13.8.72.32.76-.14.51-.45.14-.7-.25-.92-1.71-1.85-1.34-1-1.79-1.14-2.07-.5v-1.23l1.22-2,.35-2.69-1.57-1-1.47-.49-1.47.92-.94.18-1.38-.38-1.91-1.95-1.2-.49-2.53.59-1.44-.74-5-1.08-3.83-.56-2.78-1-1.11-.64-1.55.2-.42,1.88-1.27,1.41-.69.66-1.21.24-1.56-.2-1.93-1.68v-1.24l.67-1.49-1.49-1.46-2.85,1.77h-1.33l-.25-2.09-1.4-2.08,3.49-1.81v-.9L433,590.5l2-2.84-1.47-1.91-2.66-1.43-1-1.36.88-1.56-.27-1.07h-3.07l-3.93-.67-4.08-.95-3.49-.59-1,.55-.21,1.83-1.05,1.4-1.91.8-2.34-.24-1.57-1-.8-1-.45-1.9h-3.13l-2.6-.36L398.92,577l-1.4-2.72-2.4-3.76-1.27-3.38,4.24,2.36h3.65l-5.35-3.38-3.83-6,4,1.58,2.8-1,1.79-2.16,2.38-.39.24-2.16L403.1,553l-3.37-.89H397l-2.45-2.29-.77-2.25,0-2.81H380.14l-5.08.88-3.88,1.13-3.52-.34-4.54-1.66h-9.8l-6.18,1.07-3.89-.55-4.38-1.94-6.48-2.87L328.66,537l-2.76-4.7L323,529.23,319.87,523l-1.77-2.59-8.4-5.68-3-.21-11.39,1.4-2.49-.26-6.65-1.84-3.25-.1-2.62.67-2,.92-2.42,2.16-8.22,8-2.86.34-3.3.72-2.66,1.31L254.64,531l-4.9,9.6-4.45,9.65-1.65,7.32-.67,4.9.88,6,1.08,5.86.34,5.14-.3,4.1-1.43,5.05,3.28,4.47,4.93,2.35,5,2,9.16,8.62,3.36,5.29L265,616.29l-.72,2.4.72,3.18,1.89,6,4,11.34,5.94,6.48,1.95,7.23,3.16,5.66,3.5,10.76,3.2,4.45,4.34,6-.34,4.74,1.47,6.83,1.75,6.78.32,5.5,1.71,5.48.39,4L297.15,715l-2.09,1.42L294,720.13,297.7,729l-.34,9.38,2.45,4.62,4.74,4.59,3.28,1.4,4.82-.68,4.48-1.06,7.35,1.6,9.55.43,14-.54,8.26,2,6.07,2.67,3,1.79,1.84,1.66,2.15,3.53,2,4.75,4.95,8,5.9,5.14,8.33,3.25,4.36,2.86,3.74,4.66,1.3,2.47.39,4.35,1.35,3.53,1.85,3.43,5.36-2.08,7-.85,5.7,1.27,13.73-.33,9,.4,4.43,1.11,4.12-.48,4.26-2.32,3.54,2.37,2.17,2.69,1.84,5.68,2,11.51,2.74,6.21.48,3.77,1.49,4.8,3.8,6.45,5.72,6.2,7.87,7.42,6.13,4.38,1.41.94,1.35-.42.64-1.77.34-2.15.88-2.41,2.55-2.75,3.94-1,6,.92,4,2.64,6.13.17,4.46-.91,5.51-.24,2.44-1.95,1.49-2.58,3.1-1.83,3-.61,3.92-1,3-.53L552,844l5-2.51,3.21-2.72,3-2.6,1.3-1.41,2.36-4.6L571.55,817l-5.4-1.39-3.31-.72-3.21-.51-2.6-.74-.64-1.32,1-1.52,2.15-2.46.24-2.1-1-.92-2.48-1.06-.77-1.63.91-3.61-.25-2.07-.56-1.75-2.55-1.9-2.18-1.36-.42-1-.84-.83-2.54-.88-2.71-.84-2-1.44-1.5-1.58-2.5-1.26-3.88.31-2.85-.2-1.82-.64-1.66,1-1.77.38-.27-1.32-.89-1h-1.39l-1.82.83-1.34-1-.27-1.52.21-1.95-.55-1.21-3.34-4.49.16-2-1.31-1-2.24-.58L511,770l-2,3.2-1.2.66-1-.62-2.42-4.93-2.18-1.6-2.3-.9-2.58-2.92-2.57-1.52L490.4,761,488,759.67l1.86-.29,4.6-1.48,3.33.22,2.66-.53,1.8.31,1.94,1.3,2.68-2.18,1.47-1.59-.32-1.22-1.35-.8-6-3.59-.94-1.19.25-1,.65-.52,5.08-2.85,1.73-1.12-1.59-.9-.84-1.16v-2.21l-6.77-6.38-2.56-1.24-.89-.87.21-1.34,1.57-1.63.93-1.55,1-1.42v-4.7l-1.78-1.71,1.11-2.09-.26-2.81-2.84-.87-2.11-2,.83-2.84-1.4-1.5-.51-1.52-3.23-3.13-5.81.24-1.64-1.65-.34-2.5-1.43-1.22-2.24.18-2.68,1.13-2.35.55-2-1.73-4.54.23L463,695.24l-1.73-3.06-2.49-.38-1.87-1.93-1.13-1.59-1.84-2.1-.38-2.25,4.61-.87,3.26,1.33,2.38.57,11.78-1.83,2.21,2.37,2.2-.44.58-3.33,3.26,2.79,1.89-4.32-2.84-2.43.76-1.37h2.23v-1.11l-2-1.12,1.67-3.18,2.76,1.45h3.47l1.43-2.06L491,668l.89-1.73,2.69.78,1-1.73-1.05-1.95h-2.84l.3-3.24-.16-2.74-.58-2.14-.6-.8-1-.94-1.93.56-1.2,4.5-3,.34-2,1.4-.87,1.65-.19,1.2-1.94,1.11-1.38-.86-4,1.23-2.34-.39-.23-1.65L469,661.26l-3.2.28-.75-.85-.7-2.89Zm-86.87-92.3.21-1.76.19-1.54.77-1.57,2-.31.81.73,1.53.43,1.65,1.24,1,.35.37-1.8,2.67.16,1.51.11,1.24.67L393,563l1.19.92.46.75-.16,1.16-.62.41h-.52l-.43-.36-.54.33-.75.62-.7.27-.54-.33-.51-.78-2-.72-1.78-.33-1.8-.08-1.08.38-1.56,1.08-.89.8-1.7.92L378,568l-.54-1v-1.5ZM407,636.17l-1.25-1.7,1.17.69,1.24-.46,1.24-1.7.46-1.14.9-.37,1-.12.23-1,.17-.43.64-.24,1.47.48,1,.49.87,0,1.13-.57,1.2-.6.92-.2,1.06,1.39,1.48,2.6-2.23,2-2.13-.1-.64.42h-1.06l-.49.6-.74.57h-.91l-.72-.24-.4-.14h-1.26l-.82.68-.91.19-1.2-.19-1.45-.9ZM402,682.72l-1.21-.19-.82-.44-.05-1.4.87-.82h2l1.12,0,1.74-.1,2,.54,1.16-.2-.44-.87.88-1.79,1-1.2.63.82,2.38,2.07.35-.8.23-1.07.34-1.45.46.15,1.49.8,1.88-.15,1.68.34,2.64,1.3.57,1.11v1.45h-1.34l-1.11-.19-1.95-.42-1.53.11-2.1.16-.57,1.18L413,684.5l-1,1.15-1.07.11-1.22.38-.38-.57-.43-1.34-.49-1.45-1.07.23-.87,0-1.4.24-3.05-.58Zm69,75.55-.22-2v-2.57l1.19.09,1.33.11,1.07.08,1.08,0,1.21.43v.91l-.6.6-.3,1.28-.82.31-2,.78Zm-34.31-308.8,2.69-10.67-2.72.23-1.82-.51-2.9-2.51-.52-2.74-2.71-1.68L426,429.8h-3.63l-2.23.76-1.39,1-2.46,1.73-2.22.4-4.27-1.76L407,433.56h-3.61l-2.39.31h-1.52l-.94-.85-.79-2.69-.43-1.49-1.59-2.51-1.68-.38-2.06.14-2.5,1-2,1-2.24.9h-1.63l-2.21-.4-1.86-1.73h-6.31l-.69-1.38-.59-1.73-1.22-1.38-3.71-.53-.9.38v1.07l1.51,6.3-2-1.42-2,.5-2.34.12-1.31-.76-1.24-1.39H358l-1.06,1.44v1.11l-.88,1.1-.85,1.73v1.76l1.1,1.83,2.33,1.83.8,2.51,2,1.83,2.51.68-.75,1.69-1.12,1.22.13,1.08,1.07.56,1.74-.2,2.49-.58,2.44-.31,2.71.33,2.9-1.11,2-1.29,1.78.47,1-.33,1.84-1.64,1.33-.94h1.07l1.23,1.17.91,1.41,2.84,1.79,2.95-.69,3-.44,2.39.66,1-.54,1.26-1.67h1.54l1.34,1,2,1.51,1.6-.79,1.42-1.31,1.19-2,1-.72h1.36l1.4.59,2,1.05,3,1.59,1.8,1.26,1.18,1.85,1.48,1.3h2.15l2.51-.34,1.52.59,2.44.47,3.31-.42ZM808.28,641.3l2.5-2.1,3,.7,7.7,3.8,3.4-2.2,4.8.6,2.5,4.8,5,1.7,3.8,2.9,3.5-1.3h4.7l6-2.3,5,1.6,2.3,2.6,8.1.8-7.2-3.1-4.1-4.1,4.1-2,2.1-1.8,4.9-3.9-1-4.9.7-4.7-3-1.5-.3-1.5-2.9-.3-4.6-4.5-.5-3.3-5.8-8-.2-2.6-11.2-.2-2.9,2.6-3.9,2-3.6,4-4.2-.4-4.1.8-2.6-3.3-2.1-1.5-.5-2.5-1.4.2-1.3-2,.5-3.1-1-2.9-9.4-7.2-1.1-2.7-3.4-4.2,3.8-4.7-.8-2.3,1.3-3.8,7.2-6.4.7-3.3,2.5-1.5,5-.3.5-.9-7.7-6.4-.2-3.3-.9-4-3.5-3-.8-4-1.5-2.2.3-2.7,1.8-1.3,1.9.2,4.1-2.4,2.8-2.7h-3.8l-2.1.9-2.7-2-6-.4-4-1.2-1.7-1.2.3-2.6-2.7-2.1-.6-5.1-1.9-2.1v-4l-9.7-1.2-4.8-2.8-4.7.7-1.1,4.1h-5.2l-3.2-2.3-5.8-3.2-4.7-.5-6.3,4.3-8.4,3.8-1.6.2-2.3-.5-2-1.5-4.9-2.3-.9,2.2-15.7,23.3,26.7,18.7-1.1,3.3.9,1.8v1.5l.4.9v1.2l3.9.9-1.9,5.6-5.2,8.5-2.3,1.5,8,9,2.1,4.1,6.2,1.4,4.7.5h7.9l5.1,3.1,2.5.5,4,6.6,7.2,1.4,1.9,2.9-.8,2.7,4.5,7.1,5.9,1.8,3.1,2.1,4.2,6.7,2.8.1,4.9,6.8Zm-73.4,61.4-2.3-2.2-4.1-1-3.2-1.3-6-5.7-7.5-6-.8-2.8,1.7-1.7,2.6.5,1.6-2.1.5-4.3.3-6.5,1.9-1.9h5.2l6.6.5,1.6-7.9,3,3.9,8.2-1.9,1.7,1.2h2.4l2.9,3.6,1.9-8.2,2.9-5.5,5.3-1.1,3.6,1.8-.8,7v7.6h4.7l1.4,1.9h10.7l5.5,1.8h4.4l1.8,1.4H796l3.3-1.6,2.8,2,2.3-.2.3-1.9-2.4-2.3-.7-1.9.7-2.7,2.8-3.3,1.2-3.5,4.5,3.9h2.8l3.2-2.2,3.3.8,4.9-3.3h3.7l3.2,2,1.8-.4,1.5,1,2.3-.7.4,3,1.6,1.7,3.9-1,1.3-1.7,2.4-2,1.8,1,1.2,1.6,1.5.3,1.4-2.2,2.6.5,1.1,1.8,1.1-.4.4-2.2-.5-2.8-1.2-2.9,2.2-1.3,4.9.7,7-.7-8.1-.8-2.3-2.6-5-1.6-6,2.3h-4.7l-3.5,1.3-3.8-2.9-5-1.7-2.5-4.8-4.8-.6-3.4,2.2-7.7-3.8-3-.7-2.5,2.1-2.1-4.8-4.9-6.8-2.8-.1-4.2-6.7-3.1-2.1-5.9-1.8-4.5-7.1.8-2.7-1.9-2.9-7.2-1.4-4-6.6-2.5-.5-5.1-3.1H753l-4.7-.5-6.2-1.4-2.1-4.1-8-9-1.4,4.2-1.3-1.2-4.5,4.5-1.1-.5-1.9,4-5,3.1-5.2,4.5-2.5-1.9-4.2-.4-4.9,3.4-4.2,4.8,5.2,8.2-.3,8-3.9,5.3-.7,3.7-3.9,4.3-3.9-2-6.7,4.2,7.6,9.8-4.3,6.1-.4,7.3,3.1,2.5,2.6,3,2.5,4.3-2.7,4.5.9,2.4.5,3.7L689,691.7l-3.7,3.5,1.7,5-.3,2.6,2.6,1.7h3.4l1.4,1.6.2,3.9,5.6,5.5,23.5,5.1,1.9-1.4v-2.7l-2.2-3.7,10.2-7.2Zm-34.2-82.3.3-8-5.2-8.2,4.2-4.8,4.9-3.4,4.2.4,2.5,1.9,5.2-4.5,5-3.1,1.9-4,1.1.5,4.5-4.5,1.3,1.2,1.4-4.2,2.3-1.5,5.2-8.5,1.9-5.6-3.9-.9V562l-.4-.9v-1.5l-.9-1.8,1.1-3.3-26.7-18.7,15.7-23.3.9-2.2,4.9,2.3-5.9-5.3-4.6-.4,3-3.7-23.2-3.8-6.1.5-34.6-5.6-1.7,8.1-5.2,13L624.88,568l-.7,3,.8,3.4,19.6,55,.7,3.1.5,4.7.3,8.3,6.8,2.8,11.4,8.5,7.6,5.5,1.1,5.1h2.9l.9,3h2.8l4.1,1.2v2.3l2.6,1.9h4.6l-.9-2.4,2.7-4.5-2.5-4.3-2.6-3-3.1-2.5.4-7.3,4.3-6.1-7.6-9.8,6.7-4.2,3.9,2,3.9-4.3.7-3.7ZM683.78,407l-3.6,2.9-1.4,1.1-.7,1.5-.5,1.7-.3,8.6-.3,2.1-.5,1.6-15.8,67.8,34.6,5.6,6.1-.5,23.2,3.8-3,3.7,4.6.4,5.9,5.3,1.7-5.1.2-4.6,1.2-12.1,3.1-21,6.7-37,1.6-8,.2-4.7-1.1-2.7.7-14.7,1.1-2.1-2.4-3.1-4.5-.5-7.9-8.5-.8-.9-7.4-.6-3.3.9-6.3-1.6-2.9-6.7-3.8-1.7-2.7.6-5.4-2.5-.3,1-.9,2.1-1.9,2.3-2.9,2.3-2.4,2.5-1.3,2.5-.3,2.5-1.1,7.3-1,3.7-.8,1.6-1.6,1.6Zm24.4-29.1,3.8,1.7,2.9,6.7,6.3,1.6,3.3-.9,7.4.6.8.9,3.8-2.4,7.2-1.8,4.2-6.9,11.6-2,.9-2.5-2.5-.8-1.2-4.2,2.6-4.4,1.8.1,2.4-2-1.7-2-4.9-1.5-2-4.3,9.3-17.8.9-6.2-1.2-2.9,2.4-4.3-.3-3.2h1.9l.2,1.1,3.8,2.4,2.9-3.8,9.5,2.1,1-2.8-3-.2-4.1-4.1-1-1.7-1.5,1-3.6-.1-4.2-2.2-3.8-.4-3-3.4-2.5,1.1-7.1-2.2-7.9-2.1-6.2-2.4-6.8-6.6-1.6-1.8-.5-1-.7.8-1.2,2-.2,2,1.2,4-.3,9.3,1.1,8.1v4.9l-1.3,4.7-3.9,8.9-1,4.5-4.2,7.9-1.4,3.1-.8,4-.9,2.2-2.3,2-2.8,2.1-3.7,1.9-1.8,1-1.4,1.3-1,1.7-.6,2.3-1.2,5,5.4,2.5Zm39.3,22.7-1.1,2.1-.7,14.7,1.1,2.7-.2,4.7-1.6,8-6.7,37-3.1,21L734,502.9l-.2,4.6-1.7,5.1,2,1.5,2.3.5,1.6-.2,8.4-3.8,6.3-4.3,4.7.5,5.8,3.2,3.2,2.3h5.2l1.1-4.1,4.7-.7,4.8,2.8,9.7,1.2,5.2-1.3,1.8-1,4,.8,3.9-1,2.3-6.7-1.1-4.4.3-4.9,1.1-3.3,2.9-1.4,2.7-.2,2.3-1.9,3.2,1.1h5l-2.1-2.4-.6-3-2.6-2.5-.3-2.1,8.2-7.7-6-3.8-2.2-2.7-2.7-4.3,2.2-5.8,6.3-3.8-.5-.8-4.6-2.1-.6-2.2,1.9-3-1.6-2.4-.7-3.4-1.8-2.2V431l-3.4-.9-4.6,1.4-3-.4,1.1-5.1-.6-2.8,3.7-5,4.8.2.8-7,2.9-4.9-4.4-3-1.4-2.5-9.4.4-4.3-1.8h-8.3l-5,3.2-3.6-.9-10.7,4.5-4.7-2-9.5,1.4Zm67.6,2.9,4.4,3,2.7-3.9-.5-13.5-3.1-1.8,2.8-3.7-.7-2.4-2.1-2.4,2.7-2.9-1.4-5,2.3-3.7-1.9-2.9-3.7-1.6,2.9-5.5,2.4-2.6-.4-7.1-3.7-3.8-5.2-9.9-2.5.7-3.8-5.3-3.8-3-5.8-1.9-2.2-2.1-1.5-2.5-3.8,1.1-3.9-2.4-1,2.8-9.5-2.1-2.9,3.8-3.8-2.4-.2-1.1H766l.3,3.2-2.4,4.3,1.2,2.9-.9,6.2-9.3,17.8,2,4.3,4.9,1.5,1.7,2-2.4,2-1.8-.1-2.6,4.4,1.2,4.2,2.5.8-.9,2.5-11.6,2-4.2,6.9-7.2,1.8-3.8,2.4,7.9,8.5,4.5.5,2.4,3.1,10.7,5.2,9.5-1.4,4.7,2,10.7-4.5,3.6.9,5-3.2H800l4.3,1.8,9.4-.4ZM694.28,710l-.2-3.9-1.4-1.6h-3.4l-2.6-1.7.3-2.6-1.7-5,3.7-3.5,2.4-12.2-.5-3.7h-4.6l-2.6-1.9v-2.3l-4.1-1.2h-2.8l-.9-3H673l-1.1-5.1-7.6-5.5-11.4-8.5-6.8-2.8-19.3,140.6-9.1,28.1-4.8,18-1.5,4.2,2.3,2.1h2.1l7.1,5.5,2,7.8.4,4.1,2.9,2.9,10.6,6.7H643l2.7,3.4,11.8,7.6,5.7,1.7,5.5-.7,3,2,2.5-.2,4.4,3.7,2.5,3.8,4.6,1.9,2.2,2,4.2-1,5.2,2.8,5.2-2.1h5.3l5.6,1.2,1.5-2.7,1.8-1.7,2.4-1.1.5-2.7-.6-3.3v-2.8l1.2-2-1.1-2.8-.5-3.5,1.6-1.8,3.2-.8,2.3,1.9,2.3.7,6.3.5.7-2.7-1-2.9.4-4.3-3-.8-2.9-1.7.6-8.7,2.5,1.2,3.5-4,3.9-2.3,1.5-1.9,2.4-2,1.1-2.3-1.9-2.2-.4-2.9-.9-3-.9-2.3,1.4-2.5-1.1-2.4-1.5-2.5,1.7-2.1.5-2.8,1-3.3,1.8-2.8.5-4.6,4.9-4-1-3,1.5-3,.2-3.6,1.7-2.9V785l-.8-2,1.3-1.6,1.2-4,2.3-1L757,775l-.2-1.5-1.1-2.1.5-3.1,2.6-1.4,3.8-.6,2.3-2.1.8-2.3v-4.3l.3-5.2,1.3-3.2,1.5-5.8,1.7-2.1-.7-3.6.7-2.4-2.3-2.3,2.2-2.9.7-3,.7-7.2-6.4,3.5-6,.5-6.6-.7.2-4.6-5.6-4.9-4.5-4.6-3.3-1.8-4.7-4.6-1.6,2.9-10.2,7.2,2.2,3.7v2.7l-1.9,1.4-23.5-5.1Zm-84.6-195.5-6.3-3.6-1.7-4.6-4.4-3.6-1.2-4.8-2.1-2.5-3.6-2.8-5.8-3.2-6.4-4.4-7.4-7.7-4.3-4.7-2.2-4.7-2.9-3.1-3.8,3.2-15.7,69.8-2,4.6,5.1-1.8,1.4.3,4.8-1.1-1.9,21.6-12.7.3-5.1-2.1-6.6-.2-2.2,32.9-18.2-4.3-2.7,2.9-1.8,7.3-15-2.6-7.8-.3-4,4h-6.5l-4.5,1.1h-7.7l5,1.1,1.4.7,2.6-.6,1.2.5,1.9,2,1.4.4.9-.2,1.5-.9,1.5.5,1.5.9,6.9,4.9,2.9,7.5,12.8.5,6.6-.1,18.6-.3,14.5-.7-1.9-4.9,100.3-3.4L622,574.4l-.6-3.4.5-3L649,518.7l-10.3,2.8-4.3.6-7.3-.3-5.7-1.3-5.4-1.4Zm-83.5.4-7.6,3.4-3.2.5-11.2,4.9-3.7-.2-5.2,1.3-6.9.7-2.9-.4-6.8,10.2-2.8-1.3-2.4,1.7,1.8,1.4-2.8,1.7-7.4,5.8-8.4,1.5-4,5.2-.2,1.6,1.6,1,2-.4,3.4-4.6,3.8-.5,1.8,1.7,1.7,2.9,4.9,3-.1,2.9-8.2,7.2-.8,5.2,2.7,2.9-5.8,6.7,3.4,2.7,2,5.6,1.2,6.2h-4.4l-3.7,4-3.5,1h7.7l4.5-1.1h6.5l4-4,7.8.3,15,2.6,1.8-7.3,2.7-2.9,18.2,4.3,2.2-32.9,6.6.2,5.1,2.1,12.7-.3,1.9-21.6-4.8,1.1-1.4-.3-5.1,1.8,2-4.6,15.7-69.8-1.9-4.9-3.5.5-.1,1.4-2.6-.3-3.5,1.1-1.8,6.6-2.3-1.6-1.3,4.2-1.2.9-.7-3.1-1.4-2-3.5-1.8-1,3.1,2.5.9-1.3.7.2,4-3.4-1.2-5.4-.5-5.7,3.2-3.8.5,1.5,1.9-3.2,3.7v2.9l-4.9-3.6,2.7,6.6,2.3,3.2-1.4,4.5,1.3,2-.6,5,12.2-.2,2.6-4.8,2.3,1.5,2.4,18.5Zm-95.4,11.3-.8.2-6.8-4.7-1.9-.3-1.2-.6-3.1-3.6-2.7-3.9-.3-2.6-1.5-1.2-1.4-1.3-.9-1.9-.3-1.9-1.2-3,1-1.2-.8-.6-1.2.1-1.5.7-1.4-.2-2.9-1-1.3-.4-1.3.3-.5,1.1,1.4,1,4,2.4.4,1.2-.4,1.2-2.2,3.2-1,2.7.6,1.9-.2,1.4-4.5,4.3-5.3,4v1l5.1,2.8.6,2.3,2.8,1.7,3.3,1.3,2.1,2.1,1.7,4.6-.8,1.2-1.3-.2-1.4-.9-3.6-2.4-1.9.1-2.9.5-1.5,1.9-.3,3,.3,1.9.1,2.8.7,2.3,2.5,2.3h2.7l3.4.9.7,3-.2,2.2-2.4.4-1.8,2.2-2.8.9-4-1.6,3.8,6.1,5.4,3.4h-3.7l-4.2-2.4,1.2,3.4,2.4,3.7,1.4,2.8,2,1.1,2.6.4h3.1l.4,1.9.8,1,1.6,1,2.4.3,1.9-.8,1-1.4.2-1.9,1.1-.5,3.5.6,4.1.9,3.9.7h3.1l.2,1.1-.8,1.5,1,1.4,2.7,1.4,1.4,1.9-2,2.9,1.7,1.1v.9l-3.5,1.8,1.4,2.1.3,2.1h1.3l2.9-1.8,1.5,1.5-.7,1.5v1.2l1.9,1.7,1.6.2,1.2-.2,1.9-2.1.5-1.9,1.5-.2,1.1.6,2.8,1,3.9.6,3.5-1,3.7-4h4.4l-1.2-6.2-2-5.6-3.4-2.7,5.8-6.7-2.7-2.9.8-5.2,8.2-7.2.1-2.9-4.9-3-1.7-2.9-1.8-1.7-3.8.5-3.4,4.6-2,.4-1.6-1,.2-1.6,4-5.2,8.4-1.5,7.4-5.8,2.8-1.7-1.8-1.4,2.4-1.7,2.8,1.3,6.8-10.2,2.9.4,6.9-.7,5.2-1.3,3.7.2,11.2-4.9,3.2-.5,7.6-3.4,6.9,6-2.4-18.5-2.3-1.5-2.6,4.8-12.2.2.6-5-1.3-2,1.4-4.5-2.3-3.2-2.7-6.6,4.9,3.6v-2.9l3.2-3.7-1.5-1.9,3.8-.5,5.7-3.2,5.4.5,3.4,1.2-.2-4,1.3-.7-2.5-.9,1-3.1,3.5,1.8,1.4,2,.7,3.1,1.2-.9,1.3-4.2,2.3,1.6,1.8-6.6,3.5-1.1,2.6.3.1-1.4,3.5-.5,1.9,4.9,3.8-3.2-5.3-4.6H550l-3.6-3.5-5.8-1.1-2.5-3.6-6.4-.4-10.3-5.3-1.9,3.2h-2l-9.8-6.2-3.7,1-3.9-1.3-.5,11.4-3.5,7.8-9.2-1.2L475,468.3l-9.5-1-2,1.7-4,.3,1.8,1.4,1,2-2.3.8v2.1l1.7,4.2,2.9,5.2,1.6,4.2,2.8,3,1,2.4v5l.7.8.3,2.2.7,1.6v2.1l-.7.7v.8l.6.6.4.8-1.1,2.4-1.1,4.4-1,1.2-1.3.2-.8-.8-1.1-2.7-2.9-5.1-1.1-1.2-1,.2-1.1.5-1-.3-.4-.7-.2-1.8-2-.5-.3-1.5-.7-.8-1.3.4-1.6.3-1.8-1-.9-1.2-1.4-1.6-1.7,1-1.5.7-3.9.2-1,1.4-1,1.7-2.1.7-4.3-2.5-.8.7.4,1.1-.4.5-.9.1-2.1-.2-.5.2.3.8,2.8,3.3.5,1.4-.4,3.2-.5,1.4.5.8,2,2.7v1l-1.7,2.7Zm192.5,110.9-10.8-.6-.1,6.1-5.8,1-11.5-.2-2.6.6h-11.8l-2.4,1.6-1.6,7.3-3.4,2.5.6,3v9.7l-2.1,12.5-11.6,57.3-.2,3.2-3.1-5.1-2.2,2.2-5.9,1.7-3-1.3-1.3,1.7.5,3.3-.4,13.6,2.7,4.3-2.8,3-4.8.6,3.8,5.7-4.4.9,1.2,1.8-3.7,2.7,6.8,9.1-.6,1.8,2,1.4,2.7.9,2.5.8.8.9.5,1,2.1,1.4,2.6,1.9.6,1.7.2,2.1-.9,3.6.8,1.6,2.5,1.1,1,.9-.3,2.1-2.1,2.5-1.1,1.5.7,1.3,2.6.8,3.2.5,3.3.7,5.4,1.4,2.7-3.7,4.8-1.5,10.9-5.1,2.7-.6,6.1,5,15.8,2.6,8.9-27.8,19.3-140.6v-.7l-3.8-1.2.2-2.6Zm-131.1,29.1-.9,1.7,2.2,2.4-1.5,2.1h-3.4l-2.8-1.5-1.7,3.2,2,1.1v1.2h-2.2l-.8,1.3,2.8,2.5-1.8,4.3-3.3-2.8-.6,3.3-2.2.5-2.2-2.4L464,684.9l-2.4-.5-3.3-1.4-4.6.9.4,2.3,1.9,2.1,1.1,1.6,1.9,1.9,2.5.4,1.7,3,2.3,1.4,4.6-.3,2,1.8,2.3-.6,2.7-1.1,2.3-.2,1.4,1.2.3,2.5,1.7,1.7,5.8-.3,3.2,3.2.5,1.5,1.4,1.5-.8,2.9,2.1,1.9,2.9.9.2,2.8-1.1,2.1,1.8,1.7v4.7l-1,1.4-1,1.6-1.5,1.6-.2,1.4.9.8,2.5,1.3,6.8,6.4v2.2l.8,1.2,1.6.9-1.7,1.1-5.1,2.8-.6.6-.3.9,1,1.2,6,3.6,1.3.8.3,1.2-1.4,1.6-2.7,2.2-2-1.3-1.8-.3-2.6.5-3.4-.2-4.6,1.5-1.8.3,2.4,1.3,4.2.4,2.6,1.5,2.6,3,2.3.9,2.2,1.6,2.4,4.9,1,.6,1.2-.6,2.1-3.2,2.4-.5,2.2.6,1.4.9-.2,2.1,3.3,4.5.6,1.2-.2,1.9.2,1.5,1.4,1.1,1.8-.8h1.4l.9,1,.3,1.3,1.7-.3,1.7-1,1.8.6,2.9.2,3.9-.3,2.5,1.3,1.5,1.6.6-1.8-6.8-9.1,3.7-2.7-1.2-1.8,4.4-.9-3.8-5.7,4.8-.6,2.8-3-2.7-4.3.4-13.6-.5-3.3,1.3-1.7,3,1.3,5.9-1.7,2.2-2.2,3.1,5.1.2-3.2,11.6-57.3,2.1-12.5v-9.7l-.6-3,3.4-2.5,1.6-7.3,2.4-1.6h11.8l2.6-.6,11.5.2,5.8-1,.1-6.1,10.8.6,16.2,3.9-.2,2.6,3.8,1.2-.3-7.6-.4-4.7-.8-3.1-7.5-21.1-100.3,3.4,1.9,4.9-14.5.7-18.6.3-6.6.1-12.8-.5-2.9-7.5-6.9-4.9-.3,2.7-1.2,2v1.2l2,.5,1.8,1.1,1.4,1,1.7,1.9.2.9-.1.7-.5.5-.8.1-.7-.3-1.1-.8-1.7-.2-1.4.7-1.6-1.4h-2.8l-3.3-1.2h-3.8l-2.6-2.1-2.4-2.8-.5-2.9-3.7-2h-1.3l-1.6-.8-3.1-.2h-2l-1,.8-.1,1,2.8.3,3,.9,1.7.9,1.1,1.7v1.8l-.7,1.8-.9,2.7-.9,2.9-1.5,1.5-2.4.6-3.7-.4-2.1,1.3-3,.4-1,1.5.6,1.2,2-.5,2.8.7,2.2.7,2.6.3,2.9-.4,3.1-.2,1.9.6,4.5,3,1.9-.2,1.7,1.1,2.7,1.2,3.1-.3,1.8,1-.5,2.4-2.2,2.3-.4,2.1-1.9,2,.2,1,.8,1.1-.1,1.7,2.4,1.4,1.8.5,2.9.3,1.6.3-.7.7-1.8.3-1.8.5-4.2.4-1.9,1-.8.9.7,1.1,2,.8,1.9,1.2,1,1.6-1.7,1.1-1.9,1.7.7,2.9.8.9,3.2-.3,1.7,1.3.2,1.7,2.3.4,4.1-1.3,1.3.9,2-1.1.2-1.2.8-1.7,2.1-1.4,2.9-.3L488,654l2-.6,1,.9.6.8.5,2.2.2,2.7-.3,3.3h2.8l1.1,1.9-1,1.8Zm-63.4-235.1,2.8,1.7.5,2.7L435,438l1.8.5,2.7-.2-2.7,10.7,3.1,2.4,3.5,3.6,3.7,2.7,1.4.6h1.9l.6,2-1,5.8-1.2,3.3-.6,1.1v.6l.7.3,1.9-.1,2.6-.6,2.7-.4,1.8-.7,1.6-.3,4-.3,2-1.7,9.5,1,11.9-7.3,9.2,1.2,3.5-7.8.5-11.4,3.9,1.3,3.7-1,9.8,6.2h2l1.9-3.2,10.3,5.3,6.4.4,2.5,3.6,5.8,1.1,3.6,3.5h6.1l5.3,4.6,2.9,3.1,2.2,4.7,4.3,4.7,7.4,7.7,6.4,4.4,5.8,3.2,3.6,2.8,2.1,2.5,1.2,4.8,4.4,3.6,1.7,4.6,6.3,3.6,6.3,4.6,11.1,2.7,7.3.3,4.3-.6,10.3-2.8,1.8-3.3,5.3-13,1.7-8.6-10.7-1.4-9.5-5.1.8-5.3,3.6-7.6-16.9-12.8-.2-4.4,4.9-5.8.6-3.1-.5-2.3,3-2.9-2.6-2.8,7.1-7,4.1,4.1,4.3,2.8,5.1-4.9-5.3-5.1,4.3-2.8.3-2.9,5.9,1.5h2.5l-.1-1.8-3.2-1.2-1.9.6-5.7-4.6-3.2.3-5.3-5.6-2.3.4-2-2.3-3.9-.6-8.2-4.9-8.1-1.3-7.7-4.2-1.3-2.4v-3.3h-2.3l-1.9-2.9-3.7-1.9-3.7-3.9,1.4-3.1.5-5.5,4.4-2.4,2.2-2.4-4.8-3.8-3.5-.5-2.5-2.1.1-2.4-1.9-2.4h-1.9l-.7,1.3-2.3,1.3-1.7-1.3-3.4-3.9-2-3.7h-2.2l-2.9,2.6-1.8.4-2.9-2.1-1.1,3-3.2-.3-.9,1.1-1.9.2-3-.7-4.1.6-.4,3.7h-3.2l-1.8.9v2.6l-.7,1.8-1.6,2.5-2.3,1.6h-6.8l-.8,2.7-2.3.9-1.1-1.1h-1.3l-1.4,1.2h-3.5l-2.7,2.6-2,.7-6.1-.9-1.5-.8-2.4-2.2-1-2.7-5.1-5.6v-2.4l-1-1.5-2.9,1-1.2-.7-2.6,1.3-1.7-.3-5.4,5.6h-.7l-1.4-.8-.9.4-.5,2.5-1.8-.9-.7.4-.4,3.4-1.3,2.1-4.9,3.8-3.2,4.2-4,3.8-4.5,1.9-.9,1.1-.2,1.2.3,2.4-.6,1.2-2.7,2.7-3.5,1.7-3.1,1.1-4,.9-9.8-.4-3.9.2-1.8.8-1.2,1.4-1.4,1.8-2.5,1.9-3.1,1.4-3.5.9v4.6l.9,3.6,2.2,5-1.2,2.9-.8.9Zm296-138,5-6.3-4.8-3-1.9-.6-28,1.4-6.4-3.3-3.3-.9-3.5.9-2.4,2.2-3.6-.3-5.5,6.2-7.4,1-2.4,10.5-.4,12,2.1.4.1,3.6,10.9-.1v.1l1.6,7.9L669,337.1l-2-.7-2.2,5.4-5.6-.7-3,3.4,1.4,3.8-2.4,3.1-12.5,39.2-10.6-3L628,398.3l-5.2,8,8.2,4.9,3.9.6,2,2.3,2.3-.4,5.3,5.6,3.2-.3,5.7,4.6,1.9-.6,3.2,1.2.1,1.8h-2.5l-5.9-1.5-.3,2.9-4.3,2.8,5.3,5.1-5.1,4.9-4.3-2.8-4.1-4.1-7.1,7,2.6,2.8-3,2.9.5,2.3-.6,3.1-4.9,5.8.2,4.4L642,474.4l-3.6,7.6-.8,5.3,9.5,5.1,10.7,1.4,17-71,.2-1.9.4-6.4.4-1.9.7-1.7,1.1-1.3,5.1-4.2,2.1-2,1.4-2.3.9-3.4.6-6.4.4-2.4,1.1-2.6,2-2.6,2.8-2.3,2.2-2.2,1.6-2.7,1.8-7.6,1-2,1.3-1.5,1.9-1.5,3.1-1.7,2.9-1.8,2.3-1.9,1.5-1.9,1.2-4.6,1-2.6,4.2-8,1.3-5.1,3.4-8.2,1.3-5.2-.3-4.9-.9-7.7.3-8.8-1.2-4.3.1-2.3ZM602.58,373l-2.2,2.4-4.4,2.4-.5,5.5-1.4,3.1,3.7,3.9,3.7,1.9,1.9,2.9h2.3v3.3l1.3,2.4,7.7,4.2,8.1,1.3,5.2-8,4.1-10.7,10.6,3,12.5-39.2,2.4-3.1-1.4-3.8,3-3.4,5.6.7,2.2-5.4,2,.7,5.9-12.3-1.6-7.9h-10.9l-.1-3.6-2.1-.4.4-12,2.4-10.5-17.3-1.2-4.4-1.4-2.9,2.4-7.8,1-11.7,5.7-7.2-1.4-7.6.6-3.1-1.7-4,2.1v3.2l-2.2,2.7-.3,1.3,4.4,3.7.8,1.3-.5,3.4,3.7,2.3,4.9,2.3.8,3.8-.7,3.1-1,2.6-1.8.3-2.9-.7-2.7.5-1.5,1.1-1.1,2v6.5l1.3,1.6-.3,2.7-2.4,2.4-.7,5.7,1.9,1.5.3,1.7-2.2,2.5-.6,3.2-2.7,1.1-2.6,1.9-.8,1.6H590l1.9,2.4-.1,2.4,2.5,2.1,3.5.5Z" style="fill:lime;stroke:lime;stroke-miterlimit:10;stroke-width:5px;fill-rule:evenodd"/></g></g></svg>