<?xml version="1.0" encoding="iso-8859-1"?>
<!-- Generator: Adobe Illustrator 16.0.0, SVG Export Plug-In . SVG Version: 6.00 Build 0)  -->
<!DOCTYPE svg PUBLIC "-//W3C//DTD SVG 1.1//EN" "http://www.w3.org/Graphics/SVG/1.1/DTD/svg11.dtd">
<svg version="1.1" id="Capa_1" xmlns="http://www.w3.org/2000/svg" xmlns:xlink="http://www.w3.org/1999/xlink" x="0px" y="0px"
	 width="47.875px" height="47.875px" viewBox="0 0 47.875 47.875" style="enable-background:new 0 0 47.875 47.875;"
	 xml:space="preserve">
<g>
	<path d="M21.485,30.479c0-0.553,1.119-1,2.5-1s2.5,0.447,2.5,1c0,0.555-1.119,1-2.5,1S21.485,31.033,21.485,30.479z M17.194,26.598
		c1.24,0,2.25-1.011,2.25-2.25c0-1.241-1.01-2.25-2.25-2.25c-1.24,0-2.25,1.01-2.25,2.25C14.944,25.587,15.955,26.598,17.194,26.598
		z M30.778,26.598c1.24,0,2.25-1.011,2.25-2.25c0-1.241-1.01-2.25-2.25-2.25s-2.25,1.01-2.25,2.25
		C28.528,25.587,29.538,26.598,30.778,26.598z M46.858,22.541v21.334c0,2.209-2.1,4-4.688,4h-3.125c-2.588,0-4.688-1.791-4.688-4
		V41.42c-3.021,1.908-6.582,2.996-10.342,2.996c-3.826,0-7.445-1.127-10.498-3.098v2.557c0,2.209-2.101,4-4.688,4H5.705
		c-2.588,0-4.688-1.791-4.688-4v-2.791V22.6v-0.06c0-0.008,0.002-0.017,0.002-0.023C1.065,10.085,11.328,0,23.935,0
		c12.588,0,22.834,10.054,22.912,22.44C46.851,22.475,46.858,22.507,46.858,22.541z M9.84,27.042
		c-0.451-0.545-0.83-1.127-1.174-1.726c0,0.021-0.002,0.045-0.002,0.063c-0.025,0-0.047-0.008-0.07-0.008
		c-1.244,0-2.242,1.147-2.242,2.563s0.998,2.562,2.242,2.562c0.311,0,0.604-0.072,0.875-0.201
		c2.031,5.928,7.711,10.201,14.414,10.201c6.698,0,12.37-4.266,14.409-10.184c0.254,0.115,0.527,0.184,0.816,0.184
		c1.244,0,2.242-1.146,2.242-2.562c0-1.399-0.979-2.535-2.205-2.561c-0.336,0.576-0.705,1.139-1.145,1.664
		c0.289-0.994,0.482-2.008,0.576-3.023c-6.252-1.137-8.883-6.167-9.812-8.658c-9.234,6.266-15.882,7.803-19.539,8.084
		C9.291,24.652,9.498,25.861,9.84,27.042z"/>
</g>
<g>
</g>
<g>
</g>
<g>
</g>
<g>
</g>
<g>
</g>
<g>
</g>
<g>
</g>
<g>
</g>
<g>
</g>
<g>
</g>
<g>
</g>
<g>
</g>
<g>
</g>
<g>
</g>
<g>
</g>
</svg>
