<svg xmlns="http://www.w3.org/2000/svg" viewBox="0 0 191.24 474.47"><title>woman2</title><g id="Layer_2" data-name="Layer 2"><g id="Layer_1-2" data-name="Layer 1"><path d="M190.37,244.14c-.28-1-28.31-99.45-32.72-115.25-7.1-25.44-19-38.34-35.38-38.34H69c-16.38,0-28.28,12.9-35.38,38.34C29.18,144.69,1.15,243.14.87,244.14c-2.8,9.82,1.4,20.57,9.37,24S27,266.42,29.75,256.61c.9-3.18,17.76-60.88,27.17-94.08-1,9.91,1.86-10.66-21.87,140.18-1,6.48,3,12.47,8.35,12.47H55.07V451.86c0,12.48,8.22,22.61,18.36,22.61S91.8,464.34,91.8,451.86V315.18h7.92V451.86c0,12.48,8.22,22.61,18.37,22.61s18.36-10.13,18.36-22.61V315.18h11.67c5.34,0,9.37-6,8.35-12.47C133,153.24,135.55,170.6,134.75,162.53c9.48,33.45,25.85,90.95,26.74,94.07,2.8,9.83,11.54,15,19.5,11.55S193.17,254,190.37,244.14Z"/><ellipse cx="95.76" cy="39.05" rx="31.71" ry="39.05"/></g></g></svg>