<svg xmlns="http://www.w3.org/2000/svg" viewBox="0 0 957.61 280.48"><title>Asset 14</title><g id="Layer_2" data-name="Layer 2"><g id="Capa_1" data-name="Capa 1"><g id="adulto_hombre"><path d="M45.68,32.26A16.13,16.13,0,1,0,29.55,16.13,16.2,16.2,0,0,0,45.68,32.26Z" style="fill:#216734"/><path d="M64.66,38.27H27c-10.44,0-19.61,10.12-19.61,21.51v44.59a6.33,6.33,0,1,0,12.65,0V62.31s0-2.85,2.53-2.85,2.85,2.85,2.85,2.85v118.6a8.86,8.86,0,1,0,17.71,0v-66.1a2.41,2.41,0,0,1,2.53-2.53h0a2.42,2.42,0,0,1,2.53,2.53v66.1a8.86,8.86,0,1,0,17.71,0V62.31s.32-2.85,2.85-2.85,2.53,2.85,2.53,2.85v42.06a6.33,6.33,0,1,0,12.65,0V59.78C84,48.39,75.41,38.27,64.66,38.27Z" style="fill:#216734"/></g><path d="M102.17,26.38h10.65V68.51h17.43v9.43H102.17Z" style="fill:#3fad49"/><path d="M131.54,68.64c0-8.68,7-12.55,21.5-14v-1c0-3.73-2.17-5.16-6-5.16a30,30,0,0,0-12,2.92L133.84,44A35.84,35.84,0,0,1,148.36,41c9.57,0,14.32,3.39,14.32,12.21v24.7h-8.42l-.74-4.62c-3,3-6.58,5.36-11.81,5.36C135.61,78.68,131.54,75.09,131.54,68.64ZM153,68V60c-9.7,1.22-12,4.07-12,7.46,0,2.58,1.63,4.07,4.21,4.07C148,71.56,150.67,70.2,153,68Z" style="fill:#3fad49"/><path d="M166,75.09,167.22,67a26.74,26.74,0,0,0,13.43,4.28c3.6,0,5.36-1.22,5.36-3.26s-1.29-3-6.78-4.41c-9-2.3-12.69-4.81-12.69-11.6,0-6.51,5-11,13.7-11a33,33,0,0,1,13,2.65l-1.29,8a26.68,26.68,0,0,0-11.74-3.32c-3.05,0-4.47,1.08-4.47,2.85s1.22,2.64,6.44,4c9.5,2.51,13.09,5,13.09,11.8,0,7.4-5.22,11.61-14.72,11.61A32.73,32.73,0,0,1,166,75.09Z" style="fill:#3fad49"/><path d="M213.68,25.16h9.64v21.1c3.05-2.79,6.71-5.3,11.39-5.3,6.86,0,10.45,4.14,10.45,11v26h-9.63V54.53c0-3-1.29-5-4.48-5-2.65,0-5.29,1.63-7.73,4.14V77.94h-9.64Z" style="fill:#3fad49"/><path d="M248.41,59.89c0-11.74,7.33-18.93,17.17-18.93s17.23,7.13,17.23,18.86-7.33,18.86-17.3,18.86S248.41,71.63,248.41,59.89Zm25,0c0-6.44-2.85-11.06-7.87-11.06s-7.8,4.48-7.8,11,2.78,11,7.8,11S273.45,66.34,273.45,59.89Z" style="fill:#3fad49"/><path d="M286.27,41.71h8.27l.82,5c3.39-3.26,6.92-5.77,11.8-5.77s7.8,2.38,9.16,5.84c3.26-3.26,7.12-5.84,11.87-5.84,6.79,0,10.25,4.14,10.25,11v26H328.8V54.53c0-3-1.08-5-4.14-5-2.57,0-5.08,1.63-7.46,4.14V77.94h-9.63V54.53c0-3-1.16-5-4.21-5-2.58,0-5,1.63-7.46,4.14V77.94h-9.63Z" style="fill:#3fad49"/><path d="M343.59,75.9V25.16h9.63V45.71c2.37-2.37,5.63-4.75,10.11-4.75,7.6,0,13.5,5.63,13.5,17.91,0,13.3-7.26,19.54-18.18,19.54A44.9,44.9,0,0,1,343.59,75.9Zm23.6-16.48c0-6.79-2.78-9.91-6.51-9.91-2.85,0-5.29,1.83-7.46,4.34V69.66a13.8,13.8,0,0,0,5.22.88C363.73,70.54,367.19,67.35,367.19,59.42Z" style="fill:#3fad49"/><path d="M380.35,41.71h8.28L389.78,49c2.31-4.21,5.77-7.74,11.33-8l1.56,9.64A17,17,0,0,0,390,57.31V77.94h-9.63Z" style="fill:#3fad49"/><path d="M402.74,59.89c0-11.8,7.12-18.93,16.68-18.93,11,0,15.81,8.21,15.81,18.52,0,.89,0,2-.07,2.92H412.44c.47,6,4.07,9,9.43,9,4.41,0,8.34-1.63,12.28-4.28l1.08,7.26a24.81,24.81,0,0,1-14.45,4.34C410.4,78.68,402.74,72.92,402.74,59.89Zm23.2-3.8c-.48-5.56-2.65-8.61-6.72-8.61-3.46,0-6.17,2.85-6.78,8.61Z" style="fill:#3fad49"/><path d="M437.06,75.09,438.28,67a26.74,26.74,0,0,0,13.43,4.28c3.6,0,5.36-1.22,5.36-3.26s-1.29-3-6.78-4.41c-9-2.3-12.69-4.81-12.69-11.6,0-6.51,5-11,13.71-11a33,33,0,0,1,13,2.65l-1.29,8a26.68,26.68,0,0,0-11.73-3.32c-3.06,0-4.48,1.08-4.48,2.85s1.22,2.64,6.44,4c9.5,2.51,13.1,5,13.1,11.8,0,7.4-5.23,11.61-14.72,11.61A32.78,32.78,0,0,1,437.06,75.09Z" style="fill:#3fad49"/><path d="M482.85,68.64c0-8.68,7-12.55,21.5-14v-1c0-3.73-2.17-5.16-6-5.16a30,30,0,0,0-12,2.92L485.15,44A35.84,35.84,0,0,1,499.67,41C509.24,41,514,44.42,514,53.24v24.7h-8.42l-.74-4.62c-3,3-6.58,5.36-11.81,5.36C486.92,78.68,482.85,75.09,482.85,68.64Zm21.5-.68V60c-9.7,1.22-12,4.07-12,7.46,0,2.58,1.62,4.07,4.2,4.07C499.33,71.56,502,70.2,504.35,68Z" style="fill:#3fad49"/><path d="M517.31,60.84c0-13.57,7.46-19.54,15.74-19.54a24.4,24.4,0,0,1,8.14,1.36V25.16h9.63V77.94h-8.28l-.81-4.89c-2.58,2.92-6,5.63-10.92,5.63C523.28,78.68,517.31,73.05,517.31,60.84Zm23.88,4.68V50.39A14.22,14.22,0,0,0,534.74,49c-4.47,0-7.73,3.52-7.73,11.19,0,6.78,2.78,9.9,6.58,9.9C536.57,70.13,539,68.3,541.19,65.52Z" style="fill:#3fad49"/><path d="M556,67.69v-26h9.64v23.4c0,3,1.29,5,4.34,5,2.64,0,5.22-1.62,7.66-4.13V41.71h9.64V77.94H579l-.81-5c-3.33,3.18-7.13,5.76-11.87,5.76C559.5,78.68,556,74.55,556,67.69Z" style="fill:#3fad49"/><path d="M592.94,25.16h9.64V77.94h-9.64Z" style="fill:#3fad49"/><path d="M610.1,67.29V49.58h-5V41.71h5V29.84h9.57V41.71h7.8v7.87h-7.8V65.73c0,2.91,1.36,4.47,4.68,4.47a15.7,15.7,0,0,0,3.32-.34V78a19.39,19.39,0,0,1-5.22.55C615.12,78.55,610.1,75.83,610.1,67.29Z" style="fill:#3fad49"/><path d="M629.37,59.89c0-11.74,7.33-18.93,17.16-18.93s17.23,7.13,17.23,18.86-7.32,18.86-17.3,18.86S629.37,71.63,629.37,59.89Zm25,0c0-6.44-2.85-11.06-7.87-11.06s-7.8,4.48-7.8,11,2.78,11,7.8,11S654.4,66.34,654.4,59.89Z" style="fill:#3fad49"/><path d="M665.46,75.09,666.68,67a26.74,26.74,0,0,0,13.43,4.28c3.6,0,5.36-1.22,5.36-3.26s-1.29-3-6.78-4.41c-9-2.3-12.69-4.81-12.69-11.6,0-6.51,5-11,13.7-11a33,33,0,0,1,13,2.65l-1.29,8a26.68,26.68,0,0,0-11.74-3.32c-3.05,0-4.47,1.08-4.47,2.85s1.22,2.64,6.44,4c9.5,2.51,13.09,5,13.09,11.8,0,7.4-5.22,11.61-14.72,11.61A32.73,32.73,0,0,1,665.46,75.09Z" style="fill:#3fad49"/><path d="M0,212c0-8,5-12.84,11.64-12.84S23.33,204,23.33,212s-5,12.78-11.74,12.78S0,220,0,212Zm17,0c0-4.37-1.94-7.5-5.34-7.5s-5.29,3-5.29,7.46,1.89,7.45,5.29,7.45S17,216.38,17,212Z" style="fill:#374a63"/><path d="M25.67,199.68h5.61l.55,3.31c1.75-2,4.1-3.82,7.41-3.82,5.11,0,9.15,3.82,9.15,12.15,0,9.16-5.06,13.2-10.67,13.2a16.52,16.52,0,0,1-5.52-.92V233H25.67Zm16.19,12c0-4.6-1.93-6.72-4.46-6.72-2.07,0-3.68,1.24-5.2,3.13v10.26a9.58,9.58,0,0,0,4.37.92C39.61,219.28,41.86,216.89,41.86,211.69Z" style="fill:#374a63"/><path d="M50.55,192.09a3.78,3.78,0,1,1,3.78,3.63A3.58,3.58,0,0,1,50.55,192.09Zm.51,7.59h6.53v24.57H51.06Z" style="fill:#374a63"/><path d="M61.41,199.68H67l.55,3.41c2.3-2.17,4.83-3.92,8.05-3.92,4.61,0,7,2.81,7,7.46v17.62H76.13V208.38c0-2-.87-3.41-3-3.41-1.79,0-3.54,1.11-5.2,2.81v16.47H61.41Z" style="fill:#374a63"/><path d="M84.82,218c0-5.89,4.74-8.52,14.59-9.48v-.65c0-2.53-1.48-3.49-4.1-3.49a20.38,20.38,0,0,0-8.14,2l-.78-5.11a24.27,24.27,0,0,1,9.84-2c6.49,0,9.71,2.3,9.71,8.28v16.75h-5.7l-.51-3.13a10.87,10.87,0,0,1-8,3.63C87.58,224.75,84.82,222.32,84.82,218Zm14.59-.46V212.1c-6.58.83-8.15,2.76-8.15,5.06a2.59,2.59,0,0,0,2.86,2.76A7.87,7.87,0,0,0,99.41,217.49Z" style="fill:#374a63"/><path d="M109.39,199.68H115l.55,3.41c2.3-2.17,4.83-3.92,8-3.92,4.6,0,7,2.81,7,7.46v17.62h-6.53V208.38c0-2-.87-3.41-3-3.41-1.79,0-3.54,1.11-5.2,2.81v16.47h-6.53Z" style="fill:#374a63"/><path d="M143.11,222.32l.82-5.48a18.12,18.12,0,0,0,9.11,2.9c2.44,0,3.64-.83,3.64-2.21s-.88-2-4.6-3c-6.08-1.56-8.61-3.27-8.61-7.87,0-4.41,3.41-7.45,9.3-7.45a22.29,22.29,0,0,1,8.83,1.8l-.87,5.42a18.07,18.07,0,0,0-8-2.25c-2.07,0-3,.74-3,1.93s.83,1.8,4.37,2.72c6.44,1.7,8.88,3.4,8.88,8,0,5-3.54,7.87-10,7.87A22.28,22.28,0,0,1,143.11,222.32Z" style="fill:#374a63"/><path d="M164,212c0-8,5-12.84,11.64-12.84S187.31,204,187.31,212s-5,12.78-11.73,12.78S164,220,164,212Zm17,0c0-4.37-1.93-7.5-5.33-7.5s-5.29,3-5.29,7.46,1.88,7.45,5.29,7.45S181,216.38,181,212Z" style="fill:#374a63"/><path d="M189.66,222.87V188.46h6.53V202.4a9.63,9.63,0,0,1,6.85-3.23c5.16,0,9.16,3.82,9.16,12.15,0,9-4.92,13.25-12.33,13.25A30.37,30.37,0,0,1,189.66,222.87Zm16-11.18c0-4.6-1.89-6.72-4.42-6.72-1.93,0-3.59,1.24-5.06,2.95v10.72a9.42,9.42,0,0,0,3.54.59C203.32,219.23,205.67,217.07,205.67,211.69Z" style="fill:#374a63"/><path d="M214.59,199.68h5.61l.78,4.92c1.57-2.85,3.91-5.24,7.69-5.43l1.05,6.54a11.49,11.49,0,0,0-8.6,4.55v14h-6.53Z" style="fill:#374a63"/><path d="M229.77,212c0-8,4.83-12.84,11.31-12.84,7.46,0,10.72,5.57,10.72,12.56,0,.6,0,1.34,0,2H236.35c.32,4.1,2.76,6.08,6.39,6.08a14.77,14.77,0,0,0,8.33-2.9l.73,4.92a16.78,16.78,0,0,1-9.8,2.94C235,224.75,229.77,220.84,229.77,212Zm15.73-2.58c-.32-3.77-1.79-5.84-4.55-5.84-2.35,0-4.19,1.93-4.6,5.84Z" style="fill:#374a63"/><path d="M263.21,212c0-8,4.83-12.84,11.32-12.84,7.45,0,10.71,5.57,10.71,12.56,0,.6,0,1.34,0,2H269.79c.32,4.1,2.76,6.08,6.39,6.08a14.77,14.77,0,0,0,8.33-2.9l.73,4.92a16.78,16.78,0,0,1-9.79,2.94C268.41,224.75,263.21,220.84,263.21,212Zm15.73-2.58c-.32-3.77-1.79-5.84-4.55-5.84-2.35,0-4.19,1.93-4.6,5.84Z" style="fill:#374a63"/><path d="M288,188.46h6.53v35.79H288Z" style="fill:#374a63"/><path d="M1.24,240.68H6.85L7.41,244c1.75-2,4.09-3.82,7.4-3.82,5.11,0,9.16,3.82,9.16,12.15,0,9.16-5.06,13.2-10.67,13.2a16.47,16.47,0,0,1-5.52-.92V274H1.24Zm16.2,12c0-4.6-1.94-6.72-4.47-6.72-2.07,0-3.68,1.24-5.19,3.13v10.26a9.55,9.55,0,0,0,4.37.92C15.18,260.28,17.44,257.89,17.44,252.69Z" style="fill:#374a63"/><path d="M26.36,240.68H32l.78,4.92c1.57-2.85,3.91-5.24,7.69-5.43l1.05,6.54a11.49,11.49,0,0,0-8.6,4.55v14H26.36Z" style="fill:#374a63"/><path d="M42.55,233.09a3.77,3.77,0,1,1,3.77,3.63A3.58,3.58,0,0,1,42.55,233.09Zm.51,7.59h6.53v24.57H43.06Z" style="fill:#374a63"/><path d="M53.41,240.68H59l.55,3.41c2.3-2.17,4.83-3.92,8.05-3.92,4.6,0,7,2.81,7,7.46v17.62H68.13V249.38c0-2-.88-3.41-3-3.41-1.8,0-3.55,1.11-5.2,2.81v16.47H53.41Z" style="fill:#374a63"/><path d="M76.87,253.1c0-8.6,5.38-12.88,12-12.88a13.92,13.92,0,0,1,7.55,2L95.5,248a9.79,9.79,0,0,0-6.21-2.21c-3.36,0-5.85,2.44-5.85,7.14s2.67,7.13,6.21,7.13a9.81,9.81,0,0,0,6.17-2.21l.83,5.47a13.66,13.66,0,0,1-8.05,2.35C81.7,265.71,76.87,261.11,76.87,253.1Z" style="fill:#374a63"/><path d="M98.67,233.09a3.77,3.77,0,1,1,3.77,3.63A3.58,3.58,0,0,1,98.67,233.09Zm.51,7.59h6.53v24.57H99.18Z" style="fill:#374a63"/><path d="M109.53,240.68h5.61l.55,3.31c1.75-2,4.09-3.82,7.41-3.82,5.1,0,9.15,3.82,9.15,12.15,0,9.16-5.06,13.2-10.67,13.2a16.47,16.47,0,0,1-5.52-.92V274h-6.53Zm16.19,12c0-4.6-1.93-6.72-4.46-6.72-2.07,0-3.68,1.24-5.2,3.13v10.26a9.58,9.58,0,0,0,4.37.92C123.46,260.28,125.72,257.89,125.72,252.69Z" style="fill:#374a63"/><path d="M133.35,259c0-5.89,4.74-8.52,14.59-9.48v-.65c0-2.53-1.48-3.49-4.1-3.49a20.38,20.38,0,0,0-8.14,2l-.78-5.11a24.27,24.27,0,0,1,9.84-2c6.49,0,9.71,2.3,9.71,8.28v16.75h-5.7l-.51-3.13a10.87,10.87,0,0,1-8,3.63C136.11,265.75,133.35,263.32,133.35,259Zm14.59-.46V253.1c-6.58.83-8.15,2.76-8.15,5.06a2.59,2.59,0,0,0,2.86,2.76A7.87,7.87,0,0,0,147.94,258.49Z" style="fill:#374a63"/><path d="M158.19,229.46h6.54v35.79h-6.54Z" style="fill:#374a63"/><path d="M178.75,240.68h5.62l.55,3.31c1.75-2,4.09-3.82,7.41-3.82,5.1,0,9.15,3.82,9.15,12.15,0,9.16-5.06,13.2-10.67,13.2a16.47,16.47,0,0,1-5.52-.92V274h-6.54Zm16.2,12c0-4.6-1.93-6.72-4.46-6.72-2.07,0-3.68,1.24-5.2,3.13v10.26a9.58,9.58,0,0,0,4.37.92C192.69,260.28,195,257.89,195,252.69Z" style="fill:#374a63"/><path d="M203.87,240.68h5.61l.79,4.92c1.56-2.85,3.91-5.24,7.68-5.43l1.06,6.54a11.49,11.49,0,0,0-8.61,4.55v14h-6.53Z" style="fill:#374a63"/><path d="M219.05,253c0-8,5-12.84,11.64-12.84S242.38,245,242.38,253s-5,12.78-11.74,12.78S219.05,261,219.05,253Zm17,0c0-4.37-1.94-7.5-5.34-7.5s-5.29,3-5.29,7.46,1.89,7.45,5.29,7.45S236,257.38,236,253Z" style="fill:#374a63"/><path d="M244.72,263.87V229.46h6.53V243.4a9.63,9.63,0,0,1,6.86-3.23c5.15,0,9.15,3.82,9.15,12.15,0,9-4.92,13.25-12.33,13.25A30.37,30.37,0,0,1,244.72,263.87Zm16-11.18c0-4.6-1.89-6.72-4.42-6.72-1.93,0-3.59,1.24-5.06,2.95v10.72a9.45,9.45,0,0,0,3.54.59C258.38,260.23,260.73,258.07,260.73,252.69Z" style="fill:#374a63"/><path d="M269.93,229.46h6.53v35.79h-6.53Z" style="fill:#374a63"/><path d="M279,253c0-8,4.83-12.84,11.32-12.84,7.45,0,10.72,5.57,10.72,12.56,0,.6,0,1.34-.05,2H285.61c.32,4.1,2.76,6.08,6.4,6.08a14.71,14.71,0,0,0,8.32-2.9l.74,4.92a16.83,16.83,0,0,1-9.8,2.94C284.23,265.75,279,261.84,279,253Zm15.74-2.58c-.32-3.77-1.8-5.84-4.56-5.84-2.34,0-4.18,1.93-4.6,5.84Z" style="fill:#374a63"/><path d="M303.5,240.68h5.62l.55,3.41c2.3-2.21,4.69-3.92,8-3.92s5.29,1.62,6.21,4c2.21-2.21,4.84-4,8.06-4,4.6,0,6.94,2.81,6.94,7.46v17.62h-6.53V249.38c0-2-.74-3.41-2.81-3.41-1.74,0-3.45,1.11-5.06,2.81v16.47H318V249.38c0-2-.78-3.41-2.85-3.41-1.75,0-3.41,1.11-5.06,2.81v16.47H303.5Z" style="fill:#374a63"/><path d="M341.09,259c0-5.89,4.74-8.52,14.58-9.48v-.65c0-2.53-1.47-3.49-4.09-3.49a20.43,20.43,0,0,0-8.15,2l-.78-5.11a24.28,24.28,0,0,1,9.85-2c6.48,0,9.7,2.3,9.7,8.28v16.75h-5.7l-.51-3.13a10.87,10.87,0,0,1-8,3.63C343.85,265.75,341.09,263.32,341.09,259Zm14.58-.46V253.1c-6.58.83-8.14,2.76-8.14,5.06a2.58,2.58,0,0,0,2.85,2.76A7.85,7.85,0,0,0,355.67,258.49Z" style="fill:#374a63"/><path d="M374.67,253.65c0-9.2,5.06-13.24,10.67-13.24a16.52,16.52,0,0,1,5.52.92V229.46h6.53v35.79h-5.61l-.55-3.31c-1.75,2-4.1,3.81-7.41,3.81C378.71,265.75,374.67,261.94,374.67,253.65Zm16.19,3.18V246.57a9.58,9.58,0,0,0-4.37-.92c-3,0-5.24,2.39-5.24,7.59,0,4.6,1.88,6.72,4.46,6.72C387.73,260,389.34,258.72,390.86,256.83Z" style="fill:#374a63"/><path d="M399.74,253c0-8,4.83-12.84,11.31-12.84,7.46,0,10.72,5.57,10.72,12.56,0,.6,0,1.34,0,2H406.32c.32,4.1,2.76,6.08,6.39,6.08a14.77,14.77,0,0,0,8.33-2.9l.73,4.92a16.83,16.83,0,0,1-9.8,2.94C404.93,265.75,399.74,261.84,399.74,253Zm15.73-2.58c-.32-3.77-1.79-5.84-4.55-5.84-2.35,0-4.19,1.93-4.6,5.84Z" style="fill:#374a63"/><path d="M434.7,229.46h6.53v35.79H434.7Z" style="fill:#374a63"/><path d="M443.76,259c0-5.89,4.74-8.52,14.58-9.48v-.65c0-2.53-1.47-3.49-4.09-3.49a20.43,20.43,0,0,0-8.15,2l-.78-5.11a24.28,24.28,0,0,1,9.85-2c6.48,0,9.7,2.3,9.7,8.28v16.75h-5.7l-.51-3.13a10.87,10.87,0,0,1-8,3.63C446.52,265.75,443.76,263.32,443.76,259Zm14.58-.46V253.1c-6.58.83-8.14,2.76-8.14,5.06a2.58,2.58,0,0,0,2.85,2.76A7.85,7.85,0,0,0,458.34,258.49Z" style="fill:#374a63"/><path d="M590.45,176.6c0-6.95,5.59-10,17.22-11.19v-.76c0-3-1.74-4.13-4.84-4.13a24,24,0,0,0-9.61,2.34l-.93-6a28.83,28.83,0,0,1,11.63-2.33c7.66,0,11.46,2.71,11.46,9.77v19.78h-6.74l-.59-3.7c-2.39,2.39-5.27,4.29-9.46,4.29C593.71,184.64,590.45,181.76,590.45,176.6Zm17.22-.54v-6.35c-7.77,1-9.62,3.26-9.62,6a3.06,3.06,0,0,0,3.37,3.26A9.28,9.28,0,0,0,607.67,176.06Z" style="fill:#374a63"/><path d="M619.46,155h6.62l.65,4c2.72-2.55,5.71-4.62,9.51-4.62,5.43,0,8.31,3.31,8.31,8.8v20.81h-7.71V165.3c0-2.38-1-4-3.53-4-2.12,0-4.19,1.3-6.14,3.31v19.45h-7.71Zm12.76-5c-2.28-1.09-3-1.41-3.91-1.41s-1.3.49-1.79,2.39h-4.13c.6-5.81,2.55-8.2,5.49-8.2a9.28,9.28,0,0,1,4.23,1.19c2.28,1.09,3,1.41,3.91,1.41s1.31-.49,1.8-2.39h4.12c-.59,5.82-2.55,8.21-5.48,8.21A9.17,9.17,0,0,1,632.22,150Z" style="fill:#374a63"/><path d="M647.16,169.6c0-9.4,5.87-15.16,13.74-15.16s13.8,5.7,13.8,15.1-5.87,15.1-13.85,15.1S647.16,179,647.16,169.6Zm20,0c0-5.16-2.28-8.86-6.3-8.86s-6.24,3.59-6.24,8.8,2.22,8.8,6.24,8.8S667.2,174.76,667.2,169.6Z" style="fill:#374a63"/><path d="M676.06,181.76l1-6.46a21.45,21.45,0,0,0,10.75,3.42c2.88,0,4.29-1,4.29-2.6s-1-2.4-5.43-3.54c-7.17-1.84-10.16-3.85-10.16-9.28,0-5.22,4-8.8,11-8.8a26.54,26.54,0,0,1,10.43,2.11l-1,6.41a21.28,21.28,0,0,0-9.39-2.66c-2.45,0-3.59.87-3.59,2.28s1,2.12,5.16,3.21c7.61,2,10.49,4,10.49,9.45,0,5.92-4.19,9.29-11.79,9.29A26.11,26.11,0,0,1,676.06,181.76Z" style="fill:#374a63"/><path d="M97.19,113.11c0-9.45,5.7-15.15,13.36-15.15,8.8,0,12.66,6.57,12.66,14.83,0,.7,0,1.57-.06,2.33H105c.38,4.84,3.26,7.17,7.55,7.17a17.37,17.37,0,0,0,9.84-3.42l.87,5.81a19.9,19.9,0,0,1-11.57,3.48C103.32,128.16,97.19,123.54,97.19,113.11Zm18.57-3c-.38-4.46-2.11-6.9-5.37-6.9-2.77,0-5,2.28-5.44,6.9Z" style="fill:#374a63"/><path d="M126.09,98.55h6.62l.66,4c2.71-2.55,5.7-4.61,9.5-4.61,5.43,0,8.31,3.31,8.31,8.8v20.8h-7.71V108.82c0-2.39-1-4-3.53-4-2.12,0-4.18,1.3-6.14,3.31v19.45h-7.71Z" style="fill:#374a63"/><path d="M156.78,119V104.85h-4v-6.3h4v-9.5h7.66v9.5h6.24v6.3h-6.24v12.93c0,2.34,1.08,3.59,3.75,3.59a13.2,13.2,0,0,0,2.66-.27v6.52a15.94,15.94,0,0,1-4.18.43C160.8,128.05,156.78,125.88,156.78,119Z" style="fill:#374a63"/><path d="M173.67,98.55h6.63l.92,5.82c1.85-3.37,4.62-6.2,9.07-6.41l1.25,7.71a13.53,13.53,0,0,0-10.15,5.38v16.51h-7.72Z" style="fill:#374a63"/><path d="M191.6,113.11C191.6,103.66,197.3,98,205,98c8.8,0,12.66,6.57,12.66,14.83,0,.7,0,1.57-.05,2.33h-18.2c.38,4.84,3.26,7.17,7.55,7.17a17.36,17.36,0,0,0,9.83-3.42l.87,5.81a19.88,19.88,0,0,1-11.57,3.48C197.74,128.16,191.6,123.54,191.6,113.11Zm18.58-3c-.38-4.46-2.12-6.9-5.38-6.9-2.77,0-4.94,2.28-5.43,6.9Z" style="fill:#374a63"/><path d="M224.84,169.17l29.65-30.65c6.73-6.85,10-11.68,10-17.52,0-7.52-4.6-11.34-12.69-11.34s-15.61,3.71-22.79,9.1l-2.25-14.94a44.21,44.21,0,0,1,27.4-9c17.07,0,27.29,9,27.29,24.48,0,11.11-5.28,18.19-15.73,28.52l-19.65,19.65h35.82v14.15h-57Z" style="fill:#01a5d4"/><path d="M297.72,169.51c16.84-3.48,29.87-11,34.25-25a35.2,35.2,0,0,1-20.1,6.51c-15.05,0-25.49-9-25.49-26.61,0-18.08,13-29.64,30.76-29.64,18.87,0,32,12.46,32,36,0,30.32-20.55,47.16-49.19,52.67Zm35.59-37.95v-.23C333.2,115.84,326.46,108,317,108c-8.42,0-14.26,5.72-14.26,15.49,0,9.21,4.72,14.38,14.15,14.38C322.87,137.85,328.26,135.49,333.31,131.56Z" style="fill:#01a5d4"/><path d="M381.26,203.54l-2.13-13a24.14,24.14,0,0,0,7.07.9c4.27,0,7.86-1.91,9.66-6.29l1.24-3.26-22.24-60.18h17.52l13,40.42,12.69-40.42h15.72l-22.34,62.65c-5.39,14.94-12.35,19.77-24.37,19.77A23.81,23.81,0,0,1,381.26,203.54Z" style="fill:#01a5d4"/><path d="M459.3,177l2.47-15.16A45.17,45.17,0,0,0,485.24,169c9,0,15.61-4.49,15.61-13.47s-6.74-13.48-17-13.48A38.79,38.79,0,0,0,473,143.68l-10.33-2.35,3-45h48.51v14.15h-35L477.72,129a49.06,49.06,0,0,1,9.09-.89c19,0,30.66,9.43,30.66,26.61,0,18.64-13,28.52-32,28.52C475.25,183.21,466,180.74,459.3,177Z" style="fill:#01a5d4"/><path d="M532,169.51c16.84-3.48,29.86-11,34.24-25A35.17,35.17,0,0,1,546.1,151c-15,0-25.49-9-25.49-26.61,0-18.08,13-29.64,30.77-29.64,18.87,0,32,12.46,32,36,0,30.32-20.55,47.16-49.18,52.67Zm35.59-37.95v-.23c-.11-15.49-6.85-23.35-16.28-23.35-8.42,0-14.26,5.72-14.26,15.49,0,9.21,4.71,14.38,14.15,14.38C557.11,137.85,562.5,135.49,567.55,131.56Z" style="fill:#01a5d4"/><path d="M476.12,239.55c0-16.14,9.89-27.06,24.73-27.06a27.34,27.34,0,0,1,14.56,3.71l-1.58,10a20.43,20.43,0,0,0-12.43-4.46c-8.8,0-14.36,6.66-14.36,17.72s6,17.72,14.84,17.72A23.62,23.62,0,0,0,514.72,253l1.51,9.2a28.7,28.7,0,0,1-15.18,4.26C485.6,266.47,476.12,255.83,476.12,239.55Z" style="fill:#de1f26"/><path d="M518.7,247.31c0-11.88,7.42-19.16,17.38-19.16s17.44,7.21,17.44,19.09S546.1,266.33,536,266.33,518.7,259.19,518.7,247.31Zm25.34,0c0-6.52-2.88-11.2-8-11.2s-7.9,4.54-7.9,11.13,2.81,11.13,7.9,11.13S544,253.83,544,247.31Z" style="fill:#4c9b45"/><path d="M557,228.9h8.38l.82,5.09c3.44-3.3,7-5.84,11.95-5.84s7.9,2.4,9.27,5.9c3.3-3.29,7.22-5.9,12-5.9,6.87,0,10.37,4.19,10.37,11.12v26.31h-9.75v-23.7c0-3-1.1-5.08-4.19-5.08-2.61,0-5.15,1.65-7.55,4.19v24.59h-9.76v-23.7c0-3-1.16-5.08-4.25-5.08-2.61,0-5.09,1.65-7.56,4.19v24.59H557Z" style="fill:#03a5d4"/><path d="M614.91,255.21V228.9h9.75v23.7c0,3,1.31,5.08,4.4,5.08,2.68,0,5.29-1.65,7.76-4.19V228.9h9.75v36.68h-8.38l-.82-5.08c-3.37,3.22-7.21,5.83-12,5.83C618.48,266.33,614.91,262.14,614.91,255.21Z" style="fill:#ea6524"/><path d="M651.92,228.9h8.38l.83,5.09c3.43-3.23,7.21-5.84,12-5.84,6.86,0,10.5,4.19,10.5,11.12v26.31H673.9v-23.7c0-3-1.3-5.08-4.46-5.08-2.68,0-5.29,1.65-7.76,4.19v24.59h-9.76Z" style="fill:#4c7838"/><path d="M686.88,256.17c0-8.79,7.07-12.71,21.77-14.15v-1c0-3.78-2.2-5.22-6.11-5.22a30.57,30.57,0,0,0-12.16,2.95l-1.17-7.62a36.31,36.31,0,0,1,14.7-2.95c9.69,0,14.49,3.43,14.49,12.36v25h-8.51l-.76-4.67c-3,3-6.66,5.42-12,5.42C691,266.33,686.88,262.69,686.88,256.17Zm21.77-.69v-8c-9.82,1.23-12.16,4.12-12.16,7.55,0,2.61,1.65,4.12,4.26,4.12C703.57,259.12,706.25,257.75,708.65,255.48Z" style="fill:#094c81"/><text id="svg_nombre_comuna" transform="translate(730.64 266.33)" style="font-size:68.67402648925781px;fill:#067dba;font-family:UNFPA-Bold;font-weight:700;letter-spacing:-0.05000554367941668em">Popular</text></g></g></svg>