<svg xmlns="http://www.w3.org/2000/svg" viewBox="0 0 862.91 252.11"><title>Asset 15</title><g id="Layer_2" data-name="Layer 2"><g id="Capa_1" data-name="Capa 1"><text transform="translate(181.92 79.24)" style="font-size:77.70355224609375px;fill:#374a63;font-family:UNFPA-Bold;font-weight:700;letter-spacing:-0.04999783990982606em">Los adultos mayores</text><text transform="translate(194.96 135.54)" style="font-size:53.937408447265625px;fill:#14486d;font-family:UNFPA-Bold;font-weight:700;letter-spacing:-0.0500073270601628em">piensan que<tspan style="letter-spacing:-0.049989221583312635em"><tspan x="28.48" y="52.32">el principal</tspan></tspan><tspan x="-63.21" y="104.64">problema de la</tspan></text><text transform="translate(497.31 242.64)" style="font-size:46px;fill:#14486d;font-family:UNFPA-Bold;font-weight:700;letter-spacing:-0.05000636888586957em">es</text><g id="adulto_mayor_mujer"><path d="M120.83,28.31a6.12,6.12,0,0,0,.66,2.3v.33l1,2v.33a7.07,7.07,0,0,0,1.31,2,.32.32,0,0,0,.33.33,16,16,0,0,0,3.29,3.29h.33c.66.33,1.32,1,2,1.31h0a18.85,18.85,0,0,0,4.61,1.65h.33c.65,0,1.64.33,2.63.33a7.21,7.21,0,0,0,2.63-.33h.33a19,19,0,0,0,4.61-1.65h0a6.5,6.5,0,0,0,2-1.31h.33a15.55,15.55,0,0,0,3.29-3.29.32.32,0,0,1,.33-.33c.33-.66,1-1.32,1.32-2v-.33l1-2v-.33c.33-.66.33-1.65.66-2.3v-.66c0-.66.32-1.65.32-2.31a17.19,17.19,0,0,0-8.88-14.81,6.45,6.45,0,0,0,2-3.95C147.16,3,143.21,0,138,0c-4.94,0-9.22,3-9.22,6.58a6.86,6.86,0,0,0,1.32,3.62,16.9,16.9,0,0,0-9.55,15.14,4.89,4.89,0,0,0,.33,2.31Z" style="fill:#14486d"/><path d="M183.37,108.29c3-2.31,1.64-8.56,1.64-8.56L171.19,54.64s-4.94-13.17-15.8-13.17h-3.62a20.77,20.77,0,0,1-27.65,0H120.5c-10.86,0-15.8,13.17-15.8,13.17L90.88,99.73s-2.63,8.23,4.61,10.2c6.91,2,9.21-5.92,9.21-5.92l11.19-37.85s.66-3,2.64-2.31c2.3.66,1.31,3.62,1.31,3.62l-19.42,70.77h18.11v50.69a8.56,8.56,0,0,0,17.11,0V138.24h4.94v50.69a8.56,8.56,0,0,0,17.12,0V138.24h18.1L156.38,67.47s-.66-3,1.32-3.62c2.3-.66,2.63,2.31,2.63,2.31L171.52,104s1.64,6.25,6.91,6.25C178.1,110.26,180.41,110.59,183.37,108.29Z" style="fill:#14486d"/></g><g id="adulto_mayor_hombre"><path d="M59.57,11.52l-5.26,1.32L52,2.63c-.33-1.31-1-2.63-3-2L42.79,2a8,8,0,0,1-3.95,0L32.26.33c-1.32-.33-2.31.66-3,2L26,12.51l-5.26-1.32a1.51,1.51,0,0,0-1.32,1.65,1.51,1.51,0,0,0,1.32,1.64l4.27,1A19.65,19.65,0,0,0,23.37,23a17.17,17.17,0,0,0,10.2,15.8,14.73,14.73,0,0,0,6.59,1.32,12,12,0,0,0,5.92-1.32A16.91,16.91,0,0,0,56.94,23a19.65,19.65,0,0,0-1.64-7.57l4.27-1a1.51,1.51,0,0,0,1.32-1.64C60.56,12.18,60.23,11.52,59.57,11.52Z" style="fill:#14486d"/><path d="M59.9,38.51H53.65a20.1,20.1,0,0,1-13.5,4.94,21.19,21.19,0,0,1-13.49-4.94H20.41A22.29,22.29,0,0,0,0,60.89v46.74a5.58,5.58,0,0,0,3,5.26,8.52,8.52,0,0,0,5.27,1c2.63-.33,4.94-3.29,4.94-6.25V67.47c0-1.64.32-3.62,3.29-3.62,2,0,2.3,2,2.3,3.29v120.8a9.55,9.55,0,0,0,19.09,0V118.49a2.51,2.51,0,0,1,2.63-2.63h0a2.52,2.52,0,0,1,2.64,2.63v69.45a9.55,9.55,0,0,0,19.09,0V67.47c0-1.31.33-3.29,2.3-3.29,2.63,0,3.29,2,3.29,3.62V108A6.59,6.59,0,0,0,81,108V61.22C80.31,49,71.42,39.5,59.9,38.51Z" style="fill:#14486d"/></g><text transform="translate(495.15 149.76)" style="font-size:68.67402648925781px;fill:#de1f26;font-family:UNFPA-Bold;font-weight:700;letter-spacing:-0.0499984335495035em">C<tspan x="43.33" y="0" style="fill:#4c9b45;letter-spacing:-0.05000554367941668em">o</tspan><tspan x="79.8" y="0" style="fill:#03a5d4">m</tspan><tspan x="137.83" y="0" style="fill:#ea6524;letter-spacing:-0.05000554367941668em">u</tspan><tspan x="174.7" y="0" style="fill:#4c7838">n</tspan><tspan x="211.58" y="0" style="fill:#094c81">a</tspan></text><text id="svg_nombre_comuna" transform="translate(503.95 207.09)" style="font-size:68.67402648925781px;fill:#067dba;font-family:UNFPA-Bold;font-weight:700;letter-spacing:-0.05000554367941668em">Popular</text></g></g></svg>