<svg xmlns="http://www.w3.org/2000/svg" viewBox="0 0 663.31 306.08"><title>Asset 17</title><g id="Layer_2" data-name="Layer 2"><g id="Capa_1" data-name="Capa 1"><g id="adulto_mayor_hombre"><path d="M73.74,22.62l-6.52,1.63L64.37,11.62C64,10,63.15,8.36,60.7,9.17L53,10.8a9.87,9.87,0,0,1-4.89,0l-8.14-2c-1.63-.4-2.86.82-3.67,2.45L32.19,23.84l-6.52-1.63a1.86,1.86,0,0,0-1.63,2,1.85,1.85,0,0,0,1.63,2L31,27.5a24.28,24.28,0,0,0-2,9.38A21.23,21.23,0,0,0,41.56,56.43a18.23,18.23,0,0,0,8.14,1.63A15,15,0,0,0,57,56.43,20.91,20.91,0,0,0,70.48,36.88a24.11,24.11,0,0,0-2-9.38l5.3-1.22a1.85,1.85,0,0,0,1.63-2C75,23.43,74.56,22.62,73.74,22.62Z" style="fill:#216734"/><path d="M74.15,56H66.41A24.85,24.85,0,0,1,49.7,62.13,26.17,26.17,0,0,1,33,56H25.26A27.59,27.59,0,0,0,0,83.73v57.85a6.92,6.92,0,0,0,3.67,6.52,10.52,10.52,0,0,0,6.52,1.22c3.25-.41,6.11-4.08,6.11-7.74V91.87c0-2,.4-4.48,4.07-4.48,2.44,0,2.85,2.45,2.85,4.08V241a11.82,11.82,0,0,0,23.63,0V155a3.12,3.12,0,0,1,3.26-3.26h0A3.12,3.12,0,0,1,53.37,155v86A11.82,11.82,0,0,0,77,241V91.87c0-1.62.41-4.07,2.85-4.07,3.26,0,4.08,2.45,4.08,4.48V142a8.15,8.15,0,0,0,16.29,0V84.13C99.41,69.06,88.41,57.25,74.15,56Z" style="fill:#216734"/></g><text transform="translate(113.03 68.38)" style="font-size:77.70355224609375px;fill:#3fad49;font-family:UNFPA-Bold;font-weight:700;letter-spacing:-0.04999783990982606em">Los hombres<tspan style="letter-spacing:-0.05000098185916998em"><tspan x="0" y="66.83">adultos mayores</tspan></tspan></text><text transform="translate(112.07 189.5)" style="font-size:53.937408447265625px;fill:#14486d;font-family:UNFPA-Bold;font-weight:700;letter-spacing:-0.0500073270601628em">piensan que<tspan style="letter-spacing:-0.049989221583312635em"><tspan x="28.48" y="52.32">el principal</tspan></tspan><tspan x="-63.21" y="104.64">problema de la</tspan></text><text transform="translate(414.42 296.6)" style="font-size:46px;fill:#14486d;font-family:UNFPA-Bold;font-weight:700;letter-spacing:-0.05000636888586957em">es</text><text transform="translate(412.25 203.73)" style="font-size:68.67402648925781px;fill:#de1f26;font-family:UNFPA-Bold;font-weight:700;letter-spacing:-0.0499984335495035em">C<tspan x="43.33" y="0" style="fill:#4c9b45;letter-spacing:-0.05000554367941668em">o</tspan><tspan x="79.8" y="0" style="fill:#03a5d4">m</tspan><tspan x="137.83" y="0" style="fill:#ea6524;letter-spacing:-0.05000554367941668em">u</tspan><tspan x="174.7" y="0" style="fill:#4c7838">n</tspan><tspan x="211.58" y="0" style="fill:#094c81">a</tspan></text><text id="svg_nombre_comuna" transform="translate(410.05 263.26)" style="font-size:68.67402648925781px;fill:#067dba;font-family:UNFPA-Bold;font-weight:700;letter-spacing:-0.05000554367941668em">Popular</text></g></g></svg>