<svg xmlns="http://www.w3.org/2000/svg" viewBox="0 0 710.16 246.4"><title>Asset 11</title><g id="Layer_2" data-name="Layer 2"><g id="Capa_1" data-name="Capa 1"><path d="M85.08,125.31c0-14.37,8.81-24.1,22-24.1a24.4,24.4,0,0,1,13,3.3l-1.41,8.94a18.14,18.14,0,0,0-11.07-4c-7.83,0-12.79,5.93-12.79,15.78S100.19,141,108,141a21,21,0,0,0,11.44-3.73l1.34,8.2a25.59,25.59,0,0,1-13.52,3.79C93.52,149.29,85.08,139.81,85.08,125.31Z" style="fill:#de1f26"/><path d="M123,132.23c0-10.59,6.61-17.07,15.48-17.07s15.54,6.42,15.54,17-6.61,17-15.6,17S123,142.81,123,132.23Zm22.57,0c0-5.82-2.57-10-7.09-10s-7,4-7,9.91,2.51,9.91,7,9.91S145.57,138,145.57,132.23Z" style="fill:#4c9b45"/><path d="M157.13,115.83h7.47l.73,4.53c3.06-2.94,6.24-5.2,10.64-5.2s7,2.14,8.26,5.26c2.94-2.94,6.42-5.26,10.71-5.26,6.11,0,9.23,3.73,9.23,9.91V148.5h-8.68V127.39c0-2.69-1-4.52-3.73-4.52-2.33,0-4.59,1.46-6.73,3.73v21.9h-8.69V127.39c0-2.69-1-4.52-3.79-4.52-2.33,0-4.53,1.46-6.73,3.73v21.9h-8.69Z" style="fill:#03a5d4"/><path d="M208.7,139.26V115.83h8.68v21.11c0,2.69,1.16,4.52,3.92,4.52,2.38,0,4.71-1.47,6.91-3.73v-21.9h8.69V148.5h-7.47L228.7,144c-3,2.88-6.42,5.2-10.71,5.2C211.88,149.17,208.7,145.44,208.7,139.26Z" style="fill:#ea6524"/><path d="M241.66,115.83h7.47l.73,4.53c3.06-2.88,6.42-5.2,10.71-5.2,6.11,0,9.36,3.73,9.36,9.91V148.5h-8.69V127.39c0-2.69-1.16-4.52-4-4.52-2.38,0-4.71,1.46-6.91,3.73v21.9h-8.69Z" style="fill:#4c7838"/><path d="M272.8,140.12c0-7.83,6.3-11.32,19.39-12.61v-.85c0-3.37-2-4.65-5.45-4.65a27,27,0,0,0-10.82,2.63l-1-6.79A32.37,32.37,0,0,1,288,115.22c8.62,0,12.91,3.06,12.91,11V148.5h-7.59l-.67-4.16c-2.69,2.69-5.94,4.83-10.65,4.83C276.47,149.17,272.8,145.93,272.8,140.12Zm19.39-.62v-7.15c-8.75,1.1-10.83,3.67-10.83,6.73a3.44,3.44,0,0,0,3.79,3.67A10.43,10.43,0,0,0,292.19,139.5Z" style="fill:#094c81"/><path d="M84.31,20c0-11.75,7.2-19.7,18-19.7A19.92,19.92,0,0,1,112.92,3l-1.15,7.3A14.86,14.86,0,0,0,102.71,7c-6.4,0-10.45,4.85-10.45,12.9s4.41,12.9,10.81,12.9a17.2,17.2,0,0,0,9.35-3l1.1,6.7a20.9,20.9,0,0,1-11.06,3.1C91.21,39.55,84.31,31.8,84.31,20Z" style="fill:#374a63"/><path d="M116.56,31.35V12.2h7.1V29.45c0,2.2,1,3.7,3.2,3.7,2,0,3.85-1.2,5.65-3V12.2h7.11V38.9h-6.11l-.59-3.7c-2.46,2.35-5.25,4.25-8.76,4.25C119.16,39.45,116.56,36.4,116.56,31.35Z" style="fill:#374a63"/><path d="M142.11,32.05c0-6.4,5.15-9.25,15.85-10.3v-.7c0-2.75-1.6-3.8-4.45-3.8a22.15,22.15,0,0,0-8.85,2.15l-.85-5.55a26.46,26.46,0,0,1,10.7-2.15c7.05,0,10.56,2.5,10.56,9V38.9h-6.21l-.55-3.4a11.81,11.81,0,0,1-8.7,4C145.11,39.45,142.11,36.8,142.11,32.05Zm15.85-.5V25.7c-7.15.9-8.85,3-8.85,5.5a2.81,2.81,0,0,0,3.1,3A8.51,8.51,0,0,0,158,31.55ZM154.46.9h8.6v.45L155.51,8.8h-4.7Z" style="fill:#374a63"/><path d="M169.11,0h7.1V38.9h-7.1Z" style="fill:#374a63"/><path d="M190.11,25.6c0-8.7,5.25-13.95,12.3-13.95,8.1,0,11.65,6,11.65,13.65,0,.65,0,1.45-.05,2.15H197.26c.35,4.45,3,6.6,7,6.6a16,16,0,0,0,9-3.15l.8,5.35a18.28,18.28,0,0,1-10.65,3.2C195.76,39.45,190.11,35.2,190.11,25.6Zm17.1-2.8c-.35-4.1-2-6.35-5-6.35-2.55,0-4.55,2.1-5,6.35Z" style="fill:#374a63"/><path d="M215.41,36.8l.9-5.95a19.71,19.71,0,0,0,9.9,3.15c2.65,0,3.95-.9,3.95-2.4s-.95-2.2-5-3.25c-6.6-1.7-9.35-3.55-9.35-8.55,0-4.8,3.7-8.1,10.1-8.1a24.35,24.35,0,0,1,9.6,2l-.95,5.9a19.61,19.61,0,0,0-8.65-2.45c-2.25,0-3.3.8-3.3,2.1s.9,1.95,4.75,2.95c7,1.85,9.65,3.7,9.65,8.7,0,5.45-3.85,8.55-10.85,8.55A24.16,24.16,0,0,1,215.41,36.8Z" style="fill:#374a63"/><path d="M249.21,25.6c0-8.7,5.25-13.95,12.3-13.95,8.1,0,11.65,6,11.65,13.65,0,.65,0,1.45-.05,2.15H256.36c.35,4.45,3,6.6,6.95,6.6a16,16,0,0,0,9.05-3.15l.8,5.35a18.28,18.28,0,0,1-10.65,3.2C254.86,39.45,249.21,35.2,249.21,25.6Zm17.1-2.8c-.35-4.1-1.95-6.35-4.95-6.35-2.55,0-4.55,2.1-5,6.35Z" style="fill:#374a63"/><path d="M276.11,0h7.1V38.9h-7.1Z" style="fill:#374a63"/><path d="M298.46,12.2h6.1l.6,3.6c1.9-2.15,4.45-4.15,8-4.15,5.55,0,10,4.15,10,13.2,0,9.95-5.5,14.35-11.6,14.35a18.05,18.05,0,0,1-6-1V48.45h-7.1Zm17.6,13.05c0-5-2.1-7.3-4.85-7.3-2.25,0-4,1.35-5.65,3.4V32.5a10.43,10.43,0,0,0,4.75,1C313.61,33.5,316.06,30.9,316.06,25.25Z" style="fill:#374a63"/><path d="M325.76,12.2h6.1l.85,5.35c1.7-3.1,4.25-5.7,8.35-5.9l1.15,7.1a12.48,12.48,0,0,0-9.35,4.95V38.9h-7.1Z" style="fill:#374a63"/><path d="M343.36,4a4.1,4.1,0,1,1,4.1,4A3.9,3.9,0,0,1,343.36,4Zm.55,8.25H351V38.9h-7.1Z" style="fill:#374a63"/><path d="M355.16,12.2h6.1l.6,3.7c2.5-2.35,5.25-4.25,8.75-4.25,5,0,7.65,3,7.65,8.1V38.9h-7.1V21.65c0-2.2-1-3.7-3.25-3.7-2,0-3.85,1.2-5.65,3.05V38.9h-7.1Z" style="fill:#374a63"/><path d="M380.66,25.7c0-9.35,5.85-14,13-14a15.17,15.17,0,0,1,8.2,2.15l-1,6.35a10.64,10.64,0,0,0-6.75-2.4c-3.65,0-6.35,2.65-6.35,7.75s2.9,7.75,6.75,7.75a10.61,10.61,0,0,0,6.7-2.4l.9,6a14.85,14.85,0,0,1-8.75,2.55C385.91,39.4,380.66,34.4,380.66,25.7Z" style="fill:#374a63"/><path d="M404.36,4a4.1,4.1,0,1,1,4.1,4A3.9,3.9,0,0,1,404.36,4Zm.55,8.25H412V38.9h-7.1Z" style="fill:#374a63"/><path d="M416.16,12.2h6.1l.6,3.6c1.9-2.15,4.45-4.15,8.05-4.15,5.55,0,9.95,4.15,9.95,13.2,0,9.95-5.5,14.35-11.6,14.35a18.05,18.05,0,0,1-6-1V48.45h-7.1Zm17.6,13.05c0-5-2.1-7.3-4.85-7.3-2.25,0-4,1.35-5.65,3.4V32.5a10.43,10.43,0,0,0,4.75,1C431.31,33.5,433.76,30.9,433.76,25.25Z" style="fill:#374a63"/><path d="M442.06,32.05c0-6.4,5.15-9.25,15.85-10.3v-.7c0-2.75-1.6-3.8-4.45-3.8a22.15,22.15,0,0,0-8.85,2.15l-.85-5.55a26.46,26.46,0,0,1,10.7-2.15c7.05,0,10.55,2.5,10.55,9V38.9h-6.2l-.55-3.4a11.81,11.81,0,0,1-8.7,4C445.06,39.45,442.06,36.8,442.06,32.05Zm15.85-.5V25.7c-7.15.9-8.85,3-8.85,5.5a2.81,2.81,0,0,0,3.1,3A8.51,8.51,0,0,0,457.91,31.55Z" style="fill:#374a63"/><path d="M469.06,0h7.1V38.9h-7.1Z" style="fill:#374a63"/><path d="M85.11,55.2h6.1l.6,3.6c1.9-2.15,4.45-4.15,8.06-4.15,5.55,0,9.95,4.15,9.95,13.2,0,10-5.5,14.35-11.61,14.35a18.05,18.05,0,0,1-6-1V91.45h-7.1Zm17.6,13c0-5-2.09-7.3-4.84-7.3-2.25,0-4,1.35-5.66,3.4V75.5a10.46,10.46,0,0,0,4.75,1C100.27,76.5,102.71,73.9,102.71,68.25Z" style="fill:#374a63"/><path d="M112.41,55.2h6.1l.85,5.35c1.7-3.1,4.26-5.7,8.35-5.9l1.16,7.1a12.49,12.49,0,0,0-9.36,5V81.9h-7.1Z" style="fill:#374a63"/><path d="M128.91,68.6c0-8.65,5.4-13.95,12.65-13.95s12.71,5.25,12.71,13.9-5.4,13.9-12.76,13.9S128.91,77.25,128.91,68.6Zm18.45,0c0-4.75-2.1-8.15-5.8-8.15s-5.75,3.3-5.75,8.1,2.05,8.1,5.75,8.1S147.36,73.35,147.36,68.6Z" style="fill:#374a63"/><path d="M156.81,80.4V43h7.1V58.15a10.46,10.46,0,0,1,7.45-3.5c5.6,0,10,4.15,10,13.2,0,9.8-5.36,14.4-13.41,14.4A33.09,33.09,0,0,1,156.81,80.4Zm17.4-12.15c0-5-2.05-7.3-4.8-7.3-2.1,0-3.9,1.35-5.5,3.2V75.8a10.19,10.19,0,0,0,3.85.65C171.66,76.45,174.21,74.1,174.21,68.25Z" style="fill:#374a63"/><path d="M184.21,43h7.1V81.9h-7.1Z" style="fill:#374a63"/><path d="M194.11,68.6c0-8.7,5.25-13.95,12.3-13.95,8.1,0,11.65,6.05,11.65,13.65,0,.65,0,1.45-.05,2.15H201.26c.35,4.45,3,6.6,7,6.6a16,16,0,0,0,9-3.15l.8,5.35a18.28,18.28,0,0,1-10.65,3.2C199.76,82.45,194.11,78.2,194.11,68.6Zm17.1-2.8c-.35-4.1-2-6.35-5-6.35-2.55,0-4.55,2.1-5,6.35Z" style="fill:#374a63"/><path d="M220.71,55.2h6.1l.6,3.7c2.5-2.4,5.1-4.25,8.7-4.25s5.75,1.75,6.75,4.3c2.4-2.4,5.25-4.3,8.76-4.3,5,0,7.55,3.05,7.55,8.1V81.9h-7.11V64.65c0-2.2-.8-3.7-3.05-3.7-1.9,0-3.75,1.2-5.5,3V81.9h-7.1V64.65c0-2.2-.85-3.7-3.1-3.7-1.9,0-3.7,1.2-5.5,3V81.9h-7.1Z" style="fill:#374a63"/><path d="M261.56,75.05c0-6.4,5.15-9.25,15.85-10.3v-.7c0-2.75-1.6-3.8-4.45-3.8a22.15,22.15,0,0,0-8.85,2.15l-.85-5.55A26.46,26.46,0,0,1,274,54.7c7.05,0,10.55,2.5,10.55,9V81.9h-6.2l-.55-3.4a11.81,11.81,0,0,1-8.7,4C264.56,82.45,261.56,79.8,261.56,75.05Zm15.85-.5V68.7c-7.15.9-8.85,3-8.85,5.5a2.81,2.81,0,0,0,3.1,3A8.51,8.51,0,0,0,277.41,74.55Z" style="fill:#374a63"/><path d="M315.46,79a10.27,10.27,0,0,1-7.45,3.5c-5.55,0-9.95-4.15-9.95-13.15,0-9.85,5.35-14.45,13.4-14.45a32.87,32.87,0,0,1,11.1,1.85V91.45h-7.1Zm0-6V61.3a9.85,9.85,0,0,0-3.85-.65c-3.9,0-6.4,2.35-6.4,8.2,0,5,2,7.3,4.8,7.3C312.11,76.15,313.86,74.8,315.46,73Z" style="fill:#374a63"/><path d="M326.36,74.35V55.2h7.1V72.45c0,2.2,1,3.7,3.2,3.7,1.95,0,3.85-1.2,5.65-3.05V55.2h7.1V81.9h-6.1l-.6-3.7c-2.45,2.35-5.25,4.25-8.75,4.25C329,82.45,326.36,79.4,326.36,74.35Z" style="fill:#374a63"/><path d="M352,68.6c0-8.7,5.25-13.95,12.3-13.95,8.1,0,11.65,6.05,11.65,13.65,0,.65,0,1.45-.05,2.15H359.11c.35,4.45,3,6.6,6.95,6.6a16,16,0,0,0,9.05-3.15l.8,5.35a18.28,18.28,0,0,1-10.65,3.2C357.61,82.45,352,78.2,352,68.6Zm17.1-2.8c-.35-4.1-1.95-6.35-4.95-6.35-2.55,0-4.55,2.1-5,6.35Z" style="fill:#374a63"/><path d="M388.31,68.6c0-8.7,5.25-13.95,12.3-13.95,8.1,0,11.65,6.05,11.65,13.65,0,.65,0,1.45-.05,2.15H395.46c.35,4.45,3,6.6,7,6.6a16,16,0,0,0,9-3.15l.8,5.35a18.28,18.28,0,0,1-10.65,3.2C394,82.45,388.31,78.2,388.31,68.6Zm17.1-2.8c-.35-4.1-2-6.35-5-6.35-2.55,0-4.55,2.1-5,6.35Z" style="fill:#374a63"/><path d="M414.91,55.2H421l.6,3.7c2.5-2.35,5.25-4.25,8.75-4.25,5,0,7.65,3.05,7.65,8.1V81.9h-7.1V64.65c0-2.2-1-3.7-3.25-3.7-2,0-3.85,1.2-5.65,3V81.9h-7.1Z" style="fill:#374a63"/><path d="M443.36,61h-3.8V55.2h3.8V51.1c0-6.15,3.55-8.55,9.25-8.55a23.56,23.56,0,0,1,3.55.3v5.7a8.3,8.3,0,0,0-2.5-.3,3,3,0,0,0-3.3,3.3V55.2h5.5V61h-5.5V81.9h-7Z" style="fill:#374a63"/><path d="M457.46,55.2h6.1l.85,5.35c1.7-3.1,4.25-5.7,8.35-5.9l1.15,7.1a12.48,12.48,0,0,0-9.35,5V81.9h-7.1Z" style="fill:#374a63"/><path d="M474,68.6c0-8.7,5.25-13.95,12.3-13.95,8.1,0,11.65,6.05,11.65,13.65,0,.65,0,1.45-.05,2.15H481.11c.35,4.45,3,6.6,6.95,6.6a16,16,0,0,0,9.05-3.15l.8,5.35a18.28,18.28,0,0,1-10.65,3.2C479.61,82.45,474,78.2,474,68.6Zm17.1-2.8c-.35-4.1-1.95-6.35-4.95-6.35-2.55,0-4.55,2.1-5,6.35Z" style="fill:#374a63"/><path d="M500.56,55.2h6.1l.6,3.7c2.5-2.35,5.25-4.25,8.75-4.25,5,0,7.65,3.05,7.65,8.1V81.9h-7.1V64.65c0-2.2-.95-3.7-3.25-3.7-1.95,0-3.85,1.2-5.65,3V81.9h-7.1Z" style="fill:#374a63"/><path d="M528.81,74.05V61h-3.7V55.2h3.7V46.45h7.05V55.2h5.75V61h-5.75V72.9c0,2.15,1,3.3,3.45,3.3a11.92,11.92,0,0,0,2.45-.25v6a14.45,14.45,0,0,1-3.85.4C532.51,82.35,528.81,80.35,528.81,74.05Z" style="fill:#374a63"/><path d="M543,75.05c0-6.4,5.15-9.25,15.85-10.3v-.7c0-2.75-1.6-3.8-4.45-3.8a22.15,22.15,0,0,0-8.85,2.15l-.85-5.55a26.46,26.46,0,0,1,10.7-2.15c7,0,10.55,2.5,10.55,9V81.9h-6.2l-.55-3.4a11.81,11.81,0,0,1-8.7,4C546,82.45,543,79.8,543,75.05Zm15.85-.5V68.7c-7.15.9-8.85,3-8.85,5.5a2.81,2.81,0,0,0,3.1,3A8.51,8.51,0,0,0,558.81,74.55Z" style="fill:#374a63"/><path d="M581.06,43h7.1V81.9h-7.1Z" style="fill:#374a63"/><path d="M590.91,75.05c0-6.4,5.15-9.25,15.85-10.3v-.7c0-2.75-1.6-3.8-4.45-3.8a22.15,22.15,0,0,0-8.85,2.15l-.85-5.55a26.46,26.46,0,0,1,10.7-2.15c7.05,0,10.55,2.5,10.55,9V81.9h-6.2l-.55-3.4a11.81,11.81,0,0,1-8.7,4C593.91,82.45,590.91,79.8,590.91,75.05Zm15.85-.5V68.7c-7.15.9-8.85,3-8.85,5.5a2.81,2.81,0,0,0,3.1,3A8.51,8.51,0,0,0,606.76,74.55Z" style="fill:#374a63"/><path d="M49.75,71.93l-1,.35C32.76,77.65,25.83,86,25.83,98.11c0,9.53,6.41,14.91,15.43,14.91,9.36,0,18-4.86,27.22-12.14l3.29,22.37c-9,7.45-20.11,12.65-35.54,12.65C14,135.9,0,122.9,0,99.67,0,80.6,11.62,66.21,30.34,59.45l1.38-14.21H47.33Zm3.12-41.26H26.7V1.72H52.87Z" style="fill:#216734"/><path d="M677.59,200.43l.68-.22c9.65-4,15-9,15-16.91,0-6.25-4.2-9.76-10.1-9.76-6.13,0-11.81,3.17-17.82,7.94l-2.16-14.64a34.85,34.85,0,0,1,23.27-8.29c14.53,0,23.72,8.52,23.72,23.72,0,12.49-7.6,21.91-19.86,26.34l-.91,9.3H679.18Zm-2.05,27h17.14v19H675.54Z" style="fill:#216734"/><path d="M85.81,207.46l.9-6a19.72,19.72,0,0,0,9.91,3.15c2.64,0,3.95-.9,3.95-2.4s-.95-2.2-5-3.25c-6.6-1.7-9.35-3.55-9.35-8.55,0-4.8,3.7-8.1,10.1-8.1a24.36,24.36,0,0,1,9.61,1.95l-1,5.9a19.62,19.62,0,0,0-8.66-2.45c-2.25,0-3.3.8-3.3,2.1s.91,1.95,4.75,2.95c7,1.85,9.66,3.7,9.66,8.7,0,5.45-3.85,8.55-10.86,8.55A24.16,24.16,0,0,1,85.81,207.46Z" style="fill:#3fad49"/><path d="M108.51,196.26c0-8.7,5.25-13.95,12.3-13.95,8.1,0,11.65,6.05,11.65,13.65,0,.65,0,1.45,0,2.15H115.66c.35,4.45,3,6.6,7,6.6a16.06,16.06,0,0,0,9.06-3.15l.79,5.35a18.28,18.28,0,0,1-10.65,3.2C114.16,210.11,108.51,205.86,108.51,196.26Zm17.1-2.8c-.35-4.1-2-6.35-5-6.35-2.55,0-4.55,2.1-5,6.35Z" style="fill:#3fad49"/><path d="M135.51,217.61l1.05-5.7a18.45,18.45,0,0,0,8.6,2.2c4.05,0,6.05-1.9,6.05-5.5v-2.7a10.27,10.27,0,0,1-7.45,3.5c-5.55,0-9.95-4.15-9.95-12.85,0-9.5,5.35-14.05,13.4-14.05a32.87,32.87,0,0,1,11.1,1.85v23.95c0,7.2-4.1,11.25-12.6,11.25A26.47,26.47,0,0,1,135.51,217.61Zm15.7-17.5V189a9.85,9.85,0,0,0-3.85-.65c-3.9,0-6.4,2.4-6.4,7.95,0,4.75,2,7.05,4.8,7.05C147.86,203.31,149.61,202,151.21,200.11Z" style="fill:#3fad49"/><path d="M162.11,202V182.86h7.1v17.25c0,2.2.95,3.7,3.2,3.7,2,0,3.85-1.2,5.65-3.05v-17.9h7.1v26.7h-6.1l-.6-3.7c-2.45,2.35-5.25,4.25-8.75,4.25C164.71,210.11,162.11,207.06,162.11,202ZM174,171.56h8.6V172L175,179.46h-4.7Z" style="fill:#3fad49"/><path d="M189.06,182.86h6.1l.6,3.7c2.5-2.35,5.25-4.25,8.75-4.25,5,0,7.65,3.05,7.65,8.1v19.15h-7.1V192.31c0-2.2-.95-3.7-3.25-3.7-1.95,0-3.85,1.2-5.65,3v17.9h-7.1Z" style="fill:#3fad49"/><path d="M227.31,170.66h7.1v38.9h-7.1Z" style="fill:#3fad49"/><path d="M237.21,196.26c0-8.65,5.4-13.95,12.65-13.95s12.7,5.25,12.7,13.9-5.4,13.9-12.75,13.9S237.21,204.91,237.21,196.26Zm18.45,0c0-4.75-2.1-8.15-5.8-8.15s-5.75,3.3-5.75,8.1,2,8.1,5.75,8.1S255.66,201,255.66,196.26Z" style="fill:#3fad49"/><path d="M263.81,207.46l.9-6a19.71,19.71,0,0,0,9.9,3.15c2.65,0,3.95-.9,3.95-2.4s-.95-2.2-5-3.25c-6.6-1.7-9.35-3.55-9.35-8.55,0-4.8,3.7-8.1,10.1-8.1a24.35,24.35,0,0,1,9.6,1.95l-1,5.9a19.61,19.61,0,0,0-8.65-2.45c-2.25,0-3.3.8-3.3,2.1s.9,1.95,4.75,2.95c7,1.85,9.65,3.7,9.65,8.7,0,5.45-3.85,8.55-10.85,8.55A24.16,24.16,0,0,1,263.81,207.46Z" style="fill:#3fad49"/><path d="M299,170.66h7.1v15.55c2.25-2.05,4.95-3.9,8.4-3.9,5.05,0,7.7,3.05,7.7,8.1v19.15h-7.1V192.31c0-2.2-.95-3.7-3.3-3.7-1.95,0-3.9,1.2-5.7,3v17.9H299Z" style="fill:#3fad49"/><path d="M324.56,196.26c0-8.65,5.4-13.95,12.65-13.95s12.7,5.25,12.7,13.9-5.4,13.9-12.75,13.9S324.56,204.91,324.56,196.26Zm18.45,0c0-4.75-2.1-8.15-5.8-8.15s-5.75,3.3-5.75,8.1,2.05,8.1,5.75,8.1S343,201,343,196.26Z" style="fill:#3fad49"/><path d="M352.46,182.86h6.1l.6,3.7c2.5-2.4,5.1-4.25,8.7-4.25s5.75,1.75,6.75,4.3c2.4-2.4,5.25-4.3,8.75-4.3,5,0,7.55,3.05,7.55,8.1v19.15h-7.1V192.31c0-2.2-.8-3.7-3.05-3.7-1.9,0-3.75,1.2-5.5,3v17.9h-7.1V192.31c0-2.2-.85-3.7-3.1-3.7-1.9,0-3.7,1.2-5.5,3v17.9h-7.1Z" style="fill:#3fad49"/><path d="M394.71,208.06v-37.4h7.1v15.15a10.46,10.46,0,0,1,7.45-3.5c5.6,0,9.95,4.15,9.95,13.2,0,9.8-5.35,14.4-13.4,14.4A33.09,33.09,0,0,1,394.71,208.06Zm17.4-12.15c0-5-2.05-7.3-4.8-7.3-2.1,0-3.9,1.35-5.5,3.2v11.65a10.19,10.19,0,0,0,3.85.65C409.56,204.11,412.11,201.76,412.11,195.91Z" style="fill:#3fad49"/><path d="M421.81,182.86h6.1l.85,5.35c1.7-3.1,4.25-5.7,8.35-5.9l1.15,7.1a12.48,12.48,0,0,0-9.35,5v15.2h-7.1Z" style="fill:#3fad49"/><path d="M438.31,196.26c0-8.7,5.25-13.95,12.3-13.95,8.1,0,11.65,6.05,11.65,13.65,0,.65,0,1.45-.05,2.15H445.46c.35,4.45,3,6.6,7,6.6a16,16,0,0,0,9-3.15l.8,5.35a18.28,18.28,0,0,1-10.65,3.2C444,210.11,438.31,205.86,438.31,196.26Zm17.1-2.8c-.35-4.1-2-6.35-5-6.35-2.55,0-4.55,2.1-5,6.35Z" style="fill:#3fad49"/><path d="M463.61,207.46l.9-6a19.71,19.71,0,0,0,9.9,3.15c2.65,0,3.95-.9,3.95-2.4s-.95-2.2-5-3.25c-6.6-1.7-9.35-3.55-9.35-8.55,0-4.8,3.7-8.1,10.1-8.1a24.35,24.35,0,0,1,9.6,1.95l-.95,5.9a19.61,19.61,0,0,0-8.65-2.45c-2.25,0-3.3.8-3.3,2.1s.9,1.95,4.75,2.95c7,1.85,9.65,3.7,9.65,8.7,0,5.45-3.85,8.55-10.85,8.55A24.16,24.16,0,0,1,463.61,207.46Z" style="fill:#3fad49"/><path d="M494.91,219.36l-.9-5.7a8.33,8.33,0,0,0,2.1.25c1.75,0,2.95-.85,2.95-3.25v-27.8h7.1v28.35c0,6-3.5,8.35-8.6,8.35A12.37,12.37,0,0,1,494.91,219.36Zm3.6-44.75a4.1,4.1,0,1,1,4.1,3.95A3.89,3.89,0,0,1,498.51,174.61Z" style="fill:#3fad49"/><path d="M509,196.26c0-8.65,5.4-13.95,12.65-13.95s12.7,5.25,12.7,13.9-5.4,13.9-12.75,13.9S509,204.91,509,196.26Zm18.45,0c0-4.75-2.1-8.15-5.8-8.15s-5.75,3.3-5.75,8.1,2,8.1,5.75,8.1S527.41,201,527.41,196.26Zm-4.65-24.7h8.6V172l-7.55,7.45h-4.7Z" style="fill:#3fad49"/><path d="M534.41,182.86h7.8l5.6,17.95,5.5-17.95h7l-9.4,26.8h-7Z" style="fill:#3fad49"/><path d="M560.41,196.26c0-8.7,5.25-13.95,12.3-13.95,8.1,0,11.65,6.05,11.65,13.65,0,.65,0,1.45-.05,2.15H567.56c.35,4.45,3,6.6,7,6.6a16,16,0,0,0,9-3.15l.8,5.35a18.28,18.28,0,0,1-10.65,3.2C566.05,210.11,560.41,205.86,560.41,196.26Zm17.1-2.8c-.35-4.1-2-6.35-5-6.35-2.55,0-4.56,2.1-5,6.35Z" style="fill:#3fad49"/><path d="M587,182.86h6.11l.6,3.7c2.5-2.35,5.25-4.25,8.75-4.25,5,0,7.65,3.05,7.65,8.1v19.15H603V192.31c0-2.2-1-3.7-3.25-3.7-2,0-3.85,1.2-5.65,3v17.9H587Z" style="fill:#3fad49"/><path d="M612.5,196.26c0-8.7,5.25-13.95,12.3-13.95,8.11,0,11.66,6.05,11.66,13.65,0,.65,0,1.45-.05,2.15H619.66c.34,4.45,3,6.6,7,6.6a16,16,0,0,0,9-3.15l.8,5.35a18.28,18.28,0,0,1-10.65,3.2C618.15,210.11,612.5,205.86,612.5,196.26Zm17.11-2.8c-.35-4.1-2-6.35-5-6.35-2.55,0-4.56,2.1-5,6.35Z" style="fill:#3fad49"/><path d="M637.8,207.46l.9-6a19.78,19.78,0,0,0,9.91,3.15c2.64,0,3.95-.9,3.95-2.4s-.95-2.2-5-3.25c-6.59-1.7-9.35-3.55-9.35-8.55,0-4.8,3.7-8.1,10.1-8.1a24.36,24.36,0,0,1,9.61,1.95l-.95,5.9a19.62,19.62,0,0,0-8.66-2.45c-2.25,0-3.3.8-3.3,2.1s.91,1.95,4.75,2.95c7,1.85,9.66,3.7,9.66,8.7,0,5.45-3.85,8.55-10.86,8.55A24.19,24.19,0,0,1,637.8,207.46Z" style="fill:#3fad49"/><g id="joven_hombre"><path d="M34.17,239.86a4.61,4.61,0,0,0,4.51,4.52,4.72,4.72,0,0,0,4.51-4.52v-3.34H34v3.34Z" style="fill:#216734"/><path d="M45.87,239.86a4.57,4.57,0,0,0,5,4.18,4.23,4.23,0,0,0,4.17-4.18v-3.34H45.87Z" style="fill:#216734"/><path d="M36.34,176.34V167H35a10.9,10.9,0,0,0-9.86,10.87v22.9a3.15,3.15,0,0,0,3.34,2.85,3.06,3.06,0,0,0,2.85-2.85V181.35c0-.83.16-1.67,1.5-1.67h3.34l.17-3.34Z" style="fill:#216734"/><polygon points="39.85 174.33 49.72 174.33 49.72 167.14 44.53 167.14 39.85 167.14 39.85 174.33" style="fill:#216734"/><path d="M51.89,181.52h-.84v-5.18H38.35v5.18H34.17v52.66h9.19V205.43c0-.84.34-1.34,1.17-1.34h.17c.84,0,1.34.33,1.34,1.17v28.92h9.19V181.52Z" style="fill:#216734"/><path d="M54.23,167.14h-1v12.37h3c1.34,0,1.51,1,1.51,1.67v19.56a3.15,3.15,0,0,0,3.34,2.85,3.06,3.06,0,0,0,2.85-2.85v-22.9a10.71,10.71,0,0,0-9.7-10.7" style="fill:#216734"/><path d="M50.38,175a1,1,0,1,0,1-1c-.5.16-1,.5-1,1" style="fill:#216734"/><path d="M37.18,175a1,1,0,1,0,1-1c-.67.16-1,.5-1,1" style="fill:#216734"/><path d="M50.05,154.1c-.84-.5-1.34-1.17-2.51-.5a9.23,9.23,0,0,0-2.17,1.17A16.09,16.09,0,0,1,40,156.28a36.77,36.77,0,0,1-4.18.33,8.65,8.65,0,0,0,17.22.17c-1.17-.84-2-1.84-3-2.68" style="fill:#216734"/><path d="M35.84,154.77a33.87,33.87,0,0,0,4-.33,22.08,22.08,0,0,0,4.68-1.51c1.34-.5,2.68-1.17,2.68-1.17a2.92,2.92,0,0,1,1.67-.17c.33.17.5.34.83.51l.51.5s.33.33,2.34,1.84c.16.16.33.33.5.33a7.46,7.46,0,0,0,.17-2.34,10.75,10.75,0,0,0-2.34-6,2,2,0,0,0-1.84-.83c-1.17.16-1.17-.51-1.84-1.17a7.69,7.69,0,0,0-7.36,1.17,18.12,18.12,0,0,0-5.52,7.69c-.5.83.34,1.5,1.51,1.5" style="fill:#216734"/></g><text id="svg_nombre_comuna" transform="translate(308.31 152.48)" style="font-size:68.67402648925781px;fill:#067dba;font-family:UNFPA-Bold;font-weight:700;letter-spacing:-0.05000554367941668em">Popular</text></g></g></svg>