<svg xmlns="http://www.w3.org/2000/svg" viewBox="0 0 672.23 306.2"><title>Asset 16</title><g id="Layer_2" data-name="Layer 2"><g id="Capa_1" data-name="Capa 1"><text transform="translate(123.89 68.38)" style="font-size:77.70355224609375px;fill:#df1a82;font-family:UNFPA-Bold;font-weight:700;letter-spacing:-0.04999783990982606em">Las mujeres<tspan style="letter-spacing:-0.05000098185916998em"><tspan x="0" y="66.83">adultas mayores</tspan></tspan></text><g id="adulto_mayor_mujer"><path d="M37.91,43.48a7.6,7.6,0,0,0,.82,2.87v.41L40,49.22v.41a8.58,8.58,0,0,0,1.64,2.46.4.4,0,0,0,.41.41,19.53,19.53,0,0,0,4.11,4.11h.41c.82.41,1.64,1.23,2.46,1.64h0a23.71,23.71,0,0,0,5.74,2h.41c.82,0,2,.41,3.28.41a9.11,9.11,0,0,0,3.29-.41h.41a23.71,23.71,0,0,0,5.74-2h0a8.58,8.58,0,0,0,2.46-1.64h.41a19.25,19.25,0,0,0,4.1-4.11.4.4,0,0,1,.41-.41c.41-.82,1.23-1.64,1.64-2.46v-.41l1.23-2.46v-.41c.41-.82.41-2.05.82-2.87v-.82c0-.82.41-2,.41-2.87A21.4,21.4,0,0,0,68.27,21.33a8.09,8.09,0,0,0,2.46-4.93c0-4.51-4.92-8.2-11.49-8.2-6.15,0-11.48,3.69-11.48,8.2a8.6,8.6,0,0,0,1.64,4.52A21,21,0,0,0,37.5,39.79a6.08,6.08,0,0,0,.41,2.87Z" style="fill:#a71f65"/><path d="M115.86,143.16c3.69-2.87,2-10.66,2-10.66L100.68,76.3S94.52,59.89,81,59.89H76.47a25.91,25.91,0,0,1-34.46,0H37.5C24,59.89,17.81,76.3,17.81,76.3L.58,132.5s-3.28,10.25,5.74,12.72c8.62,2.46,11.49-7.39,11.49-7.39l14-47.17S32.58,87,35,87.78c2.87.82,1.64,4.52,1.64,4.52l-24.2,88.19H35v63.18a10.67,10.67,0,0,0,21.33,0V180.49h6.16v63.18a10.67,10.67,0,0,0,21.33,0V180.49h22.56L82.22,92.3s-.82-3.7,1.64-4.52c2.87-.82,3.28,2.88,3.28,2.88l14,47.17s2,7.8,8.61,7.8C109.29,145.63,112.16,146,115.86,143.16Z" style="fill:#a71f65"/></g><text transform="translate(122.93 189.63)" style="font-size:53.937408447265625px;fill:#14486d;font-family:UNFPA-Bold;font-weight:700;letter-spacing:-0.0500073270601628em">piensan que<tspan style="letter-spacing:-0.049989221583312635em"><tspan x="28.48" y="52.32">el principal</tspan></tspan><tspan x="-63.21" y="104.64">problema de la</tspan></text><text transform="translate(425.28 296.73)" style="font-size:46px;fill:#14486d;font-family:UNFPA-Bold;font-weight:700;letter-spacing:-0.05000636888586957em">es</text><text transform="translate(423.11 203.85)" style="font-size:68.67402648925781px;fill:#de1f26;font-family:UNFPA-Bold;font-weight:700;letter-spacing:-0.0499984335495035em">C<tspan x="43.33" y="0" style="fill:#4c9b45;letter-spacing:-0.05000554367941668em">o</tspan><tspan x="79.8" y="0" style="fill:#03a5d4">m</tspan><tspan x="137.83" y="0" style="fill:#ea6524;letter-spacing:-0.05000554367941668em">u</tspan><tspan x="174.7" y="0" style="fill:#4c7838">n</tspan><tspan x="211.58" y="0" style="fill:#094c81">a</tspan></text><text id="svg_nombre_comuna" transform="translate(420.91 261.74)" style="font-size:68.67402648925781px;fill:#067dba;font-family:UNFPA-Bold;font-weight:700;letter-spacing:-0.05000554367941668em">Popular</text></g></g></svg>