<svg xmlns="http://www.w3.org/2000/svg" viewBox="0 0 958.21 285.91"><title>Asset 13</title><g id="Layer_2" data-name="Layer 2"><g id="Capa_1" data-name="Capa 1"><path d="M103,28.3h11.19V72.59h18.33v9.92H103Z" style="fill:#df1a82"/><path d="M133.92,72.74c0-9.13,7.35-13.2,22.61-14.7v-1c0-3.93-2.29-5.43-6.35-5.43a31.61,31.61,0,0,0-12.62,3.07l-1.22-7.91a37.69,37.69,0,0,1,15.27-3.07c10,0,15,3.57,15,12.84v26h-8.84L157,77.66c-3.14,3.13-6.92,5.63-12.41,5.63C138.2,83.29,133.92,79.51,133.92,72.74ZM156.53,72V63.68C146.33,65,143.9,68,143.9,71.52c0,2.71,1.72,4.28,4.43,4.28C151.25,75.8,154,74.38,156.53,72Z" style="fill:#df1a82"/><path d="M170.15,79.51,171.44,71a28.11,28.11,0,0,0,14.12,4.5c3.78,0,5.63-1.29,5.63-3.43s-1.35-3.13-7.13-4.63c-9.41-2.43-13.34-5.07-13.34-12.2,0-6.84,5.28-11.55,14.41-11.55a34.75,34.75,0,0,1,13.69,2.78l-1.35,8.42a28,28,0,0,0-12.34-3.5c-3.21,0-4.71,1.14-4.71,3s1.29,2.78,6.78,4.21C197.18,61.25,201,63.89,201,71c0,7.78-5.49,12.2-15.47,12.2A34.44,34.44,0,0,1,170.15,79.51Z" style="fill:#df1a82"/><path d="M220.29,44.42H229l.86,5.28c3.57-3.42,7.27-6.06,12.41-6.06s8.2,2.49,9.63,6.13c3.42-3.42,7.49-6.13,12.48-6.13,7.13,0,10.77,4.35,10.77,11.55V82.51H265V57.9c0-3.14-1.14-5.28-4.35-5.28-2.71,0-5.35,1.72-7.84,4.35V82.51H242.69V57.9c0-3.14-1.21-5.28-4.42-5.28-2.71,0-5.28,1.72-7.85,4.35V82.51H220.29Z" style="fill:#df1a82"/><path d="M280.42,71.74V44.42h10.13V69c0,3.13,1.35,5.27,4.56,5.27,2.78,0,5.49-1.71,8.06-4.34V44.42H313.3V82.51h-8.7l-.86-5.28c-3.49,3.35-7.49,6.06-12.48,6.06C284.13,83.29,280.42,78.94,280.42,71.74Z" style="fill:#df1a82"/><path d="M313.37,96.49l-1.28-8.13a12,12,0,0,0,3,.35c2.5,0,4.21-1.21,4.21-4.63V44.42h10.13V84.86c0,8.56-5,11.91-12.27,11.91A18.06,18.06,0,0,1,313.37,96.49Zm5.14-63.84a5.85,5.85,0,1,1,5.85,5.64A5.55,5.55,0,0,1,318.51,32.65Z" style="fill:#df1a82"/><path d="M333.41,63.54c0-12.41,7.49-19.9,17.55-19.9,11.55,0,16.62,8.63,16.62,19.47,0,.93,0,2.07-.07,3.06h-23.9c.5,6.35,4.28,9.42,9.92,9.42,4.63,0,8.77-1.71,12.91-4.49l1.14,7.63a26.11,26.11,0,0,1-15.19,4.56C341.47,83.29,333.41,77.23,333.41,63.54Zm24.4-4c-.5-5.85-2.79-9.06-7.07-9.06-3.63,0-6.48,3-7.13,9.06Z" style="fill:#df1a82"/><path d="M371.36,44.42h8.7l1.21,7.63c2.43-4.42,6.06-8.13,11.91-8.41l1.64,10.12a17.81,17.81,0,0,0-13.33,7.07V82.51H371.36Z" style="fill:#df1a82"/><path d="M394.9,63.54c0-12.41,7.49-19.9,17.54-19.9,11.55,0,16.62,8.63,16.62,19.47,0,.93,0,2.07-.07,3.06H405.1c.49,6.35,4.27,9.42,9.91,9.42,4.63,0,8.77-1.71,12.91-4.49l1.14,7.63a26.11,26.11,0,0,1-15.19,4.56C403,83.29,394.9,77.23,394.9,63.54Zm24.39-4c-.5-5.85-2.78-9.06-7.06-9.06-3.64,0-6.49,3-7.13,9.06Z" style="fill:#df1a82"/><path d="M431,79.51,432.27,71a28.14,28.14,0,0,0,14.12,4.5c3.78,0,5.64-1.29,5.64-3.43s-1.36-3.13-7.14-4.63c-9.41-2.43-13.33-5.07-13.33-12.2,0-6.84,5.27-11.55,14.4-11.55a34.8,34.8,0,0,1,13.7,2.78l-1.36,8.42A28,28,0,0,0,446,51.41c-3.21,0-4.7,1.14-4.7,3s1.28,2.78,6.77,4.21c10,2.63,13.77,5.27,13.77,12.4,0,7.78-5.49,12.2-15.48,12.2A34.39,34.39,0,0,1,431,79.51Z" style="fill:#df1a82"/><path d="M479.13,72.74c0-9.13,7.35-13.2,22.61-14.7v-1c0-3.93-2.28-5.43-6.35-5.43a31.61,31.61,0,0,0-12.62,3.07l-1.21-7.91a37.6,37.6,0,0,1,15.26-3.07c10.05,0,15.05,3.57,15.05,12.84v26H503l-.78-4.85c-3.14,3.13-6.92,5.63-12.41,5.63C483.41,83.29,479.13,79.51,479.13,72.74ZM501.74,72V63.68C491.54,65,489.12,68,489.12,71.52c0,2.71,1.71,4.28,4.42,4.28C496.46,75.8,499.24,74.38,501.74,72Z" style="fill:#df1a82"/><path d="M515.36,64.53c0-14.26,7.85-20.54,16.55-20.54a25.83,25.83,0,0,1,8.56,1.43V27H550.6V82.51h-8.7L541,77.37c-2.71,3.07-6.35,5.92-11.48,5.92C521.64,83.29,515.36,77.37,515.36,64.53Zm25.11,4.93V53.55a14.85,14.85,0,0,0-6.78-1.43c-4.7,0-8.13,3.71-8.13,11.77,0,7.13,2.93,10.41,6.92,10.41C535.62,74.3,538.12,72.38,540.47,69.46Z" style="fill:#df1a82"/><path d="M556,71.74V44.42h10.13V69c0,3.13,1.35,5.27,4.56,5.27,2.78,0,5.49-1.71,8.06-4.34V44.42H588.9V82.51h-8.7l-.86-5.28c-3.49,3.35-7.49,6.06-12.48,6.06C559.73,83.29,556,78.94,556,71.74Z" style="fill:#df1a82"/><path d="M594.89,27H605V82.51H594.89Z" style="fill:#df1a82"/><path d="M612.94,71.31V52.7h-5.28V44.42h5.28V31.94h10V44.42h8.2V52.7H623v17c0,3.07,1.43,4.71,4.92,4.71a17.29,17.29,0,0,0,3.5-.36v8.56a20.57,20.57,0,0,1-5.49.57C618.21,83.15,612.94,80.3,612.94,71.31Z" style="fill:#df1a82"/><path d="M633.12,72.74c0-9.13,7.35-13.2,22.61-14.7v-1c0-3.93-2.28-5.43-6.35-5.43a31.61,31.61,0,0,0-12.62,3.07l-1.21-7.91a37.6,37.6,0,0,1,15.26-3.07c10.05,0,15.05,3.57,15.05,12.84v26H657l-.78-4.85c-3.14,3.13-6.92,5.63-12.41,5.63C637.4,83.29,633.12,79.51,633.12,72.74ZM655.73,72V63.68C645.53,65,643.11,68,643.11,71.52c0,2.71,1.71,4.28,4.42,4.28C650.45,75.8,653.23,74.38,655.73,72Z" style="fill:#df1a82"/><path d="M669.35,79.51,670.64,71a28.14,28.14,0,0,0,14.12,4.5c3.78,0,5.63-1.29,5.63-3.43S689,69,683.26,67.46c-9.41-2.43-13.33-5.07-13.33-12.2,0-6.84,5.27-11.55,14.4-11.55A34.83,34.83,0,0,1,698,46.49l-1.36,8.42a28,28,0,0,0-12.34-3.5c-3.21,0-4.71,1.14-4.71,3s1.29,2.78,6.78,4.21c10,2.63,13.76,5.27,13.76,12.4,0,7.78-5.49,12.2-15.47,12.2A34.44,34.44,0,0,1,669.35,79.51Z" style="fill:#df1a82"/><path d="M.6,217.3c0-8,5-12.84,11.64-12.84s11.69,4.83,11.69,12.79S19,230,12.2,230,.6,225.26.6,217.3Zm17,0c0-4.37-1.93-7.5-5.34-7.5S7,212.84,7,217.25s1.89,7.46,5.29,7.46S17.58,221.67,17.58,217.3Z" style="fill:#374a63"/><path d="M26.27,205h5.61l.55,3.31c1.75-2,4.1-3.82,7.41-3.82,5.11,0,9.16,3.82,9.16,12.15,0,9.15-5.06,13.2-10.68,13.2a16.52,16.52,0,0,1-5.52-.92v9.43H26.27Zm16.19,12c0-4.6-1.93-6.72-4.46-6.72-2.07,0-3.68,1.24-5.2,3.13v10.26a9.58,9.58,0,0,0,4.37.92C40.21,224.57,42.46,222.18,42.46,217Z" style="fill:#374a63"/><path d="M51.16,197.38a3.77,3.77,0,0,1,7.54,0,3.77,3.77,0,0,1-7.54,0Zm.5,7.59h6.53v24.57H51.66Z" style="fill:#374a63"/><path d="M62,205h5.61l.56,3.4c2.3-2.16,4.83-3.91,8-3.91,4.6,0,7,2.81,7,7.46v17.62H76.73V213.66c0-2-.87-3.4-3-3.4-1.79,0-3.54,1.11-5.2,2.81v16.47H62Z" style="fill:#374a63"/><path d="M85.43,223.23c0-5.88,4.73-8.51,14.58-9.47v-.65c0-2.53-1.47-3.49-4.1-3.49a20.54,20.54,0,0,0-8.14,2l-.78-5.1a24.27,24.27,0,0,1,9.84-2c6.49,0,9.71,2.3,9.71,8.28v16.75h-5.7l-.51-3.13a10.87,10.87,0,0,1-8,3.63C88.18,230,85.43,227.6,85.43,223.23Zm14.58-.46v-5.38c-6.58.83-8.14,2.76-8.14,5.06a2.58,2.58,0,0,0,2.85,2.76A7.84,7.84,0,0,0,100,222.77Z" style="fill:#374a63"/><path d="M110,205h5.61l.55,3.4c2.3-2.16,4.83-3.91,8.06-3.91,4.6,0,7,2.81,7,7.46v17.62h-6.53V213.66c0-2-.87-3.4-3-3.4-1.79,0-3.54,1.11-5.2,2.81v16.47H110Z" style="fill:#374a63"/><path d="M143.71,227.6l.83-5.47a18.12,18.12,0,0,0,9.1,2.9c2.44,0,3.64-.83,3.64-2.21s-.88-2-4.6-3c-6.07-1.56-8.6-3.27-8.6-7.87,0-4.41,3.4-7.45,9.29-7.45a22.46,22.46,0,0,1,8.83,1.79l-.87,5.43a18.07,18.07,0,0,0-8-2.25c-2.07,0-3,.73-3,1.93s.83,1.8,4.37,2.71c6.44,1.71,8.88,3.41,8.88,8,0,5-3.54,7.87-10,7.87A22.21,22.21,0,0,1,143.71,227.6Z" style="fill:#374a63"/><path d="M164.59,217.3c0-8,5-12.84,11.64-12.84s11.69,4.83,11.69,12.79S183,230,176.18,230,164.59,225.26,164.59,217.3Zm17,0c0-4.37-1.94-7.5-5.34-7.5s-5.29,3-5.29,7.45,1.89,7.46,5.29,7.46S181.57,221.67,181.57,217.3Z" style="fill:#374a63"/><path d="M190.26,228.16V193.75h6.53v13.93a9.63,9.63,0,0,1,6.86-3.22c5.15,0,9.15,3.82,9.15,12.15,0,9-4.92,13.25-12.33,13.25A30.62,30.62,0,0,1,190.26,228.16Zm16-11.18c0-4.6-1.89-6.72-4.42-6.72-1.93,0-3.59,1.24-5.06,3v10.71a9.25,9.25,0,0,0,3.54.6C203.92,224.52,206.27,222.36,206.27,217Z" style="fill:#374a63"/><path d="M215.19,205h5.61l.78,4.92c1.57-2.85,3.92-5.24,7.69-5.43l1.06,6.54a11.49,11.49,0,0,0-8.61,4.55v14h-6.53Z" style="fill:#374a63"/><path d="M230.37,217.3c0-8,4.83-12.84,11.32-12.84,7.45,0,10.72,5.57,10.72,12.56,0,.6,0,1.34,0,2H237c.32,4.1,2.76,6.07,6.39,6.07a14.76,14.76,0,0,0,8.33-2.89l.74,4.92a16.83,16.83,0,0,1-9.8,2.94C235.57,230,230.37,226.13,230.37,217.3Zm15.73-2.58c-.32-3.77-1.79-5.84-4.55-5.84-2.35,0-4.19,1.93-4.6,5.84Z" style="fill:#374a63"/><path d="M263.81,217.3c0-8,4.83-12.84,11.32-12.84,7.45,0,10.72,5.57,10.72,12.56,0,.6,0,1.34-.05,2H270.39c.32,4.1,2.76,6.07,6.39,6.07a14.76,14.76,0,0,0,8.33-2.89l.74,4.92a16.83,16.83,0,0,1-9.8,2.94C269,230,263.81,226.13,263.81,217.3Zm15.73-2.58c-.32-3.77-1.79-5.84-4.55-5.84-2.35,0-4.19,1.93-4.6,5.84Z" style="fill:#374a63"/><path d="M288.56,193.75h6.53v35.79h-6.53Z" style="fill:#374a63"/><path d="M1.84,246H7.46L8,249.28c1.75-2,4.09-3.82,7.41-3.82,5.1,0,9.15,3.82,9.15,12.15,0,9.15-5.06,13.2-10.67,13.2a16.47,16.47,0,0,1-5.52-.92v9.43H1.84ZM18,258c0-4.6-1.93-6.72-4.46-6.72-2.07,0-3.69,1.24-5.2,3.13v10.26a9.55,9.55,0,0,0,4.37.92C15.78,265.57,18,263.18,18,258Z" style="fill:#374a63"/><path d="M27,246h5.61l.78,4.92c1.57-2.85,3.92-5.24,7.69-5.43L42.1,252a11.49,11.49,0,0,0-8.61,4.55v14H27Z" style="fill:#374a63"/><path d="M43.15,238.38a3.78,3.78,0,0,1,7.55,0,3.78,3.78,0,0,1-7.55,0Zm.51,7.59h6.53v24.57H43.66Z" style="fill:#374a63"/><path d="M54,246h5.61l.55,3.4c2.3-2.16,4.83-3.91,8-3.91,4.6,0,7,2.81,7,7.46v17.62H68.73V254.66c0-2-.88-3.4-3-3.4-1.8,0-3.54,1.11-5.2,2.81v16.47H54Z" style="fill:#374a63"/><path d="M77.47,258.39c0-8.6,5.38-12.88,12-12.88a13.92,13.92,0,0,1,7.55,2l-.92,5.84a9.77,9.77,0,0,0-6.21-2.21c-3.36,0-5.84,2.44-5.84,7.13s2.66,7.13,6.21,7.13a9.77,9.77,0,0,0,6.16-2.2l.83,5.47a13.64,13.64,0,0,1-8,2.35C82.3,271,77.47,266.4,77.47,258.39Z" style="fill:#374a63"/><path d="M99.27,238.38a3.78,3.78,0,0,1,7.55,0,3.78,3.78,0,0,1-7.55,0Zm.51,7.59h6.53v24.57H99.78Z" style="fill:#374a63"/><path d="M110.13,246h5.61l.55,3.31c1.75-2,4.1-3.82,7.41-3.82,5.11,0,9.15,3.82,9.15,12.15,0,9.15-5.06,13.2-10.67,13.2a16.52,16.52,0,0,1-5.52-.92v9.43h-6.53Zm16.19,12c0-4.6-1.93-6.72-4.46-6.72-2.07,0-3.68,1.24-5.2,3.13v10.26a9.58,9.58,0,0,0,4.37.92C124.07,265.57,126.32,263.18,126.32,258Z" style="fill:#374a63"/><path d="M134,264.23c0-5.88,4.73-8.51,14.58-9.47v-.65c0-2.53-1.47-3.49-4.1-3.49a20.54,20.54,0,0,0-8.14,2l-.78-5.1a24.27,24.27,0,0,1,9.84-2c6.49,0,9.71,2.3,9.71,8.28v16.75h-5.7l-.51-3.13a10.87,10.87,0,0,1-8,3.63C136.72,271,134,268.6,134,264.23Zm14.58-.46v-5.38c-6.58.83-8.14,2.76-8.14,5.06a2.58,2.58,0,0,0,2.85,2.76A7.82,7.82,0,0,0,148.54,263.77Z" style="fill:#374a63"/><path d="M158.8,234.75h6.53v35.79H158.8Z" style="fill:#374a63"/><path d="M179.36,246H185l.55,3.31c1.75-2,4.1-3.82,7.41-3.82,5.1,0,9.15,3.82,9.15,12.15,0,9.15-5.06,13.2-10.67,13.2a16.52,16.52,0,0,1-5.52-.92v9.43h-6.53Zm16.19,12c0-4.6-1.93-6.72-4.46-6.72-2.07,0-3.68,1.24-5.2,3.13v10.26a9.58,9.58,0,0,0,4.37.92C193.3,265.57,195.55,263.18,195.55,258Z" style="fill:#374a63"/><path d="M204.47,246h5.62l.78,4.92c1.56-2.85,3.91-5.24,7.68-5.43l1.06,6.54a11.47,11.47,0,0,0-8.6,4.55v14h-6.54Z" style="fill:#374a63"/><path d="M219.65,258.3c0-8,5-12.84,11.64-12.84S243,250.29,243,258.25,238,271,231.25,271,219.65,266.26,219.65,258.3Zm17,0c0-4.37-1.93-7.5-5.34-7.5s-5.29,3-5.29,7.45,1.89,7.46,5.29,7.46S236.63,262.67,236.63,258.3Z" style="fill:#374a63"/><path d="M245.32,269.16V234.75h6.53v13.93a9.63,9.63,0,0,1,6.86-3.22c5.15,0,9.15,3.82,9.15,12.15,0,9-4.92,13.25-12.33,13.25A30.62,30.62,0,0,1,245.32,269.16Zm16-11.18c0-4.6-1.89-6.72-4.42-6.72-1.93,0-3.59,1.24-5.06,3v10.71a9.29,9.29,0,0,0,3.54.6C259,265.52,261.33,263.36,261.33,258Z" style="fill:#374a63"/><path d="M270.53,234.75h6.53v35.79h-6.53Z" style="fill:#374a63"/><path d="M279.64,258.3c0-8,4.83-12.84,11.31-12.84,7.46,0,10.72,5.57,10.72,12.56,0,.6,0,1.34,0,2H286.21c.33,4.1,2.76,6.07,6.4,6.07a14.76,14.76,0,0,0,8.33-2.89l.73,4.92a16.83,16.83,0,0,1-9.8,2.94C284.83,271,279.64,267.13,279.64,258.3Zm15.73-2.58c-.32-3.77-1.8-5.84-4.56-5.84-2.34,0-4.18,1.93-4.6,5.84Z" style="fill:#374a63"/><path d="M304.11,246h5.61l.55,3.4c2.3-2.2,4.69-3.91,8-3.91s5.29,1.61,6.21,4c2.21-2.21,4.83-4,8.05-4,4.6,0,6.94,2.81,6.94,7.46v17.62H333V254.66c0-2-.73-3.4-2.8-3.4-1.75,0-3.45,1.11-5.06,2.81v16.47h-6.54V254.66c0-2-.78-3.4-2.85-3.4-1.75,0-3.4,1.11-5.06,2.81v16.47h-6.53Z" style="fill:#374a63"/><path d="M341.69,264.23c0-5.88,4.74-8.51,14.58-9.47v-.65c0-2.53-1.47-3.49-4.09-3.49a20.5,20.5,0,0,0-8.14,2l-.79-5.1a24.28,24.28,0,0,1,9.85-2c6.48,0,9.71,2.3,9.71,8.28v16.75H357.1l-.51-3.13a10.87,10.87,0,0,1-8,3.63C344.45,271,341.69,268.6,341.69,264.23Zm14.58-.46v-5.38c-6.58.83-8.14,2.76-8.14,5.06a2.58,2.58,0,0,0,2.85,2.76A7.82,7.82,0,0,0,356.27,263.77Z" style="fill:#374a63"/><path d="M375.27,258.94c0-9.2,5.06-13.25,10.67-13.25a16.73,16.73,0,0,1,5.52.92V234.75H398v35.79h-5.61l-.55-3.32c-1.75,2-4.09,3.82-7.41,3.82C379.32,271,375.27,267.22,375.27,258.94Zm16.19,3.18V251.86a9.58,9.58,0,0,0-4.37-.92c-3,0-5.24,2.39-5.24,7.59,0,4.6,1.88,6.72,4.46,6.72C388.33,265.25,389.94,264,391.46,262.12Z" style="fill:#374a63"/><path d="M400.34,258.3c0-8,4.83-12.84,11.32-12.84,7.45,0,10.71,5.57,10.71,12.56,0,.6,0,1.34,0,2H406.92c.32,4.1,2.76,6.07,6.39,6.07a14.76,14.76,0,0,0,8.33-2.89l.73,4.92a16.78,16.78,0,0,1-9.79,2.94C405.54,271,400.34,267.13,400.34,258.3Zm15.73-2.58c-.32-3.77-1.79-5.84-4.55-5.84-2.35,0-4.19,1.93-4.6,5.84Z" style="fill:#374a63"/><path d="M435.3,234.75h6.53v35.79H435.3Z" style="fill:#374a63"/><path d="M444.36,264.23c0-5.88,4.74-8.51,14.58-9.47v-.65c0-2.53-1.47-3.49-4.09-3.49a20.5,20.5,0,0,0-8.14,2l-.79-5.1a24.28,24.28,0,0,1,9.85-2c6.48,0,9.7,2.3,9.7,8.28v16.75h-5.7l-.51-3.13a10.87,10.87,0,0,1-8,3.63C447.12,271,444.36,268.6,444.36,264.23Zm14.58-.46v-5.38c-6.58.83-8.14,2.76-8.14,5.06a2.58,2.58,0,0,0,2.85,2.76A7.82,7.82,0,0,0,458.94,263.77Z" style="fill:#374a63"/><path d="M591.05,181.89c0-6.95,5.59-10,17.22-11.19v-.76c0-3-1.74-4.13-4.84-4.13a24,24,0,0,0-9.61,2.34l-.93-6a28.82,28.82,0,0,1,11.63-2.34c7.66,0,11.46,2.72,11.46,9.78v19.77h-6.73l-.6-3.69c-2.39,2.39-5.27,4.29-9.45,4.29C594.31,189.93,591.05,187.05,591.05,181.89Zm17.22-.54V175c-7.77,1-9.62,3.26-9.62,6a3.06,3.06,0,0,0,3.37,3.26A9.26,9.26,0,0,0,608.27,181.35Z" style="fill:#374a63"/><path d="M620.06,160.33h6.62l.66,4c2.71-2.56,5.7-4.62,9.5-4.62,5.43,0,8.31,3.31,8.31,8.8v20.8h-7.71V170.59c0-2.39-1-4-3.53-4-2.12,0-4.18,1.31-6.14,3.32v19.44h-7.71Zm12.76-5c-2.28-1.09-3-1.41-3.91-1.41s-1.3.49-1.79,2.39H623c.6-5.81,2.55-8.2,5.49-8.2a9.28,9.28,0,0,1,4.23,1.19c2.29,1.09,3,1.41,3.91,1.41s1.31-.49,1.8-2.39h4.13c-.6,5.81-2.56,8.21-5.49,8.21A9.17,9.17,0,0,1,632.82,155.33Z" style="fill:#374a63"/><path d="M647.76,174.89c0-9.4,5.87-15.16,13.75-15.16s13.79,5.7,13.79,15.1-5.86,15.1-13.85,15.1S647.76,184.28,647.76,174.89Zm20,0c0-5.17-2.29-8.86-6.3-8.86s-6.25,3.59-6.25,8.8,2.23,8.8,6.25,8.8S667.81,180.05,667.81,174.89Z" style="fill:#374a63"/><path d="M676.66,187.05l1-6.46A21.45,21.45,0,0,0,688.39,184c2.88,0,4.3-1,4.3-2.61s-1-2.39-5.44-3.53c-7.17-1.84-10.15-3.85-10.15-9.29,0-5.21,4-8.8,11-8.8a26.54,26.54,0,0,1,10.43,2.12l-1,6.41a21.36,21.36,0,0,0-9.4-2.66c-2.45,0-3.59.87-3.59,2.28s1,2.12,5.16,3.21c7.61,2,10.49,4,10.49,9.45,0,5.92-4.18,9.29-11.79,9.29A26.28,26.28,0,0,1,676.66,187.05Z" style="fill:#374a63"/><path d="M97.79,118.4c0-9.45,5.7-15.16,13.36-15.16,8.8,0,12.66,6.58,12.66,14.83,0,.71,0,1.58-.06,2.34H105.56c.38,4.84,3.26,7.17,7.55,7.17a17.36,17.36,0,0,0,9.83-3.42l.87,5.81a19.9,19.9,0,0,1-11.57,3.48C103.93,133.45,97.79,128.83,97.79,118.4Zm18.58-3c-.38-4.46-2.12-6.9-5.38-6.9-2.77,0-4.94,2.28-5.43,6.9Z" style="fill:#374a63"/><path d="M126.69,103.84h6.63l.65,4c2.71-2.55,5.7-4.62,9.5-4.62,5.44,0,8.31,3.32,8.31,8.8v20.81h-7.71V114.11c0-2.39-1-4-3.53-4-2.12,0-4.18,1.3-6.14,3.31v19.45h-7.71Z" style="fill:#374a63"/><path d="M157.38,124.32V110.14h-4v-6.3h4v-9.5H165v9.5h6.25v6.3H165v12.93c0,2.34,1.09,3.59,3.75,3.59a13.2,13.2,0,0,0,2.66-.27v6.51a15.49,15.49,0,0,1-4.18.44C161.4,133.34,157.38,131.17,157.38,124.32Z" style="fill:#374a63"/><path d="M174.27,103.84h6.63l.93,5.81c1.84-3.36,4.61-6.19,9.07-6.41l1.25,7.72A13.55,13.55,0,0,0,182,116.34v16.51h-7.72Z" style="fill:#374a63"/><path d="M192.2,118.4c0-9.45,5.71-15.16,13.36-15.16,8.8,0,12.66,6.58,12.66,14.83,0,.71,0,1.58-.05,2.34H200c.38,4.84,3.26,7.17,7.55,7.17a17.36,17.36,0,0,0,9.83-3.42l.87,5.81a19.88,19.88,0,0,1-11.57,3.48C198.34,133.45,192.2,128.83,192.2,118.4Zm18.58-3c-.38-4.46-2.12-6.9-5.38-6.9-2.77,0-4.94,2.28-5.43,6.9Z" style="fill:#374a63"/><path d="M225.44,174.46l29.65-30.65c6.74-6.85,10-11.68,10-17.52,0-7.52-4.6-11.34-12.69-11.34s-15.61,3.71-22.79,9.1l-2.25-14.94a44.21,44.21,0,0,1,27.4-9c17.07,0,27.29,9,27.29,24.48,0,11.11-5.28,18.19-15.72,28.52l-19.65,19.65h35.82v14.15H225.44Z" style="fill:#01a5d4"/><path d="M298.32,174.8c16.84-3.48,29.87-11,34.25-25a35.2,35.2,0,0,1-20.1,6.51c-15.05,0-25.49-9-25.49-26.61,0-18.08,13-29.64,30.77-29.64,18.86,0,32,12.46,32,36,0,30.32-20.55,47.16-49.18,52.66Zm35.6-38v-.23c-.12-15.49-6.85-23.35-16.29-23.35-8.42,0-14.26,5.72-14.26,15.49,0,9.21,4.72,14.37,14.15,14.37C323.47,143.13,328.86,140.78,333.92,136.85Z" style="fill:#01a5d4"/><path d="M381.86,208.82l-2.13-13a24.16,24.16,0,0,0,7.08.9c4.26,0,7.86-1.91,9.65-6.29l1.24-3.26L375.46,127H393l13,40.43L418.7,127h15.72l-22.35,62.66c-5.39,14.94-12.35,19.77-24.37,19.77A23.21,23.21,0,0,1,381.86,208.82Z" style="fill:#01a5d4"/><path d="M459.91,182.32l2.47-15.16a45.05,45.05,0,0,0,23.46,7.08c9,0,15.61-4.49,15.61-13.48s-6.73-13.47-16.95-13.47A38.86,38.86,0,0,0,473.6,149l-10.33-2.35,3-45h48.5v14.15h-35l-1.46,18.52a49.08,49.08,0,0,1,9.1-.89c19,0,30.65,9.43,30.65,26.61,0,18.64-13,28.52-32,28.52C475.85,188.5,466.64,186,459.91,182.32Z" style="fill:#01a5d4"/><path d="M532.56,174.8c16.84-3.48,29.87-11,34.25-25a35.22,35.22,0,0,1-20.1,6.51c-15.05,0-25.49-9-25.49-26.61,0-18.08,13-29.64,30.76-29.64,18.87,0,32,12.46,32,36,0,30.32-20.55,47.16-49.19,52.66Zm35.59-38v-.23c-.11-15.49-6.85-23.35-16.28-23.35-8.42,0-14.26,5.72-14.26,15.49,0,9.21,4.72,14.37,14.15,14.37C557.71,143.13,563.1,140.78,568.15,136.85Z" style="fill:#01a5d4"/><g id="adulto_mujer"><path d="M45.68,32.26A16.13,16.13,0,1,0,29.55,16.13,16.2,16.2,0,0,0,45.68,32.26Z" style="fill:#a71f65"/><path d="M91.22,95.83,77.94,52.5S73.19,39.85,62.76,39.85H28.91c-10.43,0-15.18,12.65-15.18,12.65L.45,95.83s-2.53,7.91,4.43,9.81c6.64,1.89,8.85-5.7,8.85-5.7l10.76-36S25.12,61,27,61.67c2.21.64,1.26,3.48,1.26,3.48l-19,68H26.7v48.71a8.23,8.23,0,0,0,16.45,0V133.15h4.74v48.71a8.23,8.23,0,0,0,16.45,0V133.15H81.73L63.07,65.47s-1-2.85,1.27-3.48,2.53,2.21,2.53,2.21l10.75,36.06s1.9,7.91,8.86,5.69S91.22,95.83,91.22,95.83Z" style="fill:#a71f65"/></g><path d="M476.72,244.84c0-16.14,9.89-27.06,24.73-27.06A27.34,27.34,0,0,1,516,221.49l-1.58,10A20.43,20.43,0,0,0,502,227.05c-8.79,0-14.36,6.66-14.36,17.72s6.05,17.72,14.84,17.72a23.62,23.62,0,0,0,12.84-4.19l1.51,9.2a28.7,28.7,0,0,1-15.18,4.26C486.2,271.76,476.72,261.11,476.72,244.84Z" style="fill:#de1f26"/><path d="M519.3,252.6c0-11.88,7.42-19.16,17.38-19.16s17.44,7.21,17.44,19.09-7.42,19.09-17.51,19.09S519.3,264.48,519.3,252.6Zm25.34,0c0-6.53-2.88-11.2-8-11.2s-7.9,4.54-7.9,11.13,2.82,11.13,7.9,11.13S544.64,259.12,544.64,252.6Z" style="fill:#4c9b45"/><path d="M557.62,234.19H566l.82,5.08c3.44-3.29,7-5.83,11.95-5.83,5.09,0,7.9,2.4,9.28,5.9,3.29-3.29,7.21-5.9,12-5.9,6.86,0,10.37,4.19,10.37,11.12v26.31h-9.76v-23.7c0-3-1.1-5.08-4.19-5.08-2.61,0-5.15,1.65-7.55,4.19v24.59h-9.75v-23.7c0-3-1.17-5.08-4.26-5.08-2.61,0-5.08,1.65-7.56,4.19v24.59h-9.75Z" style="fill:#03a5d4"/><path d="M615.51,260.5V234.19h9.76v23.7c0,3,1.3,5.08,4.39,5.08,2.68,0,5.29-1.65,7.76-4.19V234.19h9.75v36.68h-8.38l-.82-5.08c-3.36,3.22-7.21,5.83-12,5.83C619.08,271.62,615.51,267.43,615.51,260.5Z" style="fill:#ea6524"/><path d="M652.53,234.19h8.38l.82,5.08c3.43-3.22,7.21-5.83,12-5.83,6.87,0,10.51,4.19,10.51,11.12v26.31H674.5v-23.7c0-3-1.3-5.08-4.46-5.08-2.68,0-5.29,1.65-7.76,4.19v24.59h-9.75Z" style="fill:#4c7838"/><path d="M687.48,261.46c0-8.79,7.08-12.71,21.77-14.15v-1c0-3.78-2.19-5.22-6.11-5.22a30.57,30.57,0,0,0-12.16,3l-1.16-7.62a36.23,36.23,0,0,1,14.69-3c9.69,0,14.5,3.43,14.5,12.36v25h-8.52l-.76-4.67c-3,3-6.66,5.42-12,5.42C691.6,271.62,687.48,268,687.48,261.46Zm21.77-.69v-8c-9.82,1.23-12.15,4.12-12.15,7.55,0,2.61,1.64,4.12,4.25,4.12C704.17,264.41,706.85,263,709.25,260.77Z" style="fill:#094c81"/><text id="svg_nombre_comuna" transform="translate(731.24 271.76)" style="font-size:68.67402648925781px;fill:#067dba;font-family:UNFPA-Bold;font-weight:700;letter-spacing:-0.05000554367941668em">Popular</text></g></g></svg>