<svg xmlns="http://www.w3.org/2000/svg" viewBox="0 0 118.98 54.59"><title>Asset 5</title><g id="Layer_2" data-name="Layer 2"><g id="Layer_1-2" data-name="Layer 1"><polygon points="27.55 54.1 0.55 27 27.55 0 27.55 54.1" style="fill:#24699d"/><path d="M38.84,15.82h5.67L51,37.7H45.86l-1.42-5.28H38.52L37.09,37.7H32.24Zm4.76,13.1-2.1-8-2.14,8Z"/><path d="M57,19.7H51.66V15.88H67.29V19.7H62v18H57Z"/><path d="M69.49,15.88h6c5.08,0,8.44,2.3,8.44,6.55a5.91,5.91,0,0,1-4.17,5.86l5.69,9.41H80.14l-4.92-8.35h-.94V37.7H69.49Zm5.63,10.31c2.62,0,4.08-1.09,4.08-3.48s-1.39-3.33-4-3.33h-1v6.81Z"/><path d="M91.86,15.82h5.66l6.54,21.88H98.88l-1.43-5.28H91.53L90.11,37.7H85.25Zm4.75,13.1-2.1-8-2.14,8ZM95.29,9.85h5.34v.86l-4.37,3.88h-3Z"/><path d="M105.13,36.64l.68-3.82a12.23,12.23,0,0,0,5.53,1.52c1.71,0,2.72-.8,2.72-2.09,0-1.47-.88-2.41-3.59-4.05s-5-3.39-5-6.63c0-3.48,2.68-6,6.89-6a12.25,12.25,0,0,1,5.34,1L117,20.5a8.41,8.41,0,0,0-4.34-1.26c-1.58,0-2.33.92-2.33,1.92,0,1.35,1,2.19,3.5,3.65,2.91,1.78,5.18,3.68,5.18,7,0,3.82-3,6.11-7.28,6.11A15.61,15.61,0,0,1,105.13,36.64Z"/><rect id="atras_boton" width="118.98" height="54.59" style="fill:none"/></g></g></svg>