<?xml version="1.0" encoding="utf-8"?>
<!-- Generator: Adobe Illustrator 23.0.1, SVG Export Plug-In . SVG Version: 6.00 Build 0)  -->
<svg version="1.1" id="Layer_1" xmlns="http://www.w3.org/2000/svg" xmlns:xlink="http://www.w3.org/1999/xlink" x="0px" y="0px"
	 viewBox="0 0 265.4 88.5" style="enable-background:new 0 0 265.4 88.5;" xml:space="preserve">
<style type="text/css">
	.st0{fill-rule:evenodd;clip-rule:evenodd;fill:#86C944;stroke:#666666;stroke-width:0.25;}
	.st1{fill:#FCFCFC;}
	.st2{fill-rule:evenodd;clip-rule:evenodd;fill:#669933;}
</style>
<title>C1</title>
<g>
	<g id="Layer_1-2">
		<path id="C1" class="st0" d="M175.2-19.1l4.4,3l2.7-3.9l-0.5-13.5l-3.1-1.8l2.8-3.7l-0.7-2.4l-2.1-2.4l2.7-2.9l-1.4-5l2.3-3.7
			l-1.9-2.9l-3.7-1.6l2.9-5.5L182-68l-0.4-7.1l-3.7-3.8l-5.2-9.9l-2.5,0.7l-3.8-5.3l-3.8-3l-5.8-1.9l-2.2-2.1l-1.5-2.5l-3.8,1.1
			l-3.9-2.4l-1,2.8l-9.5-2.1l-2.9,3.8l-3.8-2.4l-0.2-1.1h-1.9l0.3,3.2l-2.4,4.3l1.2,2.9l-0.9,6.2L115-68.8l2,4.3l4.9,1.5l1.7,2
			l-2.4,2l-1.8-0.1l-2.6,4.4l1.2,4.2l2.5,0.8l-0.9,2.5l-11.6,2l-4.2,6.9l-7.2,1.8l-3.8,2.4l7.9,8.5l4.5,0.5l2.4,3.1l10.7,5.2
			l9.5-1.4l4.7,2l10.7-4.5l3.6,0.9l5-3.2h8.3l4.3,1.8l9.4-0.4L175.2-19.1z"/>
	</g>
</g>
<g>
	<g>
		<path class="st1" d="M228.6-37.7c-0.3,0.3-0.7,0.5-1.1,0.5c-0.4,0-0.8-0.2-1.1-0.5c-0.6-0.6-0.6-1.7,0-2.3l20.2-20.2l-20.2-20.2
			c-0.6-0.6-0.6-1.7,0-2.3c0.6-0.6,1.7-0.6,2.3,0L250-61.3c0.6,0.6,0.6,1.7,0,2.3L228.6-37.7z"/>
	</g>
</g>
<g>
	<g>
		<path class="st1" d="M46.5-37.7c0.3,0.3,0.7,0.5,1.1,0.5c0.4,0,0.8-0.2,1.1-0.5c0.6-0.6,0.6-1.7,0-2.3L28.6-60.2l20.2-20.2
			c0.6-0.6,0.6-1.7,0-2.3c-0.6-0.6-1.7-0.6-2.3,0L25.2-61.3c-0.6,0.6-0.6,1.7,0,2.3L46.5-37.7z"/>
	</g>
</g>
<polygon class="st2" points="393.4,-145.8 392.2,-149.6 392.1,-150.3 392,-150.7 392.1,-151.3 392.4,-151.5 395.2,-153.4 
	395.3,-153.4 395.6,-153.4 396,-153.4 396.8,-153.2 396.9,-153.3 397,-153.3 397.2,-153.4 397.5,-153.5 398,-153.7 398.4,-153.8 
	398.6,-154 399.5,-154.6 400.1,-155.4 400.6,-156 401,-156.3 401.3,-156.4 401.7,-156.6 402.2,-156.8 402.6,-157.1 402.9,-157.4 
	403.1,-157.7 403.2,-158.1 403.3,-158.6 403.3,-159.6 403.3,-159.8 403.3,-159.9 403.4,-160 403.5,-160.1 403.8,-160.5 
	404.3,-160.9 404.6,-161.1 405,-161.1 405.2,-161.1 405.6,-161.1 405.7,-161.7 405.7,-162 405.6,-162.3 404.9,-163 404.7,-163.9 
	404.9,-164.5 405.4,-165.2 405.4,-165.3 404.9,-166 404.2,-167 403.8,-167.9 404.1,-168.6 403.9,-169.2 403.9,-170.2 404.1,-171.3 
	404.1,-172.6 403.9,-173.5 402.8,-176.6 402.3,-177.7 401.2,-178.5 399.5,-180.4 398.7,-181.3 398,-182.4 396.9,-183.5 
	396.2,-184.6 395.7,-185.4 395.6,-185.8 395.8,-186.3 395.9,-186.9 395.8,-187.2 395.5,-187.9 395.4,-189.8 394.8,-191.9 
	394.5,-192.3 392.6,-191.4 390.4,-190.7 384.4,-188.8 382.5,-188.7 381.4,-188.6 381,-188.4 380.5,-188.2 380.4,-188.2 
	380.2,-188.2 380.1,-188.3 380,-188.4 379.6,-189.4 379.4,-189.6 379.2,-189.6 379,-189.6 378.7,-189.6 378.1,-189.5 377.3,-189.3 
	376.2,-189.2 374.6,-188.7 373.8,-188.6 373.5,-188.6 373.3,-188.6 373,-188.7 372.4,-189.3 371.1,-190.2 370,-190.7 369.7,-190.7 
	369.2,-190.6 368.6,-190.3 367.8,-190.1 366.9,-190.1 366,-190.7 364.3,-190.8 362.5,-190.3 360.3,-189.5 359.1,-188.3 
	358.7,-187.4 358,-186.4 356.9,-184.7 356.8,-184.3 356.9,-183.2 357,-182.1 357.1,-181.4 357.4,-181.5 357.6,-181.4 357.7,-181.2 
	357.6,-180.6 357.6,-180.1 357.9,-179.5 357.9,-178.9 357.9,-178.6 358,-178.4 358.1,-178.1 358.1,-177.9 358,-177.6 357.9,-177.3 
	358.1,-177.1 358.4,-176.8 358.7,-176.5 358.9,-175.8 358.9,-175.5 359,-175.3 358.8,-175.2 358.6,-175.2 358.4,-175.1 
	358.4,-174.9 358.4,-174.6 358.6,-173.9 358.6,-173.7 358.5,-173.5 358.4,-173 358.5,-172.6 358.7,-172.3 359.3,-171.8 
	359.5,-171.7 359.5,-171.5 359.4,-171.3 359.3,-171.2 358.9,-171 358.4,-170.8 357.6,-170.6 356.9,-170.3 356.5,-170 356.2,-169.5 
	355.9,-168.4 355.9,-168 355.8,-167.8 355.6,-167.5 355.4,-167.3 355.5,-166.3 355.6,-165.9 355.7,-165.6 356.1,-165.1 
	356.3,-164.9 356.2,-164.6 356.3,-164.4 356.5,-164.2 356.6,-163.8 356.5,-163.4 356.6,-163 356.9,-162.7 357.3,-162.6 
	357.6,-162.4 357.7,-162 358,-161.6 357.9,-161.3 357.7,-160.9 357.3,-160.7 355.8,-159.4 355.8,-159.1 355.9,-158.7 355.9,-158.2 
	355.8,-157.9 355.7,-157.8 355.8,-157.6 356,-157.1 356.1,-156.6 356.2,-155.8 356.2,-154.9 356.2,-154.2 356.2,-153.7 
	356.3,-153.2 356.4,-152.8 356.7,-152.4 357.1,-152 357.6,-151.8 358,-151.5 358.3,-151.4 358.5,-151.3 358.6,-151.1 358.9,-150.9 
	359.3,-150.7 359.5,-150.5 359.7,-150.1 359.7,-149.7 359.8,-149.4 360.1,-149.3 360.4,-149.2 360.6,-149 360.7,-148.8 
	360.6,-148.6 360.5,-148.3 360.5,-148.1 360.6,-147.9 361,-147.7 361.4,-147.6 361.7,-147.3 361.8,-147.1 361.8,-146.8 
	361.9,-146.5 362,-146.2 362,-145.9 361.9,-145.3 362,-144.5 361.9,-143.5 362.2,-143.1 362.5,-142.7 362.7,-141.8 362.9,-141.3 
	363,-140.6 363.2,-140.4 363.6,-140 363.8,-139.7 363.8,-139.4 363.8,-138.9 363.9,-138.7 364.1,-138.5 364.1,-138.2 364.1,-138.1 
	363.9,-137.8 363.8,-137.6 363.7,-137.3 363.7,-137.1 363.6,-137.1 363.4,-137 363.3,-136.9 363.2,-136.8 363.2,-136.7 
	363.4,-136.5 363.4,-136.3 363.2,-135.7 363.2,-135.1 363.3,-134.8 363.7,-134.5 363.9,-134.2 364,-133.6 364.1,-133 364.3,-132.7 
	364.3,-132.5 364.2,-132.3 363.9,-131.9 363.8,-131.7 363.9,-131.5 364,-131.3 363.9,-131.2 363.8,-131.1 363.7,-131 363.2,-130.4 
	363.2,-130.4 363.4,-130.2 363.5,-130.1 363.5,-130 363.4,-129.8 363.5,-129.7 363.8,-129.4 363.8,-129.1 363.8,-128.9 
	363.6,-128.6 363.6,-128.3 363.8,-127.8 363.8,-127.4 363.8,-126.1 364.4,-125.3 364.7,-124.9 364.9,-124.2 364.9,-123.3 
	363.9,-122.6 363.8,-121.9 363.7,-121.3 363.4,-120.2 363.4,-119.7 363.5,-119 363.4,-118.4 363.4,-117.3 363.2,-116.7 
	362.8,-115.1 362.7,-113.7 362.6,-113.3 362.1,-112 362,-111 361.9,-109.7 361.9,-108.9 362,-108.2 362.2,-107.4 362.4,-106.7 
	362.4,-105.8 362.5,-105.4 363,-104.6 363.4,-104.2 363.8,-104.2 366.3,-107.3 366.8,-108.7 367.4,-109.3 367.7,-109.4 368,-109.4 
	368.3,-109.5 368.7,-109.6 369.1,-109.8 369.3,-110 369.4,-110.2 370.3,-112 370.6,-112.4 371,-112.9 371.4,-113.4 371.6,-113.7 
	372.6,-115.3 373.4,-116.4 373.7,-116.8 374.1,-117 374.4,-117.1 375.3,-117.4 376.1,-117.7 377,-117.9 377.3,-118.1 377.7,-118.3 
	378,-118.5 378.8,-119.4 379.7,-120.5 380.8,-121.1 381.7,-121.5 383.3,-122.2 384.1,-122.6 385.1,-123.5 386.9,-125.3 
	388.2,-126.3 389.4,-127.3 389.9,-128 390.2,-128.6 390.5,-129.4 390.9,-130.3 391.1,-130.7 391.1,-131.2 391.3,-134.3 
	390.9,-141.3 390.9,-141.7 391.1,-141.9 391.3,-142.3 391.6,-142.7 392.6,-143.8 393.4,-144.9 393.5,-145 393.5,-145.1 
	393.6,-145.3 393.5,-145.4 393.5,-145.6 393.4,-145.8 "/>
</svg>
