<svg xmlns="http://www.w3.org/2000/svg" viewBox="0 0 117.49 181.77"><title>C10</title><g id="Layer_2" data-name="Layer 2"><g id="Layer_1-2" data-name="Layer 1"><path id="C10" d="M76.63,126.24l.3-8-5.2-8.2,4.2-4.8,4.9-3.4,4.2.4,2.5,1.9,5.2-4.5,5-3.1,1.9-4,1.1.5,4.5-4.5,1.3,1.2,1.4-4.2,2.3-1.5,5.2-8.5,1.9-5.6-3.9-.9v-1.2l-.4-.9v-1.5l-.9-1.8,1.1-3.3-26.7-18.7,15.7-23.3.9-2.2,4.9,2.3-5.9-5.3-4.6-.4,3-3.7-23.2-3.8-6.1.5L36.63.14l-1.7,8.1-5.2,13L.83,73.84l-.7,3,.8,3.4,19.6,55,.7,3.1.5,4.7.3,8.3,6.8,2.8,11.4,8.5,7.6,5.5,1.1,5.1h2.9l.9,3h2.8l4.1,1.2v2.3l2.6,1.9h4.6l-.9-2.4,2.7-4.5-2.5-4.3-2.6-3-3.1-2.5.4-7.3,4.3-6.1-7.6-9.8,6.7-4.2,3.9,2,3.9-4.3.7-3.7Z" style="fill:#ed8e2f;stroke:#666;stroke-width:0.25px;fill-rule:evenodd"/></g></g></svg>