<svg xmlns="http://www.w3.org/2000/svg" viewBox="0 0 194.78 153.2"><title>C11</title><g id="Layer_2" data-name="Layer 2"><g id="Layer_1-2" data-name="Layer 1"><path id="C11" d="M155.23,49.87l-6.3-3.6-1.7-4.6-4.4-3.6-1.2-4.8-2.1-2.5-3.6-2.8-5.8-3.2-6.4-4.4-7.4-7.7L112,8l-2.2-4.7-2.9-3.1-3.8,3.2-15.7,69.8-2,4.6,5.1-1.8,1.4.3,4.8-1.1-1.9,21.6-12.7.3L77,95l-6.6-.2-2.2,32.9L50,123.37l-2.7,2.9-1.8,7.3-15-2.6-7.8-.3-4,4h-6.5l-4.5,1.1H0l5,1.1,1.4.7L9,137l1.2.5,1.9,2,1.4.4.9-.2,1.5-.9,1.5.5,1.5.9,6.9,4.9,2.9,7.5,12.8.5,6.6-.1,18.6-.3,14.5-.7-1.9-4.9,100.3-3.4-12.1-33.9-.6-3.4.5-3,27.1-49.3-10.3,2.8-4.3.6-7.3-.3-5.7-1.3-5.4-1.4Z" style="fill:#0083db;stroke:#666;stroke-width:0.25px;fill-rule:evenodd"/></g></g></svg>