<svg xmlns="http://www.w3.org/2000/svg" viewBox="0 0 105.36 137.56"><title>C12</title><g id="Layer_2" data-name="Layer 2"><g id="Layer_1-2" data-name="Layer 1"><path id="C12" d="M73.83,51.94l-7.6,3.4-3.2.5-11.2,4.9-3.7-.2-5.2,1.3-6.9.7-2.9-.4-6.8,10.2L23.53,71l-2.4,1.7,1.8,1.4-2.8,1.7-7.4,5.8-8.4,1.5-4,5.2-.2,1.6,1.6,1,2-.4,3.4-4.6,3.8-.5,1.8,1.7,1.7,2.9,4.9,3-.1,2.9-8.2,7.2-.8,5.2,2.7,2.9-5.8,6.7,3.4,2.7,2,5.6,1.2,6.2H9.33l-3.7,4-3.5,1h7.7l4.5-1.1h6.5l4-4,7.8.3,15,2.6,1.8-7.3,2.7-2.9,18.2,4.3,2.2-32.9,6.6.2,5.1,2.1,12.7-.3,1.9-21.6L94,77.94l-1.4-.3-5.1,1.8,2-4.6L105.23,5l-1.9-4.9-3.5.5L99.73,2l-2.6-.3-3.5,1.1-1.8,6.6-2.3-1.6L88.23,12l-1.2.9-.7-3.1-1.4-2L81.43,6l-1,3.1,2.5.9-1.3.7.2,4-3.4-1.2L73,13l-5.7,3.2-3.8.5,1.5,1.9-3.2,3.7v2.9l-4.9-3.6,2.7,6.6,2.3,3.2-1.4,4.5,1.3,2-.6,5,12.2-.2,2.6-4.8,2.3,1.5,2.4,18.5Z" style="fill:#008ae6;stroke:#666;stroke-width:0.25px;fill-rule:evenodd"/></g></g></svg>