<svg xmlns="http://www.w3.org/2000/svg" viewBox="0 0 170.12 159.9"><title>C13</title><g id="Layer_2" data-name="Layer 2"><g id="Layer_1-2" data-name="Layer 1"><path id="C13" d="M39.33,83.37l-.8.2-6.81-4.7-1.89-.3L28.62,78l-3.09-3.6-2.7-3.9-.3-2.6L21,66.67l-1.41-1.3-.9-1.9-.29-1.9-1.21-3,1-1.2-.79-.6-1.21.1-1.49.7-1.4-.2-2.9-1L9.12,56l-1.29.3-.5,1.1,1.4,1,4,2.4.39,1.2-.39,1.2-2.2,3.2-1,2.7.59,1.9-.19,1.4-4.5,4.3-5.31,4v1l5.11,2.8.6,2.3,2.79,1.7,3.31,1.3,2.1,2.1,1.69,4.6-.79,1.2-1.31-.2-1.39-.9-3.61-2.4-1.89.1-2.9.5-1.5,1.9-.3,3,.3,1.9.1,2.8.69,2.3,2.5,2.3H8.33l3.4.9.7,3-.2,2.2-2.4.4L8,117.67l-2.8.9-4-1.6,3.8,6.1,5.4,3.4H6.73l-4.2-2.4,1.2,3.4,2.39,3.7L7.53,134l2,1.1,2.59.4h3.1l.4,1.9.81,1,1.6,1,2.4.3,1.9-.8,1-1.4.2-1.9,1.09-.5,3.5.6,4.1.9,3.9.7h3.1l.21,1.1-.81,1.5,1,1.4,2.71,1.4,1.39,1.9-2,2.9,1.71,1.1v.9l-3.5,1.8,1.4,2.1.29,2.1h1.31l2.9-1.8,1.5,1.5-.71,1.5v1.2l1.91,1.7,1.59.2,1.21-.2,1.89-2.1.5-1.9,1.5-.2,1.11.6,2.79,1,3.91.6,3.5-1,3.69-4h4.4l-1.19-6.2-2-5.6-3.4-2.7,5.8-6.7-2.71-2.9.81-5.2,8.2-7.2.09-2.9-4.89-3-1.71-2.9-1.79-1.7-3.8.5-3.41,4.6-2,.4-1.59-1,.19-1.6,4-5.2,8.4-1.5L81,96l2.8-1.7L82,92.87l2.39-1.7,2.8,1.3L94,82.27l2.89.4,6.91-.7,5.2-1.3,3.69.2,11.2-4.9,3.21-.5,7.59-3.4,6.91,6-2.41-18.5-2.3-1.5-2.59,4.8-12.2.2.59-5-1.3-2,1.41-4.5-2.3-3.2-2.7-6.6,4.89,3.6v-2.9l3.2-3.7-1.5-1.9,3.8-.5,5.7-3.2,5.41.5,3.39,1.2-.19-4,1.3-.7-2.5-.9,1-3.1,3.5,1.8,1.39,2,.7,3.1,1.21-.9,1.29-4.2,2.3,1.6,1.81-6.6,3.5-1.1,2.6.3.09-1.4,3.5-.5,1.91,4.9,3.79-3.2-5.29-4.6h-6.1l-3.61-3.5-5.79-1.1-2.5-3.6-6.41-.4-10.3-5.3L128,6.67h-2L116.22.47l-3.69,1-3.9-1.3-.5,11.4-3.5,7.8-9.21-1.2-11.89,7.3-9.5-1-2,1.7-4,.3,1.8,1.4,1,2-2.3.8v2.1L70.22,37l2.9,5.2,1.6,4.2,2.81,3,1,2.4v5l.69.8.31,2.2.69,1.6v2.1l-.69.7V65l.6.6.4.8-1.11,2.4-1.09,4.4-1,1.2-1.3.2-.81-.8-1.1-2.7L71.22,66l-1.1-1.2-1,.2-1.09.5-1-.3-.41-.7-.19-1.8-2-.5-.31-1.5-.69-.8-1.31.4-1.59.3-1.81-1-.89-1.2-1.4-1.6-1.71,1-1.5.7-3.89.2-1,1.4-1,1.7-2.11.7L40.93,60l-.81.7.41,1.1-.41.5-.9.1-2.1-.2-.5.2.31.8,2.79,3.3.5,1.4-.39,3.2-.5,1.4.5.8,2,2.7v1l-1.71,2.7Z" style="fill:#fbb03b;stroke:#666;stroke-width:0.25px;fill-rule:evenodd"/></g></g></svg>