<svg xmlns="http://www.w3.org/2000/svg" viewBox="0 0 160.69 247.32"><title>C14</title><g id="Layer_2" data-name="Layer 2"><g id="Layer_1-2" data-name="Layer 1"><path id="C14" d="M83.05,64.68l-.2-3.9-1.4-1.6h-3.4l-2.6-1.7.3-2.6-1.7-5,3.7-3.5,2.4-12.2-.5-3.7h-4.6l-2.6-1.9v-2.3l-4.1-1.2h-2.8l-.9-3h-2.9L60.65,17l-7.6-5.5L41.65,3,34.85.18l-19.3,140.6-9.1,28.1-4.8,18-1.5,4.2,2.3,2.1h2.1l7.1,5.5,2,7.8.4,4.1,2.9,2.9,10.6,6.7h4.2l2.7,3.4,11.8,7.6,5.7,1.7,5.5-.7,3,2L63,234l4.4,3.7,2.5,3.8,4.6,1.9,2.2,2,4.2-1,5.2,2.8,5.2-2.1h5.3l5.6,1.2,1.5-2.7,1.8-1.7,2.4-1.1.5-2.7-.6-3.3V232l1.2-2-1.1-2.8-.5-3.5,1.6-1.8,3.2-.8,2.3,1.9,2.3.7,6.3.5.7-2.7-1-2.9.4-4.3-3-.8-2.9-1.7.6-8.7,2.5,1.2,3.5-4,3.9-2.3,1.5-1.9,2.4-2,1.1-2.3-1.9-2.2-.4-2.9-.9-3-.9-2.3,1.4-2.5-1.1-2.4-1.5-2.5,1.7-2.1.5-2.8,1-3.3,1.8-2.8.5-4.6,4.9-4-1-3,1.5-3,.2-3.6,1.7-2.9v-2.2l-.8-2,1.3-1.6,1.2-4,2.3-1,1.5-1.4-.2-1.5-1.1-2.1.5-3.1,2.6-1.4,3.8-.6,2.3-2.1.8-2.3v-4.3l.3-5.2,1.3-3.2,1.5-5.8,1.7-2.1-.7-3.6.7-2.4-2.3-2.3,2.2-2.9.7-3,.7-7.2-6.4,3.5-6,.5-6.6-.7.2-4.6-5.6-4.9-4.5-4.6-3.3-1.8-4.7-4.6-1.6,2.9-10.2,7.2,2.2,3.7v2.7l-1.9,1.4-23.5-5.1Z" style="fill:#eac102;stroke:#666;stroke-width:0.25px;fill-rule:evenodd"/></g></g></svg>