<svg xmlns="http://www.w3.org/2000/svg" viewBox="0 0 106.8 180.97"><title>C15</title><g id="Layer_2" data-name="Layer 2"><g id="Layer_1-2" data-name="Layer 1"><path id="C15" d="M86.88.73,76.08.13,76,6.23l-5.8,1L58.68,7l-2.6.6H44.28l-2.4,1.6-1.6,7.3L36.88,19l.6,3v9.7l-2.1,12.5-11.6,57.3-.2,3.2-3.1-5.1-2.2,2.2-5.9,1.7-3-1.3-1.3,1.7.5,3.3-.4,13.6,2.7,4.3-2.8,3-4.8.6,3.8,5.7-4.4.9,1.2,1.8-3.7,2.7,6.8,9.1-.6,1.8,2,1.4,2.7.9,2.5.8.8.9.5,1,2.1,1.4,2.6,1.9.6,1.7.2,2.1-.9,3.6.8,1.6,2.5,1.1,1,.9-.3,2.1-2.1,2.5-1.1,1.5.7,1.3,2.6.8,3.2.5,3.3.7,5.4,1.4,2.7-3.7,4.8-1.5,10.9-5.1,2.7-.6,6.1,5,15.8,2.6,8.9-27.8,19.3-140.6v-.7l-3.8-1.2.2-2.6Z" style="fill:#993;stroke:#666;stroke-width:0.25px;fill-rule:evenodd"/></g></g></svg>