<svg xmlns="http://www.w3.org/2000/svg" viewBox="0 0 208.08 184.06"><title>C16</title><g id="Layer_2" data-name="Layer 2"><g id="Layer_1-2" data-name="Layer 1"><path id="C16" d="M57,62.92l-.9,1.7,2.2,2.4-1.5,2.1h-3.4l-2.8-1.5-1.7,3.2,2,1.1v1.2h-2.2l-.8,1.3,2.8,2.5-1.8,4.3-3.3-2.8-.6,3.3-2.2.5-2.2-2.4-11.8,1.8-2.4-.5-3.3-1.4-4.6.9.4,2.3,1.9,2.1,1.1,1.6,1.9,1.9,2.5.4,1.7,3,2.3,1.4,4.6-.3,2,1.8,2.3-.6,2.7-1.1,2.3-.2,1.4,1.2.3,2.5,1.7,1.7,5.8-.3,3.2,3.2.5,1.5,1.4,1.5-.8,2.9,2.1,1.9,2.9.9.2,2.8-1.1,2.1,1.8,1.7v4.7l-1,1.4-1,1.6-1.5,1.6-.2,1.4.9.8,2.5,1.3,6.8,6.4v2.2l.8,1.2,1.6.9-1.7,1.1-5.1,2.8-.6.6-.3.9,1,1.2,6,3.6,1.3.8.3,1.2L72,153.83,69.34,156l-2-1.3-1.8-.3-2.6.5-3.4-.2-4.6,1.5-1.8.3,2.4,1.31,4.2.39,2.6,1.5,2.6,3,2.3.9,2.2,1.6,2.4,4.9,1,.6,1.2-.6,2.1-3.2,2.4-.5,2.2.6,1.4.9-.2,2.1,3.3,4.5.6,1.2-.2,1.9.2,1.5,1.4,1.1,1.8-.8h1.4l.9,1,.3,1.3,1.7-.3,1.7-1,1.8.6,2.9.2,3.9-.3,2.5,1.3,1.5,1.61.6-1.81-6.8-9.1,3.7-2.7-1.2-1.8,4.4-.9-3.8-5.69,4.8-.61,2.8-3-2.7-4.3.4-13.59-.5-3.31,1.3-1.69,3,1.29,5.9-1.7,2.2-2.2,3.1,5.11.2-3.21,11.6-57.3,2.1-12.5v-9.7l-.6-3,3.4-2.5,1.6-7.3,2.4-1.6h11.8l2.6-.6,11.5.2,5.8-1,.1-6.1,10.8.6,16.2,3.9-.2,2.6,3.8,1.2-.3-7.6-.4-4.7-.8-3.1L198.94,5,98.64,8.42l1.9,4.9L86,14l-18.6.3-6.6.1L48,13.92l-2.9-7.5-6.9-4.9-.3,2.7-1.2,2v1.2l2,.5L40.54,9l1.4,1,1.7,1.9.2.9-.1.7-.5.5-.8.1-.7-.3-1.1-.8-1.7-.2-1.4.7-1.6-1.4h-2.8l-3.3-1.2H26l-2.6-2.1L21,6l-.5-2.9-3.7-2h-1.3l-1.6-.8-3.1-.2h-2l-1,.8-.1,1,2.8.3,3,.9,1.7.9,1.1,1.7v1.8l-.7,1.8-.9,2.7-.9,2.9-1.5,1.5-2.4.6-3.7-.4-2.1,1.3-3,.4-1,1.5L.74,21l2-.5,2.8.7,2.2.7,2.6.3,2.9-.4,3.1-.2,1.9.6,4.5,3,1.9-.2,1.7,1.1,2.7,1.2,3.1-.3,1.8,1-.5,2.4-2.2,2.3-.4,2.1-1.9,2,.2,1,.8,1.1-.1,1.7,2.4,1.4,1.8.5,2.9.3,1.6.3-.7.7-1.8.3-1.8.5L30,45l-1.9,1-.8.9L28,48l2,.8,1.9,1.2,1,1.6-1.7,1.1-1.9,1.7.7,2.9.8.9,3.2-.3,1.7,1.3.2,1.7,2.3.4,4.1-1.3,1.3.9,2-1.1.2-1.2.8-1.7,2.1-1.4,2.9-.3,1.2-4.5,2-.6,1,.9.6.8.5,2.2.2,2.7-.3,3.3h2.8l1.1,1.9-1,1.8Z" style="fill:#b0b03b;stroke:#666;stroke-width:0.25px;fill-rule:evenodd"/></g></g></svg>