<svg xmlns="http://www.w3.org/2000/svg" viewBox="0 0 85.52 96.58">
    <title>C2</title>
    <g id="Layer_2" data-name="Layer 2">
        <g id="Layer_1-2" data-name="Layer 1">
            <path id="C2" d="M8.25,85.82l3.8,1.7,2.9,6.7,6.3,1.6,3.3-.9,7.4.6.8.9,3.8-2.4,7.2-1.8,4.2-6.9,11.6-2,.9-2.5L58,80l-1.2-4.2,2.6-4.4,1.8.1,2.4-2-1.7-2L57,66l-2-4.3,9.3-17.8.9-6.2L64,34.82l2.4-4.3-.3-3.2H68l.2,1.1,3.8,2.4,2.9-3.8,9.5,2.1,1-2.8-3-.2L78.25,22l-1-1.7-1.5,1-3.6-.1L68,19l-3.8-.4-3-3.4-2.5,1.1-7.1-2.2L43.65,12l-6.2-2.4L30.65,3l-1.6-1.8-.5-1-.7.8-1.2,2-.2,2,1.2,4-.3,9.3,1.1,8.1v4.9L27.15,36l-3.9,8.9-1,4.5-4.2,7.9-1.4,3.1-.8,4-.9,2.2-2.3,2-2.8,2.1-3.7,1.9-1.8,1L3,74.92l-1,1.7-.6,2.3-1.2,5,5.4,2.5Z" style="fill:#72ab39;stroke:#666;stroke-width:0.25px;fill-rule:evenodd" />
        </g>
    </g>
</svg>