<svg xmlns="http://www.w3.org/2000/svg" viewBox="0 0 96.35 115.25">
    <title>C3</title>
    <g id="Layer_2" data-name="Layer 2">
        <g id="Layer_1-2" data-name="Layer 1">
            <path id="C3" d="M15.55,1.12l-1.1,2.11-.7,14.7,1.1,2.69-.2,4.71-1.6,8-6.7,37-3.1,21-1.2,12.1L1.85,108l-1.7,5.1,2,1.5,2.3.5,1.6-.19,8.4-3.81,6.3-4.29,4.7.5,5.8,3.19,3.2,2.31h5.2l1.1-4.1,4.7-.71,4.8,2.81L60,112l5.2-1.29,1.8-1,4,.79,3.9-1,2.3-6.69-1.1-4.4.3-4.91,1.1-3.29,2.9-1.4,2.7-.21,2.3-1.89,3.2,1.1h5l-2.1-2.4-.6-3-2.6-2.5-.3-2.1,8.2-7.71-6-3.79L88,63.62l-2.7-4.29,2.2-5.8,6.3-3.8-.5-.8-4.6-2.1-.6-2.21,1.9-3-1.6-2.39-.7-3.4-1.8-2.21V31.53l-3.4-.91L77.85,32l-3-.41L76,26.53l-.6-2.8,3.7-5,4.8.2.8-7L87.55,7l-4.4-3-1.4-2.5-9.4.4L68.05.12h-8.3l-5,3.21-3.6-.9-10.7,4.5-4.7-2-9.5,1.4Z" style="fill:#7bb83d;stroke:#666;stroke-width:0.25px;fill-rule:evenodd" />
        </g>
    </g>
</svg>