<svg xmlns="http://www.w3.org/2000/svg" viewBox="0 0 87.1 136.99">
    <title>C4</title>
    <g id="Layer_2" data-name="Layer 2">
        <g id="Layer_1-2" data-name="Layer 1">
            <path id="C4" d="M23.25,31.17l-3.6,2.9-1.4,1.1-.7,1.5-.5,1.7-.3,8.6-.3,2.1-.5,1.6L.15,118.47l34.6,5.6,6.1-.5,23.2,3.8-3,3.7,4.6.4,5.9,5.3,1.7-5.1.2-4.6,1.2-12.1,3.1-21,6.7-37,1.6-8,.2-4.7-1.1-2.7.7-14.7,1.1-2.1-2.4-3.1-4.5-.5-7.9-8.5-.8-.9-7.4-.6-3.3.9-6.3-1.6-2.9-6.7-3.8-1.7-2.7.6L39.55.17l-.3,1-.9,2.1-1.9,2.3-2.9,2.3-2.4,2.5-1.3,2.5-.3,2.5-1.1,7.3-1,3.7-.8,1.6-1.6,1.6Z" style="fill:#693;stroke:#666;stroke-width:0.25px;fill-rule:evenodd" />
        </g>
    </g>
</svg>