<svg xmlns="http://www.w3.org/2000/svg" viewBox="0 0 107.36 213.67"><title>C5</title><g id="Layer_2" data-name="Layer 2"><g id="Layer_1-2" data-name="Layer 1"><path id="C5" d="M102.18,12.83l5-6.3-4.8-3-1.9-.6-28,1.4L66.08,1l-3.3-.9-3.5.9-2.4,2.2-3.6-.3-5.5,6.2-7.4,1L38,20.63l-.4,12,2.1.4.1,3.6,10.9-.1v.1l1.6,7.9-5.9,12.3-2-.7-2.2,5.4-5.6-.7-3,3.4L35,68l-2.4,3.1-12.5,39.2-10.6-3L5.38,118l-5.2,8,8.2,4.9,3.9.6,2,2.3,2.3-.4,5.3,5.6,3.2-.3,5.7,4.6,1.9-.6,3.2,1.2.1,1.8h-2.5l-5.9-1.5-.3,2.9-4.3,2.8,5.3,5.1-5.1,4.9-4.3-2.8-4.1-4.1-7.1,7,2.6,2.8-3,2.9.5,2.3-.6,3.1-4.9,5.8.2,4.4,16.9,12.8-3.6,7.6L15,207l9.5,5.1,10.7,1.4,17-71,.2-1.9.4-6.4.4-1.9.7-1.7,1.1-1.3,5.1-4.2,2.1-2,1.4-2.3.9-3.4.6-6.4.4-2.4,1.1-2.6,2-2.6,2.8-2.3,2.2-2.2,1.6-2.7,1.8-7.6,1-2,1.3-1.5,1.9-1.5,3.1-1.7,2.9-1.8,2.3-1.9,1.5-1.9,1.2-4.6,1-2.6,4.2-8,1.3-5.1,3.4-8.2,1.3-5.2-.3-4.9-.9-7.7.3-8.8-1.2-4.3.1-2.3Z" style="fill:#ba8c2f;stroke:#666;stroke-width:0.25px;fill-rule:evenodd"/></g></g></svg>