<svg xmlns="http://www.w3.org/2000/svg" viewBox="0 0 87.13 118.78"><title>C6</title><g id="Layer_2" data-name="Layer 2"><g id="Layer_1-2" data-name="Layer 1"><path id="C6" d="M14.7,85.34l-2.2,2.4-4.4,2.4-.5,5.5-1.4,3.1,3.7,3.9,3.7,1.9,1.9,2.9h2.3v3.3l1.3,2.4,7.7,4.2,8.1,1.3,5.2-8,4.1-10.7,10.6,3,12.5-39.2,2.4-3.1-1.4-3.8,3-3.4,5.6.7,2.2-5.4,2,.7L87,37.14l-1.6-7.9H74.5l-.1-3.6-2.1-.4.4-12,2.4-10.5L57.8,1.54,53.4.14l-2.9,2.4-7.8,1L31,9.24l-7.2-1.4-7.6.6-3.1-1.7-4,2.1V12l-2.2,2.7L6.6,16l4.4,3.7.8,1.3-.5,3.4,3.7,2.3L19.9,29l.8,3.8-.7,3.1-1,2.6-1.8.3-2.9-.7-2.7.5-1.5,1.1-1.1,2v6.5l1.3,1.6-.3,2.7-2.4,2.4-.7,5.7,1.9,1.5.3,1.7-2.2,2.5-.6,3.2-2.7,1.1L1,72.54l-.8,1.6H2.1L4,76.54l-.1,2.4L6.4,81l3.5.5Z" style="fill:#dba538;stroke:#666;stroke-width:0.25px;fill-rule:evenodd"/></g></g></svg>