<svg xmlns="http://www.w3.org/2000/svg" viewBox="0 0 233.86 166.85"><title>C7</title><g id="Layer_2" data-name="Layer 2"><g id="Layer_1-2" data-name="Layer 1"><path id="C7" d="M3.93,75.72l2.79,1.71.5,2.69,2.9,2.5,1.81.5,2.69-.19L11.93,93.62,15,96l3.5,3.6,3.69,2.7,1.4.61h1.91l.59,2-1,5.79L23.93,114l-.61,1.1v.6l.71.3,1.9-.09,2.6-.61,2.69-.39,1.81-.71,1.59-.29,4-.31,2-1.69,9.5,1L62,105.62l9.21,1.2,3.5-7.8.5-11.4,3.89,1.31,3.7-1,9.8,6.19h2l1.9-3.19,10.3,5.29,6.41.4,2.5,3.6,5.79,1.1,3.6,3.5h6.11l5.29,4.61,2.91,3.09,2.19,4.7,4.31,4.71,7.39,7.69,6.41,4.41,5.79,3.19,3.6,2.81,2.11,2.5,1.2,4.79,4.4,3.61,1.69,4.6,6.31,3.59,6.29,4.6,11.11,2.71,7.29.29,4.31-.6,10.29-2.8,1.8-3.29,5.31-13,1.69-8.6L222.23,137l-9.5-5.1.79-5.31,3.6-7.6-16.89-12.8-.21-4.4,4.9-5.8.6-3.09-.5-2.31,3-2.9-2.6-2.79,7.1-7,4.1,4.09,4.3,2.8,5.1-4.89-5.29-5.11L225,72l.31-2.9,5.9,1.5h2.5l-.11-1.8-3.2-1.2-1.9.6-5.69-4.6-3.21.31-5.29-5.61-2.31.4-2-2.29-3.9-.61-8.2-4.89-8.09-1.31-7.71-4.19L180.83,43v-3.3h-2.31l-1.9-2.9-3.69-1.89L169.23,31l1.39-3.09.5-5.5,4.4-2.41,2.21-2.4-4.8-3.8-3.5-.5-2.5-2.1.09-2.4-1.9-2.39h-1.89l-.71,1.29L160.23,9l-1.71-1.3-3.4-3.9-2-3.7h-2.19L148,2.72l-1.79.4L143.32,1l-1.09,3L139,3.72l-.9,1.1-1.89.2-3-.7-4.11.61-.39,3.69h-3.21l-1.79.9v2.6L123,13.93l-1.59,2.5L119.12,18h-6.8l-.8,2.7-2.29.9-1.11-1.1h-1.3l-1.39,1.2h-3.5l-2.7,2.6-2,.7-6.11-.9-1.5-.8-2.39-2.2-1-2.69-5.11-5.61V10.43l-1-1.5-2.89,1L76,9.22l-2.59,1.3-1.7-.3-5.41,5.6h-.7L64.23,15l-.91.41-.5,2.5L61,17l-.7.41-.39,3.39-1.31,2.11-4.89,3.79-3.21,4.21-4,3.79L42,36.62l-.91,1.1-.19,1.21.29,2.39-.6,1.2-2.69,2.7-3.5,1.71L31.32,48l-4,.91-9.79-.41-3.91.2-1.8.8-1.2,1.41-1.4,1.79-2.5,1.9L3.62,56l-3.5.91v4.59L1,65.12l2.19,5L2,73l-.81.91Z" style="fill:#c93;stroke:#666;stroke-width:0.25px;fill-rule:evenodd"/></g></g></svg>