<svg xmlns="http://www.w3.org/2000/svg" viewBox="0 0 160.22 146.85"><title>C8</title><g id="Layer_2" data-name="Layer 2"><g id="Layer_1-2" data-name="Layer 1"><path id="C8" d="M97.87,135.13l2.5-2.1,3,.7,7.7,3.8,3.4-2.2,4.8.6,2.5,4.8,5,1.7,3.8,2.9,3.5-1.3h4.7l6-2.3,5,1.6,2.3,2.6,8.1.8-7.2-3.1-4.1-4.1,4.1-2,2.1-1.8,4.9-3.9-1-4.9.7-4.7-3-1.5-.3-1.5-2.9-.3-4.6-4.5-.5-3.3-5.8-8-.2-2.6-11.2-.2-2.9,2.6-3.9,2-3.6,4-4.2-.4-4.1.8-2.6-3.3-2.1-1.5-.5-2.5-1.4.2-1.3-2,.5-3.1-1-2.9L94.67,87l-1.1-2.7-3.4-4.2,3.8-4.7-.8-2.3,1.3-3.8,7.2-6.4.7-3.3,2.5-1.5,5-.3.5-.9-7.7-6.4-.2-3.3-.9-4-3.5-3-.8-4L95.77,34l.3-2.7,1.8-1.3,1.9.2,4.1-2.4,2.8-2.7h-3.8l-2.1.9-2.7-2-6-.4-4-1.2-1.7-1.2.3-2.6L84,16.53l-.6-5.1-1.9-2.1v-4l-9.7-1.2L67,1.33l-4.7.7-1.1,4.1H56l-3.2-2.3L47,.63l-4.7-.5L36,4.43l-8.4,3.8-1.6.2-2.3-.5-2-1.5-4.9-2.3-.9,2.2L.17,29.63l26.7,18.7-1.1,3.3.9,1.8v1.5l.4.9V57l3.9.9-1.9,5.6L23.87,72l-2.3,1.5,8,9,2.1,4.1,6.2,1.4,4.7.5h7.9l5.1,3.1,2.5.5,4,6.6,7.2,1.4,1.9,2.9-.8,2.7,4.5,7.1,5.9,1.8,3.1,2.1,4.2,6.7,2.8.1,4.9,6.8Z" style="fill:#ffac65;stroke:#666;stroke-width:0.25px;fill-rule:evenodd"/></g></g></svg>