<svg xmlns="http://www.w3.org/2000/svg" viewBox="0 0 189.2 141.28"><title>C9</title><g id="Layer_2" data-name="Layer 2"><g id="Layer_1-2" data-name="Layer 1"><path id="C9" d="M53.48,123.24l-2.3-2.2-4.1-1-3.2-1.3-6-5.7-7.5-6-.8-2.8,1.7-1.7,2.6.5,1.6-2.1.5-4.3.3-6.5,1.9-1.9h5.2l6.6.5,1.6-7.9,3,3.9,8.2-1.9,1.7,1.2h2.4l2.9,3.6,1.9-8.2,2.9-5.5,5.3-1.1,3.6,1.8-.8,7v7.6h4.7l1.4,1.9h10.7l5.5,1.8h4.4l1.8,1.4h3.4l3.3-1.6,2.8,2,2.3-.2.3-1.9-2.4-2.3-.7-1.9.7-2.7,2.8-3.3,1.2-3.5,4.5,3.9h2.8l3.2-2.2,3.3.8,4.9-3.3h3.7l3.2,2,1.8-.4,1.5,1,2.3-.7.4,3,1.6,1.7,3.9-1,1.3-1.7,2.4-2,1.8,1,1.2,1.6,1.5.3,1.4-2.2,2.6.5,1.1,1.8,1.1-.4.4-2.2-.5-2.8-1.2-2.9,2.2-1.3,4.9.7,7-.7-8.1-.8-2.3-2.6-5-1.6-6,2.3h-4.7l-3.5,1.3-3.8-2.9-5-1.7-2.5-4.8-4.8-.6-3.4,2.2-7.7-3.8-3-.7-2.5,2.1-2.1-4.8-4.9-6.8-2.8-.1-4.2-6.7-3.1-2.1-5.9-1.8-4.5-7.1.8-2.7-1.9-2.9-7.2-1.4-4-6.6-2.5-.5-5.1-3.1h-7.9l-4.7-.5-6.2-1.4-2.1-4.1-8-9-1.4,4.2-1.3-1.2-4.5,4.5-1.1-.5-1.9,4-5,3.1-5.2,4.5-2.5-1.9-4.2-.4-4.9,3.4-4.2,4.8,5.2,8.2-.3,8-3.9,5.3-.7,3.7-3.9,4.3-3.9-2-6.7,4.2,7.6,9.8-4.3,6.1-.4,7.3,3.1,2.5,2.6,3,2.5,4.3-2.7,4.5.9,2.4L10,100l-2.4,12.2-3.7,3.5,1.7,5-.3,2.6,2.6,1.7h3.4l1.4,1.6.2,3.9,5.6,5.5,23.5,5.1,1.9-1.4V137l-2.2-3.7,10.2-7.2Z" style="fill:#f93;stroke:#666;stroke-width:0.25px;fill-rule:evenodd"/></g></g></svg>