<svg xmlns="http://www.w3.org/2000/svg" viewBox="0 0 84.16 27.61"><title>CA1</title><g id="Layer_2" data-name="Layer 2"><g id="Layer_1-2" data-name="Layer 1"><path id="CA1" d="M81.47,27.61l2.69-10.67-2.72.24-1.82-.51-2.9-2.51-.52-2.74L73.49,9.73,70.77,7.94H67.15l-2.24.77-1.38,1-2.46,1.73-2.22.4-4.27-1.76-2.74,1.66H48.23L45.84,12H44.32l-1-.85-.78-2.69L42.16,7,40.57,4.48,38.89,4.1l-2.06.14-2.5,1-2,1-2.23.9H28.47l-2.21-.4L24.39,5h-6.3L17.4,3.64l-.6-1.73L15.59.53,11.87,0,11,.37V1.45l1.51,6.3-2-1.42-2,.5L6.21,7,4.9,6.19,3.66,4.79H2.79L1.73,6.24V7.35L.85,8.45,0,10.18v1.75l1.1,1.84,2.33,1.82.8,2.52,2,1.83,2.51.67L8,22.31,6.91,23.52,7,24.61l1.07.56L9.85,25l2.49-.58,2.44-.32,2.71.34,2.9-1.11,2-1.29,1.78.47,1-.33L27,20.51l1.33-.94H29.4l1.22,1.16.92,1.42,2.84,1.79,2.95-.69,3-.44,2.4.65,1-.53,1.26-1.67h1.54l1.34,1,2,1.51,1.6-.8,1.41-1.31,1.2-2L55,19h1.36l1.4.59,2,1.05,3,1.59,1.8,1.25,1.18,1.86,1.47,1.29h2.16l2.5-.34,1.53.59,2.44.48,3.31-.42Z" style="fill:#b2b2b2;fill-rule:evenodd"/></g></g></svg>