<svg xmlns="http://www.w3.org/2000/svg" viewBox="0 0 328.58 348.24"><title>CO1</title><g id="Layer_2" data-name="Layer 2"><g id="Layer_1-2" data-name="Layer 1"><path id="CO1" d="M221.36,144.12l1.89-1.69,1.66-1.13-1-1.56L222,138.55l-2-.81-.69-1.1.78-.9,1.95-1.05,4.16-.38,1.76-.49,1.83-.28.72-.72-1.62-.28-2.89-.31-1.83-.49-2.37-1.46.16-1.67-.83-1.08-.19-1,1.87-2.06.39-2,2.19-2.34.57-2.41-1.89-1-3,.28-2.74-1.15-1.62-1.19-2,.24-4.46-3-1.89-.62-3.08.25-2.85.37-2.67-.26-2.2-.76-2.78-.65-2,.43-.63-1.19,1.06-1.45,3-.4,2.11-1.32,3.7.43,2.33-.59,1.54-1.58.85-2.88.91-2.64.73-1.83V95.53l-1.15-1.69-1.61-1-3-.89-2.84-.27.18-1,1-.82h2l3,.22,1.62.8h1.36l3.63,2,.51,2.85,2.39,2.83,2.64,2h3.82l3.24,1.27h2.75l1.67,1.34,1.37-.72,1.67.23,1.13.8.72.32.76-.14.51-.45.14-.7-.25-.92-1.71-1.85-1.33-1-1.8-1.14-2.07-.5V96l1.22-2,.36-2.69-1.58-1-1.47-.49-1.47.92-.94.18-1.38-.38-1.91-2-1.2-.49-2.53.59L216.33,88l-5-1.08-3.83-.56-2.78-1-1.11-.64-1.54.2-.43,1.88-1.27,1.41-.69.66-1.21.24-1.56-.2-1.93-1.68V86l.67-1.49L194.12,83l-2.85,1.77H190l-.26-2.09-1.4-2.08,3.49-1.81v-.9l-1.72-1.11,2-2.84-1.47-1.91L188,70.64l-1-1.36.88-1.56-.27-1.07h-3.07L180.54,66l-4.08-1L173,64.44l-1,.56-.21,1.82-1,1.4-1.91.8-2.34-.24-1.57-1-.8-1-.45-1.9h-3.13l-2.6-.36L156,63.32l-1.4-2.71-2.4-3.77-1.27-3.38,4.24,2.36h3.65l-5.35-3.38-3.83-6,4,1.58,2.8-.95,1.79-2.17,2.38-.39.24-2.16-.71-3.07-3.37-.89H154l-2.45-2.29-.77-2.25,0-2.81H137.17l-5.08.88L128.21,33l-3.52-.34L120.15,31h-9.8l-6.18,1.07-3.89-.55L95.9,29.62l-6.48-2.87-3.73-3.42-2.76-4.7-2.87-3.08L76.9,9.28,75.13,6.69,66.73,1l-3-.21L52.37,2.2l-2.49-.26L43.23.1,40,0,37.36.67l-2,.92L33,3.75l-8.22,8-2.86.33-3.3.72-2.66,1.32-4.25,3.21L6.77,27,2.32,36.61.67,43.93,0,48.83l.88,6L2,60.73l.34,5.15L2,70,.57,75l3.28,4.47,4.93,2.36,5,2,9.16,8.62,3.36,5.29-4.21,4.83-.72,2.4.72,3.18,1.89,6,4,11.34L33.89,132l2,7.23L39,144.89l3.5,10.76,3.2,4.45,4.34,6-.34,4.74,1.48,6.83,1.74,6.78.32,5.51L55,195.46l.39,3.95-1.16,1.88-2.08,1.42L51,206.45l3.73,8.87-.34,9.38,2.45,4.62,4.74,4.59,3.28,1.4,4.82-.68,4.48-1.06,7.36,1.6,9.55.44,14-.55,8.26,2,6.07,2.66,3,1.8,1.84,1.66,2.15,3.52,2,4.75,4.95,8,5.9,5.14,8.33,3.25,4.36,2.86,3.74,4.66,1.3,2.47.39,4.36,1.36,3.52,1.84,3.43,5.36-2.08,7-.85,5.7,1.27,13.73-.32,9,.39,4.43,1.11,4.13-.48,4.25-2.31,3.55,2.36,2.16,2.69,1.84,5.69,2,11.5,2.74,6.21.48,3.77,1.49,4.8,3.8,6.45,5.72,6.2,7.87,7.43,6.13,4.37,1.41.94,1.35-.42.64-1.77.35-2.15.87-2.4,2.55-2.76,3.94-1,6,.92,4,2.64,6.13.18,4.46-.92,5.51-.24,2.44-1.95,1.49-2.57,3.1-1.84,3-.61,3.92-1,3-.53,2.83-1.47,5-2.51,3.21-2.72,3-2.6,1.3-1.41,2.36-4.6,4.68-13.21-5.4-1.4-3.31-.72-3.21-.51-2.6-.74-.64-1.32,1-1.52,2.15-2.45.24-2.11-1-.92-2.48-1.06-.77-1.63.91-3.61-.24-2.07-.57-1.75-2.55-1.9L308,278.24l-.42-1-.84-.83-2.54-.88-2.71-.83-2-1.45-1.5-1.58-2.5-1.26-3.88.31-2.85-.2-1.82-.64-1.66.95-1.77.38-.27-1.32-.89-1h-1.39l-1.82.82-1.34-1-.27-1.52.21-1.95-.55-1.21-3.34-4.49.16-2-1.31-1-2.24-.58-2.44.47-2,3.2-1.2.66-1-.62-2.42-4.93-2.18-1.6-2.3-.9-2.58-2.92-2.57-1.52-4.27-.41L245.05,246l1.86-.29,4.6-1.48,3.33.22,2.66-.52,1.8.3,1.94,1.3,2.68-2.18,1.47-1.59-.32-1.22-1.35-.8-6-3.59-.94-1.19.25-1,.65-.52,5.08-2.85,1.73-1.12-1.59-.9-.84-1.16v-2.21l-6.77-6.37-2.56-1.25-.89-.87.21-1.34,1.57-1.62.93-1.56,1-1.42v-4.7l-1.78-1.7,1.11-2.1-.26-2.81-2.84-.87-2.11-2,.83-2.84-1.4-1.5-.51-1.52-3.23-3.13-5.81.24-1.63-1.65-.35-2.5-1.43-1.22-2.24.18-2.68,1.13-2.35.55-2-1.73-4.54.23L220,181.56l-1.73-3.06-2.49-.38-1.87-1.93-1.13-1.59L211,172.51l-.38-2.26,4.61-.87,3.26,1.33,2.38.57,11.78-1.83,2.21,2.37,2.2-.44.58-3.33,3.26,2.79,1.89-4.32-2.84-2.43.76-1.37h2.23v-1.11l-2-1.12,1.67-3.18,2.76,1.45h3.47l1.43-2.06-2.18-2.4.89-1.73,2.69.78,1-1.73-1-2h-2.84l.3-3.24-.16-2.74-.58-2.14-.6-.8-1-.94-1.93.56-1.2,4.5-2.94.34-2.06,1.4-.87,1.65-.19,1.2-1.94,1.12-1.37-.87-4,1.23-2.34-.39-.23-1.65L226,147.58l-3.2.28-.75-.85-.7-2.89ZM134.49,51.83l.21-1.76.19-1.55.77-1.57,2-.3.81.72,1.53.43L141.69,49l1.05.35.38-1.8,2.66.16,1.52.11,1.23.67,1.51.75,1.19.92.46.75-.16,1.16-.62.41h-.52l-.43-.35-.54.32-.75.62-.7.27-.54-.33-.51-.78-2-.72-1.77-.33-1.81-.08-1.08.38-1.56,1.08-.89.8-1.7.92-1.05,0-.54-1V51.83Zm29.58,70.66-1.24-1.7,1.16.69,1.24-.46,1.24-1.7.46-1.14.9-.37,1-.11.23-1,.17-.43.64-.23,1.47.47,1,.49.87,0,1.13-.57,1.2-.6.93-.2,1.05,1.39,1.48,2.6-2.23,2-2.12-.1-.65.42H173l-.49.6-.74.57h-.91l-.72-.24-.4-.14h-1.26l-.81.69-.92.18-1.2-.19-1.45-.9ZM159,169.05l-1.21-.2-.82-.44-.05-1.4.87-.82h2l1.12.05,1.74-.1,2,.54,1.16-.2-.43-.87.87-1.78,1-1.21.63.82,2.38,2.07.35-.8.23-1.07.34-1.45.46.15,1.49.8L175,163l1.68.34,2.64,1.3.57,1.11v1.45h-1.34l-1.1-.19-2-.42-1.53.12-2.1.15-.57,1.18-1.3,2.79L169,172l-1.07.11-1.22.38-.38-.57-.42-1.34-.5-1.45-1.07.23-.87,0-1.4.24-3-.57Zm69,75.54-.22-2V240l1.19.09,1.33.11,1.07.08,1.08,0,1.21.43v.91l-.6.6-.3,1.28-.82.31-2,.78Z" style="fill:#eac102;fill-rule:evenodd"/></g></g></svg>