<svg xmlns="http://www.w3.org/2000/svg" viewBox="0 0 376.31 517.82"><title>CO2</title><g id="Layer_2" data-name="Layer 2"><g id="Layer_1-2" data-name="Layer 1"><path id="CO2" d="M240.58,225l-2-7.23-5.95-6.48-4-11.34-1.89-6-.71-3.19.71-2.4,4.22-4.83-3.36-5.29-9.16-8.62-5-2-4.94-2.36-3.28-4.47,1.43-5.05.31-4.09-.35-5.15-1.07-5.85-.88-6.05.67-4.9,1.64-7.32L201.66,118l-6-5.31-8.08-8.14-4-8.52L181,92.32l-7.23-7.8-4-5-.71-5.18-.93-3.32-7.79-17.34-4.11-5.55-4.84-4-5.78-1.87L141,41.07l-1.32-1.57-.49-5.81-4.85-13.47L127.88,6.91,125,4.16,115.8,0l-6.42,3.58-5.7,6.6-4.46,5.16-2,1.43L95,17.94,92.83,19l-5,1.26L83,22l-5.53,1.89-1.8.61-2,1-2.1,2.43-4.67,6.53L61,44.11l-1.37,2-2.31,2.67-2.54,2.93L53,54.13,47.68,65l-.81,1.39L45.7,67.53l-2.24,1.13-2.1.73-2,.33-2,.13-1.71.47-3.6,3.61-2.51,8.34-15.35,18.4H12L4.08,112.26l-1.43,4.52-.46,3.39L3,124l4.32,9L8,135.56l-.86,3.16-3.6,8.82L.37,155.8l-.37,5,1.59,6.08,4.22,4.33,22.56,13.92,3.72,2.67L35,190.6l1.68,2.62,1.78,4,.8,3.16.72,8.42.35,5.09-1.23,5.8L35.93,227l-1,4.28.71,3.51,2.43,1.94,1.6,4,.6,6.4,7.82,11,1.72,3.34.35,2.83-2.82,5.63-2.29,2.85-.24,2.82,1.58,2.77,2.51,2.46,1.23,3.43.43,11L52,301.09l5,10-9.75,12.49-6.07,6.67-1.9,2.65-.4,2.78,1.62,3.48L46,346.71l1.84,1.74,6.9,3.63,4.6,8.27,7.95,16,2.28,2.9,10.73,4.29,7.83,1.72,5.13,2,4.67,4.09,15.82,20.42,2.78,3.6,1.13,5.56,2.59,12.79,4.67,10.53,5.52,10.92,2,4.27,1.31,4.54.31,6-2.19,6.58-1.19,7.46.31,13.33,1,8.28,6.15,11,1.47,1.19,2.11-.57,7.52-5.28,6.09-1.89,10-2.26,4.57-.81,6.21,3.06,9.3,7.13,2.09.49,2.76-.59,11.93-7.42,11.18-9.37,8-5.34,9.71-1.2,9.38-.8,5.94.37-.53,2.89,2.91,3.73,3.84,2.43,9,.51,6.19-.89,4.25-.91,4.42,2.24,3.28.78,2.83,3.56,2,2.44,2.67,1,6.16-.37-.76-5.34-1.14-3.34.3-3.16L290,497.31l1.12-3.46-.52-1.91-2.95-.54-2.71-4-2.71-4.65-1.45-.53-2.22.36-.78.45-1.29.75-2.3-.48-2.71.4-2.69-.29-1.77,1-2.67,2.12-1.53.5-2.14-1.18-4.78-3.26-4.31-1-5.08.47-5.28,1.82-3.38.4,3.82-2.38L243,480.6l-.46-3.16-1.23-2.13-1.8-1.64.69-5.09-.61-2.35v-2.69l-2.39-1.28-2.37-.3-1-1.59.28-2.2-1.29-2.6,2.29-2.51-1.32-2.5.26-2.48.61-1.37-.85-.67-2.51.12-3.91-1.36-3.37,1.05-2.49,2.23-4,.72-1.76-.29-1.39-1.75,2-2.05.73-1.85v-2.35l-2.27-2-.27-1.42,1.08-.49,2.92.95,2.1.67.95-1v-2l.3-1.49,1.09-.9,2-.62,1-1.3v-1.55l1.35-2,.31-2.44-1-1.57-1.06-.68.82-1.43L223.12,419l-1.94-2.44-2.59-2.61-1.3-1.12-.28-1.25,1.66-1.77,2.18.53,1.87.91,1.82-.72,2.33-1.67,1.5-.7,1.73.25,2.41,2.8,2.29,1.62,1.95,2.33,1.34-2.58,1.47-2.14,2-1.23,2.67,1.26,1.79-2.08.57-2,1.94-.67,1.92,1.17,2.43.89,1.67.24,1.09,1,.79,1.24.71-.71,1.24-.76,2.56-.11,1.79.3,1.19,1.52.9.51,2-.81,1.68.66,1.49.23,1.14.49,1.68-.41,1.55-3,2.82-4.15,4.61,1.09,3,.44,2.29-.34,2.15-1.9,1.67-1,2.3-.23,1.9.42,2.27,1.94,2.26,3.09,1.39,2.78,1.64,1.32,3,.89,2.37-.29,1.23-.39.59,1,.79.92L312,414l1.24-.74,1.24-.2,1.05-.71.71-.86,1-.33,1.92,1.36-.15,1,.14.66,1-.25,1,.12.8.56.32,1.17-1.87,2.2,1,1.91.52,2.92,1,2.74.31,2-1,1.38-.35,1.61.95,1.13,4.06,2.42.53,1.86,1.06,2.19,1.83,1.68.65,3.58L332,445l1-2.06,5.6-5.61,5-6,6.46-3.77,5.11-6.56,3.19-1.28,5.7-.95,1.49-1.73,1.35-4.13,3.51-4.52,5.09-10.2.8-4.19-1.73-3.66-5.46-5.73-3.82-9.73-1.84-3.43L362.11,368l-.4-4.36-1.3-2.47-3.73-4.66-4.37-2.86L344,350.36l-5.9-5.14-4.95-8-2-4.75L329,329l-1.84-1.66-3-1.8-6.08-2.66-8.26-1.95-14,.53-9.55-.43-7.35-1.6-4.48,1.06-4.82.68-3.28-1.4-4.75-4.59-2.44-4.62.33-9.37-3.73-8.88,1.1-3.74,2.09-1.43,1.15-1.87-.39-4L258,275.8l-.32-5.51-1.74-6.78-1.47-6.83.33-4.74-4.34-6-3.2-4.45-3.49-10.76Z" style="fill:#0083db;fill-rule:evenodd"/></g></g></svg>