<svg xmlns="http://www.w3.org/2000/svg" viewBox="0 0 300 525.36"><title>CO3</title><g id="Layer_2" data-name="Layer 2"><g id="Layer_1-2" data-name="Layer 1"><path id="CO3" d="M226.81,277.37l-7.55-22.72-.76-4.19-.07-2.31.35-3.44,1.59-1.56L237,231.87h1l1.39.07,2.55.38,4.64.71,1-.14.62-.19,1.12-.54,1.81-.85,3-1.09,2.37-.63,1.22-.8,4.95-4,4-4.78,3-3.12,2-1.91,1.8-.92,2.79-.9,2.67-1.49,2.38-1.52,2.15-1.88.75-1.68.76-2.65.43-3.07.21-5.74V194l.12-.7.39-.69.62-.72,1.74-2,3.14-2.75,1.86-.85,2-.18h1.14l2.69.23.68-3.56v-2l-.91-1.78-4-4.14-1.12-5.4,1.18-3.77,3.13-4-.24-.83-3-4.1L290.9,151l-2.1-5.55,1.52-3.85-1.2-3.76v-6.06l1.05-6.63v-7.39l-1-5.33-6.38-18.84-3.32-6.25-6.61-4.73L263,71.33l-5-5.61-4-6.58-6.46-6.83-4.22-6.12-2.9-5.08L239.85,39l.92-3,.38-3.39-.37-1.85-1.94-4.48-.67-11L234.63,2.3,233.2,0,221.62,5.19l-13,4.46L173,20.89l-11.36.66-6.82.89-1.9.79-3.16,1.31-.86.1-1-.21-.67-.49-.51-.8-2.62-5.49-1.17-1.19-1-.45h-1.18l-1.91.24-3.73.6-4.65,1-6.32.8-9.92,2.77-4.46.74-1.81.15-1.47-.16-1.54-.77-3.85-3.29L93.3,12.82l-6-2.92H85.18l-2.79.62-3.63,1.25-4.82,1.66H68.62L62.88,9.49,53,9.05l-10.7,3L28.94,16.56l-7.1,7.15-2.51,5.51-3.7,6.13L9,45.52l-.42,2.15L9,54.55l.6,6.5.56,3.87,1.63-.31,1.33.78.58,1.15L13,69.73v2.93l1.63,3.76.18,3.5v2.16l.61,1.1.9,1.63V86.1L15.22,88l-.42,1.63L16.07,91l1.67,1.34,1.71,1.78,1.08,4.07.39,1.81.25,1.21-.73.68-1.39.31-1,.58-.26,1.28.33,1.54,1.08,4.09L19,110.83l-.56,1.67-.56,3,.64,2.31,1.13,1.41,3.77,2.89.8,1,.13,1.13-.53,1-.88.79-2.18,1.27-3.18,1.14-4.44,1.08-4,1.82-2.56,1.94-1.65,3-2.21,6.62.33,2.3-.51,1.15-1.7,1.6L0,149.45l.49,5.91.44,2,.74,1.7,2.57,3.11,1.14,1.57-.44,1.72.38.77,1.16,1.36.71,2.52-.79,2.4.71,2.56,1.6,1.35,2.61.73,1.81,1,.78,2.32,1.3,2.38-.5,2.22-1.34,2.09-2,1.25L2.5,196.41l-.4,1.43L3,200.65v2.94l-.95,1.46-.34.94.37,1.17L3.46,210,4,212.73l.5,5.11.29,5.26v7.39l.43,2.66,1,2.45L7.67,238l2.63,2.31,2.51,1.25,2.58,1.87,1.77.58,1.3.82.77,1.21,1.41,1.24,2.33.66,1.26,1.63,1.07,2.3v2.05l1,1.83,1.6.71,1.79.42,1.46,1.69.47,1.27-.44.92-.91,1.72v1.25l.87,1.29,2.14.82,2.23.85,1.75,1.71.68,1.11.27,2.26.7,1.55.62,1.73.08,1.72-.69,3.58.21,4.85-.3,5.93,1.7,2.23,1.74,2.8,1.34,5.38,1.09,2.73.75,3.9,1,1.3,2.63,2.63.71,1.66.16,1.61v3l.89,1.29.81,1.43.46,1.73-.25.79-1.2,1.61-.79,1.28-.22,1.46V329l-.56.5-1.4.31-.93.35-.39.65.23.92.9,1.05.42,1.22-1.22,3.79v3.26l.45,1.67,2.07,2.08,1.16,2,1,3.23.41,3.51.91,1.94.12,1.2L52.19,358l-1.69,2.21-.18,1.25.5,1.39.24.89-.18.48-.63.71-.92,1-2.8,3.12v.46l1.15,1.15.38.51v.56l-.31,1.09.46.88,1.61,1.56.44,1.56-.33,1.31-1.2,2.08v1.72l1.22,3,.21,2.11-.41,8,3.8,4.55,2,2.72,1,4.12.38,5.28-6.07,4.12-.74,4.32-.88,3.18-1.35,6.54v2.95l.38,4.63-.35,3.64-.22,6.28-.93,3.49-2.8,9.73-.34,8.12-1,2.52-2.77,7.88-.46,6-.52,7.7v4.74l.62,3.86,1.24,4.74,1.18,4.62-.21,5.35.38,2,3.44,5,2.23,2.3h2.16L65.22,507l2.51-8.33,3.6-3.62,1.72-.46,2-.14,2-.33,2.1-.73,2.24-1.13,1.17-1.11.81-1.39,5.32-10.89,1.74-2.41L93,473.48l2.31-2.67,1.37-2,5.92-9.63,4.67-6.54,2.1-2.43,2-1,1.8-.62,5.53-1.89,4.87-1.72,5-1.27,2.16-1.08,2.23-1.18,2-1.42,4.46-5.16,5.7-6.61,6.42-3.58,5.49-2.14L166,418l5.12-2.28,6.15-5.24,10.4-10.7,7.71-5.85,7.06-6,3.07-4.37,2.08-3.61,1.89-4.53,2.34-5.59.8-2.35.41-3.07.65-18.23L211.59,304l.31-1.82.73-1.46,1.4-2.33L216,296l6.08-6.42,4.43-6.7.47-.71.4-.86.09-.78-.09-.87-.21-1-.34-1.23ZM118.09,130l-.86-1.08-.42-4.43,2.09,4.81,2.86,2.32,4.35,1.14,2.25,2.91,2.45,2.37,2.65-.35,3-2.28,3.23.39,3-1.88,1,.35-1.76,3.87-1.53,3.68.83.76-.7,1.67-1.44-.52-1.84.43L135.38,146l-1.95,1.55-3.74-2.5-4.11-1.79-3.24-1.36.33-2.86-2-2.6-.41-3L118.09,130Z" style="fill:#693;fill-rule:evenodd"/></g></g></svg>