<svg xmlns="http://www.w3.org/2000/svg" viewBox="0 0 454.13 360.97"><title>CO4</title><g id="Layer_2" data-name="Layer 2"><g id="Layer_1-2" data-name="Layer 1"><path id="CO4" d="M305,213.54l3.48-1.69,2.71-2.71.59-1.2-.31-2.38.22-1.22.93-1.07,4.53-1.9,3.9-3.75,3.27-4.22,4.88-3.79,1.29-2.11.4-3.36.66-.45,1.82.88.53-2.41.87-.48,1.37.82h.76l5.36-5.6,1.74.3,2.6-1.25,1.13.71,2.91-1,1.06,1.55v2.36l5.06,5.57.94,2.69,2.41,2.18,1.55.87,6.1.83,1.95-.63,2.68-2.66H376l1.4-1.15h1.26l1.12,1.05,2.28-.91.81-2.66h6.76l2.29-1.58,1.65-2.53.67-1.79v-2.55l1.77-1h3.21l.39-3.67,4.14-.61,2.95.74,1.89-.22.94-1.13,3.17.32,1.06-3,3,2.12,1.8-.33,2.85-2.66h2.23l1.94,3.72,3.4,3.91,1.76,1.28,2.29-1.29,1.47-2.88,2.65-1.92,2.69-1.09.52-3.2,2.25-2.49-.31-1.74-1.86-1.44.71-5.76,2.36-2.35.31-2.67-1.33-1.62v-6.44l1.1-2,1.52-1.12,2.67-.45,2.92.68,1.74-.31,1.05-2.61.68-3.05-.79-3.82-4.91-2.32-3.66-2.29.53-3.42-.84-1.29L440,115.14l.32-1.29,2.18-2.7V108L441,104.33l-3-.68-7.49,4.71-2.79,1.47-5.7.59-3.3,1.31-6.22-.91-5.53,3h-5l-5.22,2.69H392.5l-9.63-1.73-4.51-4.4-2.68-.72-9.59.37-3.78-1.53L359,104.74l-7.48-5.21-5.4-4.83-14.48-5.23-8.92-2.58-4.34-.41L314,87.81l-4.34.9-5.57-1.5-6.95-1.37-7.28-.68-7.93.17-9.74,1.85-3.94.43-2.69-.78-7-5.83-6.26-1.12-6.35-4-8-3.12-4.22-.89-6.56-1.06-2.89-1.38-2.89-3.61-2.56-4.77L213.18,55l-3.49-2.42-3.33-1-5.3-.44-4.19-1.38-6.51-9.42L185,33.05,171.68,19.84l-8.82-8.74-6.27-4.27L147.85.23,145.16,0H144l-2,.17L140.15,1,137,3.77l-1.74,2-.62.72-.39.68-.12.71V9l-.2,5.73-.43,3.07-.77,2.66L132,22.1,129.83,24l-2.38,1.52L124.78,27l-2.78.91-1.8.92-2,1.9-3,3.13-4,4.77-4.94,4-1.23.79-2.36.63-3,1.1-1.8.85-1.13.53-.61.2-1,.14-4.65-.71-2.55-.39-1.39-.06h-1L68.89,57,67.3,58.56,67,62l.08,2.3.75,4.19,7.55,22.73.34,1.22.22,1,.09.88-.1.78-.4.86-.46.7-4.44,6.7-6.08,6.42-2,2.37-1.4,2.34L60.42,116l-.31,1.81L62.25,160l-.66,18.23-.41,3.07-.8,2.35L58,189.22l-1.89,4.53-2.07,3.6L51,201.73l-7.06,6-7.71,5.84L25.83,224.3l-6.15,5.24-5.12,2.28L5.5,236.4,0,238.55l9.2,4.16,2.89,2.75,6.48,13.3,4.85,13.48.49,5.8,1.33,1.58,4.58,1.22,5.79,1.87,4.83,4,4.11,5.55,7.8,17.34.92,3.32.72,5.18,4,4.95,7.22,7.8,2.65,3.74,4,8.52,8.07,8.14,6,5.31L91.26,361l4.45-9.65,4.9-9.6,4.25-3.22,2.66-1.32,3.3-.71,2.86-.34,8.22-8,2.42-2.17,2-.91,2.62-.67,3.25.09,6.65,1.85,2.49.26,11.39-1.4,3,.21,8.4,5.68,1.77,2.59,3.16,6.27,2.87,3.08,2.76,4.7,3.73,3.42,6.48,2.87,4.39,1.94,3.88.55,6.18-1.07h9.79l4.55,1.66,3.51.34,3.89-1.13,5.08-.88H239.7l-.3-2,.27-2.95,1.48-1.93,2.92-.42,1.87-.17,3.64,2.38,1.36,1,1.31.17.79-1.19-1.71-4.54-2-2.13-3.38-1.27-2.73-1.73-.59-2.31-5.15-2.83v-1l5.31-3.94,4.46-4.3.19-1.39-.57-1.89,1.06-2.75,2.17-3.15.4-1.24-.43-1.15-1.15-.74-2.8-1.71-1.45-1,.47-1.1,1.36-.21,1.29.34,2.93,1,1.39.18,1.48-.66,1.22-.09.74.54-1,1.21,1.17,3,.35,1.9.85,1.87,1.42,1.32,1.48,1.23.32,2.53,2.66,3.94,3.13,3.59,1.18.63,1.86.25,6.86,4.68.82-.23.21-1,.58-2.62,1.66-2.64v-1l-2-2.7-.44-.77.46-1.41.39-3.26-.44-1.41-2.81-3.25-.3-.8.52-.18,2.06.16.91-.11.33-.49-.31-1.13.71-.62,4.32,2.44,2.14-.67,1-1.68,1-1.4,3.87-.22,1.49-.73,1.69-.91,1.41,1.54.85,1.18,1.81,1,1.64-.29,1.27-.4.72.76.27,1.55,2,.48.13,1.75.49.69.95.38,1.15-.49.95-.25,1.07,1.22,2.9,5.08,1.12,2.72.8.79,1.33-.21,1-1.21,1.07-4.42,1.1-2.35-.43-.86-.63-.59v-.76l.79-.65v-2.17l-.72-1.62-.35-2.12-.67-.85v-4.95l-1-2.44-2.8-2.92-1.58-4.19-2.94-5.27-1.64-4.2v-2.09l2.27-.73-1-2.07-1.77-1.32-1.63.3-1.74.63-2.69.43-2.65.59-1.89.15-.65-.34v-.62l.57-1.09,1.23-3.26.95-5.77-.6-2.05H294.3l-1.37-.61-3.75-2.69-3.43-3.54-3.12-2.44-2.3-.68-3.31.42-2.44-.47-1.52-.59-2.51.34H268.4l-1.48-1.29L265.74,256l-1.8-1.26-3-1.58-2-1.06-1.4-.59h-1.36l-1,.72-1.19,2-1.42,1.31-1.6.79-2-1.51-1.34-1H246.1l-1.26,1.68-1,.53-2.39-.65-3,.43-3,.69-2.84-1.79-.91-1.41-1.23-1.17h-1.07l-1.33,1-1.84,1.63-1,.33-1.78-.47-2,1.29-2.9,1.11-2.71-.33-2.44.31-2.49.58-1.74.2-1.07-.56-.13-1.08,1.12-1.22.75-1.69-2.51-.68-2-1.83-.8-2.51-2.33-1.83-1.1-1.83v-1.76L202,241l.88-1.1v-1.11l1.06-1.44h.87l1.24,1.4,1.31.75,2.34-.11,2-.5,2,1.42L212.14,234v-1.07l.9-.38,3.72.53,1.21,1.38.59,1.73.69,1.38h6.31l1.86,1.74,2.21.39h1.63l2.24-.89,2-1,2.5-1,2.06-.14,1.69.38,1.58,2.51.43,1.49.79,2.7.94.84H247l2.38-.31H253l2.74-1.65,4.27,1.75,2.22-.4,2.46-1.73,1.39-1,2.23-.76h3.63l.81-.87,1.13-2.88-2.2-5-.85-3.6v-4.61l3.48-.91,3.06-1.42,2.51-1.88,1.44-1.83,1.17-1.34,1.86-.8,3.86-.23,9.8.41,3.93-.85Z" style="fill:#f93;fill-rule:evenodd"/></g></g></svg>