<svg xmlns="http://www.w3.org/2000/svg" viewBox="0 0 398.68 588.26"><title>CO5</title><g id="Layer_2" data-name="Layer 2"><g id="Layer_1-2" data-name="Layer 1"><path id="CO5" d="M341.86,224.06l-3.36-2.16-2-2.37-1.56-3.92L334.6,212l2.56-3.71-2.45-6.64-7.13-8.56-3.84-2.83-7.84-3.7-3.54-4.69-.55-8,1.74-3.49-.71-2.75-4.25-4.62-2.23-3.75-.46-5.49-2-3.73-4.48-3.51L292.24,144l-2.45-3-.68-2.91,1.71-5.74,2.18-1.57,7.51-2,4.86-10.3-.46-7.08-5.37-4.13-1-2.7-4.16-1.6,1.56-4.21-.46-11.93-5.78-8.25-3.61.42-4.5-11.83L281,61.57l-1.11-2.8-3-2.69-2.66-.28L272,53.62l-.44-2.11,1.1-2.31,3.77-4.91,3.11-4.83-2.82-5.69,2.48-2L278,29.3l-3.36-.75-3,.54-2.09-2.58-.65-2.74L267,21.94l-1.44.13-1-1.31,1-1.22-.36-1.4L263.43,18l-4.89,3-3.65,4.05L251,22.35,244.22,16l-6.52-3.25-4.57.2-4.56-1.37-7.3-3.16L214.81,5l-5.23-5-1.7.33-5.69,6.34-5,2.28-7.31,5-5.33,6.29-3,10.08-3.9,9.42L178,46l-1.57,4.1-3.12,6.28L168.52,60l-5.7-.33,1.13-4.9v-9.2l-3.44-5.8-3.12-6.73L145,24.13l-4.82-.44-6.33-5.09L124.5,8.08h-2.88l-3.44,2.59-2.26.26-5.63,7.21.49,7.15-2.46,2.6-2.84,5.42,3.64,1.63,1.94,2.9-2.28,3.65,1.39,5-2.73,2.88,2.13,2.43.64,2.43-2.79,3.69,3.1,1.77L111,73.16,108.3,77l-2.87,4.91-.78,7-4.84-.18-3.7,5,.69,2.86-1.11,5.09,3,.34,4.59-1.37,3.41.85v2.09l1.8,2.22.64,3.4,1.64,2.36-1.91,3.07.61,2.15,4.63,2.12.41.76-6.28,3.87-2.14,5.73,2.67,4.35,2.18,2.62,6,3.84-8.2,7.64.33,2.17,2.62,2.49.61,3,2.07,2.37h-5l-3.17-1.06-2.28,1.89-2.74.14-2.86,1.47-1.11,3.3-.27,4.82L98,172.7l-2.3,6.66-3.91,1-4-.8-1.85,1-5.14,1.24v4l1.9,2.09.53,5.13L86,195.14l-.33,2.56L87.38,199l4,1.1,6,.48,2.7,2,2.14-.9H106l-2.85,2.66L99,206.72l-1.8-.2-1.88,1.27L95,210.52l1.53,2.2.82,4,3.5,3,.84,4,.24,3.33,7.72,6.38-.56,1-5,.26-2.53,1.5-.69,3.32-7.16,6.35-1.28,3.83.75,2.27-3.75,4.66,3.4,4.22,1,2.7,9.38,7.14,1,2.89-.5,3.09,1.28,2.05,1.44-.18.5,2.47,2.06,1.5,2.6,3.33,4.1-.8,4.17.4,3.68-4,3.87-2.06,2.9-2.56,11.12.17.22,2.57,5.78,8.06.48,3.28,4.66,4.5,2.91.32.29,1.46,2.94,1.52-.63,4.62,1,4.95L154.31,312l-2.11,1.86-4.13,1.93,4.13,4.08,7.14,3.14-7,.65-4.87-.69-2.18,1.32,1.19,2.9.56,2.76-.44,2.26-1.09.37-1.13-1.83-2.62-.41-1.41,2.19-1.42-.3-1.23-1.66-1.78-1-2.39,2-1.31,1.69-4,1-1.59-1.65-.34-3-2.3.7-1.57-1-1.73.35-3.25-1.95h-3.65l-4.93,3.24-3.29-.7-3.14,2.1h-2.8l-4.54-3.83-1.29,3.72-2.68,3-.67,2.67.67,1.91,2.42,2.31-.32,1.95-2.3.15-2.79-2-3.26,1.62H81.48l-1.82-1.4H75.27l-5.49-1.78H59.08l-1.42-1.88H53v-7.65l.81-6.92-3.57-1.84-5.31,1.14L42.07,329l-2,8.19-2.89-3.65H34.85l-1.75-1.15L25,334.28l-3-3.89-1.63,7.9-6.53-.52H8.57l-1.89,1.89-.25,6.53-.52,4.27-1.59,2.05L1.71,352,0,353.73l.84,2.81,7.41,6,6.07,5.71,3.12,1.28,4.08,1,7.07,6.79,3.27,1.85,4.51,4.5,5.6,4.95-.26,4.57,6.6.74,6-.56,6.35-3.47L60,397.07,59.3,400l-2.18,2.9,2.32,2.27-.76,2.48.71,3.52-1.71,2.1-1.44,5.8L55,422.3l-.31,5.17v4.29L53.8,434l-2.3,2.1-3.79.64-2.61,1.38-.47,3.14,1.14,2,.19,1.48-1.49,1.47-2.32,1-1.22,3.93-1.27,1.61.75,2V457l-1.62,2.88-.29,3.61-1.49,3,1.08,3-3.24,2.56-1.71,1.46-.45,4.59-1.81,2.77-1,3.28L29.37,487l-1.7,2.12,1.53,2.49,1.08,2.32-1.46,2.56.93,2.27.95,3,.39,2.93,1.84,2.24-1.1,2.29-2.4,1.95L28,513l-3.87,2.31-3.51,4.05-2.47-1.3-.65,8.76,2.91,1.69,3,.81L23,533.56l1,3-.73,2.67L17,538.7l-2.3-.72-2.27-1.85-3.21.75-1.63,1.78.58,3.51,1,2.78-1.13,2v2.8l.59,3.37-.52,2.6-2.45,1.17-1.74,1.7-1.53,2.68,1.18,3.08,1.52,1.42,2.18.45,5.57-.7,5.23.7h6.89L30.41,565l7.55-.27,8.16-1,7.59,1.55,6.7,2.67,2,.69,2.9-.92,3.4-1.55,2-.18L75,568.81l3.89,4.11,5.84,4.69,2.39.64,9.63,9.6,1.56.41,1.46-1.37.93-4.6,2.1-1,1.88.16,2.25-.53,1-1.24.81-1.7,2.88-4.55,7.49-7.49,8.58-4.5,2-2.57-.31-4.64.65-6.65-.65-7.3L135.28,519l1.73-3.52,1.79-1.68,4.07-1.54,2.08-1.37.58-1.87-.67-3.81-1.19-4.63.37-4.17,5.75-8.21,5.35-5,3-5.52,4.38-2.77,3.11-.92,5.92.67,3.49-.46,2-1.38,13.43.47,12.6,4.09L214.31,482h10.91l3.1,1.92,3.53,1.07,2.6,1.23,2.93,5.21,3.75,4.72,5.79,2.28,4.06-.19,4.64,1.82,9.65.22,5.16.74,5.2-.88,2.5-1,2.7-.3-.62-3.57,1-2.84,2.25-1.3,1.56-.28,15.46,4.46,5.47,3.77h3.72l12.16-3.5,7.12,2.82,6.44,1.16,3.37,2.66h3l-3.68-8-.79-3.42.62-3,5.64-5.83.79-3.22.34-5.39,3.5-4.92.43-5-6.82-8.84-4.32-4.15-1-4-.36-11.09.37-5.82,1.73-2.83,3.29-4.07.56-6-2-6.88L337.57,404l-7.12-6.59-5.18-1.85-4.33-4.42-2.84-4.83-3.92-3.52-1.2-1.4-.46-2.32,1.91-3.38,1.76-3.58-2-4.91-1.48-5.53.6-3.8,3.45-6.42-.63-5.15.37-6.68-1.32-4.47-4.94-7.73,2.64-2.37,3,1.5,3.9-.24,5.35-4.63,5.42-2.2,2.81-2.16,3.1.24,2.57-1.76,2.17,1.33,2.82,3,3.07,1.4,5.05-.33,4.1-2,6.07-5.46,3.47-1.38,1.69-2.77.22-6.83,1.67-3.27L380,295.3l8.82-2,3-2.17.89-4.46-.93-3.69-1.09-2.21-.23-2.28,3.36-2.85,3.26-2.76,1.08-2.11.56-4.82-1.83-4.66-.68-5.25-.95-1.65-4.45-3.88-.41-2.53-.28-6.75-1.91-3.72-3.65-2-3.65,2.13-1.86-.66-3.95-6.81-5.75-3.81-1.51-2.41-1.82-.83-.53-4.9-3.78-3.84L359.1,214l-10.69,6.47-2.81,3Z" style="fill:#009952;fill-rule:evenodd"/></g></g></svg>