<?xml version="1.0" encoding="utf-8"?>
<!-- Generator: Adobe Illustrator 23.0.1, SVG Export Plug-In . SVG Version: 6.00 Build 0)  -->
<svg version="1.1" id="Layer_1" xmlns="http://www.w3.org/2000/svg" xmlns:xlink="http://www.w3.org/1999/xlink" x="0px" y="0px"
	 viewBox="0 0 130 240" style="enable-background:new 0 0 130 240;" xml:space="preserve">
<style type="text/css">
	.st0{fill:#D2DAE3;}
	.st1{enable-background:new    ;}
	.st2{fill:#D2DAE3;stroke:#374A63;stroke-linecap:round;stroke-linejoin:round;}
	.st3{fill:#D2DAE3;stroke:#374A63;stroke-linecap:round;stroke-linejoin:round;stroke-dasharray:0,1.9756;}
	.st4{fill:#24699D;}
	.st5{fill:none;}
</style>
<g id="sin_x5F_hide">
	<path id="borde" class="st0" d="M-87.6-247c5.3,0,9.6,4.3,9.6,9.6v216.9c0,5.3-4.3,9.6-9.6,9.6h-106.8c-5.3,0-9.6-4.3-9.6-9.6
		v-216.9c0-5.3,4.3-9.6,9.6-9.6H-87.6 M-87.6-249h-106.8c-6.4,0-11.6,5.2-11.6,11.6v216.9c0,6.4,5.2,11.6,11.6,11.6h106.9
		c6.4,0,11.6-5.2,11.6-11.6v-216.9C-76-243.8-81.2-249-87.6-249L-87.6-249z"/>
</g>
<g id="todito_x5F_para_x5F_hide">
	<g id="todo_x5F_mayores">
		<g class="st1">
			<path class="st0" d="M-196.9-201.4h2.1l2.4,9.1h-1.9l-0.5-2.2h-2.2l-0.5,2.2h-1.8L-196.9-201.4z M-195.1-195.9l-0.8-3.3l-0.8,3.3
				H-195.1z"/>
			<path class="st0" d="M-192-195.2c0-2.5,1.2-3.5,2.6-3.5c0.3,0,0.6,0.1,0.8,0.1v-3h1.6v9.3h-1.4l-0.1-0.6
				c-0.4,0.4-0.9,0.8-1.5,0.8C-191.1-192.1-192-193.1-192-195.2z M-188.6-194.1v-3.2c-0.2-0.1-0.4-0.1-0.6-0.1c-0.7,0-1.2,0.6-1.2,2
				c0,1.3,0.4,1.8,0.9,1.8C-189.1-193.6-188.8-193.8-188.6-194.1z"/>
			<path class="st0" d="M-185.9-193.7v-5h1.6v4.5c0,0.3,0.2,0.6,0.5,0.6c0.3,0,0.6-0.2,0.9-0.5v-4.6h1.6v6.4h-1.4l-0.1-0.7
				c-0.5,0.4-1.1,0.8-1.7,0.8C-185.4-192.1-185.9-192.7-185.9-193.7z"/>
			<path class="st0" d="M-180.2-201.5h1.6v9.3h-1.6V-201.5z"/>
			<path class="st0" d="M-177.1-194v-3.2h-0.8v-1.4h0.8v-2.1h1.6v2.1h1.2v1.4h-1.2v3c0,0.5,0.2,0.7,0.6,0.7c0.2,0,0.4,0,0.6-0.1v1.4
				c-0.2,0-0.5,0.1-0.9,0.1C-176.5-192.1-177.1-192.6-177.1-194z"/>
			<path class="st0" d="M-173.7-195.4c0-2.1,1.1-3.3,2.6-3.3c1.6,0,2.6,1.2,2.6,3.3s-1.1,3.3-2.6,3.3
				C-172.7-192.1-173.7-193.3-173.7-195.4z M-170.1-195.4c0-1.2-0.3-2-1-2c-0.7,0-1,0.8-1,2s0.3,2,1,2
				C-170.5-193.5-170.1-194.2-170.1-195.4z"/>
			<path class="st0" d="M-168-192.7l0.2-1.4c0.7,0.4,1.3,0.6,1.8,0.6c0.4,0,0.7-0.2,0.7-0.5c0-0.3-0.3-0.6-1-1c-1-0.5-1.6-1-1.6-2
				c0-1,0.7-1.8,2-1.8c0.7,0,1.3,0.1,1.8,0.4l-0.2,1.4c-0.6-0.3-1.1-0.5-1.5-0.5c-0.3,0-0.6,0.2-0.6,0.5c0,0.3,0.3,0.6,0.9,0.9
				c1,0.5,1.7,1,1.7,2.1c0,1.2-0.8,1.9-2.2,1.9C-166.7-192.1-167.4-192.3-168-192.7z"/>
		</g>
		<g class="st1">
			<path class="st0" d="M-202.2-188.6h1.4l0.1,0.7c0.5-0.4,1-0.8,1.7-0.8s1.1,0.3,1.3,0.8c0.4-0.4,1-0.8,1.7-0.8
				c1,0,1.5,0.6,1.5,1.6v5h-1.6v-4.5c0-0.3-0.2-0.5-0.5-0.5c-0.3,0-0.6,0.2-0.9,0.4v4.6h-1.6v-4.5c0-0.3-0.2-0.5-0.5-0.5
				c-0.3,0-0.6,0.2-0.9,0.4v4.6h-1.6V-188.6z"/>
			<path class="st0" d="M-193.9-183.9c0-1.5,1.2-2.2,3-2.5v-0.3c0-0.6-0.3-0.9-0.8-0.9c-0.4,0-0.9,0.2-1.5,0.5l-0.2-1.3
				c0.7-0.3,1.3-0.5,2.2-0.5c1.4,0,2,0.6,2,2.1v4.5h-1.4l-0.1-0.6c-0.4,0.5-0.9,0.8-1.6,0.8C-193.2-182.1-193.9-182.7-193.9-183.9z
				 M-190.9-183.8v-1.6c-1.1,0.2-1.4,0.8-1.4,1.3c0,0.4,0.2,0.7,0.5,0.7C-191.5-183.3-191.2-183.5-190.9-183.8z"/>
			<path class="st0" d="M-188.2-180l-0.2-1.4c0.2,0.1,0.4,0.1,0.6,0.1c0.3,0,0.6-0.1,0.8-0.5l0.1-0.4l-1.9-6.5h1.8l1,4.6l1-4.6h1.6
				l-1.9,6.8c-0.4,1.4-1,1.9-2.2,1.9C-187.8-180-188.1-180-188.2-180z"/>
			<path class="st0" d="M-183.1-185.4c0-2.1,1.1-3.3,2.6-3.3c1.6,0,2.6,1.2,2.6,3.3s-1.1,3.3-2.6,3.3
				C-182.1-182.1-183.1-183.3-183.1-185.4z M-179.5-185.4c0-1.2-0.3-2-1-2c-0.7,0-1,0.8-1,2s0.3,2,1,2
				C-179.9-183.5-179.5-184.2-179.5-185.4z"/>
			<path class="st0" d="M-177.1-188.6h1.4l0.1,0.9c0.3-0.5,0.9-1,1.6-1.1l0.3,1.7c-0.7,0-1.3,0.4-1.7,0.8v4h-1.6V-188.6z"/>
			<path class="st0" d="M-173.4-185.4c0-1.9,0.9-3.3,2.5-3.3c1.7,0,2.4,1.4,2.4,3.2c0,0.2,0,0.5,0,0.6h-3.2c0.1,1,0.5,1.6,1.3,1.6
				c0.6,0,1.1-0.2,1.7-0.6l0.2,1.2c-0.5,0.4-1.3,0.6-2.2,0.6C-172.4-182.1-173.4-183.3-173.4-185.4z M-170.1-186
				c0-1-0.3-1.6-0.8-1.6c-0.5,0-0.8,0.5-0.9,1.6H-170.1z"/>
			<path class="st0" d="M-168-182.7l0.2-1.4c0.7,0.4,1.3,0.6,1.8,0.6c0.4,0,0.7-0.2,0.7-0.5c0-0.3-0.3-0.6-1-1c-1-0.5-1.6-1-1.6-2
				c0-1,0.7-1.8,2-1.8c0.7,0,1.3,0.1,1.8,0.4l-0.2,1.4c-0.6-0.3-1.1-0.5-1.5-0.5c-0.3,0-0.6,0.2-0.6,0.5c0,0.3,0.3,0.6,0.9,0.9
				c1,0.5,1.7,1,1.7,2.1c0,1.2-0.8,1.9-2.2,1.9C-166.7-182.1-167.4-182.3-168-182.7z"/>
		</g>
	</g>
	<g id="todo_x5F_hombres" class="st1">
		<path class="st0" d="M-155.1-245h1.8v3.5h2.2v-3.5h1.8v9.1h-1.8v-3.9h-2.2v3.9h-1.8V-245z"/>
		<path class="st0" d="M-148.2-239.1c0-2.1,1.1-3.3,2.6-3.3s2.6,1.2,2.6,3.3s-1.1,3.3-2.6,3.3C-147.2-235.7-148.2-236.9-148.2-239.1
			z M-144.6-239.1c0-1.2-0.3-2-1-2c-0.7,0-1,0.8-1,2s0.3,2,1,2S-144.6-237.9-144.6-239.1z"/>
		<path class="st0" d="M-142.2-242.3h1.4l0.1,0.7c0.5-0.4,1-0.8,1.7-0.8s1.1,0.3,1.3,0.8c0.4-0.4,1-0.8,1.7-0.8c1,0,1.5,0.6,1.5,1.6
			v5h-1.6v-4.5c0-0.3-0.2-0.5-0.5-0.5c-0.3,0-0.6,0.2-0.9,0.4v4.6h-1.6v-4.5c0-0.3-0.2-0.5-0.5-0.5c-0.3,0-0.6,0.2-0.9,0.4v4.6h-1.6
			V-242.3z"/>
		<path class="st0" d="M-133.6-236.2v-9h1.6v3.4c0.4-0.3,0.8-0.6,1.4-0.6c1.2,0,2,1,2,3.1c0,2.5-1.2,3.5-2.9,3.5
			C-132.2-235.8-133-235.9-133.6-236.2z M-130.2-239.2c0-1.3-0.4-1.8-0.9-1.8c-0.3,0-0.6,0.2-0.9,0.5v3.2c0.2,0.1,0.4,0.1,0.6,0.1
			C-130.7-237.1-130.2-237.7-130.2-239.2z"/>
		<path class="st0" d="M-127.8-242.3h1.4l0.1,0.9c0.3-0.5,0.9-1,1.6-1.1l0.3,1.7c-0.7,0-1.3,0.4-1.7,0.8v4h-1.6V-242.3z"/>
		<path class="st0" d="M-124-239.1c0-1.9,0.9-3.3,2.5-3.3c1.7,0,2.4,1.4,2.4,3.2c0,0.2,0,0.5,0,0.6h-3.2c0.1,1,0.5,1.6,1.3,1.6
			c0.6,0,1.1-0.2,1.7-0.6l0.2,1.2c-0.5,0.4-1.3,0.6-2.2,0.6C-123.1-235.7-124-236.9-124-239.1z M-120.7-239.7c0-1-0.3-1.6-0.8-1.6
			c-0.5,0-0.8,0.5-0.9,1.6H-120.7z"/>
	</g>
	<g class="st1">
		<path class="st0" d="M-199.1-245h4.4v1.6h-2.5v2.2h1.9v1.6h-1.9v3.7h-1.8V-245z"/>
		<path class="st0" d="M-194.1-244.1c0-0.5,0.4-0.9,0.9-0.9c0.5,0,0.9,0.4,0.9,0.9c0,0.5-0.4,0.9-0.9,0.9
			C-193.7-243.2-194.1-243.6-194.1-244.1z M-193.9-242.3h1.6v6.4h-1.6V-242.3z"/>
		<path class="st0" d="M-191.2-245.1h1.6v9.3h-1.6V-245.1z"/>
		<path class="st0" d="M-188.1-237.6v-3.2h-0.8v-1.4h0.8v-2.1h1.6v2.1h1.2v1.4h-1.2v3c0,0.5,0.2,0.7,0.6,0.7c0.2,0,0.4,0,0.6-0.1
			v1.4c-0.2,0-0.5,0.1-0.9,0.1C-187.5-235.8-188.1-236.2-188.1-237.6z"/>
		<path class="st0" d="M-184.5-242.3h1.4l0.1,0.9c0.3-0.5,0.9-1,1.6-1.1l0.3,1.7c-0.7,0-1.3,0.4-1.7,0.8v4h-1.6V-242.3z"/>
		<path class="st0" d="M-180.9-237.5c0-1.5,1.2-2.2,3-2.5v-0.3c0-0.6-0.3-0.9-0.8-0.9c-0.4,0-0.9,0.2-1.5,0.5l-0.2-1.3
			c0.7-0.3,1.3-0.5,2.2-0.5c1.4,0,2,0.6,2,2.1v4.5h-1.4l-0.1-0.6c-0.4,0.5-0.9,0.8-1.6,0.8C-180.2-235.7-180.9-236.3-180.9-237.5z
			 M-177.9-237.4v-1.6c-1.1,0.2-1.4,0.8-1.4,1.3c0,0.4,0.2,0.7,0.5,0.7S-178.2-237.1-177.9-237.4z"/>
		<path class="st0" d="M-175.3-242.3h1.4l0.1,0.9c0.3-0.5,0.9-1,1.6-1.1l0.3,1.7c-0.7,0-1.3,0.4-1.7,0.8v4h-1.6V-242.3z"/>
	</g>
	<g class="st1">
		<path class="st0" d="M-199.3-233.3h1.4l0.1,0.7c0.4-0.4,0.9-0.8,1.6-0.8c1.2,0,2,1,2,3.1c0,2.5-1.2,3.5-2.6,3.5
			c-0.3,0-0.6-0.1-0.8-0.1v2.4h-1.6V-233.3z M-195.8-230.2c0-1.3-0.4-1.8-0.9-1.8c-0.3,0-0.6,0.2-0.9,0.5v3.2
			c0.2,0.1,0.4,0.1,0.6,0.1C-196.3-228.1-195.8-228.7-195.8-230.2z"/>
		<path class="st0" d="M-193.6-230.1c0-2.1,1.1-3.3,2.6-3.3s2.6,1.2,2.6,3.3s-1.1,3.3-2.6,3.3C-192.6-226.7-193.6-227.9-193.6-230.1
			z M-190-230.1c0-1.2-0.3-2-1-2c-0.7,0-1,0.8-1,2s0.3,2,1,2S-190-228.9-190-230.1z"/>
		<path class="st0" d="M-187.6-233.3h1.4l0.1,0.9c0.3-0.5,0.9-1,1.6-1.1l0.3,1.7c-0.7,0-1.3,0.4-1.7,0.8v4h-1.6V-233.3z"/>
		<path class="st0" d="M-183.7-233.3h1.8v2.1h-1.8V-233.3z M-183.7-229h1.8v2.1h-1.8V-229z"/>
	</g>
	<g id="todo_x5F_mujeres" class="st1">
		<path class="st0" d="M-110.8-242.5l-0.3,6.7h-1.6l0.4-9.1h2.4l1.4,6.6l1.4-6.6h2.4l0.4,9.1h-1.7l-0.3-6.7l-1.4,6.7h-1.7
			L-110.8-242.5z"/>
		<path class="st0" d="M-103.3-237.3v-5h1.6v4.5c0,0.3,0.2,0.6,0.5,0.6c0.3,0,0.6-0.2,0.9-0.5v-4.6h1.6v6.4h-1.4l-0.1-0.7
			c-0.5,0.4-1.1,0.8-1.7,0.8C-102.8-235.7-103.3-236.3-103.3-237.3z"/>
		<path class="st0" d="M-98.4-233.6l-0.2-1.3c0.1,0,0.3,0.1,0.5,0.1c0.3,0,0.6-0.2,0.6-0.6v-6.7h1.6v6.9c0,1.4-0.7,1.8-1.8,1.8
			C-98.1-233.6-98.3-233.6-98.4-233.6z M-97.7-244.1c0-0.5,0.4-0.9,0.9-0.9s0.9,0.4,0.9,0.9c0,0.5-0.4,0.9-0.9,0.9
			S-97.7-243.6-97.7-244.1z"/>
		<path class="st0" d="M-95.1-239.1c0-1.9,0.9-3.3,2.5-3.3c1.7,0,2.4,1.4,2.4,3.2c0,0.2,0,0.5,0,0.6h-3.2c0.1,1,0.5,1.6,1.3,1.6
			c0.6,0,1.1-0.2,1.7-0.6l0.2,1.2c-0.5,0.4-1.3,0.6-2.2,0.6C-94.1-235.7-95.1-236.9-95.1-239.1z M-91.8-239.7c0-1-0.3-1.6-0.8-1.6
			c-0.5,0-0.8,0.5-0.9,1.6H-91.8z"/>
		<path class="st0" d="M-89.4-242.3h1.4l0.1,0.9c0.3-0.5,0.9-1,1.6-1.1l0.3,1.7c-0.7,0-1.3,0.4-1.7,0.8v4h-1.6V-242.3z"/>
	</g>
	<g id="todo_x5F_adultos">
		<g class="st1">
			<path class="st0" d="M-197.9-127.4h2.1l2.4,9.1h-1.9l-0.5-2.2h-2.2l-0.5,2.2h-1.8L-197.9-127.4z M-196.1-121.9l-0.8-3.3l-0.8,3.3
				H-196.1z"/>
			<path class="st0" d="M-193-121.2c0-2.5,1.2-3.5,2.6-3.5c0.3,0,0.6,0.1,0.8,0.1v-3h1.6v9.3h-1.4l-0.1-0.6
				c-0.4,0.4-0.9,0.8-1.5,0.8C-192.1-118.1-193-119.1-193-121.2z M-189.6-120.1v-3.2c-0.2-0.1-0.4-0.1-0.6-0.1c-0.7,0-1.2,0.6-1.2,2
				c0,1.3,0.4,1.8,0.9,1.8C-190.1-119.6-189.8-119.8-189.6-120.1z"/>
			<path class="st0" d="M-186.9-119.7v-5h1.6v4.5c0,0.3,0.2,0.6,0.5,0.6c0.3,0,0.6-0.2,0.9-0.5v-4.6h1.6v6.4h-1.4l-0.1-0.7
				c-0.5,0.4-1.1,0.8-1.7,0.8C-186.4-118.1-186.9-118.7-186.9-119.7z"/>
			<path class="st0" d="M-181.2-127.5h1.6v9.3h-1.6V-127.5z"/>
			<path class="st0" d="M-178.1-120v-3.2h-0.8v-1.4h0.8v-2.1h1.6v2.1h1.2v1.4h-1.2v3c0,0.5,0.2,0.7,0.6,0.7c0.2,0,0.4,0,0.6-0.1v1.4
				c-0.2,0-0.5,0.1-0.9,0.1C-177.5-118.1-178.1-118.6-178.1-120z"/>
			<path class="st0" d="M-174.7-121.4c0-2.1,1.1-3.3,2.6-3.3c1.6,0,2.6,1.2,2.6,3.3s-1.1,3.3-2.6,3.3
				C-173.7-118.1-174.7-119.3-174.7-121.4z M-171.1-121.4c0-1.2-0.3-2-1-2c-0.7,0-1,0.8-1,2s0.3,2,1,2
				C-171.5-119.5-171.1-120.2-171.1-121.4z"/>
			<path class="st0" d="M-169-118.7l0.2-1.4c0.7,0.4,1.3,0.6,1.8,0.6c0.4,0,0.7-0.2,0.7-0.5c0-0.3-0.3-0.6-1-1c-1-0.5-1.6-1-1.6-2
				c0-1,0.7-1.8,2-1.8c0.7,0,1.3,0.1,1.8,0.4l-0.2,1.4c-0.6-0.3-1.1-0.5-1.5-0.5c-0.3,0-0.6,0.2-0.6,0.5c0,0.3,0.3,0.6,0.9,0.9
				c1,0.5,1.7,1,1.7,2.1c0,1.2-0.8,1.9-2.2,1.9C-167.7-118.1-168.4-118.3-169-118.7z"/>
		</g>
	</g>
	<g id="todo_x5F_jovenes">
		<g class="st1">
			<path class="st0" d="M-199.9-45.2l-0.3-1.6c0.3,0.1,0.5,0.1,0.8,0.1c0.6,0,1-0.3,1-1.1v-6.5h1.8v6.7c0,1.8-0.9,2.5-2.4,2.5
				C-199.3-45.1-199.7-45.2-199.9-45.2z"/>
			<path class="st0" d="M-195.7-48.4c0-2.1,1.1-3.3,2.6-3.3c1.6,0,2.6,1.2,2.6,3.3s-1.1,3.3-2.6,3.3
				C-194.6-45.1-195.7-46.3-195.7-48.4z M-192.1-48.4c0-1.2-0.3-2-1-2c-0.7,0-1,0.8-1,2s0.3,2,1,2
				C-192.4-46.5-192.1-47.2-192.1-48.4z M-192.9-54.2h2v0.4l-1.6,1.6h-1.1L-192.9-54.2z"/>
			<path class="st0" d="M-190.2-51.6h1.8l1,4.6l0.9-4.6h1.6l-1.7,6.4h-1.8L-190.2-51.6z"/>
			<path class="st0" d="M-184.5-48.4c0-1.9,0.9-3.3,2.5-3.3c1.7,0,2.4,1.4,2.4,3.2c0,0.2,0,0.5,0,0.6h-3.2c0.1,1,0.5,1.6,1.3,1.6
				c0.6,0,1.1-0.2,1.7-0.6l0.2,1.2c-0.5,0.4-1.3,0.6-2.2,0.6C-183.6-45.1-184.5-46.3-184.5-48.4z M-181.2-49c0-1-0.3-1.6-0.8-1.6
				c-0.5,0-0.8,0.5-0.9,1.6H-181.2z"/>
			<path class="st0" d="M-178.9-51.6h1.4l0.1,0.7c0.5-0.4,1-0.8,1.7-0.8c1,0,1.5,0.6,1.5,1.6v5h-1.6v-4.5c0-0.3-0.2-0.6-0.5-0.6
				c-0.3,0-0.6,0.2-0.9,0.5v4.6h-1.6V-51.6z"/>
			<path class="st0" d="M-173.4-48.4c0-1.9,0.9-3.3,2.5-3.3c1.7,0,2.4,1.4,2.4,3.2c0,0.2,0,0.5,0,0.6h-3.2c0.1,1,0.5,1.6,1.3,1.6
				c0.6,0,1.1-0.2,1.7-0.6l0.2,1.2c-0.5,0.4-1.3,0.6-2.2,0.6C-172.4-45.1-173.4-46.3-173.4-48.4z M-170.1-49c0-1-0.3-1.6-0.8-1.6
				c-0.5,0-0.8,0.5-0.9,1.6H-170.1z"/>
			<path class="st0" d="M-168-45.7l0.2-1.4c0.7,0.4,1.3,0.6,1.8,0.6c0.4,0,0.7-0.2,0.7-0.5c0-0.3-0.3-0.6-1-1c-1-0.5-1.6-1-1.6-2
				c0-1,0.7-1.8,2-1.8c0.7,0,1.3,0.1,1.8,0.4l-0.2,1.4c-0.6-0.3-1.1-0.5-1.5-0.5c-0.3,0-0.6,0.2-0.6,0.5c0,0.3,0.3,0.6,0.9,0.9
				c1,0.5,1.7,1,1.7,2.1c0,1.2-0.8,1.9-2.2,1.9C-166.7-45.1-167.4-45.3-168-45.7z"/>
		</g>
	</g>
	<g>
		<g>
			<line class="st2" x1="-155.5" y1="-222.6" x2="-155.5" y2="-222.6"/>
			<path class="st3" d="M-155.5-220.6v22.2c0,0.7-0.3,1.3-0.8,1.8l-2.4,2c-1.1,0.9-1.1,2.5-0.1,3.4l2.6,2.4c0.5,0.4,0.7,1,0.7,1.7
				v25.6"/>
			<line class="st2" x1="-155.5" y1="-160.6" x2="-155.5" y2="-160.6"/>
		</g>
	</g>
	<g>
		<g>
			<line class="st2" x1="-155.5" y1="-151" x2="-155.5" y2="-151"/>
			<path class="st3" d="M-155.5-149v22.2c0,0.7-0.3,1.3-0.8,1.8l-2.4,2c-1.1,0.9-1.1,2.5-0.1,3.4l2.6,2.4c0.5,0.4,0.7,1,0.7,1.7V-90
				"/>
			<line class="st2" x1="-155.5" y1="-89" x2="-155.5" y2="-89"/>
		</g>
	</g>
	<g>
		<g>
			<line class="st2" x1="-155.5" y1="-79.4" x2="-155.5" y2="-79.4"/>
			<path class="st3" d="M-155.5-77.4v22.2c0,0.7-0.3,1.3-0.8,1.8l-2.4,2c-1.1,0.9-1.1,2.5-0.1,3.4l2.6,2.4c0.5,0.4,0.7,1,0.7,1.7
				v25.6"/>
			<line class="st2" x1="-155.5" y1="-17.4" x2="-155.5" y2="-17.4"/>
		</g>
	</g>
	<g id="joven_x5F_mujer_1_">
		<g>
			<path class="st0" d="M-95-72.3c0-2.8-2.2-4.9-4.8-4.9s-4.9,2.2-4.9,4.8s2.2,4.9,4.8,4.9C-97.2-67.3-95-69.5-95-72.3z"/>
			<path class="st0" d="M-109.8-46.7l2.5-8.5l-3.7-2l-2.9,9.2c0,0-0.7,2.4,1.4,3S-109.8-46.7-109.8-46.7z"/>
			<path class="st0" d="M-94-58.4c0.7-0.2,0.8,0.7,0.8,0.7l0.5,1.6l3.7-2l-0.9-3.1c0,0-1.5-3.9-4.7-3.9H-105c-3.2,0-4.7,3.8-4.7,3.8
				l-0.9,2.9l3.7,2l0.5-1.4c0,0,0.2-0.8,0.8-0.7c0.6,0.1,0.3,1.1,0.3,1.1l-5.7,20.7h5.3v14.8c-0.1,1.4,0.9,2.6,2.4,2.8
				c1.4,0.1,2.6-0.9,2.8-2.4v-0.3v-14.7h1.5v14.8c0,1.4,1.1,2.5,2.5,2.5s2.5-1.1,2.5-2.5v-14.8h5.3l-5.7-20.7
				C-94.5-57.2-94.7-58.2-94-58.4z"/>
			<path class="st0" d="M-86-47.9l-2.8-9l-3.7,2l2.4,8.3c0,0,0.6,2.4,2.6,1.7C-85.3-45.7-86-47.9-86-47.9z"/>
			<path class="st0" d="M-105.3-73.9h-0.6c0.9-3.3,4.4-5.3,7.6-4.4c2.1,0.6,3.8,2.2,4.4,4.4h-0.7v3.3h1c-0.2,1.1-0.9,2.1-1.7,2.9
				c-0.2-0.2-0.5-0.3-0.8-0.2l-1.7,0.7c-0.3,0.1-0.5,0.5-0.3,0.8l0.1,0.5c0.1,0.3,0.5,0.5,0.8,0.3l1.8-0.7c0.3-0.1,0.5-0.5,0.3-0.8
				l-0.1-0.3c0.9-0.8,1.6-2,1.8-3.2h1V-74h-1c-0.9-3.7-4.6-5.9-8.1-4.9c-2.4,0.6-4.4,2.5-4.9,4.9h-1v3.3h2.2v-3.2H-105.3z"/>
		</g>
	</g>
	<g id="joven_x5F_hombre_1_">
		<g>
			<path class="st0" d="M-143.1-21.9c0,1.5,1.3,2.7,2.7,2.7s2.7-1.3,2.7-2.7v-2h-5.5v2H-143.1z"/>
			<path class="st0" d="M-136.1-21.9c0.1,1.5,1.4,2.6,3,2.5c1.4-0.1,2.5-1.1,2.5-2.5v-2h-5.5V-21.9z"/>
			<path class="st0" d="M-141.8-59.9v-5.6h-0.5h-0.3c-3.4,0.3-5.9,3.2-5.9,6.5v13.7c0.1,1,1,1.8,2,1.7c0.9-0.1,1.7-0.8,1.7-1.7
				v-11.6c0-0.5,0.1-1,0.9-1h2L-141.8-59.9L-141.8-59.9z"/>
			<polygon class="st0" points="-139.7,-61.1 -133.8,-61.1 -133.8,-65.4 -136.9,-65.4 -139.7,-65.4 			"/>
			<path class="st0" d="M-132.5-56.8h-0.5v-3.1h-7.6v3.1h-2.5v31.5h5.5v-17.2c0-0.5,0.2-0.8,0.7-0.8h0.1c0.5,0,0.8,0.2,0.8,0.7v0.1
				v17.2h5.5v-31.5H-132.5z"/>
			<path class="st0" d="M-131.1-65.4h-0.3h-0.3v7.4h1.8c0.8,0,0.9,0.6,0.9,1v11.7c0.1,1,1,1.8,2,1.7c0.9-0.1,1.7-0.8,1.7-1.7V-59
				C-125.2-62.3-127.8-65-131.1-65.4"/>
			<path class="st0" d="M-133.4-60.7c0,0.3,0.2,0.6,0.6,0.6c0.3,0,0.6-0.2,0.6-0.6c0-0.3-0.2-0.6-0.6-0.6
				C-133.1-61.2-133.4-61-133.4-60.7"/>
			<path class="st0" d="M-141.3-60.7c0,0.3,0.2,0.6,0.6,0.6c0.3,0,0.6-0.2,0.6-0.6c0-0.3-0.2-0.6-0.6-0.6
				C-141.1-61.2-141.3-61-141.3-60.7"/>
			<path class="st0" d="M-133.6-73.2c-0.5-0.3-0.8-0.7-1.5-0.3c-0.5,0.2-0.7,0.3-1.3,0.7c-1,0.5-2.2,0.8-3.2,0.9
				c-0.8,0.1-1.7,0.2-2.5,0.2c0.2,2.8,2.7,4.9,5.6,4.7c2.4-0.2,4.3-2,4.7-4.6C-132.5-72.1-133-72.7-133.6-73.2"/>
			<path class="st0" d="M-142.1-72.8c0.8,0,1.6-0.1,2.4-0.2c1-0.2,1.9-0.5,2.8-0.9c0.8-0.3,1.6-0.7,1.6-0.7c0.3-0.1,0.7-0.2,1-0.1
				c0.2,0.1,0.3,0.2,0.5,0.3l0.3,0.3c0,0,0.2,0.2,1.4,1.1c0.1,0.1,0.2,0.2,0.3,0.2s0.1-0.9,0.1-1.4c-0.1-1.4-0.6-2.6-1.4-3.6
				c-0.2-0.3-0.7-0.6-1.1-0.5c-0.7,0.1-0.7-0.3-1.1-0.7c-1.5-0.6-3.2-0.2-4.4,0.7c-1.5,1.3-2.6,2.7-3.3,4.6
				C-143.3-73.2-142.8-72.8-142.1-72.8"/>
		</g>
	</g>
	<g id="adulto_x5F_mujer_1_">
		<g>
			<path class="st0" d="M-99.9-139.9c2.8,0,5.1-2.3,5.1-5.1c0-2.8-2.3-5.1-5.1-5.1c-2.8,0-5.1,2.3-5.1,5.1
				C-105-142.2-102.7-139.9-99.9-139.9z"/>
			<path class="st0" d="M-85.5-119.8l-4.2-13.7c0,0-1.5-4-4.8-4h-10.7c-3.3,0-4.8,4-4.8,4l-4.2,13.7c0,0-0.8,2.5,1.4,3.1
				c2.1,0.6,2.8-1.8,2.8-1.8l3.4-11.4c0,0,0.2-0.9,0.8-0.7c0.7,0.2,0.4,1.1,0.4,1.1l-6,21.5h5.5v15.4c0,1.5,1.2,2.6,2.6,2.6
				c1.5,0,2.6-1.2,2.6-2.6V-108h1.5v15.4c0,1.5,1.2,2.6,2.6,2.6c1.5,0,2.6-1.2,2.6-2.6V-108h5.5l-5.9-21.4c0,0-0.3-0.9,0.4-1.1
				c0.7-0.2,0.8,0.7,0.8,0.7l3.4,11.4c0,0,0.6,2.5,2.8,1.8C-84.8-117.3-85.5-119.8-85.5-119.8z"/>
		</g>
	</g>
	<g id="adulto_x5F_hombre_1_">
		<g>
			<path class="st0" d="M-136.9-139.8c2.8,0,5.1-2.3,5.1-5.1c0-2.8-2.3-5.1-5.1-5.1c-2.8,0-5.1,2.3-5.1,5.1
				C-142-142.1-139.7-139.8-136.9-139.8z"/>
			<path class="st0" d="M-130.9-137.9c-0.1,0-11.8,0-11.9,0c-3.3,0-6.2,3.2-6.2,6.8v14.1c0,1.1,0.9,2,2,2c1.1,0,2-0.9,2-2v-13.3
				c0,0,0-0.9,0.8-0.9c0.8,0,0.9,0.9,0.9,0.9v37.5c0,1.6,1.3,2.8,2.8,2.8c1.6,0,2.8-1.3,2.8-2.8v-20.9c0-0.2,0.1-0.8,0.8-0.8l0,0
				c0.7,0,0.8,0.6,0.8,0.8v20.9c0,1.6,1.3,2.8,2.8,2.8c1.6,0,2.8-1.3,2.8-2.8v-37.5c0,0,0.1-0.9,0.9-0.9c0.8,0,0.8,0.9,0.8,0.9v13.3
				c0,1.1,0.9,2,2,2s2-0.9,2-2v-14.1C-124.8-134.7-127.5-137.9-130.9-137.9z"/>
		</g>
	</g>
	<g id="adulto_x5F_mayor_x5F_mujer_1_">
		<g>
			<path class="st0" d="M-104.9-214c0,0.2,0.1,0.5,0.2,0.7v0.1c0.1,0.2,0.2,0.4,0.3,0.6v0.1c0.1,0.2,0.2,0.4,0.4,0.6
				c0,0,0,0.1,0.1,0.1c0.3,0.4,0.6,0.7,1,1c0,0,0,0,0.1,0c0.2,0.1,0.4,0.3,0.6,0.4l0,0c0.4,0.2,0.9,0.4,1.4,0.5h0.1
				c0.2,0,0.5,0.1,0.8,0.1s0.5,0,0.8-0.1h0.1c0.5-0.1,1-0.3,1.4-0.5l0,0c0.2-0.1,0.4-0.2,0.6-0.4c0,0,0,0,0.1,0c0.4-0.3,0.7-0.6,1-1
				c0,0,0-0.1,0.1-0.1c0.1-0.2,0.3-0.4,0.4-0.6v-0.1c0.1-0.2,0.2-0.4,0.3-0.6v-0.1c0.1-0.2,0.1-0.5,0.2-0.7c0,0,0-0.1,0-0.2
				c0-0.2,0.1-0.5,0.1-0.7c0-1.9-1.1-3.6-2.7-4.5c0.3-0.3,0.6-0.8,0.6-1.2c0-1.1-1.2-2-2.8-2c-1.5,0-2.8,0.9-2.8,2
				c0,0.4,0.2,0.8,0.4,1.1c-1.7,0.8-2.9,2.6-2.9,4.6c0,0.3,0,0.5,0.1,0.7C-104.9-214.1-104.9-214-104.9-214z"/>
			<path class="st0" d="M-85.9-189.7c0.9-0.7,0.5-2.6,0.5-2.6l-4.2-13.7c0,0-1.5-4-4.8-4h-1.1c-1.1,1-2.6,1.6-4.2,1.6
				s-3.1-0.6-4.2-1.6h-1.1c-3.3,0-4.8,4-4.8,4l-4.2,13.7c0,0-0.8,2.5,1.4,3.1c2.1,0.6,2.8-1.8,2.8-1.8l3.4-11.5c0,0,0.2-0.9,0.8-0.7
				c0.7,0.2,0.4,1.1,0.4,1.1l-5.9,21.5h5.5v15.4c0,1.5,1.2,2.6,2.6,2.6c1.5,0,2.6-1.2,2.6-2.6v-15.4h0.8h0.7v15.4
				c0,1.5,1.2,2.6,2.6,2.6c1.5,0,2.6-1.2,2.6-2.6v-15.4h5.5l-5.9-21.5c0,0-0.2-0.9,0.4-1.1c0.7-0.2,0.8,0.7,0.8,0.7l3.4,11.5
				c0,0,0.5,1.9,2.1,1.9C-87.5-189.1-86.8-189-85.9-189.7z"/>
		</g>
	</g>
	<g id="adulto_x5F_mayor_x5F_hombre_1_">
		<g>
			<path class="st0" d="M-131-219.1l-1.6,0.4l-0.7-3.1c-0.1-0.4-0.3-0.8-0.9-0.6l-1.9,0.4c-0.4,0.1-0.8,0.1-1.2,0l-2-0.5
				c-0.4-0.1-0.7,0.2-0.9,0.6l-1,3.1l-1.6-0.4c-0.2,0-0.4,0.2-0.4,0.5s0.2,0.5,0.4,0.5l1.3,0.3c-0.3,0.7-0.5,1.5-0.5,2.3
				c0,2.2,1.3,4,3.1,4.8c0.6,0.3,1.3,0.4,2,0.4c0.6,0,1.3-0.1,1.8-0.4c1.9-0.7,3.3-2.6,3.3-4.8c0-0.8-0.2-1.6-0.5-2.3l1.3-0.3
				c0.2,0,0.4-0.2,0.4-0.5C-130.7-218.9-130.8-219.1-131-219.1z"/>
			<path class="st0" d="M-130.9-210.9c-0.1,0-0.2,0-0.4,0h-1.5c-1.1,1-2.6,1.5-4.1,1.5c-1.6,0-3-0.6-4.1-1.5h-1.5
				c-0.1,0-0.3,0-0.4,0c-3.5,0.3-6.2,3.2-6.2,6.8v1.7v0.7v11.8c0,0.7,0.3,1.3,0.9,1.6c0,0,0.6,0.4,1.6,0.3c0.8-0.1,1.5-1,1.5-1.9
				v-12.2c0-0.5,0.1-1.1,1-1.1c0.6,0,0.7,0.6,0.7,1v36.7c0,1.6,1.3,2.9,2.9,2.9s2.9-1.3,2.9-2.9v-21.1c0-0.2,0.1-0.8,0.8-0.8l0,0
				c0.7,0,0.8,0.6,0.8,0.8v21.1c0,1.6,1.3,2.9,2.9,2.9s2.9-1.3,2.9-2.9v-36.6c0-0.4,0.1-1,0.7-1c0.8,0,1,0.6,1,1.1v12.2
				c0,1.1,0.9,2,2,2s2-0.9,2-2v-11.8v-0.7v-1.7C-124.7-207.7-127.4-210.6-130.9-210.9z"/>
		</g>
	</g>
</g>
<g>
	<polygon class="st4" points="84.6,-236.2 57.6,-263.3 84.6,-290.3 	"/>
	<g>
		<path d="M95.9-274.5h5.7l6.5,21.9H103l-1.4-5.3h-5.9l-1.4,5.3h-4.9L95.9-274.5z M100.7-261.4l-2.1-8l-2.1,8H100.7z"/>
		<path d="M114.1-270.6h-5.3v-3.8h15.6v3.8H119v18h-5V-270.6z"/>
		<path d="M126.6-274.4h6c5.1,0,8.4,2.3,8.4,6.5c0,3-1.6,4.9-4.2,5.9l5.7,9.4h-5.3l-4.9-8.4h-0.9v8.4h-4.8V-274.4z M132.2-264.1
			c2.6,0,4.1-1.1,4.1-3.5c0-2.2-1.4-3.3-4-3.3h-1v6.8H132.2z"/>
		<path d="M148.9-274.5h5.7l6.5,21.9H156l-1.4-5.3h-5.9l-1.4,5.3h-4.9L148.9-274.5z M153.7-261.4l-2.1-8l-2.1,8H153.7z M152.4-280.5
			h5.3v0.9l-4.4,3.9h-2.9L152.4-280.5z"/>
		<path d="M162.2-253.7l0.7-3.8c1.9,0.9,3.6,1.5,5.5,1.5c1.7,0,2.7-0.8,2.7-2.1c0-1.5-0.9-2.4-3.6-4c-2.7-1.7-5-3.4-5-6.6
			c0-3.5,2.7-5.9,6.9-5.9c2.4,0,3.8,0.4,5.3,1l-0.7,3.8c-1.6-0.9-2.9-1.3-4.3-1.3c-1.6,0-2.3,0.9-2.3,1.9c0,1.3,1,2.2,3.5,3.6
			c2.9,1.8,5.2,3.7,5.2,7c0,3.8-2.9,6.1-7.3,6.1C166.4-252.4,164.2-252.8,162.2-253.7z"/>
	</g>
	<rect id="atras_x5F_boton" x="57.1" y="-290.3" class="st5" width="119" height="54.6"/>
</g>
</svg>
