<svg xmlns="http://www.w3.org/2000/svg" viewBox="0 0 130.1 240.1"><title>Asset 2</title><g id="Layer_2" data-name="Layer 2"><g id="Layer_1-2" data-name="Layer 1"><g id="marco_palabras"><path d="M118.4,2a9.6,9.6,0,0,1,9.6,9.6V228.5a9.6,9.6,0,0,1-9.6,9.6H11.6A9.6,9.6,0,0,1,2,228.5V11.6A9.6,9.6,0,0,1,11.6,2H118.4m0-2H11.6A11.61,11.61,0,0,0,0,11.6V228.5a11.61,11.61,0,0,0,11.6,11.6H118.5a11.61,11.61,0,0,0,11.6-11.6V11.6A11.76,11.76,0,0,0,118.4,0Z" style="fill:#7e9bae"/><g id="todo_mayores"><g style="isolation:isolate"><g style="isolation:isolate"><path d="M9.12,47.62h2.09l2.43,9.14H11.72l-.53-2.21H9l-.53,2.21H6.67Zm1.76,5.47-.78-3.35-.79,3.35Z" style="fill:#2070a0"/><path d="M14,53.81c0-2.46,1.17-3.53,2.59-3.53a2.38,2.38,0,0,1,.84.15v-3h1.63v9.29H17.71l-.1-.65a2.08,2.08,0,0,1-1.55.78C14.9,56.89,14,55.89,14,53.81Zm3.43,1.12V51.78a1.18,1.18,0,0,0-.6-.14c-.72,0-1.21.6-1.21,2s.42,1.77.95,1.77A1.24,1.24,0,0,0,17.44,54.93Z" style="fill:#2070a0"/><path d="M20.06,55.32v-5h1.63v4.53c0,.33.16.55.51.55a1.42,1.42,0,0,0,.92-.46V50.35h1.63v6.41H23.39l-.1-.69a2.62,2.62,0,0,1-1.72.82A1.39,1.39,0,0,1,20.06,55.32Z" style="fill:#2070a0"/><path d="M25.82,47.47h1.63v9.29H25.82Z" style="fill:#2070a0"/><path d="M28.88,55V51.73h-.77V50.35h.77V48.21h1.58v2.14H31.7v1.38H30.46v3c0,.46.17.69.65.69a3.81,3.81,0,0,0,.59-.07v1.4a3.91,3.91,0,0,1-.89.1C29.54,56.87,28.88,56.41,28.88,55Z" style="fill:#2070a0"/><path d="M32.26,53.57c0-2.15,1.06-3.35,2.62-3.35s2.61,1.19,2.61,3.34-1.06,3.33-2.62,3.33S32.26,55.71,32.26,53.57Zm3.61,0c0-1.19-.34-2-1-2s-1,.79-1,2,.34,2,1,2S35.87,54.75,35.87,53.57Z" style="fill:#2070a0"/><path d="M38,56.33,38.22,55a3.66,3.66,0,0,0,1.84.64c.45,0,.7-.24.7-.54s-.33-.63-1-1c-1-.46-1.63-1-1.63-2a1.84,1.84,0,0,1,2-1.84,4.05,4.05,0,0,1,1.81.41L41.68,52a3.22,3.22,0,0,0-1.51-.48c-.32,0-.56.18-.56.46s.29.56.94.88c1,.49,1.72,1,1.72,2.09a1.93,1.93,0,0,1-2.19,1.94A4.31,4.31,0,0,1,38,56.33Z" style="fill:#2070a0"/></g><g style="isolation:isolate"><path d="M3.81,60.35H5.17l.11.68A2.52,2.52,0,0,1,7,60.22,1.33,1.33,0,0,1,8.3,61,2.46,2.46,0,0,1,10,60.22c1,0,1.47.58,1.47,1.57v5H9.81V62.22c0-.32-.16-.54-.49-.54a1.34,1.34,0,0,0-.89.45v4.63H6.81V62.22c0-.32-.15-.54-.49-.54a1.34,1.34,0,0,0-.89.45v4.63H3.81Z" style="fill:#2070a0"/><path d="M12.13,65.14c0-1.46,1.15-2.18,3-2.47v-.29c0-.62-.27-.86-.82-.86a3.5,3.5,0,0,0-1.55.51l-.21-1.3a5,5,0,0,1,2.18-.5c1.39,0,2,.6,2,2.07v4.46H15.35l-.09-.65a2.15,2.15,0,0,1-1.61.78C12.79,66.89,12.13,66.31,12.13,65.14Zm3,0V63.63c-1.08.24-1.44.75-1.44,1.33s.23.69.54.69A1.28,1.28,0,0,0,15.1,65.19Z" style="fill:#2070a0"/><path d="M17.77,69l-.23-1.38a2.31,2.31,0,0,0,.64.1.82.82,0,0,0,.78-.51l.12-.37-1.89-6.49h1.75l1,4.56,1-4.56h1.65l-1.9,6.76c-.38,1.37-1,1.94-2.23,1.94A6.15,6.15,0,0,1,17.77,69Z" style="fill:#2070a0"/><path d="M22.87,63.57c0-2.15,1.05-3.35,2.61-3.35s2.62,1.19,2.62,3.34S27,66.89,25.47,66.89,22.87,65.71,22.87,63.57Zm3.61,0c0-1.19-.35-2-1-2s-1,.79-1,2,.33,2,1,2S26.48,64.75,26.48,63.57Z" style="fill:#2070a0"/><path d="M28.88,60.35h1.36l.14.94A2.16,2.16,0,0,1,32,60.22l.26,1.68a2.58,2.58,0,0,0-1.7.83v4H28.88Z" style="fill:#2070a0"/><path d="M32.59,63.56c0-1.88.89-3.34,2.52-3.34s2.36,1.4,2.36,3.2c0,.16,0,.47,0,.58H34.22c.1,1,.53,1.62,1.32,1.62A3,3,0,0,0,37.25,65l.21,1.24a3.85,3.85,0,0,1-2.17.61C33.56,66.89,32.59,65.71,32.59,63.56ZM35.91,63c0-1-.34-1.6-.83-1.6s-.79.54-.87,1.6Z" style="fill:#2070a0"/><path d="M38,66.33,38.22,65a3.66,3.66,0,0,0,1.84.64c.45,0,.7-.24.7-.54s-.33-.63-1-1c-1-.46-1.63-1-1.63-2a1.84,1.84,0,0,1,2-1.84,4.05,4.05,0,0,1,1.81.41L41.68,62a3.22,3.22,0,0,0-1.51-.48c-.32,0-.56.18-.56.46s.29.56.94.88c1,.49,1.72,1,1.72,2.09a1.93,1.93,0,0,1-2.19,1.94A4.31,4.31,0,0,1,38,66.33Z" style="fill:#2070a0"/></g></g></g><g id="todo_hombres" style="isolation:isolate"><path d="M51,4h1.82V7.55H55V4h1.82v9.12H55v-4H52.77v4H51Z" style="fill:#2070a0"/><path d="M57.75,10c0-2.15,1.06-3.35,2.62-3.35S63,7.79,63,9.94s-1.07,3.33-2.63,3.33S57.75,12.09,57.75,10Zm3.61,0c0-1.19-.35-2-1-2s-1,.79-1,2,.34,2,1,2S61.36,11.13,61.36,10Z" style="fill:#2070a0"/><path d="M63.76,6.73h1.36l.11.68a2.52,2.52,0,0,1,1.69-.81,1.33,1.33,0,0,1,1.33.76,2.46,2.46,0,0,1,1.67-.76c1,0,1.46.58,1.46,1.57v5H69.76V8.6c0-.32-.16-.54-.49-.54a1.34,1.34,0,0,0-.89.45v4.63H66.76V8.6c0-.32-.15-.54-.49-.54a1.34,1.34,0,0,0-.89.45v4.63H63.76Z" style="fill:#2070a0"/><path d="M72.37,12.81v-9H74V7.21a2,2,0,0,1,1.4-.61c1.19,0,2,1,2,3.08,0,2.5-1.16,3.54-2.88,3.54A6.35,6.35,0,0,1,72.37,12.81Zm3.44-3c0-1.29-.42-1.77-.94-1.77a1.3,1.3,0,0,0-.87.5v3.16a1.55,1.55,0,0,0,.6.13C75.33,11.85,75.81,11.25,75.81,9.83Z" style="fill:#2070a0"/><path d="M78.25,6.73H79.6l.15.94A2.12,2.12,0,0,1,81.32,6.6l.26,1.68a2.56,2.56,0,0,0-1.7.83v4H78.25Z" style="fill:#2070a0"/><path d="M82,9.94c0-1.88.88-3.34,2.51-3.34S86.84,8,86.84,9.8c0,.16,0,.47,0,.58H83.59c.09,1,.52,1.62,1.32,1.62a3,3,0,0,0,1.71-.58l.2,1.24a3.8,3.8,0,0,1-2.17.61C82.93,13.27,82,12.09,82,9.94Zm3.32-.59c0-1-.34-1.6-.83-1.6s-.79.54-.88,1.6Z" style="fill:#2070a0"/></g><g style="isolation:isolate"><g style="isolation:isolate"><path d="M6.89,4h4.35V5.61H8.7v2.2h1.93V9.43H8.7v3.71H6.89Z" style="fill:#2070a0"/><path d="M11.93,4.85a1,1,0,0,1,1.9,0,.95.95,0,1,1-1.9,0Zm.13,1.88h1.63v6.41H12.06Z" style="fill:#2070a0"/><path d="M14.82,3.85h1.63v9.29H14.82Z" style="fill:#2070a0"/><path d="M17.88,11.35V8.11h-.77V6.73h.77V4.59h1.58V6.73H20.7V8.11H19.46v3c0,.46.17.69.65.69a3.66,3.66,0,0,0,.59-.07v1.4a3.83,3.83,0,0,1-.89.1C18.54,13.25,17.88,12.79,17.88,11.35Z" style="fill:#2070a0"/><path d="M21.49,6.73h1.36l.14.94A2.16,2.16,0,0,1,24.56,6.6l.27,1.68a2.59,2.59,0,0,0-1.71.83v4H21.49Z" style="fill:#2070a0"/><path d="M25.14,11.52c0-1.46,1.15-2.18,3-2.47V8.76c0-.62-.28-.86-.83-.86a3.54,3.54,0,0,0-1.55.51l-.2-1.3a4.92,4.92,0,0,1,2.17-.5c1.39,0,2,.6,2,2.07v4.46H28.37l-.1-.65a2.15,2.15,0,0,1-1.6.78C25.8,13.27,25.14,12.69,25.14,11.52Zm3,.05V10c-1.08.24-1.44.75-1.44,1.33,0,.43.23.69.54.69A1.29,1.29,0,0,0,28.12,11.57Z" style="fill:#2070a0"/><path d="M30.71,6.73h1.35l.15.94A2.14,2.14,0,0,1,33.78,6.6L34,8.28a2.58,2.58,0,0,0-1.7.83v4H30.71Z" style="fill:#2070a0"/></g><g style="isolation:isolate"><path d="M6.75,15.73H8.11l.1.66a2.1,2.1,0,0,1,1.57-.79c1.18,0,2,1,2,3.08,0,2.46-1.15,3.53-2.59,3.53a3,3,0,0,1-.84-.13v2.35H6.75Zm3.44,3.1c0-1.3-.42-1.77-.94-1.77a1.34,1.34,0,0,0-.87.5v3.15a1.15,1.15,0,0,0,.6.14C9.71,20.85,10.19,20.25,10.19,18.83Z" style="fill:#2070a0"/><path d="M12.4,19c0-2.15,1-3.35,2.61-3.35s2.62,1.19,2.62,3.34S16.56,22.27,15,22.27,12.4,21.09,12.4,19ZM16,19c0-1.19-.35-2-1-2s-1,.79-1,2,.33,2,1,2S16,20.13,16,19Z" style="fill:#2070a0"/><path d="M18.41,15.73h1.36l.14.94a2.16,2.16,0,0,1,1.57-1.07l.26,1.68a2.58,2.58,0,0,0-1.7.83v4H18.41Z" style="fill:#2070a0"/><path d="M22.32,15.73h1.82v2.1H22.32Zm0,4.31h1.82v2.1H22.32Z" style="fill:#2070a0"/></g></g><g id="todo_mujeres" style="isolation:isolate"><path d="M95.19,6.46l-.25,6.68H93.33L93.72,4h2.39l1.43,6.56L99,4h2.4l.39,9.12H100l-.26-6.68-1.43,6.7H96.63Z" style="fill:#2070a0"/><path d="M102.69,11.7v-5h1.63v4.52c0,.34.16.56.5.56a1.44,1.44,0,0,0,.93-.46V6.73h1.63v6.41H106l-.1-.69a2.62,2.62,0,0,1-1.72.82A1.39,1.39,0,0,1,102.69,11.7Z" style="fill:#2070a0"/><path d="M107.58,15.39l-.22-1.33a1.9,1.9,0,0,0,.5.06c.35,0,.59-.19.59-.65V6.73h1.63v6.86a1.62,1.62,0,0,1-1.85,1.84A3.65,3.65,0,0,1,107.58,15.39Zm.74-10.54a.95.95,0,0,1,1.89,0,.95.95,0,1,1-1.89,0Z" style="fill:#2070a0"/><path d="M110.92,9.94c0-1.88.89-3.34,2.52-3.34S115.8,8,115.8,9.8c0,.16,0,.47,0,.58h-3.23c.1,1,.53,1.62,1.32,1.62a3,3,0,0,0,1.72-.58l.2,1.24a3.8,3.8,0,0,1-2.17.61C111.89,13.27,110.92,12.09,110.92,9.94Zm3.32-.59c0-1-.33-1.6-.82-1.6s-.8.54-.88,1.6Z" style="fill:#2070a0"/><path d="M116.61,6.73H118l.15.94a2.14,2.14,0,0,1,1.57-1.07l.26,1.68a2.56,2.56,0,0,0-1.7.83v4h-1.63Z" style="fill:#2070a0"/></g><g id="todo_adultos"><g style="isolation:isolate"><path d="M8.12,121.62h2.09l2.43,9.14H10.72l-.53-2.21H8l-.53,2.21H5.67Zm1.76,5.47-.78-3.35-.79,3.35Z" style="fill:#2070a0"/><path d="M13,127.81c0-2.46,1.17-3.53,2.59-3.53a2.38,2.38,0,0,1,.84.15v-3h1.63v9.28H16.71l-.1-.65a2.08,2.08,0,0,1-1.55.78C13.9,130.89,13,129.9,13,127.81Zm3.43,1.13v-3.16a1.18,1.18,0,0,0-.6-.14c-.72,0-1.21.6-1.21,2s.42,1.77.95,1.77A1.27,1.27,0,0,0,16.44,128.94Z" style="fill:#2070a0"/><path d="M19.06,129.32v-5h1.63v4.53c0,.33.16.55.51.55a1.42,1.42,0,0,0,.92-.46v-4.62h1.63v6.41H22.39l-.1-.69a2.62,2.62,0,0,1-1.72.82A1.39,1.39,0,0,1,19.06,129.32Z" style="fill:#2070a0"/><path d="M24.82,121.48h1.63v9.28H24.82Z" style="fill:#2070a0"/><path d="M27.88,129v-3.24h-.77v-1.38h.77v-2.14h1.58v2.14H30.7v1.38H29.46v3c0,.45.17.68.65.68a3.81,3.81,0,0,0,.59-.07v1.4a3.91,3.91,0,0,1-.89.1C28.54,130.87,27.88,130.41,27.88,129Z" style="fill:#2070a0"/><path d="M31.26,127.57c0-2.15,1.06-3.35,2.62-3.35s2.61,1.19,2.61,3.34-1.06,3.33-2.62,3.33S31.26,129.72,31.26,127.57Zm3.61,0c0-1.19-.34-2-1-2s-1,.79-1,2,.34,2,1,2S34.87,128.76,34.87,127.57Z" style="fill:#2070a0"/><path d="M37,130.33l.23-1.38a3.69,3.69,0,0,0,1.84.65c.45,0,.7-.25.7-.54s-.33-.64-1-1c-1-.46-1.63-1-1.63-2a1.84,1.84,0,0,1,2-1.84,4.05,4.05,0,0,1,1.81.41L40.68,126a3.22,3.22,0,0,0-1.51-.48c-.32,0-.56.18-.56.46s.29.56.94.88c1,.49,1.72,1,1.72,2.09a1.93,1.93,0,0,1-2.19,1.94A4.31,4.31,0,0,1,37,130.33Z" style="fill:#2070a0"/></g></g><g id="todo_jovenes"><g style="isolation:isolate"><path d="M6.08,203.78l-.28-1.62a3.14,3.14,0,0,0,.78.1c.63,0,1-.28,1-1.07v-6.55H9.43v6.74A2.15,2.15,0,0,1,7,203.85,5.75,5.75,0,0,1,6.08,203.78Z" style="fill:#2070a0"/><path d="M10.32,200.57c0-2.15,1-3.35,2.61-3.35s2.62,1.19,2.62,3.34-1.07,3.33-2.63,3.33S10.32,202.72,10.32,200.57Zm3.61,0c0-1.19-.35-2-1-2s-1,.79-1,2,.33,2,1,2S13.93,201.76,13.93,200.57Zm-.88-5.72h2v.36l-1.62,1.62H12.32Z" style="fill:#2070a0"/><path d="M15.84,197.35h1.75l1,4.59.95-4.59h1.64l-1.74,6.43H17.6Z" style="fill:#2070a0"/><path d="M21.45,200.56c0-1.87.89-3.34,2.52-3.34s2.36,1.41,2.36,3.2c0,.16,0,.47,0,.58H23.08c.1,1,.53,1.62,1.32,1.62a3,3,0,0,0,1.72-.58l.2,1.24a3.8,3.8,0,0,1-2.17.61C22.42,203.89,21.45,202.72,21.45,200.56Zm3.32-.59c0-1-.33-1.6-.82-1.6s-.79.54-.88,1.6Z" style="fill:#2070a0"/><path d="M27.14,197.35h1.37l.11.69a2.57,2.57,0,0,1,1.7-.82,1.39,1.39,0,0,1,1.52,1.57v5H30.21v-4.51c0-.34-.17-.56-.5-.56a1.49,1.49,0,0,0-.94.46v4.61H27.14Z" style="fill:#2070a0"/><path d="M32.59,200.56c0-1.87.89-3.34,2.52-3.34s2.36,1.41,2.36,3.2c0,.16,0,.47,0,.58H34.22c.1,1,.53,1.62,1.32,1.62a3,3,0,0,0,1.71-.58l.21,1.24a3.85,3.85,0,0,1-2.17.61C33.56,203.89,32.59,202.72,32.59,200.56Zm3.32-.59c0-1-.34-1.6-.83-1.6s-.79.54-.87,1.6Z" style="fill:#2070a0"/><path d="M38,203.33l.23-1.38a3.69,3.69,0,0,0,1.84.65c.45,0,.7-.25.7-.54s-.33-.64-1-1c-1-.46-1.63-1-1.63-2a1.84,1.84,0,0,1,2-1.84,4.05,4.05,0,0,1,1.81.41L41.68,199a3.22,3.22,0,0,0-1.51-.48c-.32,0-.56.18-.56.46s.29.56.94.88c1,.49,1.72,1,1.72,2.09a1.93,1.93,0,0,1-2.19,1.94A4.31,4.31,0,0,1,38,203.33Z" style="fill:#2070a0"/></g></g><line x1="50.5" y1="26.4" x2="50.5" y2="26.4" style="fill:none;stroke:#374a63;stroke-linecap:round;stroke-linejoin:round"/><path d="M50.5,28.4V50.6a2.5,2.5,0,0,1-.8,1.8l-2.4,2a2.23,2.23,0,0,0-.1,3.4l2.6,2.4a2.06,2.06,0,0,1,.7,1.7V87.5" style="fill:none;stroke:#374a63;stroke-linecap:round;stroke-linejoin:round;stroke-dasharray:0,1.975600004196167"/><line x1="50.5" y1="88.4" x2="50.5" y2="88.4" style="fill:none;stroke:#374a63;stroke-linecap:round;stroke-linejoin:round"/><line x1="50.5" y1="98" x2="50.5" y2="98" style="fill:none;stroke:#374a63;stroke-linecap:round;stroke-linejoin:round"/><path d="M50.5,100v22.2a2.5,2.5,0,0,1-.8,1.8l-2.4,2a2.23,2.23,0,0,0-.1,3.4l2.6,2.4a2.06,2.06,0,0,1,.7,1.7V159" style="fill:none;stroke:#374a63;stroke-linecap:round;stroke-linejoin:round;stroke-dasharray:0,1.975600004196167"/><line x1="50.5" y1="160" x2="50.5" y2="160" style="fill:none;stroke:#374a63;stroke-linecap:round;stroke-linejoin:round"/><line x1="50.5" y1="169.6" x2="50.5" y2="169.6" style="fill:none;stroke:#374a63;stroke-linecap:round;stroke-linejoin:round"/><path d="M50.5,171.6v22.2a2.5,2.5,0,0,1-.8,1.8l-2.4,2a2.23,2.23,0,0,0-.1,3.4l2.6,2.4a2.06,2.06,0,0,1,.7,1.7v25.6" style="fill:none;stroke:#374a63;stroke-linecap:round;stroke-linejoin:round;stroke-dasharray:0,1.975600004196167"/><line x1="50.5" y1="231.6" x2="50.5" y2="231.6" style="fill:none;stroke:#374a63;stroke-linecap:round;stroke-linejoin:round"/></g><g id="joven_mujer"><path d="M111,176.7a4.82,4.82,0,0,0-4.8-4.9,4.85,4.85,0,1,0-.1,9.7A4.64,4.64,0,0,0,111,176.7Z" style="fill:#16486d"/><path d="M96.2,202.3l2.5-8.5-3.7-2L92.1,201s-.7,2.4,1.4,3S96.2,202.3,96.2,202.3Z" style="fill:#16486d"/><path d="M112,190.6c.7-.2.8.7.8.7l.5,1.6,3.7-2-.9-3.1s-1.5-3.9-4.7-3.9H101c-3.2,0-4.7,3.8-4.7,3.8l-.9,2.9,3.7,2,.5-1.4s.2-.8.8-.7.3,1.1.3,1.1L95,212.3h5.3v14.8a2.61,2.61,0,1,0,5.2.4v-15H107v14.8a2.5,2.5,0,0,0,5,0V212.5h5.3l-5.7-20.7C111.5,191.8,111.3,190.8,112,190.6Z" style="fill:#16486d"/><path d="M120,201.1l-2.8-9-3.7,2,2.4,8.3s.6,2.4,2.6,1.7A2.38,2.38,0,0,0,120,201.1Z" style="fill:#16486d"/><path d="M100.7,175.1h-.6a6.21,6.21,0,0,1,12,0h-.7v3.3h1a5.75,5.75,0,0,1-1.7,2.9.78.78,0,0,0-.8-.2l-1.7.7a.55.55,0,0,0-.3.8l.1.5a.55.55,0,0,0,.8.3l1.8-.7a.55.55,0,0,0,.3-.8l-.1-.3a5.72,5.72,0,0,0,1.8-3.2h1V175h-1a6.69,6.69,0,0,0-13,0h-1v3.3h2.2v-3.2Z" style="fill:#16486d"/></g><g id="joven_hombre"><path d="M62.9,227.1a2.75,2.75,0,0,0,2.7,2.7,2.83,2.83,0,0,0,2.7-2.7v-2H62.8v2Z" style="fill:#16486d"/><path d="M69.9,227.1a2.73,2.73,0,0,0,3,2.5,2.54,2.54,0,0,0,2.5-2.5v-2H69.9Z" style="fill:#16486d"/><path d="M64.2,189.1v-5.6h-.8a6.52,6.52,0,0,0-5.9,6.5v13.7a1.88,1.88,0,0,0,2,1.7,1.83,1.83,0,0,0,1.7-1.7V192.1c0-.5.1-1,.9-1h2v-2Z" style="fill:#16486d"/><polygon points="66.3 187.9 72.2 187.9 72.2 183.6 69.1 183.6 66.3 183.6 66.3 187.9" style="fill:#16486d"/><path d="M73.5,192.2H73v-3.1H65.4v3.1H62.9v31.5h5.5V206.5c0-.5.2-.8.7-.8h.1c.5,0,.8.2.8.7v17.3h5.5V192.2Z" style="fill:#16486d"/><path d="M74.9,183.6h-.6V191h1.8c.8,0,.9.6.9,1v11.7a1.88,1.88,0,0,0,2,1.7,1.83,1.83,0,0,0,1.7-1.7V190a6.4,6.4,0,0,0-5.8-6.4" style="fill:#16486d"/><path d="M72.6,188.3a.6.6,0,1,0,.6-.6c-.3.1-.6.3-.6.6" style="fill:#16486d"/><path d="M64.7,188.3a.6.6,0,1,0,.6-.6q-.6.15-.6.6" style="fill:#16486d"/><path d="M72.4,175.8c-.5-.3-.8-.7-1.5-.3a5.62,5.62,0,0,0-1.3.7,9.63,9.63,0,0,1-3.2.9,21.05,21.05,0,0,1-2.5.2,5.18,5.18,0,0,0,10.3.1c-.7-.5-1.2-1.1-1.8-1.6" style="fill:#16486d"/><path d="M63.9,176.2a19.42,19.42,0,0,0,2.4-.2,13.09,13.09,0,0,0,2.8-.9c.8-.3,1.6-.7,1.6-.7a1.73,1.73,0,0,1,1-.1c.2.1.3.2.5.3l.3.3s.2.2,1.4,1.1c.1.1.2.2.3.2a4.55,4.55,0,0,0,.1-1.4,6.38,6.38,0,0,0-1.4-3.6,1.17,1.17,0,0,0-1.1-.5c-.7.1-.7-.3-1.1-.7a4.62,4.62,0,0,0-4.4.7,10.87,10.87,0,0,0-3.3,4.6c-.3.5.2.9.9.9" style="fill:#16486d"/></g><g id="adulto_mujer"><path d="M106.1,109.1A5.1,5.1,0,1,0,101,104,5.12,5.12,0,0,0,106.1,109.1Z" style="fill:#16486d"/><path d="M120.5,129.2l-4.2-13.7s-1.5-4-4.8-4H100.8c-3.3,0-4.8,4-4.8,4l-4.2,13.7s-.8,2.5,1.4,3.1,2.8-1.8,2.8-1.8l3.4-11.4s.2-.9.8-.7.4,1.1.4,1.1l-6,21.5h5.5v15.4a2.6,2.6,0,1,0,5.2,0V141h1.5v15.4a2.6,2.6,0,1,0,5.2,0V141h5.5l-5.9-21.4s-.3-.9.4-1.1.8.7.8.7l3.4,11.4s.6,2.5,2.8,1.8S120.5,129.2,120.5,129.2Z" style="fill:#16486d"/></g><g id="adulto_hombre"><path d="M69.1,109.2a5.1,5.1,0,1,0-5.1-5.1A5.12,5.12,0,0,0,69.1,109.2Z" style="fill:#16486d"/><path d="M75.1,111.1H63.2c-3.3,0-6.2,3.2-6.2,6.8V132a2,2,0,0,0,4,0V118.7s0-.9.8-.9.9.9.9.9v37.5a2.8,2.8,0,0,0,5.6,0V135.3a.76.76,0,0,1,.8-.8h0a.76.76,0,0,1,.8.8v20.9a2.8,2.8,0,1,0,5.6,0V118.7s.1-.9.9-.9.8.9.8.9V132a2,2,0,0,0,4,0V117.9C81.2,114.3,78.5,111.1,75.1,111.1Z" style="fill:#16486d"/></g><g id="adulto_mayor_mujer"><path d="M101.1,35a1.85,1.85,0,0,0,.2.7v.1l.3.6v.1a2.09,2.09,0,0,0,.4.6.1.1,0,0,0,.1.1,4.74,4.74,0,0,0,1,1h.1c.2.1.4.3.6.4h0a5.78,5.78,0,0,0,1.4.5h.1c.2,0,.5.1.8.1a2.2,2.2,0,0,0,.8-.1h.1a5.78,5.78,0,0,0,1.4-.5h0a2.09,2.09,0,0,0,.6-.4h.1a4.74,4.74,0,0,0,1-1,.1.1,0,0,1,.1-.1c.1-.2.3-.4.4-.6v-.1l.3-.6v-.1c.1-.2.1-.5.2-.7v-.2c0-.2.1-.5.1-.7a5.22,5.22,0,0,0-2.7-4.5,2,2,0,0,0,.6-1.2c0-1.1-1.2-2-2.8-2s-2.8.9-2.8,2a2.1,2.1,0,0,0,.4,1.1,5.13,5.13,0,0,0-2.9,4.6,1.48,1.48,0,0,0,.1.7Z" style="fill:#16486d"/><path d="M120.1,59.3c.9-.7.5-2.6.5-2.6L116.4,43s-1.5-4-4.8-4h-1.1a6.31,6.31,0,0,1-8.4,0H101c-3.3,0-4.8,4-4.8,4L92,56.7s-.8,2.5,1.4,3.1S96.2,58,96.2,58l3.4-11.5s.2-.9.8-.7.4,1.1.4,1.1L94.9,68.4h5.5V83.8a2.6,2.6,0,0,0,5.2,0V68.4h1.5V83.8a2.6,2.6,0,0,0,5.2,0V68.4h5.5l-5.9-21.5s-.2-.9.4-1.1.8.7.8.7L116.5,58s.5,1.9,2.1,1.9A2.27,2.27,0,0,0,120.1,59.3Z" style="fill:#16486d"/></g><g id="adulto_mayor_hombre"><path d="M75,29.9l-1.6.4-.7-3.1c-.1-.4-.3-.8-.9-.6l-1.9.4a2.44,2.44,0,0,1-1.2,0l-2-.5c-.4-.1-.7.2-.9.6l-1,3.1-1.6-.4a.51.51,0,0,0,0,1l1.3.3a5.93,5.93,0,0,0-.5,2.3,5.21,5.21,0,0,0,3.1,4.8,4.48,4.48,0,0,0,2,.4,3.66,3.66,0,0,0,1.8-.4,5.13,5.13,0,0,0,3.3-4.8,5.93,5.93,0,0,0-.5-2.3l1.3-.3a.46.46,0,0,0,.4-.5C75.3,30.1,75.2,29.9,75,29.9Z" style="fill:#16486d"/><path d="M75.1,38.1H73.2a6.1,6.1,0,0,1-4.1,1.5A6.43,6.43,0,0,1,65,38.1H63.1a6.77,6.77,0,0,0-6.2,6.8V59.1a1.7,1.7,0,0,0,.9,1.6,2.59,2.59,0,0,0,1.6.3,2,2,0,0,0,1.5-1.9V46.9c0-.5.1-1.1,1-1.1.6,0,.7.6.7,1V83.5a2.9,2.9,0,0,0,5.8,0V62.4a.76.76,0,0,1,.8-.8h0a.76.76,0,0,1,.8.8V83.5a2.9,2.9,0,0,0,5.8,0V46.9c0-.4.1-1,.7-1a1,1,0,0,1,1,1.1V59.2a2,2,0,0,0,4,0V45A7.12,7.12,0,0,0,75.1,38.1Z" style="fill:#16486d"/></g></g></g></svg>