<?xml version="1.0" encoding="utf-8"?>
<!-- Generator: Adobe Illustrator 23.0.4, SVG Export Plug-In . SVG Version: 6.00 Build 0)  -->
<svg version="1.1" id="Capa_1" xmlns="http://www.w3.org/2000/svg" xmlns:xlink="http://www.w3.org/1999/xlink" x="0px" y="0px"
	 viewBox="0 0 183.6 41.5" style="enable-background:new 0 0 183.6 41.5;" xml:space="preserve">
<style type="text/css">
	.st0{fill:#010101;}
	.st1{fill:#D72A36;}
	.st2{fill:#CF9C2B;}
	.st3{fill:#289849;}
	.st4{fill:#BE202D;}
	.st5{fill:#DA4533;}
	.st6{fill:#04ACD7;}
	.st7{fill:#F1B420;}
	.st8{fill:#A21C44;}
	.st9{fill:#E16E2D;}
	.st10{fill:#CF3377;}
	.st11{fill:#EB9A2E;}
	.st12{fill:#CD8C2A;}
	.st13{fill:#4B783F;}
	.st14{fill:#187DB7;}
	.st15{fill:#47A849;}
	.st16{fill:#06568A;}
	.st17{fill:#213967;}
	.st18{fill:#129CD3;}
	.st19{fill:#2090CD;stroke:#2090CD;stroke-width:1.0942;stroke-miterlimit:10;}
	.st20{fill:#2090CD;}
	.st21{fill:#ED8E22;}
	.st22{fill:#DE1F26;}
	.st23{fill:#2F2E7D;}
</style>
<g>
	<path class="st0" d="M37.5,40.6l-0.2,0.9h-0.4l0.2-0.9l0.3-1.3h0.2L37.5,40.6z M37.8,39h-0.4l0.1-0.6h0.4L37.8,39z M40.7,38.5
		c-0.1,0.6-0.6,1-1.2,1h-0.7l-0.2,1.2h-0.4l0.6-3.1h1.1c0.5,0,0.9,0.2,0.9,0.7C40.7,38.4,40.7,38.4,40.7,38.5 M39.7,37.9h-0.6
		l-0.2,1.2h0.6c0.4,0,0.7-0.2,0.8-0.6c0,0,0-0.1,0-0.1C40.3,38,40,37.9,39.7,37.9 M42.6,40.7h-0.4l0-0.3h0c-0.2,0.2-0.4,0.3-0.7,0.3
		c-0.4,0-0.7-0.2-0.7-0.6c0-0.1,0-0.1,0-0.2c0-0.2,0.1-0.5,0.1-0.7c0.1-0.5,0.5-0.8,1-0.8c0.2,0,0.5,0.1,0.6,0.3h0l0-0.2H43
		L42.6,40.7z M41.9,38.8c-0.3,0-0.5,0.2-0.5,0.5l-0.1,0.7c0,0,0,0.1,0,0.1c0,0.3,0.2,0.4,0.4,0.4c0.3,0,0.6-0.3,0.7-0.7l0.1-0.5
		c0,0,0-0.1,0-0.1C42.5,38.9,42.2,38.8,41.9,38.8 M44.9,38.8c-0.1,0-0.3,0-0.3,0c-0.3,0-0.7,0.3-0.8,0.7l-0.2,1.2h-0.4l0.4-2.2H44
		l-0.1,0.4h0c0.2-0.3,0.5-0.4,0.8-0.4c0.1,0,0.1,0,0.2,0L44.9,38.8z M46.7,40.7h-0.4l0-0.3h0c-0.2,0.2-0.4,0.3-0.7,0.3
		c-0.4,0-0.7-0.2-0.7-0.6c0-0.1,0-0.1,0-0.2c0-0.2,0.1-0.5,0.1-0.7c0.1-0.5,0.5-0.8,1-0.8c0.2,0,0.5,0.1,0.6,0.3h0l0-0.2h0.4
		L46.7,40.7z M46.1,38.8c-0.3,0-0.5,0.2-0.5,0.5l-0.1,0.7c0,0,0,0.1,0,0.1c0,0.3,0.2,0.4,0.4,0.4c0.3,0,0.6-0.3,0.6-0.7l0.1-0.5
		c0,0,0-0.1,0-0.1C46.6,38.9,46.3,38.8,46.1,38.8 M49.8,38.8h-0.6l-0.2,1.3c0,0,0,0.1,0,0.1c0,0.2,0.1,0.2,0.2,0.2
		c0.1,0,0.3,0,0.4-0.1l-0.1,0.3c-0.1,0-0.3,0.1-0.4,0.1c-0.3,0-0.5-0.1-0.5-0.4c0,0,0-0.1,0-0.1l0.3-1.4h-0.4l0.1-0.3h0.4l0.1-0.7
		h0.4l-0.1,0.7h0.6L49.8,38.8z M51.8,39.3c0,0.2-0.1,0.3-0.1,0.5c-0.1,0.6-0.5,0.9-1.1,0.9c-0.4,0-0.8-0.2-0.8-0.7
		c0-0.1,0-0.1,0-0.2c0-0.2,0.1-0.3,0.1-0.5c0.1-0.6,0.5-0.9,1.1-0.9c0.4,0,0.8,0.2,0.8,0.7C51.8,39.2,51.8,39.3,51.8,39.3 M51,38.8
		c-0.4,0-0.5,0.2-0.6,0.6l-0.1,0.5c0,0.1,0,0.1,0,0.2c0,0.3,0.2,0.4,0.4,0.4c0.4,0,0.5-0.2,0.6-0.6l0.1-0.5c0-0.1,0-0.1,0-0.2
		C51.4,38.9,51.3,38.8,51,38.8 M55.5,39.2l-0.3,1.5h-0.4l0.2-1.4c0-0.1,0-0.1,0-0.2c0-0.2-0.1-0.4-0.4-0.4c-0.4,0-0.6,0.3-0.7,0.6
		l-0.2,1.3h-0.4l0.2-1.4c0-0.1,0-0.1,0-0.2c0-0.2-0.1-0.4-0.4-0.4c-0.4,0-0.6,0.3-0.7,0.6l-0.2,1.3h-0.4l0.4-2.2h0.4l-0.1,0.3h0
		c0.2-0.2,0.4-0.4,0.8-0.4c0.3,0,0.5,0.2,0.6,0.5l0.1-0.1c0.2-0.2,0.4-0.4,0.8-0.4c0.4,0,0.6,0.2,0.6,0.6
		C55.5,39.1,55.5,39.1,55.5,39.2 M57.7,40.7h-0.4l0-0.3h0c-0.2,0.2-0.4,0.3-0.7,0.3c-0.4,0-0.7-0.2-0.7-0.6c0-0.1,0-0.1,0-0.2
		c0-0.2,0.1-0.5,0.1-0.7c0.1-0.5,0.5-0.8,1-0.8c0.2,0,0.5,0.1,0.6,0.3h0l0-0.2h0.4L57.7,40.7z M57,38.8c-0.3,0-0.5,0.2-0.5,0.5
		l-0.1,0.7c0,0,0,0.1,0,0.1c0,0.3,0.2,0.4,0.4,0.4c0.3,0,0.6-0.3,0.7-0.7l0.1-0.5c0,0,0-0.1,0-0.1C57.5,38.9,57.2,38.8,57,38.8
		 M59.9,38.8c-0.1,0-0.3,0-0.3,0c-0.3,0-0.7,0.3-0.8,0.7l-0.2,1.2h-0.4l0.4-2.2H59L59,38.9h0c0.2-0.3,0.5-0.4,0.8-0.4
		c0.1,0,0.1,0,0.2,0L59.9,38.8z M62.7,40.7h-0.4l0-0.3h0c-0.2,0.2-0.4,0.3-0.7,0.3c-0.4,0-0.7-0.2-0.7-0.6c0-0.1,0-0.1,0-0.2
		c0-0.2,0.1-0.5,0.1-0.7c0.1-0.5,0.4-0.8,0.9-0.8c0.2,0,0.5,0.1,0.6,0.3h0l0.2-1.1h0.4L62.7,40.7z M62,38.8c-0.3,0-0.5,0.2-0.5,0.5
		l-0.1,0.7c0,0,0,0.1,0,0.1c0,0.3,0.2,0.4,0.4,0.4c0.3,0,0.6-0.4,0.7-0.7l0.1-0.5c0,0,0-0.1,0-0.1C62.6,38.9,62.3,38.8,62,38.8
		 M65.3,39.7h-1.4c0,0.1,0,0.2,0,0.3c0,0.3,0.2,0.4,0.5,0.4c0.2,0,0.5-0.2,0.6-0.3l0.2,0.2c-0.3,0.3-0.5,0.4-0.9,0.4
		c-0.4,0-0.8-0.2-0.8-0.7c0-0.1,0-0.1,0-0.2l0.1-0.5c0.1-0.6,0.5-1,1.1-1c0.4,0,0.8,0.2,0.8,0.7C65.4,39.3,65.3,39.5,65.3,39.7
		 M64.6,38.8c-0.3,0-0.6,0.2-0.7,0.6l0,0.1H65c0-0.1,0-0.2,0-0.3C65,38.9,64.8,38.8,64.6,38.8 M67.5,39.3h-0.4c0,0,0-0.1,0-0.1
		c0-0.3-0.2-0.4-0.4-0.4c-0.4,0-0.5,0.3-0.6,0.6c0,0-0.1,0.3-0.1,0.5c0,0,0,0.1,0,0.1c0,0.2,0.2,0.4,0.5,0.4c0.3,0,0.5-0.2,0.6-0.3
		l0.2,0.2c-0.2,0.3-0.6,0.4-0.9,0.4c-0.5,0-0.8-0.2-0.8-0.7c0-0.1,0-0.1,0-0.2l0.1-0.5c0.1-0.6,0.5-0.9,1-0.9c0.4,0,0.8,0.2,0.8,0.7
		C67.6,39.2,67.6,39.2,67.5,39.3 M68.1,40.7h-0.4l0.4-2.2h0.4L68.1,40.7z M68.6,38h-0.4l0.1-0.5h0.4L68.6,38z M70.3,39
		c-0.2-0.1-0.4-0.2-0.5-0.2c-0.2,0-0.5,0-0.5,0.3c0,0.4,1.1,0.2,1.1,1c0,0.5-0.5,0.8-0.9,0.8c-0.3,0-0.7-0.1-0.9-0.4l0.3-0.2
		c0.1,0.2,0.4,0.3,0.6,0.3c0.2,0,0.5-0.1,0.5-0.4c0-0.4-1.1-0.2-1.1-0.9c0-0.5,0.4-0.7,0.9-0.7c0.3,0,0.5,0,0.8,0.3L70.3,39z
		 M71.2,40.7h-0.4l0.4-2.2h0.4L71.2,40.7z M71.7,38h-0.4l0.1-0.5h0.4L71.7,38z M73.8,39.3c0,0.2-0.1,0.3-0.1,0.5
		c-0.1,0.6-0.5,0.9-1.1,0.9c-0.4,0-0.8-0.2-0.8-0.7c0-0.1,0-0.1,0-0.2c0-0.2,0.1-0.3,0.1-0.5c0.1-0.6,0.5-0.9,1.1-0.9
		c0.4,0,0.8,0.2,0.8,0.7C73.8,39.2,73.8,39.3,73.8,39.3 M73,38.8c-0.4,0-0.5,0.2-0.6,0.6l-0.1,0.5c0,0.1,0,0.1,0,0.2
		c0,0.3,0.2,0.4,0.4,0.4c0.4,0,0.5-0.2,0.6-0.6l0.1-0.5c0-0.1,0-0.1,0-0.2C73.4,38.9,73.3,38.8,73,38.8 M76.1,39.2l-0.3,1.5h-0.4
		l0.2-1.4c0-0.1,0-0.1,0-0.2c0-0.2-0.1-0.4-0.4-0.4c-0.4,0-0.6,0.3-0.7,0.6l-0.2,1.3h-0.4l0.4-2.2h0.4l-0.1,0.3h0
		c0.2-0.2,0.4-0.4,0.8-0.4c0.4,0,0.6,0.2,0.6,0.6C76.2,39.1,76.1,39.1,76.1,39.2 M78.4,39.7H77c0,0.1,0,0.2,0,0.3
		c0,0.3,0.2,0.4,0.5,0.4c0.2,0,0.5-0.2,0.6-0.3l0.2,0.2c-0.2,0.3-0.5,0.4-0.9,0.4c-0.4,0-0.8-0.2-0.8-0.7c0-0.1,0-0.1,0-0.2l0.1-0.5
		c0.1-0.6,0.5-1,1.1-1c0.4,0,0.8,0.2,0.8,0.7C78.5,39.3,78.5,39.5,78.4,39.7 M77.7,38.8c-0.3,0-0.6,0.2-0.7,0.6l0,0.1h1.1
		c0-0.1,0-0.2,0-0.3C78.2,38.9,78,38.8,77.7,38.8 M80.3,39c-0.2-0.1-0.4-0.2-0.5-0.2c-0.2,0-0.5,0-0.5,0.3c0,0.4,1.1,0.2,1.1,1
		c0,0.5-0.5,0.8-0.9,0.8c-0.3,0-0.7-0.1-0.9-0.4l0.3-0.2c0.1,0.2,0.4,0.3,0.6,0.3c0.2,0,0.5-0.1,0.5-0.4c0-0.4-1.1-0.2-1.1-0.9
		c0-0.5,0.4-0.7,0.9-0.7c0.3,0,0.5,0,0.8,0.3L80.3,39z M81.3,40.7h-0.4l0.1-0.6h0.4L81.3,40.7z M81.7,38.5l-0.3,1.3h-0.2l0.1-1.3
		l0.2-0.9h0.4L81.7,38.5z"/>
	<path class="st0" d="M79.7,15.3c0.1,0.7-0.9,1-1,0.3c0-0.1,0-0.1,0-0.2c-0.7-4.8,1.4-9.8,6.3-11.5c4.8-1.6,10.6-0.6,13.3,4.1
		c1.7,2.9,2.2,6.6,1.1,9.8c-1.3,3.9-4.8,6.7-5.3,10.7c-0.3,2.4-1,6.4-3.9,7c-3,0.7-6-0.4-7.7-3c-0.4-0.6,0.5-1.1,0.9-0.5
		c1.7,2.6,6.7,4.2,8.5,0.6c1.1-2.3,0.8-4.8,1.8-7.1c0.5-1.2,1.3-2.2,2-3.2c1.4-1.8,2.5-3.9,3-6.2c0.6-2.9-0.2-6.7-2.3-8.9
		c-3.3-3.5-8.7-4.3-12.8-1.7C80.4,7.7,79,11.7,79.7,15.3 M95.6,15.5c0-3.9-2.7-6.9-6.7-6.6c-4.4,0.3-6.8,4.1-5.5,8.3
		c0.4,1.2,1.5,2.5,2.8,2.3c1.9-0.3,1.5-3.2,3.2-3.6c1.7-0.4,2.8,2.3,1.9,3.6c-0.7,1-1.5,1.7-2.4,2.5c-0.1,0.1-0.3,0.4-0.3,0.6
		c0,0.9,0.3,1.7,0.3,2.6c0.1,0.8-0.4,1.6-1.1,2c-1.3,0.8-2.2-1.3-2.6-2.1c-0.3-0.6-1.2-0.1-0.9,0.5c0.8,1.6,2.2,3.6,4.2,2.4
		c2-1.2,1.2-2.9,1.2-4.8c0-1.1,1.6-2.1,2.3-3c0.6-0.8,0.6-1.7,0.4-2.7c-0.3-1.9-1.4-3.1-3.4-2.8c-2,0.3-1.5,2.9-3.1,3.6
		c-0.8,0.3-1.7-1.7-1.9-2.6c-0.4-1.7,0.1-3.4,1.4-4.6c1.6-1.5,4.7-1.7,6.6-0.7c1.7,0.9,2.4,3.2,2.4,5C94.6,16.2,95.6,16.2,95.6,15.5
		"/>
	<path class="st0" d="M7.9,12.4c0.1,0,0.3-0.1,0.6-0.1c0.3,0,0.6,0,0.8,0.1c0,0.1,0,0.3,0.1,0.8c0,0.4,0,1,0.1,1.6
		c0,0.6,0.1,1.3,0.1,2.1c0,0.7,0.1,1.5,0.1,2.1c0,0.7,0.1,1.3,0.1,1.8c0,0.5,0.1,0.9,0.1,1.2c0.5-0.1,1-0.2,1.3-0.3
		c0.3-0.1,0.6-0.1,0.9-0.1c0.2,0,0.4-0.1,0.6-0.1c0.2,0,0.4-0.1,0.7-0.1c0.4,0,0.6,0,0.8,0c0.2,0,0.3,0,0.4,0.1
		c0.1,0.1,0.1,0.1,0.2,0.2c0,0.1,0,0.2,0,0.3c-0.3,0.1-0.7,0.2-1.1,0.3c-0.4,0.1-0.8,0.2-1.3,0.4c-0.4,0.1-0.9,0.3-1.3,0.4
		c-0.4,0.1-0.8,0.2-1.2,0.3c0,0.2,0.1,0.5,0.1,1.1c0,0.5,0.1,1.2,0.2,1.9c0.1,0.7,0.1,1.5,0.2,2.4c0.1,0.8,0.2,1.7,0.2,2.5
		c0.1,0.8,0.2,1.5,0.3,2.2c0.1,0.7,0.2,1.1,0.3,1.5c0.1,0.2,0.1,0.4,0.1,0.6c0,0.2,0.1,0.5,0.2,0.9c-0.2,0.1-0.4,0.2-0.7,0.2
		c-0.3,0.1-0.5,0-0.7,0C10,36.3,9.9,36,9.8,35.8c-0.1-0.2-0.1-0.4-0.1-0.7c0-0.3-0.1-0.5-0.1-0.9c0-0.3-0.1-0.7-0.1-1.2
		c0-0.2,0-0.6-0.1-1.1c0-0.5-0.1-1.1-0.1-1.7c-0.1-0.6-0.1-1.3-0.2-2c-0.1-0.7-0.1-1.4-0.1-2c0-0.6-0.1-1.2-0.1-1.7c0-0.5,0-0.8,0-1
		c-0.4,0.1-0.7,0.2-1,0.2c-0.3,0.1-0.6,0.1-0.9,0.2c-0.3,0.1-0.7,0.1-1,0.2c-0.4,0.1-0.8,0.2-1.4,0.3c0,0.4,0,0.9,0,1.4
		c0,0.5,0.1,1.1,0.1,1.9c0,0.5,0,1.3,0.1,2.3c0,1.1,0.1,2.3,0.1,3.7c-0.2,0.1-0.4,0.2-0.7,0.3c-0.3,0.1-0.5,0.1-0.6,0.1
		c0-0.1,0-0.5,0-1.3v-2.5c0-1,0-2,0-3c0-1,0-2-0.1-2.8c-0.9,0.3-1.6,0.5-2.2,0.6c-0.6,0.1-1,0.1-1.1,0c0,0,0-0.1,0-0.3
		c0.1-0.2,0.1-0.4,0.3-0.6c0.3-0.1,0.6-0.1,0.9-0.2c0.2-0.1,0.5-0.1,0.7-0.2c0.2-0.1,0.4-0.1,0.6-0.2c0.2-0.1,0.4-0.2,0.7-0.3
		c-0.1-1.1-0.1-2.1-0.2-3c-0.1-0.9-0.1-1.7-0.2-2.4c-0.1-0.7-0.2-1.5-0.3-2.2c-0.1-0.7-0.2-1.5-0.4-2.3c0.1-0.2,0.3-0.3,0.7-0.5
		c0.3-0.2,0.7-0.2,1.1,0c0,0.9,0,1.8,0,2.6c0,0.8,0.1,1.6,0.2,2.3c0.1,0.8,0.1,1.6,0.2,2.4c0.1,0.8,0.1,1.8,0.1,2.8
		c0.5-0.1,1.1-0.2,1.7-0.4c0.7-0.2,1.5-0.4,2.4-0.6c0-0.5,0-1.2,0-2.1c0-0.9-0.1-1.8-0.1-2.7c-0.1-0.9-0.1-1.8-0.2-2.6
		C8.1,14.2,8,13.6,8,13.2c0-0.1,0-0.2-0.1-0.3c0-0.1,0-0.1,0-0.1c0,0,0-0.1,0-0.1C7.8,12.6,7.8,12.5,7.9,12.4 M29.8,25.7
		c-0.1-0.1-0.2-0.2-0.3-0.3c-0.1-0.1-0.3-0.2-0.4-0.3c-0.2-0.1-0.4-0.1-0.7-0.1c-0.3,0-0.6,0.1-0.9,0.2c-0.4,0.2-0.9,0.6-1.2,1
		c-0.4,0.4-0.7,0.9-1,1.4c-0.3,0.5-0.5,0.9-0.7,1.4c-0.2,0.4-0.3,0.8-0.4,1c0-0.6-0.1-1.2-0.1-2c-0.1-0.8-0.1-1.6-0.2-2.5
		c-0.1-0.9-0.1-1.8-0.2-2.8c-0.1-1-0.1-1.9-0.2-2.7c-0.1-0.9-0.1-1.7-0.1-2.5c0-0.8-0.1-1.4-0.1-1.9c0-0.4-0.1-0.7-0.2-0.9
		c-0.1-0.2-0.2-0.3-0.3-0.3c-0.1,0-0.2,0-0.3,0c-0.1,0.1-0.2,0.1-0.2,0.1c-0.1,0-0.1,0.3,0,0.8c0,0.6,0.1,1.3,0.2,2.1
		c0.1,0.8,0.1,1.7,0.2,2.7c0.1,1,0.1,1.9,0.1,2.7c0,0.4,0.1,1,0.1,1.5c0,0.6,0.1,1.2,0.1,1.9c0.1,0.7,0.1,1.3,0.2,2
		c0.1,0.7,0.1,1.4,0.1,2c0,0.3,0,0.6,0.1,0.9c-0.7,0.8-1.3,1.4-1.8,1.8c-0.5,0.4-1,0.5-1.5,0.2c-0.2-0.1-0.3-0.3-0.4-0.7
		c-0.1-0.4-0.1-0.8-0.1-1.3c0-0.5,0-1.1,0.1-1.7c0.1-0.6,0.1-1.2,0.2-1.7c0.1-0.5,0.2-1,0.2-1.4c0.1-0.4,0.1-0.7,0.1-0.8
		c-0.7-0.1-1.3-0.1-1.9,0.1c-0.6,0.2-1.2,0.5-1.7,1c-0.6,0.4-1.1,1-1.6,1.6c-0.5,0.6-1,1.3-1.4,2.1c-0.3,0.6-0.5,1.2-0.7,1.9
		c-0.1,0.7-0.1,1.3,0,1.9c0.3,0.6,0.6,0.8,1.1,0.8c0.5,0,1-0.3,1.5-0.7c0.5-0.4,1.1-1,1.7-1.7c0.6-0.7,1.1-1.5,1.5-2.3
		c0,0.1-0.1,0.4-0.1,0.7c0,0.3-0.1,0.7-0.1,1c0,0.4,0,0.8,0,1.1c0,0.4,0.1,0.7,0.2,0.9c0.2,0.4,0.5,0.5,0.8,0.6c0.3,0,0.7,0,1-0.2
		c0.4-0.2,0.7-0.4,1-0.6c0.3-0.3,0.6-0.5,0.7-0.7c0.1-0.1,0.2-0.2,0.3-0.4c0.1-0.2,0.2-0.4,0.3-0.6c0.1-0.2,0.2-0.4,0.3-0.6
		c0.1,1.2,0.2,2.4,0.3,3.7c0.2,0,0.4,0.1,0.6,0c0.2,0,0.3-0.1,0.4-0.1c0,0,0.1-0.1,0.1-0.2c0-0.1,0-0.3,0-0.6c0.2,0,0.4,0,0.6,0
		c0.2,0,0.5-0.1,0.9-0.3c0.8-0.3,1.4-0.8,2-1.4c0.6-0.7,1-1.4,1.3-2.2c0.3-0.8,0.5-1.6,0.6-2.4C30.2,27,30.1,26.3,29.8,25.7
		 M18.2,29.3c-0.4,0.9-0.9,1.6-1.4,2.3c-0.5,0.6-1,1.1-1.5,1.5c-0.5,0.4-0.8,0.5-1,0.5c-0.2-0.2-0.3-0.5-0.2-1
		c0.1-0.5,0.3-1.1,0.6-1.8c0.3-0.7,0.8-1.4,1.3-2.1c0.6-0.7,1.3-1.3,2.1-1.9c0.2-0.1,0.4-0.2,0.6-0.2H19
		C18.9,27.6,18.6,28.5,18.2,29.3 M28.9,28.9c-0.2,0.5-0.4,1-0.7,1.6c-0.3,0.5-0.7,1-1,1.4c-0.4,0.4-0.8,0.7-1.2,0.9
		c-0.4,0.2-0.9,0.3-1.3,0.2c0-0.7,0.2-1.4,0.4-2.2c0.2-0.7,0.4-1.4,0.7-2c0.3-0.6,0.6-1.1,0.9-1.5c0.3-0.4,0.6-0.7,0.9-0.9
		c0.2-0.2,0.4-0.3,0.7-0.4c0.3-0.1,0.5,0,0.7,0.3c0.2,0.3,0.3,0.6,0.3,1.1C29.2,27.9,29.1,28.4,28.9,28.9 M33.3,28.3
		c0,0.1,0,0.4,0.1,0.9c0.1,0.5,0.1,1.2,0.2,1.9c0.1,0.8,0.2,1.6,0.3,2.5c0.1,0.9,0.2,1.7,0.3,2.5c0.1,0.8,0.2,1.5,0.3,2.1
		c0.1,0.6,0.1,1,0.2,1.2c-0.1,0-0.2,0-0.3-0.1c-0.1,0-0.2-0.1-0.3-0.2c-0.1-0.1-0.2-0.2-0.3-0.4c-0.1-0.2-0.3-0.4-0.5-0.7
		c-0.3-1.9-0.5-3.6-0.7-5.1c-0.2-1.5-0.3-2.6-0.4-3.5c-0.4,0.5-0.7,0.8-0.8,1c-0.2,0.2-0.3,0.3-0.3,0.3c-0.1,0-0.1-0.1,0-0.3
		c0-0.1,0-0.2,0.1-0.3c0-0.1,0-0.2,0.1-0.3c0-0.1,0.1-0.2,0.1-0.2c0.1-0.2,0.3-0.4,0.4-0.6c0.1-0.2,0.2-0.4,0.3-0.6
		c0.1-0.2,0.1-0.4,0.2-0.6c0-0.2,0-0.4,0-0.6c0-0.2,0-0.3,0-0.5c0-0.2,0-0.4,0-0.6c0-0.2,0-0.4,0-0.7v-1.3v-1.9c0-0.7,0-1.4,0-2.2
		c0-0.8,0-1.5,0.1-2.2c0-0.7,0.1-1.3,0.1-1.9c0.1-0.6,0.1-1,0.2-1.3c0.1-0.6,0.4-1.1,0.7-1.4c0.3-0.3,0.6-0.5,1-0.6
		c0.3-0.1,0.7,0,1,0.3c0.3,0.2,0.6,0.6,0.7,1c0.2,0.5,0.3,1.1,0.3,1.8c0,0.7-0.1,1.6-0.2,2.4c-0.1,0.9-0.3,1.8-0.5,2.7
		c-0.2,1-0.5,1.9-0.7,2.8c-0.3,0.9-0.5,1.7-0.8,2.5C33.7,27.1,33.5,27.7,33.3,28.3 M33.1,26.5c0.5-1.5,1-3.1,1.3-4.6
		c0.3-1.5,0.6-2.8,0.7-4c0.2-1.2,0.2-2.1,0.2-2.9c-0.1-0.7-0.2-1.1-0.5-1.1c-0.4-0.1-0.7,0-1,0.4c-0.2,0.4-0.4,1-0.6,1.8
		c-0.1,0.8-0.2,1.6-0.3,2.6c0,1-0.1,2,0,2.9c0,1,0,1.9,0,2.8C33.1,25.3,33.1,26,33.1,26.5 M65,29.9c0-0.1,0-0.1-0.1,0
		c-0.3,0.4-0.6,0.7-0.8,1c-0.3,0.3-0.6,0.6-1.1,1c-0.3,0.3-0.6,0.5-1.1,0.9c-0.4,0.3-0.9,0.6-1.4,0.8c-0.5,0.2-0.9,0.3-1.3,0.2
		c-0.4-0.1-0.7-0.4-1-0.9c0.9-0.7,1.7-1.3,2.4-2.1c0.7-0.7,1.2-1.6,1.6-2.7c0.3-1,0.2-1.6-0.1-2c-0.3-0.3-0.8-0.5-1.4-0.5
		c-0.2-0.1-0.4,0-0.7,0c-0.3,0.1-0.5,0.2-0.5,0.2c-0.4,0.2-0.8,0.6-1.1,1c-0.3,0.4-0.6,0.9-0.9,1.5c-0.4,1.1-0.6,2.1-0.6,2.8
		c0,0.3,0,0.5,0,0.8c0,0,0,0-0.1,0c-0.5,0.1-0.8,0-1.1-0.3c-0.3-0.2-0.5-0.6-0.6-1c-0.1-0.4-0.3-0.9-0.3-1.3c-0.1-0.5-0.1-1-0.1-1.4
		c0-0.4-0.1-0.8-0.2-1.2c-0.1-0.3-0.2-0.5-0.3-0.6c-0.4-0.1-0.7-0.1-1,0.2c-0.3,0.3-0.6,0.6-0.9,1.1c-0.3,0.5-0.5,1-0.8,1.5
		c-0.2,0.6-0.5,1.1-0.6,1.5c0-0.6-0.1-1.2-0.1-1.7c0-0.6,0-1.1,0-1.6c0-0.5,0-0.9-0.1-1.2c0-0.3-0.1-0.5-0.1-0.7
		c-0.2-0.4-0.4-0.5-0.6-0.5c-0.2,0-0.5,0.1-0.7,0.4c-0.3,0.2-0.5,0.6-0.8,1c-0.3,0.4-0.5,0.9-0.7,1.3c-0.2,0.5-0.4,0.9-0.6,1.4
		c-0.2,0.5-0.3,0.9-0.4,1.2c0-1.4,0-2.6,0.1-3.6c0.1-1,0.1-1.7,0.1-2.3c0,0-0.1-0.1-0.2-0.2c-0.1-0.1-0.2-0.2-0.3-0.2
		c-0.1,0-0.2,0-0.3,0c-0.1,0-0.2,0.1-0.2,0.3c0,0.8,0,1.7-0.1,2.8c0,1.1-0.1,2.1-0.1,3.1c0,0.5,0,1-0.1,1.5c-0.5,0.6-1,1-1.4,1.4
		c-0.5,0.4-1,0.5-1.5,0.2c-0.2-0.1-0.3-0.3-0.4-0.7c-0.1-0.4-0.1-0.8-0.1-1.3c0-0.5,0-1.1,0.1-1.7c0.1-0.6,0.1-1.2,0.2-1.7
		c0.1-0.5,0.2-1,0.2-1.4c0.1-0.4,0.1-0.7,0.1-0.8c-0.7-0.1-1.3-0.1-1.9,0.1c-0.6,0.2-1.2,0.5-1.7,1c-0.5,0.4-1.1,1-1.6,1.6
		c-0.5,0.6-1,1.3-1.4,2.1c-0.3,0.6-0.5,1.2-0.7,1.9c-0.1,0.7-0.1,1.3,0,1.9c0.3,0.6,0.6,0.8,1.1,0.8c0.5,0,1-0.3,1.5-0.7
		c0.6-0.4,1.1-1,1.7-1.7c0.6-0.7,1.1-1.5,1.5-2.3c0,0.1-0.1,0.4-0.1,0.7c0,0.3-0.1,0.7-0.1,1c0,0.4,0,0.8,0,1.1
		c0,0.4,0.1,0.7,0.2,0.9c0.2,0.4,0.5,0.5,0.8,0.6c0.3,0,0.7,0,1-0.2c0.4-0.2,0.7-0.4,1-0.6c0.3-0.3,0.6-0.5,0.7-0.7
		c0.1-0.1,0.2-0.2,0.3-0.4c0.1-0.1,0.1-0.2,0.2-0.3c0,0.2,0,0.4,0,0.5c0,0.8-0.1,1.3-0.1,1.6c0.1,0.2,0.2,0.4,0.4,0.6
		c0.1,0.2,0.4,0.2,0.8,0.1c0-0.6,0.1-1.3,0.3-2c0.2-0.8,0.4-1.5,0.6-2.3c0.2-0.8,0.5-1.5,0.8-2.2c0.3-0.7,0.6-1.3,1-1.9
		c0.2-0.2,0.3-0.2,0.3-0.1c0.1,0.1,0.1,0.4,0.1,0.7c0,0.3,0,0.7,0,1.2c0,0.5,0,1,0,1.5c0,0.5,0,1,0,1.5c0,0.5,0.1,0.9,0.1,1.3
		c0.1,0.2,0.2,0.4,0.4,0.5c0.2,0.1,0.4,0,0.5-0.2c0.1-0.3,0.2-0.6,0.4-1.1c0.2-0.4,0.3-0.9,0.6-1.3c0.2-0.5,0.4-0.9,0.7-1.3
		c0.2-0.4,0.4-0.8,0.7-1c0.2-0.3,0.4-0.4,0.5-0.5c0.1,0,0.2,0.1,0.3,0.3c0,0.6,0.1,1.3,0.2,1.9c0.1,0.6,0.3,1.2,0.6,1.7
		c0.3,0.5,0.7,0.8,1.2,0.9c0.3,0.1,0.7,0.1,1.2-0.1c0,0.1,0,0.2,0.1,0.3c0,0.1,0.1,0.2,0.1,0.4c0.1,0.1,0.2,0.3,0.3,0.5
		c0.1,0.2,0.3,0.4,0.6,0.5c0.3,0.2,0.6,0.3,1,0.5c0.5,0.1,1,0.1,1.3,0c0.4-0.1,0.8-0.2,1.1-0.4c0.3-0.2,0.6-0.5,0.9-0.7
		c0.3-0.3,0.6-0.6,0.9-0.9c0.3-0.3,0.5-0.6,0.7-0.8c0.2-0.2,0.3-0.4,0.5-0.5c0.1-0.1,0.2-0.3,0.3-0.4c0.1-0.1,0.1-0.2,0.2-0.4
		c0-0.2,0.1-0.3,0.1-0.4C65,30.1,65.1,30,65,29.9 M40.8,29.3c-0.4,0.9-0.9,1.6-1.4,2.3c-0.5,0.6-1,1.1-1.5,1.5
		c-0.5,0.4-0.8,0.5-1,0.5c-0.2-0.2-0.3-0.5-0.2-1c0.1-0.5,0.3-1.1,0.6-1.8c0.3-0.7,0.8-1.4,1.3-2.1c0.6-0.7,1.3-1.3,2.1-1.9
		c0.2-0.1,0.4-0.2,0.6-0.2h0.4C41.4,27.6,41.2,28.5,40.8,29.3 M58.4,29.7c0.2-0.6,0.4-1.2,0.7-1.7c0.3-0.5,0.6-0.9,1-1.2
		c0.4-0.3,0.7-0.3,1.1-0.2c0,0,0.1,0,0.1,0.1c0.1,0.1,0.1,0.3,0,0.7c0,0.5-0.2,0.9-0.4,1.3c-0.2,0.4-0.5,0.8-0.9,1.2
		c-0.3,0.3-0.7,0.7-1,0.9c-0.4,0.3-0.7,0.5-1,0.6C58.1,30.9,58.2,30.3,58.4,29.7"/>
	<path class="st1" d="M83.9,37.1c0,0.6,0.5,1.1,1.1,1.1c0.6,0,1.1-0.5,1.1-1.1c0-0.6-0.5-1.1-1.1-1.1C84.4,36,83.9,36.5,83.9,37.1"
		/>
	<path class="st2" d="M88.4,38c0,0.6,0.5,1.1,1.1,1.1c0.6,0,1.1-0.5,1.1-1.1c0-0.6-0.5-1.1-1.1-1.1C88.9,36.9,88.4,37.4,88.4,38"/>
	<path class="st3" d="M92.1,35.9c0,0.6,0.5,1.1,1.1,1.1c0.6,0,1.1-0.5,1.1-1.1c0-0.6-0.5-1.1-1.1-1.1C92.6,34.8,92.1,35.3,92.1,35.9
		"/>
	<path class="st4" d="M94.3,31.8c0,0.6,0.5,1.1,1.1,1.1c0.6,0,1.1-0.5,1.1-1.1c0-0.6-0.5-1.1-1.1-1.1C94.8,30.7,94.3,31.2,94.3,31.8
		"/>
	<path class="st5" d="M95.2,26.8c0,0.6,0.5,1.1,1.1,1.1c0.6,0,1.1-0.5,1.1-1.1c0-0.6-0.5-1.1-1.1-1.1C95.7,25.7,95.2,26.2,95.2,26.8
		"/>
	<path class="st6" d="M97.7,23c0,0.6,0.5,1.1,1.1,1.1c0.6,0,1.1-0.5,1.1-1.1c0-0.6-0.5-1.1-1.1-1.1C98.2,21.9,97.7,22.4,97.7,23"/>
	<path class="st7" d="M100,18.6c0,0.6,0.5,1.1,1.1,1.1c0.6,0,1.1-0.5,1.1-1.1c0-0.6-0.5-1.1-1.1-1.1C100.5,17.5,100,18,100,18.6"/>
	<path class="st8" d="M100.9,14.1c0,0.6,0.5,1.1,1.1,1.1c0.6,0,1.1-0.5,1.1-1.1c0-0.6-0.5-1.1-1.1-1.1
		C101.4,13,100.9,13.5,100.9,14.1"/>
	<path class="st9" d="M100,9.2c0,0.6,0.5,1.1,1.1,1.1c0.6,0,1.1-0.5,1.1-1.1c0-0.6-0.5-1.1-1.1-1.1C100.5,8.1,100,8.6,100,9.2"/>
	<path class="st10" d="M97.3,5.3c0,0.6,0.5,1.1,1.1,1.1c0.6,0,1.1-0.5,1.1-1.1c0-0.6-0.5-1.1-1.1-1.1C97.8,4.2,97.3,4.7,97.3,5.3"/>
	<path class="st11" d="M94.1,2.5c0,0.6,0.5,1.1,1.1,1.1c0.6,0,1.1-0.5,1.1-1.1c0-0.6-0.5-1.1-1.1-1.1C94.6,1.4,94.1,1.9,94.1,2.5"/>
	<path class="st12" d="M89.8,1.4c0,0.6,0.5,1.1,1.1,1.1C91.5,2.5,92,2,92,1.4c0-0.6-0.5-1.1-1.1-1.1C90.3,0.2,89.8,0.7,89.8,1.4"/>
	<path class="st13" d="M85.6,1.1c0,0.6,0.5,1.1,1.1,1.1s1.1-0.5,1.1-1.1c0-0.6-0.5-1.1-1.1-1.1S85.6,0.5,85.6,1.1"/>
	<path class="st14" d="M81.6,2.5c0,0.6,0.5,1.1,1.1,1.1c0.6,0,1.1-0.5,1.1-1.1c0-0.6-0.5-1.1-1.1-1.1C82.1,1.4,81.6,1.9,81.6,2.5"/>
	<path class="st15" d="M78.3,5.1c0,0.6,0.5,1.1,1.1,1.1c0.6,0,1.1-0.5,1.1-1.1c0-0.6-0.5-1.1-1.1-1.1C78.8,4,78.3,4.5,78.3,5.1"/>
	<path class="st16" d="M76.1,9.4c0,0.6,0.5,1.1,1.1,1.1c0.6,0,1.1-0.5,1.1-1.1c0-0.6-0.5-1.1-1.1-1.1C76.6,8.3,76.1,8.8,76.1,9.4"/>
	<path class="st17" d="M75.6,14.1c0,0.6,0.5,1.1,1.1,1.1c0.6,0,1.1-0.5,1.1-1.1c0-0.6-0.5-1.1-1.1-1.1C76.1,13,75.6,13.5,75.6,14.1"
		/>
	<path class="st18" d="M71.6,35.7c-0.2,0-0.3,0-0.5,0c-0.6-0.1-1.1-0.2-1.6-0.4c-0.5-0.2-1-0.5-1.3-0.9c-0.4-0.4-0.7-0.9-0.8-1.4
		l0-0.2c0-0.4,0-0.8,0.2-1.1c0.2-0.3,0.3-0.5,0.6-0.7c0.2-0.2,0.5-0.2,0.7-0.2h0.1l0.2,0c0.3,0.1,0.5,0.3,0.6,0.5
		c0.1,0.3,0.1,0.5,0,0.7c0,0.2,0.1,0.4,0.1,0.4c0.1,0.2,0.2,0.3,0.3,0.3c0,0,0,0,0,0c0-0.4-0.1-0.8-0.1-1.2c-0.1-1-0.2-2-0.3-3.2
		c-0.1-1.1-0.2-2.3-0.3-3.5c-0.1-1.2-0.2-2.3-0.3-3.5c-0.1-1.1-0.2-2.1-0.3-3c-0.1-0.7-0.1-1.3-0.2-1.7c-0.4-0.2-0.7-0.3-1-0.5
		c-0.3-0.2-0.6-0.3-0.9-0.5c-0.2-0.1-0.4-0.2-0.6-0.3c-0.2-0.1-0.5-0.2-0.8-0.3L65.1,15L65,14.8c-0.6-0.7-0.3-1.3-0.2-1.5
		c0,0,0-0.1,0.1-0.3l0.2-0.9l0.9,0.2c0.6,0.1,1,0.3,1.4,0.4c0.3,0.1,0.7,0.3,0.9,0.4c0.1,0,0.2,0.1,0.2,0.1l0,0c0.2-0.9,1-1.4,2-1.2
		l0.3,0l0.2,0.2c0.2,0.2,0.4,0.5,0.5,0.7c0.1,0.2,0.1,0.5,0.1,0.7c0,0.2,0,0.4,0,0.6c0,0.1,0,0.2,0,0.3c1,0.5,2,1,3.1,1.6
		c1.3,0.6,2.5,1.3,3.7,2c1.2,0.7,2.2,1.6,3.1,2.5c0.9,1,1.5,2,1.8,3.2l0,0.1c0.2,1.4,0.1,2.8-0.3,4.1c-0.5,1.3-1.2,2.4-2.1,3.5
		c-1,1-2.1,1.9-3.5,2.6c-1.3,0.7-2.8,1.2-4.4,1.5C72.4,35.6,72,35.7,71.6,35.7 M72.2,24c0,0.4,0.1,0.8,0.1,1.4
		c0.1,0.6,0.1,1.2,0.2,1.8c0.1,0.6,0.1,1.3,0.2,2c0.1,0.7,0.1,1.3,0.2,1.9c0,0.6,0.1,1.1,0.1,1.6c0,0.1,0,0.2,0,0.2
		c0.3,0,0.6-0.1,1-0.2c0.8-0.2,1.6-0.6,2.4-1.1c0.8-0.5,1.6-1.2,2.4-2c0.7-0.8,1.2-1.7,1.6-2.9c0.1-0.8,0.1-1.5-0.1-2.2
		c-0.2-0.7-0.6-1.3-1-1.8c-0.5-0.6-1-1.1-1.7-1.5c-0.7-0.5-1.5-0.9-2.3-1.4c-0.8-0.4-1.6-0.8-2.4-1.2c-0.4-0.2-0.7-0.3-1.1-0.5
		c0,0.3,0,0.6,0.1,0.9c0,0.5,0.1,1.1,0.1,1.7c0,0.6,0.1,1.1,0.1,1.6c0,0.5,0.1,0.9,0.1,1.2C72.2,23.8,72.2,23.9,72.2,24"/>
</g>
<g>
	<g>
		<g>
			<line class="st19" x1="115.8" y1="32.8" x2="181.9" y2="32.8"/>
			<g>
				<path class="st20" d="M137,9.8h1.3c1,0,2.7,0.1,2.7,2.7v0.3c0,2.8-1.6,3.1-2.6,3.1h-0.1v2.7H137V9.8z M138.4,14.9
					c1,0,1.3-0.5,1.3-1.9v-0.8c0-1-0.3-1.5-1.3-1.5h-0.1L138.4,14.9L138.4,14.9z"/>
				<path class="st20" d="M141.8,15.7v-1.3c0-2.7,1.3-2.9,2-2.9c0.9,0,1.8,0.5,1.8,2.2c0,0.6-0.1,1.2-0.2,1.7h-2.4V16
					c0,1.2,0.2,1.7,0.8,1.7c0.3,0,0.6-0.2,0.6-1v-0.2h1.1v0.3c0,1.3-0.7,1.9-1.9,1.9C142.5,18.7,141.8,17.8,141.8,15.7z M144.4,14.4
					c0-0.1,0-0.5,0-0.7c0-0.9-0.2-1.3-0.7-1.3c-0.5,0-0.7,0.4-0.7,1.6v0.4H144.4z"/>
				<path class="st20" d="M146.7,11.5h1l0.1,0.7c0.3-0.5,0.7-0.8,1.1-0.8c0.7,0,1.1,0.5,1.1,1.4c0,0.2-0.1,0.7-0.2,1h-0.9v-0.7
					c0-0.6-0.2-0.7-0.3-0.7c-0.2,0-0.4,0.1-0.5,0.4v5.8h-1.3V11.5z"/>
				<path class="st20" d="M150.6,16.3h0.9c0,1,0.2,1.3,0.8,1.3c0.4,0,0.6-0.3,0.6-0.5c0-0.3-0.2-0.5-0.4-0.9l-1-1.1
					c-0.5-0.6-1-1.3-1-2.1c0-1.1,0.8-1.6,1.7-1.6c1,0,1.7,0.5,1.7,1.5c0,0.3-0.1,0.7-0.1,0.9h-0.9c0-0.9-0.1-1.4-0.6-1.4
					c-0.5,0-0.6,0.3-0.6,0.6c0,0.3,0.2,0.6,0.4,0.9l1,1.2c0.3,0.4,0.9,1.1,0.9,1.9c0,1-0.7,1.7-1.8,1.7c-1,0-1.7-0.4-1.7-1.6
					C150.5,16.8,150.6,16.5,150.6,16.3z"/>
				<path class="st20" d="M154.9,15.5v-1.1c0-2.8,1.1-3,2-3c0.8,0,1.9,0.2,1.9,3v1.1c0,2.8-1.1,3.1-2,3.1
					C155.9,18.7,154.9,18.3,154.9,15.5z M157.5,15.9v-1.7c0-1.3-0.2-1.8-0.6-1.8c-0.5,0-0.7,0.5-0.7,1.8v1.7c0,1.3,0.2,1.8,0.7,1.8
					C157.3,17.6,157.5,17.2,157.5,15.9z"/>
				<path class="st20" d="M160,11.5h1l0.1,0.8v0c0.4-0.6,1-0.8,1.5-0.8c0.8,0,1.3,0.6,1.3,1.7v5.4h-1.3v-5.4c0-0.6-0.2-0.8-0.6-0.8
					c-0.3,0-0.5,0.2-0.7,0.5v5.7H160V11.5z"/>
				<path class="st20" d="M165,15.7v-1.3c0-2.7,1.3-2.9,2-2.9c0.9,0,1.8,0.5,1.8,2.2c0,0.6-0.1,1.2-0.2,1.7h-2.4V16
					c0,1.2,0.2,1.7,0.8,1.7c0.3,0,0.6-0.2,0.6-1v-0.2h1.1v0.3c0,1.3-0.7,1.9-1.9,1.9C165.7,18.7,165,17.8,165,15.7z M167.6,14.4
					c0-0.1,0-0.5,0-0.7c0-0.9-0.2-1.3-0.7-1.3c-0.5,0-0.7,0.4-0.7,1.6v0.4H167.6z"/>
				<path class="st20" d="M170,11.5h1l0.1,0.7c0.3-0.5,0.7-0.8,1.1-0.8c0.7,0,1.1,0.5,1.1,1.4c0,0.2-0.1,0.7-0.2,1h-0.9v-0.7
					c0-0.6-0.2-0.7-0.3-0.7c-0.2,0-0.4,0.1-0.5,0.4v5.8H170V11.5z"/>
				<path class="st20" d="M174,11.5h1.3v7.1H174V11.5z M174.1,10.5l1.5-2.1l0.9,0.7l-1.7,2L174.1,10.5z"/>
				<path class="st20" d="M176.3,16.9c0-1.2,0.6-1.8,1.7-2.3c0.3-0.1,0.6-0.3,0.9-0.4v-0.9c0-0.6,0-1-0.6-1c-0.4,0-0.7,0.3-0.7,1.1
					v0.3h-1c-0.1-0.3-0.1-0.5-0.1-0.7c0-1.1,0.8-1.6,1.8-1.6c1.4,0,1.8,0.6,1.8,1.9v5.3h-1l-0.1-0.6c-0.3,0.4-0.8,0.7-1.4,0.7
					C176.8,18.7,176.3,17.9,176.3,16.9z M178.8,17.4v-2.2c-0.1,0.1-0.3,0.1-0.5,0.2c-0.4,0.2-0.8,0.7-0.8,1.4c0,0.5,0.2,0.9,0.7,0.9
					C178.5,17.6,178.7,17.5,178.8,17.4z"/>
				<path class="st20" d="M135.3,28.8v-2.3c0-2.4,1.1-2.4,1.6-2.4c0.5,0,0.9,0.3,1.1,0.6l0,0l0-0.9v-1.9h1.3v9.4h-1l-0.1-0.7
					c-0.2,0.4-0.6,0.7-1.3,0.7C136.4,31.3,135.3,31.2,135.3,28.8z M137.9,29.8v-4.3c-0.1-0.3-0.3-0.5-0.6-0.5
					c-0.4,0-0.7,0.2-0.7,1.3V29c0,1.1,0.3,1.3,0.7,1.3C137.6,30.3,137.8,30.1,137.9,29.8z"/>
				<path class="st20" d="M140.4,28.3V27c0-2.7,1.3-2.9,2-2.9c0.9,0,1.8,0.5,1.8,2.2c0,0.6-0.1,1.2-0.2,1.7h-2.4v0.7
					c0,1.2,0.2,1.7,0.8,1.7c0.3,0,0.6-0.2,0.6-1v-0.2h1.1v0.3c0,1.3-0.7,1.9-1.9,1.9C141.1,31.3,140.4,30.4,140.4,28.3z M143,27.1
					c0-0.1,0-0.5,0-0.7c0-0.9-0.2-1.3-0.7-1.3c-0.5,0-0.7,0.4-0.7,1.6v0.4H143z"/>
				<path class="st20" d="M147.7,22.4h1.7l0.8,3.4c0.2,0.8,0.3,1.4,0.4,2h0c0.1-0.6,0.2-1.3,0.4-2l0.9-3.4h1.7v8.8h-1.2v-2.9
					c0-1.8,0.1-3.3,0.1-4h-0.1l-1.3,5.7h-0.8l-1.3-5.7h-0.1c0.1,0.6,0.1,2.2,0.1,4v2.9h-1.2V22.4z"/>
				<path class="st20" d="M154.8,28.3V27c0-2.7,1.3-2.9,2-2.9c0.9,0,1.8,0.5,1.8,2.2c0,0.6-0.1,1.2-0.2,1.7h-2.4v0.7
					c0,1.2,0.2,1.7,0.8,1.7c0.3,0,0.6-0.2,0.6-1v-0.2h1.1v0.3c0,1.3-0.7,1.9-1.9,1.9C155.5,31.3,154.8,30.4,154.8,28.3z M157.4,27.1
					c0-0.1,0-0.5,0-0.7c0-0.9-0.2-1.3-0.7-1.3c-0.5,0-0.7,0.4-0.7,1.6v0.4H157.4z"/>
				<path class="st20" d="M159.6,28.8v-2.3c0-2.4,1.1-2.4,1.6-2.4c0.5,0,0.9,0.3,1.1,0.6l0,0l0-0.9v-1.9h1.3v9.4h-1l-0.1-0.7
					c-0.2,0.4-0.6,0.7-1.3,0.7C160.6,31.3,159.6,31.2,159.6,28.8z M162.2,29.8v-4.3c-0.1-0.3-0.3-0.5-0.7-0.5
					c-0.4,0-0.7,0.2-0.7,1.3V29c0,1.1,0.3,1.3,0.7,1.3C161.9,30.3,162.1,30.1,162.2,29.8z"/>
				<path class="st20" d="M164.7,28.3V27c0-2.7,1.3-2.9,2-2.9c0.9,0,1.8,0.5,1.8,2.2c0,0.6-0.1,1.2-0.2,1.7H166v0.7
					c0,1.2,0.2,1.7,0.8,1.7c0.3,0,0.6-0.2,0.6-1v-0.2h1.1v0.3c0,1.3-0.7,1.9-1.9,1.9C165.3,31.3,164.7,30.4,164.7,28.3z M167.3,27.1
					c0-0.1,0-0.5,0-0.7c0-0.9-0.2-1.3-0.7-1.3c-0.5,0-0.7,0.4-0.7,1.6v0.4H167.3z"/>
				<path class="st20" d="M169.6,21.9h1.3v9.4h-1.3V21.9z"/>
				<path class="st20" d="M172.3,21.9h1.3v9.4h-1.3V21.9z"/>
				<path class="st20" d="M175,24.1h1.3v7.1H175V24.1z M175,23.2l1.5-2.1l0.9,0.7l-1.7,2L175,23.2z"/>
				<path class="st20" d="M177.6,24.1h1l0.1,0.8v0c0.4-0.6,1-0.8,1.5-0.8c0.8,0,1.3,0.6,1.3,1.7v5.4h-1.3v-5.4
					c0-0.6-0.2-0.8-0.6-0.8c-0.3,0-0.5,0.2-0.7,0.5v5.7h-1.3V24.1z"/>
			</g>
			<g>
				<g>
					<g>
						<path class="st21" d="M126.2,10.5c-0.2,0.3-0.4,0.6-0.6,0.8c-0.2,0.3-0.4,0.5-0.6,0.8c-0.2,0.3-0.4,0.5-0.6,0.8
							c-0.1,0.1-0.2,0.2-0.3,0.4c-0.1,0.1-0.2,0.2-0.3,0.4c-0.3,0.3-0.6,0.6-0.9,0.9c-0.1,0.3-0.2,0.5-0.3,0.7
							c-0.4,0.7-1,1.1-1.7,1.2c0,0,0,0,0,0c-0.5,0-0.9-0.1-1.4-0.3c-0.1,0-0.2,0-0.3,0c-0.1,0-0.1,0-0.2,0c-0.1,0-0.2,0-0.2,0
							c-0.1,0-0.3,0-0.5,0c-0.3,0-0.6-0.1-0.9-0.1c-0.2,0-0.3-0.1-0.5-0.1c-0.2,0-0.3-0.1-0.5-0.1c-0.3-0.1-0.6-0.2-0.9-0.3
							c-0.3-0.1-0.6-0.2-0.9-0.4c-0.2-0.1-0.3-0.1-0.5-0.2c-0.1,0-0.2-0.1-0.2-0.1c0,0-0.1,0-0.1-0.1c0,0-0.1,0-0.1-0.1
							c0,0,0.1,0.1,0.1,0.1c0,0,0.1,0.1,0.1,0.1c0.1,0.1,0.1,0.1,0.2,0.2c0.1,0.1,0.2,0.2,0.4,0.3c0.3,0.2,0.5,0.4,0.8,0.6
							c0.3,0.2,0.6,0.4,0.9,0.5c0.2,0.1,0.3,0.2,0.5,0.2c0.2,0.1,0.3,0.1,0.5,0.2c0.3,0.1,0.7,0.2,1,0.3c0.2,0,0.4,0.1,0.5,0.1
							c0.1,0,0.2,0,0.3,0c0.1,0,0.2,0,0.3,0c0.4,0,0.7,0,1.1-0.1c0.4-0.1,0.7-0.2,1.1-0.3c0.3-0.1,0.7-0.3,1-0.5
							c0.3-0.2,0.6-0.4,0.9-0.6c0.1-0.1,0.3-0.2,0.4-0.4c0.1-0.1,0.2-0.3,0.4-0.4c0.1-0.1,0.1-0.1,0.2-0.2c0.1-0.1,0.1-0.1,0.2-0.2
							c0.1-0.1,0.2-0.3,0.3-0.4c0.1-0.1,0.2-0.3,0.3-0.4c0.1-0.1,0.2-0.3,0.3-0.5c0.2-0.3,0.3-0.6,0.4-0.9c0.1-0.3,0.2-0.6,0.3-1
							C126,11.2,126.1,10.8,126.2,10.5C126,10.8,126.1,10.8,126.2,10.5z"/>
						<path class="st21" d="M120.8,15.3c0.8-0.1,1.4-1,1.3-2.1c-0.1-1.1-0.8-1.9-1.6-1.8c-0.8,0.1-1.4,1-1.3,2.1
							C119.3,14.5,120,15.3,120.8,15.3z"/>
					</g>
				</g>
				<g>
					<g>
						<path class="st20" d="M121.9,22.5c-0.1-0.4-0.3-0.7-0.4-1c-0.2-0.3-0.4-0.6-0.6-0.9c-0.1-0.1-0.2-0.3-0.3-0.4
							c-0.1-0.1-0.2-0.3-0.4-0.4c-0.1-0.1-0.1-0.1-0.2-0.2c-0.1-0.1-0.1-0.1-0.2-0.2c-0.1-0.1-0.3-0.2-0.4-0.3
							c-0.1-0.1-0.3-0.2-0.4-0.3c-0.1-0.1-0.3-0.2-0.4-0.3c-0.3-0.2-0.6-0.3-0.9-0.5c-0.3-0.1-0.6-0.3-0.9-0.4
							c-0.3-0.1-0.6-0.2-1-0.3c0.3,0.2,0.5,0.4,0.8,0.6c0.3,0.2,0.5,0.4,0.8,0.6c0.3,0.2,0.5,0.4,0.7,0.6c0.1,0.1,0.2,0.2,0.4,0.3
							c0.1,0.1,0.2,0.2,0.3,0.3c0.3,0.3,0.6,0.6,0.9,1c0.2,0.1,0.5,0.2,0.7,0.3c0.7,0.4,1,1.1,1.1,1.8c0,0,0,0,0,0
							c0,0.5-0.1,0.9-0.4,1.3c0,0.1,0,0.2,0,0.4c0,0.1,0,0.2,0,0.2c0,0.1,0,0.2,0,0.2c0,0.1,0,0.3,0,0.5c0,0.3-0.1,0.6-0.2,0.9
							c0,0.2-0.1,0.3-0.1,0.5c0,0.2-0.1,0.3-0.1,0.5c-0.1,0.3-0.2,0.6-0.3,0.9c-0.1,0.3-0.3,0.6-0.4,0.9c-0.1,0.1-0.2,0.3-0.2,0.4
							c0,0.1-0.1,0.1-0.1,0.2c0,0,0,0.1-0.1,0.1c0,0,0,0.1-0.1,0.1c0,0,0.1,0,0.1-0.1c0,0,0.1-0.1,0.1-0.1c0.1-0.1,0.1-0.1,0.2-0.2
							c0.1-0.1,0.2-0.2,0.4-0.4c0.2-0.2,0.5-0.5,0.7-0.8c0.2-0.3,0.4-0.6,0.6-0.9c0.1-0.1,0.2-0.3,0.2-0.5c0.1-0.2,0.1-0.3,0.2-0.5
							c0.1-0.3,0.2-0.7,0.3-1c0-0.2,0.1-0.4,0.1-0.5c0-0.1,0-0.2,0-0.3c0-0.1,0-0.2,0-0.3c0-0.4,0-0.7,0-1.1
							C122,23.2,122,22.9,121.9,22.5z"/>
						<path class="st20" d="M120.1,23c0-0.8-0.9-1.4-2-1.4c-1.1,0-2,0.7-1.9,1.5c0,0.8,0.9,1.4,2,1.4
							C119.3,24.5,120.1,23.8,120.1,23z"/>
					</g>
				</g>
				<g>
					<g>
						<path class="st22" d="M124.1,29c0.1-0.4,0.3-0.7,0.4-1.1c0.1-0.2,0.2-0.4,0.2-0.5c0.1-0.2,0.2-0.4,0.3-0.5
							c0.2-0.5,0.5-0.9,0.8-1.4c0-0.3,0.1-0.6,0.2-0.9c0.3-0.9,0.9-1.6,1.7-1.9c0,0,0,0,0,0c0.5-0.2,1.1-0.2,1.7,0
							c0.1-0.1,0.3-0.1,0.4-0.1c0.1,0,0.2-0.1,0.3-0.1c0.1,0,0.2-0.1,0.3-0.1c0.2,0,0.4-0.1,0.5-0.1c0.4-0.1,0.7-0.1,1.1-0.1
							c0.2,0,0.4,0,0.6,0c0.2,0,0.4,0,0.6,0c0.4,0,0.8,0,1.2,0.1c0.4,0,0.8,0.1,1.2,0.2c0.2,0,0.4,0.1,0.6,0.1c0.1,0,0.2,0,0.3,0.1
							c0,0,0.1,0,0.2,0c0.1,0,0.1,0,0.2,0c0,0-0.1-0.1-0.1-0.1c0,0-0.1-0.1-0.1-0.1c-0.1-0.1-0.2-0.1-0.3-0.2
							c-0.2-0.1-0.4-0.2-0.6-0.3c-0.4-0.2-0.8-0.3-1.2-0.5c-0.4-0.1-0.8-0.2-1.2-0.3c-0.2,0-0.4-0.1-0.6-0.1c-0.2,0-0.4-0.1-0.6-0.1
							c-0.4,0-0.9,0-1.3,0c-0.2,0-0.4,0-0.7,0.1c-0.1,0-0.2,0-0.3,0.1c-0.1,0-0.2,0-0.3,0.1c-0.4,0.1-0.9,0.3-1.3,0.4
							c-0.4,0.2-0.8,0.4-1.2,0.7c-0.4,0.3-0.7,0.6-1,0.9c-0.3,0.3-0.6,0.7-0.8,1c-0.1,0.2-0.2,0.4-0.4,0.6c-0.1,0.2-0.2,0.4-0.3,0.6
							c-0.1,0.1-0.1,0.2-0.1,0.3c0,0.1-0.1,0.2-0.1,0.3c-0.1,0.2-0.2,0.4-0.2,0.6c-0.1,0.2-0.1,0.4-0.2,0.6
							c-0.1,0.2-0.1,0.4-0.2,0.6c-0.1,0.4-0.2,0.8-0.2,1.2c-0.1,0.4-0.1,0.8-0.1,1.2c0,0.4,0,0.8,0,1.2c0.1-0.4,0.3-0.8,0.4-1.2
							C123.8,29.8,124,29.4,124.1,29z"/>
						<path class="st22" d="M129.9,28.6c0.9-0.3,1.3-1.6,0.9-2.9c-0.5-1.3-1.6-2-2.5-1.7c-0.9,0.3-1.3,1.6-0.9,2.9
							C127.8,28.2,129,28.9,129.9,28.6z"/>
					</g>
				</g>
				<g>
					<g>
						<path class="st23" d="M135.9,18.4c-0.3,0-0.7,0-1-0.1c-0.3,0-0.6-0.1-1-0.1c-0.2,0-0.3,0-0.5-0.1c-0.2,0-0.3-0.1-0.5-0.1
							c-0.4-0.1-0.8-0.2-1.2-0.3c-0.3,0.1-0.5,0.1-0.8,0.1c-0.8,0-1.5-0.3-1.9-0.9c0,0,0,0,0,0c-0.3-0.4-0.4-0.8-0.4-1.3
							c-0.1-0.1-0.1-0.2-0.2-0.3c0-0.1-0.1-0.1-0.1-0.2c0-0.1-0.1-0.1-0.1-0.2c-0.1-0.1-0.1-0.3-0.2-0.4c-0.1-0.3-0.3-0.6-0.4-0.9
							c-0.1-0.1-0.1-0.3-0.1-0.4c0-0.2-0.1-0.3-0.1-0.5c-0.1-0.3-0.1-0.6-0.2-0.9c-0.1-0.3-0.1-0.6-0.1-1c0-0.2,0-0.3,0-0.5
							c0-0.1,0-0.2,0-0.2c0,0,0-0.1,0-0.1c0,0,0-0.1,0-0.1c0,0,0,0.1,0,0.1c0,0,0,0.1,0,0.1c0,0.1,0,0.2-0.1,0.2
							c0,0.2-0.1,0.3-0.1,0.5c-0.1,0.3-0.1,0.7-0.1,1c0,0.3,0,0.7,0,1c0,0.2,0,0.3,0.1,0.5c0,0.2,0.1,0.3,0.1,0.5
							c0.1,0.3,0.2,0.7,0.3,1c0.1,0.2,0.1,0.3,0.2,0.5c0,0.1,0.1,0.2,0.1,0.2c0,0.1,0.1,0.2,0.1,0.2c0.2,0.3,0.4,0.6,0.6,0.9
							c0.2,0.3,0.5,0.5,0.8,0.8c0.3,0.2,0.6,0.4,0.9,0.6c0.3,0.2,0.7,0.3,1,0.4c0.2,0.1,0.3,0.1,0.5,0.2c0.2,0,0.3,0.1,0.5,0.1
							c0.1,0,0.2,0,0.3,0c0.1,0,0.2,0,0.3,0c0.2,0,0.3,0,0.5,0c0.2,0,0.3,0,0.5,0c0.2,0,0.3,0,0.5,0c0.3,0,0.7,0,1-0.1
							c0.3,0,0.7-0.1,1-0.2c0.3-0.1,0.7-0.2,1-0.3C136.6,18.5,136.2,18.5,135.9,18.4z"/>
						<path class="st23" d="M132.5,16.2c0.9-0.6,1.2-1.7,0.8-2.3c-0.5-0.7-1.6-0.7-2.5,0c-0.9,0.6-1.2,1.7-0.8,2.3
							C130.5,16.9,131.6,16.9,132.5,16.2z"/>
					</g>
				</g>
			</g>
		</g>
		<g>
			<path class="st0" d="M117.4,39.8h-1.3c-0.1,0-0.3,0-0.3-0.2c0-0.2,0.2-0.2,0.3-0.2h0.1v-5h-0.1c-0.1,0-0.3,0-0.3-0.2
				c0-0.2,0.2-0.2,0.3-0.2h1.3c0.9,0,1.4,1.4,1.4,2.9C118.8,38.4,118.2,39.8,117.4,39.8z M117.3,34.4h-0.6v5h0.6
				c0.7,0,1.1-1.2,1.1-2.5C118.4,35.8,118.1,34.4,117.3,34.4z"/>
			<path class="st0" d="M120.7,39.8c-0.7,0-1.3-0.9-1.3-2.1c0-1.2,0.6-2.1,1.3-2.1c0.7,0,1.3,0.9,1.3,2.1
				C122,39,121.4,39.8,120.7,39.8z M120.7,36.1c-0.5,0-0.9,0.7-0.9,1.6c0,1,0.4,1.8,0.9,1.8c0.5,0,0.9-0.8,0.9-1.8
				C121.6,36.7,121.2,36.1,120.7,36.1z"/>
			<path class="st0" d="M125.3,39.8h-1c-0.1,0-0.3,0-0.3-0.2c0-0.2,0.2-0.2,0.3-0.2h0.3v-2.3c0-0.6-0.1-1-0.5-1
				c-0.4,0-0.8,0.5-0.8,1.5v1.9h0.3c0.1,0,0.3,0,0.3,0.2c0,0.2-0.2,0.2-0.3,0.2h-1c-0.1,0-0.3,0-0.3-0.2c0-0.2,0.2-0.2,0.3-0.2h0.3
				v-3.3h-0.3c-0.1,0-0.3,0-0.3-0.2c0-0.2,0.2-0.2,0.3-0.2h0.4c0.2,0,0.3,0.1,0.3,0.5c0.1-0.2,0.4-0.6,0.9-0.6
				c0.5,0,0.8,0.4,0.8,1.3v2.4h0.3c0.1,0,0.3,0,0.3,0.2C125.6,39.8,125.4,39.8,125.3,39.8z"/>
			<path class="st0" d="M128.6,39.8h-0.4c-0.2,0-0.3-0.1-0.3-0.6c-0.1,0.2-0.4,0.6-0.9,0.6c-0.7,0-1.2-0.9-1.2-2.1
				c0-1.2,0.6-2.1,1.3-2.1c0.4,0,0.7,0.3,0.8,0.5v-1.8h-0.3c-0.1,0-0.3,0-0.3-0.2c0-0.2,0.2-0.2,0.3-0.2h0.4c0.2,0,0.3,0.1,0.3,0.3
				v5.1h0.3c0.1,0,0.3,0,0.3,0.2C128.9,39.8,128.7,39.8,128.6,39.8z M127.9,37.3c0-0.5-0.3-1.2-0.7-1.2c-0.5,0-0.9,0.7-0.9,1.7
				c0,0.9,0.4,1.7,0.9,1.7c0.5,0,0.8-0.9,0.8-1.4V37.3z"/>
			<path class="st0" d="M130.8,39.8c-0.8,0-1.5-0.9-1.5-2.1c0-1.2,0.6-2.1,1.4-2.1c0.8,0,1.3,0.9,1.3,2c0,0.3-0.1,0.3-0.3,0.3h-2
				c0.1,0.9,0.5,1.6,1.1,1.6c0.1,0,0.6,0,0.7-0.6c0-0.1,0.1-0.2,0.2-0.2c0.2,0,0.2,0.1,0.2,0.2C131.9,39.1,131.6,39.8,130.8,39.8z
				 M130.7,36.1c-0.4,0-0.9,0.5-1,1.5h1.8C131.5,36.9,131.3,36.1,130.7,36.1z"/>
			<path class="st0" d="M137.4,39.8c-0.5,0-0.9-0.3-0.9-1.1v-2.6H136c-0.1,0-0.3,0-0.3-0.2c0-0.2,0.2-0.2,0.3-0.2h0.6v-0.9
				c0-0.1,0-0.3,0.2-0.3c0.2,0,0.2,0.2,0.2,0.3v0.9h1.1c0.1,0,0.3,0,0.3,0.2c0,0.2-0.2,0.2-0.3,0.2H137v2.5c0,0.3,0,0.8,0.5,0.8
				c0.2,0,0.5-0.1,0.5-0.8c0-0.2,0-0.3,0.2-0.3c0.2,0,0.2,0.2,0.2,0.3C138.4,39.6,137.8,39.8,137.4,39.8z"/>
			<path class="st0" d="M140.5,39.8c-0.7,0-1.3-0.9-1.3-2.1c0-1.2,0.6-2.1,1.3-2.1c0.7,0,1.3,0.9,1.3,2.1
				C141.9,39,141.2,39.8,140.5,39.8z M140.5,36.1c-0.5,0-0.9,0.7-0.9,1.6c0,1,0.4,1.8,0.9,1.8c0.5,0,0.9-0.8,0.9-1.8
				C141.4,36.7,141,36.1,140.5,36.1z"/>
			<path class="st0" d="M145.2,39.8h-0.4c-0.2,0-0.3-0.1-0.3-0.6c-0.1,0.2-0.4,0.6-0.9,0.6c-0.7,0-1.2-0.9-1.2-2.1
				c0-1.2,0.6-2.1,1.3-2.1c0.4,0,0.7,0.3,0.8,0.5v-1.8h-0.3c-0.1,0-0.3,0-0.3-0.2c0-0.2,0.2-0.2,0.3-0.2h0.4c0.2,0,0.3,0.1,0.3,0.3
				v5.1h0.3c0.1,0,0.3,0,0.3,0.2C145.5,39.8,145.3,39.8,145.2,39.8z M144.5,37.3c0-0.5-0.3-1.2-0.7-1.2c-0.5,0-0.9,0.7-0.9,1.7
				c0,0.9,0.4,1.7,0.9,1.7c0.5,0,0.8-0.9,0.8-1.4V37.3z"/>
			<path class="st0" d="M147.2,39.8c-0.7,0-1.3-0.9-1.3-2.1c0-1.2,0.6-2.1,1.3-2.1c0.7,0,1.3,0.9,1.3,2.1
				C148.5,39,147.9,39.8,147.2,39.8z M147.2,36.1c-0.5,0-0.9,0.7-0.9,1.6c0,1,0.4,1.8,0.9,1.8c0.5,0,0.9-0.8,0.9-1.8
				C148.1,36.7,147.7,36.1,147.2,36.1z"/>
			<path class="st0" d="M150.5,39.8c-0.2,0-0.6,0-0.9-0.4c-0.1,0.4-0.2,0.4-0.2,0.4c-0.2,0-0.2-0.1-0.2-0.3v-1c0-0.2,0-0.3,0.2-0.3
				c0.2,0,0.2,0.1,0.2,0.2c0.1,0.7,0.4,0.9,0.9,0.9c0.7,0,0.8-0.4,0.8-0.8c0-0.6-0.5-0.8-0.8-0.8c-0.5-0.1-0.7-0.2-0.9-0.4
				c-0.2-0.2-0.4-0.4-0.4-0.8c0-0.3,0.2-1.1,1.2-1.1c0.1,0,0.4,0,0.7,0.2c0,0,0-0.2,0.2-0.2c0.1,0,0.2,0.2,0.2,0.3v0.7
				c0,0.2,0,0.3-0.2,0.3c-0.1,0-0.2,0-0.2-0.2c0-0.3,0-0.7-0.7-0.7c-0.7,0-0.8,0.4-0.8,0.7c0,0.4,0.4,0.6,1,0.7
				c0.3,0.1,1.1,0.2,1.1,1.2C151.8,38.8,151.7,39.8,150.5,39.8z"/>
			<path class="st0" d="M157.3,39.8c-0.8,0-1.4-0.9-1.4-2.1c0-0.8,0.4-2.1,1.5-2.1c0.3,0,1,0,1,0.6c0,0.2-0.1,0.3-0.3,0.3
				c0,0-0.2,0-0.3-0.4c0-0.1,0-0.1-0.1-0.1c-0.1,0-0.2,0-0.4,0c-0.9,0-1.1,1.2-1.1,1.7c0,0.9,0.5,1.7,1.1,1.7c0.2,0,0.5-0.1,0.7-0.7
				c0-0.1,0.1-0.1,0.2-0.1c0,0,0.2,0,0.2,0.2C158.4,39,158.2,39.8,157.3,39.8z"/>
			<path class="st0" d="M160.4,39.8c-0.7,0-1.3-0.9-1.3-2.1c0-1.2,0.6-2.1,1.3-2.1c0.7,0,1.3,0.9,1.3,2.1
				C161.7,39,161.1,39.8,160.4,39.8z M160.4,36.1c-0.5,0-0.9,0.7-0.9,1.6c0,1,0.4,1.8,0.9,1.8c0.5,0,0.9-0.8,0.9-1.8
				C161.3,36.7,160.9,36.1,160.4,36.1z"/>
			<path class="st0" d="M165.1,39.8h-1c-0.1,0-0.3,0-0.3-0.2c0-0.2,0.2-0.2,0.3-0.2h0.3v-2.3c0-0.6-0.1-1-0.5-1
				c-0.4,0-0.8,0.5-0.8,1.5v1.9h0.3c0.1,0,0.3,0,0.3,0.2c0,0.2-0.2,0.2-0.3,0.2h-1c-0.1,0-0.3,0-0.3-0.2c0-0.2,0.2-0.2,0.3-0.2h0.3
				v-3.3h-0.3c-0.1,0-0.3,0-0.3-0.2c0-0.2,0.2-0.2,0.3-0.2h0.4c0.2,0,0.3,0.1,0.3,0.5c0.1-0.2,0.4-0.6,0.9-0.6
				c0.5,0,0.8,0.4,0.8,1.3v2.4h0.3c0.1,0,0.3,0,0.3,0.2C165.3,39.8,165.1,39.8,165.1,39.8z"/>
			<path class="st0" d="M167.2,39.8c-0.5,0-0.9-0.3-0.9-1.1v-2.6h-0.6c-0.1,0-0.3,0-0.3-0.2c0-0.2,0.2-0.2,0.3-0.2h0.6v-0.9
				c0-0.1,0-0.3,0.2-0.3c0.2,0,0.2,0.2,0.2,0.3v0.9h1.1c0.1,0,0.3,0,0.3,0.2c0,0.2-0.2,0.2-0.3,0.2h-1.1v2.5c0,0.3,0,0.8,0.5,0.8
				c0.2,0,0.5-0.1,0.5-0.8c0-0.2,0-0.3,0.2-0.3c0.2,0,0.2,0.2,0.2,0.3C168.3,39.6,167.6,39.8,167.2,39.8z"/>
			<path class="st0" d="M171.7,39.8c-0.3,0-0.6,0-0.7-0.3c-0.3,0.4-0.8,0.4-1,0.4c-0.6,0-1-0.5-1-1.2c0-0.6,0.4-0.9,0.8-1.1
				c0.4-0.2,0.8-0.2,1.2-0.3c0-0.4,0-0.7-0.2-1c-0.2-0.2-0.4-0.2-0.6-0.2c-0.1,0-0.2,0-0.2,0c-0.2,0-0.2,0.1-0.2,0.1
				c0,0.4-0.2,0.4-0.3,0.4c-0.1,0-0.3-0.1-0.3-0.3c0-0.6,0.7-0.6,0.9-0.6c0.9,0,1.3,0.7,1.3,1.4v2.2c0.1,0.1,0.2,0.1,0.4,0.1
				c0.1,0,0.3,0,0.3,0.2C172.1,39.8,171.9,39.8,171.7,39.8z M171,37.7c-0.8,0-1.5,0.4-1.5,1c0,0.4,0.3,0.8,0.7,0.8
				c0,0,0.3,0,0.6-0.2c0.3-0.2,0.3-0.5,0.3-0.7V37.7z"/>
			<path class="st0" d="M175.1,39.8h-0.5c-0.1,0-0.2,0-0.2-0.2c0-0.2,0.2-0.2,0.3-0.2V37c0-0.5,0-0.9-0.2-0.9
				c-0.3,0-0.5,0.6-0.5,1.4v1.9c0.2,0,0.3,0,0.3,0.2c0,0.2-0.2,0.2-0.2,0.2h-0.5c-0.1,0-0.2,0-0.2-0.2c0-0.2,0.2-0.2,0.3-0.2V37
				c0-0.5,0-0.9-0.2-0.9c-0.3,0-0.5,0.6-0.5,1.4v1.9c0.2,0,0.3,0,0.3,0.2c0,0.2-0.2,0.2-0.2,0.2h-0.6c-0.1,0-0.3,0-0.3-0.2
				c0-0.2,0.2-0.2,0.4-0.2v-3.3c-0.2,0-0.4,0-0.4-0.2c0-0.2,0.2-0.2,0.3-0.2h0.2c0.1,0,0.3,0,0.3,0.3c0.1-0.1,0.2-0.4,0.5-0.4
				c0.3,0,0.5,0.4,0.5,0.5c0.2-0.4,0.4-0.5,0.6-0.5c0.5,0,0.6,1,0.6,1.2v2.5c0.2,0,0.4,0,0.4,0.2C175.3,39.8,175.1,39.8,175.1,39.8z
				"/>
			<path class="st0" d="M177,39.8c-0.7,0-1.3-0.9-1.3-2.1c0-1.2,0.6-2.1,1.3-2.1c0.7,0,1.3,0.9,1.3,2.1
				C178.3,39,177.7,39.8,177,39.8z M177,36.1c-0.5,0-0.9,0.7-0.9,1.6c0,1,0.4,1.8,0.9,1.8c0.5,0,0.9-0.8,0.9-1.8
				C177.9,36.7,177.5,36.1,177,36.1z"/>
			<path class="st0" d="M180.3,39.8c-0.2,0-0.6,0-0.9-0.4c-0.1,0.4-0.2,0.4-0.2,0.4c-0.2,0-0.2-0.1-0.2-0.3v-1c0-0.2,0-0.3,0.2-0.3
				c0.2,0,0.2,0.1,0.2,0.2c0.1,0.7,0.4,0.9,0.9,0.9c0.7,0,0.8-0.4,0.8-0.8c0-0.6-0.5-0.8-0.8-0.8c-0.5-0.1-0.7-0.2-0.9-0.4
				c-0.2-0.2-0.4-0.4-0.4-0.8c0-0.3,0.2-1.1,1.2-1.1c0.1,0,0.4,0,0.7,0.2c0,0,0-0.2,0.2-0.2c0.1,0,0.2,0.2,0.2,0.3v0.7
				c0,0.2,0,0.3-0.2,0.3c-0.1,0-0.2,0-0.2-0.2c0-0.3,0-0.7-0.7-0.7c-0.7,0-0.8,0.4-0.8,0.7c0,0.4,0.4,0.6,1,0.7
				c0.3,0.1,1.1,0.2,1.1,1.2C181.6,38.8,181.5,39.8,180.3,39.8z"/>
		</g>
	</g>
</g>
</svg>
