<?xml version="1.0" encoding="utf-8"?>
<!-- Generator: Adobe Illustrator 23.0.4, SVG Export Plug-In . SVG Version: 6.00 Build 0)  -->
<svg version="1.1" id="Capa_1" xmlns="http://www.w3.org/2000/svg" xmlns:xlink="http://www.w3.org/1999/xlink" x="0px" y="0px"
	 viewBox="0 0 130 34.6" style="enable-background:new 0 0 130 34.6;" xml:space="preserve">
<style type="text/css">
	.st0{fill:#1D1D1B;}
	.st1{fill:#63B137;}
	.st2{fill:#E3B634;}
	.st3{fill:#C41D2E;}
	.st4{fill:#4C9C37;}
	.st5{fill:#3E7E46;}
	.st6{fill:#FAC111;}
	.st7{fill:#E7422D;}
	.st8{fill:#F49C2C;}
	.st9{fill:#1894D2;}
	.st10{fill:#A11B43;}
	.st11{fill:#2DB9DE;}
	.st12{fill:#EB6830;}
	.st13{fill:#E4263D;}
	.st14{fill:#DD1868;}
	.st15{fill:#19496B;}
	.st16{fill:#C7982D;}
	.st17{fill:#046A9F;}
	.st18{fill-rule:evenodd;clip-rule:evenodd;fill:#F8991D;}
	.st19{fill:#2596D4;}
	.st20{fill:#F8991D;}
	.st21{fill:#FFFFFF;}
</style>
<g>
	<g>
		<path class="st0" d="M78.3,20.8c0,0.3,0,0.6,0,1.5H64.6c0.6,2.6,3.1,4.8,5.8,4.8c1.9,0,4.1-1.3,5.1-2.9l1.9,1.2
			c-1.2,2.3-4.4,4-6.9,4c-4.4,0-8.1-3.6-8.1-8c0-4.4,3.7-8.1,8.1-8.1c3.9,0,7.9,3.1,7.9,7C78.3,20.7,78.3,20.6,78.3,20.8z M76,20.2
			c-0.6-2.6-3-4.8-5.6-4.8c-2.7,0-5.2,2.2-5.8,4.8H76z"/>
		<path class="st0" d="M95.1,25.3c-1.2,2.3-4.4,4-7,4c-4.4,0-8.1-3.6-8.1-8c0-4.4,3.7-8.1,8.1-8.1c2.5,0,5.7,1.8,7,4l-2,1.1
			c-0.9-1.6-3.1-2.8-5-2.8c-3.2,0-5.9,2.6-5.9,5.8c0,3.2,2.6,5.8,5.9,5.8c1.8,0,4-1.3,5-2.9L95.1,25.3z"/>
		<path class="st0" d="M110.4,29.3h-2.2v-9.1c0-2.6-2.1-4.7-4.7-4.7c-2.6,0-4.6,2.1-4.6,4.7v9.1h-2.3V2.2h2.3v12.9
			c1-1,3.1-1.9,4.6-1.9c3.7,0,6.9,3.1,6.9,7V29.3z"/>
		<g id="XMLID_19_">
			<path id="XMLID_36_" class="st1" d="M115.8,19c0.2-0.3,0.4-0.6,0.7-0.9l-2.3-2.6c-0.6,0.6-1.1,1.2-1.5,1.9L115.8,19z"/>
			<path id="XMLID_35_" class="st2" d="M121.5,17.1c0.4,0.2,0.7,0.4,1,0.6l2.3-2.6c-0.6-0.5-1.3-1-2.1-1.3L121.5,17.1z"/>
			<path id="XMLID_34_" class="st3" d="M126.8,17.9l-3.1,1.6c0.1,0.3,0.3,0.7,0.3,1.1l3.4-0.3C127.4,19.4,127.1,18.7,126.8,17.9"/>
			<path id="XMLID_33_" class="st4" d="M123.5,19l3.1-1.6c-0.4-0.7-0.9-1.4-1.4-1.9l-2.3,2.6C123.1,18.4,123.3,18.7,123.5,19"/>
			<path id="XMLID_32_" class="st5" d="M115.1,21.3c0-0.1,0-0.1,0-0.2l-3.4-0.3c0,0.2,0,0.3,0,0.5c0,0.7,0.1,1.3,0.2,1.9l3.3-1
				C115.2,21.9,115.1,21.6,115.1,21.3"/>
			<path id="XMLID_31_" class="st6" d="M123.1,24.1c-0.2,0.3-0.5,0.6-0.8,0.8l1.8,3c0.7-0.5,1.3-1,1.8-1.7L123.1,24.1z"/>
			<path id="XMLID_30_" class="st7" d="M124.1,21.3c0,0.3,0,0.7-0.1,1l3.3,1c0.1-0.6,0.2-1.3,0.2-1.9c0-0.2,0-0.3,0-0.5l-3.4,0.3
				C124.1,21.2,124.1,21.2,124.1,21.3"/>
			<path id="XMLID_29_" class="st8" d="M116.2,24.2l-2.8,2.1c0.5,0.6,1.1,1.2,1.8,1.6l1.8-3C116.7,24.8,116.5,24.5,116.2,24.2"/>
			<path id="XMLID_28_" class="st9" d="M115.2,20.6c0.1-0.4,0.2-0.8,0.3-1.1l-3.1-1.6c-0.3,0.7-0.6,1.5-0.7,2.4L115.2,20.6z"/>
			<path id="XMLID_27_" class="st10" d="M123.6,28.2l-1.8-3c-0.3,0.2-0.7,0.3-1.1,0.4l0.6,3.4C122.2,28.9,122.9,28.6,123.6,28.2"/>
			<path id="XMLID_26_" class="st11" d="M123.8,22.7c-0.1,0.4-0.3,0.7-0.5,1l2.8,2.1c0.4-0.7,0.8-1.4,1-2.2L123.8,22.7z"/>
			<path id="XMLID_25_" class="st12" d="M120.2,25.7c-0.2,0-0.4,0-0.6,0c-0.2,0-0.4,0-0.5,0l-0.6,3.4c0.4,0.1,0.8,0.1,1.2,0.1
				c0.4,0,0.9,0,1.3-0.1L120.2,25.7z"/>
			<path id="XMLID_24_" class="st13" d="M119.9,16.8c0.4,0,0.8,0.1,1.1,0.2l1.2-3.3c-0.7-0.3-1.5-0.4-2.3-0.5V16.8z"/>
			<path id="XMLID_23_" class="st14" d="M118.6,25.7c-0.4-0.1-0.8-0.2-1.1-0.4l-1.8,3c0.7,0.4,1.5,0.7,2.3,0.9L118.6,25.7z"/>
			<path id="XMLID_22_" class="st15" d="M118.3,16.9c0.4-0.1,0.7-0.2,1.1-0.2v-3.5c-0.8,0-1.6,0.2-2.4,0.4L118.3,16.9z"/>
			<path id="XMLID_21_" class="st16" d="M115.9,23.8c-0.2-0.3-0.4-0.7-0.5-1.1l-3.3,1c0.3,0.8,0.6,1.5,1.1,2.2L115.9,23.8z"/>
			<path id="XMLID_20_" class="st17" d="M116.8,17.7c0.3-0.2,0.6-0.4,1-0.6l-1.3-3.3c-0.7,0.3-1.4,0.7-2,1.3L116.8,17.7z"/>
		</g>
		<path class="st0" d="M128.4,26.2c0.8,0,1.6,0.7,1.6,1.6c0,0.9-0.7,1.5-1.6,1.5c-0.8,0-1.6-0.6-1.6-1.5
			C126.9,26.9,127.6,26.2,128.4,26.2z"/>
	</g>
	<g>
		<path class="st0" d="M0.8,30v-2.9h1.9v0.3H1.2v0.9h1.3v0.3H1.2V30H0.8L0.8,30z M3,29c0-0.4,0.1-0.7,0.3-0.9
			c0.2-0.2,0.4-0.2,0.7-0.2c0.3,0,0.5,0.1,0.7,0.3c0.2,0.2,0.3,0.4,0.3,0.8c0,0.3,0,0.5-0.1,0.6c-0.1,0.2-0.2,0.3-0.4,0.4
			c-0.2,0.1-0.3,0.1-0.5,0.1c-0.3,0-0.5-0.1-0.7-0.3C3.1,29.6,3,29.3,3,29L3,29z M3.3,29c0,0.3,0.1,0.5,0.2,0.6
			c0.1,0.1,0.3,0.2,0.4,0.2c0.2,0,0.3-0.1,0.4-0.2c0.1-0.1,0.2-0.3,0.2-0.6c0-0.3-0.1-0.5-0.2-0.6c-0.1-0.1-0.3-0.2-0.4-0.2
			c-0.2,0-0.3,0.1-0.4,0.2C3.4,28.5,3.3,28.7,3.3,29L3.3,29z M5.2,30V28h0.3v0.3c0.2-0.2,0.4-0.3,0.7-0.3c0.1,0,0.2,0,0.3,0.1
			c0.1,0,0.2,0.1,0.2,0.2c0.1,0.1,0.1,0.2,0.1,0.3c0,0.1,0,0.2,0,0.3V30H6.6v-1.3c0-0.1,0-0.3,0-0.3c0-0.1-0.1-0.1-0.1-0.2
			c-0.1,0-0.2-0.1-0.2-0.1c-0.2,0-0.3,0-0.4,0.1c-0.1,0.1-0.2,0.3-0.2,0.5V30H5.2L5.2,30z M8.7,30v-0.3c-0.1,0.2-0.3,0.3-0.6,0.3
			c-0.2,0-0.3,0-0.5-0.1c-0.1-0.1-0.2-0.2-0.3-0.4c-0.1-0.2-0.1-0.3-0.1-0.6c0-0.2,0-0.4,0.1-0.6c0.1-0.2,0.2-0.3,0.3-0.4
			C7.8,28,8,27.9,8.1,27.9c0.1,0,0.2,0,0.3,0.1c0.1,0,0.2,0.1,0.2,0.2v-1h0.4V30H8.7L8.7,30z M7.6,29c0,0.3,0.1,0.5,0.2,0.6
			c0.1,0.1,0.2,0.2,0.4,0.2c0.2,0,0.3-0.1,0.4-0.2c0.1-0.1,0.2-0.3,0.2-0.6c0-0.3-0.1-0.5-0.2-0.6c-0.1-0.1-0.2-0.2-0.4-0.2
			c-0.2,0-0.3,0.1-0.4,0.2C7.7,28.5,7.6,28.7,7.6,29L7.6,29z M9.4,29c0-0.4,0.1-0.7,0.3-0.9c0.2-0.2,0.4-0.2,0.7-0.2
			c0.3,0,0.5,0.1,0.7,0.3c0.2,0.2,0.3,0.4,0.3,0.8c0,0.3,0,0.5-0.1,0.6c-0.1,0.2-0.2,0.3-0.3,0.4c-0.2,0.1-0.3,0.1-0.5,0.1
			c-0.3,0-0.5-0.1-0.7-0.3C9.5,29.6,9.4,29.3,9.4,29L9.4,29z M9.8,29c0,0.3,0.1,0.5,0.2,0.6c0.1,0.1,0.3,0.2,0.4,0.2
			c0.2,0,0.3-0.1,0.4-0.2c0.1-0.1,0.2-0.3,0.2-0.6c0-0.3-0.1-0.5-0.2-0.6c-0.1-0.1-0.3-0.2-0.4-0.2c-0.2,0-0.3,0.1-0.4,0.2
			C9.8,28.5,9.8,28.7,9.8,29L9.8,29z M14.2,30v-0.3c-0.1,0.2-0.3,0.3-0.6,0.3c-0.2,0-0.3,0-0.5-0.1c-0.1-0.1-0.2-0.2-0.3-0.4
			c-0.1-0.2-0.1-0.3-0.1-0.6c0-0.2,0-0.4,0.1-0.6c0.1-0.2,0.2-0.3,0.3-0.4c0.1-0.1,0.3-0.1,0.5-0.1c0.1,0,0.2,0,0.3,0.1
			c0.1,0,0.2,0.1,0.2,0.2v-1h0.3V30H14.2L14.2,30z M13.1,29c0,0.3,0.1,0.5,0.2,0.6c0.1,0.1,0.2,0.2,0.4,0.2c0.2,0,0.3-0.1,0.4-0.2
			c0.1-0.1,0.2-0.3,0.2-0.6c0-0.3-0.1-0.5-0.2-0.6c-0.1-0.1-0.2-0.2-0.4-0.2c-0.2,0-0.3,0.1-0.4,0.2C13.2,28.5,13.1,28.7,13.1,29
			L13.1,29z M16.4,29.4l0.4,0c-0.1,0.2-0.2,0.4-0.3,0.5c-0.2,0.1-0.4,0.2-0.6,0.2c-0.3,0-0.5-0.1-0.7-0.3c-0.2-0.2-0.3-0.4-0.3-0.8
			c0-0.4,0.1-0.6,0.3-0.8c0.2-0.2,0.4-0.3,0.7-0.3c0.3,0,0.5,0.1,0.7,0.3c0.2,0.2,0.3,0.5,0.3,0.8c0,0,0,0,0,0.1h-1.6
			c0,0.2,0.1,0.4,0.2,0.5c0.1,0.1,0.3,0.2,0.4,0.2c0.1,0,0.2,0,0.3-0.1C16.3,29.6,16.4,29.5,16.4,29.4L16.4,29.4z M15.3,28.8h1.2
			c0-0.2-0.1-0.3-0.1-0.4c-0.1-0.1-0.3-0.2-0.4-0.2c-0.2,0-0.3,0.1-0.4,0.2C15.4,28.5,15.3,28.6,15.3,28.8L15.3,28.8z M18.4,30v-2.9
			h1.1c0.2,0,0.3,0,0.4,0c0.1,0,0.3,0.1,0.4,0.1c0.1,0.1,0.2,0.2,0.2,0.3c0.1,0.1,0.1,0.3,0.1,0.4c0,0.2-0.1,0.5-0.2,0.6
			c-0.2,0.2-0.4,0.3-0.8,0.3h-0.7V30H18.4L18.4,30z M18.8,28.5h0.7c0.2,0,0.4,0,0.5-0.1c0.1-0.1,0.2-0.2,0.2-0.4
			c0-0.1,0-0.2-0.1-0.3c-0.1-0.1-0.1-0.1-0.2-0.2c-0.1,0-0.2,0-0.4,0h-0.7V28.5L18.8,28.5z M20.8,29c0-0.4,0.1-0.7,0.3-0.9
			c0.2-0.2,0.4-0.2,0.7-0.2c0.3,0,0.5,0.1,0.7,0.3c0.2,0.2,0.3,0.4,0.3,0.8c0,0.3,0,0.5-0.1,0.6c-0.1,0.2-0.2,0.3-0.4,0.4
			c-0.2,0.1-0.3,0.1-0.5,0.1c-0.3,0-0.5-0.1-0.7-0.3C20.9,29.6,20.8,29.3,20.8,29L20.8,29z M21.2,29c0,0.3,0.1,0.5,0.2,0.6
			c0.1,0.1,0.3,0.2,0.4,0.2c0.2,0,0.3-0.1,0.4-0.2c0.1-0.1,0.2-0.3,0.2-0.6c0-0.3-0.1-0.5-0.2-0.6c-0.1-0.1-0.3-0.2-0.4-0.2
			c-0.2,0-0.3,0.1-0.4,0.2C21.2,28.5,21.2,28.7,21.2,29L21.2,29z M23.4,30h-0.3v-2.9h0.4v1c0.1-0.2,0.3-0.3,0.6-0.3
			c0.1,0,0.2,0,0.4,0.1c0.1,0.1,0.2,0.1,0.3,0.2c0.1,0.1,0.1,0.2,0.2,0.3c0,0.1,0.1,0.3,0.1,0.4c0,0.4-0.1,0.6-0.3,0.8
			c-0.2,0.2-0.4,0.3-0.6,0.3c-0.2,0-0.4-0.1-0.6-0.3V30L23.4,30z M23.4,29c0,0.2,0,0.4,0.1,0.5c0.1,0.2,0.3,0.3,0.5,0.3
			c0.2,0,0.3-0.1,0.4-0.2c0.1-0.1,0.2-0.3,0.2-0.6c0-0.3-0.1-0.5-0.2-0.6c-0.1-0.1-0.2-0.2-0.4-0.2c-0.2,0-0.3,0.1-0.4,0.2
			C23.5,28.5,23.4,28.7,23.4,29L23.4,29z M25.2,30v-2.9h0.4V30H25.2L25.2,30z M27.4,29.8C27.3,29.9,27.1,30,27,30
			c-0.1,0-0.2,0.1-0.4,0.1c-0.2,0-0.4-0.1-0.5-0.2c-0.1-0.1-0.2-0.3-0.2-0.4c0-0.1,0-0.2,0.1-0.3c0-0.1,0.1-0.2,0.2-0.2
			c0.1,0,0.2-0.1,0.3-0.1c0.1,0,0.2,0,0.3-0.1c0.3,0,0.5-0.1,0.6-0.1c0,0,0-0.1,0-0.1c0-0.1,0-0.2-0.1-0.3c-0.1-0.1-0.2-0.1-0.4-0.1
			c-0.2,0-0.3,0-0.4,0.1c-0.1,0.1-0.1,0.2-0.2,0.3l-0.3,0c0-0.1,0.1-0.3,0.2-0.4c0.1-0.1,0.2-0.2,0.3-0.2c0.1,0,0.3-0.1,0.5-0.1
			c0.2,0,0.3,0,0.4,0.1c0.1,0,0.2,0.1,0.2,0.2c0.1,0.1,0.1,0.1,0.1,0.2c0,0.1,0,0.2,0,0.3v0.5c0,0.3,0,0.5,0,0.6
			c0,0.1,0,0.2,0.1,0.2h-0.4C27.4,30,27.4,29.9,27.4,29.8L27.4,29.8z M27.4,29c-0.1,0-0.3,0.1-0.6,0.1c-0.1,0-0.2,0-0.3,0.1
			c-0.1,0-0.1,0.1-0.1,0.1c0,0,0,0.1,0,0.2c0,0.1,0,0.2,0.1,0.2c0.1,0.1,0.2,0.1,0.3,0.1c0.1,0,0.3,0,0.4-0.1
			c0.1-0.1,0.2-0.1,0.2-0.2c0-0.1,0.1-0.2,0.1-0.4V29L27.4,29z M29.5,29.3l0.3,0c0,0.2-0.1,0.4-0.3,0.6c-0.2,0.1-0.3,0.2-0.6,0.2
			c-0.3,0-0.5-0.1-0.7-0.3c-0.2-0.2-0.3-0.5-0.3-0.8c0-0.2,0-0.4,0.1-0.6c0.1-0.2,0.2-0.3,0.3-0.4c0.2-0.1,0.3-0.1,0.5-0.1
			c0.2,0,0.4,0.1,0.6,0.2c0.1,0.1,0.2,0.3,0.3,0.5l-0.3,0.1c0-0.1-0.1-0.2-0.2-0.3c-0.1-0.1-0.2-0.1-0.3-0.1c-0.2,0-0.3,0.1-0.4,0.2
			c-0.1,0.1-0.2,0.3-0.2,0.6c0,0.3,0.1,0.5,0.2,0.6c0.1,0.1,0.2,0.2,0.4,0.2c0.1,0,0.3,0,0.3-0.1C29.4,29.6,29.5,29.5,29.5,29.3
			L29.5,29.3z M30.1,27.6v-0.4h0.4v0.4H30.1L30.1,27.6z M30.1,30V28h0.4V30H30.1L30.1,30z M30.8,29c0-0.4,0.1-0.7,0.3-0.9
			c0.2-0.2,0.4-0.2,0.7-0.2c0.3,0,0.5,0.1,0.7,0.3c0.2,0.2,0.3,0.4,0.3,0.8c0,0.3,0,0.5-0.1,0.6c-0.1,0.2-0.2,0.3-0.4,0.4
			c-0.2,0.1-0.3,0.1-0.5,0.1c-0.3,0-0.5-0.1-0.7-0.3C30.9,29.6,30.8,29.3,30.8,29L30.8,29z M31.1,29c0,0.3,0.1,0.5,0.2,0.6
			c0.1,0.1,0.3,0.2,0.4,0.2c0.2,0,0.3-0.1,0.4-0.2c0.1-0.1,0.2-0.3,0.2-0.6c0-0.3-0.1-0.5-0.2-0.6c-0.1-0.1-0.3-0.2-0.4-0.2
			c-0.2,0-0.3,0.1-0.4,0.2C31.2,28.5,31.1,28.7,31.1,29L31.1,29z M31.5,27.7l0.3-0.6h0.5l-0.4,0.6H31.5L31.5,27.7z M33,30V28h0.3
			v0.3c0.2-0.2,0.4-0.3,0.7-0.3c0.1,0,0.2,0,0.3,0.1c0.1,0,0.2,0.1,0.2,0.2c0.1,0.1,0.1,0.2,0.1,0.3c0,0.1,0,0.2,0,0.3V30h-0.4v-1.3
			c0-0.1,0-0.3,0-0.3c0-0.1-0.1-0.1-0.1-0.2c-0.1,0-0.1-0.1-0.2-0.1c-0.2,0-0.3,0-0.4,0.1c-0.1,0.1-0.2,0.3-0.2,0.5V30H33L33,30z
			 M2.1,34.5v-0.3c-0.1,0.2-0.3,0.3-0.6,0.3c-0.2,0-0.3,0-0.5-0.1c-0.1-0.1-0.2-0.2-0.3-0.4c-0.1-0.2-0.1-0.4-0.1-0.6
			c0-0.2,0-0.4,0.1-0.6c0.1-0.2,0.2-0.3,0.3-0.4c0.1-0.1,0.3-0.1,0.5-0.1c0.1,0,0.2,0,0.3,0.1c0.1,0.1,0.2,0.1,0.2,0.2v-1h0.4v2.9
			H2.1L2.1,34.5z M1,33.5c0,0.3,0.1,0.5,0.2,0.6c0.1,0.1,0.2,0.2,0.4,0.2c0.2,0,0.3-0.1,0.4-0.2C2,34,2.1,33.8,2.1,33.5
			c0-0.3-0.1-0.5-0.2-0.6c-0.1-0.1-0.2-0.2-0.4-0.2c-0.2,0-0.3,0.1-0.4,0.2C1,33,1,33.2,1,33.5L1,33.5z M4.4,33.9l0.4,0
			c-0.1,0.2-0.2,0.4-0.3,0.5c-0.2,0.1-0.4,0.2-0.6,0.2c-0.3,0-0.5-0.1-0.7-0.3c-0.2-0.2-0.3-0.5-0.3-0.8c0-0.4,0.1-0.6,0.3-0.8
			c0.2-0.2,0.4-0.3,0.7-0.3c0.3,0,0.5,0.1,0.7,0.3c0.2,0.2,0.3,0.5,0.3,0.8c0,0,0,0.1,0,0.1H3.2c0,0.2,0.1,0.4,0.2,0.5
			c0.1,0.1,0.3,0.2,0.4,0.2c0.1,0,0.2,0,0.3-0.1C4.3,34.1,4.3,34,4.4,33.9L4.4,33.9z M3.2,33.3h1.2c0-0.2-0.1-0.3-0.1-0.4
			c-0.1-0.1-0.3-0.2-0.4-0.2c-0.2,0-0.3,0.1-0.4,0.2C3.3,33,3.2,33.1,3.2,33.3L3.2,33.3z M6.3,34.5v-2.9h0.3v2.9H6.3L6.3,34.5z
			 M8.6,34.3c-0.1,0.1-0.3,0.2-0.4,0.2c-0.1,0-0.2,0.1-0.4,0.1c-0.2,0-0.4-0.1-0.5-0.2c-0.1-0.1-0.2-0.3-0.2-0.4
			c0-0.1,0-0.2,0.1-0.3c0-0.1,0.1-0.1,0.2-0.2c0.1,0,0.2-0.1,0.3-0.1c0.1,0,0.2,0,0.3-0.1c0.3,0,0.5-0.1,0.6-0.1c0,0,0-0.1,0-0.1
			c0-0.1,0-0.2-0.1-0.3c-0.1-0.1-0.2-0.1-0.4-0.1c-0.2,0-0.3,0-0.4,0.1c-0.1,0.1-0.1,0.2-0.2,0.3l-0.3,0c0-0.1,0.1-0.3,0.2-0.4
			c0.1-0.1,0.2-0.2,0.3-0.2c0.1,0,0.3-0.1,0.5-0.1c0.2,0,0.3,0,0.4,0.1c0.1,0,0.2,0.1,0.2,0.2c0.1,0.1,0.1,0.1,0.1,0.2
			c0,0.1,0,0.2,0,0.3v0.5c0,0.3,0,0.5,0,0.6c0,0.1,0,0.2,0.1,0.2H8.6C8.6,34.4,8.6,34.4,8.6,34.3L8.6,34.3z M8.5,33.5
			c-0.1,0.1-0.3,0.1-0.6,0.1c-0.1,0-0.2,0-0.3,0.1c-0.1,0-0.1,0.1-0.1,0.1c0,0,0,0.1,0,0.2c0,0.1,0,0.2,0.1,0.2
			c0.1,0.1,0.2,0.1,0.3,0.1c0.1,0,0.3,0,0.4-0.1c0.1-0.1,0.2-0.1,0.2-0.2c0-0.1,0.1-0.2,0.1-0.4V33.5L8.5,33.5z M9.3,33.9l0.3-0.1
			c0,0.1,0.1,0.2,0.2,0.3c0.1,0.1,0.2,0.1,0.4,0.1c0.2,0,0.3,0,0.4-0.1c0.1-0.1,0.1-0.1,0.1-0.2c0-0.1,0-0.1-0.1-0.2
			c0,0-0.2-0.1-0.4-0.1c-0.3-0.1-0.4-0.1-0.5-0.2c-0.1,0-0.2-0.1-0.2-0.2c-0.1-0.1-0.1-0.2-0.1-0.3c0-0.1,0-0.2,0.1-0.3
			c0-0.1,0.1-0.1,0.2-0.2c0.1,0,0.1-0.1,0.2-0.1c0.1,0,0.2,0,0.3,0c0.2,0,0.3,0,0.4,0.1c0.1,0,0.2,0.1,0.3,0.2
			c0.1,0.1,0.1,0.2,0.1,0.3l-0.3,0c0-0.1-0.1-0.2-0.1-0.2c-0.1-0.1-0.2-0.1-0.3-0.1c-0.2,0-0.3,0-0.3,0.1c-0.1,0-0.1,0.1-0.1,0.2
			c0,0,0,0.1,0,0.1c0,0,0.1,0.1,0.1,0.1c0,0,0.1,0,0.3,0.1c0.2,0.1,0.4,0.1,0.5,0.2c0.1,0,0.2,0.1,0.2,0.2c0.1,0.1,0.1,0.2,0.1,0.3
			c0,0.1,0,0.2-0.1,0.3c-0.1,0.1-0.2,0.2-0.3,0.2c-0.1,0.1-0.3,0.1-0.4,0.1c-0.3,0-0.5-0.1-0.6-0.2C9.4,34.3,9.3,34.1,9.3,33.9
			L9.3,33.9z M12.6,34.5v-2.9H13l1.5,2.3v-2.3h0.4v2.9h-0.4L13,32.3v2.3H12.6L12.6,34.5z M16.8,34.3c-0.1,0.1-0.3,0.2-0.4,0.2
			c-0.1,0-0.2,0.1-0.4,0.1c-0.2,0-0.4-0.1-0.5-0.2c-0.1-0.1-0.2-0.3-0.2-0.4c0-0.1,0-0.2,0.1-0.3c0-0.1,0.1-0.1,0.2-0.2
			c0.1,0,0.2-0.1,0.3-0.1c0.1,0,0.2,0,0.3-0.1c0.3,0,0.5-0.1,0.6-0.1c0,0,0-0.1,0-0.1c0-0.1,0-0.2-0.1-0.3c-0.1-0.1-0.2-0.1-0.4-0.1
			c-0.2,0-0.3,0-0.4,0.1c-0.1,0.1-0.1,0.2-0.2,0.3l-0.3,0c0-0.1,0.1-0.3,0.2-0.4c0.1-0.1,0.2-0.2,0.3-0.2c0.1,0,0.3-0.1,0.5-0.1
			c0.2,0,0.3,0,0.4,0.1c0.1,0,0.2,0.1,0.2,0.2c0.1,0.1,0.1,0.1,0.1,0.2c0,0.1,0,0.2,0,0.3v0.5c0,0.3,0,0.5,0,0.6
			c0,0.1,0,0.2,0.1,0.2h-0.4C16.8,34.4,16.8,34.4,16.8,34.3L16.8,34.3z M16.8,33.5c-0.1,0.1-0.3,0.1-0.6,0.1c-0.1,0-0.3,0-0.3,0.1
			c-0.1,0-0.1,0.1-0.1,0.1c0,0,0,0.1,0,0.2c0,0.1,0,0.2,0.1,0.2c0.1,0.1,0.2,0.1,0.3,0.1c0.1,0,0.3,0,0.4-0.1
			c0.1-0.1,0.2-0.1,0.2-0.2c0-0.1,0.1-0.2,0.1-0.4V33.5L16.8,33.5z M19,33.8l0.3,0c0,0.2-0.1,0.4-0.3,0.6c-0.2,0.1-0.3,0.2-0.6,0.2
			c-0.3,0-0.5-0.1-0.7-0.3c-0.2-0.2-0.3-0.5-0.3-0.8c0-0.2,0-0.4,0.1-0.6c0.1-0.2,0.2-0.3,0.3-0.4c0.2-0.1,0.3-0.1,0.5-0.1
			c0.2,0,0.4,0.1,0.6,0.2c0.1,0.1,0.2,0.3,0.3,0.5L19,33.1c0-0.1-0.1-0.2-0.2-0.3c-0.1-0.1-0.2-0.1-0.3-0.1c-0.2,0-0.3,0.1-0.4,0.2
			c-0.1,0.1-0.2,0.3-0.2,0.6c0,0.3,0.1,0.5,0.2,0.6c0.1,0.1,0.2,0.2,0.4,0.2c0.1,0,0.3,0,0.3-0.1C19,34.1,19,33.9,19,33.8L19,33.8z
			 M19.7,32.1v-0.4H20v0.4H19.7L19.7,32.1z M19.7,34.5v-2.1H20v2.1H19.7L19.7,34.5z M20.5,33.5c0-0.4,0.1-0.7,0.3-0.9
			c0.2-0.2,0.4-0.2,0.7-0.2c0.3,0,0.5,0.1,0.7,0.3c0.2,0.2,0.3,0.4,0.3,0.8c0,0.3,0,0.5-0.1,0.6c-0.1,0.2-0.2,0.3-0.3,0.4
			c-0.2,0.1-0.3,0.1-0.5,0.1c-0.3,0-0.5-0.1-0.7-0.3C20.5,34.1,20.5,33.8,20.5,33.5L20.5,33.5z M20.8,33.5c0,0.3,0.1,0.5,0.2,0.6
			c0.1,0.1,0.3,0.2,0.4,0.2c0.2,0,0.3-0.1,0.4-0.2c0.1-0.1,0.2-0.3,0.2-0.6c0-0.3-0.1-0.5-0.2-0.6c-0.1-0.1-0.3-0.2-0.4-0.2
			c-0.2,0-0.3,0.1-0.4,0.2C20.9,33,20.8,33.2,20.8,33.5L20.8,33.5z M22.8,34.5v-2.1h0.3v0.3c0.2-0.2,0.4-0.3,0.7-0.3
			c0.1,0,0.2,0,0.3,0.1c0.1,0,0.2,0.1,0.2,0.2c0.1,0.1,0.1,0.2,0.1,0.3c0,0.1,0,0.2,0,0.3v1.3h-0.4v-1.3c0-0.1,0-0.2,0-0.3
			c0-0.1-0.1-0.1-0.1-0.2c-0.1,0-0.2-0.1-0.2-0.1c-0.2,0-0.3,0-0.4,0.1c-0.1,0.1-0.2,0.3-0.2,0.5v1.1H22.8L22.8,34.5z M26.5,33.9
			l0.4,0c-0.1,0.2-0.2,0.4-0.3,0.5c-0.2,0.1-0.4,0.2-0.6,0.2c-0.3,0-0.5-0.1-0.7-0.3c-0.2-0.2-0.3-0.5-0.3-0.8
			c0-0.4,0.1-0.6,0.3-0.8c0.2-0.2,0.4-0.3,0.7-0.3c0.3,0,0.5,0.1,0.7,0.3c0.2,0.2,0.3,0.5,0.3,0.8c0,0,0,0.1,0,0.1h-1.6
			c0,0.2,0.1,0.4,0.2,0.5c0.1,0.1,0.3,0.2,0.4,0.2c0.1,0,0.2,0,0.3-0.1C26.3,34.1,26.4,34,26.5,33.9L26.5,33.9z M25.3,33.3h1.2
			c0-0.2-0.1-0.3-0.1-0.4c-0.1-0.1-0.3-0.2-0.4-0.2c-0.2,0-0.3,0.1-0.4,0.2C25.4,33,25.3,33.1,25.3,33.3L25.3,33.3z M27.1,33.9
			l0.3-0.1c0,0.1,0.1,0.2,0.2,0.3c0.1,0.1,0.2,0.1,0.4,0.1c0.2,0,0.3,0,0.4-0.1c0.1-0.1,0.1-0.1,0.1-0.2c0-0.1,0-0.1-0.1-0.2
			c0,0-0.2-0.1-0.4-0.1c-0.3-0.1-0.4-0.1-0.5-0.2c-0.1,0-0.2-0.1-0.2-0.2c-0.1-0.1-0.1-0.2-0.1-0.3c0-0.1,0-0.2,0.1-0.3
			c0-0.1,0.1-0.1,0.2-0.2c0.1,0,0.1-0.1,0.2-0.1c0.1,0,0.2,0,0.3,0c0.2,0,0.3,0,0.4,0.1c0.1,0,0.2,0.1,0.3,0.2
			c0.1,0.1,0.1,0.2,0.1,0.3l-0.3,0c0-0.1-0.1-0.2-0.1-0.2c-0.1-0.1-0.2-0.1-0.3-0.1c-0.2,0-0.3,0-0.3,0.1c-0.1,0-0.1,0.1-0.1,0.2
			c0,0,0,0.1,0,0.1c0,0,0.1,0.1,0.1,0.1c0,0,0.1,0,0.3,0.1c0.2,0.1,0.4,0.1,0.5,0.2c0.1,0,0.2,0.1,0.2,0.2c0.1,0.1,0.1,0.2,0.1,0.3
			c0,0.1,0,0.2-0.1,0.3c-0.1,0.1-0.2,0.2-0.3,0.2c-0.1,0.1-0.3,0.1-0.4,0.1c-0.3,0-0.5-0.1-0.6-0.2C27.3,34.3,27.2,34.1,27.1,33.9
			L27.1,33.9z M32.3,31.6h0.4v1.7c0,0.3,0,0.5-0.1,0.7c-0.1,0.2-0.2,0.3-0.4,0.4c-0.2,0.1-0.4,0.2-0.7,0.2c-0.3,0-0.5,0-0.7-0.1
			c-0.2-0.1-0.3-0.2-0.4-0.4c-0.1-0.2-0.1-0.4-0.1-0.7v-1.7h0.4v1.7c0,0.2,0,0.4,0.1,0.6c0,0.1,0.1,0.2,0.2,0.3
			c0.1,0.1,0.2,0.1,0.4,0.1c0.3,0,0.5-0.1,0.6-0.2c0.1-0.1,0.2-0.4,0.2-0.7V31.6L32.3,31.6z M33.3,34.5v-2.1h0.3v0.3
			c0.2-0.2,0.4-0.3,0.7-0.3c0.1,0,0.2,0,0.3,0.1c0.1,0,0.2,0.1,0.2,0.2c0.1,0.1,0.1,0.2,0.1,0.3c0,0.1,0,0.2,0,0.3v1.3h-0.4v-1.3
			c0-0.1,0-0.2,0-0.3c0-0.1-0.1-0.1-0.1-0.2c-0.1,0-0.2-0.1-0.2-0.1c-0.2,0-0.3,0-0.4,0.1c-0.1,0.1-0.2,0.3-0.2,0.5v1.1H33.3
			L33.3,34.5z M35.5,32.1v-0.4h0.4v0.4H35.5L35.5,32.1z M35.5,34.5v-2.1h0.4v2.1H35.5L35.5,34.5z M37.8,34.5v-0.3
			c-0.1,0.2-0.3,0.3-0.6,0.3c-0.2,0-0.3,0-0.5-0.1c-0.1-0.1-0.2-0.2-0.3-0.4c-0.1-0.2-0.1-0.4-0.1-0.6c0-0.2,0-0.4,0.1-0.6
			c0.1-0.2,0.2-0.3,0.3-0.4c0.1-0.1,0.3-0.1,0.5-0.1c0.1,0,0.2,0,0.3,0.1c0.1,0.1,0.2,0.1,0.2,0.2v-1h0.3v2.9H37.8L37.8,34.5z
			 M36.7,33.5c0,0.3,0.1,0.5,0.2,0.6c0.1,0.1,0.2,0.2,0.4,0.2c0.2,0,0.3-0.1,0.4-0.2c0.1-0.1,0.2-0.3,0.2-0.6c0-0.3-0.1-0.5-0.2-0.6
			c-0.1-0.1-0.2-0.2-0.4-0.2c-0.2,0-0.3,0.1-0.4,0.2C36.7,33,36.7,33.2,36.7,33.5L36.7,33.5z"/>
		<path class="st0" d="M40,34.3c-0.1,0.1-0.3,0.2-0.4,0.2c-0.1,0-0.2,0.1-0.4,0.1c-0.2,0-0.4-0.1-0.5-0.2c-0.1-0.1-0.2-0.3-0.2-0.4
			c0-0.1,0-0.2,0.1-0.3c0-0.1,0.1-0.1,0.2-0.2c0.1,0,0.2-0.1,0.3-0.1c0.1,0,0.2,0,0.3-0.1c0.3,0,0.5-0.1,0.6-0.1c0,0,0-0.1,0-0.1
			c0-0.1,0-0.2-0.1-0.3c-0.1-0.1-0.2-0.1-0.4-0.1c-0.2,0-0.3,0-0.4,0.1c-0.1,0.1-0.1,0.2-0.2,0.3l-0.3,0c0-0.1,0.1-0.3,0.2-0.4
			c0.1-0.1,0.2-0.2,0.3-0.2c0.1,0,0.3-0.1,0.5-0.1c0.2,0,0.3,0,0.4,0.1c0.1,0,0.2,0.1,0.2,0.2c0.1,0.1,0.1,0.1,0.1,0.2
			c0,0.1,0,0.2,0,0.3v0.5c0,0.3,0,0.5,0,0.6c0,0.1,0,0.2,0.1,0.2h-0.4C40,34.4,40,34.4,40,34.3L40,34.3z M40,33.5
			c-0.1,0.1-0.3,0.1-0.6,0.1c-0.1,0-0.2,0-0.3,0.1c-0.1,0-0.1,0.1-0.1,0.1c0,0,0,0.1,0,0.2c0,0.1,0,0.2,0.1,0.2
			c0.1,0.1,0.2,0.1,0.3,0.1c0.1,0,0.3,0,0.4-0.1c0.1-0.1,0.2-0.1,0.2-0.2c0-0.1,0.1-0.2,0.1-0.4V33.5L40,33.5z M40.7,33.9l0.3-0.1
			c0,0.1,0.1,0.2,0.2,0.3c0.1,0.1,0.2,0.1,0.4,0.1c0.2,0,0.3,0,0.4-0.1c0.1-0.1,0.1-0.1,0.1-0.2c0-0.1,0-0.1-0.1-0.2
			c0,0-0.2-0.1-0.4-0.1c-0.3-0.1-0.4-0.1-0.5-0.2c-0.1,0-0.2-0.1-0.2-0.2c0-0.1-0.1-0.2-0.1-0.3c0-0.1,0-0.2,0.1-0.3
			c0-0.1,0.1-0.1,0.2-0.2c0.1,0,0.1-0.1,0.2-0.1c0.1,0,0.2,0,0.3,0c0.2,0,0.3,0,0.4,0.1c0.1,0,0.2,0.1,0.3,0.2
			c0.1,0.1,0.1,0.2,0.1,0.3L42,33c0-0.1-0.1-0.2-0.1-0.2c-0.1-0.1-0.2-0.1-0.3-0.1c-0.2,0-0.3,0-0.3,0.1c-0.1,0-0.1,0.1-0.1,0.2
			c0,0,0,0.1,0,0.1c0,0,0.1,0.1,0.1,0.1c0,0,0.1,0,0.3,0.1c0.2,0.1,0.4,0.1,0.5,0.2c0.1,0,0.2,0.1,0.2,0.2c0.1,0.1,0.1,0.2,0.1,0.3
			c0,0.1,0,0.2-0.1,0.3c-0.1,0.1-0.2,0.2-0.3,0.2c-0.1,0.1-0.3,0.1-0.4,0.1c-0.3,0-0.5-0.1-0.6-0.2C40.9,34.3,40.8,34.1,40.7,33.9
			L40.7,33.9z"/>
		<path class="st18" d="M2.5,0.1C3.9,0.1,5,1.2,5,2.6c0,1.4-1.1,2.5-2.5,2.5C1.1,5.1,0,3.9,0,2.6C0,1.2,1.1,0.1,2.5,0.1L2.5,0.1z"/>
		<path class="st18" d="M11.4,0.1c1.4,0,2.5,1.1,2.5,2.5c0,1.4-1.1,2.5-2.5,2.5c-1.4,0-2.5-1.1-2.5-2.5C8.9,1.2,10.1,0.1,11.4,0.1
			L11.4,0.1z"/>
		<path class="st18" d="M20.6,0.1c1.4,0,2.5,1.1,2.5,2.5c0,1.4-1.1,2.5-2.5,2.5c-1.4,0-2.5-1.1-2.5-2.5C18.1,1.2,19.2,0.1,20.6,0.1
			L20.6,0.1z"/>
		<path class="st18" d="M2.5,17.6c1.4,0,2.5,1.1,2.5,2.5c0,1.4-1.1,2.5-2.5,2.5c-1.4,0-2.5-1.1-2.5-2.5C0,18.7,1.1,17.6,2.5,17.6
			L2.5,17.6z"/>
		<path class="st18" d="M11.4,17.6c1.4,0,2.5,1.1,2.5,2.5c0,1.4-1.1,2.5-2.5,2.5c-1.4,0-2.5-1.1-2.5-2.5
			C8.9,18.7,10.1,17.6,11.4,17.6L11.4,17.6z"/>
		<path class="st18" d="M20.6,17.6c1.4,0,2.5,1.1,2.5,2.5c0,1.4-1.1,2.5-2.5,2.5c-1.4,0-2.5-1.1-2.5-2.5
			C18.1,18.7,19.2,17.6,20.6,17.6L20.6,17.6z"/>
		<path class="st18" d="M2.5,8.8C3.9,8.8,5,9.9,5,11.3c0,1.4-1.1,2.5-2.5,2.5c-1.4,0-2.5-1.1-2.5-2.5C0,9.9,1.1,8.8,2.5,8.8L2.5,8.8
			z"/>
		<path class="st18" d="M11.4,8.8c1.4,0,2.5,1.1,2.5,2.5c0,1.4-1.1,2.5-2.5,2.5c-1.4,0-2.5-1.1-2.5-2.5C8.9,9.9,10.1,8.8,11.4,8.8
			L11.4,8.8z"/>
		<path class="st19" d="M22.5,14.7c-0.5-0.2-1.2-0.5-1.8-0.3c-0.3-0.1-0.7-0.1-1,0c-0.5,0.2-1.3,0.6-1.9,0.2
			c0.1,0.1,0.2,0.2,0.4,0.3c0.4,0.2,0.9,0.2,1.3,0c0.4-0.1,0.6-0.6,1.1-0.5c-0.4,0.2-0.7,0.4-1.1,0.8l0.2,0.2
			c0.3-0.4,0.7-0.7,1.1-0.9c0.4,0.2,0.8,0.5,1,0.8l0.2-0.2c-0.3-0.3-0.7-0.5-1.1-0.7c0.1,0,0.2,0,0.3,0c0.4,0.2,0.7,0.5,1.2,0.6
			c0.5,0.1,0.9-0.1,1.2-0.5l-0.2,0.1C23.1,14.8,22.7,14.8,22.5,14.7L22.5,14.7z M18,13.2c0.2,0.3,0.2,0.7,0.6,0.9
			c0.1,0.1,0.3,0.1,0.4,0.2c-0.2,0-0.3,0-0.5-0.1c-0.5-0.1-1.2,0-1.5-0.4c0.2,0.3,0.5,0.6,0.8,0.7c0.6,0.2,1.2-0.1,1.8-0.2
			C18.9,14.3,18.5,13.6,18,13.2L18,13.2z M23.4,13.2c-0.4,0.2-0.7,0.6-1,0.9c-0.2,0.1-0.4,0.2-0.6,0.2c0.5,0,0.9,0.3,1.4,0.2
			c0.5,0,1-0.3,1.3-0.8c-0.4,0.4-0.9,0.4-1.5,0.5c-0.2,0-0.4,0.1-0.5,0.1c0,0,0,0,0,0C23,14.2,23.1,13.6,23.4,13.2L23.4,13.2z
			 M20.7,12.8L20.7,12.8l0,0.4c0.1,0,0.3,0,0.4-0.1c-0.1-0.1-0.2-0.1-0.2-0.1c0-0.1,0-0.1,0-0.2C20.9,12.9,20.8,12.9,20.7,12.8
			L20.7,12.8z M18.8,12.7l-0.3,0.4c0.6,0.5,1.3,0.8,2.1,0.9l0,0c0-0.2,0-0.3,0-0.5l0,0C19.9,13.4,19.3,13.2,18.8,12.7L18.8,12.7z
			 M22.5,12.7c-0.1,0.1-0.2,0.2-0.3,0.2c-0.3,0.1-0.4,0.5-0.7,0.6c-0.1,0-0.2-0.1-0.3-0.1c-0.2,0-0.3,0.1-0.5,0V14l0,0
			c0.8,0,1.5-0.4,2.1-0.9C22.7,12.9,22.6,12.8,22.5,12.7L22.5,12.7z M19.4,12.4c0,0.1,0.1,0.1,0,0.1c-0.1,0.1-0.2,0-0.3,0.1
			c-0.1,0-0.2-0.1-0.2-0.1c0.5,0.4,1,0.7,1.6,0.7l0,0c0-0.1,0-0.3,0-0.5C20.1,12.8,19.8,12.7,19.4,12.4L19.4,12.4z M19.4,12.4
			L19.4,12.4L19.4,12.4L19.4,12.4z M17.3,12.3l0.1,0.2c0.1,0.5,0.1,1.1,0.6,1.4l0,0c-0.2-0.1-0.3-0.2-0.4-0.3
			c-0.4-0.3-1.1-0.4-1.3-1c0.1,0.4,0.3,0.8,0.7,1c0.4,0.4,1,0.3,1.4,0.5c-0.2-0.1-0.3-0.3-0.4-0.5C17.8,13.2,17.7,12.6,17.3,12.3
			L17.3,12.3z M22,12.2L22,12.2c-0.2,0.2,0.1,0.2,0.1,0.3c0,0.1-0.2,0.1-0.1,0.2c0,0,0,0,0,0.1l0.3-0.3c0,0-0.1,0-0.1,0
			C22.3,12.4,22.1,12.3,22,12.2L22,12.2z M24.1,12.2l-0.3,0.3c-0.4,0.5-0.3,1.2-0.8,1.6c0.3-0.1,0.5-0.1,0.8-0.2
			c0.6-0.1,1.2-0.7,1.3-1.3c-0.1,0.3-0.3,0.4-0.6,0.6c-0.4,0.2-0.8,0.4-1.1,0.7h0l0,0C24,13.5,23.8,12.7,24.1,12.2L24.1,12.2z
			 M19.7,11.8c-0.1,0.1-0.2,0.2-0.3,0.3h0c0.3,0.2,0.6,0.4,0.9,0.5c-0.1,0-0.2-0.1-0.2-0.2c0-0.1,0.1-0.1,0.1-0.2
			c0-0.1,0.1-0.1,0.2-0.1c0,0-0.1,0-0.1,0C20.1,12.1,19.9,12,19.7,11.8L19.7,11.8z M21.3,11.7C21.3,11.8,21.3,11.8,21.3,11.7
			c-0.1,0.1-0.2,0.1-0.2,0c0,0,0,0.1,0,0.1c0,0-0.1,0-0.1,0c0,0.1-0.1,0-0.1,0c0-0.1-0.1,0-0.1,0c0,0,0,0.1-0.1,0.1
			c0,0-0.1,0-0.1,0.1c0,0,0.1,0,0.1,0c0.1-0.1,0.1,0,0.2,0c0,0.1,0.1,0,0.2,0.1c0,0,0,0,0.1-0.1c0.1,0,0.2-0.1,0.3-0.2
			C21.4,11.8,21.4,11.8,21.3,11.7L21.3,11.7z M21.2,11.7c0-0.1,0.1,0,0.1-0.1C21.2,11.6,21.2,11.6,21.2,11.7L21.2,11.7z M20.2,11.3
			l-0.3,0.3c0.2,0.1,0.4,0.2,0.6,0.3c0-0.1,0-0.1,0-0.2c0,0,0.1,0,0.1,0c0,0,0,0,0-0.1c0,0,0-0.1,0-0.1c0,0,0-0.1,0-0.1
			c-0.1,0-0.2,0-0.3,0C20.3,11.4,20.2,11.4,20.2,11.3L20.2,11.3z M22.2,11.3c-0.1-0.1-0.1,0.1-0.2,0.1c0,0,0,0,0-0.1
			c0,0.1-0.1,0.1-0.1,0.2c-0.1,0-0.1,0.2-0.2,0.1c0,0.1,0.1,0,0.1,0c0,0,0,0,0-0.1c0-0.1,0.1-0.1,0.1-0.1c0,0,0,0.1,0,0.2
			c0,0,0,0.1,0,0.1c0,0.1,0,0.2-0.2,0.2c-0.1,0-0.3-0.1-0.4-0.1v0c0.1,0,0.2,0,0.3,0.1c0.1,0,0.2,0,0.3,0c0-0.1,0-0.1,0.1-0.2
			c0.1,0,0,0.1,0.1,0.1c0.2-0.2,0.3-0.4,0.4-0.7C22.3,11.3,22.3,11.4,22.2,11.3L22.2,11.3z M17,11.3c0,0.2,0,0.4-0.1,0.6
			c-0.1,0.4-0.1,0.8,0.2,1.1c-0.1,0-0.1-0.1-0.2-0.2c-0.3-0.5-0.9-0.8-1-1.4c0,0.2,0,0.4,0.1,0.6c0.2,0.7,0.9,1,1.4,1.4
			C17.1,12.8,17.3,12,17,11.3L17,11.3z M21.4,11.3c-0.1,0.1,0.1,0.1,0.1,0.2c0,0,0,0,0,0C21.5,11.4,21.5,11.4,21.4,11.3
			C21.4,11.4,21.4,11.3,21.4,11.3L21.4,11.3z M24.4,11.3c-0.3,0.6-0.1,1.5-0.4,2.1l0.1,0c0.7-0.4,1.6-1,1.4-2c0,0.1-0.1,0.2-0.1,0.4
			c-0.3,0.4-0.7,0.8-1,1.2c0,0,0,0,0,0l0-0.1C24.6,12.4,24.3,11.8,24.4,11.3L24.4,11.3z M20,11.2c0,0,0,0.1-0.1,0.1
			C20,11.3,20,11.2,20,11.2L20,11.2L20,11.2z M19.5,11.1L19.5,11.1c0.1,0.2,0.2,0.3,0.2,0.5l0.1-0.2c0,0,0,0,0-0.1c0,0,0-0.1,0-0.1
			c0,0,0,0.1,0,0.1c0,0-0.1,0-0.1-0.1c0-0.1,0,0-0.1-0.1C19.6,11.1,19.5,11.1,19.5,11.1L19.5,11.1z M18.2,10.9L18.2,10.9
			c0,0.2,0.1,0.5,0.1,0.7c0,0,0-0.1,0-0.1c0-0.1,0-0.2,0.1-0.3c0.1,0,0.1-0.1,0.2-0.1c0,0,0.1,0,0.1,0.1c-0.1-0.1-0.1-0.2,0-0.2
			C18.5,10.9,18.3,10.9,18.2,10.9L18.2,10.9z M17.5,10.9c0,0.8,0.3,1.5,0.9,2.1c0.1-0.1,0.2-0.3,0.4-0.4c-0.1,0-0.1-0.1-0.2-0.2
			c-0.1,0-0.1-0.1-0.1-0.2c0,0,0,0,0,0c-0.1,0-0.1-0.1-0.1-0.1c0,0,0-0.1-0.1-0.1c0-0.1-0.1-0.1-0.2-0.1l0,0.1
			c-0.1,0-0.1-0.1-0.1-0.1c-0.1,0-0.1-0.1-0.1-0.2c0-0.1,0-0.2,0.1-0.3c0,0,0.1,0,0.1,0c0.1,0,0,0,0.1-0.1c0.1-0.1,0.1,0,0.2,0.1
			C18,11.3,18,11.1,18,10.9C17.8,10.9,17.7,10.9,17.5,10.9L17.5,10.9z M18.8,10.9c0,0.1,0.1,0.2,0,0.4c0-0.1,0.1-0.1,0-0.2
			c0-0.1,0-0.2,0.1-0.2C18.9,10.9,18.9,10.9,18.8,10.9L18.8,10.9z M22.7,10.8c0,0.1,0,0.1,0,0.2c-0.1,0.1,0.1,0.1,0,0.2
			c0,0-0.1,0-0.1,0c-0.1,0.3-0.2,0.6-0.5,0.8h0c0.1,0,0.1,0.1,0.2,0.1v0c0,0,0,0,0,0c0.1,0,0.1,0.2,0.1,0.3c0.3-0.3,0.5-0.7,0.6-1.2
			c0-0.1,0-0.3,0.1-0.4C23,10.9,22.9,10.9,22.7,10.8L22.7,10.8z M23.3,10.8L23.3,10.8c0,0.7-0.3,1.3-0.7,1.7
			c0.1,0.1,0.3,0.2,0.4,0.4c0.4-0.5,0.7-1,0.8-1.6c0-0.2,0-0.3,0.1-0.5C23.7,10.9,23.5,10.9,23.3,10.8L23.3,10.8L23.3,10.8z
			 M22.2,10.8L22.2,10.8c0.1,0.2,0.2,0.2,0.2,0.4c0-0.1,0-0.2,0.1-0.3C22.4,10.9,22.3,10.9,22.2,10.8L22.2,10.8z M22.3,10.7
			L22.3,10.7L22.3,10.7L22.3,10.7z M19.2,10.6c-0.1,0,0,0.1,0,0.2c0,0.1-0.1,0-0.1,0C19.1,11,19,11,19,11c0,0.1,0.1,0.1,0,0.2
			c0.1,0.1,0.2,0.2,0.1,0.3c0.1,0.1,0,0.2,0.1,0.3c0,0.1,0.1,0.1,0.1,0.2c0,0,0,0.1-0.1,0.1c0,0,0,0,0,0.1l0.4-0.4
			c-0.1-0.2-0.3-0.4-0.3-0.6l-0.1,0c0,0.1,0,0.1-0.1,0.2c0,0-0.1,0-0.1-0.1c0,0,0,0,0.1,0c0,0,0-0.1,0-0.1c0,0,0-0.1,0-0.1
			c0,0,0.1,0,0.1,0.1l0.1,0c0-0.1,0-0.2,0-0.3C19.3,10.6,19.3,10.6,19.2,10.6L19.2,10.6z M20.5,10.2L20.5,10.2c0,0.1,0.1,0.1,0,0.2
			c-0.1,0.1-0.2,0.1-0.2,0.2c-0.1,0-0.1,0.2-0.1,0.3c-0.1,0-0.1-0.1-0.1-0.1l0,0c-0.1-0.1-0.1,0.1-0.2,0.1c0.1,0,0.2,0,0.3,0
			c0,0,0,0,0,0h0c0,0,0,0,0-0.1c0,0,0-0.1,0.1,0c0,0,0,0.1,0,0.1l-0.1,0.1c0,0,0,0.1-0.1,0.1c0,0,0,0,0,0h0l0,0.1c0,0,0-0.1,0.1-0.1
			c0.1,0,0.1-0.1,0.1-0.1c0.1-0.1,0.1,0,0.2,0c0,0,0.1,0,0.1,0.1c0,0.1,0,0.1-0.1,0.2c0,0,0,0.1,0,0.1c-0.1,0.1-0.1,0-0.2,0.1
			c0.1,0.1,0.2,0.1,0.3,0.1c0.1,0,0.1-0.1,0.2-0.2c0.1,0,0.1,0,0.2,0c0,0,0-0.1,0-0.2c-0.1,0,0-0.1,0-0.1c0,0,0-0.1-0.1-0.1
			c0,0,0-0.1,0-0.1c0.1,0-0.1-0.1,0-0.1c-0.1,0-0.1-0.2-0.3-0.1C20.6,10.3,20.6,10.3,20.5,10.2c0,0,0.1,0,0.1,0c0,0,0,0,0,0
			C20.6,10.2,20.6,10.2,20.5,10.2L20.5,10.2z M16.1,10c-0.2,0.4-0.2,0.9,0,1.3c0.1,0.4,0.5,0.7,0.7,1c0-0.1,0-0.3,0-0.5
			c0.1-0.5,0.3-1,0.3-1.6c-0.1,0.4-0.4,0.7-0.5,1.1c0,0.2,0,0.3,0,0.5c0-0.1-0.1-0.2-0.1-0.3C16.4,11,16,10.6,16.1,10L16.1,10z
			 M25.2,9.9c0.1,0.5-0.2,0.9-0.3,1.3c-0.1,0.2,0,0.4-0.1,0.5c0-0.1,0-0.2,0-0.3c0.1-0.6-0.4-0.9-0.5-1.4c0,0.1,0,0.3,0,0.4
			c0,0.6,0.4,1.1,0.3,1.7c0.1-0.1,0.2-0.3,0.3-0.4C25.4,11.3,25.5,10.5,25.2,9.9L25.2,9.9z M20.5,9.6c-0.3,0-0.5,0.1-0.7,0.3
			c0.1,0,0.1,0,0.2,0.1c0,0,0,0,0,0.1c0,0.1,0,0,0.1,0c0,0,0.1,0.1,0.1,0c0,0,0.1,0,0.1,0c0,0,0.1-0.1,0-0.1c0,0,0-0.1,0.1-0.1
			c0,0.1,0.1,0,0.2,0.1C20.5,9.8,20.6,9.7,20.5,9.6L20.5,9.6z M20.7,9.6l0,0.3l0.1,0c0-0.1,0.1-0.1,0.2-0.1c0,0,0,0,0.1,0
			c0,0.2-0.1,0.2-0.2,0.3h0c0.1-0.1,0.2,0.1,0.3,0c0-0.1,0.2-0.1,0.2-0.2c0,0,0,0-0.1,0c0,0,0.1-0.1,0.1-0.1
			C21.2,9.7,21,9.6,20.7,9.6L20.7,9.6z M19.3,9.5c-0.1,0.1-0.2,0.3-0.3,0.4c-0.1,0.2-0.2,0.5-0.2,0.7l0.2,0c0,0,0-0.1,0-0.1
			c0-0.1,0.1-0.3,0.2-0.3c0.1,0,0-0.1,0.1-0.1c0.1,0,0.1-0.1,0.2-0.2c0.1,0,0.1-0.1,0.2-0.1C19.5,9.8,19.4,9.6,19.3,9.5L19.3,9.5z
			 M22,9.5c-0.1,0.2-0.3,0.3-0.5,0.5c0,0,0,0,0,0c0,0,0-0.2,0.1-0.1c0.1,0,0.2,0,0.3,0c0.1,0,0.1,0.1,0.1,0.1c0,0,0,0.1,0,0.1
			c0,0,0,0,0,0c0,0,0.1-0.1,0.1-0.1c0.1,0,0.1,0.1,0.1,0.1c0,0,0,0.1,0,0.1c0,0.1-0.1,0.1,0,0.1c0,0,0.1,0,0.1,0
			c0.1-0.1,0-0.2,0-0.3c0-0.1-0.1-0.1-0.2-0.2c0,0,0-0.1,0-0.1C22.2,9.7,22.1,9.6,22,9.5L22,9.5z M18.8,9L18.8,9
			c-0.4,0.5-0.6,1-0.7,1.6c0.2,0,0.3,0,0.5,0l0,0c0-0.5,0.2-0.9,0.5-1.3C19,9.3,18.9,9.2,18.8,9L18.8,9z M20.7,8.9
			c0,0.1,0,0.3,0,0.5c0.3,0,0.6,0.1,0.8,0.3c0.1-0.1,0.2-0.3,0.4-0.3C21.6,9.1,21.2,8.9,20.7,8.9L20.7,8.9z M20.6,8.9L20.6,8.9
			c-0.4,0-0.8,0.2-1.1,0.5c0.1,0.1,0.2,0.2,0.4,0.3c0.2-0.2,0.5-0.3,0.8-0.3C20.5,9.3,20.5,9.1,20.6,8.9L20.6,8.9z M16.6,8.8
			c-0.2,0.2-0.3,0.5-0.4,0.8c-0.1,0.6,0.2,1,0.3,1.5c0.1-0.7,0.8-1.1,0.8-1.8c-0.2,0.4-0.7,0.6-0.8,1c0,0.1,0,0.1,0,0.2l0,0l0-0.3
			C16.6,9.8,16.3,9.2,16.6,8.8L16.6,8.8z M24.7,8.7c0.2,0.3,0.1,0.8,0.1,1.2c0,0.2,0,0.4,0,0.6c0-0.1,0-0.2-0.1-0.2
			c-0.1-0.4-0.6-0.6-0.8-1c0,0.1,0.1,0.2,0.1,0.4c0.2,0.5,0.7,0.8,0.8,1.4c0-0.5,0.4-0.9,0.3-1.5C25.1,9.2,24.9,8.9,24.7,8.7
			L24.7,8.7z M18.4,8.6L18.4,8.6c-0.6,0.5-0.8,1.3-0.9,2.1l0.5,0c0-0.2,0-0.3,0-0.5c0.1-0.5,0.3-0.9,0.7-1.3L18.4,8.6L18.4,8.6z
			 M23,8.6l-0.3,0.4l-0.1,0c0,0,0,0.1,0.1,0.1c0.1,0.1,0.2,0.2,0.3,0.3c0,0.1,0.2,0.2,0.2,0.3c0.2,0.3,0.2,0.7,0.3,1.1
			c0.2,0,0.3,0,0.5,0l0,0C23.8,9.8,23.5,9.1,23,8.6L23,8.6z M18.9,8.9c0.1,0.1,0.2,0.2,0.4,0.3c0.3-0.3,0.8-0.5,1.3-0.5
			c0-0.2,0-0.3,0-0.5C19.9,8.3,19.4,8.5,18.9,8.9L18.9,8.9z M22.2,8.2C22.1,8.3,22.2,8.3,22.2,8.2c0.1,0.1,0.1,0.2,0.2,0.1l0-0.1
			C22.3,8.2,22.2,8.3,22.2,8.2L22.2,8.2z M20.7,8.2c0,0.2,0,0.3,0,0.5c0.4,0,0.8,0.1,1.1,0.4c0,0-0.1-0.1-0.1-0.1h0
			c0-0.1-0.1-0.1,0-0.1c0.1,0,0.1,0.1,0.2,0.2c0.2,0,0.1,0.3,0.3,0.3c0,0,0,0.1,0,0.1c0.1,0,0.1,0.1,0.1,0.1c0,0.1,0.1,0,0.2,0
			c0,0,0,0.1,0,0.1c0,0,0.1,0,0.1,0c0,0,0,0.1,0,0.1c0,0.1,0.1,0,0.1,0.1c0,0.1,0.1,0.2,0,0.3c0.1,0.1,0,0.2,0,0.3
			c-0.1,0.1-0.1,0.2-0.2,0.2c0,0,0,0.1,0,0.1l0.2,0c-0.1-0.2,0-0.3,0.1-0.4c0,0,0.1-0.1,0.1,0c0,0.1,0,0.1,0,0.2c0,0.1,0,0.2,0,0.3
			l0.5,0c0-0.3-0.1-0.6-0.2-0.9c0,0-0.1,0-0.1,0c-0.1-0.1-0.1-0.2-0.2-0.2c-0.1,0-0.1,0-0.2-0.1c-0.1,0-0.1-0.2-0.2-0.1
			c-0.1,0-0.1-0.1-0.1-0.1c0-0.1,0-0.2-0.1-0.2c0,0-0.1,0-0.1,0C22,9.1,22,9,22,9c-0.1-0.1,0-0.1,0-0.2c-0.1-0.1,0-0.2-0.2-0.3
			c-0.2-0.1-0.4-0.2-0.7-0.2C21,8.3,20.8,8.3,20.7,8.2L20.7,8.2z M16.7,8.6c-0.3,0.4,0,0.9-0.1,1.3c0.1-0.2,0.3-0.4,0.4-0.5
			c0.4-0.2,0.7-0.6,0.7-1c-0.2,0.5-0.8,0.5-1,1.1h0c0.2-0.4,0.1-1,0.5-1.3C17.1,8.2,16.9,8.4,16.7,8.6L16.7,8.6z M24,8.1
			c0.3,0.2,0.3,0.6,0.4,0.9c0,0.1,0.1,0.3,0.1,0.4c-0.2-0.5-0.8-0.6-1-1.1l0.1,0.3c0.2,0.6,0.8,0.7,1.1,1.2c-0.1-0.4,0.1-0.7,0-1.1
			C24.6,8.5,24.3,8.2,24,8.1L24,8.1z M21.1,7.8l-0.2,0.1c0,0-0.1,0-0.1,0c0,0,0.1,0.1,0.1,0.1c0.1-0.1,0.3,0,0.4-0.1
			C21.3,7.9,21.2,7.9,21.1,7.8L21.1,7.8z M18.2,7.7c-0.3,0.1-0.6,0.2-0.8,0.5C17.2,8.5,17.1,8.7,17,9l0.3-0.2
			C17.7,8.5,17.8,8,18.2,7.7L18.2,7.7z M23.1,7.7l0.2,0.2c0.2,0.4,0.6,0.7,0.9,1c-0.1-0.1-0.1-0.3-0.2-0.5C23.9,8,23.5,7.8,23.1,7.7
			L23.1,7.7z M18.5,8.5l0.4,0.4c0.5-0.5,1.1-0.7,1.7-0.7c0-0.2,0-0.3,0-0.5C19.8,7.6,19.1,7.9,18.5,8.5L18.5,8.5z M20.7,7.6
			c0,0.1,0,0.3,0,0.4c0,0,0,0,0,0c0,0,0,0.1,0,0.1h0c0.2,0,0.4,0,0.6,0.1c0.2,0,0.4,0.3,0.6,0.1c0.1,0.1,0.2,0,0.2,0.1
			c0.1,0,0.1,0.1,0.2,0.2c0,0.1,0.1,0.1,0.1,0.2v0c0.1-0.1,0.2-0.2,0.3-0.3c-0.4-0.4-1-0.7-1.6-0.8C21.1,7.6,20.9,7.6,20.7,7.6
			L20.7,7.6z M23.6,9.2c0.6,1,0.5,2.6-0.3,3.6c-0.8,1.1-2.2,1.6-3.6,1.2c-1.3-0.3-2.3-1.5-2.4-2.8c-0.2-1.4,0.5-2.6,1.6-3.3
			c0.9-0.6,2.3-0.6,3.2-0.1C22.7,8,23.3,8.6,23.6,9.2L23.6,9.2z"/>
		<g>
			<path class="st20" d="M42.7,9.2h-0.4v1.6h0.3c0.3,0,0.5-0.1,0.6-0.2c0.1-0.1,0.2-0.3,0.2-0.6c0-0.2,0-0.4-0.1-0.6
				C43.1,9.2,43,9.2,42.7,9.2z"/>
			<path class="st20" d="M48,14.9l-0.2-1.2h-1.6l-0.2,1.2h-1.4l1.7-7.2h1.5l1.1,4.7c0-0.4,0.1-0.7,0.1-1.1C48.9,5.1,43.8,0,37.5,0
				c-5,0-9.2,3.2-10.8,7.7h0.7v4.4c0,0.4,0.1,0.7,0.2,0.9c0.1,0.2,0.3,0.3,0.6,0.3c0.2,0,0.4-0.1,0.6-0.3c0.1-0.2,0.2-0.5,0.2-0.9
				V7.7h1.4V12c0,0.4,0,0.8-0.1,1.2c-0.1,0.4-0.2,0.7-0.4,1c-0.2,0.3-0.4,0.5-0.6,0.6c-0.3,0.2-0.6,0.2-1,0.2c-0.2,0-0.5,0-0.7-0.1
				c-0.3,0-0.5-0.1-0.7-0.3c-0.2-0.1-0.3-0.4-0.5-0.6c0-0.1,0-0.1-0.1-0.2c1.1,5.1,5.7,8.9,11.1,8.9c5,0,9.3-3.3,10.8-7.8H48z
				 M35.7,14.9h-1.3l-1.7-4v4h-1.3V7.7h1.3l1.7,4v-4h1.3V14.9z M40.1,9.2h-2.1v1.3h1.8V12h-1.8v2.9h-1.4V7.7h3.5V9.2z M43.1,12.2
				h-0.8v2.7h-1.4V7.7h2.3c0.5,0,0.9,0.2,1.1,0.6c0.3,0.4,0.4,0.9,0.4,1.6c0,0.7-0.1,1.3-0.4,1.7C44.1,12,43.6,12.2,43.1,12.2z"/>
			<polygon class="st20" points="46.4,12.2 47.4,12.2 46.9,9.6 			"/>
			<path class="st21" d="M46.2,7.7l-1.7,7.2h1.4l0.2-1.2h1.6l0.2,1.2h0.4c0.3-0.8,0.4-1.6,0.5-2.5l-1.1-4.7H46.2z M46.4,12.2
				l0.5-2.6l0.5,2.6H46.4z"/>
			<path class="st21" d="M44.4,8.3c-0.3-0.4-0.6-0.6-1.1-0.6h-2.3v7.2h1.4v-2.7h0.8c0.6,0,1-0.2,1.3-0.6c0.3-0.4,0.4-1,0.4-1.7
				C44.7,9.2,44.6,8.7,44.4,8.3z M43.2,10.6c-0.1,0.1-0.3,0.2-0.6,0.2h-0.3V9.2h0.4c0.3,0,0.4,0.1,0.5,0.2c0.1,0.2,0.1,0.3,0.1,0.6
				C43.4,10.2,43.3,10.4,43.2,10.6z"/>
			<polygon class="st21" points="36.7,14.9 38.1,14.9 38.1,12 39.8,12 39.8,10.5 38.1,10.5 38.1,9.2 40.1,9.2 40.1,7.7 36.7,7.7 			
				"/>
			<polygon class="st21" points="34.4,11.7 32.7,7.7 31.4,7.7 31.4,14.9 32.7,14.9 32.7,11 34.4,14.9 35.7,14.9 35.7,7.7 34.4,7.7 
							"/>
			<path class="st21" d="M27,14.7c0.2,0.1,0.4,0.2,0.7,0.3c0.3,0.1,0.5,0.1,0.7,0.1c0.4,0,0.7-0.1,1-0.2c0.2-0.1,0.4-0.3,0.6-0.6
				c0.2-0.3,0.3-0.6,0.4-1c0.1-0.4,0.1-0.8,0.1-1.2V7.7H29v4.4c0,0.4-0.1,0.7-0.2,0.9c-0.1,0.2-0.3,0.3-0.6,0.3
				c-0.2,0-0.4-0.1-0.6-0.3c-0.1-0.2-0.2-0.5-0.2-0.9V7.7h-0.7c-0.4,1.2-0.6,2.4-0.6,3.7c0,0.9,0.1,1.7,0.3,2.5c0,0.1,0,0.1,0.1,0.2
				C26.7,14.3,26.8,14.5,27,14.7z"/>
		</g>
	</g>
</g>
</svg>
