<svg xmlns="http://www.w3.org/2000/svg" viewBox="0 0 862.44 272.76"><title>Asset 8</title><g id="Layer_2" data-name="Layer 2"><g id="Capa_1" data-name="Capa 1"><g id="adulto_mayor_hombre"><path d="M82.39,15.57l-7.28,1.82L71.92,3.27C71.47,1.45,70.56-.37,67.83.54L59.18,2.36a11,11,0,0,1-5.46,0L44.61.09c-1.82-.46-3.19.91-4.1,2.73L36,16.93l-7.28-1.82a2.08,2.08,0,0,0-1.82,2.28,2.08,2.08,0,0,0,1.82,2.27L34.6,21A26.91,26.91,0,0,0,32.32,31.5,23.74,23.74,0,0,0,46.43,53.35a20.47,20.47,0,0,0,9.11,1.82,16.73,16.73,0,0,0,8.19-1.82,23.37,23.37,0,0,0,15-21.85A27.08,27.08,0,0,0,76.48,21l5.91-1.37a2.09,2.09,0,0,0,1.83-2.27C83.76,16.48,83.3,15.57,82.39,15.57Z" style="fill:#216734"/><path d="M82.85,52.89H74.2a27.76,27.76,0,0,1-18.66,6.83,29.28,29.28,0,0,1-18.67-6.83H28.22A30.83,30.83,0,0,0,0,83.85v64.64c0,3.19,1.37,5.92,4.1,7.28a11.79,11.79,0,0,0,7.28,1.37c3.64-.46,6.83-4.55,6.83-8.65V93c0-2.27.45-5,4.55-5C25.49,88,26,90.68,26,92.5V259.56a13.2,13.2,0,0,0,26.4,0V163.51A3.48,3.48,0,0,1,56,159.87h0a3.48,3.48,0,0,1,3.64,3.64v96.05a13.21,13.21,0,0,0,26.41,0V93c0-1.82.45-4.55,3.18-4.55,3.64,0,4.55,2.73,4.55,5v55.53a9.11,9.11,0,1,0,18.21,0V84.3C111.07,67.46,98.78,54.26,82.85,52.89Z" style="fill:#216734"/></g><path d="M819.29,245c0-8,4.83-12.83,11.32-12.83,7.45,0,10.72,5.57,10.72,12.56,0,.6,0,1.33-.05,2H825.87c.32,4.09,2.76,6.07,6.4,6.07a14.67,14.67,0,0,0,8.32-2.9l.74,4.92a16.84,16.84,0,0,1-9.8,3C824.49,257.72,819.29,253.81,819.29,245ZM835,242.4c-.33-3.77-1.8-5.84-4.56-5.84-2.35,0-4.19,1.93-4.6,5.84Z" style="fill:#14486d"/><path d="M842.57,255.28l.83-5.48a18.12,18.12,0,0,0,9.11,2.9c2.43,0,3.63-.82,3.63-2.2s-.87-2-4.6-3c-6.07-1.57-8.6-3.27-8.6-7.87,0-4.42,3.4-7.46,9.29-7.46a22.46,22.46,0,0,1,8.83,1.8l-.87,5.43a18.09,18.09,0,0,0-8-2.26c-2.07,0-3,.74-3,1.94s.83,1.79,4.37,2.71c6.44,1.7,8.88,3.4,8.88,8,0,5-3.54,7.87-10,7.87A22.21,22.21,0,0,1,842.57,255.28Z" style="fill:#14486d"/><path d="M407.34,194.71,403,257.21H386.82l6.68-87.65h23.19L437.44,234l20.76-64.47h22.61l6.69,87.65H469.27l-4.38-62.5-20.64,62.73H428Z" style="fill:#de1f26"/><path d="M492.46,226.54c0-20.07,12.11-32.18,28.37-32.18,18.68,0,26.87,13.95,26.87,31.48,0,1.5,0,3.35-.12,5H509c.81,10.27,6.92,15.23,16,15.23,7.5,0,14.18-2.77,20.87-7.27l1.85,12.34a42.2,42.2,0,0,1-24.57,7.38C505.49,258.48,492.46,248.68,492.46,226.54Zm39.44-6.46c-.81-9.46-4.5-14.65-11.42-14.65-5.88,0-10.49,4.84-11.53,14.65Z" style="fill:#4c9b45"/><path d="M550.81,228.15c0-23.06,12.69-33.21,26.76-33.21a41.63,41.63,0,0,1,13.84,2.3V167.49h16.38v89.72H593.72l-1.39-8.3c-4.38,5-10.26,9.57-18.57,9.57C561,258.48,550.81,248.91,550.81,228.15Zm40.6,8V210.39a24.05,24.05,0,0,0-11-2.31c-7.61,0-13.14,6-13.14,19,0,11.53,4.72,16.84,11.18,16.84C583.57,244,587.6,240.84,591.41,236.11Z" style="fill:#03a5d4"/><path d="M613.67,226.54c0-20.07,12.11-32.18,28.37-32.18,18.68,0,26.87,13.95,26.87,31.48,0,1.5,0,3.35-.11,5H630.16c.81,10.27,6.92,15.23,16,15.23,7.5,0,14.19-2.77,20.88-7.27l1.84,12.34a42.19,42.19,0,0,1-24.56,7.38C626.7,258.48,613.67,248.68,613.67,226.54Zm39.44-6.46c-.81-9.46-4.5-14.65-11.42-14.65-5.88,0-10.49,4.84-11.53,14.65Z" style="fill:#ea6524"/><path d="M675.72,167.49h16.37v89.72H675.72Z" style="fill:#4c7838"/><path d="M702.36,167.49h16.37v89.72H702.36Z" style="fill:#4c7838"/><path d="M727.27,195.63h16.37v61.58H727.27Zm14.3-26.07H761.4v1L744,187.79H733.15Z" style="fill:#094c81"/><path d="M755,195.63H769l1.38,8.53c5.77-5.42,12.11-9.8,20.18-9.8,11.54,0,17.65,7,17.65,18.68v44.17H791.85V217.43c0-5.08-2.19-8.54-7.5-8.54-4.49,0-8.88,2.77-13,7v41.28H755Z" style="fill:#da1179"/><path d="M130.77,7.64H143V55.89h20v10.8H130.77Z" style="fill:#3fad49"/><path d="M164.49,46c0-13.45,8.39-21.68,19.66-21.68s19.74,8.16,19.74,21.6-8.4,21.6-19.82,21.6C172.81,67.55,164.49,59.47,164.49,46Zm28.67,0c0-7.39-3.26-12.67-9-12.67s-8.93,5.13-8.93,12.59,3.18,12.59,8.93,12.59S193.16,53.41,193.16,46Z" style="fill:#3fad49"/><path d="M205.83,63.43l1.4-9.25c4.66,3,10.49,4.9,15.38,4.9,4.12,0,6.14-1.4,6.14-3.73,0-2.49-1.47-3.42-7.77-5.05-10.25-2.64-14.53-5.52-14.53-13.29,0-7.46,5.75-12.58,15.7-12.58a37.78,37.78,0,0,1,14.92,3l-1.48,9.16a30.47,30.47,0,0,0-13.44-3.8c-3.5,0-5.13,1.24-5.13,3.26s1.4,3,7.38,4.58c10.88,2.88,15,5.75,15,13.52,0,8.47-6,13.29-16.86,13.29A37.48,37.48,0,0,1,205.83,63.43Z" style="fill:#3fad49"/><path d="M260.45,6.24h11V30.41c3.49-3.19,7.69-6.06,13.05-6.06,7.85,0,12,4.74,12,12.58V66.69h-11V39.89c0-3.42-1.47-5.75-5.12-5.75-3,0-6.07,1.86-8.86,4.74V66.69h-11Z" style="fill:#3fad49"/><path d="M300.24,46c0-13.45,8.39-21.68,19.66-21.68,11.42,0,19.73,8.16,19.73,21.6s-8.39,21.6-19.81,21.6C308.55,67.55,300.24,59.47,300.24,46Zm28.67,0c0-7.39-3.26-12.67-9-12.67S311,38.49,311,46s3.19,12.59,8.94,12.59S328.91,53.41,328.91,46Z" style="fill:#3fad49"/><path d="M343.6,25.2h9.47L354,31c3.88-3.73,7.92-6.6,13.52-6.6,5.75,0,8.93,2.72,10.49,6.68,3.73-3.73,8.15-6.68,13.59-6.68,7.77,0,11.74,4.74,11.74,12.58V66.69h-11V39.89c0-3.42-1.24-5.75-4.74-5.75-2.95,0-5.82,1.86-8.54,4.74V66.69H368V39.89c0-3.42-1.32-5.75-4.81-5.75-3,0-5.75,1.86-8.55,4.74V66.69h-11Z" style="fill:#3fad49"/><path d="M409.25,64.36V6.24h11V29.79c2.72-2.72,6.45-5.44,11.58-5.44,8.7,0,15.46,6.45,15.46,20.51,0,15.23-8.32,22.38-20.83,22.38A51.34,51.34,0,0,1,409.25,64.36Zm27-18.88c0-7.77-3.18-11.34-7.46-11.34-3.26,0-6.06,2.1-8.54,5v18.1a15.82,15.82,0,0,0,6,1C432.33,58.22,436.29,54.57,436.29,45.48Z" style="fill:#3fad49"/><path d="M451.37,25.2h9.48l1.32,8.32c2.64-4.82,6.6-8.86,13-9.17l1.79,11a19.43,19.43,0,0,0-14.53,7.69V66.69h-11Z" style="fill:#3fad49"/><path d="M477,46c0-13.52,8.16-21.68,19.11-21.68,12.59,0,18.11,9.4,18.11,21.21,0,1,0,2.25-.08,3.34h-26c.55,6.92,4.66,10.26,10.8,10.26,5.05,0,9.56-1.87,14.07-4.9l1.24,8.32a28.49,28.49,0,0,1-16.55,5C485.79,67.55,477,60.94,477,46Zm26.57-4.35c-.54-6.38-3-9.87-7.69-9.87-4,0-7.07,3.26-7.77,9.87Z" style="fill:#3fad49"/><path d="M516.33,63.43l1.4-9.25c4.66,3,10.49,4.9,15.38,4.9,4.12,0,6.14-1.4,6.14-3.73,0-2.49-1.48-3.42-7.77-5.05C521.22,47.66,517,44.78,517,37c0-7.46,5.75-12.58,15.7-12.58a37.73,37.73,0,0,1,14.91,3l-1.47,9.16a30.47,30.47,0,0,0-13.44-3.8c-3.5,0-5.13,1.24-5.13,3.26s1.4,3,7.38,4.58c10.88,2.88,15,5.75,15,13.52,0,8.47-6,13.29-16.86,13.29A37.47,37.47,0,0,1,516.33,63.43Z" style="fill:#3fad49"/><path d="M127.58,122.87c0-9.94,8-14.37,24.64-16v-1.09c0-4.27-2.49-5.9-6.92-5.9a34.28,34.28,0,0,0-13.75,3.34l-1.32-8.63a41.06,41.06,0,0,1,16.62-3.34c11,0,16.4,3.89,16.4,14v28.28h-9.64l-.85-5.28c-3.42,3.41-7.54,6.13-13.52,6.13C132.25,134.37,127.58,130.26,127.58,122.87Zm24.64-.77V113c-11.12,1.39-13.76,4.66-13.76,8.54,0,3,1.87,4.67,4.82,4.67C146.47,126.22,149.5,124.66,152.22,122.1Z" style="fill:#3fad49"/><path d="M167.06,113.94c0-15.54,8.55-22.38,18-22.38a28,28,0,0,1,9.33,1.56V73.07h11v60.45H196l-.93-5.6c-2.95,3.34-6.92,6.45-12.51,6.45C173.9,134.37,167.06,127.92,167.06,113.94Zm27.35,5.36V102a16.21,16.21,0,0,0-7.38-1.55c-5.13,0-8.86,4-8.86,12.82,0,7.77,3.18,11.34,7.54,11.34C189.12,124.58,191.84,122.49,194.41,119.3Z" style="fill:#3fad49"/><path d="M211.35,121.79V92h11v26.8c0,3.42,1.48,5.75,5,5.75,3,0,6-1.86,8.78-4.74V92h11v41.49h-9.48l-.93-5.75c-3.81,3.65-8.16,6.6-13.6,6.6C215.39,134.37,211.35,129.63,211.35,121.79Z" style="fill:#3fad49"/><path d="M253.7,73.07h11v60.45h-11Z" style="fill:#3fad49"/><path d="M273.35,121.32V101h-5.74V92h5.74V78.43h11V92h8.93v9h-8.93v18.49c0,3.34,1.55,5.13,5.36,5.13a18.08,18.08,0,0,0,3.81-.39v9.33a22.74,22.74,0,0,1-6,.62C279.1,134.22,273.35,131.11,273.35,121.32Z" style="fill:#3fad49"/><path d="M295.42,112.85c0-13.44,8.39-21.68,19.66-21.68,11.42,0,19.73,8.16,19.73,21.6s-8.39,21.6-19.81,21.6C303.74,134.37,295.42,126.29,295.42,112.85Zm28.67,0c0-7.38-3.26-12.66-9-12.66s-8.94,5.12-8.94,12.58,3.19,12.59,8.94,12.59S324.09,120.23,324.09,112.85Z" style="fill:#3fad49"/><path d="M336.76,130.26l1.4-9.25c4.66,2.95,10.49,4.89,15.38,4.89,4.12,0,6.14-1.39,6.14-3.72,0-2.49-1.48-3.42-7.77-5.06-10.26-2.64-14.53-5.51-14.53-13.28,0-7.46,5.75-12.59,15.7-12.59a37.9,37.9,0,0,1,14.91,3l-1.47,9.17a30.49,30.49,0,0,0-13.44-3.81c-3.5,0-5.13,1.25-5.13,3.27s1.4,3,7.38,4.58c10.88,2.87,15,5.75,15,13.52,0,8.47-6,13.29-16.86,13.29A37.6,37.6,0,0,1,336.76,130.26Z" style="fill:#3fad49"/><path d="M391.38,92h9.48l.93,5.75c3.89-3.73,7.93-6.61,13.52-6.61,5.75,0,8.94,2.72,10.49,6.69,3.73-3.73,8.16-6.69,13.6-6.69,7.77,0,11.73,4.74,11.73,12.59v29.76h-11V106.71c0-3.42-1.24-5.75-4.74-5.75-2.95,0-5.83,1.87-8.55,4.74v27.82h-11V106.71c0-3.42-1.32-5.75-4.82-5.75-2.95,0-5.75,1.87-8.54,4.74v27.82h-11Z" style="fill:#3fad49"/><path d="M454.87,122.87c0-9.94,8-14.37,24.63-16v-1.09c0-4.27-2.49-5.9-6.92-5.9a34.28,34.28,0,0,0-13.75,3.34l-1.32-8.63a41.08,41.08,0,0,1,16.63-3.34c10.95,0,16.39,3.89,16.39,14v28.28h-9.64l-.85-5.28c-3.42,3.41-7.54,6.13-13.52,6.13C459.53,134.37,454.87,130.26,454.87,122.87Zm24.63-.77V113c-11.11,1.39-13.76,4.66-13.76,8.54,0,3,1.87,4.67,4.82,4.67C473.75,126.22,476.78,124.66,479.5,122.1Z" style="fill:#3fad49"/><path d="M496.75,148.67l-1.48-9a16.66,16.66,0,0,0,4.9.62,6.75,6.75,0,0,0,6.68-4.35l.85-2.26L492.32,92h12.12l9,28,8.78-28h10.88l-15.46,43.35c-3.73,10.34-8.55,13.68-16.86,13.68A16.35,16.35,0,0,1,496.75,148.67Z" style="fill:#3fad49"/><path d="M533.19,112.85c0-13.44,8.39-21.68,19.66-21.68s19.73,8.16,19.73,21.6-8.39,21.6-19.81,21.6C541.51,134.37,533.19,126.29,533.19,112.85Zm28.67,0c0-7.38-3.26-12.66-9-12.66s-8.94,5.12-8.94,12.58,3.19,12.59,8.94,12.59S561.86,120.23,561.86,112.85Z" style="fill:#3fad49"/><path d="M576.55,92H586l1.32,8.31c2.64-4.82,6.6-8.86,13-9.17l1.79,11a19.4,19.4,0,0,0-14.53,7.69v23.62h-11Z" style="fill:#3fad49"/><path d="M602.19,112.85c0-13.52,8.16-21.68,19.11-21.68,12.59,0,18.11,9.4,18.11,21.22,0,1,0,2.25-.08,3.34h-26c.55,6.91,4.66,10.25,10.8,10.25,5,0,9.56-1.86,14.07-4.89l1.24,8.31a28.42,28.42,0,0,1-16.55,5C611,134.37,602.19,127.77,602.19,112.85Zm26.57-4.35c-.54-6.37-3-9.87-7.69-9.87-4,0-7.07,3.27-7.77,9.87Z" style="fill:#3fad49"/><path d="M641.51,130.26l1.4-9.25c4.66,2.95,10.49,4.89,15.38,4.89,4.12,0,6.14-1.39,6.14-3.72,0-2.49-1.48-3.42-7.77-5.06-10.26-2.64-14.53-5.51-14.53-13.28,0-7.46,5.75-12.59,15.7-12.59a37.9,37.9,0,0,1,14.91,3l-1.47,9.17a30.49,30.49,0,0,0-13.44-3.81c-3.5,0-5.13,1.25-5.13,3.27s1.4,3,7.38,4.58c10.88,2.87,15,5.75,15,13.52,0,8.47-6,13.29-16.86,13.29A37.6,37.6,0,0,1,641.51,130.26Z" style="fill:#3fad49"/><path d="M136.47,152.44h5.61l.56,3.31c1.74-2,4.09-3.82,7.4-3.82,5.11,0,9.16,3.82,9.16,12.15,0,9.15-5.06,13.2-10.68,13.2a16.56,16.56,0,0,1-5.52-.92v9.43h-6.53Zm16.19,12c0-4.6-1.93-6.71-4.46-6.71-2.07,0-3.68,1.24-5.2,3.13v10.25a9.58,9.58,0,0,0,4.37.92C150.41,172,152.66,169.64,152.66,164.44Z" style="fill:#14486d"/><path d="M161.36,144.85a3.77,3.77,0,0,1,7.54,0,3.77,3.77,0,0,1-7.54,0Zm.5,7.59h6.54V177h-6.54Z" style="fill:#14486d"/><path d="M171,164.77c0-8,4.83-12.84,11.32-12.84,7.45,0,10.72,5.57,10.72,12.56,0,.6,0,1.33,0,2H177.55c.32,4.09,2.76,6.07,6.39,6.07a14.7,14.7,0,0,0,8.33-2.9l.74,4.92a16.76,16.76,0,0,1-9.8,2.95C176.17,177.51,171,173.6,171,164.77Zm15.73-2.58c-.32-3.77-1.79-5.84-4.55-5.84-2.35,0-4.19,1.93-4.6,5.84Z" style="fill:#14486d"/><path d="M195.44,152.44h5.61l.56,3.4c2.3-2.16,4.83-3.91,8-3.91,4.6,0,7,2.81,7,7.45V177h-6.54V161.13c0-2-.87-3.4-3-3.4-1.79,0-3.54,1.1-5.2,2.8V177h-6.53Z" style="fill:#14486d"/><path d="M219,175.07l.83-5.47a18.1,18.1,0,0,0,9.1,2.89c2.44,0,3.64-.82,3.64-2.2s-.88-2-4.6-3c-6.07-1.57-8.6-3.27-8.6-7.87,0-4.42,3.4-7.45,9.29-7.45a22.46,22.46,0,0,1,8.83,1.79l-.87,5.43a18.09,18.09,0,0,0-8-2.26c-2.07,0-3,.74-3,1.94s.83,1.79,4.37,2.71c6.44,1.7,8.88,3.41,8.88,8,0,5-3.54,7.86-10,7.86A22.21,22.21,0,0,1,219,175.07Z" style="fill:#14486d"/><path d="M239.78,170.7c0-5.89,4.74-8.51,14.59-9.48v-.64c0-2.53-1.47-3.5-4.1-3.5a20.38,20.38,0,0,0-8.14,2l-.78-5.11a24.44,24.44,0,0,1,9.84-2c6.49,0,9.71,2.3,9.71,8.28V177h-5.7l-.51-3.12a10.87,10.87,0,0,1-8,3.63C242.55,177.51,239.78,175.07,239.78,170.7Zm14.59-.46v-5.38c-6.58.83-8.14,2.76-8.14,5.06a2.58,2.58,0,0,0,2.85,2.76A7.84,7.84,0,0,0,254.37,170.24Z" style="fill:#14486d"/><path d="M264.35,152.44H270l.55,3.4c2.3-2.16,4.83-3.91,8.06-3.91,4.6,0,7,2.81,7,7.45V177h-6.53V161.13c0-2-.87-3.4-3-3.4-1.79,0-3.54,1.1-5.2,2.8V177h-6.53Z" style="fill:#14486d"/><path d="M314.08,174.29a9.48,9.48,0,0,1-6.86,3.22c-5.11,0-9.15-3.82-9.15-12.1,0-9.06,4.92-13.3,12.33-13.3a30.19,30.19,0,0,1,10.21,1.71v32h-6.53Zm0-5.52V158.05a9.15,9.15,0,0,0-3.55-.6c-3.58,0-5.89,2.16-5.89,7.55,0,4.6,1.84,6.71,4.42,6.71C311,171.71,312.6,170.47,314.08,168.77Z" style="fill:#14486d"/><path d="M324.1,170.06V152.44h6.53v15.87c0,2,.88,3.4,2.95,3.4,1.79,0,3.54-1.1,5.2-2.8V152.44h6.53V177H339.7l-.55-3.4c-2.26,2.16-4.84,3.91-8.06,3.91C326.49,177.51,324.1,174.7,324.1,170.06Z" style="fill:#14486d"/><path d="M347.65,164.77c0-8,4.83-12.84,11.32-12.84,7.45,0,10.72,5.57,10.72,12.56,0,.6,0,1.33-.05,2H354.23c.32,4.09,2.76,6.07,6.4,6.07a14.64,14.64,0,0,0,8.32-2.9l.74,4.92a16.76,16.76,0,0,1-9.8,2.95C352.85,177.51,347.65,173.6,347.65,164.77Zm15.74-2.58c-.32-3.77-1.8-5.84-4.56-5.84-2.34,0-4.18,1.93-4.6,5.84Z" style="fill:#14486d"/><path d="M159.52,205.77c0-8,4.83-12.84,11.31-12.84,7.46,0,10.72,5.57,10.72,12.56,0,.6,0,1.33,0,2H166.1c.32,4.09,2.76,6.07,6.39,6.07a14.7,14.7,0,0,0,8.33-2.9l.73,4.92a16.74,16.74,0,0,1-9.8,2.95C164.72,218.51,159.52,214.6,159.52,205.77Zm15.73-2.58c-.32-3.77-1.79-5.84-4.55-5.84-2.35,0-4.19,1.93-4.6,5.84Z" style="fill:#14486d"/><path d="M184.26,182.21h6.54V218h-6.54Z" style="fill:#14486d"/><path d="M204.83,193.44h5.61l.55,3.31c1.75-2,4.1-3.82,7.41-3.82,5.1,0,9.15,3.82,9.15,12.15,0,9.15-5.06,13.2-10.67,13.2a16.52,16.52,0,0,1-5.52-.92v9.43h-6.53Zm16.19,12c0-4.6-1.93-6.71-4.46-6.71-2.07,0-3.68,1.24-5.2,3.13v10.25a9.58,9.58,0,0,0,4.37.92C218.77,213,221,210.64,221,205.44Z" style="fill:#14486d"/><path d="M229.94,193.44h5.61l.79,4.92c1.56-2.85,3.91-5.25,7.68-5.43l1.06,6.53a11.5,11.5,0,0,0-8.61,4.56v14h-6.53Z" style="fill:#14486d"/><path d="M246.13,185.85a3.78,3.78,0,1,1,3.78,3.63A3.58,3.58,0,0,1,246.13,185.85Zm.51,7.59h6.53V218h-6.53Z" style="fill:#14486d"/><path d="M257,193.44h5.61l.55,3.4c2.3-2.16,4.83-3.91,8.05-3.91,4.6,0,7,2.81,7,7.45V218h-6.53V202.13c0-2-.87-3.4-3-3.4-1.79,0-3.54,1.1-5.2,2.8V218H257Z" style="fill:#14486d"/><path d="M280.45,205.86c0-8.6,5.38-12.88,12-12.88a14,14,0,0,1,7.54,2l-.92,5.85a9.77,9.77,0,0,0-6.21-2.21c-3.36,0-5.84,2.44-5.84,7.13s2.67,7.13,6.21,7.13a9.73,9.73,0,0,0,6.16-2.21l.83,5.48a13.7,13.7,0,0,1-8.05,2.34C285.28,218.46,280.45,213.86,280.45,205.86Z" style="fill:#14486d"/><path d="M302.25,185.85a3.78,3.78,0,1,1,3.77,3.63A3.58,3.58,0,0,1,302.25,185.85Zm.51,7.59h6.53V218h-6.53Z" style="fill:#14486d"/><path d="M313.11,193.44h5.61l.55,3.31c1.75-2,4.1-3.82,7.41-3.82,5.11,0,9.15,3.82,9.15,12.15,0,9.15-5.06,13.2-10.67,13.2a16.52,16.52,0,0,1-5.52-.92v9.43h-6.53Zm16.19,12c0-4.6-1.93-6.71-4.46-6.71-2.07,0-3.68,1.24-5.2,3.13v10.25A9.58,9.58,0,0,0,324,213C327.05,213,329.3,210.64,329.3,205.44Z" style="fill:#14486d"/><path d="M336.94,211.7c0-5.89,4.73-8.51,14.58-9.48v-.64c0-2.53-1.47-3.5-4.1-3.5a20.38,20.38,0,0,0-8.14,2L338.5,195a24.44,24.44,0,0,1,9.84-2c6.49,0,9.71,2.3,9.71,8.28V218h-5.7l-.51-3.12a10.87,10.87,0,0,1-8,3.63C339.7,218.51,336.94,216.07,336.94,211.7Zm14.58-.46v-5.38c-6.58.83-8.14,2.76-8.14,5.06a2.58,2.58,0,0,0,2.85,2.76A7.84,7.84,0,0,0,351.52,211.24Z" style="fill:#14486d"/><path d="M361.78,182.21h6.53V218h-6.53Z" style="fill:#14486d"/><path d="M126.67,234.44h5.62l.55,3.31c1.75-2,4.09-3.82,7.4-3.82,5.11,0,9.16,3.82,9.16,12.15,0,9.15-5.06,13.2-10.67,13.2a16.47,16.47,0,0,1-5.52-.92v9.43h-6.54Zm16.2,12c0-4.6-1.94-6.71-4.47-6.71-2.07,0-3.68,1.24-5.19,3.13v10.25a9.55,9.55,0,0,0,4.37.92C140.61,254,142.87,251.64,142.87,246.44Z" style="fill:#14486d"/><path d="M151.79,234.44h5.61l.78,4.92c1.57-2.85,3.91-5.25,7.69-5.43l1,6.53a11.49,11.49,0,0,0-8.6,4.56v14h-6.53Z" style="fill:#14486d"/><path d="M167,246.77c0-8,5-12.84,11.64-12.84s11.68,4.83,11.68,12.79-5,12.79-11.73,12.79S167,254.72,167,246.77Zm17,0c0-4.37-1.93-7.5-5.33-7.5s-5.29,3-5.29,7.45,1.88,7.45,5.29,7.45S183.94,251.14,183.94,246.77Z" style="fill:#14486d"/><path d="M192.64,257.62V223.21h6.53v13.94a9.62,9.62,0,0,1,6.85-3.22c5.16,0,9.16,3.82,9.16,12.15,0,9-4.92,13.25-12.33,13.25A30.37,30.37,0,0,1,192.64,257.62Zm16-11.18c0-4.6-1.89-6.71-4.42-6.71-1.93,0-3.59,1.24-5.06,2.94v10.72a9.41,9.41,0,0,0,3.54.6C206.3,254,208.65,251.83,208.65,246.44Z" style="fill:#14486d"/><path d="M217.84,223.21h6.54V259h-6.54Z" style="fill:#14486d"/><path d="M227,246.77c0-8,4.83-12.84,11.32-12.84,7.45,0,10.72,5.57,10.72,12.56,0,.6,0,1.33-.05,2H233.53c.32,4.09,2.76,6.07,6.39,6.07a14.7,14.7,0,0,0,8.33-2.9l.74,4.92a16.76,16.76,0,0,1-9.8,2.95C232.15,259.51,227,255.6,227,246.77Zm15.73-2.58c-.32-3.77-1.79-5.84-4.55-5.84-2.35,0-4.19,1.93-4.6,5.84Z" style="fill:#14486d"/><path d="M251.42,234.44H257l.55,3.4c2.3-2.21,4.69-3.91,8-3.91s5.29,1.61,6.21,4c2.21-2.21,4.83-4,8.05-4,4.6,0,6.95,2.81,6.95,7.45V259h-6.53V243.13c0-2-.74-3.4-2.81-3.4-1.75,0-3.45,1.1-5.06,2.8V259h-6.53V243.13c0-2-.78-3.4-2.85-3.4-1.75,0-3.41,1.1-5.06,2.8V259h-6.54Z" style="fill:#14486d"/><path d="M289,252.7c0-5.89,4.74-8.51,14.59-9.48v-.64c0-2.53-1.47-3.5-4.1-3.5a20.38,20.38,0,0,0-8.14,2l-.78-5.11a24.44,24.44,0,0,1,9.84-2c6.49,0,9.71,2.3,9.71,8.28V259h-5.7l-.51-3.12a10.87,10.87,0,0,1-8,3.63C291.76,259.51,289,257.07,289,252.7Zm14.59-.46v-5.38c-6.58.83-8.15,2.76-8.15,5.06a2.59,2.59,0,0,0,2.86,2.76A7.84,7.84,0,0,0,303.59,252.24Z" style="fill:#14486d"/><path d="M322.58,247.41c0-9.2,5.06-13.25,10.68-13.25a16.56,16.56,0,0,1,5.52.92V223.21h6.53V259H339.7l-.55-3.31c-1.75,2-4.1,3.82-7.41,3.82C326.63,259.51,322.58,255.69,322.58,247.41Zm16.2,3.17V240.33a9.57,9.57,0,0,0-4.37-.93c-3,0-5.25,2.4-5.25,7.6,0,4.6,1.89,6.71,4.46,6.71C335.65,253.71,337.26,252.47,338.78,250.58Z" style="fill:#14486d"/><path d="M347.65,246.77c0-8,4.83-12.84,11.32-12.84,7.45,0,10.72,5.57,10.72,12.56,0,.6,0,1.33-.05,2H354.23c.32,4.09,2.76,6.07,6.4,6.07a14.64,14.64,0,0,0,8.32-2.9l.74,4.92a16.76,16.76,0,0,1-9.8,2.95C352.85,259.51,347.65,255.6,347.65,246.77Zm15.74-2.58c-.32-3.77-1.8-5.84-4.56-5.84-2.34,0-4.18,1.93-4.6,5.84Z" style="fill:#14486d"/></g></g></svg>