<svg xmlns="http://www.w3.org/2000/svg" viewBox="0 0 596.2 231.27"><title>Asset 4</title><g id="Layer_2" data-name="Layer 2"><g id="Capa_1" data-name="Capa 1"><path d="M90.2,79.65c0-7.18,4.34-11.51,10.16-11.51,6.68,0,9.61,5,9.61,11.26,0,.54,0,1.2,0,1.78H96.1c.29,3.67,2.48,5.45,5.74,5.45a13.2,13.2,0,0,0,7.47-2.6l.66,4.41a15,15,0,0,1-8.79,2.65C94.87,91.09,90.2,87.58,90.2,79.65Zm14.12-2.31c-.29-3.38-1.61-5.24-4.09-5.24-2.1,0-3.75,1.73-4.13,5.24Z" style="fill:#374a63"/><path d="M112.16,68.59h5l.5,3.06c2.06-2,4.33-3.51,7.22-3.51,4.13,0,6.32,2.51,6.32,6.68V90.63h-5.87V76.39c0-1.81-.78-3-2.68-3-1.61,0-3.18,1-4.66,2.52V90.63h-5.86Z" style="fill:#374a63"/><path d="M135.47,84.15V73.38h-3.05V68.59h3.05V61.37h5.82v7.22H146v4.79h-4.75V83.2c0,1.78.83,2.73,2.85,2.73a10,10,0,0,0,2-.21v5A11.78,11.78,0,0,1,143,91C138.53,91,135.47,89.35,135.47,84.15Z" style="fill:#374a63"/><path d="M148.31,68.59h5l.71,4.42c1.4-2.56,3.5-4.71,6.89-4.87l.95,5.86a10.3,10.3,0,0,0-7.72,4.08V90.63h-5.86Z" style="fill:#374a63"/><path d="M161.93,79.65c0-7.18,4.33-11.51,10.15-11.51,6.69,0,9.62,5,9.62,11.26,0,.54,0,1.2,0,1.78H167.83c.29,3.67,2.48,5.45,5.74,5.45A13.23,13.23,0,0,0,181,84l.66,4.41a15.06,15.06,0,0,1-8.79,2.65C166.59,91.09,161.93,87.58,161.93,79.65ZM176,77.34c-.29-3.38-1.61-5.24-4.08-5.24-2.11,0-3.76,1.73-4.13,5.24Z" style="fill:#374a63"/><path d="M327.53,186.23l-2.84,40.43H314.25l4.33-56.7h15L347,211.67,360.43,170h14.62l4.33,56.7H367.59l-2.84-40.43L351.4,226.81H340.88Z" style="fill:#de1f26"/><path d="M382.58,206.82c0-13,7.84-20.82,18.35-20.82,12.09,0,17.39,9,17.39,20.37,0,1,0,2.16-.08,3.21h-25c.52,6.64,4.48,9.84,10.37,9.84,4.85,0,9.18-1.79,13.5-4.7l1.2,8a27.32,27.32,0,0,1-15.89,4.77C391,227.48,382.58,221.14,382.58,206.82Zm25.52-4.18c-.53-6.12-2.91-9.47-7.39-9.47-3.8,0-6.79,3.13-7.46,9.47Z" style="fill:#4c9b45"/><path d="M420.33,207.86c0-14.92,8.21-21.48,17.31-21.48a27,27,0,0,1,8.95,1.49V168.62h10.59v58h-9.1l-.89-5.37c-2.84,3.21-6.64,6.19-12,6.19C426.9,227.48,420.33,221.29,420.33,207.86ZM446.59,213V196.37a15.56,15.56,0,0,0-7.09-1.49c-4.92,0-8.5,3.88-8.5,12.31,0,7.46,3.06,10.89,7.24,10.89C441.52,218.08,444.13,216.07,446.59,213Z" style="fill:#03a5d4"/><path d="M461,206.82c0-13,7.83-20.82,18.35-20.82,12.09,0,17.38,9,17.38,20.37,0,1,0,2.16-.07,3.21h-25c.52,6.64,4.47,9.84,10.37,9.84,4.85,0,9.17-1.79,13.5-4.7l1.19,8a27.29,27.29,0,0,1-15.89,4.77C469.42,227.48,461,221.14,461,206.82Zm25.51-4.18c-.52-6.12-2.91-9.47-7.38-9.47-3.81,0-6.79,3.13-7.46,9.47Z" style="fill:#ea6524"/><path d="M501.12,168.62h10.6v58h-10.6Z" style="fill:#4c7838"/><path d="M518.36,168.62H529v58H518.36Z" style="fill:#4c7838"/><path d="M534.47,186.82h10.59v39.84H534.47ZM543.72,170h12.83v.68l-11.26,11.11h-7Z" style="fill:#094c81"/><path d="M552.37,186.82h9.1l.9,5.52c3.73-3.5,7.83-6.34,13.06-6.34,7.46,0,11.41,4.55,11.41,12.09v28.57H576.25V200.92c0-3.28-1.42-5.52-4.85-5.52-2.91,0-5.75,1.79-8.43,4.55v26.71h-10.6Z" style="fill:#da1179"/><path d="M88.23,3.91h9.11v36h14.9V48h-24Z" style="fill:#3fad49"/><path d="M113.4,32.56c0-10,6.26-16.18,14.67-16.18s14.72,6.09,14.72,16.12S136.53,48.62,128,48.62,113.4,42.59,113.4,32.56Zm21.39,0c0-5.51-2.43-9.45-6.72-9.45s-6.67,3.82-6.67,9.39,2.38,9.39,6.67,9.39S134.79,38.07,134.79,32.56Z" style="fill:#3fad49"/><path d="M144.24,45.55l1-6.9a22.87,22.87,0,0,0,11.48,3.65c3.07,0,4.58-1,4.58-2.78s-1.1-2.55-5.8-3.77c-7.65-2-10.84-4.12-10.84-9.92,0-5.56,4.29-9.39,11.71-9.39a28.25,28.25,0,0,1,11.13,2.26l-1.1,6.84a22.76,22.76,0,0,0-10-2.84c-2.61,0-3.83.93-3.83,2.44s1,2.26,5.51,3.42c8.12,2.14,11.19,4.29,11.19,10.09,0,6.32-4.46,9.91-12.58,9.91A28.08,28.08,0,0,1,144.24,45.55Z" style="fill:#3fad49"/><path d="M185,2.87h8.24v18c2.6-2.37,5.74-4.52,9.74-4.52,5.85,0,8.93,3.54,8.93,9.39V48h-8.24V28c0-2.55-1.1-4.29-3.82-4.29-2.27,0-4.53,1.39-6.61,3.53V48H185Z" style="fill:#3fad49"/><path d="M214.69,32.56c0-10,6.26-16.18,14.67-16.18s14.73,6.09,14.73,16.12-6.27,16.12-14.79,16.12S214.69,42.59,214.69,32.56Zm21.39,0c0-5.51-2.43-9.45-6.72-9.45s-6.67,3.82-6.67,9.39,2.38,9.39,6.67,9.39S236.08,38.07,236.08,32.56Z" style="fill:#3fad49"/><path d="M247,17h7.07l.7,4.29c2.9-2.78,5.92-4.93,10.09-4.93s6.67,2,7.83,5c2.78-2.79,6.09-5,10.14-5,5.8,0,8.76,3.54,8.76,9.39V48H283.4V28c0-2.55-.93-4.29-3.54-4.29-2.2,0-4.35,1.39-6.38,3.53V48h-8.23V28c0-2.55-1-4.29-3.6-4.29-2.2,0-4.29,1.39-6.38,3.53V48H247Z" style="fill:#3fad49"/><path d="M296,46.24V2.87h8.24V20.44c2-2,4.81-4.06,8.64-4.06,6.49,0,11.54,4.81,11.54,15.31,0,11.36-6.21,16.7-15.54,16.7A38.23,38.23,0,0,1,296,46.24Zm20.18-14.09c0-5.8-2.37-8.46-5.56-8.46-2.44,0-4.53,1.56-6.38,3.71V40.91a11.85,11.85,0,0,0,4.46.75C313.26,41.66,316.21,38.94,316.21,32.15Z" style="fill:#3fad49"/><path d="M327.46,17h7.07l1,6.2c2-3.59,4.93-6.61,9.68-6.84l1.34,8.23a14.47,14.47,0,0,0-10.85,5.75V48h-8.23Z" style="fill:#3fad49"/><path d="M346.59,32.56c0-10.09,6.09-16.18,14.27-16.18,9.39,0,13.51,7,13.51,15.83,0,.75,0,1.68-.06,2.49H354.89c.4,5.16,3.47,7.66,8.06,7.66,3.76,0,7.13-1.39,10.49-3.66l.93,6.21A21.21,21.21,0,0,1,362,48.62C353.15,48.62,346.59,43.69,346.59,32.56Zm19.83-3.25c-.4-4.75-2.26-7.36-5.74-7.36-2.95,0-5.27,2.43-5.79,7.36Z" style="fill:#3fad49"/><path d="M375.93,45.55l1.05-6.9a22.84,22.84,0,0,0,11.48,3.65c3.07,0,4.58-1,4.58-2.78s-1.1-2.55-5.8-3.77c-7.66-2-10.84-4.12-10.84-9.92,0-5.56,4.29-9.39,11.71-9.39a28.25,28.25,0,0,1,11.13,2.26l-1.1,6.84a22.76,22.76,0,0,0-10-2.84c-2.61,0-3.83.93-3.83,2.44s1,2.26,5.51,3.42C397.91,30.7,401,32.85,401,38.65c0,6.32-4.46,9.91-12.58,9.91A28,28,0,0,1,375.93,45.55Z" style="fill:#3fad49"/><path d="M415.07,40c0-7.42,6-10.73,18.38-11.95v-.81c0-3.19-1.86-4.4-5.16-4.4A25.71,25.71,0,0,0,418,25.37l-1-6.44a30.62,30.62,0,0,1,12.41-2.49c8.17,0,12.23,2.9,12.23,10.44V48h-7.19L433.85,44c-2.55,2.55-5.62,4.58-10.09,4.58C418.55,48.62,415.07,45.55,415.07,40Zm18.38-.58V32.67c-8.29,1-10.26,3.48-10.26,6.38a3.26,3.26,0,0,0,3.59,3.48A9.88,9.88,0,0,0,433.45,39.46Z" style="fill:#3fad49"/><path d="M444.52,33.37c0-11.6,6.38-16.7,13.45-16.7a20.83,20.83,0,0,1,7,1.16v-15h8.24V48h-7.08l-.69-4.17c-2.21,2.49-5.16,4.81-9.34,4.81C449.62,48.62,444.52,43.81,444.52,33.37Zm20.41,4V24.44a12.14,12.14,0,0,0-5.51-1.16c-3.82,0-6.61,3-6.61,9.57,0,5.8,2.38,8.46,5.63,8.46C461,41.31,463,39.75,464.93,37.37Z" style="fill:#3fad49"/><path d="M477.57,39.23V17h8.23V37c0,2.55,1.11,4.29,3.72,4.29,2.26,0,4.46-1.39,6.55-3.53V17h8.23V48h-7.07l-.7-4.29c-2.84,2.73-6.09,4.93-10.15,4.93C480.59,48.62,477.57,45.08,477.57,39.23Z" style="fill:#3fad49"/><path d="M509.17,2.87h8.23V48h-8.23Z" style="fill:#3fad49"/><path d="M523.84,38.88V23.74h-4.29V17h4.29V6.87H532V17h6.67v6.72H532v13.8c0,2.5,1.16,3.83,4,3.83a13.49,13.49,0,0,0,2.84-.29v7a16.74,16.74,0,0,1-4.47.46C528.13,48.5,523.84,46.18,523.84,38.88Z" style="fill:#3fad49"/><path d="M540.3,32.56c0-10,6.27-16.18,14.67-16.18S569.7,22.47,569.7,32.5s-6.26,16.12-14.78,16.12S540.3,42.59,540.3,32.56Zm21.4,0c0-5.51-2.43-9.45-6.73-9.45s-6.66,3.82-6.66,9.39,2.37,9.39,6.66,9.39S561.7,38.07,561.7,32.56Z" style="fill:#3fad49"/><path d="M571.15,45.55l1-6.9a22.9,22.9,0,0,0,11.48,3.65c3.08,0,4.59-1,4.59-2.78s-1.11-2.55-5.8-3.77c-7.66-2-10.85-4.12-10.85-9.92,0-5.56,4.3-9.39,11.72-9.39a28.25,28.25,0,0,1,11.13,2.26l-1.1,6.84a22.76,22.76,0,0,0-10-2.84c-2.61,0-3.83.93-3.83,2.44s1,2.26,5.51,3.42c8.12,2.14,11.19,4.29,11.19,10.09,0,6.32-4.47,9.91-12.58,9.91A28,28,0,0,1,571.15,45.55Z" style="fill:#3fad49"/><path d="M0,186.42c0-5.76,3.59-9.28,8.42-9.28s8.44,3.49,8.44,9.25-3.59,9.24-8.48,9.24S0,192.17,0,186.42Zm12.27,0c0-3.16-1.39-5.42-3.85-5.42s-3.83,2.19-3.83,5.39,1.36,5.38,3.83,5.38S12.27,189.58,12.27,186.42Z" style="fill:#374a63"/><path d="M18.56,177.5h4.06l.4,2.4a7.1,7.1,0,0,1,5.36-2.76c3.69,0,6.62,2.76,6.62,8.78,0,6.62-3.66,9.55-7.72,9.55a11.87,11.87,0,0,1-4-.67v6.82H18.56Zm11.71,8.69c0-3.33-1.39-4.86-3.22-4.86-1.5,0-2.66.9-3.76,2.26V191a7,7,0,0,0,3.16.66C28.64,191.67,30.27,189.94,30.27,186.19Z" style="fill:#374a63"/><path d="M36.56,172a2.73,2.73,0,1,1,2.73,2.62A2.59,2.59,0,0,1,36.56,172Zm.37,5.48h4.72v17.77H36.93Z" style="fill:#374a63"/><path d="M44.42,177.5h4l.4,2.47c1.67-1.57,3.5-2.83,5.82-2.83,3.33,0,5.09,2,5.09,5.39v12.74H55.06V183.79c0-1.46-.63-2.46-2.16-2.46a5.56,5.56,0,0,0-3.76,2v11.91H44.42Z" style="fill:#374a63"/><path d="M61.35,190.71c0-4.26,3.43-6.15,10.54-6.85v-.47c0-1.83-1.06-2.53-3-2.53a14.74,14.74,0,0,0-5.88,1.43l-.57-3.69a17.69,17.69,0,0,1,7.12-1.43c4.69,0,7,1.66,7,6v12.11H72.49L72.13,193a7.88,7.88,0,0,1-5.79,2.62C63.35,195.63,61.35,193.87,61.35,190.71Zm10.54-.33v-3.9c-4.75.6-5.88,2-5.88,3.66a1.87,1.87,0,0,0,2.06,2A5.64,5.64,0,0,0,71.89,190.38Z" style="fill:#374a63"/><path d="M79.12,177.5h4l.4,2.47c1.67-1.57,3.5-2.83,5.83-2.83,3.32,0,5.08,2,5.08,5.39v12.74H89.76V183.79c0-1.46-.63-2.46-2.16-2.46a5.56,5.56,0,0,0-3.76,2v11.91H79.12Z" style="fill:#374a63"/><path d="M103.5,193.87l.6-4a13.08,13.08,0,0,0,6.59,2.1c1.76,0,2.63-.6,2.63-1.6s-.64-1.46-3.33-2.16c-4.39-1.13-6.22-2.36-6.22-5.69s2.46-5.39,6.72-5.39a16.18,16.18,0,0,1,6.39,1.3l-.64,3.92a13.12,13.12,0,0,0-5.75-1.63c-1.5,0-2.2.54-2.2,1.4s.6,1.3,3.16,2c4.66,1.23,6.42,2.47,6.42,5.79,0,3.63-2.56,5.69-7.21,5.69A16.14,16.14,0,0,1,103.5,193.87Z" style="fill:#374a63"/><path d="M118.61,186.42c0-5.76,3.59-9.28,8.41-9.28s8.45,3.49,8.45,9.25-3.59,9.24-8.48,9.24S118.61,192.17,118.61,186.42Zm12.27,0c0-3.16-1.39-5.42-3.86-5.42s-3.82,2.19-3.82,5.39,1.36,5.38,3.82,5.38S130.88,189.58,130.88,186.42Z" style="fill:#374a63"/><path d="M137.17,194.27V169.39h4.73v10.08a6.92,6.92,0,0,1,4.95-2.33c3.73,0,6.62,2.76,6.62,8.78,0,6.52-3.56,9.58-8.91,9.58A22.17,22.17,0,0,1,137.17,194.27Zm11.58-8.08c0-3.33-1.37-4.86-3.19-4.86a5.06,5.06,0,0,0-3.66,2.13v7.75a6.74,6.74,0,0,0,2.56.43C147.05,191.64,148.75,190.08,148.75,186.19Z" style="fill:#374a63"/><path d="M155.21,177.5h4l.57,3.56c1.13-2.06,2.83-3.79,5.55-3.92l.77,4.72a8.32,8.32,0,0,0-6.22,3.29v10.12h-4.72Z" style="fill:#374a63"/><path d="M166.18,186.42c0-5.79,3.5-9.28,8.19-9.28,5.39,0,7.75,4,7.75,9.08,0,.43,0,1,0,1.43H170.94c.23,3,2,4.39,4.63,4.39a10.64,10.64,0,0,0,6-2.1l.53,3.56a12.18,12.18,0,0,1-7.09,2.13C169.94,195.63,166.18,192.81,166.18,186.42Zm11.38-1.86c-.23-2.73-1.3-4.23-3.29-4.23-1.7,0-3,1.4-3.33,4.23Z" style="fill:#374a63"/><path d="M190.37,186.42c0-5.79,3.49-9.28,8.18-9.28,5.39,0,7.76,4,7.76,9.08,0,.43,0,1,0,1.43H195.13c.23,3,2,4.39,4.62,4.39a10.64,10.64,0,0,0,6-2.1l.54,3.56a12.18,12.18,0,0,1-7.09,2.13C194.13,195.63,190.37,192.81,190.37,186.42Zm11.38-1.86c-.23-2.73-1.3-4.23-3.3-4.23-1.69,0-3,1.4-3.32,4.23Z" style="fill:#374a63"/><path d="M208.27,169.39H213v25.88h-4.72Z" style="fill:#374a63"/><path d="M.9,207.16H5l.4,2.39a7.08,7.08,0,0,1,5.35-2.76c3.69,0,6.62,2.76,6.62,8.78,0,6.62-3.66,9.55-7.72,9.55a12.19,12.19,0,0,1-4-.66v6.81H.9Zm11.71,8.68c0-3.33-1.4-4.86-3.23-4.86-1.5,0-2.66.9-3.76,2.27v7.41a6.84,6.84,0,0,0,3.16.67C11,221.33,12.61,219.6,12.61,215.84Z" style="fill:#374a63"/><path d="M19.06,207.16h4.06l.57,3.56c1.13-2.07,2.82-3.79,5.55-3.93l.77,4.73a8.27,8.27,0,0,0-6.22,3.29v10.11H19.06Z" style="fill:#374a63"/><path d="M30.78,201.67a2.73,2.73,0,0,1,5.45,0,2.73,2.73,0,0,1-5.45,0Zm.36,5.49h4.72v17.76H31.14Z" style="fill:#374a63"/><path d="M38.63,207.16h4l.4,2.46c1.67-1.56,3.5-2.83,5.83-2.83,3.32,0,5.08,2,5.08,5.39v12.74H49.27V213.44c0-1.46-.63-2.46-2.16-2.46a5.56,5.56,0,0,0-3.76,2v11.91H38.63Z" style="fill:#374a63"/><path d="M55.59,216.14c0-6.22,3.9-9.31,8.69-9.31a10,10,0,0,1,5.45,1.43l-.66,4.22a7.09,7.09,0,0,0-4.49-1.6c-2.43,0-4.23,1.77-4.23,5.16s1.93,5.16,4.49,5.16a7.05,7.05,0,0,0,4.46-1.6l.6,4a9.86,9.86,0,0,1-5.82,1.69C59.09,225.25,55.59,221.93,55.59,216.14Z" style="fill:#374a63"/><path d="M71.36,201.67a2.73,2.73,0,1,1,2.73,2.63A2.6,2.6,0,0,1,71.36,201.67Zm.37,5.49h4.72v17.76H71.73Z" style="fill:#374a63"/><path d="M79.22,207.16h4l.4,2.39A7.1,7.1,0,0,1,89,206.79c3.69,0,6.62,2.76,6.62,8.78,0,6.62-3.66,9.55-7.72,9.55a12.14,12.14,0,0,1-4-.66v6.81H79.22Zm11.71,8.68c0-3.33-1.4-4.86-3.23-4.86-1.5,0-2.66.9-3.76,2.27v7.41a6.84,6.84,0,0,0,3.16.67C89.3,221.33,90.93,219.6,90.93,215.84Z" style="fill:#374a63"/><path d="M96.45,220.36c0-4.25,3.43-6.15,10.54-6.85v-.46c0-1.83-1.06-2.53-3-2.53A14.74,14.74,0,0,0,98.15,212l-.57-3.69a17.52,17.52,0,0,1,7.12-1.43c4.69,0,7,1.66,7,6v12.11h-4.13l-.36-2.26a7.89,7.89,0,0,1-5.79,2.63C98.45,225.29,96.45,223.52,96.45,220.36ZM107,220v-3.89c-4.75.6-5.88,2-5.88,3.66a1.87,1.87,0,0,0,2.06,2A5.64,5.64,0,0,0,107,220Z" style="fill:#374a63"/><path d="M114.42,199h4.72v25.88h-4.72Z" style="fill:#374a63"/><path d="M129.29,207.16h4.06l.39,2.39a7.11,7.11,0,0,1,5.36-2.76c3.69,0,6.62,2.76,6.62,8.78,0,6.62-3.66,9.55-7.72,9.55a12.19,12.19,0,0,1-4-.66v6.81h-4.72ZM141,215.84c0-3.33-1.4-4.86-3.23-4.86-1.5,0-2.66.9-3.76,2.27v7.41a6.84,6.84,0,0,0,3.16.67C139.37,221.33,141,219.6,141,215.84Z" style="fill:#374a63"/><path d="M147.45,207.16h4.06l.57,3.56c1.13-2.07,2.82-3.79,5.55-3.93l.77,4.73a8.27,8.27,0,0,0-6.22,3.29v10.11h-4.73Z" style="fill:#374a63"/><path d="M158.43,216.07c0-5.75,3.59-9.28,8.42-9.28s8.45,3.5,8.45,9.25-3.6,9.25-8.49,9.25S158.43,221.83,158.43,216.07Zm12.28,0c0-3.16-1.4-5.42-3.86-5.42S163,212.85,163,216s1.37,5.39,3.83,5.39S170.71,219.23,170.71,216.07Z" style="fill:#374a63"/><path d="M177,223.92V199h4.72v10.08a7,7,0,0,1,5-2.33c3.72,0,6.62,2.76,6.62,8.78,0,6.52-3.56,9.58-8.92,9.58A21.86,21.86,0,0,1,177,223.92Zm11.57-8.08c0-3.33-1.36-4.86-3.19-4.86a5.08,5.08,0,0,0-3.66,2.13v7.75a6.77,6.77,0,0,0,2.56.44C186.88,221.3,188.57,219.73,188.57,215.84Z" style="fill:#374a63"/><path d="M195.23,199H200v25.88h-4.72Z" style="fill:#374a63"/><path d="M201.82,216.07c0-5.78,3.49-9.28,8.18-9.28,5.39,0,7.75,4,7.75,9.08,0,.44,0,1,0,1.43H206.57c.24,3,2,4.39,4.63,4.39a10.62,10.62,0,0,0,6-2.09l.53,3.56a12.17,12.17,0,0,1-7.08,2.13C205.58,225.29,201.82,222.46,201.82,216.07Zm11.37-1.86c-.23-2.73-1.29-4.22-3.29-4.22-1.7,0-3,1.39-3.33,4.22Z" style="fill:#374a63"/><path d="M219.52,207.16h4l.4,2.46c1.67-1.6,3.4-2.83,5.79-2.83a4.37,4.37,0,0,1,4.49,2.86,8.36,8.36,0,0,1,5.82-2.86c3.33,0,5,2,5,5.39v12.74h-4.73V213.44c0-1.46-.53-2.46-2-2.46a5.39,5.39,0,0,0-3.66,2v11.91H230V213.44c0-1.46-.56-2.46-2.06-2.46-1.26,0-2.46.8-3.66,2v11.91h-4.72Z" style="fill:#374a63"/><path d="M246.7,220.36c0-4.25,3.42-6.15,10.54-6.85v-.46c0-1.83-1.06-2.53-3-2.53A14.7,14.7,0,0,0,248.4,212l-.57-3.69a17.52,17.52,0,0,1,7.12-1.43c4.69,0,7,1.66,7,6v12.11h-4.13l-.36-2.26a7.89,7.89,0,0,1-5.79,2.63C248.69,225.29,246.7,223.52,246.7,220.36Zm10.54-.33v-3.89c-4.75.6-5.88,2-5.88,3.66a1.86,1.86,0,0,0,2.06,2A5.64,5.64,0,0,0,257.24,220Z" style="fill:#374a63"/><path d="M271,216.54c0-6.65,3.65-9.58,7.71-9.58a12.14,12.14,0,0,1,4,.66V199h4.73v25.88h-4.06l-.4-2.39a7.08,7.08,0,0,1-5.36,2.76C273.91,225.29,271,222.53,271,216.54Zm11.7,2.29v-7.41a6.81,6.81,0,0,0-3.16-.67c-2.19,0-3.79,1.73-3.79,5.49,0,3.33,1.37,4.86,3.23,4.86C280.43,221.1,281.6,220.2,282.69,218.83Z" style="fill:#374a63"/><path d="M289.12,216.07c0-5.78,3.49-9.28,8.18-9.28,5.39,0,7.75,4,7.75,9.08,0,.44,0,1,0,1.43H293.87c.24,3,2,4.39,4.63,4.39a10.62,10.62,0,0,0,6-2.09l.53,3.56a12.17,12.17,0,0,1-7.08,2.13C292.88,225.29,289.12,222.46,289.12,216.07Zm11.37-1.86c-.23-2.73-1.29-4.22-3.29-4.22-1.7,0-3,1.39-3.33,4.22Z" style="fill:#374a63"/><path d="M498.23,137.07c0-5.91,4.76-8.55,14.64-9.51v-.65c0-2.54-1.48-3.51-4.11-3.51a20.57,20.57,0,0,0-8.18,2l-.78-5.12a24.43,24.43,0,0,1,9.88-2c6.52,0,9.75,2.31,9.75,8.32V143.4H513.7l-.51-3.14a10.91,10.91,0,0,1-8,3.65C501,143.91,498.23,141.46,498.23,137.07Zm14.64-.46V131.2c-6.6.84-8.18,2.78-8.18,5.08a2.6,2.6,0,0,0,2.87,2.78A7.9,7.9,0,0,0,512.87,136.61Z" style="fill:#374a63"/><path d="M522.9,118.73h5.63l.55,3.42c2.31-2.17,4.85-3.92,8.09-3.92,4.62,0,7.06,2.81,7.06,7.48V143.4h-6.55V127.46c0-2-.88-3.41-3-3.41-1.8,0-3.55,1.1-5.22,2.81V143.4H522.9Zm10.85-4.25c-1.94-.92-2.54-1.2-3.33-1.2s-1.1.42-1.52,2h-3.51c.51-4.95,2.17-7,4.66-7a7.9,7.9,0,0,1,3.61,1c1.94.92,2.54,1.2,3.32,1.2s1.11-.42,1.53-2H542c-.51,4.94-2.17,7-4.67,7A7.73,7.73,0,0,1,533.75,114.48Z" style="fill:#374a63"/><path d="M546.45,131.11c0-8,5-12.88,11.69-12.88s11.73,4.84,11.73,12.84-5,12.84-11.78,12.84S546.45,139.1,546.45,131.11Zm17,0c0-4.39-1.94-7.53-5.36-7.53s-5.31,3-5.31,7.49,1.89,7.48,5.31,7.48S563.5,135.5,563.5,131.11Z" style="fill:#374a63"/><path d="M571,141.46l.83-5.5a18.18,18.18,0,0,0,9.15,2.91c2.44,0,3.64-.83,3.64-2.22s-.87-2-4.61-3c-6.1-1.57-8.64-3.28-8.64-7.9,0-4.43,3.42-7.48,9.33-7.48a22.49,22.49,0,0,1,8.87,1.8l-.88,5.45a18.2,18.2,0,0,0-8-2.26c-2.08,0-3.05.74-3.05,1.94s.83,1.8,4.39,2.73c6.46,1.7,8.91,3.41,8.91,8,0,5-3.55,7.9-10,7.9A22.35,22.35,0,0,1,571,141.46Z" style="fill:#374a63"/><path d="M185.64,128.16l25.21-26.07c5.73-5.83,8.5-9.93,8.5-14.9,0-6.39-3.92-9.64-10.79-9.64s-13.28,3.15-19.39,7.73l-1.91-12.7a37.6,37.6,0,0,1,23.3-7.64c14.52,0,23.21,7.64,23.21,20.82,0,9.45-4.49,15.47-13.37,24.26l-16.71,16.71h30.46v12H185.64Z" style="fill:#01a5d4"/><path d="M247.61,128.44c14.32-3,25.4-9.35,29.12-21.29a29.88,29.88,0,0,1-17.09,5.54c-12.79,0-21.67-7.64-21.67-22.63,0-15.38,11.07-25.21,26.16-25.21,16,0,27.21,10.6,27.21,30.65,0,25.78-17.47,40.11-41.82,44.78Zm30.27-32.27V96c-.1-13.18-5.83-19.86-13.85-19.86-7.16,0-12.12,4.87-12.12,13.17,0,7.83,4,12.23,12,12.23C269,101.52,273.58,99.51,277.88,96.17Z" style="fill:#01a5d4"/><path d="M318.65,157.38l-1.81-11.08a20.33,20.33,0,0,0,6,.77,8.3,8.3,0,0,0,8.21-5.35l1.05-2.77-18.9-51.18H328.1l11.08,34.37L350,87.77h13.37l-19,53.28c-4.59,12.7-10.51,16.81-20.72,16.81A20.22,20.22,0,0,1,318.65,157.38Z" style="fill:#01a5d4"/><path d="M385,134.84l2.1-12.89a38.4,38.4,0,0,0,20,6c7.64,0,13.27-3.82,13.27-11.46s-5.73-11.46-14.42-11.46a33,33,0,0,0-9.26,1.43l-8.78-2,2.57-38.29h41.26v12h-29.8L400.67,94a42.4,42.4,0,0,1,7.74-.76c16.13,0,26.07,8,26.07,22.63,0,15.85-11.08,24.25-27.22,24.25A47,47,0,0,1,385,134.84Z" style="fill:#01a5d4"/><path d="M446.79,128.44c14.33-3,25.4-9.35,29.13-21.29a29.91,29.91,0,0,1-17.1,5.54c-12.79,0-21.67-7.64-21.67-22.63,0-15.38,11.07-25.21,26.16-25.21,16,0,27.22,10.6,27.22,30.65,0,25.78-17.48,40.11-41.83,44.78Zm30.27-32.27V96c-.09-13.18-5.82-19.86-13.84-19.86-7.17,0-12.13,4.87-12.13,13.17,0,7.83,4,12.23,12,12.23C468.18,101.52,472.76,99.51,477.06,96.17Z" style="fill:#01a5d4"/><g id="adulto_hombre"><path d="M35,27.84A13.92,13.92,0,1,0,21.07,13.92,14,14,0,0,0,35,27.84Z" style="fill:#216734"/><path d="M51.37,33H18.89C9.88,33,2,41.76,2,51.58V90.07a5.46,5.46,0,0,0,10.91,0V53.77s0-2.46,2.19-2.46,2.45,2.46,2.45,2.46V156.11a7.65,7.65,0,1,0,15.29,0v-57A2.08,2.08,0,0,1,35,96.89h0a2.09,2.09,0,0,1,2.19,2.18v57a7.64,7.64,0,1,0,15.28,0V53.77s.27-2.46,2.46-2.46,2.18,2.46,2.18,2.46v36.3a5.46,5.46,0,0,0,10.92,0V51.58C68,41.76,60.65,33,51.37,33Z" style="fill:#216734"/></g></g></g></svg>