<svg xmlns="http://www.w3.org/2000/svg" viewBox="0 0 769.53 275.32"><title>Asset 3</title><g id="Layer_2" data-name="Layer 2"><g id="Capa_1" data-name="Capa 1"><path d="M459.7,220.86l-3.33,47.55H444.09l5.09-66.68h17.63l15.79,49.05,15.8-49.05h17.19l5.09,66.68H506.82l-3.33-47.55-15.71,47.73H475.41Z" style="fill:#de1f26"/><path d="M524.45,245.08c0-15.27,9.21-24.48,21.58-24.48,14.22,0,20.44,10.61,20.44,24,0,1.14,0,2.54-.08,3.77H537c.62,7.81,5.27,11.58,12.2,11.58,5.7,0,10.79-2.1,15.88-5.52l1.4,9.38a32.05,32.05,0,0,1-18.68,5.62C534.36,269.38,524.45,261.92,524.45,245.08Zm30-4.92C553.84,233,551,229,545.77,229c-4.48,0-8,3.68-8.78,11.14Z" style="fill:#4c9b45"/><path d="M568.84,246.3c0-17.54,9.65-25.27,20.35-25.27a31.51,31.51,0,0,1,10.53,1.76V200.15h12.46v68.26h-10.7l-1.05-6.31c-3.34,3.77-7.81,7.28-14.13,7.28C576.56,269.38,568.84,262.1,568.84,246.3Zm30.88,6.06V232.79a18.3,18.3,0,0,0-8.33-1.75c-5.79,0-10,4.56-10,14.47,0,8.78,3.59,12.81,8.51,12.81C593.76,258.32,596.83,256,599.72,252.36Z" style="fill:#03a5d4"/><path d="M616.65,245.08c0-15.27,9.21-24.48,21.59-24.48,14.21,0,20.44,10.61,20.44,24,0,1.14,0,2.54-.09,3.77H629.2c.61,7.81,5.26,11.58,12.19,11.58,5.71,0,10.8-2.1,15.89-5.52l1.4,9.38A32.09,32.09,0,0,1,640,269.38C626.57,269.38,616.65,261.92,616.65,245.08Zm30-4.92C646,233,643.24,229,638,229c-4.47,0-8,3.68-8.77,11.14Z" style="fill:#ea6524"/><path d="M663.85,200.15h12.46v68.26H663.85Z" style="fill:#4c7838"/><path d="M684.12,200.15h12.46v68.26H684.12Z" style="fill:#4c7838"/><path d="M703.07,221.56h12.45v46.85H703.07ZM714,201.73H729v.79L715.79,215.6h-8.25Z" style="fill:#094c81"/><path d="M724.12,221.56h10.7l1.06,6.49c4.38-4.12,9.21-7.45,15.35-7.45,8.78,0,13.43,5.35,13.43,14.21v33.6H752.2V238.14c0-3.86-1.67-6.49-5.71-6.49-3.42,0-6.75,2.11-9.91,5.35v31.41H724.12Z" style="fill:#da1179"/><path d="M178.64,4.8H188V41.89h15.35v8.3H178.64Z" style="fill:#374a63"/><path d="M204.5,42c0-7.64,6.15-11,18.93-12.3v-.84c0-3.28-1.91-4.54-5.31-4.54a26.46,26.46,0,0,0-10.57,2.57l-1-6.63a31.66,31.66,0,0,1,12.78-2.57c8.42,0,12.6,3,12.6,10.75V50.19h-7.4l-.66-4.06c-2.63,2.63-5.79,4.72-10.39,4.72C208.08,50.85,204.5,47.69,204.5,42Zm18.93-.6v-7C214.89,35.5,212.86,38,212.86,41a3.35,3.35,0,0,0,3.7,3.58A10.14,10.14,0,0,0,223.43,41.41Z" style="fill:#374a63"/><path d="M234.84,47.69l1.07-7.11a23.58,23.58,0,0,0,11.83,3.76c3.16,0,4.72-1.07,4.72-2.87s-1.14-2.62-6-3.88c-7.88-2-11.16-4.24-11.16-10.21,0-5.73,4.42-9.68,12.06-9.68A29.18,29.18,0,0,1,258.85,20l-1.14,7a23.42,23.42,0,0,0-10.33-2.93c-2.69,0-3.94,1-3.94,2.51s1.07,2.33,5.67,3.53c8.36,2.21,11.53,4.42,11.53,10.39,0,6.51-4.6,10.21-13,10.21A28.85,28.85,0,0,1,234.84,47.69Z" style="fill:#374a63"/><path d="M276.82,18.3h7.29l.71,4.3c2.27-2.57,5.32-5,9.62-5,6.63,0,11.88,5,11.88,15.76,0,11.89-6.57,17.14-13.85,17.14a21.75,21.75,0,0,1-7.17-1.19V61.6h-8.48Zm21,15.59c0-6-2.51-8.72-5.79-8.72-2.69,0-4.78,1.61-6.75,4.06V42.55A12.42,12.42,0,0,0,291,43.74C294.92,43.74,297.84,40.64,297.84,33.89Z" style="fill:#374a63"/><path d="M307.81,34.31c0-10.39,6.27-16.66,14.7-16.66,9.67,0,13.91,7.22,13.91,16.3,0,.78,0,1.73-.06,2.57h-20c.42,5.31,3.59,7.88,8.31,7.88,3.88,0,7.34-1.43,10.81-3.76l.95,6.39a21.81,21.81,0,0,1-12.72,3.82C314.56,50.85,307.81,45.77,307.81,34.31ZM328.24,31c-.42-4.89-2.33-7.58-5.91-7.58-3.05,0-5.44,2.51-6,7.58Z" style="fill:#374a63"/><path d="M339.58,18.3h7.29l1,6.39c2-3.7,5.07-6.81,10-7l1.37,8.48A14.89,14.89,0,0,0,348.06,32V50.19h-8.48Z" style="fill:#374a63"/><path d="M359.35,47.69l1.08-7.11a23.52,23.52,0,0,0,11.82,3.76c3.17,0,4.72-1.07,4.72-2.87s-1.14-2.62-6-3.88c-7.89-2-11.17-4.24-11.17-10.21,0-5.73,4.42-9.68,12.06-9.68A29.15,29.15,0,0,1,383.36,20l-1.13,7a23.49,23.49,0,0,0-10.34-2.93c-2.68,0-3.94,1-3.94,2.51S369,29,373.63,30.19c8.36,2.21,11.52,4.42,11.52,10.39,0,6.51-4.6,10.21-13,10.21A28.89,28.89,0,0,1,359.35,47.69Z" style="fill:#374a63"/><path d="M386.46,34.31c0-10.33,6.45-16.66,15.11-16.66s15.17,6.27,15.17,16.6-6.45,16.6-15.23,16.6S386.46,44.64,386.46,34.31Zm22,0c0-5.68-2.51-9.74-6.93-9.74s-6.86,3.94-6.86,9.68,2.44,9.67,6.86,9.67S408.5,40,408.5,34.31Z" style="fill:#374a63"/><path d="M419.79,18.3h7.28l.72,4.42c3-2.81,6.27-5.07,10.45-5.07,6,0,9.14,3.64,9.14,9.67V50.19H438.9V29.59c0-2.63-1.14-4.42-3.88-4.42-2.33,0-4.6,1.43-6.75,3.64V50.19h-8.48Z" style="fill:#374a63"/><path d="M450.18,42c0-7.64,6.16-11,18.94-12.3v-.84c0-3.28-1.92-4.54-5.32-4.54a26.5,26.5,0,0,0-10.57,2.57l-1-6.63A31.69,31.69,0,0,1,465,17.7c8.43,0,12.61,3,12.61,10.75V50.19h-7.41l-.66-4.06c-2.62,2.63-5.79,4.72-10.39,4.72C453.77,50.85,450.18,47.69,450.18,42Zm18.94-.6v-7C460.58,35.5,458.54,38,458.54,41a3.36,3.36,0,0,0,3.71,3.58A10.14,10.14,0,0,0,469.12,41.41Z" style="fill:#374a63"/><path d="M480.52,47.69l1.08-7.11a23.52,23.52,0,0,0,11.82,3.76c3.17,0,4.72-1.07,4.72-2.87s-1.14-2.62-6-3.88c-7.89-2-11.17-4.24-11.17-10.21,0-5.73,4.42-9.68,12.06-9.68A29.15,29.15,0,0,1,504.53,20l-1.13,7a23.49,23.49,0,0,0-10.34-2.93c-2.68,0-3.94,1-3.94,2.51s1.08,2.33,5.67,3.53c8.37,2.21,11.53,4.42,11.53,10.39,0,6.51-4.6,10.21-13,10.21A28.89,28.89,0,0,1,480.52,47.69Z" style="fill:#374a63"/><path d="M520.89,34.31c0-10.39,6.27-16.66,14.69-16.66,9.68,0,13.92,7.22,13.92,16.3,0,.78,0,1.73-.06,2.57h-20c.42,5.31,3.58,7.88,8.3,7.88,3.88,0,7.35-1.43,10.81-3.76l1,6.39a21.86,21.86,0,0,1-12.72,3.82C527.64,50.85,520.89,45.77,520.89,34.31ZM541.32,31c-.42-4.89-2.33-7.58-5.92-7.58-3,0-5.43,2.51-6,7.58Z" style="fill:#374a63"/><path d="M552.66,18.3H560l.71,4.42c3-2.81,6.27-5.07,10.46-5.07,6,0,9.13,3.64,9.13,9.67V50.19h-8.48V29.59c0-2.63-1.13-4.42-3.88-4.42-2.33,0-4.6,1.43-6.75,3.64V50.19h-8.48Z" style="fill:#374a63"/><path d="M586.4,40.82V25.23H582V18.3h4.42V7.85h8.42V18.3h6.87v6.93h-6.87V39.44c0,2.57,1.2,4,4.12,4a14.2,14.2,0,0,0,2.93-.3v7.16a17.18,17.18,0,0,1-4.6.48C590.82,50.73,586.4,48.34,586.4,40.82Z" style="fill:#374a63"/><path d="M605,18.3h7.29l1,6.39c2-3.7,5.07-6.81,10-7l1.37,8.48A14.85,14.85,0,0,0,613.46,32V50.19H605Z" style="fill:#374a63"/><path d="M624.68,34.31c0-10.39,6.27-16.66,14.69-16.66,9.68,0,13.92,7.22,13.92,16.3,0,.78,0,1.73-.06,2.57h-20c.42,5.31,3.59,7.88,8.3,7.88,3.89,0,7.35-1.43,10.81-3.76l1,6.39a21.83,21.83,0,0,1-12.72,3.82C631.43,50.85,624.68,45.77,624.68,34.31ZM645.11,31c-.42-4.89-2.33-7.58-5.92-7.58-3,0-5.43,2.51-6,7.58Z" style="fill:#374a63"/><path d="M0,213.3c0-8,5-12.84,11.64-12.84s11.69,4.84,11.69,12.79S18.36,226,11.59,226,0,221.26,0,213.3Zm17,0c0-4.37-1.94-7.5-5.34-7.5s-5.29,3-5.29,7.45,1.89,7.46,5.29,7.46S17,217.67,17,213.3Z" style="fill:#374a63"/><path d="M25.67,201h5.61l.55,3.31c1.75-2,4.1-3.82,7.41-3.82,5.11,0,9.15,3.82,9.15,12.15,0,9.16-5.06,13.2-10.67,13.2a16.52,16.52,0,0,1-5.52-.92v9.43H25.67Zm16.19,12c0-4.6-1.93-6.72-4.46-6.72-2.07,0-3.68,1.24-5.2,3.13v10.26a9.58,9.58,0,0,0,4.37.92C39.61,220.57,41.86,218.18,41.86,213Z" style="fill:#374a63"/><path d="M50.55,193.38A3.78,3.78,0,1,1,54.33,197,3.58,3.58,0,0,1,50.55,193.38Zm.51,7.59h6.53v24.57H51.06Z" style="fill:#374a63"/><path d="M61.41,201H67l.55,3.41c2.3-2.17,4.83-3.92,8.05-3.92,4.61,0,7,2.81,7,7.46v17.62H76.13V209.67c0-2-.87-3.41-3-3.41-1.79,0-3.54,1.11-5.2,2.81v16.47H61.41Z" style="fill:#374a63"/><path d="M84.82,219.23c0-5.88,4.74-8.51,14.59-9.47v-.65c0-2.53-1.48-3.49-4.1-3.49a20.38,20.38,0,0,0-8.14,2l-.78-5.11a24.27,24.27,0,0,1,9.84-2c6.49,0,9.71,2.3,9.71,8.28v16.75h-5.7l-.51-3.13a10.87,10.87,0,0,1-8,3.63C87.58,226,84.82,223.61,84.82,219.23Zm14.59-.46v-5.38c-6.58.83-8.15,2.76-8.15,5.06a2.59,2.59,0,0,0,2.86,2.76A7.84,7.84,0,0,0,99.41,218.77Z" style="fill:#374a63"/><path d="M109.39,201H115l.55,3.41c2.3-2.17,4.83-3.92,8-3.92,4.6,0,7,2.81,7,7.46v17.62h-6.53V209.67c0-2-.87-3.41-3-3.41-1.79,0-3.54,1.11-5.2,2.81v16.47h-6.53Z" style="fill:#374a63"/><path d="M143.11,223.61l.82-5.48A18.12,18.12,0,0,0,153,221c2.44,0,3.64-.83,3.64-2.21s-.88-2-4.6-3c-6.08-1.56-8.61-3.27-8.61-7.87,0-4.41,3.41-7.45,9.3-7.45a22.29,22.29,0,0,1,8.83,1.8l-.87,5.42a18.07,18.07,0,0,0-8-2.25c-2.07,0-3,.74-3,1.93s.83,1.8,4.37,2.72c6.44,1.7,8.88,3.4,8.88,8,0,5-3.54,7.87-10,7.87A22.28,22.28,0,0,1,143.11,223.61Z" style="fill:#374a63"/><path d="M164,213.3c0-8,5-12.84,11.64-12.84s11.68,4.84,11.68,12.79-5,12.79-11.73,12.79S164,221.26,164,213.3Zm17,0c0-4.37-1.93-7.5-5.33-7.5s-5.29,3-5.29,7.45,1.88,7.46,5.29,7.46S181,217.67,181,213.3Z" style="fill:#374a63"/><path d="M189.66,224.16V189.75h6.53v13.94a9.59,9.59,0,0,1,6.85-3.23c5.16,0,9.16,3.82,9.16,12.15,0,9-4.92,13.25-12.33,13.25A30.37,30.37,0,0,1,189.66,224.16Zm16-11.18c0-4.6-1.89-6.72-4.42-6.72-1.93,0-3.59,1.24-5.06,3v10.72a9.42,9.42,0,0,0,3.54.59C203.32,220.52,205.67,218.36,205.67,213Z" style="fill:#374a63"/><path d="M214.59,201h5.61l.78,4.92c1.57-2.85,3.91-5.24,7.69-5.43l1.05,6.54a11.49,11.49,0,0,0-8.6,4.55v14h-6.53Z" style="fill:#374a63"/><path d="M229.77,213.3c0-8,4.83-12.84,11.31-12.84,7.46,0,10.72,5.57,10.72,12.56,0,.6,0,1.34,0,2H236.35c.32,4.1,2.76,6.07,6.39,6.07a14.76,14.76,0,0,0,8.33-2.89l.73,4.92A16.78,16.78,0,0,1,242,226C235,226,229.77,222.13,229.77,213.3Zm15.73-2.58c-.32-3.77-1.79-5.84-4.55-5.84-2.35,0-4.19,1.93-4.6,5.84Z" style="fill:#374a63"/><path d="M263.21,213.3c0-8,4.83-12.84,11.32-12.84,7.45,0,10.71,5.57,10.71,12.56,0,.6,0,1.34,0,2H269.79c.32,4.1,2.76,6.07,6.39,6.07a14.76,14.76,0,0,0,8.33-2.89l.73,4.92a16.78,16.78,0,0,1-9.79,2.94C268.41,226,263.21,222.13,263.21,213.3Zm15.73-2.58c-.32-3.77-1.79-5.84-4.55-5.84-2.35,0-4.19,1.93-4.6,5.84Z" style="fill:#374a63"/><path d="M288,189.75h6.53v35.79H288Z" style="fill:#374a63"/><path d="M1.24,242H6.85l.56,3.31c1.75-2,4.09-3.82,7.4-3.82,5.11,0,9.16,3.82,9.16,12.15,0,9.16-5.06,13.2-10.67,13.2a16.47,16.47,0,0,1-5.52-.92v9.43H1.24Zm16.2,12c0-4.6-1.94-6.72-4.47-6.72-2.07,0-3.68,1.24-5.19,3.13v10.26a9.55,9.55,0,0,0,4.37.92C15.18,261.57,17.44,259.18,17.44,254Z" style="fill:#374a63"/><path d="M26.36,242H32l.78,4.92c1.57-2.85,3.91-5.24,7.69-5.43L41.49,248a11.49,11.49,0,0,0-8.6,4.55v14H26.36Z" style="fill:#374a63"/><path d="M42.55,234.38A3.77,3.77,0,1,1,46.32,238,3.58,3.58,0,0,1,42.55,234.38Zm.51,7.59h6.53v24.57H43.06Z" style="fill:#374a63"/><path d="M53.41,242H59l.55,3.41c2.3-2.17,4.83-3.92,8.05-3.92,4.6,0,7,2.81,7,7.46v17.62H68.13V250.67c0-2-.88-3.41-3-3.41-1.8,0-3.55,1.11-5.2,2.81v16.47H53.41Z" style="fill:#374a63"/><path d="M76.87,254.39c0-8.6,5.38-12.88,12-12.88a13.92,13.92,0,0,1,7.55,2l-.92,5.84a9.79,9.79,0,0,0-6.21-2.21c-3.36,0-5.85,2.44-5.85,7.13s2.67,7.14,6.21,7.14a9.81,9.81,0,0,0,6.17-2.21l.83,5.47A13.66,13.66,0,0,1,88.6,267C81.7,267,76.87,262.4,76.87,254.39Z" style="fill:#374a63"/><path d="M98.67,234.38a3.77,3.77,0,1,1,3.77,3.63A3.58,3.58,0,0,1,98.67,234.38Zm.51,7.59h6.53v24.57H99.18Z" style="fill:#374a63"/><path d="M109.53,242h5.61l.55,3.31c1.75-2,4.09-3.82,7.41-3.82,5.1,0,9.15,3.82,9.15,12.15,0,9.16-5.06,13.2-10.67,13.2a16.47,16.47,0,0,1-5.52-.92v9.43h-6.53Zm16.19,12c0-4.6-1.93-6.72-4.46-6.72-2.07,0-3.68,1.24-5.2,3.13v10.26a9.58,9.58,0,0,0,4.37.92C123.46,261.57,125.72,259.18,125.72,254Z" style="fill:#374a63"/><path d="M133.35,260.23c0-5.88,4.74-8.51,14.59-9.47v-.65c0-2.53-1.48-3.49-4.1-3.49a20.38,20.38,0,0,0-8.14,2l-.78-5.11a24.27,24.27,0,0,1,9.84-2c6.49,0,9.71,2.3,9.71,8.28v16.75h-5.7l-.51-3.13a10.87,10.87,0,0,1-8,3.63C136.11,267,133.35,264.61,133.35,260.23Zm14.59-.46v-5.38c-6.58.83-8.15,2.76-8.15,5.06a2.59,2.59,0,0,0,2.86,2.76A7.84,7.84,0,0,0,147.94,259.77Z" style="fill:#374a63"/><path d="M158.19,230.75h6.54v35.79h-6.54Z" style="fill:#374a63"/><path d="M178.75,242h5.62l.55,3.31c1.75-2,4.09-3.82,7.41-3.82,5.1,0,9.15,3.82,9.15,12.15,0,9.16-5.06,13.2-10.67,13.2a16.47,16.47,0,0,1-5.52-.92v9.43h-6.54ZM195,254c0-4.6-1.93-6.72-4.46-6.72-2.07,0-3.68,1.24-5.2,3.13v10.26a9.58,9.58,0,0,0,4.37.92C192.69,261.57,195,259.18,195,254Z" style="fill:#374a63"/><path d="M203.87,242h5.61l.79,4.92c1.56-2.85,3.91-5.24,7.68-5.43L219,248a11.49,11.49,0,0,0-8.61,4.55v14h-6.53Z" style="fill:#374a63"/><path d="M219.05,254.3c0-8,5-12.84,11.64-12.84s11.69,4.84,11.69,12.79-5,12.79-11.74,12.79S219.05,262.26,219.05,254.3Zm17,0c0-4.37-1.94-7.5-5.34-7.5s-5.29,3-5.29,7.45,1.89,7.46,5.29,7.46S236,258.67,236,254.3Z" style="fill:#374a63"/><path d="M244.72,265.16V230.75h6.53v13.94a9.6,9.6,0,0,1,6.86-3.23c5.15,0,9.15,3.82,9.15,12.15,0,9-4.92,13.25-12.33,13.25A30.37,30.37,0,0,1,244.72,265.16Zm16-11.18c0-4.6-1.89-6.72-4.42-6.72-1.93,0-3.59,1.24-5.06,3v10.72a9.45,9.45,0,0,0,3.54.59C258.38,261.52,260.73,259.36,260.73,254Z" style="fill:#374a63"/><path d="M269.93,230.75h6.53v35.79h-6.53Z" style="fill:#374a63"/><path d="M279,254.3c0-8,4.83-12.84,11.32-12.84,7.45,0,10.72,5.57,10.72,12.56,0,.6,0,1.34-.05,2H285.61c.32,4.1,2.76,6.07,6.4,6.07a14.7,14.7,0,0,0,8.32-2.89l.74,4.92a16.83,16.83,0,0,1-9.8,2.94C284.23,267,279,263.13,279,254.3Zm15.74-2.58c-.32-3.77-1.8-5.84-4.56-5.84-2.34,0-4.18,1.93-4.6,5.84Z" style="fill:#374a63"/><path d="M303.5,242h5.62l.55,3.41c2.3-2.21,4.69-3.92,8-3.92s5.29,1.61,6.21,4c2.21-2.21,4.84-4,8.06-4,4.6,0,6.94,2.81,6.94,7.46v17.62h-6.53V250.67c0-2-.74-3.41-2.81-3.41-1.74,0-3.45,1.11-5.06,2.81v16.47H318V250.67c0-2-.78-3.41-2.85-3.41-1.75,0-3.41,1.11-5.06,2.81v16.47H303.5Z" style="fill:#374a63"/><path d="M341.09,260.23c0-5.88,4.74-8.51,14.58-9.47v-.65c0-2.53-1.47-3.49-4.09-3.49a20.43,20.43,0,0,0-8.15,2l-.78-5.11a24.28,24.28,0,0,1,9.85-2c6.48,0,9.7,2.3,9.7,8.28v16.75h-5.7l-.51-3.13a10.87,10.87,0,0,1-8,3.63C343.85,267,341.09,264.61,341.09,260.23Zm14.58-.46v-5.38c-6.58.83-8.14,2.76-8.14,5.06a2.58,2.58,0,0,0,2.85,2.76A7.82,7.82,0,0,0,355.67,259.77Z" style="fill:#374a63"/><path d="M374.67,254.94c0-9.2,5.06-13.25,10.67-13.25a16.77,16.77,0,0,1,5.52.92V230.75h6.53v35.79h-5.61l-.55-3.31c-1.75,2-4.1,3.81-7.41,3.81C378.71,267,374.67,263.23,374.67,254.94Zm16.19,3.18V247.86a9.58,9.58,0,0,0-4.37-.92c-3,0-5.24,2.39-5.24,7.59,0,4.6,1.88,6.72,4.46,6.72C387.73,261.25,389.34,260,390.86,258.12Z" style="fill:#374a63"/><path d="M399.74,254.3c0-8,4.83-12.84,11.31-12.84,7.46,0,10.72,5.57,10.72,12.56,0,.6,0,1.34,0,2H406.32c.32,4.1,2.76,6.07,6.39,6.07a14.76,14.76,0,0,0,8.33-2.89l.73,4.92A16.83,16.83,0,0,1,412,267C404.93,267,399.74,263.13,399.74,254.3Zm15.73-2.58c-.32-3.77-1.79-5.84-4.55-5.84-2.35,0-4.19,1.93-4.6,5.84Z" style="fill:#374a63"/><path d="M660.45,149.94c0-6.95,5.59-10.05,17.22-11.19V138c0-3-1.74-4.13-4.84-4.13a24,24,0,0,0-9.61,2.34l-.93-6a28.82,28.82,0,0,1,11.63-2.34c7.66,0,11.46,2.72,11.46,9.78v19.78h-6.74l-.59-3.7c-2.39,2.39-5.27,4.29-9.46,4.29C663.71,158,660.45,155.1,660.45,149.94Zm17.22-.54V143c-7.77,1-9.62,3.26-9.62,6a3.06,3.06,0,0,0,3.37,3.26A9.28,9.28,0,0,0,677.67,149.4Z" style="fill:#374a63"/><path d="M689.45,128.38h6.63l.65,4c2.72-2.56,5.71-4.62,9.51-4.62,5.43,0,8.31,3.31,8.31,8.8v20.81h-7.71V138.64c0-2.39-1-4-3.53-4-2.12,0-4.19,1.31-6.14,3.32v19.45h-7.72Zm12.77-5c-2.28-1.09-3-1.41-3.91-1.41s-1.3.49-1.79,2.39h-4.13c.6-5.81,2.55-8.2,5.48-8.2a9.28,9.28,0,0,1,4.24,1.19c2.28,1.09,3,1.41,3.91,1.41s1.31-.49,1.8-2.39h4.12c-.59,5.82-2.55,8.21-5.48,8.21A9.17,9.17,0,0,1,702.22,123.38Z" style="fill:#374a63"/><path d="M717.16,142.94c0-9.4,5.87-15.16,13.74-15.16s13.8,5.7,13.8,15.1S738.83,158,730.85,158,717.16,152.33,717.16,142.94Zm20,0c0-5.17-2.28-8.86-6.3-8.86s-6.24,3.59-6.24,8.8,2.22,8.8,6.24,8.8S737.2,148.1,737.2,142.94Z" style="fill:#374a63"/><path d="M746.06,155.1l1-6.46a21.45,21.45,0,0,0,10.75,3.42c2.88,0,4.29-1,4.29-2.61s-1-2.39-5.43-3.53c-7.17-1.84-10.16-3.85-10.16-9.29,0-5.21,4-8.8,11-8.8A26.54,26.54,0,0,1,767.9,130l-1,6.41a21.28,21.28,0,0,0-9.39-2.66c-2.45,0-3.59.87-3.59,2.28s1,2.12,5.16,3.21c7.61,2,10.49,4,10.49,9.45,0,5.92-4.19,9.29-11.79,9.29A26.24,26.24,0,0,1,746.06,155.1Z" style="fill:#374a63"/><path d="M292.84,155.46l29.65-30.65c6.73-6.85,10-11.68,10-17.52,0-7.52-4.6-11.34-12.69-11.34s-15.61,3.71-22.79,9.1l-2.25-14.94a44.21,44.21,0,0,1,27.4-9c17.07,0,27.29,9,27.29,24.48,0,11.11-5.28,18.19-15.73,28.52l-19.65,19.65h35.82v14.15h-57Z" style="fill:#01a5d4"/><path d="M365.72,155.8c16.84-3.48,29.87-11,34.25-25a35.2,35.2,0,0,1-20.1,6.51c-15.05,0-25.49-9-25.49-26.61,0-18.08,13-29.64,30.76-29.64,18.87,0,32,12.46,32,36,0,30.32-20.55,47.16-49.19,52.66Zm35.59-38v-.23c-.11-15.49-6.85-23.35-16.28-23.35-8.42,0-14.26,5.72-14.26,15.49,0,9.21,4.72,14.37,14.15,14.37C390.87,124.13,396.26,121.78,401.31,117.85Z" style="fill:#01a5d4"/><path d="M449.26,189.82l-2.13-13a24.14,24.14,0,0,0,7.07.9c4.27,0,7.86-1.91,9.66-6.29l1.23-3.26L442.86,108h17.52l13,40.43L486.09,108h15.72l-22.34,62.66c-5.39,14.94-12.35,19.77-24.37,19.77A23.21,23.21,0,0,1,449.26,189.82Z" style="fill:#01a5d4"/><path d="M527.3,163.32l2.47-15.16a45.09,45.09,0,0,0,23.47,7.08c9,0,15.61-4.49,15.61-13.48s-6.74-13.47-17-13.47A38.79,38.79,0,0,0,541,130l-10.33-2.35,3-45h48.51V96.74h-35l-1.46,18.52a49.06,49.06,0,0,1,9.09-.89c19,0,30.66,9.43,30.66,26.61,0,18.64-13,28.52-32,28.52C543.25,169.5,534,167,527.3,163.32Z" style="fill:#01a5d4"/><path d="M600,155.8c16.84-3.48,29.86-11,34.24-25a35.17,35.17,0,0,1-20.1,6.51c-15,0-25.49-9-25.49-26.61,0-18.08,13-29.64,30.77-29.64,18.87,0,32,12.46,32,36,0,30.32-20.55,47.16-49.18,52.66Zm35.59-38v-.23c-.11-15.49-6.85-23.35-16.28-23.35-8.42,0-14.26,5.72-14.26,15.49,0,9.21,4.71,14.37,14.15,14.37C625.11,124.13,630.5,121.78,635.55,117.85Z" style="fill:#01a5d4"/><g id="adulto_mujer"><path d="M133.07,32.26a16.13,16.13,0,1,0-16.13-16.13A16.19,16.19,0,0,0,133.07,32.26Z" style="fill:#14486d"/><path d="M178.62,95.83,165.34,52.5s-4.75-12.65-15.19-12.65H116.31c-10.44,0-15.18,12.65-15.18,12.65L87.85,95.83s-2.53,7.91,4.42,9.81c6.65,1.89,8.86-5.7,8.86-5.7l10.75-36s.64-2.85,2.53-2.22c2.22.64,1.27,3.48,1.27,3.48l-19,68h17.4v48.71a8.22,8.22,0,0,0,16.44,0V133.15h4.75v48.71a8.23,8.23,0,0,0,16.45,0V133.15h17.39L150.47,65.47s-.95-2.85,1.27-3.48,2.53,2.21,2.53,2.21L165,100.26s1.9,7.91,8.85,5.69S178.62,95.83,178.62,95.83Z" style="fill:#14486d"/></g><g id="adulto_hombre"><path d="M39.68,32.58A16.13,16.13,0,1,0,23.55,16.45,16.21,16.21,0,0,0,39.68,32.58Z" style="fill:#14486d"/><path d="M58.65,38.59H21c-10.44,0-19.61,10.12-19.61,21.5v44.6a6.33,6.33,0,0,0,12.65,0V62.62s0-2.84,2.53-2.84,2.85,2.84,2.85,2.84V181.23a8.86,8.86,0,0,0,17.71,0v-66.1a2.41,2.41,0,0,1,2.53-2.53h0a2.42,2.42,0,0,1,2.53,2.53v66.1a8.86,8.86,0,0,0,17.71,0V62.62s.32-2.84,2.85-2.84,2.53,2.84,2.53,2.84v42.07a6.33,6.33,0,0,0,12.65,0V60.09C78,48.71,69.41,38.59,58.65,38.59Z" style="fill:#14486d"/></g></g></g></svg>