<svg xmlns="http://www.w3.org/2000/svg" viewBox="0 0 566.44 249.14"><title>Asset 1</title><g id="Layer_2" data-name="Layer 2"><g id="Capa_1" data-name="Capa 1"><path d="M91.91,114.62l-2.32,33.15H81l3.54-46.49h12.3l11,34.2,11-34.2h12l3.55,46.49h-9.67l-2.32-33.15-11,33.28h-8.63Z" style="fill:#de1f26"/><path d="M137.05,131.5c0-10.64,6.43-17.06,15-17.06,9.91,0,14.26,7.4,14.26,16.7,0,.79,0,1.77-.07,2.63H145.8c.43,5.44,3.67,8.07,8.5,8.07,4,0,7.53-1.47,11.08-3.85l1,6.54a22.35,22.35,0,0,1-13,3.92C144,148.45,137.05,143.25,137.05,131.5ZM158,128.08c-.43-5-2.39-7.77-6.06-7.77-3.12,0-5.57,2.57-6.12,7.77Z" style="fill:#4c9b45"/><path d="M168,132.36c0-12.24,6.73-17.62,14.2-17.62a22.21,22.21,0,0,1,7.34,1.22V100.18h8.68v47.59h-7.46l-.73-4.4c-2.33,2.63-5.45,5.08-9.85,5.08C173.39,148.45,168,143.37,168,132.36Zm21.54,4.22V122.94a12.74,12.74,0,0,0-5.81-1.23c-4,0-7,3.19-7,10.1,0,6.12,2.51,8.93,5.94,8.93C185.38,140.74,187.52,139.09,189.54,136.58Z" style="fill:#03a5d4"/><path d="M201.34,131.5c0-10.64,6.42-17.06,15-17.06,9.91,0,14.25,7.4,14.25,16.7,0,.79,0,1.77-.06,2.63H210.09c.43,5.44,3.67,8.07,8.5,8.07,4,0,7.52-1.47,11.07-3.85l1,6.54a22.35,22.35,0,0,1-13,3.92C208.25,148.45,201.34,143.25,201.34,131.5Zm20.92-3.42c-.43-5-2.38-7.77-6.06-7.77-3.11,0-5.56,2.57-6.11,7.77Z" style="fill:#ea6524"/><path d="M234.25,100.18h8.68v47.59h-8.68Z" style="fill:#4c7838"/><path d="M248.38,100.18h8.68v47.59h-8.68Z" style="fill:#4c7838"/><path d="M261.59,115.11h8.68v32.66h-8.68Zm7.58-13.83h10.52v.55L270.46,111h-5.75Z" style="fill:#094c81"/><path d="M276.27,115.11h7.46l.74,4.52c3-2.87,6.42-5.19,10.7-5.19,6.12,0,9.36,3.73,9.36,9.91v23.42h-8.69v-21.1c0-2.69-1.16-4.53-4-4.53-2.39,0-4.71,1.47-6.92,3.74v21.89h-8.68Z" style="fill:#da1179"/><path d="M320.68,145.67l.9-5.95a19.71,19.71,0,0,0,9.9,3.15c2.65,0,3.95-.9,3.95-2.4s-.95-2.2-5-3.25c-6.6-1.7-9.35-3.55-9.35-8.55,0-4.8,3.7-8.1,10.1-8.1a24.35,24.35,0,0,1,9.6,2l-.95,5.9a19.61,19.61,0,0,0-8.65-2.45c-2.25,0-3.3.8-3.3,2.1s.9,2,4.75,3c7,1.85,9.65,3.7,9.65,8.7,0,5.45-3.85,8.55-10.85,8.55A24.16,24.16,0,0,1,320.68,145.67Z" style="fill:#374a63"/><path d="M343.38,134.47c0-8.7,5.25-14,12.3-14,8.1,0,11.65,6,11.65,13.65,0,.65,0,1.45-.05,2.15H350.53c.35,4.45,3,6.6,7,6.6a16,16,0,0,0,9-3.15l.8,5.35a18.28,18.28,0,0,1-10.65,3.2C349,148.32,343.38,144.07,343.38,134.47Zm17.1-2.8c-.35-4.1-2-6.35-5-6.35-2.55,0-4.55,2.1-5,6.35Z" style="fill:#374a63"/><path d="M370.38,155.83l1.05-5.71a18.45,18.45,0,0,0,8.6,2.2c4.05,0,6.05-1.9,6.05-5.5v-2.7a10.27,10.27,0,0,1-7.45,3.5c-5.55,0-9.95-4.15-9.95-12.85,0-9.5,5.35-14.05,13.4-14.05a32.87,32.87,0,0,1,11.1,1.85v24c0,7.2-4.1,11.26-12.6,11.26A26.65,26.65,0,0,1,370.38,155.83Zm15.7-17.51V127.17a9.85,9.85,0,0,0-3.85-.65c-3.9,0-6.4,2.4-6.4,8,0,4.75,2,7.05,4.8,7.05C382.73,141.52,384.48,140.17,386.08,138.32Z" style="fill:#374a63"/><path d="M397,140.22V121.07h7.1v17.25c0,2.2.95,3.7,3.2,3.7,2,0,3.85-1.2,5.65-3.05v-17.9H420v26.7h-6.1l-.6-3.7c-2.45,2.35-5.25,4.25-8.75,4.25C399.58,148.32,397,145.27,397,140.22Zm11.85-30.45h8.6v.45l-7.55,7.45h-4.7Z" style="fill:#374a63"/><path d="M423.93,121.07H430l.6,3.7c2.5-2.35,5.25-4.25,8.75-4.25,5,0,7.65,3,7.65,8.1v19.15h-7.1V130.52c0-2.2-.95-3.7-3.25-3.7-1.95,0-3.85,1.2-5.65,3.05v17.9h-7.1Z" style="fill:#374a63"/><path d="M79.77,28.23c0-11.75,7.2-19.7,18-19.7a19.94,19.94,0,0,1,10.61,2.7l-1.15,7.3a14.91,14.91,0,0,0-9.06-3.25c-6.4,0-10.45,4.85-10.45,12.9s4.4,12.9,10.8,12.9a17.21,17.21,0,0,0,9.36-3l1.1,6.7a20.9,20.9,0,0,1-11.06,3.1C86.67,47.83,79.77,40.08,79.77,28.23Z" style="fill:#374a63"/><path d="M112,39.63V20.48h7.1V37.73c0,2.2.95,3.7,3.2,3.7,2,0,3.85-1.2,5.65-3V20.48h7.1v26.7H129l-.6-3.7c-2.45,2.35-5.25,4.25-8.75,4.25C114.62,47.73,112,44.68,112,39.63Z" style="fill:#374a63"/><path d="M137.57,40.33c0-6.4,5.15-9.25,15.85-10.3v-.7c0-2.75-1.6-3.8-4.45-3.8a22.15,22.15,0,0,0-8.85,2.15l-.85-5.55A26.46,26.46,0,0,1,150,20c7.05,0,10.55,2.5,10.55,9v18.2h-6.2l-.55-3.4a11.81,11.81,0,0,1-8.7,3.95C140.57,47.73,137.57,45.08,137.57,40.33Zm15.85-.5V34c-7.15.9-8.85,3-8.85,5.5a2.81,2.81,0,0,0,3.1,3A8.51,8.51,0,0,0,153.42,39.83Zm-3.5-30.65h8.6v.45L151,17.08h-4.7Z" style="fill:#374a63"/><path d="M164.57,8.28h7.1v38.9h-7.1Z" style="fill:#374a63"/><path d="M185.57,33.88c0-8.7,5.25-14,12.3-14,8.1,0,11.65,6.05,11.65,13.65,0,.65,0,1.45-.05,2.15H192.72c.35,4.45,3,6.6,6.95,6.6a16,16,0,0,0,9.05-3.15l.8,5.35a18.28,18.28,0,0,1-10.65,3.2C191.22,47.73,185.57,43.48,185.57,33.88Zm17.1-2.8c-.35-4.1-1.95-6.35-4.95-6.35-2.55,0-4.55,2.1-5,6.35Z" style="fill:#374a63"/><path d="M210.87,45.08l.9-5.95a19.71,19.71,0,0,0,9.9,3.15c2.65,0,4-.9,4-2.4s-1-2.2-5-3.25c-6.6-1.7-9.35-3.55-9.35-8.55,0-4.8,3.7-8.1,10.1-8.1a24.35,24.35,0,0,1,9.6,1.95l-.95,5.9a19.61,19.61,0,0,0-8.65-2.45c-2.25,0-3.3.8-3.3,2.1s.9,1.95,4.75,2.95c7,1.85,9.65,3.7,9.65,8.7,0,5.45-3.85,8.55-10.85,8.55A24.16,24.16,0,0,1,210.87,45.08Z" style="fill:#374a63"/><path d="M244.67,33.88c0-8.7,5.25-14,12.3-14,8.1,0,11.65,6.05,11.65,13.65,0,.65,0,1.45-.05,2.15H251.82c.35,4.45,3,6.6,6.95,6.6a16,16,0,0,0,9.05-3.15l.8,5.35A18.28,18.28,0,0,1,258,47.73C250.32,47.73,244.67,43.48,244.67,33.88Zm17.1-2.8c-.35-4.1-1.95-6.35-4.95-6.35-2.55,0-4.55,2.1-5,6.35Z" style="fill:#374a63"/><path d="M271.57,8.28h7.1v38.9h-7.1Z" style="fill:#374a63"/><path d="M293.92,20.48H300l.6,3.6c1.9-2.15,4.45-4.15,8.05-4.15,5.55,0,9.95,4.15,9.95,13.2,0,9.95-5.5,14.35-11.6,14.35a18.05,18.05,0,0,1-6-1V56.73h-7.1Zm17.6,13.05c0-5-2.1-7.3-4.85-7.3-2.25,0-4,1.35-5.65,3.4V40.78a10.43,10.43,0,0,0,4.75,1C309.07,41.78,311.52,39.18,311.52,33.53Z" style="fill:#374a63"/><path d="M321.22,20.48h6.1l.85,5.35c1.7-3.1,4.25-5.7,8.35-5.9l1.15,7.1A12.48,12.48,0,0,0,328.32,32v15.2h-7.1Z" style="fill:#374a63"/><path d="M338.82,12.23a4.1,4.1,0,1,1,4.1,3.95A3.89,3.89,0,0,1,338.82,12.23Zm.55,8.25h7.1v26.7h-7.1Z" style="fill:#374a63"/><path d="M350.62,20.48h6.1l.6,3.7c2.5-2.35,5.25-4.25,8.75-4.25,5,0,7.65,3.05,7.65,8.1V47.18h-7.1V29.93c0-2.2-.95-3.7-3.25-3.7-1.95,0-3.85,1.2-5.65,3.05v17.9h-7.1Z" style="fill:#374a63"/><path d="M376.12,34c0-9.35,5.85-14,13.05-14a15.17,15.17,0,0,1,8.2,2.15l-1,6.35a10.64,10.64,0,0,0-6.75-2.4c-3.65,0-6.35,2.65-6.35,7.75,0,5.25,2.9,7.75,6.75,7.75a10.61,10.61,0,0,0,6.7-2.4l.9,6a14.85,14.85,0,0,1-8.75,2.55C381.37,47.68,376.12,42.68,376.12,34Z" style="fill:#374a63"/><path d="M399.82,12.23a4.1,4.1,0,1,1,4.1,3.95A3.89,3.89,0,0,1,399.82,12.23Zm.55,8.25h7.1v26.7h-7.1Z" style="fill:#374a63"/><path d="M411.62,20.48h6.1l.6,3.6c1.9-2.15,4.45-4.15,8.05-4.15,5.55,0,9.95,4.15,9.95,13.2,0,9.95-5.5,14.35-11.6,14.35a18.05,18.05,0,0,1-6-1V56.73h-7.1Zm17.6,13.05c0-5-2.1-7.3-4.85-7.3-2.25,0-4,1.35-5.65,3.4V40.78a10.43,10.43,0,0,0,4.75,1C426.77,41.78,429.22,39.18,429.22,33.53Z" style="fill:#374a63"/><path d="M437.52,40.33c0-6.4,5.15-9.25,15.85-10.3v-.7c0-2.75-1.6-3.8-4.45-3.8a22.15,22.15,0,0,0-8.85,2.15l-.85-5.55A26.46,26.46,0,0,1,449.92,20c7.05,0,10.55,2.5,10.55,9v18.2h-6.2l-.55-3.4a11.81,11.81,0,0,1-8.7,3.95C440.52,47.73,437.52,45.08,437.52,40.33Zm15.85-.5V34c-7.15.9-8.85,3-8.85,5.5a2.81,2.81,0,0,0,3.1,3A8.51,8.51,0,0,0,453.37,39.83Z" style="fill:#374a63"/><path d="M464.52,8.28h7.1v38.9h-7.1Z" style="fill:#374a63"/><path d="M80.57,63.48h6.1l.6,3.6c1.9-2.15,4.45-4.15,8-4.15,5.55,0,10,4.15,10,13.2,0,10-5.5,14.35-11.6,14.35a18.05,18.05,0,0,1-6-1V99.73h-7.1Zm17.6,13.05c0-5-2.1-7.3-4.85-7.3-2.25,0-4,1.35-5.65,3.4V83.78a10.43,10.43,0,0,0,4.75,1C95.73,84.78,98.17,82.18,98.17,76.53Z" style="fill:#374a63"/><path d="M107.87,63.48H114l.85,5.35c1.7-3.1,4.25-5.7,8.35-5.9l1.15,7.1A12.48,12.48,0,0,0,115,75v15.2h-7.1Z" style="fill:#374a63"/><path d="M124.37,76.88c0-8.65,5.4-13.95,12.65-13.95s12.71,5.25,12.71,13.9-5.41,13.9-12.76,13.9S124.37,85.53,124.37,76.88Zm18.45,0c0-4.75-2.1-8.15-5.8-8.15s-5.75,3.3-5.75,8.1,2,8.1,5.75,8.1S142.82,81.63,142.82,76.88Z" style="fill:#374a63"/><path d="M152.27,88.68V51.28h7.1V66.43a10.46,10.46,0,0,1,7.45-3.5c5.6,0,10,4.15,10,13.2,0,9.8-5.35,14.4-13.4,14.4A33.09,33.09,0,0,1,152.27,88.68Zm17.4-12.15c0-5-2-7.3-4.8-7.3-2.1,0-3.9,1.35-5.5,3.2V84.08a10.19,10.19,0,0,0,3.85.65C167.12,84.73,169.67,82.38,169.67,76.53Z" style="fill:#374a63"/><path d="M179.67,51.28h7.1v38.9h-7.1Z" style="fill:#374a63"/><path d="M189.57,76.88c0-8.7,5.25-13.95,12.3-13.95,8.1,0,11.65,6.05,11.65,13.65,0,.65,0,1.45-.05,2.15H196.72c.35,4.45,3,6.6,6.95,6.6a16,16,0,0,0,9.05-3.15l.8,5.35a18.28,18.28,0,0,1-10.65,3.2C195.22,90.73,189.57,86.48,189.57,76.88Zm17.1-2.8c-.35-4.1-1.95-6.35-4.95-6.35-2.55,0-4.55,2.1-5,6.35Z" style="fill:#374a63"/><path d="M216.17,63.48h6.1l.6,3.7c2.5-2.4,5.1-4.25,8.7-4.25s5.75,1.75,6.75,4.3c2.4-2.4,5.25-4.3,8.75-4.3,5,0,7.55,3.05,7.55,8.1V90.18h-7.1V72.93c0-2.2-.8-3.7-3.05-3.7-1.9,0-3.75,1.2-5.5,3v17.9h-7.1V72.93c0-2.2-.85-3.7-3.1-3.7-1.9,0-3.7,1.2-5.5,3v17.9h-7.1Z" style="fill:#374a63"/><path d="M257,83.33c0-6.4,5.15-9.25,15.85-10.3v-.7c0-2.75-1.6-3.8-4.45-3.8a22.15,22.15,0,0,0-8.85,2.15l-.85-5.55A26.46,26.46,0,0,1,269.42,63c7.05,0,10.55,2.5,10.55,9v18.2h-6.2l-.55-3.4a11.81,11.81,0,0,1-8.7,4C260,90.73,257,88.08,257,83.33Zm15.85-.5V77c-7.15.9-8.85,3-8.85,5.5a2.81,2.81,0,0,0,3.1,3A8.51,8.51,0,0,0,272.87,82.83Z" style="fill:#374a63"/><path d="M310.92,87.23a10.27,10.27,0,0,1-7.45,3.5c-5.55,0-10-4.15-10-13.15,0-9.85,5.35-14.45,13.4-14.45A32.87,32.87,0,0,1,318,65V99.73h-7.1Zm0-6V69.58a9.85,9.85,0,0,0-3.85-.65c-3.9,0-6.4,2.35-6.4,8.2,0,5,2,7.3,4.8,7.3C307.57,84.43,309.32,83.08,310.92,81.23Z" style="fill:#374a63"/><path d="M321.82,82.63V63.48h7.1V80.73c0,2.2.95,3.7,3.2,3.7,1.95,0,3.85-1.2,5.65-3.05V63.48h7.1v26.7h-6.1l-.6-3.7c-2.45,2.35-5.25,4.25-8.75,4.25C324.42,90.73,321.82,87.68,321.82,82.63Z" style="fill:#374a63"/><path d="M347.42,76.88c0-8.7,5.25-13.95,12.3-13.95,8.1,0,11.65,6.05,11.65,13.65,0,.65,0,1.45-.05,2.15H354.57c.35,4.45,3,6.6,6.95,6.6a16,16,0,0,0,9.05-3.15l.8,5.35a18.28,18.28,0,0,1-10.65,3.2C353.07,90.73,347.42,86.48,347.42,76.88Zm17.1-2.8c-.35-4.1-1.95-6.35-4.95-6.35-2.55,0-4.55,2.1-5,6.35Z" style="fill:#374a63"/><path d="M383.77,76.88c0-8.7,5.25-13.95,12.3-13.95,8.1,0,11.65,6.05,11.65,13.65,0,.65,0,1.45-.05,2.15H390.92c.35,4.45,3,6.6,6.95,6.6a16,16,0,0,0,9.05-3.15l.8,5.35a18.28,18.28,0,0,1-10.65,3.2C389.42,90.73,383.77,86.48,383.77,76.88Zm17.1-2.8c-.35-4.1-1.95-6.35-4.95-6.35-2.55,0-4.55,2.1-5,6.35Z" style="fill:#374a63"/><path d="M410.37,63.48h6.1l.6,3.7c2.5-2.35,5.25-4.25,8.75-4.25,5,0,7.65,3.05,7.65,8.1V90.18h-7.1V72.93c0-2.2-.95-3.7-3.25-3.7-1.95,0-3.85,1.2-5.65,3v17.9h-7.1Z" style="fill:#374a63"/><path d="M438.82,69.28H435v-5.8h3.8v-4.1c0-6.15,3.55-8.55,9.25-8.55a23.56,23.56,0,0,1,3.55.3v5.7a8.3,8.3,0,0,0-2.5-.3,3,3,0,0,0-3.3,3.3v3.65h5.5v5.8h-5.5v20.9h-7Z" style="fill:#374a63"/><path d="M452.92,63.48H459l.85,5.35c1.7-3.1,4.25-5.7,8.35-5.9l1.15,7.1A12.48,12.48,0,0,0,460,75v15.2h-7.1Z" style="fill:#374a63"/><path d="M469.42,76.88c0-8.7,5.25-13.95,12.3-13.95,8.1,0,11.65,6.05,11.65,13.65,0,.65,0,1.45-.05,2.15H476.57c.35,4.45,3,6.6,6.95,6.6a16,16,0,0,0,9.05-3.15l.8,5.35a18.28,18.28,0,0,1-10.65,3.2C475.07,90.73,469.42,86.48,469.42,76.88Zm17.1-2.8c-.35-4.1-1.95-6.35-4.95-6.35-2.55,0-4.55,2.1-5,6.35Z" style="fill:#374a63"/><path d="M496,63.48h6.1l.6,3.7c2.5-2.35,5.25-4.25,8.75-4.25,5,0,7.65,3.05,7.65,8.1V90.18H512V72.93c0-2.2-.95-3.7-3.25-3.7-1.95,0-3.85,1.2-5.65,3v17.9H496Z" style="fill:#374a63"/><path d="M524.27,82.33v-13h-3.7v-5.8h3.7V54.73h7.05v8.75h5.75v5.8h-5.75v11.9c0,2.15,1,3.3,3.45,3.3a11.92,11.92,0,0,0,2.45-.25v6a14.45,14.45,0,0,1-3.85.4C528,90.63,524.27,88.63,524.27,82.33Z" style="fill:#374a63"/><path d="M538.42,83.33c0-6.4,5.15-9.25,15.85-10.3v-.7c0-2.75-1.6-3.8-4.45-3.8A22.15,22.15,0,0,0,541,70.68l-.85-5.55A26.46,26.46,0,0,1,550.82,63c7,0,10.55,2.5,10.55,9v18.2h-6.2l-.55-3.4a11.81,11.81,0,0,1-8.7,4C541.42,90.73,538.42,88.08,538.42,83.33Zm15.85-.5V77c-7.15.9-8.85,3-8.85,5.5a2.81,2.81,0,0,0,3.1,3A8.51,8.51,0,0,0,554.27,82.83Z" style="fill:#374a63"/><path d="M148.82,159h9.83v53.86h-9.83Z" style="fill:#3fad49"/><path d="M162.53,194.42c0-12,7.48-19.31,17.51-19.31,10.18,0,17.59,7.27,17.59,19.24S190.15,213.6,180,213.6,162.53,206.4,162.53,194.42Zm25.55,0c0-6.58-2.91-11.28-8-11.28s-8,4.57-8,11.21,2.84,11.22,8,11.22S188.08,201,188.08,194.42Z" style="fill:#3fad49"/><path d="M199.36,209.93l1.25-8.24a27.3,27.3,0,0,0,13.71,4.36c3.67,0,5.47-1.24,5.47-3.32s-1.32-3-6.93-4.5c-9.14-2.35-12.94-4.92-12.94-11.84,0-6.64,5.12-11.21,14-11.21a33.51,33.51,0,0,1,13.29,2.7L225.88,186a27.27,27.27,0,0,0-12-3.39c-3.11,0-4.57,1.11-4.57,2.91s1.25,2.7,6.58,4.09c9.69,2.56,13.36,5.12,13.36,12,0,7.55-5.33,11.84-15,11.84A33.44,33.44,0,0,1,199.36,209.93Z" style="fill:#3fad49"/><path d="M248,159h9.83v21.53c3.12-2.84,6.86-5.4,11.64-5.4,7,0,10.66,4.22,10.66,11.21v26.52h-9.83V189c0-3-1.32-5.12-4.57-5.12-2.7,0-5.4,1.66-7.9,4.22v24.79H248Z" style="fill:#3fad49"/><path d="M283.48,194.42c0-12,7.48-19.31,17.52-19.31s17.58,7.27,17.58,19.24-7.48,19.25-17.65,19.25S283.48,206.4,283.48,194.42Zm25.55,0c0-6.58-2.91-11.28-8-11.28s-8,4.57-8,11.21,2.83,11.22,8,11.22S309,201,309,194.42Z" style="fill:#3fad49"/><path d="M322.12,175.87h8.44l.83,5.12c3.46-3.32,7.06-5.88,12.05-5.88s8,2.42,9.34,5.95c3.33-3.32,7.27-5.95,12.12-5.95,6.92,0,10.45,4.22,10.45,11.21v26.52h-9.83V189c0-3-1.11-5.12-4.22-5.12-2.63,0-5.19,1.66-7.62,4.22v24.79h-9.83V189c0-3-1.17-5.12-4.29-5.12-2.63,0-5.12,1.66-7.61,4.22v24.79h-9.83Z" style="fill:#3fad49"/><path d="M380.62,210.76V159h9.83v21c2.42-2.42,5.75-4.84,10.31-4.84,7.76,0,13.78,5.74,13.78,18.27,0,13.57-7.41,19.94-18.55,19.94A45.86,45.86,0,0,1,380.62,210.76Zm24.09-16.82c0-6.93-2.84-10.11-6.65-10.11-2.9,0-5.39,1.87-7.61,4.43v16.13a14.18,14.18,0,0,0,5.33.9C401.18,205.29,404.71,202,404.71,193.94Z" style="fill:#3fad49"/><path d="M418.15,175.87h8.44l1.18,7.41c2.35-4.3,5.88-7.9,11.56-8.17l1.59,9.83A17.26,17.26,0,0,0,428,191.79v21.05h-9.83Z" style="fill:#3fad49"/><path d="M441,194.42c0-12,7.27-19.31,17-19.31,11.22,0,16.13,8.37,16.13,18.9,0,.9,0,2-.07,3H450.89c.49,6.16,4.16,9.14,9.63,9.14,4.5,0,8.51-1.66,12.53-4.36l1.1,7.41a25.29,25.29,0,0,1-14.74,4.43C448.82,213.6,441,207.71,441,194.42Zm23.68-3.88c-.49-5.67-2.7-8.79-6.85-8.79-3.53,0-6.3,2.91-6.93,8.79Z" style="fill:#3fad49"/><path d="M476,209.93l1.24-8.24A27.33,27.33,0,0,0,491,206.05c3.67,0,5.47-1.24,5.47-3.32s-1.32-3-6.92-4.5c-9.14-2.35-12.95-4.92-12.95-11.84,0-6.64,5.12-11.21,14-11.21a33.6,33.6,0,0,1,13.3,2.7L502.54,186a27.27,27.27,0,0,0-12-3.39c-3.11,0-4.56,1.11-4.56,2.91s1.24,2.7,6.57,4.09c9.69,2.56,13.36,5.12,13.36,12,0,7.55-5.33,11.84-15,11.84A33.4,33.4,0,0,1,476,209.93Z" style="fill:#3fad49"/><path d="M50.21,70.21l-1,.35c-16,5.37-22.88,13.69-22.88,25.83,0,9.53,6.41,14.9,15.43,14.9,9.36,0,18-4.85,27.21-12.13l3.3,22.36c-9,7.46-20.11,12.66-35.54,12.66C14.5,134.18.46,121.18.46,98c0-19.07,11.61-33.46,30.34-40.22l1.38-14.22H47.79ZM53.33,29H27.16V0H53.33Z" style="fill:#216734"/><path d="M516.69,165.13l1-.34c14.74-6.07,22.88-13.7,22.88-25.83,0-9.54-6.41-14.91-15.42-14.91-9.37,0-18,4.85-27.22,12.13l-3.3-22.36c9-7.45,20.11-12.65,35.54-12.65,22.19,0,36.23,13,36.23,36.23,0,19.07-11.61,33.46-30.33,40.22l-1.39,14.21h-15.6Zm-3.12,41.26h26.18v29H513.57Z" style="fill:#216734"/><g id="joven_hombre"><path d="M8.23,244.93a4.25,4.25,0,0,0,4.12,4.21,4.37,4.37,0,0,0,4.12-4.21v-3.12H8.08v3.12Z" style="fill:#216734"/><path d="M18.9,244.93a4.2,4.2,0,0,0,4.58,3.89,3.91,3.91,0,0,0,3.81-3.89v-3.12H18.9Z" style="fill:#216734"/><path d="M10.21,185.68V177H9a10.08,10.08,0,0,0-9,10.14v21.35a2.88,2.88,0,0,0,3.05,2.65,2.81,2.81,0,0,0,2.59-2.65V190.36c0-.78.15-1.56,1.37-1.56h3.05l.15-3.12Z" style="fill:#216734"/><polygon points="13.42 183.81 22.41 183.81 22.41 177.11 17.68 177.11 13.42 177.11 13.42 183.81" style="fill:#216734"/><path d="M24.39,190.51h-.76v-4.83H12v4.83H8.23v49.11h8.39V212.81c0-.78.3-1.25,1.07-1.25h.15c.76,0,1.22.31,1.22,1.09v27h8.38V190.51Z" style="fill:#216734"/><path d="M26.53,177.11h-.92v11.53h2.75c1.22,0,1.37.94,1.37,1.56v18.24a2.88,2.88,0,0,0,3.05,2.65,2.81,2.81,0,0,0,2.59-2.65V187.09a9.9,9.9,0,0,0-8.84-10" style="fill:#216734"/><path d="M23,184.43a.92.92,0,1,0,1.83,0,.89.89,0,0,0-.91-.93c-.46.16-.92.47-.92.93" style="fill:#216734"/><path d="M11,184.43a.92.92,0,1,0,.91-.93c-.61.16-.91.47-.91.93" style="fill:#216734"/><path d="M22.72,165c-.77-.47-1.22-1.09-2.29-.47a8.51,8.51,0,0,0-2,1.09,14.35,14.35,0,0,1-4.88,1.4,30.59,30.59,0,0,1-3.81.32,7.93,7.93,0,0,0,8.54,7.32,8,8,0,0,0,7.16-7.17c-1.07-.78-1.83-1.71-2.74-2.49" style="fill:#216734"/><path d="M9.76,165.57a30.12,30.12,0,0,0,3.66-.31,20,20,0,0,0,4.27-1.4c1.21-.47,2.43-1.1,2.43-1.1a2.61,2.61,0,0,1,1.53-.15c.3.15.46.31.76.47l.46.46A24.89,24.89,0,0,0,25,165.26c.16.15.31.31.46.31a7.33,7.33,0,0,0,.15-2.18,10,10,0,0,0-2.13-5.61A1.77,1.77,0,0,0,21.8,157c-1.07.15-1.07-.47-1.68-1.1a6.9,6.9,0,0,0-6.7,1.1,16.76,16.76,0,0,0-5,7.17c-.46.78.3,1.4,1.37,1.4" style="fill:#216734"/></g><g id="adulto_hombre"><path d="M66.08,174a7.67,7.67,0,1,0-7.66-7.66A7.7,7.7,0,0,0,66.08,174Z" style="fill:#216734"/><path d="M75.1,176.88H57.21c-5,0-9.31,4.81-9.31,10.22v21.19a3,3,0,0,0,6,0v-20s0-1.35,1.2-1.35,1.35,1.35,1.35,1.35v56.36a4.21,4.21,0,1,0,8.42,0V213.25a1.15,1.15,0,0,1,1.2-1.2h0a1.15,1.15,0,0,1,1.2,1.2v31.41a4.21,4.21,0,0,0,8.42,0V188.3s.15-1.35,1.35-1.35,1.2,1.35,1.2,1.35v20a3,3,0,0,0,6,0V187.1C84.27,181.69,80.21,176.88,75.1,176.88Z" style="fill:#216734"/></g><g id="adulto_mayor_hombre"><path d="M123.09,164.66l-2.35.6-1-4.62c-.15-.6-.44-1.2-1.33-.9l-2.79.6a3.54,3.54,0,0,1-1.77,0l-2.94-.75c-.59-.15-1,.3-1.32.9l-1.48,4.62-2.35-.6a.77.77,0,0,0,0,1.49l1.91.45a8.93,8.93,0,0,0-.73,3.43,7.76,7.76,0,0,0,4.56,7.15,6.46,6.46,0,0,0,2.94.6,5.33,5.33,0,0,0,2.65-.6,7.64,7.64,0,0,0,4.86-7.15,8.93,8.93,0,0,0-.74-3.43l1.91-.45a.68.68,0,0,0,.59-.74C123.53,165,123.39,164.66,123.09,164.66Z" style="fill:#216734"/><path d="M123.24,176.88h-2.8a8.89,8.89,0,0,1-6,2.24,9.41,9.41,0,0,1-6-2.24h-2.8A10,10,0,0,0,96.46,187v21.16a2.53,2.53,0,0,0,1.32,2.38,3.78,3.78,0,0,0,2.36.45,2.89,2.89,0,0,0,2.21-2.83V190c0-.75.14-1.64,1.47-1.64.88,0,1,.89,1,1.49v54.7a4.27,4.27,0,1,0,8.53,0V213.1a1.13,1.13,0,0,1,1.18-1.19h0a1.13,1.13,0,0,1,1.18,1.19v31.45a4.27,4.27,0,1,0,8.53,0V190c0-.6.15-1.49,1-1.49,1.18,0,1.47.89,1.47,1.64v18.18a2.95,2.95,0,1,0,5.89,0V187.16A10.57,10.57,0,0,0,123.24,176.88Z" style="fill:#216734"/></g></g></g></svg>