<svg xmlns="http://www.w3.org/2000/svg" viewBox="0 0 759.83 240.29"><title>Asset 2</title><g id="Layer_2" data-name="Layer 2"><g id="Capa_1" data-name="Capa 1"><path d="M91.46,114.62l-2.33,33.15H80.57l3.54-46.49h12.3l11,34.2,11-34.2h12L134,147.77H124.3L122,114.62,111,147.9h-8.62Z" style="fill:#de1f26"/><path d="M136.59,131.5c0-10.64,6.43-17.06,15-17.06,9.91,0,14.26,7.4,14.26,16.7,0,.79,0,1.77-.07,2.63H145.34c.43,5.44,3.67,8.07,8.5,8.07,4,0,7.53-1.47,11.08-3.85l1,6.54a22.35,22.35,0,0,1-13,3.92C143.51,148.45,136.59,143.25,136.59,131.5Zm20.93-3.42c-.43-5-2.39-7.77-6.06-7.77-3.12,0-5.57,2.57-6.12,7.77Z" style="fill:#4c9b45"/><path d="M167.54,132.36c0-12.24,6.73-17.62,14.2-17.62a22.21,22.21,0,0,1,7.34,1.22V100.18h8.68v47.59H190.3l-.73-4.4c-2.33,2.63-5.45,5.08-9.85,5.08C172.93,148.45,167.54,143.37,167.54,132.36Zm21.54,4.22V122.94a12.74,12.74,0,0,0-5.81-1.23c-4,0-7,3.19-7,10.1,0,6.12,2.51,8.93,5.94,8.93C184.92,140.74,187.06,139.09,189.08,136.58Z" style="fill:#03a5d4"/><path d="M200.88,131.5c0-10.64,6.42-17.06,15.05-17.06,9.91,0,14.25,7.4,14.25,16.7,0,.79,0,1.77-.06,2.63H209.63c.43,5.44,3.67,8.07,8.5,8.07,4,0,7.53-1.47,11.07-3.85l1,6.54a22.35,22.35,0,0,1-13,3.92C207.79,148.45,200.88,143.25,200.88,131.5Zm20.92-3.42c-.43-5-2.38-7.77-6.05-7.77-3.12,0-5.57,2.57-6.12,7.77Z" style="fill:#ea6524"/><path d="M233.79,100.18h8.68v47.59h-8.68Z" style="fill:#4c7838"/><path d="M247.92,100.18h8.68v47.59h-8.68Z" style="fill:#4c7838"/><path d="M261.13,115.11h8.68v32.66h-8.68Zm7.58-13.83h10.53v.55L270,111h-5.75Z" style="fill:#094c81"/><path d="M275.81,115.11h7.46l.74,4.52c3.05-2.87,6.42-5.19,10.7-5.19,6.12,0,9.36,3.73,9.36,9.91v23.42h-8.69v-21.1c0-2.69-1.16-4.53-4-4.53-2.39,0-4.71,1.47-6.91,3.74v21.89h-8.69Z" style="fill:#da1179"/><path d="M320.22,145.67l.9-5.95a19.71,19.71,0,0,0,9.9,3.15c2.65,0,4-.9,4-2.4s-1-2.2-5-3.25c-6.6-1.7-9.35-3.55-9.35-8.55,0-4.8,3.7-8.1,10.1-8.1a24.35,24.35,0,0,1,9.6,2l-.95,5.9a19.61,19.61,0,0,0-8.65-2.45c-2.25,0-3.3.8-3.3,2.1s.9,2,4.75,3c7,1.85,9.65,3.7,9.65,8.7,0,5.45-3.85,8.55-10.85,8.55A24.16,24.16,0,0,1,320.22,145.67Z" style="fill:#374a63"/><path d="M342.92,134.47c0-8.7,5.25-14,12.3-14,8.1,0,11.65,6,11.65,13.65,0,.65,0,1.45-.05,2.15H350.07c.35,4.45,3,6.6,6.95,6.6a16,16,0,0,0,9.05-3.15l.8,5.35a18.28,18.28,0,0,1-10.65,3.2C348.57,148.32,342.92,144.07,342.92,134.47Zm17.1-2.8c-.35-4.1-1.95-6.35-4.95-6.35-2.55,0-4.55,2.1-5,6.35Z" style="fill:#374a63"/><path d="M369.92,155.83l1.05-5.71a18.45,18.45,0,0,0,8.6,2.2c4.05,0,6.05-1.9,6.05-5.5v-2.7a10.27,10.27,0,0,1-7.45,3.5c-5.55,0-9.95-4.15-9.95-12.85,0-9.5,5.35-14.05,13.4-14.05a32.87,32.87,0,0,1,11.1,1.85v24c0,7.2-4.1,11.26-12.6,11.26A26.65,26.65,0,0,1,369.92,155.83Zm15.7-17.51V127.17a9.85,9.85,0,0,0-3.85-.65c-3.9,0-6.4,2.4-6.4,8,0,4.75,2,7.05,4.8,7.05C382.27,141.52,384,140.17,385.62,138.32Z" style="fill:#374a63"/><path d="M396.52,140.22V121.07h7.1v17.25c0,2.2.95,3.7,3.2,3.7,1.95,0,3.85-1.2,5.65-3.05v-17.9h7.1v26.7h-6.1l-.6-3.7c-2.45,2.35-5.25,4.25-8.75,4.25C399.12,148.32,396.52,145.27,396.52,140.22Zm11.85-30.45H417v.45l-7.55,7.45h-4.7Z" style="fill:#374a63"/><path d="M423.47,121.07h6.1l.6,3.7c2.5-2.35,5.25-4.25,8.75-4.25,5,0,7.65,3,7.65,8.1v19.15h-7.1V130.52c0-2.2-1-3.7-3.25-3.7-2,0-3.85,1.2-5.65,3.05v17.9h-7.1Z" style="fill:#374a63"/><path d="M79.31,28.23c0-11.75,7.2-19.7,18-19.7a19.92,19.92,0,0,1,10.6,2.7l-1.15,7.3a14.86,14.86,0,0,0-9.06-3.25c-6.4,0-10.45,4.85-10.45,12.9s4.41,12.9,10.81,12.9a17.2,17.2,0,0,0,9.35-3l1.1,6.7a20.9,20.9,0,0,1-11.06,3.1C86.21,47.83,79.31,40.08,79.31,28.23Z" style="fill:#374a63"/><path d="M111.56,39.63V20.48h7.1V37.73c0,2.2,1,3.7,3.2,3.7,2,0,3.85-1.2,5.65-3V20.48h7.11v26.7h-6.11l-.59-3.7c-2.46,2.35-5.25,4.25-8.76,4.25C114.16,47.73,111.56,44.68,111.56,39.63Z" style="fill:#374a63"/><path d="M137.11,40.33c0-6.4,5.15-9.25,15.85-10.3v-.7c0-2.75-1.6-3.8-4.45-3.8a22.15,22.15,0,0,0-8.85,2.15l-.85-5.55A26.46,26.46,0,0,1,149.51,20c7.05,0,10.56,2.5,10.56,9v18.2h-6.21l-.55-3.4a11.81,11.81,0,0,1-8.7,3.95C140.11,47.73,137.11,45.08,137.11,40.33Zm15.85-.5V34c-7.15.9-8.85,3-8.85,5.5a2.81,2.81,0,0,0,3.1,3A8.51,8.51,0,0,0,153,39.83Zm-3.5-30.65h8.6v.45l-7.55,7.45h-4.7Z" style="fill:#374a63"/><path d="M164.11,8.28h7.1v38.9h-7.1Z" style="fill:#374a63"/><path d="M185.11,33.88c0-8.7,5.25-14,12.3-14,8.1,0,11.65,6.05,11.65,13.65,0,.65,0,1.45-.05,2.15H192.26c.35,4.45,3,6.6,7,6.6a16,16,0,0,0,9-3.15l.8,5.35a18.28,18.28,0,0,1-10.65,3.2C190.76,47.73,185.11,43.48,185.11,33.88Zm17.1-2.8c-.35-4.1-2-6.35-5-6.35-2.55,0-4.55,2.1-5,6.35Z" style="fill:#374a63"/><path d="M210.41,45.08l.9-5.95a19.71,19.71,0,0,0,9.9,3.15c2.65,0,3.95-.9,3.95-2.4s-.95-2.2-5-3.25c-6.6-1.7-9.35-3.55-9.35-8.55,0-4.8,3.7-8.1,10.1-8.1a24.35,24.35,0,0,1,9.6,1.95l-.95,5.9a19.61,19.61,0,0,0-8.65-2.45c-2.25,0-3.3.8-3.3,2.1s.9,1.95,4.75,2.95c7,1.85,9.65,3.7,9.65,8.7,0,5.45-3.85,8.55-10.85,8.55A24.16,24.16,0,0,1,210.41,45.08Z" style="fill:#374a63"/><path d="M244.21,33.88c0-8.7,5.25-14,12.3-14,8.1,0,11.65,6.05,11.65,13.65,0,.65,0,1.45-.05,2.15H251.36c.35,4.45,3,6.6,6.95,6.6a16,16,0,0,0,9.05-3.15l.8,5.35a18.28,18.28,0,0,1-10.65,3.2C249.86,47.73,244.21,43.48,244.21,33.88Zm17.1-2.8c-.35-4.1-1.95-6.35-4.95-6.35-2.55,0-4.55,2.1-5,6.35Z" style="fill:#374a63"/><path d="M271.11,8.28h7.1v38.9h-7.1Z" style="fill:#374a63"/><path d="M293.46,20.48h6.1l.6,3.6c1.9-2.15,4.45-4.15,8-4.15,5.55,0,10,4.15,10,13.2,0,9.95-5.5,14.35-11.6,14.35a18.05,18.05,0,0,1-6-1V56.73h-7.1Zm17.6,13.05c0-5-2.1-7.3-4.85-7.3-2.25,0-4,1.35-5.65,3.4V40.78a10.43,10.43,0,0,0,4.75,1C308.61,41.78,311.06,39.18,311.06,33.53Z" style="fill:#374a63"/><path d="M320.76,20.48h6.1l.85,5.35c1.7-3.1,4.25-5.7,8.35-5.9l1.15,7.1A12.48,12.48,0,0,0,327.86,32v15.2h-7.1Z" style="fill:#374a63"/><path d="M338.36,12.23a4.1,4.1,0,1,1,4.1,3.95A3.89,3.89,0,0,1,338.36,12.23Zm.55,8.25H346v26.7h-7.1Z" style="fill:#374a63"/><path d="M350.16,20.48h6.1l.6,3.7c2.5-2.35,5.25-4.25,8.75-4.25,5,0,7.65,3.05,7.65,8.1V47.18h-7.1V29.93c0-2.2-1-3.7-3.25-3.7-2,0-3.85,1.2-5.65,3.05v17.9h-7.1Z" style="fill:#374a63"/><path d="M375.66,34c0-9.35,5.85-14,13-14a15.17,15.17,0,0,1,8.2,2.15l-1,6.35a10.64,10.64,0,0,0-6.75-2.4c-3.65,0-6.35,2.65-6.35,7.75,0,5.25,2.9,7.75,6.75,7.75a10.61,10.61,0,0,0,6.7-2.4l.9,6a14.85,14.85,0,0,1-8.75,2.55C380.91,47.68,375.66,42.68,375.66,34Z" style="fill:#374a63"/><path d="M399.36,12.23a4.1,4.1,0,1,1,4.1,3.95A3.89,3.89,0,0,1,399.36,12.23Zm.55,8.25H407v26.7h-7.1Z" style="fill:#374a63"/><path d="M411.16,20.48h6.1l.6,3.6c1.9-2.15,4.45-4.15,8.05-4.15,5.55,0,9.95,4.15,9.95,13.2,0,9.95-5.5,14.35-11.6,14.35a18.05,18.05,0,0,1-6-1V56.73h-7.1Zm17.6,13.05c0-5-2.1-7.3-4.85-7.3-2.25,0-4,1.35-5.65,3.4V40.78a10.43,10.43,0,0,0,4.75,1C426.31,41.78,428.76,39.18,428.76,33.53Z" style="fill:#374a63"/><path d="M437.06,40.33c0-6.4,5.15-9.25,15.85-10.3v-.7c0-2.75-1.6-3.8-4.45-3.8a22.15,22.15,0,0,0-8.85,2.15l-.85-5.55A26.46,26.46,0,0,1,449.46,20c7.05,0,10.55,2.5,10.55,9v18.2h-6.2l-.55-3.4a11.81,11.81,0,0,1-8.7,3.95C440.06,47.73,437.06,45.08,437.06,40.33Zm15.85-.5V34c-7.15.9-8.85,3-8.85,5.5a2.81,2.81,0,0,0,3.1,3A8.51,8.51,0,0,0,452.91,39.83Z" style="fill:#374a63"/><path d="M464.06,8.28h7.1v38.9h-7.1Z" style="fill:#374a63"/><path d="M80.11,63.48h6.1l.6,3.6c1.9-2.15,4.45-4.15,8.06-4.15,5.55,0,9.95,4.15,9.95,13.2,0,10-5.5,14.35-11.61,14.35a18.05,18.05,0,0,1-6-1V99.73h-7.1Zm17.6,13.05c0-5-2.09-7.3-4.84-7.3-2.25,0-4,1.35-5.66,3.4V83.78a10.46,10.46,0,0,0,4.75,1C95.27,84.78,97.71,82.18,97.71,76.53Z" style="fill:#374a63"/><path d="M107.41,63.48h6.1l.85,5.35c1.7-3.1,4.26-5.7,8.35-5.9l1.16,7.1a12.49,12.49,0,0,0-9.36,5v15.2h-7.1Z" style="fill:#374a63"/><path d="M123.91,76.88c0-8.65,5.4-13.95,12.65-13.95s12.71,5.25,12.71,13.9-5.4,13.9-12.76,13.9S123.91,85.53,123.91,76.88Zm18.45,0c0-4.75-2.1-8.15-5.8-8.15s-5.75,3.3-5.75,8.1,2.05,8.1,5.75,8.1S142.36,81.63,142.36,76.88Z" style="fill:#374a63"/><path d="M151.81,88.68V51.28h7.1V66.43a10.46,10.46,0,0,1,7.45-3.5c5.6,0,10,4.15,10,13.2,0,9.8-5.36,14.4-13.41,14.4A33.09,33.09,0,0,1,151.81,88.68Zm17.4-12.15c0-5-2.05-7.3-4.8-7.3-2.1,0-3.9,1.35-5.5,3.2V84.08a10.19,10.19,0,0,0,3.85.65C166.66,84.73,169.21,82.38,169.21,76.53Z" style="fill:#374a63"/><path d="M179.21,51.28h7.1v38.9h-7.1Z" style="fill:#374a63"/><path d="M189.11,76.88c0-8.7,5.25-13.95,12.3-13.95,8.1,0,11.65,6.05,11.65,13.65,0,.65,0,1.45-.05,2.15H196.26c.35,4.45,3,6.6,7,6.6a16,16,0,0,0,9-3.15l.8,5.35a18.28,18.28,0,0,1-10.65,3.2C194.76,90.73,189.11,86.48,189.11,76.88Zm17.1-2.8c-.35-4.1-2-6.35-5-6.35-2.55,0-4.55,2.1-5,6.35Z" style="fill:#374a63"/><path d="M215.71,63.48h6.1l.6,3.7c2.5-2.4,5.1-4.25,8.7-4.25s5.75,1.75,6.75,4.3c2.4-2.4,5.25-4.3,8.76-4.3,5,0,7.55,3.05,7.55,8.1V90.18h-7.11V72.93c0-2.2-.8-3.7-3.05-3.7-1.9,0-3.75,1.2-5.5,3v17.9h-7.1V72.93c0-2.2-.85-3.7-3.1-3.7-1.9,0-3.7,1.2-5.5,3v17.9h-7.1Z" style="fill:#374a63"/><path d="M256.56,83.33c0-6.4,5.15-9.25,15.85-10.3v-.7c0-2.75-1.6-3.8-4.45-3.8a22.15,22.15,0,0,0-8.85,2.15l-.85-5.55A26.46,26.46,0,0,1,269,63c7.05,0,10.55,2.5,10.55,9v18.2h-6.2l-.55-3.4a11.81,11.81,0,0,1-8.7,4C259.56,90.73,256.56,88.08,256.56,83.33Zm15.85-.5V77c-7.15.9-8.85,3-8.85,5.5a2.81,2.81,0,0,0,3.1,3A8.51,8.51,0,0,0,272.41,82.83Z" style="fill:#374a63"/><path d="M310.46,87.23a10.27,10.27,0,0,1-7.45,3.5c-5.55,0-9.95-4.15-9.95-13.15,0-9.85,5.35-14.45,13.4-14.45A32.87,32.87,0,0,1,317.56,65V99.73h-7.1Zm0-6V69.58a9.85,9.85,0,0,0-3.85-.65c-3.9,0-6.4,2.35-6.4,8.2,0,5,2,7.3,4.8,7.3C307.11,84.43,308.86,83.08,310.46,81.23Z" style="fill:#374a63"/><path d="M321.36,82.63V63.48h7.1V80.73c0,2.2,1,3.7,3.2,3.7,1.95,0,3.85-1.2,5.65-3.05V63.48h7.1v26.7h-6.1l-.6-3.7c-2.45,2.35-5.25,4.25-8.75,4.25C324,90.73,321.36,87.68,321.36,82.63Z" style="fill:#374a63"/><path d="M347,76.88c0-8.7,5.25-13.95,12.3-13.95,8.1,0,11.65,6.05,11.65,13.65,0,.65,0,1.45-.05,2.15H354.11c.35,4.45,3,6.6,6.95,6.6a16,16,0,0,0,9.05-3.15l.8,5.35a18.28,18.28,0,0,1-10.65,3.2C352.61,90.73,347,86.48,347,76.88Zm17.1-2.8c-.35-4.1-1.95-6.35-4.95-6.35-2.55,0-4.55,2.1-5,6.35Z" style="fill:#374a63"/><path d="M383.31,76.88c0-8.7,5.25-13.95,12.3-13.95,8.1,0,11.65,6.05,11.65,13.65,0,.65,0,1.45-.05,2.15H390.46c.35,4.45,3,6.6,7,6.6a16,16,0,0,0,9-3.15l.8,5.35a18.28,18.28,0,0,1-10.65,3.2C389,90.73,383.31,86.48,383.31,76.88Zm17.1-2.8c-.35-4.1-2-6.35-5-6.35-2.55,0-4.55,2.1-5,6.35Z" style="fill:#374a63"/><path d="M409.91,63.48H416l.6,3.7c2.5-2.35,5.25-4.25,8.75-4.25,5,0,7.65,3.05,7.65,8.1V90.18h-7.1V72.93c0-2.2-1-3.7-3.25-3.7-2,0-3.85,1.2-5.65,3v17.9h-7.1Z" style="fill:#374a63"/><path d="M438.36,69.28h-3.8v-5.8h3.8v-4.1c0-6.15,3.55-8.55,9.25-8.55a23.56,23.56,0,0,1,3.55.3v5.7a8.3,8.3,0,0,0-2.5-.3,3,3,0,0,0-3.3,3.3v3.65h5.5v5.8h-5.5v20.9h-7Z" style="fill:#374a63"/><path d="M452.46,63.48h6.1l.85,5.35c1.7-3.1,4.25-5.7,8.35-5.9l1.15,7.1a12.48,12.48,0,0,0-9.35,5v15.2h-7.1Z" style="fill:#374a63"/><path d="M469,76.88c0-8.7,5.25-13.95,12.3-13.95,8.1,0,11.65,6.05,11.65,13.65,0,.65,0,1.45-.05,2.15H476.11c.35,4.45,3,6.6,6.95,6.6a16,16,0,0,0,9.05-3.15l.8,5.35a18.28,18.28,0,0,1-10.65,3.2C474.61,90.73,469,86.48,469,76.88Zm17.1-2.8c-.35-4.1-1.95-6.35-4.95-6.35-2.55,0-4.55,2.1-5,6.35Z" style="fill:#374a63"/><path d="M495.56,63.48h6.1l.6,3.7c2.5-2.35,5.25-4.25,8.75-4.25,5,0,7.65,3.05,7.65,8.1V90.18h-7.1V72.93c0-2.2-.95-3.7-3.25-3.7-1.95,0-3.85,1.2-5.65,3v17.9h-7.1Z" style="fill:#374a63"/><path d="M523.81,82.33v-13h-3.7v-5.8h3.7V54.73h7.05v8.75h5.75v5.8h-5.75v11.9c0,2.15,1,3.3,3.45,3.3a11.92,11.92,0,0,0,2.45-.25v6a14.45,14.45,0,0,1-3.85.4C527.51,90.63,523.81,88.63,523.81,82.33Z" style="fill:#374a63"/><path d="M538,83.33c0-6.4,5.15-9.25,15.85-10.3v-.7c0-2.75-1.6-3.8-4.45-3.8a22.15,22.15,0,0,0-8.85,2.15l-.85-5.55A26.46,26.46,0,0,1,550.36,63c7,0,10.55,2.5,10.55,9v18.2h-6.2l-.55-3.4a11.81,11.81,0,0,1-8.7,4C541,90.73,538,88.08,538,83.33Zm15.85-.5V77c-7.15.9-8.85,3-8.85,5.5a2.81,2.81,0,0,0,3.1,3A8.51,8.51,0,0,0,553.81,82.83Z" style="fill:#374a63"/><path d="M82,159h9.83v53.86H82Z" style="fill:#3fad49"/><path d="M95.7,194.42c0-12,7.47-19.31,17.51-19.31s17.59,7.27,17.59,19.24-7.48,19.25-17.66,19.25S95.7,206.4,95.7,194.42Zm25.54,0c0-6.58-2.91-11.28-8-11.28s-8,4.57-8,11.21,2.84,11.22,8,11.22S121.24,201,121.24,194.42Z" style="fill:#3fad49"/><path d="M132.53,209.93l1.24-8.24a27.33,27.33,0,0,0,13.71,4.36c3.67,0,5.47-1.24,5.47-3.32s-1.31-3-6.92-4.5c-9.14-2.35-12.95-4.92-12.95-11.84,0-6.64,5.13-11.21,14-11.21a33.59,33.59,0,0,1,13.29,2.7L159,186a27.19,27.19,0,0,0-12-3.39c-3.12,0-4.57,1.11-4.57,2.91s1.24,2.7,6.57,4.09c9.7,2.56,13.37,5.12,13.37,12,0,7.55-5.34,11.84-15,11.84A33.43,33.43,0,0,1,132.53,209.93Z" style="fill:#3fad49"/><path d="M181.2,159H191v21.53c3.12-2.84,6.85-5.4,11.63-5.4,7,0,10.66,4.22,10.66,11.21v26.52h-9.83V189c0-3-1.31-5.12-4.57-5.12-2.7,0-5.4,1.66-7.89,4.22v24.79H181.2Z" style="fill:#3fad49"/><path d="M216.65,194.42c0-12,7.48-19.31,17.51-19.31,10.18,0,17.59,7.27,17.59,19.24s-7.48,19.25-17.66,19.25C224.06,213.6,216.65,206.4,216.65,194.42Zm25.54,0c0-6.58-2.9-11.28-8-11.28s-8,4.57-8,11.21,2.84,11.22,8,11.22S242.19,201,242.19,194.42Z" style="fill:#3fad49"/><path d="M255.28,175.87h8.45l.83,5.12c3.46-3.32,7.06-5.88,12-5.88s8,2.42,9.35,5.95c3.32-3.32,7.27-5.95,12.11-5.95,6.93,0,10.46,4.22,10.46,11.21v26.52h-9.83V189c0-3-1.11-5.12-4.22-5.12-2.64,0-5.2,1.66-7.62,4.22v24.79H277V189c0-3-1.18-5.12-4.29-5.12-2.63,0-5.13,1.66-7.62,4.22v24.79h-9.83Z" style="fill:#3fad49"/><path d="M313.79,210.76V159h9.83v21c2.42-2.42,5.74-4.84,10.31-4.84,7.76,0,13.78,5.74,13.78,18.27,0,13.57-7.41,19.94-18.56,19.94A45.84,45.84,0,0,1,313.79,210.76Zm24.09-16.82c0-6.93-2.84-10.11-6.65-10.11-2.91,0-5.4,1.87-7.61,4.43v16.13a14.15,14.15,0,0,0,5.33.9C334.35,205.29,337.88,202,337.88,193.94Z" style="fill:#3fad49"/><path d="M351.31,175.87h8.45l1.17,7.41c2.36-4.3,5.89-7.9,11.57-8.17l1.59,9.83a17.26,17.26,0,0,0-12.95,6.85v21.05h-9.83Z" style="fill:#3fad49"/><path d="M374.16,194.42c0-12,7.27-19.31,17-19.31,11.21,0,16.13,8.37,16.13,18.9,0,.9,0,2-.07,3H384.06c.48,6.16,4.15,9.14,9.62,9.14,4.5,0,8.52-1.66,12.53-4.36l1.11,7.41a25.32,25.32,0,0,1-14.75,4.43C382,213.6,374.16,207.71,374.16,194.42Zm23.68-3.88c-.49-5.67-2.7-8.79-6.86-8.79-3.53,0-6.3,2.91-6.92,8.79Z" style="fill:#3fad49"/><path d="M409.19,209.93l1.25-8.24a27.27,27.27,0,0,0,13.71,4.36c3.66,0,5.46-1.24,5.46-3.32s-1.31-3-6.92-4.5c-9.14-2.35-12.94-4.92-12.94-11.84,0-6.64,5.12-11.21,14-11.21a33.55,33.55,0,0,1,13.29,2.7L435.71,186a27.27,27.27,0,0,0-12-3.39c-3.12,0-4.57,1.11-4.57,2.91s1.25,2.7,6.58,4.09c9.69,2.56,13.36,5.12,13.36,12,0,7.55-5.33,11.84-15,11.84A33.44,33.44,0,0,1,409.19,209.93Z" style="fill:#3fad49"/><path d="M452.53,226.41l-1.24-7.9a11.39,11.39,0,0,0,2.9.35c2.43,0,4.09-1.18,4.09-4.5V175.87h9.83v39.25c0,8.31-4.85,11.56-11.91,11.56A17.76,17.76,0,0,1,452.53,226.41Zm5-62a5.68,5.68,0,0,1,11.35,0,5.68,5.68,0,0,1-11.35,0Z" style="fill:#3fad49"/><path d="M472,194.42c0-12,7.47-19.31,17.51-19.31s17.59,7.27,17.59,19.24-7.48,19.25-17.66,19.25S472,206.4,472,194.42Zm25.54,0c0-6.58-2.9-11.28-8-11.28s-8,4.57-8,11.21,2.84,11.22,8,11.22S497.53,201,497.53,194.42Zm-6.43-34.2H503v.63l-10.45,10.31H486Z" style="fill:#3fad49"/><path d="M507.23,175.87H518l7.75,24.85,7.62-24.85h9.69l-13,37.11h-9.69Z" style="fill:#3fad49"/><path d="M543.23,194.42c0-12,7.27-19.31,17-19.31,11.22,0,16.13,8.37,16.13,18.9,0,.9,0,2-.07,3H553.13c.48,6.16,4.15,9.14,9.62,9.14,4.5,0,8.52-1.66,12.53-4.36l1.11,7.41a25.29,25.29,0,0,1-14.74,4.43C551.05,213.6,543.23,207.71,543.23,194.42Zm23.68-3.88c-.49-5.67-2.7-8.79-6.86-8.79-3.53,0-6.3,2.91-6.92,8.79Z" style="fill:#3fad49"/><path d="M580.06,175.87h8.45l.83,5.12c3.46-3.25,7.27-5.88,12.11-5.88,6.93,0,10.6,4.22,10.6,11.21v26.52h-9.83V189c0-3-1.32-5.12-4.5-5.12-2.7,0-5.33,1.66-7.83,4.22v24.79h-9.83Z" style="fill:#3fad49"/><path d="M615.37,194.42c0-12,7.27-19.31,17-19.31,11.22,0,16.13,8.37,16.13,18.9,0,.9,0,2-.07,3H625.27c.49,6.16,4.16,9.14,9.63,9.14,4.5,0,8.51-1.66,12.53-4.36l1.1,7.41a25.29,25.29,0,0,1-14.74,4.43C623.2,213.6,615.37,207.71,615.37,194.42Zm23.68-3.88c-.49-5.67-2.7-8.79-6.86-8.79-3.53,0-6.29,2.91-6.92,8.79Z" style="fill:#3fad49"/><path d="M650.41,209.93l1.24-8.24a27.33,27.33,0,0,0,13.71,4.36c3.67,0,5.47-1.24,5.47-3.32s-1.32-3-6.92-4.5c-9.14-2.35-12.95-4.92-12.95-11.84,0-6.64,5.12-11.21,14-11.21a33.6,33.6,0,0,1,13.3,2.7L676.92,186a27.27,27.27,0,0,0-12-3.39c-3.11,0-4.57,1.11-4.57,2.91s1.25,2.7,6.58,4.09c9.69,2.56,13.36,5.12,13.36,12,0,7.55-5.33,11.84-15,11.84A33.36,33.36,0,0,1,650.41,209.93Z" style="fill:#3fad49"/><path d="M49.75,70.21l-1,.35c-16,5.37-22.88,13.69-22.88,25.83,0,9.53,6.41,14.9,15.43,14.9,9.36,0,18-4.85,27.22-12.13l3.29,22.36c-9,7.46-20.11,12.66-35.54,12.66C14,134.18,0,121.18,0,98,0,78.88,11.61,64.49,30.34,57.73l1.38-14.22H47.33ZM52.87,29H26.7V0H52.87Z" style="fill:#216734"/><path d="M710.08,170.08l1-.34C725.85,163.67,734,156,734,143.91c0-9.54-6.41-14.91-15.43-14.91-9.36,0-18,4.85-27.22,12.13l-3.29-22.36c9-7.45,20.11-12.65,35.54-12.65,22.19,0,36.23,13,36.23,36.23,0,19.07-11.61,33.46-30.34,40.22l-1.38,14.21H712.5ZM707,211.34h26.17v28.95H707Z" style="fill:#216734"/><g id="joven_hombre"><path d="M617.19,158.16a7.37,7.37,0,0,0,7.22,7.23,7.57,7.57,0,0,0,7.23-7.23v-5.35H616.92v5.35Z" style="fill:#216734"/><path d="M635.92,158.16a7.31,7.31,0,0,0,8,6.69c3.75-.26,6.69-2.94,6.69-6.69v-5.35H635.92Z" style="fill:#216734"/><path d="M620.67,56.46v-15h-2.15a17.45,17.45,0,0,0-15.79,17.4V95.54a5.05,5.05,0,0,0,5.36,4.55c2.41-.27,4.55-2.15,4.55-4.55V64.49c0-1.34.26-2.68,2.41-2.68h5.35l.27-5.35Z" style="fill:#216734"/><polygon points="626.29 53.25 642.08 53.25 642.08 41.74 633.78 41.74 626.29 41.74 626.29 53.25" style="fill:#216734"/><path d="M645.56,64.76h-1.34v-8.3H623.88v8.3h-6.69v84.3h14.72V103c0-1.34.53-2.14,1.87-2.14h.27c1.34,0,2.14.53,2.14,1.87v46.3h14.72V64.76Z" style="fill:#216734"/><path d="M649.3,41.74h-1.6V61.55h4.81c2.15,0,2.41,1.6,2.41,2.67V95.54a5.05,5.05,0,0,0,5.36,4.55c2.4-.27,4.55-2.15,4.55-4.55V58.87c.26-8.83-6.69-16.06-15.53-17.13" style="fill:#216734"/><path d="M643.15,54.32a1.61,1.61,0,1,0,1.6-1.61c-.8.27-1.6.81-1.6,1.61" style="fill:#216734"/><path d="M622,54.32a1.61,1.61,0,1,0,1.61-1.61c-1.07.27-1.61.81-1.61,1.61" style="fill:#216734"/><path d="M642.61,20.87c-1.34-.81-2.14-1.88-4-.81a15.15,15.15,0,0,0-3.48,1.88,25.8,25.8,0,0,1-8.57,2.4,55.85,55.85,0,0,1-6.69.54,13.86,13.86,0,0,0,15,12.58c6.42-.54,11.51-5.35,12.58-12.31-1.87-1.34-3.21-2.95-4.82-4.28" style="fill:#216734"/><path d="M619.86,21.94a51.63,51.63,0,0,0,6.43-.54A34.87,34.87,0,0,0,633.78,19c2.14-.8,4.28-1.87,4.28-1.87a4.61,4.61,0,0,1,2.68-.27c.53.27.8.54,1.34.8l.8.81s.54.53,3.75,2.94c.26.27.53.54.8.54s.27-2.41.27-3.75A17.13,17.13,0,0,0,644,8.55,3.12,3.12,0,0,0,641,7.22c-1.88.26-1.88-.81-3-1.88a12.35,12.35,0,0,0-11.77,1.88,29.1,29.1,0,0,0-8.84,12.31c-.8,1.34.54,2.41,2.41,2.41" style="fill:#216734"/></g></g></g></svg>