<svg xmlns="http://www.w3.org/2000/svg" viewBox="0 0 684.05 275.39"><title>Asset 3</title><g id="Layer_2" data-name="Layer 2"><g id="Capa_1" data-name="Capa 1"><path d="M91.46,149.71l-2.33,33.16H80.57l3.54-46.49h12.3l11,34.19,11-34.19h12L134,182.87H124.3L122,149.71,111,183h-8.62Z" style="fill:#de1f26"/><path d="M136.59,166.6c0-10.65,6.43-17.07,15-17.07,9.91,0,14.26,7.4,14.26,16.7,0,.79,0,1.77-.07,2.63H145.34c.43,5.44,3.67,8.08,8.5,8.08,4,0,7.53-1.47,11.08-3.86l1,6.55a22.42,22.42,0,0,1-13,3.91C143.51,183.54,136.59,178.34,136.59,166.6Zm20.93-3.43c-.43-5-2.39-7.77-6.06-7.77-3.12,0-5.57,2.57-6.12,7.77Z" style="fill:#4c9b45"/><path d="M167.54,167.45c0-12.23,6.73-17.61,14.2-17.61a22.21,22.21,0,0,1,7.34,1.22V135.28h8.68v47.59H190.3l-.73-4.41c-2.33,2.63-5.45,5.08-9.85,5.08C172.93,183.54,167.54,178.46,167.54,167.45Zm21.54,4.22V158a12.87,12.87,0,0,0-5.81-1.22c-4,0-7,3.18-7,10.09,0,6.12,2.51,8.93,5.94,8.93C184.92,175.83,187.06,174.18,189.08,171.67Z" style="fill:#03a5d4"/><path d="M200.88,166.6c0-10.65,6.42-17.07,15.05-17.07,9.91,0,14.25,7.4,14.25,16.7,0,.79,0,1.77-.06,2.63H209.63c.43,5.44,3.67,8.08,8.5,8.08,4,0,7.53-1.47,11.07-3.86l1,6.55a22.42,22.42,0,0,1-13,3.91C207.79,183.54,200.88,178.34,200.88,166.6Zm20.92-3.43c-.43-5-2.38-7.77-6.05-7.77-3.12,0-5.57,2.57-6.12,7.77Z" style="fill:#ea6524"/><path d="M233.79,135.28h8.68v47.59h-8.68Z" style="fill:#4c7838"/><path d="M247.92,135.28h8.68v47.59h-8.68Z" style="fill:#4c7838"/><path d="M261.13,150.2h8.69v32.67h-8.69Zm7.58-13.82h10.53v.55L270,146h-5.75Z" style="fill:#094c81"/><path d="M275.81,150.2h7.46l.74,4.53c3.05-2.88,6.42-5.2,10.7-5.2,6.12,0,9.36,3.73,9.36,9.91v23.43h-8.69V161.76c0-2.69-1.16-4.52-4-4.52-2.39,0-4.71,1.47-6.91,3.73v21.9h-8.69Z" style="fill:#da1179"/><path d="M320.22,180.77l.9-6A19.71,19.71,0,0,0,331,178c2.65,0,4-.9,4-2.4s-1-2.2-5-3.25c-6.6-1.7-9.35-3.55-9.35-8.55,0-4.8,3.7-8.1,10.1-8.1a24.35,24.35,0,0,1,9.6,2l-.95,5.9a19.61,19.61,0,0,0-8.65-2.45c-2.25,0-3.3.8-3.3,2.1s.9,2,4.75,3c7,1.85,9.65,3.7,9.65,8.7,0,5.45-3.85,8.55-10.85,8.55A24.16,24.16,0,0,1,320.22,180.77Z" style="fill:#374a63"/><path d="M342.92,169.57c0-8.7,5.25-13.95,12.3-13.95,8.1,0,11.65,6,11.65,13.65,0,.65,0,1.45-.05,2.15H350.07c.35,4.45,3,6.6,6.95,6.6a16,16,0,0,0,9.05-3.15l.8,5.35a18.28,18.28,0,0,1-10.65,3.2C348.57,183.42,342.92,179.17,342.92,169.57Zm17.1-2.8c-.35-4.1-1.95-6.35-4.95-6.35-2.55,0-4.55,2.1-5,6.35Z" style="fill:#374a63"/><path d="M369.92,190.92l1.05-5.7a18.45,18.45,0,0,0,8.6,2.2c4.05,0,6.05-1.9,6.05-5.5v-2.7a10.27,10.27,0,0,1-7.45,3.5c-5.55,0-9.95-4.15-9.95-12.85,0-9.5,5.35-14.05,13.4-14.05a32.87,32.87,0,0,1,11.1,1.85v24c0,7.2-4.1,11.25-12.6,11.25A26.47,26.47,0,0,1,369.92,190.92Zm15.7-17.5V162.27a9.85,9.85,0,0,0-3.85-.65c-3.9,0-6.4,2.4-6.4,7.95,0,4.75,2,7.05,4.8,7.05C382.27,176.62,384,175.27,385.62,173.42Z" style="fill:#374a63"/><path d="M396.52,175.32V156.17h7.1v17.25c0,2.2.95,3.7,3.2,3.7,1.95,0,3.85-1.2,5.65-3.05v-17.9h7.1v26.7h-6.1l-.6-3.7c-2.45,2.35-5.25,4.25-8.75,4.25C399.12,183.42,396.52,180.37,396.52,175.32Zm11.85-30.45H417v.45l-7.55,7.45h-4.7Z" style="fill:#374a63"/><path d="M423.47,156.17h6.1l.6,3.7c2.5-2.35,5.25-4.25,8.75-4.25,5,0,7.65,3,7.65,8.1v19.15h-7.1V165.62c0-2.2-1-3.7-3.25-3.7-2,0-3.85,1.2-5.65,3.05v17.9h-7.1Z" style="fill:#374a63"/><path d="M79.31,63.32c0-11.75,7.2-19.7,18-19.7a19.92,19.92,0,0,1,10.6,2.7l-1.15,7.3a14.86,14.86,0,0,0-9.06-3.25c-6.4,0-10.45,4.85-10.45,12.9s4.41,12.9,10.81,12.9a17.2,17.2,0,0,0,9.35-3l1.1,6.7a20.9,20.9,0,0,1-11.06,3.1C86.21,82.92,79.31,75.17,79.31,63.32Z" style="fill:#374a63"/><path d="M111.56,74.72V55.57h7.1V72.82c0,2.2,1,3.7,3.2,3.7,2,0,3.85-1.2,5.65-3V55.57h7.11v26.7h-6.11l-.59-3.7c-2.46,2.35-5.25,4.25-8.76,4.25C114.16,82.82,111.56,79.77,111.56,74.72Z" style="fill:#374a63"/><path d="M137.11,75.42c0-6.4,5.15-9.25,15.85-10.3v-.7c0-2.75-1.6-3.8-4.45-3.8a22.15,22.15,0,0,0-8.85,2.15l-.85-5.55a26.46,26.46,0,0,1,10.7-2.15c7.05,0,10.56,2.5,10.56,9v18.2h-6.21l-.55-3.4a11.81,11.81,0,0,1-8.7,3.95C140.11,82.82,137.11,80.17,137.11,75.42Zm15.85-.5V69.07c-7.15.9-8.85,3-8.85,5.5a2.81,2.81,0,0,0,3.1,3A8.51,8.51,0,0,0,153,74.92Zm-3.5-30.65h8.6v.45l-7.55,7.45h-4.7Z" style="fill:#374a63"/><path d="M164.11,43.37h7.1v38.9h-7.1Z" style="fill:#374a63"/><path d="M185.11,69c0-8.7,5.25-13.95,12.3-13.95,8.1,0,11.65,6,11.65,13.65,0,.65,0,1.45-.05,2.15H192.26c.35,4.45,3,6.6,7,6.6a16,16,0,0,0,9-3.15l.8,5.35a18.28,18.28,0,0,1-10.65,3.2C190.76,82.82,185.11,78.57,185.11,69Zm17.1-2.8c-.35-4.1-2-6.35-5-6.35-2.55,0-4.55,2.1-5,6.35Z" style="fill:#374a63"/><path d="M210.41,80.17l.9-6a19.71,19.71,0,0,0,9.9,3.15c2.65,0,3.95-.9,3.95-2.4s-.95-2.2-5-3.25c-6.6-1.7-9.35-3.55-9.35-8.55,0-4.8,3.7-8.1,10.1-8.1a24.35,24.35,0,0,1,9.6,2l-.95,5.9a19.61,19.61,0,0,0-8.65-2.45c-2.25,0-3.3.8-3.3,2.1s.9,1.95,4.75,2.95c7,1.85,9.65,3.7,9.65,8.7,0,5.45-3.85,8.55-10.85,8.55A24.16,24.16,0,0,1,210.41,80.17Z" style="fill:#374a63"/><path d="M244.21,69c0-8.7,5.25-13.95,12.3-13.95,8.1,0,11.65,6,11.65,13.65,0,.65,0,1.45-.05,2.15H251.36c.35,4.45,3,6.6,6.95,6.6a16,16,0,0,0,9.05-3.15l.8,5.35a18.28,18.28,0,0,1-10.65,3.2C249.86,82.82,244.21,78.57,244.21,69Zm17.1-2.8c-.35-4.1-1.95-6.35-4.95-6.35-2.55,0-4.55,2.1-5,6.35Z" style="fill:#374a63"/><path d="M271.11,43.37h7.1v38.9h-7.1Z" style="fill:#374a63"/><path d="M293.46,55.57h6.1l.6,3.6c1.9-2.15,4.45-4.15,8-4.15,5.55,0,10,4.15,10,13.2,0,10-5.5,14.35-11.6,14.35a18.05,18.05,0,0,1-6-1V91.82h-7.1Zm17.6,13.05c0-5-2.1-7.3-4.85-7.3-2.25,0-4,1.35-5.65,3.4V75.87a10.43,10.43,0,0,0,4.75,1C308.61,76.87,311.06,74.27,311.06,68.62Z" style="fill:#374a63"/><path d="M320.76,55.57h6.1l.85,5.35c1.7-3.1,4.25-5.7,8.35-5.9l1.15,7.1a12.48,12.48,0,0,0-9.35,4.95v15.2h-7.1Z" style="fill:#374a63"/><path d="M338.36,47.32a4.1,4.1,0,1,1,4.1,4A3.89,3.89,0,0,1,338.36,47.32Zm.55,8.25H346v26.7h-7.1Z" style="fill:#374a63"/><path d="M350.16,55.57h6.1l.6,3.7c2.5-2.35,5.25-4.25,8.75-4.25,5,0,7.65,3,7.65,8.1V82.27h-7.1V65c0-2.2-1-3.7-3.25-3.7-2,0-3.85,1.2-5.65,3.05v17.9h-7.1Z" style="fill:#374a63"/><path d="M375.66,69.07c0-9.35,5.85-14,13-14a15.17,15.17,0,0,1,8.2,2.15l-1,6.35a10.64,10.64,0,0,0-6.75-2.4c-3.65,0-6.35,2.65-6.35,7.75s2.9,7.75,6.75,7.75a10.61,10.61,0,0,0,6.7-2.4l.9,6a14.85,14.85,0,0,1-8.75,2.55C380.91,82.77,375.66,77.77,375.66,69.07Z" style="fill:#374a63"/><path d="M399.36,47.32a4.1,4.1,0,1,1,4.1,4A3.89,3.89,0,0,1,399.36,47.32Zm.55,8.25H407v26.7h-7.1Z" style="fill:#374a63"/><path d="M411.16,55.57h6.1l.6,3.6c1.9-2.15,4.45-4.15,8.05-4.15,5.55,0,9.95,4.15,9.95,13.2,0,10-5.5,14.35-11.6,14.35a18.05,18.05,0,0,1-6-1V91.82h-7.1Zm17.6,13.05c0-5-2.1-7.3-4.85-7.3-2.25,0-4,1.35-5.65,3.4V75.87a10.43,10.43,0,0,0,4.75,1C426.31,76.87,428.76,74.27,428.76,68.62Z" style="fill:#374a63"/><path d="M437.06,75.42c0-6.4,5.15-9.25,15.85-10.3v-.7c0-2.75-1.6-3.8-4.45-3.8a22.15,22.15,0,0,0-8.85,2.15l-.85-5.55a26.46,26.46,0,0,1,10.7-2.15c7.05,0,10.55,2.5,10.55,9v18.2h-6.2l-.55-3.4a11.81,11.81,0,0,1-8.7,3.95C440.06,82.82,437.06,80.17,437.06,75.42Zm15.85-.5V69.07c-7.15.9-8.85,3-8.85,5.5a2.81,2.81,0,0,0,3.1,3A8.51,8.51,0,0,0,452.91,74.92Z" style="fill:#374a63"/><path d="M464.06,43.37h7.1v38.9h-7.1Z" style="fill:#374a63"/><path d="M80.11,98.57h6.1l.6,3.6C88.71,100,91.26,98,94.87,98c5.55,0,9.95,4.15,9.95,13.2,0,10-5.5,14.35-11.61,14.35a18.05,18.05,0,0,1-6-1v10.25h-7.1Zm17.6,13.05c0-5-2.09-7.3-4.84-7.3-2.25,0-4,1.35-5.66,3.4v11.15a10.46,10.46,0,0,0,4.75,1C95.27,119.87,97.71,117.27,97.71,111.62Z" style="fill:#374a63"/><path d="M107.41,98.57h6.1l.85,5.35c1.7-3.1,4.26-5.7,8.35-5.9l1.16,7.1a12.49,12.49,0,0,0-9.36,4.95v15.2h-7.1Z" style="fill:#374a63"/><path d="M123.91,112c0-8.65,5.4-14,12.65-14s12.71,5.25,12.71,13.9-5.4,13.9-12.76,13.9S123.91,120.62,123.91,112Zm18.45,0c0-4.75-2.1-8.15-5.8-8.15s-5.75,3.3-5.75,8.1,2.05,8.1,5.75,8.1S142.36,116.72,142.36,112Z" style="fill:#374a63"/><path d="M151.81,123.77V86.37h7.1v15.15a10.46,10.46,0,0,1,7.45-3.5c5.6,0,10,4.15,10,13.2,0,9.8-5.36,14.4-13.41,14.4A33.09,33.09,0,0,1,151.81,123.77Zm17.4-12.15c0-5-2.05-7.3-4.8-7.3-2.1,0-3.9,1.35-5.5,3.2v11.65a10.19,10.19,0,0,0,3.85.65C166.66,119.82,169.21,117.47,169.21,111.62Z" style="fill:#374a63"/><path d="M179.21,86.37h7.1v38.9h-7.1Z" style="fill:#374a63"/><path d="M189.11,112c0-8.7,5.25-14,12.3-14,8.1,0,11.65,6,11.65,13.65,0,.65,0,1.45-.05,2.15H196.26c.35,4.45,3,6.6,7,6.6a16,16,0,0,0,9-3.15l.8,5.35a18.28,18.28,0,0,1-10.65,3.2C194.76,125.82,189.11,121.57,189.11,112Zm17.1-2.8c-.35-4.1-2-6.35-5-6.35-2.55,0-4.55,2.1-5,6.35Z" style="fill:#374a63"/><path d="M215.71,98.57h6.1l.6,3.7c2.5-2.4,5.1-4.25,8.7-4.25s5.75,1.75,6.75,4.3c2.4-2.4,5.25-4.3,8.76-4.3,5,0,7.55,3,7.55,8.1v19.15h-7.11V108c0-2.2-.8-3.7-3.05-3.7-1.9,0-3.75,1.2-5.5,3.05v17.9h-7.1V108c0-2.2-.85-3.7-3.1-3.7-1.9,0-3.7,1.2-5.5,3.05v17.9h-7.1Z" style="fill:#374a63"/><path d="M256.56,118.42c0-6.4,5.15-9.25,15.85-10.3v-.7c0-2.75-1.6-3.8-4.45-3.8a22.15,22.15,0,0,0-8.85,2.15l-.85-5.55A26.46,26.46,0,0,1,269,98.07c7.05,0,10.55,2.5,10.55,9v18.2h-6.2l-.55-3.4a11.81,11.81,0,0,1-8.7,3.95C259.56,125.82,256.56,123.17,256.56,118.42Zm15.85-.5v-5.85c-7.15.9-8.85,3-8.85,5.5a2.81,2.81,0,0,0,3.1,3A8.51,8.51,0,0,0,272.41,117.92Z" style="fill:#374a63"/><path d="M310.46,122.32a10.27,10.27,0,0,1-7.45,3.5c-5.55,0-9.95-4.15-9.95-13.15,0-9.85,5.35-14.45,13.4-14.45a32.87,32.87,0,0,1,11.1,1.85v34.75h-7.1Zm0-6V104.67a9.85,9.85,0,0,0-3.85-.65c-3.9,0-6.4,2.35-6.4,8.2,0,5,2,7.3,4.8,7.3C307.11,119.52,308.86,118.17,310.46,116.32Z" style="fill:#374a63"/><path d="M321.36,117.72V98.57h7.1v17.25c0,2.2,1,3.7,3.2,3.7,1.95,0,3.85-1.2,5.65-3V98.57h7.1v26.7h-6.1l-.6-3.7c-2.45,2.35-5.25,4.25-8.75,4.25C324,125.82,321.36,122.77,321.36,117.72Z" style="fill:#374a63"/><path d="M347,112c0-8.7,5.25-14,12.3-14,8.1,0,11.65,6,11.65,13.65,0,.65,0,1.45-.05,2.15H354.11c.35,4.45,3,6.6,6.95,6.6a16,16,0,0,0,9.05-3.15l.8,5.35a18.28,18.28,0,0,1-10.65,3.2C352.61,125.82,347,121.57,347,112Zm17.1-2.8c-.35-4.1-1.95-6.35-4.95-6.35-2.55,0-4.55,2.1-5,6.35Z" style="fill:#374a63"/><path d="M383.31,112c0-8.7,5.25-14,12.3-14,8.1,0,11.65,6,11.65,13.65,0,.65,0,1.45-.05,2.15H390.46c.35,4.45,3,6.6,7,6.6a16,16,0,0,0,9-3.15l.8,5.35a18.28,18.28,0,0,1-10.65,3.2C389,125.82,383.31,121.57,383.31,112Zm17.1-2.8c-.35-4.1-2-6.35-5-6.35-2.55,0-4.55,2.1-5,6.35Z" style="fill:#374a63"/><path d="M409.91,98.57H416l.6,3.7c2.5-2.35,5.25-4.25,8.75-4.25,5,0,7.65,3,7.65,8.1v19.15h-7.1V108c0-2.2-1-3.7-3.25-3.7-2,0-3.85,1.2-5.65,3.05v17.9h-7.1Z" style="fill:#374a63"/><path d="M438.36,104.37h-3.8v-5.8h3.8v-4.1c0-6.15,3.55-8.55,9.25-8.55a23.56,23.56,0,0,1,3.55.3v5.7a8.3,8.3,0,0,0-2.5-.3,3,3,0,0,0-3.3,3.3v3.65h5.5v5.8h-5.5v20.9h-7Z" style="fill:#374a63"/><path d="M452.46,98.57h6.1l.85,5.35c1.7-3.1,4.25-5.7,8.35-5.9l1.15,7.1a12.48,12.48,0,0,0-9.35,4.95v15.2h-7.1Z" style="fill:#374a63"/><path d="M469,112c0-8.7,5.25-14,12.3-14,8.1,0,11.65,6,11.65,13.65,0,.65,0,1.45-.05,2.15H476.11c.35,4.45,3,6.6,6.95,6.6a16,16,0,0,0,9.05-3.15l.8,5.35a18.28,18.28,0,0,1-10.65,3.2C474.61,125.82,469,121.57,469,112Zm17.1-2.8c-.35-4.1-1.95-6.35-4.95-6.35-2.55,0-4.55,2.1-5,6.35Z" style="fill:#374a63"/><path d="M495.56,98.57h6.1l.6,3.7c2.5-2.35,5.25-4.25,8.75-4.25,5,0,7.65,3,7.65,8.1v19.15h-7.1V108c0-2.2-.95-3.7-3.25-3.7-1.95,0-3.85,1.2-5.65,3.05v17.9h-7.1Z" style="fill:#374a63"/><path d="M523.81,117.42v-13h-3.7v-5.8h3.7V89.82h7.05v8.75h5.75v5.8h-5.75v11.9c0,2.15,1,3.3,3.45,3.3a11.92,11.92,0,0,0,2.45-.25v6a14.45,14.45,0,0,1-3.85.4C527.51,125.72,523.81,123.72,523.81,117.42Z" style="fill:#374a63"/><path d="M538,118.42c0-6.4,5.15-9.25,15.85-10.3v-.7c0-2.75-1.6-3.8-4.45-3.8a22.15,22.15,0,0,0-8.85,2.15l-.85-5.55a26.46,26.46,0,0,1,10.7-2.15c7,0,10.55,2.5,10.55,9v18.2h-6.2l-.55-3.4a11.81,11.81,0,0,1-8.7,3.95C541,125.82,538,123.17,538,118.42Zm15.85-.5v-5.85c-7.15.9-8.85,3-8.85,5.5a2.81,2.81,0,0,0,3.1,3A8.51,8.51,0,0,0,553.81,117.92Z" style="fill:#374a63"/><path d="M82,194.07h9.83v53.86H82Z" style="fill:#01a5d4"/><path d="M95.63,238.45c0-8.86,7.13-12.81,21.94-14.26v-1c0-3.81-2.21-5.27-6.16-5.27a30.65,30.65,0,0,0-12.25,3L98,213.25a36.63,36.63,0,0,1,14.82-3c9.76,0,14.6,3.46,14.6,12.46v25.2h-8.58l-.76-4.71c-3,3.05-6.72,5.47-12,5.47C99.78,248.69,95.63,245,95.63,238.45Zm21.94-.7v-8.1c-9.9,1.25-12.25,4.16-12.25,7.62,0,2.63,1.66,4.15,4.29,4.15C112.45,241.42,115.15,240,117.57,237.75Z" style="fill:#01a5d4"/><path d="M130.8,245l1.24-8.23a27.33,27.33,0,0,0,13.71,4.36c3.67,0,5.47-1.25,5.47-3.33s-1.31-3-6.92-4.5c-9.14-2.35-13-4.91-13-11.83,0-6.65,5.13-11.22,14-11.22a33.76,33.76,0,0,1,13.29,2.7l-1.32,8.17a27.06,27.06,0,0,0-12-3.39c-3.12,0-4.57,1.11-4.57,2.9s1.24,2.71,6.57,4.09c9.7,2.56,13.37,5.12,13.37,12,0,7.54-5.34,11.83-15,11.83A33.43,33.43,0,0,1,130.8,245Z" style="fill:#01a5d4"/><path d="M179.81,261.43l-1.31-8a14.75,14.75,0,0,0,4.36.55,6,6,0,0,0,5.95-3.87l.77-2L175.87,211h10.8l8,24.93L202.52,211h9.69l-13.77,38.63c-3.33,9.21-7.62,12.19-15,12.19A14.45,14.45,0,0,1,179.81,261.43Z" style="fill:#01a5d4"/><path d="M229.94,194.07h9.83v53.86h-9.83Z" style="fill:#01a5d4"/><path d="M243.65,229.52c0-12,7.48-19.32,17.51-19.32s17.59,7.27,17.59,19.25-7.48,19.24-17.65,19.24S243.65,241.49,243.65,229.52Zm25.55,0c0-6.58-2.91-11.29-8-11.29s-8,4.57-8,11.22,2.84,11.21,8,11.21S269.2,236.09,269.2,229.52Z" style="fill:#01a5d4"/><path d="M280.48,245l1.25-8.23a27.27,27.27,0,0,0,13.71,4.36c3.66,0,5.47-1.25,5.47-3.33s-1.32-3-6.93-4.5C284.84,231,281,228.41,281,221.49c0-6.65,5.12-11.22,14-11.22a33.69,33.69,0,0,1,13.29,2.7L307,221.14a27.13,27.13,0,0,0-12-3.39c-3.11,0-4.57,1.11-4.57,2.9s1.25,2.71,6.58,4.09c9.69,2.56,13.36,5.12,13.36,12,0,7.54-5.33,11.83-15,11.83A33.44,33.44,0,0,1,280.48,245Z" style="fill:#01a5d4"/><path d="M323.82,261.5l-1.24-7.89a11.42,11.42,0,0,0,2.9.34c2.43,0,4.09-1.17,4.09-4.5V211h9.83v39.26c0,8.3-4.85,11.56-11.91,11.56A17,17,0,0,1,323.82,261.5Zm5-62a5.68,5.68,0,0,1,11.35,0,5.68,5.68,0,0,1-11.35,0Z" style="fill:#01a5d4"/><path d="M343.28,229.52c0-12,7.47-19.32,17.51-19.32s17.59,7.27,17.59,19.25-7.48,19.24-17.66,19.24S343.28,241.49,343.28,229.52Zm25.54,0c0-6.58-2.9-11.29-8-11.29s-8,4.57-8,11.22,2.84,11.21,8,11.21S368.82,236.09,368.82,229.52Zm-6.43-34.2h11.9v.62l-10.45,10.32h-6.51Z" style="fill:#01a5d4"/><path d="M378.52,211h10.8l7.75,24.86L404.69,211h9.69l-13,37.11h-9.69Z" style="fill:#01a5d4"/><path d="M414.52,229.52c0-12.05,7.27-19.32,17-19.32,11.22,0,16.13,8.38,16.13,18.9,0,.9,0,2-.07,3H424.42c.49,6.16,4.15,9.14,9.62,9.14,4.5,0,8.52-1.67,12.53-4.37l1.11,7.41a25.29,25.29,0,0,1-14.74,4.43C422.34,248.69,414.52,242.81,414.52,229.52Zm23.68-3.88c-.49-5.68-2.7-8.79-6.86-8.79-3.53,0-6.3,2.91-6.92,8.79Z" style="fill:#01a5d4"/><path d="M451.35,211h8.45l.83,5.13c3.46-3.26,7.27-5.89,12.12-5.89,6.92,0,10.59,4.22,10.59,11.22v26.51h-9.83V224.05c0-3.05-1.32-5.13-4.5-5.13-2.7,0-5.33,1.67-7.83,4.23v24.78h-9.83Z" style="fill:#01a5d4"/><path d="M486.66,229.52c0-12.05,7.27-19.32,17-19.32,11.22,0,16.13,8.38,16.13,18.9,0,.9,0,2-.06,3h-23.2c.49,6.16,4.16,9.14,9.63,9.14,4.5,0,8.51-1.67,12.53-4.37l1.1,7.41a25.29,25.29,0,0,1-14.74,4.43C494.49,248.69,486.66,242.81,486.66,229.52Zm23.68-3.88c-.49-5.68-2.7-8.79-6.85-8.79-3.53,0-6.3,2.91-6.93,8.79Z" style="fill:#01a5d4"/><path d="M521.7,245l1.24-8.23a27.33,27.33,0,0,0,13.71,4.36c3.67,0,5.47-1.25,5.47-3.33s-1.32-3-6.92-4.5c-9.14-2.35-13-4.91-13-11.83,0-6.65,5.12-11.22,14-11.22a33.78,33.78,0,0,1,13.3,2.7l-1.32,8.17a27.13,27.13,0,0,0-12-3.39c-3.11,0-4.56,1.11-4.56,2.9s1.24,2.71,6.57,4.09c9.69,2.56,13.36,5.12,13.36,12,0,7.54-5.33,11.83-15,11.83A33.4,33.4,0,0,1,521.7,245Z" style="fill:#01a5d4"/><path d="M49.75,105.3l-1,.35c-16,5.37-22.88,13.7-22.88,25.83,0,9.53,6.41,14.91,15.43,14.91,9.36,0,18-4.86,27.22-12.14l3.29,22.37c-9,7.45-20.11,12.65-35.54,12.65C14,169.27,0,156.27,0,133,0,114,11.61,99.58,30.34,92.82l1.38-14.21H47.33ZM52.87,64H26.7V35.09H52.87Z" style="fill:#077f9a"/><path d="M581.08,205.18l1-.35C596.85,198.77,605,191.14,605,179c0-9.53-6.42-14.91-15.43-14.91-9.36,0-18,4.86-27.22,12.14l-3.29-22.36c9-7.46,20.11-12.66,35.54-12.66,22.19,0,36.23,13,36.23,36.23,0,19.07-11.62,33.46-30.34,40.22l-1.39,14.22H583.5ZM578,246.44h26.17v28.95H578Z" style="fill:#077f9a"/><g id="joven_mujer"><path d="M664.36,15.1A10.42,10.42,0,0,0,654,4.51a10.71,10.71,0,0,0-10.6,10.37,10.72,10.72,0,0,0,10.38,10.6C659.61,25.91,664.36,21.15,664.36,15.1Z" style="fill:#14486d"/><path d="M632.37,70.44l5.4-18.38-8-4.32-6.27,19.89s-1.52,5.19,3,6.48S632.37,70.44,632.37,70.44Z" style="fill:#14486d"/><path d="M666.52,45.15c1.52-.44,1.73,1.51,1.73,1.51l1.08,3.46,8-4.32-1.94-6.71s-3.24-8.43-10.16-8.43H642.75c-6.92,0-10.16,8.22-10.16,8.22l-2,6.27,8,4.32,1.08-3s.43-1.73,1.73-1.51.65,2.38.65,2.38L629.78,92.06h11.45v32a5.64,5.64,0,0,0,11.24.86V92.49h3.25v32a5.4,5.4,0,1,0,10.8,0v-32H678L665.66,47.74C665.44,47.74,665,45.58,666.52,45.15Z" style="fill:#14486d"/><path d="M683.82,67.84l-6.05-19.45-8,4.32L675,70.65s1.29,5.19,5.62,3.68C685.33,72.6,683.82,67.84,683.82,67.84Z" style="fill:#14486d"/><path d="M642.1,11.64h-1.3a13.42,13.42,0,0,1,25.94,0h-1.51v7.13h2.16A12.42,12.42,0,0,1,663.71,25a1.68,1.68,0,0,0-1.72-.43l-3.68,1.51a1.2,1.2,0,0,0-.65,1.73l.22,1.08a1.19,1.19,0,0,0,1.73.65l3.89-1.51a1.2,1.2,0,0,0,.65-1.73l-.22-.65a12.32,12.32,0,0,0,3.89-6.92H670V11.43h-2.16A14.21,14.21,0,0,0,650.31.83a14.29,14.29,0,0,0-10.59,10.6h-2.16v7.13h4.75V11.64Z" style="fill:#14486d"/></g><g id="joven_hombre"><path d="M576.48,124.05a6,6,0,0,0,5.84,5.83,6.11,6.11,0,0,0,5.84-5.83v-4.33H576.27v4.33Z" style="fill:#14486d"/><path d="M591.62,124.05a5.89,5.89,0,0,0,6.48,5.4,5.49,5.49,0,0,0,5.41-5.4v-4.33H591.62Z" style="fill:#14486d"/><path d="M579.29,41.9V29.8h-1.72a14.09,14.09,0,0,0-12.76,14.05V73.46a4.07,4.07,0,0,0,4.32,3.68,4,4,0,0,0,3.68-3.68V48.39c0-1.08.22-2.16,2-2.16h4.32l.21-4.33Z" style="fill:#14486d"/><polygon points="583.83 39.31 596.59 39.31 596.59 30.02 589.89 30.02 583.83 30.02 583.83 39.31" style="fill:#14486d"/><path d="M599.4,48.61h-1.08V41.9H581.89v6.71h-5.41V116.7h11.89V79.52c0-1.08.44-1.73,1.52-1.73h.21c1.08,0,1.73.43,1.73,1.51v37.4h11.89V48.61Z" style="fill:#14486d"/><path d="M602.42,30h-1.29V46H605c1.73,0,1.94,1.3,1.94,2.16V73.46a4.07,4.07,0,0,0,4.33,3.68A4,4,0,0,0,615,73.46V43.85c.22-7.13-5.4-13-12.54-13.83" style="fill:#14486d"/><path d="M597.45,40.18a1.3,1.3,0,1,0,1.3-1.3c-.65.21-1.3.65-1.3,1.3" style="fill:#14486d"/><path d="M580.38,40.18a1.3,1.3,0,1,0,1.29-1.3c-.86.21-1.29.65-1.29,1.3" style="fill:#14486d"/><path d="M597,13.15c-1.08-.64-1.73-1.51-3.24-.64A11.72,11.72,0,0,0,591,14,20.7,20.7,0,0,1,584.05,16a44.66,44.66,0,0,1-5.4.44,11.18,11.18,0,0,0,12.1,10.16c5.19-.44,9.3-4.33,10.16-9.95-1.51-1.08-2.59-2.37-3.89-3.46" style="fill:#14486d"/><path d="M578.65,14a43.07,43.07,0,0,0,5.18-.43,28.42,28.42,0,0,0,6.06-1.95c1.73-.65,3.46-1.51,3.46-1.51a3.74,3.74,0,0,1,2.16-.22c.43.22.65.43,1.08.65l.65.65s.43.43,3,2.38c.22.21.44.43.65.43s.22-1.95.22-3a13.83,13.83,0,0,0-3-7.78,2.52,2.52,0,0,0-2.38-1.08c-1.51.22-1.51-.65-2.37-1.51a10,10,0,0,0-9.52,1.51,23.52,23.52,0,0,0-7.13,9.94c-.65,1.08.43,1.95,1.95,1.95" style="fill:#14486d"/></g></g></g></svg>