<svg xmlns="http://www.w3.org/2000/svg" viewBox="0 0 916.07 191.55"><title>Asset 6</title><g id="Layer_2" data-name="Layer 2"><g id="Capa_1" data-name="Capa 1"><path d="M461,118.46,456.59,181H440.45l6.68-87.65h23.19l20.75,64.47,20.76-64.47h22.61L541.13,181H522.9l-4.38-62.51L497.88,181.2H481.62Z" style="fill:#de1f26"/><path d="M546.09,150.29c0-20.07,12.11-32.18,28.37-32.18,18.68,0,26.87,14,26.87,31.49,0,1.5,0,3.34-.12,5H562.58c.81,10.26,6.92,15.22,16,15.22,7.5,0,14.19-2.77,20.87-7.26l1.85,12.33a42.13,42.13,0,0,1-24.57,7.39C559.12,182.24,546.09,172.43,546.09,150.29Zm39.44-6.46c-.81-9.45-4.5-14.64-11.42-14.64-5.88,0-10.49,4.84-11.53,14.64Z" style="fill:#4c9b45"/><path d="M604.44,151.9c0-23.06,12.69-33.21,26.76-33.21A41.61,41.61,0,0,1,645,121V91.24h16.38V181H647.35L646,172.66c-4.38,5-10.26,9.58-18.57,9.58C614.59,182.24,604.44,172.66,604.44,151.9Zm40.6,8V134.15a24.05,24.05,0,0,0-11-2.31c-7.61,0-13.14,6-13.14,19,0,11.53,4.72,16.83,11.18,16.83C637.2,167.7,641.23,164.59,645,159.86Z" style="fill:#03a5d4"/><path d="M667.3,150.29c0-20.07,12.11-32.18,28.37-32.18,18.68,0,26.87,14,26.87,31.49,0,1.5,0,3.34-.11,5H683.79c.81,10.26,6.92,15.22,16,15.22,7.5,0,14.19-2.77,20.88-7.26l1.84,12.33A42.12,42.12,0,0,1,698,182.24C680.33,182.24,667.3,172.43,667.3,150.29Zm39.44-6.46c-.81-9.45-4.5-14.64-11.42-14.64-5.88,0-10.49,4.84-11.53,14.64Z" style="fill:#ea6524"/><path d="M729.35,91.24h16.37V181H729.35Z" style="fill:#4c7838"/><path d="M756,91.24h16.37V181H756Z" style="fill:#4c7838"/><path d="M780.9,119.38h16.37V181H780.9Zm14.3-26.06H815v1l-17.41,17.18H786.78Z" style="fill:#094c81"/><path d="M808.58,119.38h14.07l1.38,8.54c5.77-5.42,12.11-9.81,20.18-9.81,11.54,0,17.65,7,17.65,18.69V181H845.48V141.18c0-5.07-2.19-8.53-7.49-8.53-4.5,0-8.89,2.76-13,7V181H808.58Z" style="fill:#da1179"/><path d="M184.4,1.4h12.2V49.65h20v10.8H184.4Z" style="fill:#374a63"/><path d="M218.12,39.78c0-13.44,8.39-21.68,19.66-21.68s19.74,8.16,19.74,21.6-8.4,21.6-19.82,21.6C226.44,61.3,218.12,53.22,218.12,39.78Zm28.67,0c0-7.38-3.26-12.66-9-12.66s-8.93,5.12-8.93,12.58,3.18,12.59,8.93,12.59S246.79,47.16,246.79,39.78Z" style="fill:#374a63"/><path d="M259.46,57.19l1.4-9.25c4.66,3,10.49,4.89,15.38,4.89,4.12,0,6.14-1.39,6.14-3.73s-1.47-3.41-7.77-5.05c-10.25-2.64-14.53-5.51-14.53-13.28,0-7.46,5.75-12.59,15.7-12.59a38,38,0,0,1,14.92,3l-1.48,9.17a30.49,30.49,0,0,0-13.44-3.81c-3.5,0-5.13,1.25-5.13,3.27s1.4,3,7.38,4.58c10.88,2.87,15,5.75,15,13.52,0,8.47-6,13.29-16.86,13.29A37.64,37.64,0,0,1,259.46,57.19Z" style="fill:#374a63"/><path d="M311.91,49.8c0-9.94,8-14.37,24.63-16V32.71c0-4.27-2.49-5.9-6.92-5.9a34.28,34.28,0,0,0-13.75,3.34l-1.32-8.63a41.15,41.15,0,0,1,16.63-3.34c10.95,0,16.39,3.89,16.39,14V60.45h-9.63l-.86-5.28c-3.42,3.41-7.53,6.13-13.52,6.13C316.57,61.3,311.91,57.19,311.91,49.8ZM336.54,49V39.94c-11.11,1.39-13.75,4.66-13.75,8.54,0,3,1.86,4.67,4.81,4.67C330.79,53.15,333.82,51.59,336.54,49Z" style="fill:#374a63"/><path d="M351.38,40.87c0-15.54,8.55-22.38,18-22.38a27.84,27.84,0,0,1,9.32,1.56V0h11V60.45h-9.48l-.94-5.6c-3,3.35-6.91,6.45-12.51,6.45C358.22,61.3,351.38,54.85,351.38,40.87Zm27.35,5.36V28.9a16.21,16.21,0,0,0-7.38-1.55c-5.13,0-8.86,4-8.86,12.82,0,7.77,3.19,11.34,7.54,11.34C373.45,51.51,376.17,49.42,378.73,46.23Z" style="fill:#374a63"/><path d="M395.67,48.72V19h11v26.8c0,3.42,1.47,5.75,5,5.75,3,0,6-1.86,8.78-4.74V19h11V60.45H422l-.93-5.75c-3.81,3.65-8.16,6.6-13.6,6.6C399.71,61.3,395.67,56.56,395.67,48.72Z" style="fill:#374a63"/><path d="M438,0h11V60.45H438Z" style="fill:#374a63"/><path d="M457.68,48.25V28h-5.75V19h5.75V5.36h10.95V19h8.94v9h-8.94V46.46c0,3.34,1.56,5.13,5.37,5.13a18,18,0,0,0,3.8-.39v9.33a22.7,22.7,0,0,1-6,.62C463.43,61.15,457.68,58,457.68,48.25Z" style="fill:#374a63"/><path d="M479.75,39.78c0-13.44,8.39-21.68,19.65-21.68,11.43,0,19.74,8.16,19.74,21.6s-8.39,21.6-19.81,21.6C488.06,61.3,479.75,53.22,479.75,39.78Zm28.67,0c0-7.38-3.27-12.66-9-12.66s-8.93,5.12-8.93,12.58,3.18,12.59,8.93,12.59S508.42,47.16,508.42,39.78Z" style="fill:#374a63"/><path d="M521.08,57.19l1.4-9.25c4.66,3,10.49,4.89,15.39,4.89,4.11,0,6.14-1.39,6.14-3.73s-1.48-3.41-7.77-5.05c-10.26-2.64-14.53-5.51-14.53-13.28,0-7.46,5.75-12.59,15.69-12.59a37.92,37.92,0,0,1,14.92,3l-1.48,9.17a30.49,30.49,0,0,0-13.44-3.81c-3.5,0-5.13,1.25-5.13,3.27s1.4,3,7.38,4.58c10.88,2.87,15,5.75,15,13.52,0,8.47-6,13.29-16.86,13.29A37.64,37.64,0,0,1,521.08,57.19Z" style="fill:#374a63"/><path d="M575.71,19h9.48l.93,5.75C590,21,594,18.1,599.64,18.1s8.93,2.72,10.49,6.69c3.73-3.73,8.16-6.69,13.59-6.69,7.77,0,11.74,4.74,11.74,12.59V60.45h-11V33.64c0-3.42-1.24-5.75-4.74-5.75-2.95,0-5.82,1.87-8.54,4.74V60.45h-11V33.64c0-3.42-1.32-5.75-4.81-5.75-2.95,0-5.75,1.87-8.55,4.74V60.45h-11Z" style="fill:#374a63"/><path d="M639.19,49.8c0-9.94,8-14.37,24.63-16V32.71c0-4.27-2.49-5.9-6.91-5.9a34.32,34.32,0,0,0-13.76,3.34l-1.32-8.63a41.15,41.15,0,0,1,16.63-3.34c11,0,16.39,3.89,16.39,14V60.45h-9.63l-.86-5.28c-3.41,3.41-7.53,6.13-13.51,6.13C643.85,61.3,639.19,57.19,639.19,49.8ZM663.82,49V39.94c-11.11,1.39-13.75,4.66-13.75,8.54,0,3,1.86,4.67,4.82,4.67C658.07,53.15,661.1,51.59,663.82,49Z" style="fill:#374a63"/><path d="M681.07,75.6l-1.47-9a16.59,16.59,0,0,0,4.89.62,6.75,6.75,0,0,0,6.68-4.35L692,60.6,676.64,19h12.12l9,28,8.78-28h10.88L702,62.31C698.24,72.65,693.43,76,685.11,76A16.35,16.35,0,0,1,681.07,75.6Z" style="fill:#374a63"/><path d="M717.52,39.78c0-13.44,8.39-21.68,19.65-21.68,11.42,0,19.74,8.16,19.74,21.6s-8.39,21.6-19.81,21.6S717.52,53.22,717.52,39.78Zm28.67,0c0-7.38-3.27-12.66-9-12.66s-8.93,5.12-8.93,12.58,3.18,12.59,8.93,12.59S746.19,47.16,746.19,39.78Z" style="fill:#374a63"/><path d="M760.87,19h9.48l1.32,8.31c2.65-4.82,6.61-8.86,13-9.17l1.79,11a19.35,19.35,0,0,0-14.53,7.69V60.45h-11Z" style="fill:#374a63"/><path d="M786.52,39.78c0-13.52,8.15-21.68,19.11-21.68,12.59,0,18.1,9.4,18.1,21.21,0,1,0,2.26-.08,3.35h-26c.54,6.91,4.66,10.25,10.8,10.25,5.05,0,9.55-1.86,14.06-4.89l1.24,8.31a28.37,28.37,0,0,1-16.55,5C795.3,61.3,786.52,54.7,786.52,39.78Zm26.57-4.35c-.55-6.37-3-9.87-7.69-9.87-4,0-7.07,3.27-7.77,9.87Z" style="fill:#374a63"/><path d="M825.83,57.19l1.4-9.25c4.66,3,10.49,4.89,15.39,4.89,4.11,0,6.13-1.39,6.13-3.73s-1.47-3.41-7.77-5.05c-10.25-2.64-14.53-5.51-14.53-13.28,0-7.46,5.75-12.59,15.7-12.59a38,38,0,0,1,14.92,3l-1.48,9.17a30.49,30.49,0,0,0-13.44-3.81c-3.5,0-5.13,1.25-5.13,3.27s1.4,3,7.38,4.58c10.88,2.87,15,5.75,15,13.52,0,8.47-6,13.29-16.86,13.29A37.64,37.64,0,0,1,825.83,57.19Z" style="fill:#374a63"/><path d="M190.1,76.19h5.61l.56,3.31c1.74-2,4.09-3.81,7.4-3.81,5.11,0,9.16,3.81,9.16,12.14,0,9.16-5.06,13.2-10.68,13.2a16.56,16.56,0,0,1-5.52-.92v9.44H190.1Zm16.2,12c0-4.6-1.94-6.72-4.47-6.72-2.07,0-3.68,1.24-5.2,3.13V94.87a9.58,9.58,0,0,0,4.37.92C204,95.79,206.3,93.4,206.3,88.2Z" style="fill:#14486d"/><path d="M215,68.6a3.77,3.77,0,0,1,7.54,0,3.77,3.77,0,0,1-7.54,0Zm.5,7.59H222v24.57h-6.54Z" style="fill:#14486d"/><path d="M224.6,88.52c0-8,4.83-12.83,11.32-12.83,7.45,0,10.72,5.56,10.72,12.55,0,.6,0,1.34,0,2H231.18c.32,4.1,2.76,6.08,6.39,6.08a14.77,14.77,0,0,0,8.33-2.9l.74,4.92a16.83,16.83,0,0,1-9.8,2.94C229.8,101.26,224.6,97.35,224.6,88.52Zm15.73-2.58c-.32-3.77-1.79-5.84-4.55-5.84-2.35,0-4.19,1.93-4.6,5.84Z" style="fill:#14486d"/><path d="M249.07,76.19h5.62l.55,3.41c2.3-2.17,4.83-3.91,8.05-3.91,4.6,0,7,2.8,7,7.45v17.62h-6.54V84.89c0-2-.87-3.41-3-3.41-1.79,0-3.54,1.11-5.19,2.81v16.47h-6.54Z" style="fill:#14486d"/><path d="M272.58,98.83l.83-5.48a18.12,18.12,0,0,0,9.1,2.9c2.44,0,3.64-.83,3.64-2.21s-.87-2-4.6-3c-6.07-1.56-8.6-3.27-8.6-7.87,0-4.41,3.4-7.45,9.29-7.45a22.29,22.29,0,0,1,8.83,1.8L290.2,83a18.07,18.07,0,0,0-8-2.25c-2.07,0-3,.74-3,1.93s.83,1.8,4.37,2.72c6.44,1.7,8.88,3.4,8.88,8,0,5-3.54,7.87-10,7.87A22.35,22.35,0,0,1,272.58,98.83Z" style="fill:#14486d"/><path d="M293.42,94.46c0-5.89,4.73-8.52,14.58-9.48v-.65c0-2.53-1.47-3.49-4.1-3.49a20.38,20.38,0,0,0-8.14,2L295,77.71a24.27,24.27,0,0,1,9.84-2c6.49,0,9.71,2.3,9.71,8.28v16.75h-5.7l-.51-3.13a10.87,10.87,0,0,1-8,3.63C296.18,101.26,293.42,98.83,293.42,94.46ZM308,94V88.61c-6.58.83-8.14,2.76-8.14,5.06a2.58,2.58,0,0,0,2.85,2.76A7.87,7.87,0,0,0,308,94Z" style="fill:#14486d"/><path d="M318,76.19h5.61l.55,3.41c2.3-2.17,4.83-3.91,8.06-3.91,4.6,0,7,2.8,7,7.45v17.62H332.7V84.89c0-2-.87-3.41-3-3.41-1.79,0-3.54,1.11-5.2,2.81v16.47H318Z" style="fill:#14486d"/><path d="M367.71,98a9.48,9.48,0,0,1-6.86,3.22c-5.11,0-9.15-3.81-9.15-12.1,0-9.06,4.92-13.29,12.33-13.29a30.2,30.2,0,0,1,10.21,1.7v32h-6.53Zm0-5.52V81.8a9.16,9.16,0,0,0-3.55-.59c-3.58,0-5.88,2.16-5.88,7.54,0,4.6,1.83,6.72,4.41,6.72C364.62,95.47,366.23,94.23,367.71,92.52Z" style="fill:#14486d"/><path d="M377.73,93.81V76.19h6.53V92.06c0,2,.88,3.41,2.95,3.41,1.79,0,3.54-1.11,5.2-2.81V76.19h6.53v24.57h-5.61l-.55-3.41c-2.26,2.17-4.84,3.91-8.06,3.91C380.12,101.26,377.73,98.46,377.73,93.81Z" style="fill:#14486d"/><path d="M401.28,88.52c0-8,4.83-12.83,11.32-12.83,7.45,0,10.72,5.56,10.72,12.55,0,.6,0,1.34-.05,2H407.86c.32,4.1,2.76,6.08,6.4,6.08a14.71,14.71,0,0,0,8.32-2.9l.74,4.92a16.83,16.83,0,0,1-9.8,2.94C406.48,101.26,401.28,97.35,401.28,88.52ZM417,85.94c-.32-3.77-1.8-5.84-4.56-5.84-2.34,0-4.18,1.93-4.6,5.84Z" style="fill:#14486d"/><path d="M213.15,129.52c0-8,4.83-12.83,11.31-12.83,7.46,0,10.72,5.56,10.72,12.55,0,.6,0,1.34,0,2H219.73c.32,4.1,2.76,6.08,6.39,6.08a14.77,14.77,0,0,0,8.33-2.9l.73,4.92a16.78,16.78,0,0,1-9.8,2.94C218.35,142.26,213.15,138.35,213.15,129.52Zm15.73-2.58c-.32-3.77-1.79-5.84-4.55-5.84-2.35,0-4.19,1.93-4.6,5.84Z" style="fill:#14486d"/><path d="M237.9,106h6.53v35.79H237.9Z" style="fill:#14486d"/><path d="M258.46,117.19h5.61l.55,3.31c1.75-2,4.1-3.81,7.41-3.81,5.1,0,9.15,3.81,9.15,12.14,0,9.16-5.06,13.2-10.67,13.2a16.52,16.52,0,0,1-5.52-.92v9.44h-6.53Zm16.19,12c0-4.6-1.93-6.72-4.46-6.72-2.07,0-3.68,1.24-5.2,3.13v10.26a9.58,9.58,0,0,0,4.37.92C272.4,136.79,274.65,134.4,274.65,129.2Z" style="fill:#14486d"/><path d="M283.57,117.19h5.61l.79,4.92c1.56-2.85,3.91-5.24,7.68-5.42l1.06,6.53a11.49,11.49,0,0,0-8.61,4.55v14h-6.53Z" style="fill:#14486d"/><path d="M299.76,109.6a3.78,3.78,0,1,1,3.78,3.63A3.58,3.58,0,0,1,299.76,109.6Zm.51,7.59h6.53v24.57h-6.53Z" style="fill:#14486d"/><path d="M310.62,117.19h5.61l.55,3.41c2.3-2.17,4.83-3.91,8.06-3.91,4.6,0,7,2.8,7,7.45v17.62h-6.53V125.89c0-2-.87-3.41-3-3.41-1.79,0-3.54,1.11-5.2,2.81v16.47h-6.53Z" style="fill:#14486d"/><path d="M334.08,129.61c0-8.6,5.38-12.88,12-12.88a13.91,13.91,0,0,1,7.54,2l-.92,5.84a9.77,9.77,0,0,0-6.21-2.21c-3.36,0-5.84,2.44-5.84,7.14s2.67,7.13,6.21,7.13A9.78,9.78,0,0,0,353,134.4l.83,5.47a13.64,13.64,0,0,1-8.05,2.35C338.91,142.22,334.08,137.62,334.08,129.61Z" style="fill:#14486d"/><path d="M355.88,109.6a3.78,3.78,0,1,1,3.77,3.63A3.58,3.58,0,0,1,355.88,109.6Zm.51,7.59h6.53v24.57h-6.53Z" style="fill:#14486d"/><path d="M366.74,117.19h5.61l.55,3.31c1.75-2,4.1-3.81,7.41-3.81,5.11,0,9.15,3.81,9.15,12.14,0,9.16-5.06,13.2-10.67,13.2a16.52,16.52,0,0,1-5.52-.92v9.44h-6.53Zm16.19,12c0-4.6-1.93-6.72-4.46-6.72-2.07,0-3.68,1.24-5.2,3.13v10.26a9.58,9.58,0,0,0,4.37.92C380.68,136.79,382.93,134.4,382.93,129.2Z" style="fill:#14486d"/><path d="M390.57,135.46c0-5.89,4.73-8.52,14.58-9.48v-.65c0-2.53-1.47-3.49-4.1-3.49a20.38,20.38,0,0,0-8.14,2l-.78-5.11a24.27,24.27,0,0,1,9.84-2c6.49,0,9.71,2.3,9.71,8.28v16.75H406l-.51-3.13a10.87,10.87,0,0,1-8,3.63C393.33,142.26,390.57,139.83,390.57,135.46Zm14.58-.46v-5.39c-6.58.83-8.14,2.76-8.14,5.06a2.58,2.58,0,0,0,2.85,2.76A7.87,7.87,0,0,0,405.15,135Z" style="fill:#14486d"/><path d="M415.41,106h6.53v35.79h-6.53Z" style="fill:#14486d"/><path d="M180.3,158.19h5.62l.55,3.31c1.75-2,4.09-3.81,7.4-3.81,5.11,0,9.16,3.81,9.16,12.14C203,179,198,183,192.36,183a16.47,16.47,0,0,1-5.52-.92v9.44H180.3Zm16.2,12c0-4.6-1.94-6.72-4.47-6.72-2.07,0-3.68,1.24-5.19,3.13v10.26a9.55,9.55,0,0,0,4.37.92C194.24,177.79,196.5,175.4,196.5,170.2Z" style="fill:#14486d"/><path d="M205.42,158.19H211l.78,4.92c1.57-2.85,3.91-5.24,7.69-5.42l1.05,6.53a11.49,11.49,0,0,0-8.6,4.55v14h-6.53Z" style="fill:#14486d"/><path d="M220.6,170.52c0-8,5-12.83,11.64-12.83s11.68,4.83,11.68,12.79-5,12.78-11.73,12.78S220.6,178.48,220.6,170.52Zm17,0c0-4.37-1.93-7.5-5.33-7.5s-5.29,3-5.29,7.46,1.88,7.45,5.29,7.45S237.57,174.89,237.57,170.52Z" style="fill:#14486d"/><path d="M246.27,181.38V147h6.53v13.94a9.62,9.62,0,0,1,6.85-3.22c5.16,0,9.16,3.81,9.16,12.14,0,9-4.92,13.25-12.33,13.25A30.37,30.37,0,0,1,246.27,181.38Zm16-11.18c0-4.6-1.89-6.72-4.42-6.72-1.93,0-3.59,1.24-5.06,3v10.72a9.42,9.42,0,0,0,3.54.59C259.93,177.74,262.28,175.58,262.28,170.2Z" style="fill:#14486d"/><path d="M271.47,147H278v35.79h-6.54Z" style="fill:#14486d"/><path d="M280.58,170.52c0-8,4.83-12.83,11.32-12.83,7.45,0,10.72,5.56,10.72,12.55,0,.6,0,1.34-.05,2H287.16c.32,4.1,2.76,6.08,6.39,6.08a14.75,14.75,0,0,0,8.33-2.9l.74,4.92a16.83,16.83,0,0,1-9.8,2.94C285.78,183.26,280.58,179.35,280.58,170.52Zm15.74-2.58c-.33-3.77-1.8-5.84-4.56-5.84-2.35,0-4.19,1.93-4.6,5.84Z" style="fill:#14486d"/><path d="M305.05,158.19h5.62l.55,3.41c2.3-2.21,4.69-3.91,8-3.91s5.29,1.61,6.21,3.95c2.21-2.21,4.83-3.95,8.05-3.95,4.61,0,6.95,2.8,6.95,7.45v17.62H333.9V166.89c0-2-.74-3.41-2.81-3.41-1.75,0-3.45,1.11-5.06,2.81v16.47H319.5V166.89c0-2-.78-3.41-2.85-3.41-1.75,0-3.41,1.11-5.06,2.81v16.47h-6.54Z" style="fill:#14486d"/><path d="M342.63,176.46c0-5.89,4.74-8.52,14.59-9.48v-.65c0-2.53-1.47-3.49-4.1-3.49a20.38,20.38,0,0,0-8.14,2l-.78-5.11a24.27,24.27,0,0,1,9.84-2c6.49,0,9.71,2.3,9.71,8.28v16.75h-5.7l-.51-3.13a10.87,10.87,0,0,1-8,3.63C345.39,183.26,342.63,180.83,342.63,176.46Zm14.59-.46v-5.39c-6.58.83-8.15,2.76-8.15,5.06a2.59,2.59,0,0,0,2.86,2.76A7.87,7.87,0,0,0,357.22,176Z" style="fill:#14486d"/><path d="M376.21,171.16c0-9.2,5.06-13.24,10.68-13.24a16.52,16.52,0,0,1,5.52.92V147h6.53v35.79h-5.61l-.55-3.31c-1.75,2-4.1,3.81-7.41,3.81C380.26,183.26,376.21,179.45,376.21,171.16Zm16.2,3.18V164.08a9.58,9.58,0,0,0-4.37-.92c-3,0-5.25,2.39-5.25,7.59,0,4.6,1.89,6.72,4.47,6.72C389.28,177.47,390.89,176.23,392.41,174.34Z" style="fill:#14486d"/><path d="M401.28,170.52c0-8,4.83-12.83,11.32-12.83,7.45,0,10.72,5.56,10.72,12.55,0,.6,0,1.34-.05,2H407.86c.32,4.1,2.76,6.08,6.4,6.08a14.71,14.71,0,0,0,8.32-2.9l.74,4.92a16.83,16.83,0,0,1-9.8,2.94C406.48,183.26,401.28,179.35,401.28,170.52ZM417,167.94c-.32-3.77-1.8-5.84-4.56-5.84-2.34,0-4.18,1.93-4.6,5.84Z" style="fill:#14486d"/><path d="M872.92,168.73c0-8,4.83-12.84,11.32-12.84,7.45,0,10.72,5.57,10.72,12.56,0,.6,0,1.34-.05,2H879.5c.32,4.1,2.76,6.07,6.4,6.07a14.73,14.73,0,0,0,8.32-2.89l.74,4.92a16.83,16.83,0,0,1-9.8,2.94C878.12,181.47,872.92,177.56,872.92,168.73Zm15.74-2.58c-.33-3.77-1.8-5.84-4.56-5.84-2.34,0-4.19,1.93-4.6,5.84Z" style="fill:#14486d"/><path d="M896.2,179l.83-5.47a18.12,18.12,0,0,0,9.11,2.9c2.43,0,3.63-.83,3.63-2.21s-.87-2-4.6-3c-6.07-1.56-8.6-3.27-8.6-7.87,0-4.41,3.4-7.45,9.29-7.45a22.46,22.46,0,0,1,8.83,1.79l-.87,5.43a18.07,18.07,0,0,0-8-2.25c-2.07,0-3,.74-3,1.93s.83,1.8,4.37,2.72c6.44,1.7,8.88,3.4,8.88,8,0,5-3.54,7.87-10,7.87A22.21,22.21,0,0,1,896.2,179Z" style="fill:#14486d"/><g id="adulto_mayor_mujer"><path d="M115.29,27.28a5.89,5.89,0,0,0,.62,2.2v.31c.32.63.63,1.26,1,1.88V32a6.4,6.4,0,0,0,1.25,1.88.31.31,0,0,0,.32.32,15.08,15.08,0,0,0,3.14,3.14h.31c.63.31,1.26.94,1.88,1.25h0a18,18,0,0,0,4.4,1.57h.32c.62,0,1.57.32,2.51.32a6.78,6.78,0,0,0,2.51-.32h.31a18,18,0,0,0,4.4-1.57h0a6.47,6.47,0,0,0,1.88-1.25h.32a15.32,15.32,0,0,0,3.14-3.14.31.31,0,0,1,.31-.32c.32-.63.94-1.25,1.26-1.88v-.32l.94-1.88v-.31c.32-.63.32-1.57.63-2.2v-.63c0-.63.31-1.57.31-2.2a16.38,16.38,0,0,0-8.48-14.13,6.15,6.15,0,0,0,1.89-3.77c0-3.45-3.77-6.28-8.79-6.28-4.71,0-8.8,2.83-8.8,6.28A6.6,6.6,0,0,0,124.08,10,16.11,16.11,0,0,0,115,24.45a4.59,4.59,0,0,0,.32,2.2Z" style="fill:#14486d"/><path d="M175,103.59c2.83-2.2,1.57-8.17,1.57-8.17l-13.19-43s-4.71-12.56-15.07-12.56H144.8a19.83,19.83,0,0,1-26.37,0H115C104.61,39.84,99.9,52.4,99.9,52.4l-13.19,43s-2.51,7.85,4.4,9.74c6.59,1.88,8.79-5.65,8.79-5.65l10.68-36.12s.62-2.82,2.51-2.2c2.2.63,1.25,3.46,1.25,3.46L95.82,132.16h17.27v48.37a8.17,8.17,0,0,0,16.33,0V132.16h4.71v48.37a8.17,8.17,0,0,0,16.33,0V132.16h17.27L149.2,64.65s-.63-2.83,1.26-3.46c2.2-.62,2.51,2.2,2.51,2.2l10.68,36.12s1.57,6,6.59,6C169.93,105.47,172.13,105.79,175,103.59Z" style="fill:#14486d"/></g><g id="adulto_mayor_hombre"><path d="M56.84,11.26l-5,1.26-2.2-9.74C49.3,1.53,48.68.27,46.79.9l-6,1.26a7.72,7.72,0,0,1-3.76,0L30.78.58c-1.26-.31-2.2.63-2.83,1.89L24.81,12.2l-5-1.25a1.44,1.44,0,0,0-1.25,1.57,1.44,1.44,0,0,0,1.25,1.57l4.09.94a18.49,18.49,0,0,0-1.57,7.22A16.39,16.39,0,0,0,32,37.33a14.09,14.09,0,0,0,6.28,1.25A11.49,11.49,0,0,0,44,37.33,16.13,16.13,0,0,0,54.33,22.25,18.67,18.67,0,0,0,52.76,15l4.08-.94a1.44,1.44,0,0,0,1.26-1.57C57.78,11.89,57.47,11.26,56.84,11.26Z" style="fill:#14486d"/><path d="M57.15,37h-6a19.19,19.19,0,0,1-12.88,4.71A20.17,20.17,0,0,1,25.44,37h-6A21.26,21.26,0,0,0,0,58.37V103a5.31,5.31,0,0,0,2.83,5,8.11,8.11,0,0,0,5,1c2.51-.32,4.71-3.14,4.71-6V64.65c0-1.57.32-3.46,3.14-3.46,1.89,0,2.2,1.89,2.2,3.14V179.58a9.11,9.11,0,1,0,18.21,0V113.32a2.4,2.4,0,0,1,2.52-2.51h0a2.4,2.4,0,0,1,2.51,2.51v66.26a9.11,9.11,0,1,0,18.21,0V64.65c0-1.26.32-3.14,2.2-3.14,2.51,0,3.14,1.88,3.14,3.45v38.31a6.28,6.28,0,1,0,12.56,0V58.68C76.62,47.06,68.15,38,57.15,37Z" style="fill:#14486d"/></g></g></g></svg>