<svg xmlns="http://www.w3.org/2000/svg" viewBox="0 0 864.41 261.47"><title>Asset 7</title><g id="Layer_2" data-name="Layer 2"><g id="Capa_1" data-name="Capa 1"><path d="M821.26,238.65c0-8,4.83-12.83,11.32-12.83,7.45,0,10.72,5.56,10.72,12.56,0,.59,0,1.33,0,2H827.84c.32,4.1,2.76,6.08,6.4,6.08a14.74,14.74,0,0,0,8.32-2.9l.74,4.92a16.84,16.84,0,0,1-9.8,3C826.46,251.4,821.26,247.49,821.26,238.65ZM837,236.08c-.33-3.78-1.8-5.85-4.56-5.85-2.34,0-4.18,1.94-4.6,5.85Z" style="fill:#14486d"/><path d="M844.54,249l.83-5.48a18.12,18.12,0,0,0,9.11,2.9c2.43,0,3.63-.83,3.63-2.21s-.87-2-4.6-3c-6.07-1.56-8.6-3.26-8.6-7.86,0-4.42,3.4-7.46,9.29-7.46a22.29,22.29,0,0,1,8.83,1.8l-.87,5.43a18.09,18.09,0,0,0-8-2.26c-2.07,0-3,.74-3,1.93s.83,1.8,4.37,2.72c6.44,1.7,8.88,3.4,8.88,8,0,5-3.54,7.87-10,7.87A22.21,22.21,0,0,1,844.54,249Z" style="fill:#14486d"/><path d="M409.31,188.38l-4.38,62.51H388.79l6.69-87.65h23.18l20.75,64.47,20.76-64.47h22.61l6.69,87.65H471.24l-4.38-62.51-20.64,62.74H430Z" style="fill:#de1f26"/><path d="M494.43,220.21c0-20.06,12.11-32.17,28.37-32.17,18.68,0,26.87,14,26.87,31.48,0,1.5,0,3.35-.12,5H510.92c.81,10.26,6.92,15.22,16,15.22,7.5,0,14.19-2.76,20.87-7.26l1.85,12.34a42.19,42.19,0,0,1-24.56,7.38C507.46,252.16,494.43,242.36,494.43,220.21Zm39.44-6.46c-.81-9.45-4.5-14.64-11.42-14.64-5.88,0-10.49,4.84-11.53,14.64Z" style="fill:#4c9b45"/><path d="M552.78,221.83c0-23.07,12.69-33.22,26.76-33.22a41.61,41.61,0,0,1,13.84,2.31V161.17h16.38v89.72H595.69l-1.39-8.3c-4.38,4.95-10.26,9.57-18.57,9.57C562.93,252.16,552.78,242.59,552.78,221.83Zm40.6,8V204.07a24.05,24.05,0,0,0-11-2.31c-7.61,0-13.14,6-13.14,19,0,11.53,4.73,16.84,11.18,16.84C585.54,237.63,589.57,234.51,593.38,229.79Z" style="fill:#03a5d4"/><path d="M615.64,220.21c0-20.06,12.11-32.17,28.37-32.17,18.68,0,26.87,14,26.87,31.48,0,1.5,0,3.35-.11,5H632.13c.81,10.26,6.92,15.22,16,15.22,7.5,0,14.19-2.76,20.88-7.26l1.84,12.34a42.19,42.19,0,0,1-24.56,7.38C628.67,252.16,615.64,242.36,615.64,220.21Zm39.44-6.46c-.81-9.45-4.5-14.64-11.42-14.64-5.88,0-10.49,4.84-11.53,14.64Z" style="fill:#ea6524"/><path d="M677.69,161.17h16.37v89.72H677.69Z" style="fill:#4c7838"/><path d="M704.33,161.17H720.7v89.72H704.33Z" style="fill:#4c7838"/><path d="M729.24,189.31h16.37v61.58H729.24Zm14.3-26.07h19.84v1L746,181.46H735.12Z" style="fill:#094c81"/><path d="M756.92,189.31H771l1.38,8.53c5.77-5.42,12.11-9.8,20.18-9.8,11.54,0,17.65,7,17.65,18.68v44.17H793.82V211.1c0-5.07-2.19-8.53-7.49-8.53-4.5,0-8.88,2.77-13,7v41.29H756.92Z" style="fill:#da1179"/><path d="M132.74,1.32h12.2V49.57h20v10.8H132.74Z" style="fill:#df1a82"/><path d="M166.39,49.73c0-9.95,8-14.38,24.63-16V32.63c0-4.27-2.49-5.9-6.92-5.9a34.44,34.44,0,0,0-13.75,3.34L169,21.44a41.08,41.08,0,0,1,16.63-3.34c11,0,16.39,3.89,16.39,14V60.37h-9.64l-.85-5.28c-3.42,3.42-7.54,6.14-13.52,6.14C171.05,61.23,166.39,57.11,166.39,49.73ZM191,49V39.86c-11.11,1.4-13.76,4.66-13.76,8.55,0,3,1.87,4.66,4.82,4.66C185.27,53.07,188.3,51.51,191,49Z" style="fill:#df1a82"/><path d="M205.86,57.11l1.4-9.25c4.66,3,10.49,4.9,15.38,4.9,4.12,0,6.14-1.4,6.14-3.73,0-2.49-1.48-3.42-7.77-5.05-10.26-2.65-14.53-5.52-14.53-13.29,0-7.46,5.75-12.59,15.7-12.59a37.9,37.9,0,0,1,14.91,3l-1.47,9.17a30.47,30.47,0,0,0-13.44-3.8c-3.5,0-5.13,1.24-5.13,3.26s1.4,3,7.38,4.58c10.88,2.88,15,5.75,15,13.52,0,8.47-6,13.29-16.86,13.29A37.6,37.6,0,0,1,205.86,57.11Z" style="fill:#df1a82"/><path d="M260.48,18.88H270l.93,5.75c3.89-3.73,7.93-6.6,13.52-6.6,5.75,0,8.94,2.72,10.49,6.68C298.63,21,303.06,18,308.5,18c7.77,0,11.73,4.74,11.73,12.58V60.37h-11V33.57c0-3.42-1.24-5.75-4.74-5.75-2.95,0-5.83,1.86-8.55,4.74V60.37h-11V33.57c0-3.42-1.32-5.75-4.82-5.75-2.95,0-5.75,1.86-8.54,4.74V60.37h-11Z" style="fill:#df1a82"/><path d="M326,48.64V18.88h11V45.69c0,3.42,1.48,5.75,5,5.75,3,0,6-1.87,8.78-4.74V18.88h11V60.37h-9.48l-.94-5.75c-3.8,3.65-8.15,6.61-13.59,6.61C330,61.23,326,56.49,326,48.64Z" style="fill:#df1a82"/><path d="M361.89,75.6l-1.4-8.86a12.59,12.59,0,0,0,3.26.39c2.72,0,4.58-1.32,4.58-5V18.88h11V62.94c0,9.32-5.44,13-13.37,13A19.34,19.34,0,0,1,361.89,75.6Zm5.59-69.54a6.37,6.37,0,1,1,6.37,6.14A6.07,6.07,0,0,1,367.48,6.06Z" style="fill:#df1a82"/><path d="M383.72,39.7c0-13.52,8.16-21.67,19.11-21.67,12.59,0,18.11,9.4,18.11,21.21,0,1,0,2.25-.08,3.34h-26c.54,6.91,4.66,10.25,10.8,10.25,5.05,0,9.56-1.86,14.06-4.89l1.25,8.31a28.42,28.42,0,0,1-16.55,5C392.5,61.23,383.72,54.62,383.72,39.7Zm26.57-4.35c-.54-6.37-3-9.86-7.69-9.86-4,0-7.07,3.26-7.77,9.86Z" style="fill:#df1a82"/><path d="M425.06,18.88h9.48l1.32,8.31c2.64-4.81,6.6-8.85,13-9.16l1.79,11a19.4,19.4,0,0,0-14.53,7.69V60.37h-11Z" style="fill:#df1a82"/><path d="M450.7,39.7c0-13.52,8.16-21.67,19.11-21.67,12.59,0,18.11,9.4,18.11,21.21,0,1,0,2.25-.08,3.34h-26c.54,6.91,4.66,10.25,10.8,10.25,5.05,0,9.56-1.86,14.06-4.89l1.25,8.31a28.42,28.42,0,0,1-16.55,5C459.48,61.23,450.7,54.62,450.7,39.7Zm26.57-4.35c-.54-6.37-3-9.86-7.69-9.86-4,0-7.07,3.26-7.77,9.86Z" style="fill:#df1a82"/><path d="M490,57.11l1.39-9.25c4.67,3,10.49,4.9,15.39,4.9,4.12,0,6.14-1.4,6.14-3.73,0-2.49-1.48-3.42-7.77-5.05-10.26-2.65-14.53-5.52-14.53-13.29,0-7.46,5.75-12.59,15.69-12.59a37.92,37.92,0,0,1,14.92,3l-1.48,9.17a30.47,30.47,0,0,0-13.44-3.8c-3.49,0-5.13,1.24-5.13,3.26s1.4,3,7.39,4.58c10.87,2.88,15,5.75,15,13.52,0,8.47-6,13.29-16.86,13.29A37.56,37.56,0,0,1,490,57.11Z" style="fill:#df1a82"/><path d="M129.56,116.55c0-9.94,8-14.37,24.63-16V99.46c0-4.28-2.49-5.91-6.92-5.91a34.44,34.44,0,0,0-13.75,3.34l-1.32-8.62a41.06,41.06,0,0,1,16.62-3.34c11,0,16.4,3.88,16.4,14V127.2h-9.64l-.85-5.29c-3.42,3.42-7.54,6.14-13.52,6.14C134.22,128.05,129.56,123.93,129.56,116.55Zm24.63-.77v-9.1c-11.11,1.4-13.76,4.67-13.76,8.55,0,3,1.87,4.66,4.82,4.66C148.44,119.89,151.47,118.34,154.19,115.78Z" style="fill:#df1a82"/><path d="M169,107.62c0-15.54,8.55-22.38,18-22.38a28.23,28.23,0,0,1,9.33,1.55v-20h11V127.2h-9.48l-.93-5.6c-2.95,3.34-6.92,6.45-12.51,6.45C175.87,128.05,169,121.6,169,107.62ZM196.38,113V95.65A16.21,16.21,0,0,0,189,94.1c-5.13,0-8.86,4-8.86,12.82,0,7.77,3.19,11.34,7.54,11.34C191.1,118.26,193.81,116.16,196.38,113Z" style="fill:#df1a82"/><path d="M213.32,115.46V85.71h11v26.8c0,3.42,1.48,5.75,5,5.75,3,0,6-1.86,8.77-4.74V85.71h11V127.2h-9.48l-.93-5.75c-3.81,3.65-8.16,6.6-13.6,6.6C217.36,128.05,213.32,123.31,213.32,115.46Z" style="fill:#df1a82"/><path d="M255.67,66.75h11V127.2h-11Z" style="fill:#df1a82"/><path d="M275.33,115V94.72h-5.75v-9h5.75V72.11h10.95v13.6h8.94v9h-8.94v18.49c0,3.34,1.55,5.13,5.36,5.13a18.77,18.77,0,0,0,3.81-.39v9.32a22.25,22.25,0,0,1-6,.63C281.07,127.9,275.33,124.79,275.33,115Z" style="fill:#df1a82"/><path d="M297.32,116.55c0-9.94,8-14.37,24.63-16V99.46c0-4.28-2.49-5.91-6.92-5.91a34.44,34.44,0,0,0-13.75,3.34L300,88.27a41.06,41.06,0,0,1,16.62-3.34c11,0,16.4,3.88,16.4,14V127.2h-9.64l-.85-5.29c-3.42,3.42-7.54,6.14-13.52,6.14C302,128.05,297.32,123.93,297.32,116.55Zm24.63-.77v-9.1c-11.12,1.4-13.76,4.67-13.76,8.55,0,3,1.87,4.66,4.82,4.66C316.2,119.89,319.23,118.34,322,115.78Z" style="fill:#df1a82"/><path d="M336.79,123.93l1.4-9.24c4.66,3,10.49,4.89,15.38,4.89,4.12,0,6.14-1.4,6.14-3.73s-1.48-3.42-7.77-5c-10.26-2.64-14.53-5.51-14.53-13.28,0-7.46,5.75-12.59,15.69-12.59A37.74,37.74,0,0,1,368,88l-1.47,9.17a30.49,30.49,0,0,0-13.45-3.81c-3.49,0-5.12,1.24-5.12,3.26s1.4,3,7.38,4.59c10.88,2.87,15,5.75,15,13.52,0,8.47-6,13.28-16.86,13.28A37.47,37.47,0,0,1,336.79,123.93Z" style="fill:#df1a82"/><path d="M391.41,85.71h9.48l.93,5.75c3.89-3.73,7.93-6.61,13.52-6.61,5.75,0,8.94,2.72,10.49,6.68,3.73-3.73,8.16-6.68,13.6-6.68,7.77,0,11.73,4.74,11.73,12.59V127.2h-11V100.39c0-3.42-1.24-5.75-4.74-5.75-2.95,0-5.83,1.87-8.55,4.74V127.2h-11V100.39c0-3.42-1.32-5.75-4.82-5.75-2.95,0-5.75,1.87-8.54,4.74V127.2h-11Z" style="fill:#df1a82"/><path d="M454.9,116.55c0-9.94,8-14.37,24.63-16V99.46c0-4.28-2.49-5.91-6.92-5.91a34.44,34.44,0,0,0-13.75,3.34l-1.32-8.62a41.06,41.06,0,0,1,16.62-3.34c11,0,16.4,3.88,16.4,14V127.2h-9.64l-.85-5.29c-3.42,3.42-7.54,6.14-13.52,6.14C459.56,128.05,454.9,123.93,454.9,116.55Zm24.63-.77v-9.1c-11.12,1.4-13.76,4.67-13.76,8.55,0,3,1.87,4.66,4.82,4.66C473.78,119.89,476.81,118.34,479.53,115.78Z" style="fill:#df1a82"/><path d="M496.78,142.35l-1.48-9a16.62,16.62,0,0,0,4.9.63,6.76,6.76,0,0,0,6.68-4.35l.85-2.26L492.35,85.71h12.12l9,28,8.78-28h10.88l-15.46,43.35c-3.73,10.33-8.55,13.68-16.86,13.68A16.35,16.35,0,0,1,496.78,142.35Z" style="fill:#df1a82"/><path d="M533.22,106.53c0-13.44,8.39-21.68,19.66-21.68s19.73,8.16,19.73,21.6-8.39,21.6-19.81,21.6C541.53,128.05,533.22,120,533.22,106.53Zm28.67,0c0-7.38-3.26-12.67-9-12.67s-8.94,5.13-8.94,12.59S547.13,119,552.88,119,561.89,113.91,561.89,106.53Z" style="fill:#df1a82"/><path d="M576.58,85.71h9.48L587.38,94c2.64-4.82,6.6-8.86,13-9.17l1.79,11a19.41,19.41,0,0,0-14.53,7.7V127.2h-11Z" style="fill:#df1a82"/><path d="M602.22,106.53c0-13.52,8.16-21.68,19.11-21.68,12.59,0,18.11,9.4,18.11,21.21,0,1,0,2.26-.08,3.34h-26c.54,6.92,4.66,10.26,10.8,10.26,5,0,9.56-1.87,14.06-4.9l1.25,8.32a28.42,28.42,0,0,1-16.55,5C611,128.05,602.22,121.45,602.22,106.53Zm26.57-4.35c-.54-6.37-3-9.87-7.69-9.87-4,0-7.07,3.26-7.77,9.87Z" style="fill:#df1a82"/><path d="M641.54,123.93l1.4-9.24c4.66,3,10.49,4.89,15.38,4.89,4.12,0,6.14-1.4,6.14-3.73s-1.48-3.42-7.77-5c-10.26-2.64-14.53-5.51-14.53-13.28,0-7.46,5.75-12.59,15.69-12.59a37.74,37.74,0,0,1,14.92,3l-1.47,9.17a30.56,30.56,0,0,0-13.45-3.81c-3.49,0-5.12,1.24-5.12,3.26s1.39,3,7.38,4.59c10.87,2.87,15,5.75,15,13.52,0,8.47-6,13.28-16.86,13.28A37.47,37.47,0,0,1,641.54,123.93Z" style="fill:#df1a82"/><path d="M138.44,146.12h5.61l.56,3.31c1.74-2,4.09-3.82,7.4-3.82,5.11,0,9.16,3.82,9.16,12.14,0,9.16-5.06,13.21-10.68,13.21A16.82,16.82,0,0,1,145,170v9.43h-6.53Zm16.2,12c0-4.6-1.94-6.71-4.47-6.71-2.07,0-3.68,1.24-5.2,3.12v10.26a9.58,9.58,0,0,0,4.37.92C152.38,165.71,154.64,163.32,154.64,158.12Z" style="fill:#14486d"/><path d="M163.33,138.52a3.78,3.78,0,0,1,7.54,0,3.77,3.77,0,0,1-7.54,0Zm.5,7.6h6.54v24.56h-6.54Z" style="fill:#14486d"/><path d="M172.94,158.44c0-8,4.83-12.83,11.32-12.83,7.45,0,10.72,5.57,10.72,12.56,0,.6,0,1.33,0,2H179.52c.32,4.09,2.76,6.07,6.39,6.07a14.7,14.7,0,0,0,8.33-2.9l.74,4.92a16.84,16.84,0,0,1-9.8,2.95C178.14,171.19,172.94,167.28,172.94,158.44Zm15.73-2.57c-.32-3.77-1.79-5.84-4.55-5.84-2.35,0-4.19,1.93-4.6,5.84Z" style="fill:#14486d"/><path d="M197.41,146.12H203l.55,3.4c2.3-2.16,4.83-3.91,8-3.91,4.6,0,7,2.81,7,7.45v17.62h-6.54V154.81c0-2-.87-3.4-3-3.4-1.79,0-3.54,1.1-5.19,2.8v16.47h-6.54Z" style="fill:#14486d"/><path d="M220.92,168.75l.83-5.48a18.12,18.12,0,0,0,9.11,2.9c2.43,0,3.63-.83,3.63-2.21s-.87-2-4.6-3c-6.07-1.56-8.6-3.26-8.6-7.86,0-4.42,3.4-7.46,9.29-7.46a22.29,22.29,0,0,1,8.83,1.8l-.87,5.43a18.09,18.09,0,0,0-8-2.26c-2.07,0-3,.74-3,1.94s.83,1.79,4.37,2.71c6.44,1.7,8.88,3.4,8.88,8,0,5-3.54,7.87-10,7.87A22.21,22.21,0,0,1,220.92,168.75Z" style="fill:#14486d"/><path d="M241.76,164.38c0-5.89,4.73-8.51,14.58-9.48v-.64c0-2.53-1.47-3.5-4.1-3.5a20.38,20.38,0,0,0-8.14,2l-.78-5.11a24.44,24.44,0,0,1,9.84-2c6.49,0,9.71,2.31,9.71,8.29v16.74h-5.7l-.51-3.13a10.84,10.84,0,0,1-8,3.64C244.52,171.19,241.76,168.75,241.76,164.38Zm14.58-.46v-5.38c-6.58.82-8.14,2.76-8.14,5.06a2.59,2.59,0,0,0,2.85,2.76A7.84,7.84,0,0,0,256.34,163.92Z" style="fill:#14486d"/><path d="M266.32,146.12h5.61l.55,3.4c2.3-2.16,4.84-3.91,8.06-3.91,4.6,0,7,2.81,7,7.45v17.62H281V154.81c0-2-.87-3.4-3-3.4-1.79,0-3.54,1.1-5.2,2.8v16.47h-6.53Z" style="fill:#14486d"/><path d="M316.05,168a9.48,9.48,0,0,1-6.86,3.22c-5.1,0-9.15-3.82-9.15-12.1,0-9.06,4.92-13.3,12.33-13.3a30.19,30.19,0,0,1,10.21,1.71v32h-6.53Zm0-5.52V151.73a9,9,0,0,0-3.55-.6c-3.58,0-5.88,2.16-5.88,7.54,0,4.6,1.84,6.72,4.41,6.72C313,165.39,314.57,164.15,316.05,162.45Z" style="fill:#14486d"/><path d="M326.07,163.73V146.12h6.54V162c0,2,.87,3.4,2.94,3.4,1.79,0,3.54-1.1,5.2-2.81V146.12h6.53v24.56h-5.61l-.55-3.4c-2.26,2.16-4.83,3.91-8.05,3.91C328.46,171.19,326.07,168.38,326.07,163.73Z" style="fill:#14486d"/><path d="M349.62,158.44c0-8,4.83-12.83,11.32-12.83,7.45,0,10.72,5.57,10.72,12.56,0,.6,0,1.33-.05,2H356.2c.33,4.09,2.76,6.07,6.4,6.07a14.7,14.7,0,0,0,8.33-2.9l.73,4.92a16.84,16.84,0,0,1-9.8,2.95C354.82,171.19,349.62,167.28,349.62,158.44Zm15.74-2.57c-.32-3.77-1.8-5.84-4.56-5.84-2.34,0-4.18,1.93-4.6,5.84Z" style="fill:#14486d"/><path d="M161.49,199.44c0-8,4.83-12.83,11.31-12.83,7.46,0,10.72,5.57,10.72,12.56,0,.6,0,1.33,0,2H168.07c.32,4.09,2.76,6.07,6.39,6.07a14.7,14.7,0,0,0,8.33-2.9l.73,4.92a16.79,16.79,0,0,1-9.8,2.95C166.69,212.19,161.49,208.28,161.49,199.44Zm15.73-2.57c-.32-3.77-1.79-5.84-4.55-5.84-2.35,0-4.19,1.93-4.6,5.84Z" style="fill:#14486d"/><path d="M186.24,175.89h6.53v35.79h-6.53Z" style="fill:#14486d"/><path d="M206.8,187.12h5.61l.55,3.31c1.75-2,4.1-3.82,7.41-3.82,5.1,0,9.15,3.82,9.15,12.14,0,9.16-5.06,13.21-10.67,13.21a16.77,16.77,0,0,1-5.52-.92v9.43H206.8Zm16.19,12c0-4.6-1.93-6.71-4.46-6.71-2.07,0-3.68,1.24-5.2,3.12v10.26a9.58,9.58,0,0,0,4.37.92C220.74,206.71,223,204.32,223,199.12Z" style="fill:#14486d"/><path d="M231.91,187.12h5.61l.79,4.92c1.56-2.85,3.91-5.25,7.68-5.43l1.06,6.53a11.52,11.52,0,0,0-8.61,4.56v14h-6.53Z" style="fill:#14486d"/><path d="M248.1,179.52a3.78,3.78,0,1,1,3.78,3.64A3.58,3.58,0,0,1,248.1,179.52Zm.51,7.6h6.53v24.56h-6.53Z" style="fill:#14486d"/><path d="M259,187.12h5.61l.55,3.4c2.3-2.16,4.83-3.91,8.06-3.91,4.6,0,7,2.81,7,7.45v17.62h-6.53V195.81c0-2-.87-3.4-3-3.4-1.79,0-3.54,1.1-5.2,2.8v16.47H259Z" style="fill:#14486d"/><path d="M282.42,199.54c0-8.61,5.38-12.89,12-12.89a14,14,0,0,1,7.54,2l-.92,5.85a9.77,9.77,0,0,0-6.21-2.21c-3.36,0-5.84,2.44-5.84,7.13s2.67,7.13,6.21,7.13a9.73,9.73,0,0,0,6.16-2.21l.83,5.48a13.7,13.7,0,0,1-8.05,2.34C287.25,212.14,282.42,207.54,282.42,199.54Z" style="fill:#14486d"/><path d="M304.22,179.52a3.78,3.78,0,1,1,3.78,3.64A3.58,3.58,0,0,1,304.22,179.52Zm.51,7.6h6.53v24.56h-6.53Z" style="fill:#14486d"/><path d="M315.08,187.12h5.61l.55,3.31c1.75-2,4.1-3.82,7.41-3.82,5.11,0,9.15,3.82,9.15,12.14,0,9.16-5.06,13.21-10.67,13.21a16.77,16.77,0,0,1-5.52-.92v9.43h-6.53Zm16.19,12c0-4.6-1.93-6.71-4.46-6.71-2.07,0-3.68,1.24-5.2,3.12v10.26a9.58,9.58,0,0,0,4.37.92C329,206.71,331.27,204.32,331.27,199.12Z" style="fill:#14486d"/><path d="M338.91,205.38c0-5.89,4.73-8.51,14.58-9.48v-.64c0-2.53-1.47-3.5-4.09-3.5a20.39,20.39,0,0,0-8.15,2l-.78-5.11a24.45,24.45,0,0,1,9.85-2c6.48,0,9.7,2.31,9.7,8.29v16.74h-5.7l-.51-3.13a10.84,10.84,0,0,1-8,3.64C341.67,212.19,338.91,209.75,338.91,205.38Zm14.58-.46v-5.38c-6.58.82-8.14,2.76-8.14,5.06a2.59,2.59,0,0,0,2.85,2.76A7.82,7.82,0,0,0,353.49,204.92Z" style="fill:#14486d"/><path d="M363.75,175.89h6.53v35.79h-6.53Z" style="fill:#14486d"/><path d="M128.64,228.12h5.62l.55,3.31c1.75-2,4.09-3.82,7.41-3.82,5.1,0,9.15,3.82,9.15,12.14,0,9.16-5.06,13.21-10.67,13.21a16.73,16.73,0,0,1-5.52-.92v9.43h-6.54Zm16.2,12c0-4.6-1.93-6.71-4.47-6.71-2.07,0-3.68,1.24-5.19,3.12v10.26a9.55,9.55,0,0,0,4.37.92C142.58,247.71,144.84,245.32,144.84,240.12Z" style="fill:#14486d"/><path d="M153.76,228.12h5.61l.78,4.92c1.57-2.85,3.91-5.25,7.69-5.43l1,6.53a11.49,11.49,0,0,0-8.6,4.56v14h-6.53Z" style="fill:#14486d"/><path d="M168.94,240.44c0-7.95,5-12.83,11.64-12.83s11.68,4.83,11.68,12.79-5,12.79-11.73,12.79S168.94,248.4,168.94,240.44Zm17,0c0-4.37-1.93-7.49-5.33-7.49s-5.29,3-5.29,7.45,1.88,7.45,5.29,7.45S185.91,244.81,185.91,240.44Z" style="fill:#14486d"/><path d="M194.61,251.3V216.89h6.53v13.94a9.62,9.62,0,0,1,6.85-3.22c5.16,0,9.16,3.82,9.16,12.14,0,9-4.92,13.25-12.33,13.25A30.37,30.37,0,0,1,194.61,251.3Zm16-11.18c0-4.6-1.89-6.71-4.42-6.71-1.93,0-3.59,1.24-5.06,2.94v10.72a9.45,9.45,0,0,0,3.54.6C208.27,247.67,210.62,245.5,210.62,240.12Z" style="fill:#14486d"/><path d="M219.81,216.89h6.54v35.79h-6.54Z" style="fill:#14486d"/><path d="M228.92,240.44c0-8,4.83-12.83,11.32-12.83,7.45,0,10.72,5.57,10.72,12.56,0,.6,0,1.33-.05,2H235.5c.32,4.09,2.76,6.07,6.4,6.07a14.67,14.67,0,0,0,8.32-2.9l.74,4.92a16.84,16.84,0,0,1-9.8,2.95C234.12,253.19,228.92,249.28,228.92,240.44Zm15.74-2.57c-.33-3.77-1.8-5.84-4.56-5.84-2.35,0-4.19,1.93-4.6,5.84Z" style="fill:#14486d"/><path d="M253.39,228.12H259l.55,3.4c2.3-2.21,4.69-3.91,8-3.91s5.29,1.61,6.21,4c2.21-2.21,4.83-4,8.05-4,4.61,0,6.95,2.81,6.95,7.45v17.62h-6.53V236.81c0-2-.74-3.4-2.81-3.4-1.75,0-3.45,1.1-5.06,2.8v16.47h-6.53V236.81c0-2-.78-3.4-2.85-3.4-1.75,0-3.41,1.1-5.06,2.8v16.47h-6.54Z" style="fill:#14486d"/><path d="M291,246.38c0-5.89,4.74-8.51,14.59-9.48v-.64c0-2.53-1.47-3.5-4.1-3.5a20.38,20.38,0,0,0-8.14,2l-.78-5.11a24.44,24.44,0,0,1,9.84-2c6.49,0,9.71,2.31,9.71,8.29v16.74h-5.7l-.51-3.13a10.84,10.84,0,0,1-8,3.64C293.74,253.19,291,250.75,291,246.38Zm14.59-.46v-5.38c-6.58.82-8.14,2.76-8.14,5.06a2.59,2.59,0,0,0,2.85,2.76A7.84,7.84,0,0,0,305.56,245.92Z" style="fill:#14486d"/><path d="M324.55,241.09c0-9.2,5.06-13.25,10.68-13.25a16.52,16.52,0,0,1,5.52.92V216.89h6.53v35.79h-5.61l-.55-3.31c-1.75,2-4.1,3.82-7.41,3.82C328.6,253.19,324.55,249.37,324.55,241.09Zm16.2,3.17V234a9.71,9.71,0,0,0-4.37-.92c-3,0-5.25,2.4-5.25,7.59,0,4.6,1.89,6.72,4.47,6.72C337.62,247.39,339.23,246.15,340.75,244.26Z" style="fill:#14486d"/><path d="M349.62,240.44c0-8,4.83-12.83,11.32-12.83,7.45,0,10.72,5.57,10.72,12.56,0,.6,0,1.33-.05,2H356.2c.33,4.09,2.76,6.07,6.4,6.07a14.7,14.7,0,0,0,8.33-2.9l.73,4.92a16.84,16.84,0,0,1-9.8,2.95C354.82,253.19,349.62,249.28,349.62,240.44Zm15.74-2.57c-.32-3.77-1.8-5.84-4.56-5.84-2.34,0-4.18,1.93-4.6,5.84Z" style="fill:#14486d"/><g id="adulto_mayor_mujer"><path d="M40.11,37.52a8.13,8.13,0,0,0,.87,3V41l1.31,2.61V44A9,9,0,0,0,44,46.64a.42.42,0,0,0,.44.43,20.3,20.3,0,0,0,4.34,4.34h.43c.87.44,1.74,1.3,2.6,1.74h0a25.36,25.36,0,0,0,6.08,2.17h.44c.86,0,2.17.43,3.47.43a9.63,9.63,0,0,0,3.47-.43h.43a25.21,25.21,0,0,0,6.08-2.17h0a9.21,9.21,0,0,0,2.61-1.74h.43a20.3,20.3,0,0,0,4.34-4.34.42.42,0,0,1,.43-.43c.44-.87,1.31-1.74,1.74-2.61V43.6L82.65,41v-.43c.44-.87.44-2.17.87-3v-.87c0-.86.43-2.17.43-3A22.67,22.67,0,0,0,72.24,14.08c1.3-1.3,2.6-3.47,2.6-5.21C74.84,4.1,69.63.19,62.69.19,56.18.19,50.53,4.1,50.53,8.87a9.09,9.09,0,0,0,1.74,4.78,22.27,22.27,0,0,0-12.59,20,6.44,6.44,0,0,0,.43,3Z" style="fill:#a71f65"/><path d="M122.59,143c3.9-3,2.17-11.29,2.17-11.29L106.53,72.25S100,54.88,85.69,54.88H80.92a27.38,27.38,0,0,1-36.46,0H39.68c-14.32,0-20.83,17.37-20.83,17.37L.62,131.71s-3.48,10.85,6.07,13.46c9.12,2.6,12.16-7.81,12.16-7.81L33.6,87.44s.87-3.91,3.48-3c3,.87,1.73,4.78,1.73,4.78L13.2,182.5H37.08v66.84a11.29,11.29,0,1,0,22.57,0V182.5h6.51v66.84a11.29,11.29,0,1,0,22.57,0V182.5H112.6L87,89.18s-.86-3.91,1.74-4.78c3-.87,3.47,3,3.47,3L107,137.36s2.17,8.24,9.12,8.24C115.64,145.6,118.68,146,122.59,143Z" style="fill:#a71f65"/></g></g></g></svg>