<svg xmlns="http://www.w3.org/2000/svg" viewBox="0 0 593.27 233.67"><title>Asset 5</title><g id="Layer_2" data-name="Layer 2"><g id="Capa_1" data-name="Capa 1"><path d="M329.82,187,327,227.45H316.54l4.32-56.7h15l13.43,41.7,13.43-41.7h14.62l4.32,56.7H369.88L367,187,353.69,227.6H343.17Z" style="fill:#de1f26"/><path d="M384.87,207.6c0-13,7.84-20.81,18.35-20.81,12.09,0,17.39,9,17.39,20.37,0,1,0,2.16-.08,3.2h-25c.52,6.64,4.48,9.85,10.37,9.85,4.85,0,9.18-1.79,13.5-4.7l1.2,8a27.25,27.25,0,0,1-15.89,4.78C393.3,228.27,384.87,221.93,384.87,207.6Zm25.52-4.18c-.53-6.11-2.91-9.47-7.39-9.47-3.8,0-6.79,3.13-7.46,9.47Z" style="fill:#4c9b45"/><path d="M422.62,208.65c0-14.92,8.21-21.49,17.31-21.49a27,27,0,0,1,8.95,1.49V169.41h10.59v58h-9.1l-.89-5.37c-2.84,3.2-6.64,6.19-12,6.19C429.19,228.27,422.62,222.08,422.62,208.65Zm26.26,5.14V197.16a15.56,15.56,0,0,0-7.09-1.49c-4.92,0-8.5,3.88-8.5,12.31,0,7.46,3.06,10.89,7.23,10.89C443.81,218.87,446.42,216.85,448.88,213.79Z" style="fill:#03a5d4"/><path d="M463.28,207.6c0-13,7.83-20.81,18.35-20.81,12.08,0,17.38,9,17.38,20.37,0,1,0,2.16-.07,3.2H474c.52,6.64,4.47,9.85,10.36,9.85,4.85,0,9.18-1.79,13.51-4.7l1.19,8a27.25,27.25,0,0,1-15.89,4.78C471.71,228.27,463.28,221.93,463.28,207.6Zm25.51-4.18c-.52-6.11-2.91-9.47-7.38-9.47-3.81,0-6.79,3.13-7.46,9.47Z" style="fill:#ea6524"/><path d="M503.41,169.41H514v58h-10.6Z" style="fill:#4c7838"/><path d="M520.65,169.41h10.59v58H520.65Z" style="fill:#4c7838"/><path d="M536.76,187.61h10.59v39.84H536.76ZM546,170.75h12.83v.67l-11.26,11.12h-7Z" style="fill:#094c81"/><path d="M554.66,187.61h9.1l.9,5.52c3.73-3.51,7.83-6.34,13.05-6.34,7.46,0,11.42,4.55,11.42,12.08v28.58h-10.6V201.71c0-3.28-1.41-5.52-4.84-5.52-2.91,0-5.75,1.79-8.43,4.55v26.71h-10.6Z" style="fill:#da1179"/><path d="M90.59,1.06h9.23V37.57h15.11v8.17H90.59Z" style="fill:#df1a82"/><path d="M116,37.69c0-7.53,6.06-10.88,18.64-12.12v-.82c0-3.23-1.88-4.47-5.23-4.47A26,26,0,0,0,119,22.81l-1-6.52a31.12,31.12,0,0,1,12.58-2.53c8.29,0,12.41,2.94,12.41,10.58v21.4h-7.29l-.65-4c-2.59,2.59-5.7,4.65-10.23,4.65C119.57,46.39,116,43.27,116,37.69Zm18.64-.59V30.22c-8.41,1.06-10.41,3.53-10.41,6.47a3.3,3.3,0,0,0,3.65,3.52A10,10,0,0,0,134.68,37.1Z" style="fill:#df1a82"/><path d="M145.91,43.27l1.06-7A23.09,23.09,0,0,0,158.61,40c3.11,0,4.64-1.06,4.64-2.82s-1.12-2.59-5.88-3.83c-7.76-2-11-4.17-11-10,0-5.64,4.35-9.52,11.87-9.52a28.63,28.63,0,0,1,11.29,2.29L168.42,23a23,23,0,0,0-10.17-2.88c-2.64,0-3.88.94-3.88,2.47S155.43,24.87,160,26c8.23,2.18,11.35,4.36,11.35,10.23,0,6.41-4.53,10.06-12.76,10.06A28.33,28.33,0,0,1,145.91,43.27Z" style="fill:#df1a82"/><path d="M187.24,14.35h7.17l.7,4.35c2.94-2.83,6-5,10.23-5s6.76,2.06,7.94,5.05c2.82-2.82,6.17-5.05,10.29-5.05,5.88,0,8.88,3.59,8.88,9.52V45.74H224.1V25.46c0-2.59-.94-4.35-3.59-4.35-2.23,0-4.41,1.41-6.47,3.58V45.74H205.7V25.46c0-2.59-1-4.35-3.65-4.35-2.23,0-4.35,1.41-6.47,3.58V45.74h-8.34Z" style="fill:#df1a82"/><path d="M236.79,36.86V14.35h8.35V34.63c0,2.59,1.12,4.35,3.77,4.35,2.29,0,4.52-1.41,6.64-3.59v-21h8.35V45.74h-7.17L256,41.39c-2.88,2.76-6.17,5-10.29,5C239.85,46.39,236.79,42.8,236.79,36.86Z" style="fill:#df1a82"/><path d="M264,57.26l-1.06-6.7a9.58,9.58,0,0,0,2.47.3c2.05,0,3.47-1,3.47-3.83V14.35h8.34V47.68c0,7.06-4.11,9.82-10.11,9.82A14.19,14.19,0,0,1,264,57.26Zm4.23-52.62A4.82,4.82,0,1,1,273,9.29,4.59,4.59,0,0,1,268.19,4.64Z" style="fill:#df1a82"/><path d="M280.48,30.1c0-10.23,6.17-16.4,14.46-16.4,9.52,0,13.7,7.11,13.7,16.05,0,.76,0,1.7-.06,2.53h-19.7c.41,5.23,3.53,7.76,8.17,7.76,3.83,0,7.24-1.41,10.65-3.71l.94,6.29a21.46,21.46,0,0,1-12.53,3.77C287.12,46.39,280.48,41.39,280.48,30.1Zm20.1-3.29c-.41-4.82-2.29-7.47-5.82-7.47-3,0-5.35,2.47-5.88,7.47Z" style="fill:#df1a82"/><path d="M311.75,14.35h7.17l1,6.29c2-3.65,5-6.71,9.82-6.94l1.35,8.35a14.64,14.64,0,0,0-11,5.82V45.74h-8.35Z" style="fill:#df1a82"/><path d="M331.15,30.1c0-10.23,6.18-16.4,14.46-16.4,9.53,0,13.7,7.11,13.7,16.05,0,.76,0,1.7-.06,2.53H339.56c.41,5.23,3.53,7.76,8.17,7.76,3.82,0,7.23-1.41,10.64-3.71l.94,6.29a21.43,21.43,0,0,1-12.52,3.77C337.8,46.39,331.15,41.39,331.15,30.1Zm20.11-3.29c-.41-4.82-2.29-7.47-5.82-7.47-3,0-5.35,2.47-5.88,7.47Z" style="fill:#df1a82"/><path d="M360.9,43.27l1.06-7A23.12,23.12,0,0,0,373.6,40c3.11,0,4.64-1.06,4.64-2.82s-1.11-2.59-5.88-3.83c-7.76-2-11-4.17-11-10,0-5.64,4.35-9.52,11.88-9.52a28.62,28.62,0,0,1,11.28,2.29L383.42,23a23,23,0,0,0-10.17-2.88c-2.65,0-3.88.94-3.88,2.47S370.42,24.87,375,26c8.23,2.18,11.35,4.36,11.35,10.23,0,6.41-4.53,10.06-12.76,10.06A28.37,28.37,0,0,1,360.9,43.27Z" style="fill:#df1a82"/><path d="M400.58,37.69c0-7.53,6.06-10.88,18.64-12.12v-.82c0-3.23-1.88-4.47-5.23-4.47a26,26,0,0,0-10.41,2.53l-1-6.52a31.12,31.12,0,0,1,12.58-2.53c8.29,0,12.41,2.94,12.41,10.58v21.4h-7.29l-.65-4c-2.59,2.59-5.7,4.65-10.23,4.65C404.11,46.39,400.58,43.27,400.58,37.69Zm18.64-.59V30.22c-8.41,1.06-10.41,3.53-10.41,6.47a3.3,3.3,0,0,0,3.65,3.52A10,10,0,0,0,419.22,37.1Z" style="fill:#df1a82"/><path d="M430.45,30.92c0-11.75,6.46-16.93,13.64-16.93a21.1,21.1,0,0,1,7.05,1.18V0h8.35V45.74h-7.17l-.71-4.23c-2.23,2.53-5.23,4.88-9.46,4.88C435.62,46.39,430.45,41.51,430.45,30.92ZM451.14,35V21.87a12.28,12.28,0,0,0-5.58-1.18c-3.88,0-6.71,3.06-6.71,9.71,0,5.87,2.41,8.58,5.71,8.58C447.14,39,449.2,37.39,451.14,35Z" style="fill:#df1a82"/><path d="M464,36.86V14.35h8.35V34.63c0,2.59,1.11,4.35,3.76,4.35,2.29,0,4.53-1.41,6.64-3.59v-21h8.35V45.74h-7.17l-.71-4.35c-2.88,2.76-6.17,5-10.29,5C467,46.39,464,42.8,464,36.86Z" style="fill:#df1a82"/><path d="M496,0h8.35V45.74H496Z" style="fill:#df1a82"/><path d="M510.87,36.51V21.17h-4.35V14.35h4.35V4.06h8.29V14.35h6.76v6.82h-6.76v14c0,2.53,1.18,3.88,4.06,3.88a13.77,13.77,0,0,0,2.88-.3V45.8a17.13,17.13,0,0,1-4.53.47C515.22,46.27,510.87,43.92,510.87,36.51Z" style="fill:#df1a82"/><path d="M527.51,37.69c0-7.53,6-10.88,18.64-12.12v-.82c0-3.23-1.89-4.47-5.24-4.47a26,26,0,0,0-10.4,2.53l-1-6.52a31,31,0,0,1,12.58-2.53c8.29,0,12.4,2.94,12.4,10.58v21.4H547.2l-.64-4c-2.59,2.59-5.71,4.65-10.23,4.65C531,46.39,527.51,43.27,527.51,37.69Zm18.64-.59V30.22c-8.41,1.06-10.41,3.53-10.41,6.47a3.3,3.3,0,0,0,3.64,3.52A10,10,0,0,0,546.15,37.1Z" style="fill:#df1a82"/><path d="M557.37,43.27l1.06-7A23.15,23.15,0,0,0,570.07,40c3.12,0,4.65-1.06,4.65-2.82s-1.12-2.59-5.88-3.83c-7.76-2-11-4.17-11-10,0-5.64,4.35-9.52,11.88-9.52A28.67,28.67,0,0,1,581,16.05L579.89,23a23,23,0,0,0-10.17-2.88c-2.65,0-3.88.94-3.88,2.47s1.06,2.29,5.59,3.46c8.23,2.18,11.34,4.36,11.34,10.23,0,6.41-4.53,10.06-12.76,10.06A28.37,28.37,0,0,1,557.37,43.27Z" style="fill:#df1a82"/><path d="M0,188.82c0-5.76,3.59-9.28,8.42-9.28s8.44,3.49,8.44,9.24S13.27,198,8.38,198,0,194.57,0,188.82Zm12.27,0c0-3.16-1.39-5.43-3.85-5.43s-3.83,2.2-3.83,5.39,1.36,5.39,3.83,5.39S12.27,192,12.27,188.82Z" style="fill:#374a63"/><path d="M18.56,179.9h4.06l.4,2.4a7.1,7.1,0,0,1,5.36-2.76c3.69,0,6.62,2.76,6.62,8.78,0,6.62-3.66,9.54-7.72,9.54a11.89,11.89,0,0,1-4-.66V204H18.56Zm11.71,8.68c0-3.32-1.39-4.85-3.22-4.85-1.5,0-2.66.89-3.76,2.26v7.42a7,7,0,0,0,3.16.66C28.64,194.07,30.27,192.34,30.27,188.58Z" style="fill:#374a63"/><path d="M36.56,174.41A2.73,2.73,0,1,1,39.29,177,2.59,2.59,0,0,1,36.56,174.41Zm.37,5.49h4.72v17.77H36.93Z" style="fill:#374a63"/><path d="M44.42,179.9h4l.4,2.46c1.67-1.56,3.5-2.82,5.82-2.82,3.33,0,5.09,2,5.09,5.38v12.75H55.06V186.19c0-1.46-.63-2.46-2.16-2.46a5.56,5.56,0,0,0-3.76,2v11.91H44.42Z" style="fill:#374a63"/><path d="M61.35,193.11c0-4.26,3.43-6.16,10.54-6.85v-.47c0-1.83-1.06-2.53-3-2.53a14.74,14.74,0,0,0-5.88,1.43L62.48,181a17.52,17.52,0,0,1,7.12-1.43c4.69,0,7,1.66,7,6v12.11H72.49l-.36-2.27A7.86,7.86,0,0,1,66.34,198C63.35,198,61.35,196.27,61.35,193.11Zm10.54-.33v-3.9c-4.75.6-5.88,2-5.88,3.66a1.87,1.87,0,0,0,2.06,2A5.68,5.68,0,0,0,71.89,192.78Z" style="fill:#374a63"/><path d="M79.12,179.9h4l.4,2.46c1.67-1.56,3.5-2.82,5.83-2.82,3.32,0,5.08,2,5.08,5.38v12.75H89.76V186.19c0-1.46-.63-2.46-2.16-2.46a5.56,5.56,0,0,0-3.76,2v11.91H79.12Z" style="fill:#374a63"/><path d="M103.5,196.27l.6-4a13.17,13.17,0,0,0,6.59,2.1c1.76,0,2.63-.6,2.63-1.6s-.64-1.47-3.33-2.16c-4.39-1.13-6.22-2.37-6.22-5.69s2.46-5.39,6.72-5.39a16.18,16.18,0,0,1,6.39,1.3l-.64,3.92a13,13,0,0,0-5.75-1.63c-1.5,0-2.2.53-2.2,1.4s.6,1.3,3.16,2c4.66,1.23,6.42,2.46,6.42,5.79,0,3.63-2.56,5.69-7.21,5.69A16.14,16.14,0,0,1,103.5,196.27Z" style="fill:#374a63"/><path d="M118.61,188.82c0-5.76,3.59-9.28,8.41-9.28s8.45,3.49,8.45,9.24S131.88,198,127,198,118.61,194.57,118.61,188.82Zm12.27,0c0-3.16-1.39-5.43-3.86-5.43s-3.82,2.2-3.82,5.39,1.36,5.39,3.82,5.39S130.88,192,130.88,188.82Z" style="fill:#374a63"/><path d="M137.17,196.67V171.79h4.73v10.07a7,7,0,0,1,4.95-2.32c3.73,0,6.62,2.76,6.62,8.78,0,6.52-3.56,9.58-8.91,9.58A22.17,22.17,0,0,1,137.17,196.67Zm11.58-8.09c0-3.32-1.37-4.85-3.19-4.85a5,5,0,0,0-3.66,2.13v7.75a6.74,6.74,0,0,0,2.56.43C147.05,194,148.75,192.48,148.75,188.58Z" style="fill:#374a63"/><path d="M155.21,179.9h4l.57,3.56c1.13-2.06,2.83-3.79,5.55-3.92l.77,4.72a8.32,8.32,0,0,0-6.22,3.29v10.12h-4.72Z" style="fill:#374a63"/><path d="M166.18,188.82c0-5.79,3.5-9.28,8.19-9.28,5.39,0,7.75,4,7.75,9.08,0,.43,0,1,0,1.43H170.94c.23,3,2,4.39,4.63,4.39a10.64,10.64,0,0,0,6-2.1l.53,3.56A12.18,12.18,0,0,1,175,198C169.94,198,166.18,195.2,166.18,188.82ZM177.56,187c-.23-2.72-1.3-4.22-3.29-4.22-1.7,0-3,1.4-3.33,4.22Z" style="fill:#374a63"/><path d="M190.37,188.82c0-5.79,3.49-9.28,8.18-9.28,5.39,0,7.76,4,7.76,9.08,0,.43,0,1,0,1.43H195.13c.23,3,2,4.39,4.62,4.39a10.64,10.64,0,0,0,6-2.1l.54,3.56a12.18,12.18,0,0,1-7.09,2.13C194.13,198,190.37,195.2,190.37,188.82ZM201.75,187c-.23-2.72-1.3-4.22-3.3-4.22-1.69,0-3,1.4-3.32,4.22Z" style="fill:#374a63"/><path d="M208.27,171.79H213v25.88h-4.72Z" style="fill:#374a63"/><path d="M.9,209.56H5l.4,2.39a7.08,7.08,0,0,1,5.35-2.76c3.69,0,6.62,2.76,6.62,8.78,0,6.62-3.66,9.55-7.72,9.55a11.91,11.91,0,0,1-4-.67v6.82H.9Zm11.71,8.68c0-3.33-1.4-4.86-3.23-4.86-1.5,0-2.66.9-3.76,2.26v7.42a7,7,0,0,0,3.16.67C11,223.73,12.61,222,12.61,218.24Z" style="fill:#374a63"/><path d="M19.06,209.56h4.06l.57,3.56c1.13-2.07,2.82-3.8,5.55-3.93l.77,4.72a8.28,8.28,0,0,0-6.22,3.3v10.11H19.06Z" style="fill:#374a63"/><path d="M30.78,204.07a2.73,2.73,0,0,1,5.45,0,2.73,2.73,0,0,1-5.45,0Zm.36,5.49h4.72v17.76H31.14Z" style="fill:#374a63"/><path d="M38.63,209.56h4l.4,2.46c1.67-1.57,3.5-2.83,5.83-2.83,3.32,0,5.08,2,5.08,5.39v12.74H49.27V215.84c0-1.46-.63-2.46-2.16-2.46a5.56,5.56,0,0,0-3.76,2v11.91H38.63Z" style="fill:#374a63"/><path d="M55.59,218.54c0-6.22,3.9-9.32,8.69-9.32a10.13,10.13,0,0,1,5.45,1.43l-.66,4.23a7.09,7.09,0,0,0-4.49-1.6c-2.43,0-4.23,1.76-4.23,5.16s1.93,5.15,4.49,5.15A7.09,7.09,0,0,0,69.3,222l.6,4a9.93,9.93,0,0,1-5.82,1.69C59.09,227.65,55.59,224.33,55.59,218.54Z" style="fill:#374a63"/><path d="M71.36,204.07a2.73,2.73,0,1,1,2.73,2.63A2.6,2.6,0,0,1,71.36,204.07Zm.37,5.49h4.72v17.76H71.73Z" style="fill:#374a63"/><path d="M79.22,209.56h4l.4,2.39A7.1,7.1,0,0,1,89,209.19c3.69,0,6.62,2.76,6.62,8.78,0,6.62-3.66,9.55-7.72,9.55a11.87,11.87,0,0,1-4-.67v6.82H79.22Zm11.71,8.68c0-3.33-1.4-4.86-3.23-4.86-1.5,0-2.66.9-3.76,2.26v7.42a7,7,0,0,0,3.16.67C89.3,223.73,90.93,222,90.93,218.24Z" style="fill:#374a63"/><path d="M96.45,222.76c0-4.26,3.43-6.15,10.54-6.85v-.47c0-1.83-1.06-2.52-3-2.52a14.57,14.57,0,0,0-5.88,1.43l-.57-3.7a17.69,17.69,0,0,1,7.12-1.43c4.69,0,7,1.67,7,6v12.11h-4.13l-.36-2.26a7.89,7.89,0,0,1-5.79,2.63C98.45,227.69,96.45,225.92,96.45,222.76Zm10.54-.33v-3.89c-4.75.6-5.88,2-5.88,3.66a1.87,1.87,0,0,0,2.06,2A5.64,5.64,0,0,0,107,222.43Z" style="fill:#374a63"/><path d="M114.42,201.44h4.72v25.88h-4.72Z" style="fill:#374a63"/><path d="M129.29,209.56h4.06l.39,2.39a7.11,7.11,0,0,1,5.36-2.76c3.69,0,6.62,2.76,6.62,8.78,0,6.62-3.66,9.55-7.72,9.55a11.91,11.91,0,0,1-4-.67v6.82h-4.72ZM141,218.24c0-3.33-1.4-4.86-3.23-4.86-1.5,0-2.66.9-3.76,2.26v7.42a7,7,0,0,0,3.16.67C139.37,223.73,141,222,141,218.24Z" style="fill:#374a63"/><path d="M147.45,209.56h4.06l.57,3.56c1.13-2.07,2.82-3.8,5.55-3.93l.77,4.72a8.28,8.28,0,0,0-6.22,3.3v10.11h-4.73Z" style="fill:#374a63"/><path d="M158.43,218.47c0-5.75,3.59-9.28,8.42-9.28s8.45,3.49,8.45,9.25-3.6,9.25-8.49,9.25S158.43,224.23,158.43,218.47Zm12.28,0c0-3.16-1.4-5.42-3.86-5.42s-3.83,2.19-3.83,5.39,1.37,5.39,3.83,5.39S170.71,221.63,170.71,218.47Z" style="fill:#374a63"/><path d="M177,226.32V201.44h4.72v10.08a7,7,0,0,1,5-2.33c3.72,0,6.62,2.76,6.62,8.78,0,6.52-3.56,9.58-8.92,9.58A21.86,21.86,0,0,1,177,226.32Zm11.57-8.08c0-3.33-1.36-4.86-3.19-4.86a5.08,5.08,0,0,0-3.66,2.13v7.75a6.77,6.77,0,0,0,2.56.43C186.88,223.69,188.57,222.13,188.57,218.24Z" style="fill:#374a63"/><path d="M195.23,201.44H200v25.88h-4.72Z" style="fill:#374a63"/><path d="M201.82,218.47c0-5.79,3.49-9.28,8.18-9.28,5.39,0,7.75,4,7.75,9.08,0,.43,0,1,0,1.43H206.57c.24,3,2,4.39,4.63,4.39a10.7,10.7,0,0,0,6-2.09l.53,3.56a12.17,12.17,0,0,1-7.08,2.13C205.58,227.69,201.82,224.86,201.82,218.47Zm11.37-1.86c-.23-2.73-1.29-4.23-3.29-4.23-1.7,0-3,1.4-3.33,4.23Z" style="fill:#374a63"/><path d="M219.52,209.56h4L224,212c1.67-1.6,3.4-2.83,5.79-2.83a4.36,4.36,0,0,1,4.49,2.86,8.32,8.32,0,0,1,5.82-2.86c3.33,0,5,2,5,5.39v12.74h-4.73V215.84c0-1.46-.53-2.46-2-2.46a5.39,5.39,0,0,0-3.66,2v11.91H230V215.84c0-1.46-.56-2.46-2.06-2.46-1.26,0-2.46.8-3.66,2v11.91h-4.72Z" style="fill:#374a63"/><path d="M246.7,222.76c0-4.26,3.42-6.15,10.54-6.85v-.47c0-1.83-1.06-2.52-3-2.52a14.53,14.53,0,0,0-5.88,1.43l-.57-3.7a17.69,17.69,0,0,1,7.12-1.43c4.69,0,7,1.67,7,6v12.11h-4.13l-.36-2.26a7.89,7.89,0,0,1-5.79,2.63C248.69,227.69,246.7,225.92,246.7,222.76Zm10.54-.33v-3.89c-4.75.6-5.88,2-5.88,3.66a1.86,1.86,0,0,0,2.06,2A5.64,5.64,0,0,0,257.24,222.43Z" style="fill:#374a63"/><path d="M271,218.94c0-6.66,3.65-9.58,7.71-9.58a12.14,12.14,0,0,1,4,.66v-8.58h4.73v25.88h-4.06l-.4-2.4a7.09,7.09,0,0,1-5.36,2.77C273.91,227.69,271,224.92,271,218.94Zm11.7,2.29v-7.42a6.94,6.94,0,0,0-3.16-.66c-2.19,0-3.79,1.73-3.79,5.49,0,3.32,1.37,4.85,3.23,4.85C280.43,223.49,281.6,222.6,282.69,221.23Z" style="fill:#374a63"/><path d="M289.12,218.47c0-5.79,3.49-9.28,8.18-9.28,5.39,0,7.75,4,7.75,9.08,0,.43,0,1,0,1.43H293.87c.24,3,2,4.39,4.63,4.39a10.7,10.7,0,0,0,6-2.09l.53,3.56a12.17,12.17,0,0,1-7.08,2.13C292.88,227.69,289.12,224.86,289.12,218.47Zm11.37-1.86c-.23-2.73-1.29-4.23-3.29-4.23-1.7,0-3,1.4-3.33,4.23Z" style="fill:#374a63"/><path d="M500.52,130.86c0-5.92,4.75-8.55,14.64-9.52v-.65c0-2.54-1.48-3.51-4.11-3.51a20.58,20.58,0,0,0-8.18,2l-.78-5.13a24.43,24.43,0,0,1,9.88-2c6.51,0,9.75,2.31,9.75,8.31v16.81H516l-.51-3.14a10.88,10.88,0,0,1-8,3.65C503.29,137.69,500.52,135.24,500.52,130.86Zm14.64-.47V125c-6.61.83-8.18,2.77-8.18,5.08a2.6,2.6,0,0,0,2.87,2.77A7.85,7.85,0,0,0,515.16,130.39Z" style="fill:#374a63"/><path d="M525.18,112.52h5.64l.55,3.42c2.31-2.17,4.85-3.93,8.09-3.93,4.62,0,7.06,2.82,7.06,7.48v17.69H540V121.25c0-2-.88-3.42-3-3.42-1.8,0-3.55,1.11-5.22,2.82v16.53h-6.56ZM536,108.27c-1.94-.92-2.54-1.2-3.33-1.2s-1.11.41-1.52,2h-3.51c.51-4.94,2.17-7,4.66-7a8,8,0,0,1,3.61,1c1.94.93,2.54,1.2,3.32,1.2s1.11-.41,1.53-2h3.51c-.51,4.94-2.17,7-4.67,7A7.73,7.73,0,0,1,536,108.27Z" style="fill:#374a63"/><path d="M548.74,124.9c0-8,5-12.89,11.69-12.89s11.73,4.85,11.73,12.84-5,12.84-11.78,12.84S548.74,132.89,548.74,124.9Zm17,0c0-4.39-1.94-7.53-5.36-7.53s-5.31,3-5.31,7.48,1.89,7.48,5.31,7.48S565.79,129.29,565.79,124.9Z" style="fill:#374a63"/><path d="M573.32,135.24l.83-5.49a18.27,18.27,0,0,0,9.15,2.91c2.44,0,3.64-.83,3.64-2.22s-.87-2-4.61-3c-6.1-1.57-8.64-3.28-8.64-7.9,0-4.43,3.42-7.48,9.33-7.48a22.49,22.49,0,0,1,8.87,1.8l-.88,5.45a18.07,18.07,0,0,0-8-2.26c-2.08,0-3,.73-3,1.94s.83,1.8,4.39,2.72c6.46,1.71,8.91,3.42,8.91,8,0,5-3.55,7.9-10,7.9A22.22,22.22,0,0,1,573.32,135.24Z" style="fill:#374a63"/><path d="M92.49,78.87c0-7.18,4.33-11.52,10.15-11.52,6.69,0,9.62,5,9.62,11.27,0,.54,0,1.2,0,1.78H98.39c.29,3.67,2.48,5.45,5.74,5.45a13.2,13.2,0,0,0,7.47-2.6l.66,4.41a15.08,15.08,0,0,1-8.79,2.64C97.16,90.3,92.49,86.79,92.49,78.87Zm14.12-2.31c-.29-3.39-1.61-5.24-4.09-5.24-2.1,0-3.76,1.73-4.13,5.24Z" style="fill:#374a63"/><path d="M114.45,67.81h5l.5,3c2.06-1.94,4.33-3.51,7.22-3.51,4.13,0,6.32,2.52,6.32,6.69V89.85h-5.87V75.61c0-1.82-.78-3-2.68-3-1.61,0-3.18,1-4.66,2.51V89.85h-5.86Z" style="fill:#374a63"/><path d="M137.76,83.37V72.6h-3V67.81h3V60.59h5.82v7.22h4.75V72.6h-4.75v9.82c0,1.78.83,2.72,2.85,2.72a10.08,10.08,0,0,0,2-.2v5a11.81,11.81,0,0,1-3.18.33C140.82,90.22,137.76,88.57,137.76,83.37Z" style="fill:#374a63"/><path d="M150.6,67.81h5l.7,4.42c1.41-2.56,3.51-4.71,6.9-4.88l1,5.87a10.27,10.27,0,0,0-7.72,4.08V89.85H150.6Z" style="fill:#374a63"/><path d="M164.22,78.87c0-7.18,4.33-11.52,10.15-11.52,6.69,0,9.62,5,9.62,11.27,0,.54,0,1.2-.05,1.78H170.12c.29,3.67,2.47,5.45,5.73,5.45a13.23,13.23,0,0,0,7.48-2.6l.66,4.41a15.14,15.14,0,0,1-8.8,2.64C168.88,90.3,164.22,86.79,164.22,78.87Zm14.11-2.31c-.29-3.39-1.61-5.24-4.08-5.24-2.11,0-3.76,1.73-4.13,5.24Z" style="fill:#374a63"/><path d="M193.93,128.94l25.21-26.06c5.73-5.83,8.5-9.94,8.5-14.9,0-6.4-3.92-9.65-10.8-9.65s-13.27,3.16-19.38,7.74l-1.91-12.7a37.6,37.6,0,0,1,23.3-7.64c14.51,0,23.2,7.64,23.2,20.82,0,9.45-4.48,15.47-13.36,24.25L212,127.51h30.46v12H193.93Z" style="fill:#01a5d4"/><path d="M255.9,129.23c14.32-3,25.4-9.36,29.12-21.29a29.94,29.94,0,0,1-17.09,5.53c-12.8,0-21.68-7.64-21.68-22.63,0-15.37,11.08-25.21,26.17-25.21,16,0,27.21,10.6,27.21,30.66,0,25.78-17.47,40.1-41.82,44.78ZM286.17,97v-.2c-.1-13.17-5.83-19.86-13.85-19.86-7.16,0-12.12,4.87-12.12,13.18,0,7.83,4,12.22,12,12.22C277.29,102.3,281.87,100.3,286.17,97Z" style="fill:#01a5d4"/><path d="M326.94,158.16l-1.82-11.07a20.83,20.83,0,0,0,6,.76,8.29,8.29,0,0,0,8.21-5.35l1-2.77L321.5,88.55h14.89l11.08,34.38,10.79-34.38h13.37l-19,53.28c-4.59,12.71-10.51,16.81-20.73,16.81A19.7,19.7,0,0,1,326.94,158.16Z" style="fill:#01a5d4"/><path d="M393.3,135.63l2.1-12.89a38.45,38.45,0,0,0,20,6c7.64,0,13.27-3.82,13.27-11.46s-5.73-11.46-14.42-11.46a33,33,0,0,0-9.26,1.44l-8.78-2L398.74,67H440V79H410.2L409,94.76A41.45,41.45,0,0,1,416.7,94c16.13,0,26.06,8,26.06,22.63,0,15.86-11.07,24.26-27.21,24.26A47,47,0,0,1,393.3,135.63Z" style="fill:#01a5d4"/><path d="M455.08,129.23c14.32-3,25.4-9.36,29.13-21.29a30,30,0,0,1-17.1,5.53c-12.79,0-21.67-7.64-21.67-22.63,0-15.37,11.07-25.21,26.16-25.21,16,0,27.21,10.6,27.21,30.66,0,25.78-17.47,40.1-41.82,44.78ZM485.35,97v-.2c-.09-13.17-5.82-19.86-13.84-19.86-7.17,0-12.13,4.87-12.13,13.18,0,7.83,4,12.22,12,12.22C476.47,102.3,481.05,100.3,485.35,97Z" style="fill:#01a5d4"/><g id="adulto_mujer"><circle cx="41.21" cy="17.43" r="13.62" style="fill:#a71f65"/><path d="M79.68,84.74,68.46,48.15s-4-10.69-12.82-10.69H27.05c-8.81,0-12.82,10.69-12.82,10.69L3,84.74S.88,91.42,6.75,93c5.61,1.61,7.48-4.8,7.48-4.8l9.09-30.45s.53-2.41,2.13-1.87c1.87.53,1.07,2.93,1.07,2.93l-16,57.43h14.7V157.4a6.95,6.95,0,0,0,13.89,0V116.26h4V157.4a6.95,6.95,0,0,0,13.89,0V116.26H71.66L55.9,59.1s-.8-2.4,1.07-2.94S59.11,58,59.11,58l9.08,30.45s1.6,6.68,7.48,4.81S79.68,84.74,79.68,84.74Z" style="fill:#a71f65"/></g></g></g></svg>