<svg xmlns="http://www.w3.org/2000/svg" viewBox="0 0 637.89 246.4"><title>Asset 9</title><g id="Layer_2" data-name="Layer 2"><g id="Capa_1" data-name="Capa 1"><path d="M102.8,125.31c0-14.37,8.81-24.1,22-24.1a24.33,24.33,0,0,1,13,3.3l-1.4,8.94a18.15,18.15,0,0,0-11.08-4c-7.83,0-12.78,5.93-12.78,15.78S117.91,141,125.74,141a21,21,0,0,0,11.44-3.73l1.35,8.2A25.59,25.59,0,0,1,125,149.29C111.25,149.29,102.8,139.81,102.8,125.31Z" style="fill:#de1f26"/><path d="M140.73,132.23c0-10.59,6.6-17.07,15.47-17.07s15.54,6.42,15.54,17-6.6,17-15.6,17S140.73,142.81,140.73,132.23Zm22.57,0c0-5.82-2.57-10-7.1-10s-7,4-7,9.91,2.51,9.91,7,9.91S163.3,138,163.3,132.23Z" style="fill:#4c9b45"/><path d="M174.86,115.83h7.46l.74,4.53c3.05-2.94,6.24-5.2,10.64-5.2s7,2.14,8.26,5.26c2.93-2.94,6.42-5.26,10.7-5.26,6.12,0,9.24,3.73,9.24,9.91V148.5h-8.69V127.39c0-2.69-1-4.52-3.73-4.52-2.32,0-4.59,1.46-6.73,3.73v21.9h-8.68V127.39c0-2.69-1-4.52-3.8-4.52-2.32,0-4.52,1.46-6.72,3.73v21.9h-8.69Z" style="fill:#03a5d4"/><path d="M226.42,139.26V115.83h8.69v21.11c0,2.69,1.16,4.52,3.91,4.52,2.39,0,4.71-1.47,6.92-3.73v-21.9h8.68V148.5h-7.46l-.73-4.53c-3,2.88-6.43,5.2-10.71,5.2C229.6,149.17,226.42,145.44,226.42,139.26Z" style="fill:#ea6524"/><path d="M259.39,115.83h7.46l.74,4.53c3.06-2.88,6.42-5.2,10.7-5.2,6.12,0,9.36,3.73,9.36,9.91V148.5H279V127.39c0-2.69-1.17-4.52-4-4.52-2.39,0-4.71,1.46-6.91,3.73v21.9h-8.69Z" style="fill:#4c7838"/><path d="M290.52,140.12c0-7.83,6.3-11.32,19.4-12.61v-.85c0-3.37-2-4.65-5.45-4.65a27.11,27.11,0,0,0-10.83,2.63l-1-6.79a32.4,32.4,0,0,1,13.09-2.63c8.63,0,12.91,3.06,12.91,11V148.5H311l-.68-4.16c-2.69,2.69-5.93,4.83-10.64,4.83C294.19,149.17,290.52,145.93,290.52,140.12Zm19.4-.62v-7.15c-8.75,1.1-10.83,3.67-10.83,6.73a3.44,3.44,0,0,0,3.79,3.67A10.45,10.45,0,0,0,309.92,139.5Z" style="fill:#094c81"/><path d="M102,20c0-11.75,7.2-19.7,18-19.7A19.92,19.92,0,0,1,130.64,3l-1.15,7.3A14.85,14.85,0,0,0,120.44,7C114,7,110,11.85,110,19.9s4.4,12.9,10.8,12.9a17.2,17.2,0,0,0,9.35-3l1.1,6.7a20.89,20.89,0,0,1-11.05,3.1C108.94,39.55,102,31.8,102,20Z" style="fill:#374a63"/><path d="M134.29,31.35V12.2h7.1V29.45c0,2.2,1,3.7,3.2,3.7,1.95,0,3.85-1.2,5.65-3V12.2h7.1V38.9h-6.1l-.6-3.7c-2.45,2.35-5.25,4.25-8.75,4.25C136.89,39.45,134.29,36.4,134.29,31.35Z" style="fill:#374a63"/><path d="M159.84,32.05c0-6.4,5.15-9.25,15.85-10.3v-.7c0-2.75-1.6-3.8-4.45-3.8a22.15,22.15,0,0,0-8.85,2.15l-.85-5.55a26.46,26.46,0,0,1,10.7-2.15c7,0,10.55,2.5,10.55,9V38.9h-6.2L176,35.5a11.81,11.81,0,0,1-8.7,4C162.84,39.45,159.84,36.8,159.84,32.05Zm15.85-.5V25.7c-7.15.9-8.85,3-8.85,5.5a2.81,2.81,0,0,0,3.1,3A8.51,8.51,0,0,0,175.69,31.55ZM172.19.9h8.6v.45L173.24,8.8h-4.7Z" style="fill:#374a63"/><path d="M186.84,0h7.1V38.9h-7.1Z" style="fill:#374a63"/><path d="M207.84,25.6c0-8.7,5.25-13.95,12.3-13.95,8.1,0,11.65,6,11.65,13.65,0,.65,0,1.45,0,2.15H215c.35,4.45,3,6.6,6.95,6.6A16,16,0,0,0,231,30.9l.8,5.35a18.28,18.28,0,0,1-10.65,3.2C213.49,39.45,207.84,35.2,207.84,25.6Zm17.1-2.8c-.35-4.1-1.95-6.35-4.95-6.35-2.55,0-4.55,2.1-5,6.35Z" style="fill:#374a63"/><path d="M233.14,36.8l.9-5.95a19.71,19.71,0,0,0,9.9,3.15c2.65,0,3.95-.9,3.95-2.4s-.95-2.2-5-3.25c-6.6-1.7-9.35-3.55-9.35-8.55,0-4.8,3.7-8.1,10.1-8.1a24.35,24.35,0,0,1,9.6,2l-1,5.9a19.61,19.61,0,0,0-8.65-2.45c-2.25,0-3.3.8-3.3,2.1s.9,1.95,4.75,2.95c7,1.85,9.65,3.7,9.65,8.7,0,5.45-3.85,8.55-10.85,8.55A24.16,24.16,0,0,1,233.14,36.8Z" style="fill:#374a63"/><path d="M266.94,25.6c0-8.7,5.25-13.95,12.3-13.95,8.1,0,11.65,6,11.65,13.65,0,.65,0,1.45-.05,2.15H274.09c.35,4.45,3,6.6,7,6.6a16,16,0,0,0,9-3.15l.8,5.35a18.28,18.28,0,0,1-10.65,3.2C272.59,39.45,266.94,35.2,266.94,25.6ZM284,22.8c-.35-4.1-2-6.35-5-6.35-2.55,0-4.55,2.1-5,6.35Z" style="fill:#374a63"/><path d="M293.84,0h7.1V38.9h-7.1Z" style="fill:#374a63"/><path d="M316.19,12.2h6.1l.6,3.6c1.9-2.15,4.45-4.15,8.05-4.15,5.55,0,9.95,4.15,9.95,13.2,0,9.95-5.5,14.35-11.6,14.35a18.05,18.05,0,0,1-6-1V48.45h-7.1Zm17.6,13.05c0-5-2.1-7.3-4.85-7.3-2.25,0-4,1.35-5.65,3.4V32.5a10.43,10.43,0,0,0,4.75,1C331.34,33.5,333.79,30.9,333.79,25.25Z" style="fill:#374a63"/><path d="M343.49,12.2h6.1l.85,5.35c1.7-3.1,4.25-5.7,8.35-5.9l1.15,7.1a12.48,12.48,0,0,0-9.35,4.95V38.9h-7.1Z" style="fill:#374a63"/><path d="M361.09,4a4.1,4.1,0,1,1,4.1,4A3.9,3.9,0,0,1,361.09,4Zm.55,8.25h7.1V38.9h-7.1Z" style="fill:#374a63"/><path d="M372.89,12.2H379l.6,3.7c2.5-2.35,5.25-4.25,8.75-4.25,5,0,7.65,3,7.65,8.1V38.9h-7.1V21.65c0-2.2-.95-3.7-3.25-3.7-1.95,0-3.85,1.2-5.65,3.05V38.9h-7.1Z" style="fill:#374a63"/><path d="M398.39,25.7c0-9.35,5.85-14,13.05-14a15.17,15.17,0,0,1,8.2,2.15l-1,6.35a10.64,10.64,0,0,0-6.75-2.4c-3.65,0-6.35,2.65-6.35,7.75s2.9,7.75,6.75,7.75a10.61,10.61,0,0,0,6.7-2.4l.9,6a14.85,14.85,0,0,1-8.75,2.55C403.64,39.4,398.39,34.4,398.39,25.7Z" style="fill:#374a63"/><path d="M422.09,4a4.1,4.1,0,1,1,4.1,4A3.9,3.9,0,0,1,422.09,4Zm.55,8.25h7.1V38.9h-7.1Z" style="fill:#374a63"/><path d="M433.89,12.2H440l.6,3.6c1.9-2.15,4.45-4.15,8.05-4.15,5.55,0,9.95,4.15,9.95,13.2,0,9.95-5.5,14.35-11.6,14.35a18.05,18.05,0,0,1-6-1V48.45h-7.1Zm17.6,13.05c0-5-2.1-7.3-4.85-7.3-2.25,0-4,1.35-5.65,3.4V32.5a10.43,10.43,0,0,0,4.75,1C449,33.5,451.49,30.9,451.49,25.25Z" style="fill:#374a63"/><path d="M459.79,32.05c0-6.4,5.15-9.25,15.85-10.3v-.7c0-2.75-1.6-3.8-4.45-3.8a22.15,22.15,0,0,0-8.85,2.15l-.85-5.55a26.46,26.46,0,0,1,10.7-2.15c7.05,0,10.55,2.5,10.55,9V38.9h-6.2L476,35.5a11.81,11.81,0,0,1-8.7,4C462.79,39.45,459.79,36.8,459.79,32.05Zm15.85-.5V25.7c-7.15.9-8.85,3-8.85,5.5a2.81,2.81,0,0,0,3.1,3A8.51,8.51,0,0,0,475.64,31.55Z" style="fill:#374a63"/><path d="M486.79,0h7.1V38.9h-7.1Z" style="fill:#374a63"/><path d="M102.84,55.2h6.1l.6,3.6c1.9-2.15,4.45-4.15,8-4.15,5.55,0,10,4.15,10,13.2,0,10-5.5,14.35-11.6,14.35a18.05,18.05,0,0,1-6-1V91.45h-7.1Zm17.6,13c0-5-2.1-7.3-4.85-7.3-2.25,0-4,1.35-5.65,3.4V75.5a10.43,10.43,0,0,0,4.75,1C118,76.5,120.44,73.9,120.44,68.25Z" style="fill:#374a63"/><path d="M130.14,55.2h6.1l.85,5.35c1.7-3.1,4.25-5.7,8.35-5.9l1.15,7.1a12.48,12.48,0,0,0-9.35,5V81.9h-7.1Z" style="fill:#374a63"/><path d="M146.64,68.6c0-8.65,5.4-13.95,12.65-13.95S172,59.9,172,68.55s-5.4,13.9-12.75,13.9S146.64,77.25,146.64,68.6Zm18.45,0c0-4.75-2.1-8.15-5.8-8.15s-5.75,3.3-5.75,8.1,2.05,8.1,5.75,8.1S165.09,73.35,165.09,68.6Z" style="fill:#374a63"/><path d="M174.54,80.4V43h7.1V58.15a10.46,10.46,0,0,1,7.45-3.5c5.6,0,9.95,4.15,9.95,13.2,0,9.8-5.35,14.4-13.4,14.4A33.09,33.09,0,0,1,174.54,80.4Zm17.4-12.15c0-5-2.05-7.3-4.8-7.3-2.1,0-3.9,1.35-5.5,3.2V75.8a10.19,10.19,0,0,0,3.85.65C189.39,76.45,191.94,74.1,191.94,68.25Z" style="fill:#374a63"/><path d="M201.94,43H209V81.9h-7.1Z" style="fill:#374a63"/><path d="M211.84,68.6c0-8.7,5.25-13.95,12.3-13.95,8.1,0,11.65,6.05,11.65,13.65,0,.65,0,1.45,0,2.15H219c.35,4.45,3,6.6,6.95,6.6A16,16,0,0,0,235,73.9l.8,5.35a18.28,18.28,0,0,1-10.65,3.2C217.49,82.45,211.84,78.2,211.84,68.6Zm17.1-2.8c-.35-4.1-1.95-6.35-4.95-6.35-2.55,0-4.55,2.1-5,6.35Z" style="fill:#374a63"/><path d="M238.44,55.2h6.1l.6,3.7c2.5-2.4,5.1-4.25,8.7-4.25s5.75,1.75,6.75,4.3c2.4-2.4,5.25-4.3,8.75-4.3,5,0,7.55,3.05,7.55,8.1V81.9h-7.1V64.65c0-2.2-.8-3.7-3.05-3.7-1.9,0-3.75,1.2-5.5,3V81.9h-7.1V64.65c0-2.2-.85-3.7-3.1-3.7-1.9,0-3.7,1.2-5.5,3V81.9h-7.1Z" style="fill:#374a63"/><path d="M279.29,75.05c0-6.4,5.15-9.25,15.85-10.3v-.7c0-2.75-1.6-3.8-4.45-3.8a22.15,22.15,0,0,0-8.85,2.15L281,56.85a26.46,26.46,0,0,1,10.7-2.15c7.05,0,10.55,2.5,10.55,9V81.9H296l-.55-3.4a11.81,11.81,0,0,1-8.7,4C282.29,82.45,279.29,79.8,279.29,75.05Zm15.85-.5V68.7c-7.15.9-8.85,3-8.85,5.5a2.81,2.81,0,0,0,3.1,3A8.51,8.51,0,0,0,295.14,74.55Z" style="fill:#374a63"/><path d="M333.19,79a10.27,10.27,0,0,1-7.45,3.5c-5.55,0-9.95-4.15-9.95-13.15,0-9.85,5.35-14.45,13.4-14.45a32.87,32.87,0,0,1,11.1,1.85V91.45h-7.1Zm0-6V61.3a9.85,9.85,0,0,0-3.85-.65c-3.9,0-6.4,2.35-6.4,8.2,0,5,2,7.3,4.8,7.3C329.84,76.15,331.59,74.8,333.19,73Z" style="fill:#374a63"/><path d="M344.09,74.35V55.2h7.1V72.45c0,2.2.95,3.7,3.2,3.7,1.95,0,3.85-1.2,5.65-3.05V55.2h7.1V81.9H361l-.6-3.7c-2.45,2.35-5.25,4.25-8.75,4.25C346.69,82.45,344.09,79.4,344.09,74.35Z" style="fill:#374a63"/><path d="M369.69,68.6c0-8.7,5.25-13.95,12.3-13.95,8.1,0,11.65,6.05,11.65,13.65,0,.65,0,1.45-.05,2.15H376.84c.35,4.45,3,6.6,7,6.6a16,16,0,0,0,9-3.15l.8,5.35A18.28,18.28,0,0,1,383,82.45C375.34,82.45,369.69,78.2,369.69,68.6Zm17.1-2.8c-.35-4.1-2-6.35-5-6.35-2.55,0-4.55,2.1-5,6.35Z" style="fill:#374a63"/><path d="M406,68.6c0-8.7,5.25-13.95,12.3-13.95,8.1,0,11.65,6.05,11.65,13.65,0,.65,0,1.45-.05,2.15H413.19c.35,4.45,3,6.6,6.95,6.6a16,16,0,0,0,9.05-3.15l.8,5.35a18.28,18.28,0,0,1-10.65,3.2C411.69,82.45,406,78.2,406,68.6Zm17.1-2.8c-.35-4.1-1.95-6.35-4.95-6.35-2.55,0-4.55,2.1-5,6.35Z" style="fill:#374a63"/><path d="M432.64,55.2h6.1l.6,3.7c2.5-2.35,5.25-4.25,8.75-4.25,5,0,7.65,3.05,7.65,8.1V81.9h-7.1V64.65c0-2.2-.95-3.7-3.25-3.7-1.95,0-3.85,1.2-5.65,3V81.9h-7.1Z" style="fill:#374a63"/><path d="M461.09,61h-3.8V55.2h3.8V51.1c0-6.15,3.55-8.55,9.25-8.55a23.56,23.56,0,0,1,3.55.3v5.7a8.3,8.3,0,0,0-2.5-.3,3,3,0,0,0-3.3,3.3V55.2h5.5V61h-5.5V81.9h-7Z" style="fill:#374a63"/><path d="M475.19,55.2h6.1l.85,5.35c1.7-3.1,4.25-5.7,8.35-5.9l1.15,7.1a12.48,12.48,0,0,0-9.35,5V81.9h-7.1Z" style="fill:#374a63"/><path d="M491.69,68.6c0-8.7,5.25-13.95,12.3-13.95,8.1,0,11.65,6.05,11.65,13.65,0,.65,0,1.45,0,2.15H498.84c.35,4.45,3,6.6,7,6.6a16,16,0,0,0,9.05-3.15l.8,5.35A18.28,18.28,0,0,1,505,82.45C497.34,82.45,491.69,78.2,491.69,68.6Zm17.1-2.8c-.35-4.1-2-6.35-5-6.35-2.55,0-4.55,2.1-5,6.35Z" style="fill:#374a63"/><path d="M518.29,55.2h6.1l.6,3.7c2.5-2.35,5.25-4.25,8.75-4.25,5,0,7.65,3.05,7.65,8.1V81.9h-7.1V64.65c0-2.2-.95-3.7-3.25-3.7-1.95,0-3.85,1.2-5.65,3V81.9h-7.1Z" style="fill:#374a63"/><path d="M546.54,74.05V61h-3.7V55.2h3.7V46.45h7.05V55.2h5.75V61h-5.75V72.9c0,2.15,1,3.3,3.45,3.3a11.92,11.92,0,0,0,2.45-.25v6a14.45,14.45,0,0,1-3.85.4C550.24,82.35,546.54,80.35,546.54,74.05Z" style="fill:#374a63"/><path d="M560.68,75.05c0-6.4,5.15-9.25,15.86-10.3v-.7c0-2.75-1.6-3.8-4.45-3.8a22.11,22.11,0,0,0-8.85,2.15l-.86-5.55a26.54,26.54,0,0,1,10.71-2.15c7,0,10.55,2.5,10.55,9V81.9h-6.2l-.55-3.4a11.81,11.81,0,0,1-8.7,4C563.69,82.45,560.68,79.8,560.68,75.05Zm15.86-.5V68.7c-7.15.9-8.85,3-8.85,5.5a2.81,2.81,0,0,0,3.1,3A8.51,8.51,0,0,0,576.54,74.55Z" style="fill:#374a63"/><path d="M598.78,43h7.1V81.9h-7.1Z" style="fill:#374a63"/><path d="M608.63,75.05c0-6.4,5.15-9.25,15.86-10.3v-.7c0-2.75-1.61-3.8-4.45-3.8a22.15,22.15,0,0,0-8.86,2.15l-.85-5.55A26.47,26.47,0,0,1,621,54.7c7,0,10.55,2.5,10.55,9V81.9h-6.21l-.55-3.4a11.81,11.81,0,0,1-8.7,4C611.63,82.45,608.63,79.8,608.63,75.05Zm15.86-.5V68.7c-7.16.9-8.86,3-8.86,5.5a2.81,2.81,0,0,0,3.1,3A8.52,8.52,0,0,0,624.49,74.55Z" style="fill:#374a63"/><path d="M67.48,71.93l-1,.35C50.49,77.65,43.56,86,43.56,98.11,43.56,107.64,50,113,59,113c9.36,0,18-4.86,27.21-12.14l3.3,22.37c-9,7.45-20.11,12.65-35.54,12.65-22.19,0-36.23-13-36.23-36.23,0-19.07,11.61-33.46,30.33-40.22l1.39-14.21h15.6ZM70.6,30.67H44.42V1.72H70.6Z" style="fill:#077f9a"/><path d="M605.31,200.43l.68-.22c9.65-4,15-9,15-16.91,0-6.25-4.2-9.76-10.11-9.76-6.12,0-11.8,3.17-17.81,7.94l-2.16-14.64a34.81,34.81,0,0,1,23.27-8.29c14.52,0,23.72,8.52,23.72,23.72,0,12.49-7.61,21.91-19.87,26.34l-.9,9.3H606.9Zm-2,27h17.14v19H603.27Z" style="fill:#077f9a"/><g id="joven_mujer"><path d="M77,155.61a8.07,8.07,0,0,0-8-8.2,8.11,8.11,0,1,0-.17,16.22A7.76,7.76,0,0,0,77,155.61Z" style="fill:#14486d"/><path d="M52.25,198.4l4.18-14.21-6.19-3.34-4.85,15.38s-1.17,4,2.34,5S52.25,198.4,52.25,198.4Z" style="fill:#14486d"/><path d="M78.66,178.84C79.83,178.51,80,180,80,180l.84,2.68L87,179.35l-1.5-5.19s-2.51-6.52-7.86-6.52H60.27c-5.35,0-7.85,6.36-7.85,6.36l-1.51,4.84,6.19,3.35.83-2.34s.34-1.34,1.34-1.17.5,1.84.5,1.84l-9.53,34.6H59.1v24.74a4.36,4.36,0,1,0,8.7.67V215.46h2.5V240.2a4.18,4.18,0,1,0,8.36,0V215.46h8.86L78,180.85C77.83,180.85,77.49,179.18,78.66,178.84Z" style="fill:#14486d"/><path d="M92,196.4l-4.68-15.05-6.19,3.35,4,13.87s1,4,4.35,2.84A4,4,0,0,0,92,196.4Z" style="fill:#14486d"/><path d="M59.77,152.93h-1a10.38,10.38,0,0,1,20.06,0H77.66v5.52h1.67a9.58,9.58,0,0,1-2.84,4.85,1.31,1.31,0,0,0-1.34-.34l-2.84,1.17a.92.92,0,0,0-.5,1.34l.17.84a.92.92,0,0,0,1.33.5l3-1.17a.92.92,0,0,0,.5-1.34l-.16-.5a9.66,9.66,0,0,0,3-5.35h1.67v-5.69H79.67a11.2,11.2,0,0,0-21.74,0H56.26v5.52h3.68v-5.35Z" style="fill:#14486d"/></g><g id="joven_hombre"><path d="M9,239.86a4.61,4.61,0,0,0,4.51,4.52,4.73,4.73,0,0,0,4.52-4.52v-3.34H8.86v3.34Z" style="fill:#14486d"/><path d="M20.73,239.86a4.57,4.57,0,0,0,5,4.18,4.24,4.24,0,0,0,4.18-4.18v-3.34h-9.2Z" style="fill:#14486d"/><path d="M11.2,176.34V167H9.86A10.9,10.9,0,0,0,0,177.84v22.9a3.15,3.15,0,0,0,3.34,2.85,3.06,3.06,0,0,0,2.85-2.85V181.35c0-.83.16-1.67,1.5-1.67H11l.17-3.34Z" style="fill:#14486d"/><polygon points="14.71 174.33 24.57 174.33 24.57 167.14 19.39 167.14 14.71 167.14 14.71 174.33" style="fill:#14486d"/><path d="M26.75,181.52h-.84v-5.18H13.21v5.18H9v52.66h9.19V205.43c0-.84.34-1.34,1.17-1.34h.17c.84,0,1.34.33,1.34,1.17v28.92h9.19V181.52Z" style="fill:#14486d"/><path d="M29.09,167.14h-1v12.37h3c1.33,0,1.5,1,1.5,1.68v19.55a3.15,3.15,0,0,0,3.34,2.85,3.06,3.06,0,0,0,2.85-2.85v-22.9a10.71,10.71,0,0,0-9.7-10.7" style="fill:#14486d"/><path d="M25.24,175a1,1,0,1,0,1-1c-.5.16-1,.5-1,1" style="fill:#14486d"/><path d="M12,175a1,1,0,1,0,1-1c-.67.16-1,.5-1,1" style="fill:#14486d"/><path d="M24.91,154.1c-.84-.5-1.34-1.17-2.51-.5a9.23,9.23,0,0,0-2.17,1.17,16.09,16.09,0,0,1-5.35,1.51,36.77,36.77,0,0,1-4.18.33,8.65,8.65,0,0,0,17.22.17c-1.17-.84-2-1.84-3-2.68" style="fill:#14486d"/><path d="M10.7,154.77a33.87,33.87,0,0,0,4-.33,22.08,22.08,0,0,0,4.68-1.51c1.34-.5,2.68-1.17,2.68-1.17a2.92,2.92,0,0,1,1.67-.17c.33.17.5.34.84.51l.5.5s.33.33,2.34,1.84c.16.16.33.33.5.33a7.46,7.46,0,0,0,.17-2.34,10.75,10.75,0,0,0-2.34-6,2,2,0,0,0-1.84-.83c-1.17.16-1.17-.51-1.84-1.17a7.69,7.69,0,0,0-7.36,1.17,18.2,18.2,0,0,0-5.52,7.69c-.5.83.34,1.5,1.51,1.5" style="fill:#14486d"/></g><path d="M103.54,207.46l.9-6a19.71,19.71,0,0,0,9.9,3.15c2.65,0,4-.9,4-2.4s-1-2.2-5-3.25c-6.6-1.7-9.35-3.55-9.35-8.55,0-4.8,3.7-8.1,10.1-8.1a24.35,24.35,0,0,1,9.6,1.95l-1,5.9a19.61,19.61,0,0,0-8.65-2.45c-2.25,0-3.3.8-3.3,2.1s.9,1.95,4.75,2.95c7,1.85,9.65,3.7,9.65,8.7,0,5.45-3.85,8.55-10.85,8.55A24.16,24.16,0,0,1,103.54,207.46Z" style="fill:#374a63"/><path d="M126.24,196.26c0-8.7,5.25-13.95,12.3-13.95,8.1,0,11.65,6.05,11.65,13.65,0,.65,0,1.45-.05,2.15H133.39c.35,4.45,3,6.6,7,6.6a16,16,0,0,0,9-3.15l.8,5.35a18.28,18.28,0,0,1-10.65,3.2C131.89,210.11,126.24,205.86,126.24,196.26Zm17.1-2.8c-.35-4.1-2-6.35-5-6.35-2.55,0-4.55,2.1-5,6.35Z" style="fill:#374a63"/><path d="M153.24,217.61l1-5.7a18.45,18.45,0,0,0,8.6,2.2c4.05,0,6.05-1.9,6.05-5.5v-2.7a10.27,10.27,0,0,1-7.45,3.5c-5.55,0-10-4.15-10-12.85,0-9.5,5.35-14.05,13.4-14.05a32.87,32.87,0,0,1,11.1,1.85v23.95c0,7.2-4.1,11.25-12.6,11.25A26.47,26.47,0,0,1,153.24,217.61Zm15.7-17.5V189a9.85,9.85,0,0,0-3.85-.65c-3.9,0-6.4,2.4-6.4,7.95,0,4.75,2,7.05,4.8,7.05C165.59,203.31,167.34,202,168.94,200.11Z" style="fill:#374a63"/><path d="M179.84,202V182.86h7.1v17.25c0,2.2.95,3.7,3.2,3.7,2,0,3.85-1.2,5.65-3.05v-17.9h7.1v26.7h-6.1l-.6-3.7c-2.45,2.35-5.25,4.25-8.75,4.25C182.44,210.11,179.84,207.06,179.84,202Zm11.85-30.45h8.6V172l-7.55,7.45H188Z" style="fill:#374a63"/><path d="M206.79,182.86h6.1l.6,3.7c2.5-2.35,5.25-4.25,8.75-4.25,5,0,7.65,3.05,7.65,8.1v19.15h-7.1V192.31c0-2.2-.95-3.7-3.25-3.7-1.95,0-3.85,1.2-5.65,3v17.9h-7.1Z" style="fill:#374a63"/><path d="M245,170.66h7.1v38.9H245Z" style="fill:#374a63"/><path d="M254.89,202.71c0-6.4,5.15-9.25,15.85-10.3v-.7c0-2.75-1.6-3.8-4.45-3.8a22.15,22.15,0,0,0-8.85,2.15l-.85-5.55a26.46,26.46,0,0,1,10.7-2.15c7,0,10.55,2.5,10.55,9v18.2h-6.2l-.55-3.4a11.81,11.81,0,0,1-8.7,4C257.89,210.11,254.89,207.46,254.89,202.71Zm15.85-.5v-5.85c-7.15.9-8.85,3-8.85,5.5a2.81,2.81,0,0,0,3.1,3A8.51,8.51,0,0,0,270.74,202.21Z" style="fill:#374a63"/><path d="M280.29,207.46l.9-6a19.71,19.71,0,0,0,9.9,3.15c2.65,0,4-.9,4-2.4s-1-2.2-5-3.25c-6.6-1.7-9.35-3.55-9.35-8.55,0-4.8,3.7-8.1,10.1-8.1a24.35,24.35,0,0,1,9.6,1.95l-.95,5.9a19.61,19.61,0,0,0-8.65-2.45c-2.25,0-3.3.8-3.3,2.1s.9,1.95,4.75,2.95c7,1.85,9.65,3.7,9.65,8.7,0,5.45-3.85,8.55-10.85,8.55A24.16,24.16,0,0,1,280.29,207.46Z" style="fill:#374a63"/><path d="M315.69,219.31l-.95-5.8a10.74,10.74,0,0,0,3.15.4,4.35,4.35,0,0,0,4.3-2.8l.55-1.45-9.9-26.8h7.8l5.8,18,5.65-18h7l-9.95,27.9c-2.4,6.65-5.5,8.8-10.85,8.8A10.44,10.44,0,0,1,315.69,219.31Z" style="fill:#374a63"/><path d="M351.89,170.66H359v38.9h-7.1Z" style="fill:#374a63"/><path d="M361.79,196.26c0-8.65,5.39-13.95,12.65-13.95s12.7,5.25,12.7,13.9-5.4,13.9-12.75,13.9S361.79,204.91,361.79,196.26Zm18.45,0c0-4.75-2.1-8.15-5.8-8.15s-5.75,3.3-5.75,8.1,2.05,8.1,5.75,8.1S380.24,201,380.24,196.26Z" style="fill:#374a63"/><path d="M388.38,207.46l.9-6a19.78,19.78,0,0,0,9.91,3.15c2.64,0,3.95-.9,3.95-2.4s-.95-2.2-5-3.25c-6.59-1.7-9.35-3.55-9.35-8.55,0-4.8,3.7-8.1,10.1-8.1a24.36,24.36,0,0,1,9.61,1.95l-.95,5.9a19.62,19.62,0,0,0-8.66-2.45c-2.25,0-3.3.8-3.3,2.1s.91,1.95,4.75,2.95c7,1.85,9.66,3.7,9.66,8.7,0,5.45-3.85,8.55-10.86,8.55A24.19,24.19,0,0,1,388.38,207.46Z" style="fill:#374a63"/><path d="M419.68,219.36l-.9-5.7a8.33,8.33,0,0,0,2.1.25c1.75,0,2.95-.85,2.95-3.25v-27.8h7.1v28.35c0,6-3.5,8.35-8.6,8.35A12.37,12.37,0,0,1,419.68,219.36Zm3.6-44.75a4.1,4.1,0,1,1,4.1,3.95A3.89,3.89,0,0,1,423.28,174.61Z" style="fill:#374a63"/><path d="M433.73,196.26c0-8.65,5.4-13.95,12.65-13.95s12.7,5.25,12.7,13.9-5.4,13.9-12.75,13.9S433.73,204.91,433.73,196.26Zm18.45,0c0-4.75-2.1-8.15-5.8-8.15s-5.75,3.3-5.75,8.1,2.05,8.1,5.75,8.1S452.18,201,452.18,196.26Zm-4.65-24.7h8.6V172l-7.55,7.45h-4.7Z" style="fill:#374a63"/><path d="M459.18,182.86H467l5.6,17.95,5.5-17.95h7l-9.4,26.8h-7Z" style="fill:#374a63"/><path d="M485.18,196.26c0-8.7,5.25-13.95,12.3-13.95,8.1,0,11.65,6.05,11.65,13.65,0,.65,0,1.45-.05,2.15H492.33c.35,4.45,3,6.6,6.95,6.6a16,16,0,0,0,9.05-3.15l.8,5.35a18.28,18.28,0,0,1-10.65,3.2C490.83,210.11,485.18,205.86,485.18,196.26Zm17.1-2.8c-.35-4.1-1.95-6.35-4.95-6.35-2.55,0-4.55,2.1-5,6.35Z" style="fill:#374a63"/><path d="M511.78,182.86h6.1l.6,3.7c2.5-2.35,5.25-4.25,8.75-4.25,5,0,7.65,3.05,7.65,8.1v19.15h-7.1V192.31c0-2.2-.95-3.7-3.25-3.7-1.95,0-3.85,1.2-5.65,3v17.9h-7.1Z" style="fill:#374a63"/><path d="M537.28,196.26c0-8.7,5.25-13.95,12.3-13.95,8.1,0,11.65,6.05,11.65,13.65,0,.65,0,1.45-.05,2.15H544.43c.35,4.45,3,6.6,7,6.6a16,16,0,0,0,9-3.15l.8,5.35a18.28,18.28,0,0,1-10.65,3.2C542.93,210.11,537.28,205.86,537.28,196.26Zm17.1-2.8c-.35-4.1-2-6.35-5-6.35-2.55,0-4.55,2.1-5,6.35Z" style="fill:#374a63"/><path d="M562.58,207.46l.9-6a19.71,19.71,0,0,0,9.9,3.15c2.65,0,4-.9,4-2.4s-1-2.2-5-3.25c-6.6-1.7-9.35-3.55-9.35-8.55,0-4.8,3.7-8.1,10.1-8.1a24.35,24.35,0,0,1,9.6,1.95l-.95,5.9a19.61,19.61,0,0,0-8.65-2.45c-2.25,0-3.3.8-3.3,2.1s.9,1.95,4.75,2.95c7,1.85,9.65,3.7,9.65,8.7,0,5.45-3.85,8.55-10.85,8.55A24.16,24.16,0,0,1,562.58,207.46Z" style="fill:#374a63"/><text id="svg_nombre_comuna" transform="translate(328.04 149.39)" style="font-size:68.67402648925781px;fill:#067dba;font-family:UNFPA-Bold;font-weight:700;letter-spacing:-0.05000554367941668em">Popular</text></g></g></svg>