<?xml version="1.0" encoding="utf-8"?>
<!-- Generator: Adobe Illustrator 23.0.4, SVG Export Plug-In . SVG Version: 6.00 Build 0)  -->
<svg version="1.1" id="Capa_1" xmlns="http://www.w3.org/2000/svg" xmlns:xlink="http://www.w3.org/1999/xlink" x="0px" y="0px"
	 viewBox="0 0 792 612" style="enable-background:new 0 0 792 612;" xml:space="preserve">
<style type="text/css">
	.st0{fill:#394B63;}
	.st1{fill:#62B046;}
	.st2{fill:#E1B632;}
	.st3{fill:#C2202E;}
	.st4{fill:#4C9B45;}
	.st5{fill:#3F7F46;}
	.st6{fill:#F7BF1A;}
	.st7{fill:#E8452E;}
	.st8{fill:#F39B30;}
	.st9{fill:#2293D1;}
	.st10{fill:#A11C45;}
	.st11{fill:#30B9DD;}
	.st12{fill:#EB692F;}
	.st13{fill:#E1273F;}
	.st14{fill:#DC1C69;}
	.st15{fill:#154B6D;}
	.st16{fill:#C4962D;}
	.st17{fill:#0F6B9F;}
	.st18{fill:#616262;}
</style>
<g>
	<path class="st0" d="M157.3,202.9h8.9l14.6,39.7h-8.7l-3.5-9.5h-14.5l-3.3,9.5h-8.1L157.3,202.9z M166.5,226.5l-5.2-14.8l-5.1,14.8
		H166.5z"/>
	<path class="st0" d="M182.7,214.8h6.4l0.6,3.9c2.6-2.4,5.5-4.4,9.1-4.4c5.2,0,8,3.2,8,8.4v19.9h-7.4v-18c0-2.3-1-3.9-3.4-3.9
		c-2,0-4,1.2-5.9,3.2v18.6h-7.4V214.8z"/>
	<path class="st0" d="M209.2,235.5c0-6.7,5.4-9.6,16.5-10.7V224c0-2.9-1.7-4-4.6-4c-3.2,0-6.2,0.9-9.2,2.2l-0.9-5.8
		c3.2-1.4,6.7-2.2,11.1-2.2c7.3,0,11,2.6,11,9.4v19h-6.5l-0.6-3.5c-2.3,2.3-5.1,4.1-9.1,4.1C212.3,243.2,209.2,240.4,209.2,235.5z
		 M225.7,235v-6.1c-7.4,0.9-9.2,3.1-9.2,5.7c0,2,1.2,3.1,3.2,3.1C221.8,237.7,223.8,236.7,225.7,235z M222,203.1h9v0.5l-7.9,7.8
		h-4.9L222,203.1z"/>
	<path class="st0" d="M237.3,202.1h7.4v40.5h-7.4V202.1z"/>
	<path class="st0" d="M248.7,206.2c0-2.4,1.9-4.1,4.3-4.1c2.3,0,4.3,1.7,4.3,4.1c0,2.4-1.9,4.1-4.3,4.1
		C250.6,210.3,248.7,208.7,248.7,206.2z M249.3,214.8h7.4v27.8h-7.4V214.8z"/>
	<path class="st0" d="M259.7,240.4l0.9-6.2c3.1,2,7,3.3,10.3,3.3c2.8,0,4.1-0.9,4.1-2.5c0-1.7-1-2.3-5.2-3.4
		c-6.9-1.8-9.7-3.7-9.7-8.9c0-5,3.9-8.4,10.5-8.4c3.6,0,7.1,0.8,10,2l-1,6.1c-2.9-1.6-6.3-2.6-9-2.6c-2.3,0-3.4,0.8-3.4,2.2
		s0.9,2,4.9,3.1c7.3,1.9,10,3.9,10,9.1c0,5.7-4,8.9-11.3,8.9C266.6,243.1,262.4,241.9,259.7,240.4z"/>
	<path class="st0" d="M284.4,206.2c0-2.4,1.9-4.1,4.3-4.1c2.3,0,4.3,1.7,4.3,4.1c0,2.4-1.9,4.1-4.3,4.1
		C286.3,210.3,284.4,208.7,284.4,206.2z M285,214.8h7.4v27.8H285V214.8z"/>
	<path class="st0" d="M295.4,240.4l0.9-6.2c3.1,2,7,3.3,10.3,3.3c2.8,0,4.1-0.9,4.1-2.5c0-1.7-1-2.3-5.2-3.4
		c-6.9-1.8-9.7-3.7-9.7-8.9c0-5,3.9-8.4,10.5-8.4c3.6,0,7.1,0.8,10,2l-1,6.1c-2.9-1.6-6.3-2.6-9-2.6c-2.3,0-3.4,0.8-3.4,2.2
		s0.9,2,4.9,3.1c7.3,1.9,10,3.9,10,9.1c0,5.7-4,8.9-11.3,8.9C302.3,243.1,298.1,241.9,295.4,240.4z"/>
	<path class="st0" d="M143.6,285.2l0.9-6.2c3.1,2,7,3.3,10.3,3.3c2.8,0,4.1-0.9,4.1-2.5c0-1.7-1-2.3-5.2-3.4
		c-6.9-1.8-9.7-3.7-9.7-8.9c0-5,3.9-8.4,10.5-8.4c3.6,0,7.1,0.8,10,2l-1,6.1c-2.9-1.6-6.3-2.6-9-2.6c-2.3,0-3.4,0.8-3.4,2.2
		c0,1.4,0.9,2,4.9,3.1c7.3,1.9,10,3.9,10,9.1c0,5.7-4,8.9-11.3,8.9C150.5,287.9,146.3,286.7,143.6,285.2z"/>
	<path class="st0" d="M167.2,273.5c0-9.1,5.5-14.5,12.8-14.5c8.4,0,12.1,6.3,12.1,14.2c0,0.7,0,1.5-0.1,2.2h-17.4
		c0.4,4.6,3.1,6.9,7.2,6.9c3.4,0,6.4-1.2,9.4-3.3l0.8,5.6c-3,2.1-6.7,3.3-11.1,3.3C173.1,288,167.2,283.5,167.2,273.5z M185,270.6
		c-0.4-4.3-2-6.6-5.2-6.6c-2.7,0-4.7,2.2-5.2,6.6H185z"/>
	<path class="st0" d="M194.9,259.6h6.4l0.6,3.9c2.6-2.5,5.3-4.4,9.1-4.4c3.9,0,6,1.8,7,4.5c2.5-2.5,5.5-4.5,9.1-4.5
		c5.2,0,7.9,3.2,7.9,8.4v19.9h-7.4v-18c0-2.3-0.8-3.9-3.2-3.9c-2,0-3.9,1.2-5.7,3.2v18.6h-7.4v-18c0-2.3-0.9-3.9-3.2-3.9
		c-2,0-3.9,1.2-5.7,3.2v18.6h-7.4V259.6z"/>
	<path class="st0" d="M237.4,280.3c0-6.7,5.4-9.6,16.5-10.7v-0.7c0-2.9-1.7-4-4.6-4c-3.2,0-6.2,0.9-9.2,2.2l-0.9-5.8
		c3.2-1.4,6.7-2.2,11.1-2.2c7.3,0,11,2.6,11,9.4v19h-6.5l-0.6-3.5c-2.3,2.3-5.1,4.1-9.1,4.1C240.6,288,237.4,285.2,237.4,280.3z
		 M253.9,279.7v-6.1c-7.4,0.9-9.2,3.1-9.2,5.7c0,2,1.2,3.1,3.2,3.1C250.1,282.5,252.1,281.5,253.9,279.7z M250.3,247.8h9v0.5
		l-7.9,7.8h-4.9L250.3,247.8z"/>
	<path class="st0" d="M265.2,259.6h6.4l0.6,3.9c2.6-2.4,5.5-4.4,9.1-4.4c5.2,0,8,3.2,8,8.4v19.9h-7.4v-18c0-2.3-1-3.9-3.4-3.9
		c-2,0-4,1.2-5.9,3.2v18.6h-7.4V259.6z"/>
	<path class="st0" d="M294.6,279.2v-13.6h-3.9v-6h3.9v-9.1h7.3v9.1h6v6h-6V278c0,2.2,1,3.4,3.6,3.4c0.9,0,1.9-0.1,2.6-0.3v6.2
		c-1.4,0.3-2.2,0.4-4,0.4C298.5,287.9,294.6,285.8,294.6,279.2z"/>
	<path class="st0" d="M310.6,251c0-2.4,1.9-4.1,4.3-4.1c2.3,0,4.3,1.7,4.3,4.1c0,2.4-1.9,4.1-4.3,4.1
		C312.4,255.1,310.6,253.4,310.6,251z M311.1,259.6h7.4v27.8h-7.4V259.6z"/>
	<path class="st0" d="M321.5,273.6c0-9.7,6.1-14.6,13.6-14.6c3.6,0,6.4,0.9,8.5,2.2l-1,6.6c-2.3-1.7-4.4-2.5-7-2.5
		c-3.8,0-6.6,2.8-6.6,8.1c0,5.5,3,8.1,7,8.1c2.3,0,4.4-0.6,7-2.5l0.9,6.2c-2.8,1.9-5.6,2.7-9.1,2.7
		C326.9,287.9,321.5,282.7,321.5,273.6z"/>
	<path class="st0" d="M345,273.5c0-9,5.6-14.5,13.2-14.5c7.7,0,13.2,5.5,13.2,14.5s-5.6,14.5-13.3,14.5
		C350.6,288,345,282.6,345,273.5z M364.2,273.5c0-4.9-2.2-8.5-6-8.5c-3.9,0-6,3.4-6,8.4c0,4.9,2.1,8.4,6,8.4
		C362.1,281.9,364.2,278.5,364.2,273.5z"/>
	<path class="st0" d="M384.2,274.3c0-10.4,5.7-15,12.1-15c2.6,0,4.6,0.5,6.2,1v-13.4h7.4v40.5h-6.4l-0.6-3.7c-2,2.2-4.6,4.3-8.4,4.3
		C388.8,288,384.2,283.6,384.2,274.3z M402.6,277.9v-11.6c-1.6-0.7-2.8-1-4.9-1c-3.4,0-5.9,2.7-5.9,8.6c0,5.2,2.1,7.6,5.1,7.6
		C399,281.4,400.8,280,402.6,277.9z"/>
	<path class="st0" d="M412.6,273.5c0-9.1,5.5-14.5,12.8-14.5c8.4,0,12.1,6.3,12.1,14.2c0,0.7,0,1.5-0.1,2.2h-17.4
		c0.4,4.6,3.1,6.9,7.2,6.9c3.4,0,6.4-1.2,9.4-3.3l0.8,5.6c-3,2.1-6.7,3.3-11.1,3.3C418.5,288,412.6,283.5,412.6,273.5z M430.4,270.6
		c-0.4-4.3-2-6.6-5.2-6.6c-2.7,0-4.7,2.2-5.2,6.6H430.4z"/>
</g>
<g>
	<path class="st0" d="M276.4,349.1h15.1v7.1h-15.1V349.1z"/>
	<path class="st0" d="M307,329.6h11.6c9.2,0,14.8,4.3,14.8,12.5c0,8.6-6,12.9-15.4,12.9h-3v14.2H307V329.6z M318.2,348.6
		c4.7,0,7.4-2,7.4-6.4c0-4.1-2.6-6.1-7.3-6.1H315v12.5H318.2z"/>
	<path class="st0" d="M335.6,341.4h6.4l0.9,5.6c1.8-3.2,4.4-5.9,8.7-6.1l1.2,7.4c-4.3,0.3-7.7,2.4-9.7,5.2v15.8h-7.4V341.4z"/>
	<path class="st0" d="M352.7,355.4c0-9,5.6-14.5,13.2-14.5c7.7,0,13.2,5.5,13.2,14.5c0,9-5.6,14.5-13.3,14.5
		C358.3,369.8,352.7,364.4,352.7,355.4z M372,355.4c0-4.9-2.2-8.5-6-8.5c-3.9,0-6,3.4-6,8.4c0,4.9,2.1,8.4,6,8.4
		C369.8,363.8,372,360.3,372,355.4z"/>
	<path class="st0" d="M382,379.4l-1-6c0.9,0.3,1.9,0.4,3.3,0.4c2,0,3.6-0.9,4.5-2.9l0.6-1.5l-10.3-27.9h8.1l6,18.7l5.9-18.7h7.3
		l-10.4,29.1c-2.5,6.9-5.7,9.2-11.3,9.2C383.4,379.6,382.7,379.5,382,379.4z"/>
	<path class="st0" d="M406.5,355.4c0-9.1,5.5-14.5,12.8-14.5c8.4,0,12.1,6.3,12.1,14.2c0,0.7,0,1.5-0.1,2.2h-17.4
		c0.4,4.6,3.1,6.9,7.2,6.9c3.4,0,6.4-1.2,9.4-3.3l0.8,5.6c-3,2.1-6.7,3.3-11.1,3.3C412.3,369.8,406.5,365.4,406.5,355.4z
		 M424.3,352.5c-0.4-4.3-2-6.6-5.2-6.6c-2.7,0-4.7,2.2-5.2,6.6H424.3z"/>
	<path class="st0" d="M432.8,355.5c0-9.7,6.1-14.6,13.6-14.6c3.6,0,6.4,0.9,8.5,2.2l-1,6.6c-2.3-1.7-4.4-2.5-7-2.5
		c-3.8,0-6.6,2.8-6.6,8.1c0,5.5,3,8.1,7,8.1c2.3,0,4.4-0.6,7-2.5l0.9,6.2c-2.8,1.9-5.6,2.7-9.1,2.7
		C438.2,369.7,432.8,364.5,432.8,355.5z"/>
	<path class="st0" d="M459.2,361v-13.6h-3.9v-6h3.9v-9.1h7.3v9.1h6v6h-6v12.4c0,2.2,1,3.4,3.6,3.4c0.9,0,1.9-0.1,2.6-0.3v6.2
		c-1.4,0.3-2.2,0.4-4,0.4C463,369.7,459.2,367.6,459.2,361z"/>
	<path class="st0" d="M473.9,355.4c0-9,5.6-14.5,13.2-14.5c7.7,0,13.2,5.5,13.2,14.5c0,9-5.6,14.5-13.3,14.5
		C479.5,369.8,473.9,364.4,473.9,355.4z M493.1,355.4c0-4.9-2.2-8.5-6-8.5c-3.9,0-6,3.4-6,8.4c0,4.9,2.1,8.4,6,8.4
		C491,363.8,493.1,360.3,493.1,355.4z"/>
	<path class="st0" d="M501.6,367l0.9-6.2c3.1,2,7,3.3,10.3,3.3c2.8,0,4.1-0.9,4.1-2.5c0-1.7-1-2.3-5.2-3.4c-6.9-1.8-9.7-3.7-9.7-8.9
		c0-5,3.9-8.4,10.5-8.4c3.6,0,7.1,0.8,10,2l-1,6.1c-2.9-1.6-6.3-2.6-9-2.6c-2.3,0-3.4,0.8-3.4,2.2s0.9,2,4.9,3.1
		c7.3,1.9,10,3.9,10,9.1c0,5.7-4,8.9-11.3,8.9C508.6,369.7,504.4,368.5,501.6,367z"/>
	<path class="st0" d="M538.9,329.6h11.6c9.2,0,14.8,4.3,14.8,12.5c0,8.6-6,12.9-15.4,12.9h-3v14.2h-8.1V329.6z M550,348.6
		c4.7,0,7.4-2,7.4-6.4c0-4.1-2.6-6.1-7.3-6.1h-3.3v12.5H550z"/>
	<path class="st0" d="M568.1,329.6H581c13.8,0,20.9,8.1,20.9,19.7c0,11.8-7.3,19.8-20.8,19.8h-12.9V329.6z M580.8,362.6
		c7.9,0,12.8-4.1,12.8-13.1c0-8.9-5.2-13.1-12.7-13.1h-4.6v26.2H580.8z"/>
	<path class="st0" d="M605.9,329.6H629v6.8h-15.1v8.7H626v7h-12.1v10.3h15.7v6.8h-23.7V329.6z"/>
	<path class="st0" d="M642.2,336.7h-11.7v-7.1h31.5v7.1h-11.7v32.5h-8.2V336.7z"/>
</g>
<g>
	<g id="XMLID_127_">
		<path id="XMLID_144_" class="st1" d="M173,340.1c1.5-2.6,3.4-4.9,5.5-7l-18-19.7c-4.5,4.3-8.4,9.3-11.4,14.8L173,340.1z"/>
		<path id="XMLID_143_" class="st2" d="M217.1,326.2c2.7,1.2,5.3,2.8,7.5,4.7l18-19.6c-4.7-4.1-10.1-7.5-16-9.9L217.1,326.2z"/>
		<path id="XMLID_142_" class="st3" d="M258.4,332.1L234.5,344c1.1,2.7,2,5.5,2.4,8.4l26.6-2.5C262.7,343.7,261,337.7,258.4,332.1"
			/>
		<path id="XMLID_141_" class="st4" d="M232.8,340.6l23.9-11.9c-3-5.5-6.7-10.5-11.2-14.8l-18,19.6
			C229.5,335.6,231.3,338,232.8,340.6"/>
		<path id="XMLID_140_" class="st5" d="M168.3,357.5c0-0.5,0-1.1,0-1.6l-26.6-2.4c-0.1,1.3-0.1,2.6-0.1,4c0,5.1,0.6,10,1.8,14.7
			l25.7-7.3C168.6,362.5,168.3,360,168.3,357.5"/>
		<path id="XMLID_139_" class="st6" d="M229.4,379.3c-1.9,2.3-4.1,4.3-6.5,6.1l14,22.7c5.2-3.5,9.9-7.8,13.8-12.7L229.4,379.3z"/>
		<path id="XMLID_138_" class="st7" d="M237.3,357.5c0,2.5-0.3,5-0.8,7.3l25.7,7.4c1.2-4.7,1.8-9.6,1.8-14.7c0-1.3,0-2.5-0.1-3.7
			l-26.6,2.5C237.3,356.7,237.3,357.1,237.3,357.5"/>
		<path id="XMLID_137_" class="st8" d="M176.5,379.8l-21.3,16.1c4,4.8,8.6,9.1,13.9,12.5l14-22.6
			C180.7,384.1,178.5,382.1,176.5,379.8"/>
		<path id="XMLID_136_" class="st9" d="M168.7,352.1c0.5-3,1.3-5.9,2.5-8.5l-23.9-11.9c-2.6,5.6-4.4,11.7-5.3,18L168.7,352.1z"/>
		<path id="XMLID_135_" class="st10" d="M233.7,410.1l-14-22.6c-2.5,1.4-5.3,2.6-8.2,3.3l4.9,26.2
			C222.6,415.5,228.4,413.2,233.7,410.1"/>
		<path id="XMLID_134_" class="st11" d="M235.5,368.5c-0.9,2.7-2.2,5.3-3.7,7.7l21.3,16c3.5-5,6.2-10.5,8.1-16.3L235.5,368.5z"/>
		<path id="XMLID_133_" class="st12" d="M207.8,391.5c-1.6,0.2-3.3,0.4-5,0.4c-1.4,0-2.7-0.1-4-0.2l-4.9,26.2c2.9,0.4,5.9,0.7,9,0.7
			c3.4,0,6.7-0.3,9.9-0.8L207.8,391.5z"/>
		<path id="XMLID_132_" class="st13" d="M205,323.2c3,0.2,5.8,0.8,8.5,1.6l9.6-24.8c-5.7-2-11.8-3.2-18.1-3.4V323.2z"/>
		<path id="XMLID_131_" class="st14" d="M195,391c-3-0.7-5.8-1.8-8.5-3.2l-14,22.6c5.4,3.1,11.3,5.4,17.6,6.7L195,391z"/>
		<path id="XMLID_130_" class="st15" d="M192.4,324.7c2.8-0.9,5.7-1.4,8.7-1.5v-26.6c-6.4,0.2-12.6,1.3-18.4,3.3L192.4,324.7z"/>
		<path id="XMLID_129_" class="st16" d="M174.2,376.7c-1.7-2.5-3.1-5.2-4.1-8.1l-25.7,7.3c1.9,6.1,4.8,11.8,8.5,16.9L174.2,376.7z"
			/>
		<path id="XMLID_128_" class="st17" d="M181.4,330.5c2.3-1.8,4.7-3.3,7.4-4.5l-9.7-24.8c-5.7,2.4-11,5.7-15.7,9.6L181.4,330.5z"/>
	</g>
	<g>
		<path class="st18" d="M172.4,358c0-9.3,3.7-15.7,11.2-15.7c7.4,0,11.1,6.3,11.1,15.6c0,9.3-3.7,15.7-11.2,15.7
			C176.1,373.6,172.4,367.3,172.4,358z M188.6,358c0-6.4-1.5-10.7-5-10.7c-3.6,0-5,4.3-5,10.7s1.4,10.7,5,10.7
			C187.2,368.6,188.6,364.4,188.6,358z"/>
		<path class="st18" d="M196.1,342.9h6.8c9.3,0,13.4,5.5,13.4,15c0,9.5-4.3,15.1-13.4,15.1h-6.8V342.9z M203.1,368.1
			c4.3,0,7.1-2.7,7.1-10.1c0-7.3-2.8-10.1-7.1-10.1h-1v20.3H203.1z"/>
		<path class="st18" d="M216.7,371.6l0.8-5.3c2.4,1.3,4.5,2.1,6.8,2.1c2.1,0,3.3-1.1,3.3-2.9c0-2-1.1-3.3-4.4-5.6
			c-3.3-2.3-6.2-4.7-6.2-9.2c0-4.8,3.3-8.2,8.5-8.2c2.9,0,4.7,0.5,6.6,1.4l-0.8,5.3c-1.9-1.2-3.5-1.7-5.3-1.7
			c-1.9,0-2.9,1.3-2.9,2.7c0,1.9,1.2,3,4.3,5c3.6,2.5,6.4,5.1,6.4,9.7c0,5.3-3.6,8.4-9,8.4C221.8,373.4,219.1,372.8,216.7,371.6z"/>
	</g>
</g>
</svg>
