<svg xmlns="http://www.w3.org/2000/svg" viewBox="0 0 520.4 216.5"><title>pnud</title><g id="Layer_2" data-name="Layer 2"><g id="Capa_1" data-name="Capa 1"><path d="M15.7.8h8.9L39.2,40.5H30.5L27,31H12.5L9.2,40.5H1.1Zm9.2,23.6L19.7,9.6,14.6,24.4Z" style="fill:#394b63"/><path d="M41.1,12.7h6.4l.6,3.9c2.6-2.4,5.5-4.4,9.1-4.4,5.2,0,8,3.2,8,8.4V40.5H57.8v-18c0-2.3-1-3.9-3.4-3.9-2,0-4,1.2-5.9,3.2V40.4H41.1V12.7Z" style="fill:#394b63"/><path d="M67.6,33.4c0-6.7,5.4-9.6,16.5-10.7v-.8c0-2.9-1.7-4-4.6-4a23,23,0,0,0-9.2,2.2l-.9-5.8a26.78,26.78,0,0,1,11.1-2.2c7.3,0,11,2.6,11,9.4v19H85L84.4,37a12.38,12.38,0,0,1-9.1,4.1C70.7,41.1,67.6,38.3,67.6,33.4Zm16.5-.5V26.8c-7.4.9-9.2,3.1-9.2,5.7a2.87,2.87,0,0,0,3.2,3.1A9.12,9.12,0,0,0,84.1,32.9ZM80.4,1h9v.5L81.5,9.3H76.6Z" style="fill:#394b63"/><path d="M95.7,0h7.4V40.5H95.7Z" style="fill:#394b63"/><path d="M107.1,4.1A4.1,4.1,0,0,1,111.4,0a4.16,4.16,0,0,1,4.3,4.1,4.1,4.1,0,0,1-4.3,4.1A4,4,0,0,1,107.1,4.1Zm.6,8.6h7.4V40.5h-7.4V12.7Z" style="fill:#394b63"/><path d="M118.1,38.3l.9-6.2a20.19,20.19,0,0,0,10.3,3.3c2.8,0,4.1-.9,4.1-2.5s-1-2.3-5.2-3.4c-6.9-1.8-9.7-3.7-9.7-8.9,0-5,3.9-8.4,10.5-8.4a26.6,26.6,0,0,1,10,2l-1,6.1a20,20,0,0,0-9-2.6c-2.3,0-3.4.8-3.4,2.2s.9,2,4.9,3.1c7.3,1.9,10,3.9,10,9.1,0,5.7-4,8.9-11.3,8.9A24.22,24.22,0,0,1,118.1,38.3Z" style="fill:#394b63"/><path d="M142.8,4.1A4.1,4.1,0,0,1,147.1,0a4.16,4.16,0,0,1,4.3,4.1,4.1,4.1,0,0,1-4.3,4.1A4,4,0,0,1,142.8,4.1Zm.6,8.6h7.4V40.5h-7.4Z" style="fill:#394b63"/><path d="M153.8,38.3l.9-6.2A20.19,20.19,0,0,0,165,35.4c2.8,0,4.1-.9,4.1-2.5s-1-2.3-5.2-3.4c-6.9-1.8-9.7-3.7-9.7-8.9,0-5,3.9-8.4,10.5-8.4a26.6,26.6,0,0,1,10,2l-1,6.1a20,20,0,0,0-9-2.6c-2.3,0-3.4.8-3.4,2.2s.9,2,4.9,3.1c7.3,1.9,10,3.9,10,9.1,0,5.7-4,8.9-11.3,8.9A24.22,24.22,0,0,1,153.8,38.3Z" style="fill:#394b63"/><path d="M2,83.1l.9-6.2a20.19,20.19,0,0,0,10.3,3.3c2.8,0,4.1-.9,4.1-2.5s-1-2.3-5.2-3.4c-6.9-1.8-9.7-3.7-9.7-8.9,0-5,3.9-8.4,10.5-8.4a26.6,26.6,0,0,1,10,2l-1,6.1a20,20,0,0,0-9-2.6c-2.3,0-3.4.8-3.4,2.2s.9,2,4.9,3.1c7.3,1.9,10,3.9,10,9.1,0,5.7-4,8.9-11.3,8.9A24.22,24.22,0,0,1,2,83.1Z" style="fill:#394b63"/><path d="M25.6,71.4c0-9.1,5.5-14.5,12.8-14.5,8.4,0,12.1,6.3,12.1,14.2a16.2,16.2,0,0,1-.1,2.2H33c.4,4.6,3.1,6.9,7.2,6.9a16,16,0,0,0,9.4-3.3l.8,5.6a18.94,18.94,0,0,1-11.1,3.3C31.5,85.9,25.6,81.4,25.6,71.4Zm17.8-2.9c-.4-4.3-2-6.6-5.2-6.6-2.7,0-4.7,2.2-5.2,6.6Z" style="fill:#394b63"/><path d="M53.3,57.5h6.4l.6,3.9c2.6-2.5,5.3-4.4,9.1-4.4s6,1.8,7,4.5C78.9,59,81.9,57,85.5,57c5.2,0,7.9,3.2,7.9,8.4V85.3H86v-18c0-2.3-.8-3.9-3.2-3.9-2,0-3.9,1.2-5.7,3.2V85.2H69.7v-18c0-2.3-.9-3.9-3.2-3.9-2,0-3.9,1.2-5.7,3.2V85.1H53.4V57.5Z" style="fill:#394b63"/><path d="M95.8,78.2c0-6.7,5.4-9.6,16.5-10.7v-.7c0-2.9-1.7-4-4.6-4A23,23,0,0,0,98.5,65l-.9-5.8A26.78,26.78,0,0,1,108.7,57c7.3,0,11,2.6,11,9.4v19h-6.5l-.6-3.5a12.38,12.38,0,0,1-9.1,4.1C99,85.9,95.8,83.1,95.8,78.2Zm16.5-.6V71.5c-7.4.9-9.2,3.1-9.2,5.7a2.87,2.87,0,0,0,3.2,3.1A8,8,0,0,0,112.3,77.6Zm-3.6-31.9h9v.5L109.8,54h-4.9Z" style="fill:#394b63"/><path d="M123.6,57.5H130l.6,3.9c2.6-2.4,5.5-4.4,9.1-4.4,5.2,0,8,3.2,8,8.4V85.3h-7.4v-18c0-2.3-1-3.9-3.4-3.9-2,0-4,1.2-5.9,3.2V85.2h-7.4V57.5Z" style="fill:#394b63"/><path d="M153,77.1V63.5h-3.9v-6H153V48.4h7.3v9.1h6v6h-6V75.9c0,2.2,1,3.4,3.6,3.4a10.32,10.32,0,0,0,2.6-.3v6.2a15.91,15.91,0,0,1-4,.4C156.9,85.8,153,83.7,153,77.1Z" style="fill:#394b63"/><path d="M169,48.9a4.1,4.1,0,0,1,4.3-4.1,4.16,4.16,0,0,1,4.3,4.1,4.1,4.1,0,0,1-4.3,4.1A4,4,0,0,1,169,48.9Zm.5,8.6h7.4V85.3h-7.4Z" style="fill:#394b63"/><path d="M179.9,71.5c0-9.7,6.1-14.6,13.6-14.6a15.89,15.89,0,0,1,8.5,2.2l-1,6.6a11.13,11.13,0,0,0-7-2.5c-3.8,0-6.6,2.8-6.6,8.1,0,5.5,3,8.1,7,8.1a11.14,11.14,0,0,0,7-2.5l.9,6.2a15.24,15.24,0,0,1-9.1,2.7C185.3,85.8,179.9,80.6,179.9,71.5Z" style="fill:#394b63"/><path d="M203.4,71.4c0-9,5.6-14.5,13.2-14.5s13.2,5.5,13.2,14.5-5.6,14.5-13.3,14.5C209,85.9,203.4,80.5,203.4,71.4Zm19.2,0c0-4.9-2.2-8.5-6-8.5s-6,3.4-6,8.4,2.1,8.4,6,8.4S222.6,76.4,222.6,71.4Z" style="fill:#394b63"/><path d="M242.6,72.2c0-10.4,5.7-15,12.1-15a20,20,0,0,1,6.2,1V44.8h7.4V85.3h-6.4l-.6-3.7c-2,2.2-4.6,4.3-8.4,4.3C247.2,85.9,242.6,81.5,242.6,72.2ZM261,75.8V64.2a10.73,10.73,0,0,0-4.9-1c-3.4,0-5.9,2.7-5.9,8.6,0,5.2,2.1,7.6,5.1,7.6C257.4,79.3,259.2,77.9,261,75.8Z" style="fill:#394b63"/><path d="M271,71.4c0-9.1,5.5-14.5,12.8-14.5,8.4,0,12.1,6.3,12.1,14.2a16.2,16.2,0,0,1-.1,2.2H278.4c.4,4.6,3.1,6.9,7.2,6.9a16,16,0,0,0,9.4-3.3l.8,5.6a18.94,18.94,0,0,1-11.1,3.3C276.9,85.9,271,81.4,271,71.4Zm17.8-2.9c-.4-4.3-2-6.6-5.2-6.6-2.7,0-4.7,2.2-5.2,6.6Z" style="fill:#394b63"/><path d="M134.8,147h15.1v7.1H134.8Z" style="fill:#394b63"/><path d="M165.4,127.5H177c9.2,0,14.8,4.3,14.8,12.5,0,8.6-6,12.9-15.4,12.9h-3v14.2h-8Zm11.2,19c4.7,0,7.4-2,7.4-6.4,0-4.1-2.6-6.1-7.3-6.1h-3.3v12.5Z" style="fill:#394b63"/><path d="M194,139.3h6.4l.9,5.6c1.8-3.2,4.4-5.9,8.7-6.1l1.2,7.4a12.85,12.85,0,0,0-9.7,5.2v15.8h-7.4V139.3Z" style="fill:#394b63"/><path d="M211.1,153.3c0-9,5.6-14.5,13.2-14.5s13.2,5.5,13.2,14.5-5.6,14.5-13.3,14.5C216.7,167.7,211.1,162.3,211.1,153.3Zm19.3,0c0-4.9-2.2-8.5-6-8.5s-6,3.4-6,8.4,2.1,8.4,6,8.4S230.4,158.2,230.4,153.3Z" style="fill:#394b63"/><path d="M240.4,177.3l-1-6a10.25,10.25,0,0,0,3.3.4,4.62,4.62,0,0,0,4.5-2.9l.6-1.5-10.3-27.9h8.1l6,18.7,5.9-18.7h7.3l-10.4,29.1c-2.5,6.9-5.7,9.2-11.3,9.2Z" style="fill:#394b63"/><path d="M264.9,153.3c0-9.1,5.5-14.5,12.8-14.5,8.4,0,12.1,6.3,12.1,14.2a16.2,16.2,0,0,1-.1,2.2H272.3c.4,4.6,3.1,6.9,7.2,6.9a16,16,0,0,0,9.4-3.3l.8,5.6a18.94,18.94,0,0,1-11.1,3.3C270.7,167.7,264.9,163.3,264.9,153.3Zm17.8-2.9c-.4-4.3-2-6.6-5.2-6.6-2.7,0-4.7,2.2-5.2,6.6Z" style="fill:#394b63"/><path d="M291.2,153.4c0-9.7,6.1-14.6,13.6-14.6a15.89,15.89,0,0,1,8.5,2.2l-1,6.6a11.13,11.13,0,0,0-7-2.5c-3.8,0-6.6,2.8-6.6,8.1,0,5.5,3,8.1,7,8.1a11.14,11.14,0,0,0,7-2.5l.9,6.2a15.24,15.24,0,0,1-9.1,2.7C296.6,167.6,291.2,162.4,291.2,153.4Z" style="fill:#394b63"/><path d="M317.6,158.9V145.3h-3.9v-6h3.9v-9.1h7.3v9.1h6v6h-6v12.4c0,2.2,1,3.4,3.6,3.4a10.32,10.32,0,0,0,2.6-.3V167a15.91,15.91,0,0,1-4,.4C321.4,167.6,317.6,165.5,317.6,158.9Z" style="fill:#394b63"/><path d="M332.3,153.3c0-9,5.6-14.5,13.2-14.5s13.2,5.5,13.2,14.5-5.6,14.5-13.3,14.5C337.9,167.7,332.3,162.3,332.3,153.3Zm19.2,0c0-4.9-2.2-8.5-6-8.5s-6,3.4-6,8.4,2.1,8.4,6,8.4S351.5,158.2,351.5,153.3Z" style="fill:#394b63"/><path d="M360,164.9l.9-6.2a20.19,20.19,0,0,0,10.3,3.3c2.8,0,4.1-.9,4.1-2.5s-1-2.3-5.2-3.4c-6.9-1.8-9.7-3.7-9.7-8.9,0-5,3.9-8.4,10.5-8.4a26.6,26.6,0,0,1,10,2l-1,6.1a20,20,0,0,0-9-2.6c-2.3,0-3.4.8-3.4,2.2s.9,2,4.9,3.1c7.3,1.9,10,3.9,10,9.1,0,5.7-4,8.9-11.3,8.9A24.89,24.89,0,0,1,360,164.9Z" style="fill:#394b63"/><path d="M397.3,127.5h11.6c9.2,0,14.8,4.3,14.8,12.5,0,8.6-6,12.9-15.4,12.9h-3v14.2h-8.1V127.5Zm11.1,19c4.7,0,7.4-2,7.4-6.4,0-4.1-2.6-6.1-7.3-6.1h-3.3v12.5Z" style="fill:#394b63"/><path d="M426.5,127.5h12.9c13.8,0,20.9,8.1,20.9,19.7,0,11.8-7.3,19.8-20.8,19.8H426.6V127.5Zm12.7,33c7.9,0,12.8-4.1,12.8-13.1s-5.2-13.1-12.7-13.1h-4.6v26.2Z" style="fill:#394b63"/><path d="M464.3,127.5h23.1v6.8H472.3V143h12.1v7H472.3v10.3H488v6.8H464.3Z" style="fill:#394b63"/><path d="M500.6,134.6H488.9v-7.1h31.5v7.1H508.7v32.5h-8.2V134.6Z" style="fill:#394b63"/><path d="M31.4,138a34,34,0,0,1,5.5-7l-18-19.7A60.93,60.93,0,0,0,7.5,126.1Z" style="fill:#62b046"/><path d="M75.5,124.1a30.57,30.57,0,0,1,7.5,4.7l18-19.6a57.2,57.2,0,0,0-16-9.9Z" style="fill:#e1b632"/><path d="M116.8,130,92.9,141.9a35.08,35.08,0,0,1,2.4,8.4l26.6-2.5a60.64,60.64,0,0,0-5.1-17.8" style="fill:#c2202e"/><path d="M91.2,138.5l23.9-11.9a60.16,60.16,0,0,0-11.2-14.8l-18,19.6a37.52,37.52,0,0,1,5.3,7.1" style="fill:#4c9b45"/><path d="M26.7,155.4v-1.6L.1,151.4c-.1,1.3-.1,2.6-.1,4a59.2,59.2,0,0,0,1.8,14.7l25.7-7.3a36.46,36.46,0,0,1-.8-7.4" style="fill:#3f7f46"/><path d="M87.8,177.2a37.61,37.61,0,0,1-6.5,6.1l14,22.7a61.73,61.73,0,0,0,13.8-12.7Z" style="fill:#f7bf1a"/><path d="M95.7,155.4a34.74,34.74,0,0,1-.8,7.3l25.7,7.4a59.2,59.2,0,0,0,1.8-14.7c0-1.3,0-2.5-.1-3.7l-26.6,2.5v1.2" style="fill:#e8452e"/><path d="M34.9,177.7,13.6,193.8a61.34,61.34,0,0,0,13.9,12.5l14-22.6a37.32,37.32,0,0,1-6.6-6" style="fill:#f39b30"/><path d="M27.1,150a33.5,33.5,0,0,1,2.5-8.5L5.7,129.6a64.52,64.52,0,0,0-5.3,18Z" style="fill:#2293d1"/><path d="M92.1,208l-14-22.6a32.75,32.75,0,0,1-8.2,3.3l4.9,26.2A63.88,63.88,0,0,0,92.1,208" style="fill:#a11c45"/><path d="M93.9,166.4a36.39,36.39,0,0,1-3.7,7.7l21.3,16a62.07,62.07,0,0,0,8.1-16.3Z" style="fill:#30b9dd"/><path d="M66.2,189.4a40.48,40.48,0,0,1-5,.4c-1.4,0-2.7-.1-4-.2l-4.9,26.2a65.63,65.63,0,0,0,9,.7,64,64,0,0,0,9.9-.8Z" style="fill:#eb692f"/><path d="M63.4,121.1a38.76,38.76,0,0,1,8.5,1.6l9.6-24.8a60.49,60.49,0,0,0-18.1-3.4Z" style="fill:#e1273f"/><path d="M53.4,188.9a36.28,36.28,0,0,1-8.5-3.2l-14,22.6A59.41,59.41,0,0,0,48.5,215Z" style="fill:#dc1c69"/><path d="M50.8,122.6a31.75,31.75,0,0,1,8.7-1.5V94.5a62.38,62.38,0,0,0-18.4,3.3Z" style="fill:#154b6d"/><path d="M32.6,174.6a34.27,34.27,0,0,1-4.1-8.1L2.8,173.8a58.36,58.36,0,0,0,8.5,16.9Z" style="fill:#c4962d"/><path d="M39.8,128.4a34.84,34.84,0,0,1,7.4-4.5L37.5,99.1a63,63,0,0,0-15.7,9.6Z" style="fill:#0f6b9f"/><path d="M30.8,155.9c0-9.3,3.7-15.7,11.2-15.7s11.1,6.3,11.1,15.6-3.7,15.7-11.2,15.7S30.8,165.2,30.8,155.9Zm16.2,0c0-6.4-1.5-10.7-5-10.7s-5,4.3-5,10.7,1.4,10.7,5,10.7S47,162.3,47,155.9Z" style="fill:#616262"/><path d="M54.5,140.8h6.8c9.3,0,13.4,5.5,13.4,15s-4.3,15.1-13.4,15.1H54.5Zm7,25.2c4.3,0,7.1-2.7,7.1-10.1s-2.8-10.1-7.1-10.1h-1v20.3h1Z" style="fill:#616262"/><path d="M75.1,169.5l.8-5.3a14.12,14.12,0,0,0,6.8,2.1c2.1,0,3.3-1.1,3.3-2.9,0-2-1.1-3.3-4.4-5.6s-6.2-4.7-6.2-9.2c0-4.8,3.3-8.2,8.5-8.2a14,14,0,0,1,6.6,1.4l-.8,5.3a9.46,9.46,0,0,0-5.3-1.7,2.68,2.68,0,0,0-2.9,2.7c0,1.9,1.2,3,4.3,5,3.6,2.5,6.4,5.1,6.4,9.7,0,5.3-3.6,8.4-9,8.4A16.61,16.61,0,0,1,75.1,169.5Z" style="fill:#616262"/></g></g></svg>