<?xml version="1.0" encoding="utf-8"?>
<!-- Generator: Adobe Illustrator 23.0.4, SVG Export Plug-In . SVG Version: 6.00 Build 0)  -->
<svg version="1.1" id="Capa_1" xmlns="http://www.w3.org/2000/svg" xmlns:xlink="http://www.w3.org/1999/xlink" x="0px" y="0px"
	 viewBox="0 0 390 171.2" style="enable-background:new 0 0 390 171.2;" xml:space="preserve">
<style type="text/css">
	.st0{fill:#374A63;}
	.st1{fill:#DF1F26;}
	.st2{fill:#4D9D45;}
	.st3{fill:#09A6D5;}
	.st4{fill:#EB6524;}
	.st5{fill:#4D7838;}
	.st6{fill:#084D82;}
	.st7{fill:#DC1079;}
	.st8{fill:#47607F;}
</style>
<g>
	<g>
		<path class="st0" d="M64.8,19c0-9.6,5.9-16.1,14.7-16.1c3.6,0,6.4,0.8,8.7,2.2l-0.9,6c-2-1.5-4.5-2.7-7.4-2.7
			c-5.2,0-8.6,4-8.6,10.6c0,6.7,3.6,10.6,8.8,10.6c2.8,0,5.3-1,7.7-2.5l0.9,5.5c-2.5,1.6-5.6,2.5-9,2.5C70.5,35,64.8,28.7,64.8,19z"
			/>
		<path class="st0" d="M91.2,28.3V12.6H97v14.1c0,1.8,0.8,3,2.6,3c1.6,0,3.2-1,4.6-2.5V12.6h5.8v21.9h-5l-0.5-3
			c-2,1.9-4.3,3.5-7.2,3.5C93.4,34.9,91.2,32.4,91.2,28.3z"/>
		<path class="st0" d="M112.2,28.9c0-5.2,4.2-7.6,13-8.4v-0.6c0-2.3-1.3-3.1-3.6-3.1c-2.5,0-4.9,0.7-7.2,1.8l-0.7-4.5
			c2.5-1.1,5.2-1.8,8.8-1.8c5.8,0,8.6,2,8.6,7.4v14.9h-5.1l-0.5-2.8c-1.8,1.8-4,3.2-7.1,3.2C114.6,34.9,112.2,32.8,112.2,28.9z
			 M125.1,28.5v-4.8c-5.9,0.7-7.2,2.5-7.2,4.5c0,1.6,1,2.5,2.5,2.5C122.1,30.6,123.7,29.8,125.1,28.5z M122.3,3.4h7v0.4l-6.2,6.1
			h-3.8L122.3,3.4z"/>
		<path class="st0" d="M134.3,2.6h5.8v31.8h-5.8V2.6z"/>
		<path class="st0" d="M151.4,23.6c0-7.1,4.3-11.4,10.1-11.4c6.6,0,9.5,5,9.5,11.2c0,0.5,0,1.2,0,1.8h-13.7c0.3,3.6,2.5,5.4,5.7,5.4
			c2.7,0,5-1,7.4-2.6l0.7,4.4c-2.4,1.6-5.2,2.6-8.7,2.6C156.1,34.9,151.4,31.4,151.4,23.6z M165.4,21.3c-0.3-3.4-1.6-5.2-4.1-5.2
			c-2.1,0-3.7,1.7-4.1,5.2H165.4z"/>
		<path class="st0" d="M172.2,32.8l0.7-4.9c2.5,1.6,5.5,2.6,8.1,2.6c2.2,0,3.2-0.7,3.2-2c0-1.3-0.8-1.8-4.1-2.7
			c-5.4-1.4-7.7-2.9-7.7-7c0-3.9,3-6.6,8.3-6.6c2.9,0,5.6,0.6,7.9,1.6l-0.8,4.8c-2.3-1.2-5-2-7.1-2c-1.8,0-2.7,0.7-2.7,1.7
			c0,1.1,0.7,1.6,3.9,2.4c5.7,1.5,7.9,3,7.9,7.1c0,4.5-3.2,7-8.9,7C177.6,34.9,174.3,33.9,172.2,32.8z"/>
		<path class="st0" d="M64.4,58.8c0-7.1,4.3-11.4,10.1-11.4c6.6,0,9.5,5,9.5,11.2c0,0.5,0,1.2,0,1.8H70.2c0.3,3.6,2.5,5.4,5.7,5.4
			c2.7,0,5-1,7.4-2.6l0.7,4.4c-2.4,1.6-5.2,2.6-8.7,2.6C69,70.1,64.4,66.6,64.4,58.8z M78.4,56.5c-0.3-3.4-1.6-5.2-4.1-5.2
			c-2.1,0-3.7,1.7-4.1,5.2H78.4z"/>
		<path class="st0" d="M86.4,37.8h5.8v31.8h-5.8V37.8z"/>
		<path class="st0" d="M104.7,47.8h5l0.5,2.9c1.6-1.8,3.6-3.4,6.6-3.4c4.5,0,8.1,3.4,8.1,10.8c0,8.1-4.5,11.7-9.5,11.7
			c-2,0-3.6-0.4-4.9-0.8v8.4h-5.8V47.8z M119.1,58.5c0-4.1-1.7-6-4-6c-1.8,0-3.3,1.1-4.6,2.8v9.1c1.2,0.5,2.2,0.8,3.9,0.8
			C117.1,65.3,119.1,63.1,119.1,58.5z"/>
		<path class="st0" d="M127.1,47.8h5l0.7,4.4c1.4-2.5,3.5-4.7,6.8-4.8l0.9,5.8c-3.4,0.2-6.1,1.9-7.7,4.1v12.4h-5.8V47.8z"/>
		<path class="st0" d="M141.5,41.1c0-1.9,1.5-3.2,3.4-3.2c1.8,0,3.4,1.3,3.4,3.2c0,1.9-1.5,3.2-3.4,3.2
			C142.9,44.3,141.5,43,141.5,41.1z M141.9,47.8h5.8v21.9h-5.8V47.8z"/>
		<path class="st0" d="M151.1,47.8h5l0.5,3c2-1.9,4.3-3.5,7.2-3.5c4.1,0,6.3,2.5,6.3,6.6v15.7h-5.8V55.6c0-1.8-0.8-3-2.7-3
			c-1.6,0-3.2,1-4.6,2.5v14.7h-5.8V47.8z"/>
		<path class="st0" d="M172,58.9c0-7.7,4.8-11.5,10.7-11.5c2.8,0,5,0.7,6.7,1.8l-0.8,5.2c-1.8-1.4-3.5-2-5.5-2c-3,0-5.2,2.2-5.2,6.3
			c0,4.3,2.4,6.3,5.5,6.3c1.8,0,3.5-0.5,5.5-2l0.7,4.9c-2.2,1.5-4.4,2.1-7.2,2.1C176.3,70.1,172,66,172,58.9z"/>
		<path class="st0" d="M191.4,41.1c0-1.9,1.5-3.2,3.4-3.2c1.8,0,3.4,1.3,3.4,3.2c0,1.9-1.5,3.2-3.4,3.2
			C192.9,44.3,191.4,43,191.4,41.1z M191.8,47.8h5.8v21.9h-5.8V47.8z"/>
		<path class="st0" d="M201.1,47.8h5l0.5,2.9c1.6-1.8,3.6-3.4,6.6-3.4c4.5,0,8.1,3.4,8.1,10.8c0,8.1-4.5,11.7-9.5,11.7
			c-2,0-3.6-0.4-4.9-0.8v8.4h-5.8V47.8z M215.5,58.5c0-4.1-1.7-6-4-6c-1.8,0-3.3,1.1-4.6,2.8v9.1c1.2,0.5,2.2,0.8,3.9,0.8
			C213.5,65.3,215.5,63.1,215.5,58.5z"/>
		<path class="st0" d="M222.3,64.1c0-5.2,4.2-7.6,13-8.4v-0.6c0-2.3-1.3-3.1-3.6-3.1c-2.5,0-4.9,0.7-7.2,1.8l-0.7-4.5
			c2.5-1.1,5.2-1.8,8.8-1.8c5.8,0,8.6,2,8.6,7.4v14.9H236l-0.5-2.8c-1.8,1.8-4,3.2-7.1,3.2C224.7,70.1,222.3,68,222.3,64.1z
			 M235.2,63.7v-4.8c-5.9,0.7-7.2,2.5-7.2,4.5c0,1.6,1,2.5,2.5,2.5C232.2,65.8,233.8,65,235.2,63.7z"/>
		<path class="st0" d="M244.4,37.8h5.8v31.8h-5.8V37.8z"/>
		<path class="st0" d="M65.5,83h5L71,86c1.6-1.8,3.6-3.4,6.6-3.4c4.5,0,8.1,3.4,8.1,10.8c0,8.1-4.5,11.7-9.5,11.7
			c-2,0-3.6-0.4-4.9-0.8v8.4h-5.8V83z M79.9,93.7c0-4.1-1.7-6-4-6c-1.8,0-3.3,1.1-4.6,2.8v9.1c1.2,0.5,2.2,0.8,3.9,0.8
			C77.9,100.5,79.9,98.3,79.9,93.7z"/>
		<path class="st0" d="M87.8,83h5l0.7,4.4c1.4-2.5,3.5-4.7,6.8-4.8l0.9,5.8c-3.4,0.2-6.1,1.9-7.7,4.1v12.4h-5.8V83z"/>
		<path class="st0" d="M101.3,94c0-7.1,4.4-11.4,10.4-11.4c6,0,10.4,4.3,10.4,11.4s-4.4,11.4-10.4,11.4
			C105.7,105.3,101.3,101.1,101.3,94z M116.5,94c0-3.9-1.7-6.7-4.7-6.7c-3.1,0-4.7,2.7-4.7,6.6c0,3.9,1.7,6.6,4.7,6.6
			C114.8,100.6,116.5,97.9,116.5,94z"/>
		<path class="st0" d="M124.2,103.7V73h5.8v12.4c1.4-1.4,3.4-2.9,6.1-2.9c4.6,0,8.1,3.4,8.1,10.8c0,8-4.4,11.8-11,11.8
			C129.9,105.2,126.8,104.6,124.2,103.7z M138.4,93.7c0-4.1-1.7-6-3.9-6c-1.7,0-3.2,1.1-4.5,2.6v9.5c1.1,0.4,1.8,0.5,3.2,0.5
			C136.3,100.4,138.4,98.5,138.4,93.7z"/>
		<path class="st0" d="M146.6,73h5.8v31.8h-5.8V73z"/>
		<path class="st0" d="M154.7,94c0-7.1,4.3-11.4,10.1-11.4c6.6,0,9.5,5,9.5,11.2c0,0.5,0,1.2,0,1.8h-13.7c0.3,3.6,2.5,5.4,5.7,5.4
			c2.7,0,5-1,7.4-2.6l0.7,4.4c-2.4,1.6-5.2,2.6-8.7,2.6C159.3,105.3,154.7,101.8,154.7,94z M168.7,91.7c-0.3-3.4-1.6-5.2-4.1-5.2
			c-2.1,0-3.7,1.7-4.1,5.2H168.7z"/>
		<path class="st0" d="M176.5,83h5l0.5,3c2-2,4.2-3.5,7.1-3.5c3,0,4.7,1.4,5.5,3.5c2-2,4.3-3.5,7.2-3.5c4.1,0,6.2,2.5,6.2,6.6v15.7
			h-5.8V90.8c0-1.8-0.7-3-2.5-3c-1.6,0-3.1,1-4.5,2.5v14.7h-5.8V90.8c0-1.8-0.7-3-2.5-3c-1.6,0-3,1-4.5,2.5v14.7h-5.8V83z"/>
		<path class="st0" d="M209.9,99.3c0-5.2,4.2-7.6,13-8.4v-0.6c0-2.3-1.3-3.1-3.6-3.1c-2.5,0-4.9,0.7-7.2,1.8l-0.7-4.5
			c2.5-1.1,5.2-1.8,8.8-1.8c5.8,0,8.6,2,8.6,7.4v14.9h-5.1l-0.5-2.8c-1.8,1.8-4,3.2-7.1,3.2C212.4,105.3,209.9,103.2,209.9,99.3z
			 M222.9,98.9v-4.8c-5.9,0.7-7.2,2.5-7.2,4.5c0,1.6,1,2.5,2.5,2.5C219.9,101,221.5,100.2,222.9,98.9z"/>
		<path class="st0" d="M239.8,94.6c0-8.2,4.5-11.8,9.5-11.8c2,0,3.6,0.4,4.9,0.8V73h5.8v31.8h-5l-0.5-2.9c-1.6,1.8-3.6,3.4-6.6,3.4
			C243.4,105.3,239.8,101.9,239.8,94.6z M254.2,97.4v-9.1c-1.2-0.5-2.2-0.8-3.9-0.8c-2.7,0-4.7,2.1-4.7,6.8c0,4.1,1.7,6,4,6
			C251.4,100.2,252.9,99.1,254.2,97.4z"/>
		<path class="st0" d="M262.1,94c0-7.1,4.3-11.4,10.1-11.4c6.6,0,9.5,5,9.5,11.2c0,0.5,0,1.2,0,1.8H268c0.3,3.6,2.5,5.4,5.7,5.4
			c2.7,0,5-1,7.4-2.6l0.7,4.4c-2.4,1.6-5.2,2.6-8.7,2.6C266.7,105.3,262.1,101.8,262.1,94z M276.1,91.7c-0.3-3.4-1.6-5.2-4.1-5.2
			c-2.1,0-3.7,1.7-4.1,5.2H276.1z"/>
		<path class="st1" d="M80.1,130.4l-2.8,39.9H67l4.3-56h14.8l13.3,41.2l13.3-41.2H127l4.3,56h-11.6l-2.8-39.9l-13.2,40.1H93.3
			L80.1,130.4z"/>
		<path class="st2" d="M134.5,150.8c0-12.8,7.7-20.6,18.1-20.6c11.9,0,17.2,8.9,17.2,20.1c0,1,0,2.1-0.1,3.2H145
			c0.5,6.6,4.4,9.7,10.2,9.7c4.8,0,9.1-1.8,13.3-4.6l1.2,7.9c-4.3,2.9-9.4,4.7-15.7,4.7C142.8,171.2,134.5,164.9,134.5,150.8z
			 M159.7,146.6c-0.5-6-2.9-9.4-7.3-9.4c-3.8,0-6.7,3.1-7.4,9.4H159.7z"/>
		<path class="st3" d="M171.8,151.8c0-14.7,8.1-21.2,17.1-21.2c3.6,0,6.5,0.7,8.8,1.5v-19h10.5v57.3h-9l-0.9-5.3
			c-2.8,3.2-6.6,6.1-11.9,6.1C178.2,171.2,171.8,165.1,171.8,151.8z M197.7,156.9v-16.4c-2.2-1-3.9-1.5-7-1.5
			c-4.9,0-8.4,3.8-8.4,12.2c0,7.4,3,10.8,7.1,10.8C192.7,161.9,195.3,159.9,197.7,156.9z"/>
		<path class="st4" d="M211.9,150.8c0-12.8,7.7-20.6,18.1-20.6c11.9,0,17.2,8.9,17.2,20.1c0,1,0,2.1-0.1,3.2h-24.7
			c0.5,6.6,4.4,9.7,10.2,9.7c4.8,0,9.1-1.8,13.3-4.6l1.2,7.9c-4.3,2.9-9.4,4.7-15.7,4.7C220.2,171.2,211.9,164.9,211.9,150.8z
			 M237.1,146.6c-0.5-6-2.9-9.4-7.3-9.4c-3.8,0-6.7,3.1-7.4,9.4H237.1z"/>
		<path class="st5" d="M251.6,113.1H262v57.3h-10.5V113.1z"/>
		<path class="st5" d="M268.6,113.1H279v57.3h-10.5V113.1z"/>
		<path class="st6" d="M284.5,131h10.5v39.3h-10.5V131z M293.6,114.4h12.7v0.7l-11.1,11h-6.9L293.6,114.4z"/>
		<path class="st7" d="M302.2,131h9l0.9,5.5c3.7-3.5,7.7-6.3,12.9-6.3c7.4,0,11.3,4.5,11.3,11.9v28.2h-10.5V145
			c0-3.2-1.4-5.5-4.8-5.5c-2.9,0-5.7,1.8-8.3,4.5v26.4h-10.5V131z"/>
	</g>
	<g>
		<g>
			<path class="st8" d="M40.7,57.5l-0.9,0.3C26.8,62.2,21.1,69,21.1,78.9c0,7.8,5.3,12.2,12.6,12.2c7.7,0,14.8-4,22.3-9.9l2.7,18.3
				c-7.4,6.1-16.5,10.4-29.1,10.4C11.5,109.8,0,99.2,0,80.2c0-15.6,9.5-27.4,24.8-32.9L26,35.6h12.8L40.7,57.5z M43.3,23.7H21.9V0
				h21.4V23.7z"/>
		</g>
	</g>
	<g>
		<g>
			<path class="st8" d="M349.3,112l0.9-0.3c12.1-5,18.7-11.2,18.7-21.1c0-7.8-5.3-12.2-12.6-12.2c-7.7,0-14.8,4-22.3,9.9L331.2,70
				c7.4-6.1,16.5-10.4,29.1-10.4c18.2,0,29.7,10.6,29.7,29.7c0,15.6-9.5,27.4-24.8,32.9l-1.1,11.6h-12.8L349.3,112z M346.7,145.8
				h21.4v23.7h-21.4V145.8z"/>
		</g>
	</g>
</g>
</svg>
