<svg xmlns="http://www.w3.org/2000/svg" viewBox="0 0 225.75 88.46"><title>svg_main</title><g id="Layer_2" data-name="Layer 2"><g id="Layer_1-2" data-name="Layer 1"><g id="Layer_1-2-2" data-name="Layer 1-2"><path id="C1" d="M150.52,85.29l4.4,3,2.7-3.9-.5-13.5-3.1-1.8,2.8-3.7-.7-2.4-2.1-2.4,2.7-2.9-1.4-5,2.3-3.7-1.9-2.9-3.7-1.6L154.93,39l2.4-2.6-.4-7.1-3.7-3.8L148,15.6l-2.5.7L141.72,11l-3.79-3-5.8-1.9L129.93,4l-1.5-2.5-3.8,1.1L120.72.19l-1,2.8-9.5-2.1-2.9,3.8-3.8-2.4-.2-1.1h-1.9l.3,3.2-2.4,4.3,1.2,2.9-.9,6.2-9.3,17.8,2,4.3,4.9,1.5,1.7,2-2.4,2-1.8-.1-2.6,4.4,1.2,4.2,2.5.8-.9,2.5-11.6,2-4.2,6.9-7.19,1.8-3.8,2.4,7.9,8.5,4.5.5,2.4,3.1,10.7,5.2,9.5-1.4,4.7,2,10.7-4.5,3.6.9,5-3.2h8.3l4.3,1.8,9.4-.4Z" style="fill:#86c944;stroke:#666;stroke-width:0.25px;fill-rule:evenodd"/></g><path d="M203.94,66.73a1.63,1.63,0,0,1-1.15.47,1.61,1.61,0,0,1-1.15-.47,1.64,1.64,0,0,1,0-2.3l20.19-20.19L201.64,24a1.62,1.62,0,0,1,2.3-2.29l21.34,21.34a1.64,1.64,0,0,1,0,2.3Z" style="fill:#fcfcfc"/><path d="M21.82,66.73a1.63,1.63,0,0,0,2.29,0,1.62,1.62,0,0,0,0-2.3L3.92,44.24,24.11,24a1.61,1.61,0,0,0,0-2.29,1.62,1.62,0,0,0-2.29,0L.48,43.09a1.62,1.62,0,0,0,0,2.3Z" style="fill:#fcfcfc"/></g></g></svg>